<svg xmlns="http://www.w3.org/2000/svg" xmlns:xlink="http://www.w3.org/1999/xlink" width="461" height="300" viewBox="-0.8090 -0.5 1.6180 1.0518"><style>svg {
  color-scheme: light dark;
}
{
  .canvas g, .title g, .axisbar g, .ticktext g, .tickglyph g, .ticklines g, .legendContent g text {
    fill: rgb(5%, 5%, 5%);
  }
  .ticklines g, .tickglyph g, .legendBorder g {
    stroke: rgb(5%, 5%, 5%);
  }
  .legendBorder g {
    fill: rgb(94%, 94%, 94%);
  }
}
@media (prefers-color-scheme:dark) {
  .canvas g, .title g, .axisbar g, .ticktext g, .tickglyph g, .ticklines g, .legendContent g text {
    fill: rgb(94%, 94%, 94%);
  }
  .ticklines g, .tickglyph g, .legendBorder g {
    stroke: rgb(94%, 94%, 94%);
  }
  .legendBorder g {
    fill: rgb(5%, 5%, 5%);
  }
}</style><g class="chart"><g class="barchart"><g stroke-width="0" stroke="rgb(2%, 29%, 48%)" stroke-opacity="1.0" fill="rgb(0%, 30%, 12%)" fill-opacity="1.0"><rect width="0.0322" height="0.0061" x="-0.5530" y="0.0904"/></g><g stroke-width="0.0010" stroke="rgb(0%, 30%, 12%)" stroke-opacity="1.0" fill="rgb(0%, 30%, 12%)" fill-opacity="0.25"><rect width="0.0322" height="0.0058" x="-0.5208" y="0.0907"/></g><g stroke-width="0" stroke="rgb(2%, 29%, 48%)" stroke-opacity="1.0" fill="rgb(1%, 28%, 43%)" fill-opacity="1.0"><rect width="0.0322" height="0.0695" x="-0.4886" y="0.0270"/></g><g stroke-width="0.0010" stroke="rgb(1%, 28%, 43%)" stroke-opacity="1.0" fill="rgb(1%, 28%, 43%)" fill-opacity="0.25"><rect width="0.0322" height="0.0641" x="-0.4565" y="0.0323"/></g><g stroke-width="0" stroke="rgb(2%, 29%, 48%)" stroke-opacity="1.0" fill="rgb(0%, 72%, 98%)" fill-opacity="1.0"><rect width="0.0322" height="0.0204" x="-0.4243" y="0.0760"/></g><g stroke-width="0.0010" stroke="rgb(0%, 72%, 98%)" stroke-opacity="1.0" fill="rgb(0%, 72%, 98%)" fill-opacity="0.25"><rect width="0.0322" height="0.0186" x="-0.3921" y="0.0779"/></g><g stroke-width="0" stroke="rgb(2%, 29%, 48%)" stroke-opacity="1.0" fill="rgb(90%, 37%, 58%)" fill-opacity="1.0"><rect width="0.0322" height="0.0168" x="-0.3600" y="0.0797"/></g><g stroke-width="0.0010" stroke="rgb(90%, 37%, 58%)" stroke-opacity="1.0" fill="rgb(90%, 37%, 58%)" fill-opacity="0.25"><rect width="0.0322" height="0.0151" x="-0.3278" y="0.0813"/></g><g stroke-width="0" stroke="rgb(2%, 29%, 48%)" stroke-opacity="1.0" fill="rgb(38%, 23%, 0%)" fill-opacity="1.0"><rect width="0.0322" height="0.0408" x="-0.2956" y="0.0556"/></g><g stroke-width="0.0010" stroke="rgb(38%, 23%, 0%)" stroke-opacity="1.0" fill="rgb(38%, 23%, 0%)" fill-opacity="0.25"><rect width="0.0322" height="0.0378" x="-0.2634" y="0.0586"/></g><g stroke-width="0" stroke="rgb(2%, 29%, 48%)" stroke-opacity="1.0" fill="rgb(91%, 19%, 0%)" fill-opacity="1.0"><rect width="0.0322" height="0.0411" x="-0.2313" y="0.0554"/></g><g stroke-width="0.0010" stroke="rgb(91%, 19%, 0%)" stroke-opacity="1.0" fill="rgb(91%, 19%, 0%)" fill-opacity="0.25"><rect width="0.0322" height="0.0372" x="-0.1991" y="0.0592"/></g><g stroke-width="0" stroke="rgb(2%, 29%, 48%)" stroke-opacity="1.0" fill="rgb(0%, 64%, 70%)" fill-opacity="1.0"><rect width="0.0322" height="0.0061" x="-0.1669" y="0.0903"/></g><g stroke-width="0.0010" stroke="rgb(0%, 64%, 70%)" stroke-opacity="1.0" fill="rgb(0%, 64%, 70%)" fill-opacity="0.25"><rect width="0.0322" height="0.0055" x="-0.1347" y="0.0910"/></g><g stroke-width="0" stroke="rgb(2%, 29%, 48%)" stroke-opacity="1.0" fill="rgb(91%, 47%, 0%)" fill-opacity="1.0"><rect width="0.0322" height="0.0258" x="-0.1026" y="0.0707"/></g><g stroke-width="0.0010" stroke="rgb(91%, 47%, 0%)" stroke-opacity="1.0" fill="rgb(91%, 47%, 0%)" fill-opacity="0.25"><rect width="0.0322" height="0.0230" x="-0.0704" y="0.0735"/></g><g stroke-width="0" stroke="rgb(2%, 29%, 48%)" stroke-opacity="1.0" fill="rgb(62%, 0%, 31%)" fill-opacity="1.0"><rect width="0.0322" height="0.0178" x="-0.0382" y="0.0787"/></g><g stroke-width="0.0010" stroke="rgb(62%, 0%, 31%)" stroke-opacity="1.0" fill="rgb(62%, 0%, 31%)" fill-opacity="0.25"><rect width="0.0322" height="0.0162" x="-0.0060" y="0.0803"/></g><g stroke-width="0" stroke="rgb(2%, 29%, 48%)" stroke-opacity="1.0" fill="rgb(17%, 40%, 67%)" fill-opacity="1.0"><rect width="0.0322" height="0.0179" x="0.0261" y="0.0786"/></g><g stroke-width="0.0010" stroke="rgb(17%, 40%, 67%)" stroke-opacity="1.0" fill="rgb(17%, 40%, 67%)" fill-opacity="0.25"><rect width="0.0322" height="0.0160" x="0.0583" y="0.0804"/></g><g stroke-width="0" stroke="rgb(2%, 29%, 48%)" stroke-opacity="1.0" fill="rgb(0%, 52%, 40%)" fill-opacity="1.0"><rect width="0.0322" height="0.3113" x="0.0905" y="-0.2148"/></g><g stroke-width="0.0010" stroke="rgb(0%, 52%, 40%)" stroke-opacity="1.0" fill="rgb(0%, 52%, 40%)" fill-opacity="0.25"><rect width="0.0322" height="0.2876" x="0.1226" y="-0.1911"/></g></g><g class="errors"><g stroke-width="0.0015" stroke="rgb(5%, 5%, 5%)" stroke-opacity="1.0" fill="none"><polyline points="-0.5401,0.0904 -0.5337,0.0904"/><polyline points="-0.5369,0.0904 -0.5369,0.0903"/><polyline points="-0.5401,0.0903 -0.5337,0.0903"/></g><g stroke-width="0.0015" stroke="rgb(5%, 5%, 5%)" stroke-opacity="1.0" fill="none"><polyline points="-0.5079,0.0908 -0.5015,0.0908"/><polyline points="-0.5047,0.0908 -0.5047,0.0906"/><polyline points="-0.5079,0.0906 -0.5015,0.0906"/></g><g stroke-width="0.0015" stroke="rgb(5%, 5%, 5%)" stroke-opacity="1.0" fill="none"><polyline points="-0.4758,0.0273 -0.4693,0.0273"/><polyline points="-0.4726,0.0273 -0.4726,0.0266"/><polyline points="-0.4758,0.0266 -0.4693,0.0266"/></g><g stroke-width="0.0015" stroke="rgb(5%, 5%, 5%)" stroke-opacity="1.0" fill="none"><polyline points="-0.4436,0.0326 -0.4372,0.0326"/><polyline points="-0.4404,0.0326 -0.4404,0.0320"/><polyline points="-0.4436,0.0320 -0.4372,0.0320"/></g><g stroke-width="0.0015" stroke="rgb(5%, 5%, 5%)" stroke-opacity="1.0" fill="none"><polyline points="-0.4114,0.0764 -0.4050,0.0764"/><polyline points="-0.4082,0.0764 -0.4082,0.0757"/><polyline points="-0.4114,0.0757 -0.4050,0.0757"/></g><g stroke-width="0.0015" stroke="rgb(5%, 5%, 5%)" stroke-opacity="1.0" fill="none"><polyline points="-0.3793,0.0781 -0.3728,0.0781"/><polyline points="-0.3760,0.0781 -0.3760,0.0777"/><polyline points="-0.3793,0.0777 -0.3728,0.0777"/></g><g stroke-width="0.0015" stroke="rgb(5%, 5%, 5%)" stroke-opacity="1.0" fill="none"><polyline points="-0.3471,0.0798 -0.3406,0.0798"/><polyline points="-0.3439,0.0798 -0.3439,0.0796"/><polyline points="-0.3471,0.0796 -0.3406,0.0796"/></g><g stroke-width="0.0015" stroke="rgb(5%, 5%, 5%)" stroke-opacity="1.0" fill="none"><polyline points="-0.3149,0.0815 -0.3085,0.0815"/><polyline points="-0.3117,0.0815 -0.3117,0.0811"/><polyline points="-0.3149,0.0811 -0.3085,0.0811"/></g><g stroke-width="0.0015" stroke="rgb(5%, 5%, 5%)" stroke-opacity="1.0" fill="none"><polyline points="-0.2827,0.0557 -0.2763,0.0557"/><polyline points="-0.2795,0.0557 -0.2795,0.0556"/><polyline points="-0.2827,0.0556 -0.2763,0.0556"/></g><g stroke-width="0.0015" stroke="rgb(5%, 5%, 5%)" stroke-opacity="1.0" fill="none"><polyline points="-0.2506,0.0587 -0.2441,0.0587"/><polyline points="-0.2473,0.0587 -0.2473,0.0586"/><polyline points="-0.2506,0.0586 -0.2441,0.0586"/></g><g stroke-width="0.0015" stroke="rgb(5%, 5%, 5%)" stroke-opacity="1.0" fill="none"><polyline points="-0.2184,0.0555 -0.2120,0.0555"/><polyline points="-0.2152,0.0555 -0.2152,0.0552"/><polyline points="-0.2184,0.0552 -0.2120,0.0552"/></g><g stroke-width="0.0015" stroke="rgb(5%, 5%, 5%)" stroke-opacity="1.0" fill="none"><polyline points="-0.1862,0.0595 -0.1798,0.0595"/><polyline points="-0.1830,0.0595 -0.1830,0.0589"/><polyline points="-0.1862,0.0589 -0.1798,0.0589"/></g><g stroke-width="0.0015" stroke="rgb(5%, 5%, 5%)" stroke-opacity="1.0" fill="none"><polyline points="-0.1540,0.0904 -0.1476,0.0904"/><polyline points="-0.1508,0.0904 -0.1508,0.0903"/><polyline points="-0.1540,0.0903 -0.1476,0.0903"/></g><g stroke-width="0.0015" stroke="rgb(5%, 5%, 5%)" stroke-opacity="1.0" fill="none"><polyline points="-0.1219,0.0910 -0.1154,0.0910"/><polyline points="-0.1187,0.0910 -0.1187,0.0909"/><polyline points="-0.1219,0.0909 -0.1154,0.0909"/></g><g stroke-width="0.0015" stroke="rgb(5%, 5%, 5%)" stroke-opacity="1.0" fill="none"><polyline points="-0.0897,0.0707 -0.0833,0.0707"/><polyline points="-0.0865,0.0707 -0.0865,0.0707"/><polyline points="-0.0897,0.0707 -0.0833,0.0707"/></g><g stroke-width="0.0015" stroke="rgb(5%, 5%, 5%)" stroke-opacity="1.0" fill="none"><polyline points="-0.0575,0.0740 -0.0511,0.0740"/><polyline points="-0.0543,0.0740 -0.0543,0.0730"/><polyline points="-0.0575,0.0730 -0.0511,0.0730"/></g><g stroke-width="0.0015" stroke="rgb(5%, 5%, 5%)" stroke-opacity="1.0" fill="none"><polyline points="-0.0253,0.0789 -0.0189,0.0789"/><polyline points="-0.0221,0.0789 -0.0221,0.0785"/><polyline points="-0.0253,0.0785 -0.0189,0.0785"/></g><g stroke-width="0.0015" stroke="rgb(5%, 5%, 5%)" stroke-opacity="1.0" fill="none"><polyline points="0.0068,0.0806 0.0133,0.0806"/><polyline points="0.0100,0.0806 0.0100,0.0800"/><polyline points="0.0068,0.0800 0.0133,0.0800"/></g><g stroke-width="0.0015" stroke="rgb(5%, 5%, 5%)" stroke-opacity="1.0" fill="none"><polyline points="0.0390,0.0787 0.0454,0.0787"/><polyline points="0.0422,0.0787 0.0422,0.0784"/><polyline points="0.0390,0.0784 0.0454,0.0784"/></g><g stroke-width="0.0015" stroke="rgb(5%, 5%, 5%)" stroke-opacity="1.0" fill="none"><polyline points="0.0712,0.0806 0.0776,0.0806"/><polyline points="0.0744,0.0806 0.0744,0.0803"/><polyline points="0.0712,0.0803 0.0776,0.0803"/></g><g stroke-width="0.0015" stroke="rgb(5%, 5%, 5%)" stroke-opacity="1.0" fill="none"><polyline points="0.1033,-0.2125 0.1098,-0.2125"/><polyline points="0.1066,-0.2125 0.1066,-0.2170"/><polyline points="0.1033,-0.2170 0.1098,-0.2170"/></g><g stroke-width="0.0015" stroke="rgb(5%, 5%, 5%)" stroke-opacity="1.0" fill="none"><polyline points="0.1355,-0.1872 0.1420,-0.1872"/><polyline points="0.1387,-0.1872 0.1387,-0.1951"/><polyline points="0.1355,-0.1951 0.1420,-0.1951"/></g></g></g><g class="hud"><g class="axis"><g class="ticks"><g class="tickglyph"><g stroke-width="0.0040" stroke="rgb(5%, 5%, 5%)" stroke-opacity="0.4" fill="rgb(5%, 5%, 5%)" fill-opacity="0.4"><g transform="rotate(-90.0, -0.6069, 0.0965)"><polyline points="-0.6069,0.1115
-0.6069,0.0815"/></g><g transform="rotate(-90.0, -0.6069, 0.0618)"><polyline points="-0.6069,0.0768
-0.6069,0.0468"/></g><g transform="rotate(-90.0, -0.6069, 0.0271)"><polyline points="-0.6069,0.0421
-0.6069,0.0121"/></g><g transform="rotate(-90.0, -0.6069, -0.0076)"><polyline points="-0.6069,0.0074
-0.6069,-0.0226"/></g><g transform="rotate(-90.0, -0.6069, -0.0423)"><polyline points="-0.6069,-0.0273
-0.6069,-0.0573"/></g><g transform="rotate(-90.0, -0.6069, -0.0769)"><polyline points="-0.6069,-0.0619
-0.6069,-0.0919"/></g><g transform="rotate(-90.0, -0.6069, -0.1116)"><polyline points="-0.6069,-0.0966
-0.6069,-0.1266"/></g><g transform="rotate(-90.0, -0.6069, -0.1463)"><polyline points="-0.6069,-0.1313
-0.6069,-0.1613"/></g><g transform="rotate(-90.0, -0.6069, -0.1810)"><polyline points="-0.6069,-0.1660
-0.6069,-0.1960"/></g><g transform="rotate(-90.0, -0.6069, -0.2156)"><polyline points="-0.6069,-0.2006
-0.6069,-0.2306"/></g><g transform="rotate(-90.0, -0.6069, -0.2503)"><polyline points="-0.6069,-0.2353
-0.6069,-0.2653"/></g></g></g><g class="ticktext"><g stroke-width="0.0" stroke="none" fill="rgb(5%, 5%, 5%)" fill-opacity="1.0" font-size="0.0243" text-anchor="end"><text x="-0.6244" y="0.1012"> 0</text><text x="-0.6244" y="0.0665"> 5</text><text x="-0.6244" y="0.0319">10</text><text x="-0.6244" y="-0.0028">15</text><text x="-0.6244" y="-0.0375">20</text><text x="-0.6244" y="-0.0722">25</text><text x="-0.6244" y="-0.1068">30</text><text x="-0.6244" y="-0.1415">35</text><text x="-0.6244" y="-0.1762">40</text><text x="-0.6244" y="-0.2109">45</text><text x="-0.6244" y="-0.2455">50</text></g></g><g class="ticklines"><g stroke-width="0.0050" stroke="rgb(5%, 5%, 5%)" stroke-opacity="0.05" fill="none"><polyline points="-0.5923,0.0965 0.1941,0.0965"/><polyline points="-0.5923,0.0618 0.1941,0.0618"/><polyline points="-0.5923,0.0271 0.1941,0.0271"/><polyline points="-0.5923,-0.0076 0.1941,-0.0076"/><polyline points="-0.5923,-0.0423 0.1941,-0.0423"/><polyline points="-0.5923,-0.0769 0.1941,-0.0769"/><polyline points="-0.5923,-0.1116 0.1941,-0.1116"/><polyline points="-0.5923,-0.1463 0.1941,-0.1463"/><polyline points="-0.5923,-0.1810 0.1941,-0.1810"/><polyline points="-0.5923,-0.2156 0.1941,-0.2156"/><polyline points="-0.5923,-0.2503 0.1941,-0.2503"/></g></g></g><g class="axisbar"><g stroke-width="0" stroke="rgb(0%, 0%, 0%)" stroke-opacity="0" fill="rgb(5%, 5%, 5%)" fill-opacity="0.4"><rect width="0.0019" height="0.3482" x="-0.5991" y="-0.2510"/></g></g></g><g class="axis"><g class="ticks"><g class="tickglyph"><g stroke-width="0.0040" stroke="rgb(5%, 5%, 5%)" stroke-opacity="0.4" fill="rgb(5%, 5%, 5%)" fill-opacity="0.4"><polyline points="-0.5369,0.1220
-0.5369,0.0920"/><polyline points="-0.5047,0.1220
-0.5047,0.0920"/><polyline points="-0.4726,0.1220
-0.4726,0.0920"/><polyline points="-0.4404,0.1220
-0.4404,0.0920"/><polyline points="-0.4082,0.1220
-0.4082,0.0920"/><polyline points="-0.3760,0.1220
-0.3760,0.0920"/><polyline points="-0.3439,0.1220
-0.3439,0.0920"/><polyline points="-0.3117,0.1220
-0.3117,0.0920"/><polyline points="-0.2795,0.1220
-0.2795,0.0920"/><polyline points="-0.2473,0.1220
-0.2473,0.0920"/><polyline points="-0.2152,0.1220
-0.2152,0.0920"/><polyline points="-0.1830,0.1220
-0.1830,0.0920"/><polyline points="-0.1508,0.1220
-0.1508,0.0920"/><polyline points="-0.1187,0.1220
-0.1187,0.0920"/><polyline points="-0.0865,0.1220
-0.0865,0.0920"/><polyline points="-0.0543,0.1220
-0.0543,0.0920"/><polyline points="-0.0221,0.1220
-0.0221,0.0920"/><polyline points="0.0100,0.1220
0.0100,0.0920"/><polyline points="0.0422,0.1220
0.0422,0.0920"/><polyline points="0.0744,0.1220
0.0744,0.0920"/><polyline points="0.1066,0.1220
0.1066,0.0920"/><polyline points="0.1387,0.1220
0.1387,0.0920"/></g></g><g class="ticktext"><g stroke-width="0.0" stroke="none" fill="rgb(5%, 5%, 5%)" fill-opacity="1.0" font-size="0.0243" text-anchor="end"><text x="-0.5369" y="0.1291" transform="rotate(-45.0, -0.5369, 0.1291)">CDCL (adaptive)</text><text x="-0.5047" y="0.1291" transform="rotate(-45.0, -0.5047, 0.1291)">CDCL (adaptive), Baseline</text><text x="-0.4726" y="0.1291" transform="rotate(-45.0, -0.4726, 0.1291)">CDCL (adaptive, mVSIDS)</text><text x="-0.4404" y="0.1291" transform="rotate(-45.0, -0.4404, 0.1291)">CDCL (adaptive, mVSIDS), Baseline</text><text x="-0.4082" y="0.1291" transform="rotate(-45.0, -0.4082, 0.1291)">CDCL (α = 0.75)</text><text x="-0.3760" y="0.1291" transform="rotate(-45.0, -0.3760, 0.1291)">CDCL (α = 0.75), Baseline</text><text x="-0.3439" y="0.1291" transform="rotate(-45.0, -0.3439, 0.1291)">CDCL (α = 0.75, mVISDS)</text><text x="-0.3117" y="0.1291" transform="rotate(-45.0, -0.3117, 0.1291)">CDCL (α = 0.75, mVISDS), Baseline</text><text x="-0.2795" y="0.1291" transform="rotate(-45.0, -0.2795, 0.1291)">CDCL (α = 0.75, mVISDS, ExpRestart(100, 2))</text><text x="-0.2473" y="0.1291" transform="rotate(-45.0, -0.2473, 0.1291)">CDCL (α = 0.75, mVISDS, ExpRestart(100, 2)), Baseline</text><text x="-0.2152" y="0.1291" transform="rotate(-45.0, -0.2152, 0.1291)">CDCL (α = 0.75, mVISDS, LubyRestart(100, 2))</text><text x="-0.1830" y="0.1291" transform="rotate(-45.0, -0.1830, 0.1291)">CDCL (α = 0.75, mVISDS, LubyRestart(100, 2)), Baseline</text><text x="-0.1508" y="0.1291" transform="rotate(-45.0, -0.1508, 0.1291)">CDCL (α = 0.95)</text><text x="-0.1187" y="0.1291" transform="rotate(-45.0, -0.1187, 0.1291)">CDCL (α = 0.95), Baseline</text><text x="-0.0865" y="0.1291" transform="rotate(-45.0, -0.0865, 0.1291)">CDCL (α = 0.95, mVISDS)</text><text x="-0.0543" y="0.1291" transform="rotate(-45.0, -0.0543, 0.1291)">CDCL (α = 0.95, mVISDS), Baseline</text><text x="-0.0221" y="0.1291" transform="rotate(-45.0, -0.0221, 0.1291)">CDCL (α = 0.95, mVISDS, ExpRestart(100, 2))</text><text x="0.0100" y="0.1291" transform="rotate(-45.0, 0.0100, 0.1291)">CDCL (α = 0.95, mVISDS, ExpRestart(100, 2)), Baseline</text><text x="0.0422" y="0.1291" transform="rotate(-45.0, 0.0422, 0.1291)">CDCL (α = 0.95, mVISDS, LubyRestart(100, 2))</text><text x="0.0744" y="0.1291" transform="rotate(-45.0, 0.0744, 0.1291)">CDCL (α = 0.95, mVISDS, LubyRestart(100, 2)), Baseline</text><text x="0.1066" y="0.1291" transform="rotate(-45.0, 0.1066, 0.1291)">DPLL</text><text x="0.1387" y="0.1291" transform="rotate(-45.0, 0.1387, 0.1291)">DPLL, Baseline</text></g></g></g><g class="axisbar"><g stroke-width="0" stroke="rgb(0%, 0%, 0%)" stroke-opacity="0" fill="rgb(5%, 5%, 5%)" fill-opacity="0.4"><rect width="0.7884" height="0.0014" x="-0.5933" y="0.1001"/></g></g></g><g class="title"><g stroke-width="0.0" stroke="none" fill="rgb(5%, 5%, 5%)" fill-opacity="1.0" font-size="0.0583" text-anchor="middle"><text x="-0.2582" y="-0.2858">Time: SATLIB/Bejing/3blocks/cnf</text></g></g><g class="legend"><g class="legendBorder"><g stroke-width="0.0017" stroke="rgb(5%, 5%, 5%)" stroke-opacity="1.0" fill="rgb(5%, 5%, 5%)" fill-opacity="0"><rect width="0.4316" height="0.5411" x="0.2785" y="-0.4294"/></g></g><g class="legendContent"><g stroke-width="0.0" stroke="none" fill="rgb(5%, 5%, 5%)" fill-opacity="1.0" font-size="0.0153" text-anchor="start"><text x="0.2870" y="0.0992">DPLL, Baseline</text></g><g stroke-width="0.0002" stroke="rgb(0%, 52%, 40%)" stroke-opacity="1.0" fill="rgb(0%, 52%, 40%)" fill-opacity="0.25"><rect width="0.0255" height="0.0182" x="0.6760" y="0.0874"/></g><g stroke-width="0.0" stroke="none" fill="rgb(5%, 5%, 5%)" fill-opacity="1.0" font-size="0.0153" text-anchor="start"><text x="0.2870" y="0.0749">DPLL</text></g><g stroke-width="0" stroke="rgb(2%, 29%, 48%)" stroke-opacity="1.0" fill="rgb(0%, 52%, 40%)" fill-opacity="1.0"><rect width="0.0255" height="0.0182" x="0.6760" y="0.0630"/></g><g stroke-width="0.0" stroke="none" fill="rgb(5%, 5%, 5%)" fill-opacity="1.0" font-size="0.0153" text-anchor="start"><text x="0.2870" y="0.0505">CDCL (α = 0.95, mVISDS, LubyRestart(100, 2)), Baseline</text></g><g stroke-width="0.0002" stroke="rgb(17%, 40%, 67%)" stroke-opacity="1.0" fill="rgb(17%, 40%, 67%)" fill-opacity="0.25"><rect width="0.0255" height="0.0182" x="0.6760" y="0.0387"/></g><g stroke-width="0.0" stroke="none" fill="rgb(5%, 5%, 5%)" fill-opacity="1.0" font-size="0.0153" text-anchor="start"><text x="0.2870" y="0.0262">CDCL (α = 0.95, mVISDS, LubyRestart(100, 2))</text></g><g stroke-width="0" stroke="rgb(2%, 29%, 48%)" stroke-opacity="1.0" fill="rgb(17%, 40%, 67%)" fill-opacity="1.0"><rect width="0.0255" height="0.0182" x="0.6760" y="0.0144"/></g><g stroke-width="0.0" stroke="none" fill="rgb(5%, 5%, 5%)" fill-opacity="1.0" font-size="0.0153" text-anchor="start"><text x="0.2870" y="0.0019">CDCL (α = 0.95, mVISDS, ExpRestart(100, 2)), Baseline</text></g><g stroke-width="0.0002" stroke="rgb(62%, 0%, 31%)" stroke-opacity="1.0" fill="rgb(62%, 0%, 31%)" fill-opacity="0.25"><rect width="0.0255" height="0.0182" x="0.6760" y="-0.0099"/></g><g stroke-width="0.0" stroke="none" fill="rgb(5%, 5%, 5%)" fill-opacity="1.0" font-size="0.0153" text-anchor="start"><text x="0.2870" y="-0.0224">CDCL (α = 0.95, mVISDS, ExpRestart(100, 2))</text></g><g stroke-width="0" stroke="rgb(2%, 29%, 48%)" stroke-opacity="1.0" fill="rgb(62%, 0%, 31%)" fill-opacity="1.0"><rect width="0.0255" height="0.0182" x="0.6760" y="-0.0343"/></g><g stroke-width="0.0" stroke="none" fill="rgb(5%, 5%, 5%)" fill-opacity="1.0" font-size="0.0153" text-anchor="start"><text x="0.2870" y="-0.0467">CDCL (α = 0.95, mVISDS), Baseline</text></g><g stroke-width="0.0002" stroke="rgb(91%, 47%, 0%)" stroke-opacity="1.0" fill="rgb(91%, 47%, 0%)" fill-opacity="0.25"><rect width="0.0255" height="0.0182" x="0.6760" y="-0.0586"/></g><g stroke-width="0.0" stroke="none" fill="rgb(5%, 5%, 5%)" fill-opacity="1.0" font-size="0.0153" text-anchor="start"><text x="0.2870" y="-0.0711">CDCL (α = 0.95, mVISDS)</text></g><g stroke-width="0" stroke="rgb(2%, 29%, 48%)" stroke-opacity="1.0" fill="rgb(91%, 47%, 0%)" fill-opacity="1.0"><rect width="0.0255" height="0.0182" x="0.6760" y="-0.0829"/></g><g stroke-width="0.0" stroke="none" fill="rgb(5%, 5%, 5%)" fill-opacity="1.0" font-size="0.0153" text-anchor="start"><text x="0.2870" y="-0.0954">CDCL (α = 0.95), Baseline</text></g><g stroke-width="0.0002" stroke="rgb(0%, 64%, 70%)" stroke-opacity="1.0" fill="rgb(0%, 64%, 70%)" fill-opacity="0.25"><rect width="0.0255" height="0.0182" x="0.6760" y="-0.1072"/></g><g stroke-width="0.0" stroke="none" fill="rgb(5%, 5%, 5%)" fill-opacity="1.0" font-size="0.0153" text-anchor="start"><text x="0.2870" y="-0.1197">CDCL (α = 0.95)</text></g><g stroke-width="0" stroke="rgb(2%, 29%, 48%)" stroke-opacity="1.0" fill="rgb(0%, 64%, 70%)" fill-opacity="1.0"><rect width="0.0255" height="0.0182" x="0.6760" y="-0.1315"/></g><g stroke-width="0.0" stroke="none" fill="rgb(5%, 5%, 5%)" fill-opacity="1.0" font-size="0.0153" text-anchor="start"><text x="0.2870" y="-0.1440">CDCL (α = 0.75, mVISDS, LubyRestart(100, 2)), Baseline</text></g><g stroke-width="0.0002" stroke="rgb(91%, 19%, 0%)" stroke-opacity="1.0" fill="rgb(91%, 19%, 0%)" fill-opacity="0.25"><rect width="0.0255" height="0.0182" x="0.6760" y="-0.1558"/></g><g stroke-width="0.0" stroke="none" fill="rgb(5%, 5%, 5%)" fill-opacity="1.0" font-size="0.0153" text-anchor="start"><text x="0.2870" y="-0.1683">CDCL (α = 0.75, mVISDS, LubyRestart(100, 2))</text></g><g stroke-width="0" stroke="rgb(2%, 29%, 48%)" stroke-opacity="1.0" fill="rgb(91%, 19%, 0%)" fill-opacity="1.0"><rect width="0.0255" height="0.0182" x="0.6760" y="-0.1802"/></g><g stroke-width="0.0" stroke="none" fill="rgb(5%, 5%, 5%)" fill-opacity="1.0" font-size="0.0153" text-anchor="start"><text x="0.2870" y="-0.1926">CDCL (α = 0.75, mVISDS, ExpRestart(100, 2)), Baseline</text></g><g stroke-width="0.0002" stroke="rgb(38%, 23%, 0%)" stroke-opacity="1.0" fill="rgb(38%, 23%, 0%)" fill-opacity="0.25"><rect width="0.0255" height="0.0182" x="0.6760" y="-0.2045"/></g><g stroke-width="0.0" stroke="none" fill="rgb(5%, 5%, 5%)" fill-opacity="1.0" font-size="0.0153" text-anchor="start"><text x="0.2870" y="-0.2170">CDCL (α = 0.75, mVISDS, ExpRestart(100, 2))</text></g><g stroke-width="0" stroke="rgb(2%, 29%, 48%)" stroke-opacity="1.0" fill="rgb(38%, 23%, 0%)" fill-opacity="1.0"><rect width="0.0255" height="0.0182" x="0.6760" y="-0.2288"/></g><g stroke-width="0.0" stroke="none" fill="rgb(5%, 5%, 5%)" fill-opacity="1.0" font-size="0.0153" text-anchor="start"><text x="0.2870" y="-0.2413">CDCL (α = 0.75, mVISDS), Baseline</text></g><g stroke-width="0.0002" stroke="rgb(90%, 37%, 58%)" stroke-opacity="1.0" fill="rgb(90%, 37%, 58%)" fill-opacity="0.25"><rect width="0.0255" height="0.0182" x="0.6760" y="-0.2531"/></g><g stroke-width="0.0" stroke="none" fill="rgb(5%, 5%, 5%)" fill-opacity="1.0" font-size="0.0153" text-anchor="start"><text x="0.2870" y="-0.2656">CDCL (α = 0.75, mVISDS)</text></g><g stroke-width="0" stroke="rgb(2%, 29%, 48%)" stroke-opacity="1.0" fill="rgb(90%, 37%, 58%)" fill-opacity="1.0"><rect width="0.0255" height="0.0182" x="0.6760" y="-0.2775"/></g><g stroke-width="0.0" stroke="none" fill="rgb(5%, 5%, 5%)" fill-opacity="1.0" font-size="0.0153" text-anchor="start"><text x="0.2870" y="-0.2899">CDCL (α = 0.75), Baseline</text></g><g stroke-width="0.0002" stroke="rgb(0%, 72%, 98%)" stroke-opacity="1.0" fill="rgb(0%, 72%, 98%)" fill-opacity="0.25"><rect width="0.0255" height="0.0182" x="0.6760" y="-0.3018"/></g><g stroke-width="0.0" stroke="none" fill="rgb(5%, 5%, 5%)" fill-opacity="1.0" font-size="0.0153" text-anchor="start"><text x="0.2870" y="-0.3143">CDCL (α = 0.75)</text></g><g stroke-width="0" stroke="rgb(2%, 29%, 48%)" stroke-opacity="1.0" fill="rgb(0%, 72%, 98%)" fill-opacity="1.0"><rect width="0.0255" height="0.0182" x="0.6760" y="-0.3261"/></g><g stroke-width="0.0" stroke="none" fill="rgb(5%, 5%, 5%)" fill-opacity="1.0" font-size="0.0153" text-anchor="start"><text x="0.2870" y="-0.3386">CDCL (adaptive, mVSIDS), Baseline</text></g><g stroke-width="0.0002" stroke="rgb(1%, 28%, 43%)" stroke-opacity="1.0" fill="rgb(1%, 28%, 43%)" fill-opacity="0.25"><rect width="0.0255" height="0.0182" x="0.6760" y="-0.3504"/></g><g stroke-width="0.0" stroke="none" fill="rgb(5%, 5%, 5%)" fill-opacity="1.0" font-size="0.0153" text-anchor="start"><text x="0.2870" y="-0.3629">CDCL (adaptive, mVSIDS)</text></g><g stroke-width="0" stroke="rgb(2%, 29%, 48%)" stroke-opacity="1.0" fill="rgb(1%, 28%, 43%)" fill-opacity="1.0"><rect width="0.0255" height="0.0182" x="0.6760" y="-0.3747"/></g><g stroke-width="0.0" stroke="none" fill="rgb(5%, 5%, 5%)" fill-opacity="1.0" font-size="0.0153" text-anchor="start"><text x="0.2870" y="-0.3872">CDCL (adaptive), Baseline</text></g><g stroke-width="0.0002" stroke="rgb(0%, 30%, 12%)" stroke-opacity="1.0" fill="rgb(0%, 30%, 12%)" fill-opacity="0.25"><rect width="0.0255" height="0.0182" x="0.6760" y="-0.3990"/></g><g stroke-width="0.0" stroke="none" fill="rgb(5%, 5%, 5%)" fill-opacity="1.0" font-size="0.0153" text-anchor="start"><text x="0.2870" y="-0.4115">CDCL (adaptive)</text></g><g stroke-width="0" stroke="rgb(2%, 29%, 48%)" stroke-opacity="1.0" fill="rgb(0%, 30%, 12%)" fill-opacity="1.0"><rect width="0.0255" height="0.0182" x="0.6760" y="-0.4234"/></g></g></g><g class="frame"><g stroke-width="0" stroke="rgb(0%, 0%, 0%)" stroke-opacity="0" fill="rgb(100%, 100%, 100%)" fill-opacity="0.02"><rect width="1.6180" height="1.0" x="-0.8090" y="-0.5"/></g></g><g class="title"><g stroke-width="0.0" stroke="none" fill="rgb(5%, 5%, 5%)" fill-opacity="1.0" font-size="0.0292" text-anchor="middle"><text x="-0.7400" y="0" transform="rotate(-90.0, -0.7400, 0)">Time [s]</text></g></g></g></svg>