<svg xmlns="http://www.w3.org/2000/svg" xmlns:xlink="http://www.w3.org/1999/xlink" width="434" height="300" viewBox="-0.8090 -0.5 1.6180 1.1163"><style>svg {
  color-scheme: light dark;
}
{
  .canvas g, .title g, .axisbar g, .ticktext g, .tickglyph g, .ticklines g, .legendContent g text {
    fill: rgb(5%, 5%, 5%);
  }
  .ticklines g, .tickglyph g, .legendBorder g {
    stroke: rgb(5%, 5%, 5%);
  }
  .legendBorder g {
    fill: rgb(94%, 94%, 94%);
  }
}
@media (prefers-color-scheme:dark) {
  .canvas g, .title g, .axisbar g, .ticktext g, .tickglyph g, .ticklines g, .legendContent g text {
    fill: rgb(94%, 94%, 94%);
  }
  .ticklines g, .tickglyph g, .legendBorder g {
    stroke: rgb(94%, 94%, 94%);
  }
  .legendBorder g {
    fill: rgb(5%, 5%, 5%);
  }
}</style><g class="chart"><g class="barchart"><g stroke-width="0" stroke="rgb(2%, 29%, 48%)" stroke-opacity="1.0" fill="rgb(57%, 0%, 21%)" fill-opacity="1.0"><rect width="0.0159" height="0.0449" x="-0.3826" y="0.1320"/></g><g stroke-width="0.0010" stroke="rgb(57%, 0%, 21%)" stroke-opacity="1.0" fill="rgb(57%, 0%, 21%)" fill-opacity="0.25"><rect width="0.0159" height="0.0371" x="-0.3667" y="0.1398"/></g><g stroke-width="0" stroke="rgb(2%, 29%, 48%)" stroke-opacity="1.0" fill="rgb(47%, 34%, 0%)" fill-opacity="1.0"><rect width="0.0159" height="0.0443" x="-0.3507" y="0.1326"/></g><g stroke-width="0.0010" stroke="rgb(47%, 34%, 0%)" stroke-opacity="1.0" fill="rgb(47%, 34%, 0%)" fill-opacity="0.25"><rect width="0.0159" height="0.0375" x="-0.3348" y="0.1395"/></g><g stroke-width="0" stroke="rgb(2%, 29%, 48%)" stroke-opacity="1.0" fill="rgb(70%, 21%, 0%)" fill-opacity="1.0"><rect width="0.0159" height="0.0433" x="-0.3189" y="0.1336"/></g><g stroke-width="0" stroke="rgb(2%, 29%, 48%)" stroke-opacity="1.0" fill="rgb(0%, 36%, 0%)" fill-opacity="1.0"><rect width="0.0159" height="0.0446" x="-0.3029" y="0.1323"/></g><g stroke-width="0.0010" stroke="rgb(0%, 36%, 0%)" stroke-opacity="1.0" fill="rgb(0%, 36%, 0%)" fill-opacity="0.25"><rect width="0.0159" height="0.0371" x="-0.2870" y="0.1399"/></g><g stroke-width="0" stroke="rgb(2%, 29%, 48%)" stroke-opacity="1.0" fill="rgb(0%, 21%, 55%)" fill-opacity="1.0"><rect width="0.0159" height="0.0442" x="-0.2711" y="0.1327"/></g><g stroke-width="0" stroke="rgb(2%, 29%, 48%)" stroke-opacity="1.0" fill="rgb(72%, 66%, 0%)" fill-opacity="1.0"><rect width="0.0159" height="0.0439" x="-0.2551" y="0.1330"/></g><g stroke-width="0.0010" stroke="rgb(72%, 66%, 0%)" stroke-opacity="1.0" fill="rgb(72%, 66%, 0%)" fill-opacity="0.25"><rect width="0.0159" height="0.0378" x="-0.2392" y="0.1391"/></g><g stroke-width="0" stroke="rgb(2%, 29%, 48%)" stroke-opacity="1.0" fill="rgb(37%, 17%, 0%)" fill-opacity="1.0"><rect width="0.0159" height="0.0432" x="-0.2233" y="0.1337"/></g><g stroke-width="0" stroke="rgb(2%, 29%, 48%)" stroke-opacity="1.0" fill="rgb(20%, 15%, 40%)" fill-opacity="1.0"><rect width="0.0159" height="0.0454" x="-0.2074" y="0.1316"/></g><g stroke-width="0.0010" stroke="rgb(20%, 15%, 40%)" stroke-opacity="1.0" fill="rgb(20%, 15%, 40%)" fill-opacity="0.25"><rect width="0.0159" height="0.0362" x="-0.1914" y="0.1407"/></g><g stroke-width="0" stroke="rgb(2%, 29%, 48%)" stroke-opacity="1.0" fill="rgb(48%, 65%, 0%)" fill-opacity="1.0"><rect width="0.0159" height="0.0434" x="-0.1755" y="0.1335"/></g><g stroke-width="0.0010" stroke="rgb(48%, 65%, 0%)" stroke-opacity="1.0" fill="rgb(48%, 65%, 0%)" fill-opacity="0.25"><rect width="0.0159" height="0.0379" x="-0.1596" y="0.1391"/></g><g stroke-width="0" stroke="rgb(2%, 29%, 48%)" stroke-opacity="1.0" fill="rgb(35%, 24%, 0%)" fill-opacity="1.0"><rect width="0.0159" height="0.0428" x="-0.1436" y="0.1341"/></g><g stroke-width="0" stroke="rgb(2%, 29%, 48%)" stroke-opacity="1.0" fill="rgb(0%, 72%, 67%)" fill-opacity="1.0"><rect width="0.0159" height="0.0425" x="-0.1277" y="0.1344"/></g><g stroke-width="0.0010" stroke="rgb(0%, 72%, 67%)" stroke-opacity="1.0" fill="rgb(0%, 72%, 67%)" fill-opacity="0.25"><rect width="0.0159" height="0.0359" x="-0.1118" y="0.1410"/></g><g stroke-width="0" stroke="rgb(2%, 29%, 48%)" stroke-opacity="1.0" fill="rgb(98%, 15%, 25%)" fill-opacity="1.0"><rect width="0.0159" height="0.0441" x="-0.0958" y="0.1328"/></g><g stroke-width="0" stroke="rgb(2%, 29%, 48%)" stroke-opacity="1.0" fill="rgb(57%, 62%, 78%)" fill-opacity="1.0"><rect width="0.0159" height="0.0444" x="-0.0799" y="0.1325"/></g><g stroke-width="0.0010" stroke="rgb(57%, 62%, 78%)" stroke-opacity="1.0" fill="rgb(57%, 62%, 78%)" fill-opacity="0.25"><rect width="0.0159" height="0.0400" x="-0.0640" y="0.1369"/></g><g stroke-width="0" stroke="rgb(2%, 29%, 48%)" stroke-opacity="1.0" fill="rgb(53%, 24%, 0%)" fill-opacity="1.0"><rect width="0.0159" height="0.0445" x="-0.0480" y="0.1324"/></g><g stroke-width="0" stroke="rgb(2%, 29%, 48%)" stroke-opacity="1.0" fill="rgb(69%, 17%, 0%)" fill-opacity="1.0"><rect width="0.0159" height="0.0455" x="-0.0321" y="0.1314"/></g><g stroke-width="0.0010" stroke="rgb(69%, 17%, 0%)" stroke-opacity="1.0" fill="rgb(69%, 17%, 0%)" fill-opacity="0.25"><rect width="0.0159" height="0.0366" x="-0.0162" y="0.1403"/></g><g stroke-width="0" stroke="rgb(2%, 29%, 48%)" stroke-opacity="1.0" fill="rgb(0%, 42%, 48%)" fill-opacity="1.0"><rect width="0.0159" height="0.0451" x="-0.0003" y="0.1318"/></g><g stroke-width="0.0010" stroke="rgb(0%, 42%, 48%)" stroke-opacity="1.0" fill="rgb(0%, 42%, 48%)" fill-opacity="0.25"><rect width="0.0159" height="0.0378" x="0.0157" y="0.1391"/></g><g stroke-width="0" stroke="rgb(2%, 29%, 48%)" stroke-opacity="1.0" fill="rgb(18%, 22%, 10%)" fill-opacity="1.0"><rect width="0.0159" height="0.0457" x="0.0316" y="0.1312"/></g><g stroke-width="0" stroke="rgb(2%, 29%, 48%)" stroke-opacity="1.0" fill="rgb(42%, 44%, 14%)" fill-opacity="1.0"><rect width="0.0159" height="0.0430" x="0.0475" y="0.1339"/></g><g stroke-width="0.0010" stroke="rgb(42%, 44%, 14%)" stroke-opacity="1.0" fill="rgb(42%, 44%, 14%)" fill-opacity="0.25"><rect width="0.0159" height="0.0372" x="0.0635" y="0.1397"/></g><g stroke-width="0" stroke="rgb(2%, 29%, 48%)" stroke-opacity="1.0" fill="rgb(54%, 0%, 0%)" fill-opacity="1.0"><rect width="0.0159" height="0.0439" x="0.0794" y="0.1331"/></g><g stroke-width="0" stroke="rgb(2%, 29%, 48%)" stroke-opacity="1.0" fill="rgb(100%, 37%, 0%)" fill-opacity="1.0"><rect width="0.0159" height="0.0437" x="0.0953" y="0.1332"/></g><g stroke-width="0.0010" stroke="rgb(100%, 37%, 0%)" stroke-opacity="1.0" fill="rgb(100%, 37%, 0%)" fill-opacity="0.25"><rect width="0.0159" height="0.0389" x="0.1113" y="0.1380"/></g><g stroke-width="0" stroke="rgb(2%, 29%, 48%)" stroke-opacity="1.0" fill="rgb(0%, 38%, 61%)" fill-opacity="1.0"><rect width="0.0159" height="0.0436" x="0.1272" y="0.1333"/></g><g stroke-width="0" stroke="rgb(2%, 29%, 48%)" stroke-opacity="1.0" fill="rgb(0%, 49%, 30%)" fill-opacity="1.0"><rect width="0.0159" height="0.0088" x="0.1431" y="0.1681"/></g><g stroke-width="0.0010" stroke="rgb(0%, 49%, 30%)" stroke-opacity="1.0" fill="rgb(0%, 49%, 30%)" fill-opacity="0.25"><rect width="0.0159" height="0.0083" x="0.1591" y="0.1686"/></g><g stroke-width="0" stroke="rgb(2%, 29%, 48%)" stroke-opacity="1.0" fill="rgb(69%, 16%, 76%)" fill-opacity="1.0"><rect width="0.0159" height="0.2205" x="0.1750" y="-0.0436"/></g><g stroke-width="0.0010" stroke="rgb(69%, 16%, 76%)" stroke-opacity="1.0" fill="rgb(69%, 16%, 76%)" fill-opacity="0.25"><rect width="0.0159" height="0.2053" x="0.1909" y="-0.0284"/></g></g><g class="errors"><g stroke-width="0.0015" stroke="rgb(5%, 5%, 5%)" stroke-opacity="1.0" fill="none"><polyline points="-0.3762,0.1326 -0.3730,0.1326"/><polyline points="-0.3746,0.1326 -0.3746,0.1314"/><polyline points="-0.3762,0.1314 -0.3730,0.1314"/></g><g stroke-width="0.0015" stroke="rgb(5%, 5%, 5%)" stroke-opacity="1.0" fill="none"><polyline points="-0.3603,0.1414 -0.3571,0.1414"/><polyline points="-0.3587,0.1414 -0.3587,0.1382"/><polyline points="-0.3603,0.1382 -0.3571,0.1382"/></g><g stroke-width="0.0015" stroke="rgb(5%, 5%, 5%)" stroke-opacity="1.0" fill="none"><polyline points="-0.3444,0.1339 -0.3412,0.1339"/><polyline points="-0.3428,0.1339 -0.3428,0.1313"/><polyline points="-0.3444,0.1313 -0.3412,0.1313"/></g><g stroke-width="0.0015" stroke="rgb(5%, 5%, 5%)" stroke-opacity="1.0" fill="none"><polyline points="-0.3284,0.1413 -0.3252,0.1413"/><polyline points="-0.3268,0.1413 -0.3268,0.1376"/><polyline points="-0.3284,0.1376 -0.3252,0.1376"/></g><g stroke-width="0.0015" stroke="rgb(5%, 5%, 5%)" stroke-opacity="1.0" fill="none"><polyline points="-0.3125,0.1349 -0.3093,0.1349"/><polyline points="-0.3109,0.1349 -0.3109,0.1323"/><polyline points="-0.3125,0.1323 -0.3093,0.1323"/></g><g stroke-width="0.0015" stroke="rgb(5%, 5%, 5%)" stroke-opacity="1.0" fill="none"><polyline points="-0.2966,0.1336 -0.2934,0.1336"/><polyline points="-0.2950,0.1336 -0.2950,0.1309"/><polyline points="-0.2966,0.1309 -0.2934,0.1309"/></g><g stroke-width="0.0015" stroke="rgb(5%, 5%, 5%)" stroke-opacity="1.0" fill="none"><polyline points="-0.2806,0.1415 -0.2774,0.1415"/><polyline points="-0.2790,0.1415 -0.2790,0.1383"/><polyline points="-0.2806,0.1383 -0.2774,0.1383"/></g><g stroke-width="0.0015" stroke="rgb(5%, 5%, 5%)" stroke-opacity="1.0" fill="none"><polyline points="-0.2647,0.1339 -0.2615,0.1339"/><polyline points="-0.2631,0.1339 -0.2631,0.1316"/><polyline points="-0.2647,0.1316 -0.2615,0.1316"/></g><g stroke-width="0.0015" stroke="rgb(5%, 5%, 5%)" stroke-opacity="1.0" fill="none"><polyline points="-0.2488,0.1343 -0.2456,0.1343"/><polyline points="-0.2472,0.1343 -0.2472,0.1317"/><polyline points="-0.2488,0.1317 -0.2456,0.1317"/></g><g stroke-width="0.0015" stroke="rgb(5%, 5%, 5%)" stroke-opacity="1.0" fill="none"><polyline points="-0.2328,0.1405 -0.2297,0.1405"/><polyline points="-0.2312,0.1405 -0.2312,0.1378"/><polyline points="-0.2328,0.1378 -0.2297,0.1378"/></g><g stroke-width="0.0015" stroke="rgb(5%, 5%, 5%)" stroke-opacity="1.0" fill="none"><polyline points="-0.2169,0.1352 -0.2137,0.1352"/><polyline points="-0.2153,0.1352 -0.2153,0.1322"/><polyline points="-0.2169,0.1322 -0.2137,0.1322"/></g><g stroke-width="0.0015" stroke="rgb(5%, 5%, 5%)" stroke-opacity="1.0" fill="none"><polyline points="-0.2010,0.1324 -0.1978,0.1324"/><polyline points="-0.1994,0.1324 -0.1994,0.1308"/><polyline points="-0.2010,0.1308 -0.1978,0.1308"/></g><g stroke-width="0.0015" stroke="rgb(5%, 5%, 5%)" stroke-opacity="1.0" fill="none"><polyline points="-0.1850,0.1419 -0.1819,0.1419"/><polyline points="-0.1835,0.1419 -0.1835,0.1395"/><polyline points="-0.1850,0.1395 -0.1819,0.1395"/></g><g stroke-width="0.0015" stroke="rgb(5%, 5%, 5%)" stroke-opacity="1.0" fill="none"><polyline points="-0.1691,0.1346 -0.1659,0.1346"/><polyline points="-0.1675,0.1346 -0.1675,0.1324"/><polyline points="-0.1691,0.1324 -0.1659,0.1324"/></g><g stroke-width="0.0015" stroke="rgb(5%, 5%, 5%)" stroke-opacity="1.0" fill="none"><polyline points="-0.1532,0.1409 -0.1500,0.1409"/><polyline points="-0.1516,0.1409 -0.1516,0.1372"/><polyline points="-0.1532,0.1372 -0.1500,0.1372"/></g><g stroke-width="0.0015" stroke="rgb(5%, 5%, 5%)" stroke-opacity="1.0" fill="none"><polyline points="-0.1373,0.1360 -0.1341,0.1360"/><polyline points="-0.1357,0.1360 -0.1357,0.1322"/><polyline points="-0.1373,0.1322 -0.1341,0.1322"/></g><g stroke-width="0.0015" stroke="rgb(5%, 5%, 5%)" stroke-opacity="1.0" fill="none"><polyline points="-0.1213,0.1359 -0.1181,0.1359"/><polyline points="-0.1197,0.1359 -0.1197,0.1330"/><polyline points="-0.1213,0.1330 -0.1181,0.1330"/></g><g stroke-width="0.0015" stroke="rgb(5%, 5%, 5%)" stroke-opacity="1.0" fill="none"><polyline points="-0.1054,0.1422 -0.1022,0.1422"/><polyline points="-0.1038,0.1422 -0.1038,0.1399"/><polyline points="-0.1054,0.1399 -0.1022,0.1399"/></g><g stroke-width="0.0015" stroke="rgb(5%, 5%, 5%)" stroke-opacity="1.0" fill="none"><polyline points="-0.0895,0.1335 -0.0863,0.1335"/><polyline points="-0.0879,0.1335 -0.0879,0.1321"/><polyline points="-0.0895,0.1321 -0.0863,0.1321"/></g><g stroke-width="0.0015" stroke="rgb(5%, 5%, 5%)" stroke-opacity="1.0" fill="none"><polyline points="-0.0735,0.1339 -0.0703,0.1339"/><polyline points="-0.0719,0.1339 -0.0719,0.1311"/><polyline points="-0.0735,0.1311 -0.0703,0.1311"/></g><g stroke-width="0.0015" stroke="rgb(5%, 5%, 5%)" stroke-opacity="1.0" fill="none"><polyline points="-0.0576,0.1388 -0.0544,0.1388"/><polyline points="-0.0560,0.1388 -0.0560,0.1350"/><polyline points="-0.0576,0.1350 -0.0544,0.1350"/></g><g stroke-width="0.0015" stroke="rgb(5%, 5%, 5%)" stroke-opacity="1.0" fill="none"><polyline points="-0.0417,0.1334 -0.0385,0.1334"/><polyline points="-0.0401,0.1334 -0.0401,0.1315"/><polyline points="-0.0417,0.1315 -0.0385,0.1315"/></g><g stroke-width="0.0015" stroke="rgb(5%, 5%, 5%)" stroke-opacity="1.0" fill="none"><polyline points="-0.0257,0.1335 -0.0226,0.1335"/><polyline points="-0.0241,0.1335 -0.0241,0.1294"/><polyline points="-0.0257,0.1294 -0.0226,0.1294"/></g><g stroke-width="0.0015" stroke="rgb(5%, 5%, 5%)" stroke-opacity="1.0" fill="none"><polyline points="-0.0098,0.1416 -0.0066,0.1416"/><polyline points="-0.0082,0.1416 -0.0082,0.1390"/><polyline points="-0.0098,0.1390 -0.0066,0.1390"/></g><g stroke-width="0.0015" stroke="rgb(5%, 5%, 5%)" stroke-opacity="1.0" fill="none"><polyline points="0.0061,0.1335 0.0093,0.1335"/><polyline points="0.0077,0.1335 0.0077,0.1301"/><polyline points="0.0061,0.1301 0.0093,0.1301"/></g><g stroke-width="0.0015" stroke="rgb(5%, 5%, 5%)" stroke-opacity="1.0" fill="none"><polyline points="0.0221,0.1402 0.0252,0.1402"/><polyline points="0.0236,0.1402 0.0236,0.1380"/><polyline points="0.0221,0.1380 0.0252,0.1380"/></g><g stroke-width="0.0015" stroke="rgb(5%, 5%, 5%)" stroke-opacity="1.0" fill="none"><polyline points="0.0380,0.1327 0.0412,0.1327"/><polyline points="0.0396,0.1327 0.0396,0.1298"/><polyline points="0.0380,0.1298 0.0412,0.1298"/></g><g stroke-width="0.0015" stroke="rgb(5%, 5%, 5%)" stroke-opacity="1.0" fill="none"><polyline points="0.0539,0.1356 0.0571,0.1356"/><polyline points="0.0555,0.1356 0.0555,0.1322"/><polyline points="0.0539,0.1322 0.0571,0.1322"/></g><g stroke-width="0.0015" stroke="rgb(5%, 5%, 5%)" stroke-opacity="1.0" fill="none"><polyline points="0.0698,0.1406 0.0730,0.1406"/><polyline points="0.0714,0.1406 0.0714,0.1388"/><polyline points="0.0698,0.1388 0.0730,0.1388"/></g><g stroke-width="0.0015" stroke="rgb(5%, 5%, 5%)" stroke-opacity="1.0" fill="none"><polyline points="0.0858,0.1339 0.0890,0.1339"/><polyline points="0.0874,0.1339 0.0874,0.1322"/><polyline points="0.0858,0.1322 0.0890,0.1322"/></g><g stroke-width="0.0015" stroke="rgb(5%, 5%, 5%)" stroke-opacity="1.0" fill="none"><polyline points="0.1017,0.1347 0.1049,0.1347"/><polyline points="0.1033,0.1347 0.1033,0.1317"/><polyline points="0.1017,0.1317 0.1049,0.1317"/></g><g stroke-width="0.0015" stroke="rgb(5%, 5%, 5%)" stroke-opacity="1.0" fill="none"><polyline points="0.1176,0.1393 0.1208,0.1393"/><polyline points="0.1192,0.1393 0.1192,0.1368"/><polyline points="0.1176,0.1368 0.1208,0.1368"/></g><g stroke-width="0.0015" stroke="rgb(5%, 5%, 5%)" stroke-opacity="1.0" fill="none"><polyline points="0.1336,0.1350 0.1368,0.1350"/><polyline points="0.1352,0.1350 0.1352,0.1317"/><polyline points="0.1336,0.1317 0.1368,0.1317"/></g><g stroke-width="0.0015" stroke="rgb(5%, 5%, 5%)" stroke-opacity="1.0" fill="none"><polyline points="0.1495,0.1685 0.1527,0.1685"/><polyline points="0.1511,0.1685 0.1511,0.1678"/><polyline points="0.1495,0.1678 0.1527,0.1678"/></g><g stroke-width="0.0015" stroke="rgb(5%, 5%, 5%)" stroke-opacity="1.0" fill="none"><polyline points="0.1654,0.1689 0.1686,0.1689"/><polyline points="0.1670,0.1689 0.1670,0.1684"/><polyline points="0.1654,0.1684 0.1686,0.1684"/></g><g stroke-width="0.0015" stroke="rgb(5%, 5%, 5%)" stroke-opacity="1.0" fill="none"><polyline points="0.1814,-0.0343 0.1845,-0.0343"/><polyline points="0.1830,-0.0343 0.1830,-0.0529"/><polyline points="0.1814,-0.0529 0.1845,-0.0529"/></g><g stroke-width="0.0015" stroke="rgb(5%, 5%, 5%)" stroke-opacity="1.0" fill="none"><polyline points="0.1973,-0.0190 0.2005,-0.0190"/><polyline points="0.1989,-0.0190 0.1989,-0.0377"/><polyline points="0.1973,-0.0377 0.2005,-0.0377"/></g></g></g><g class="hud"><g class="axis"><g class="ticks"><g class="tickglyph"><g stroke-width="0.0040" stroke="rgb(5%, 5%, 5%)" stroke-opacity="0.4" fill="rgb(5%, 5%, 5%)" fill-opacity="0.4"><g transform="rotate(-90.0, -0.4275, 0.1769)"><polyline points="-0.4275,0.1919
-0.4275,0.1619"/></g><g transform="rotate(-90.0, -0.4275, 0.1498)"><polyline points="-0.4275,0.1648
-0.4275,0.1348"/></g><g transform="rotate(-90.0, -0.4275, 0.1226)"><polyline points="-0.4275,0.1376
-0.4275,0.1076"/></g><g transform="rotate(-90.0, -0.4275, 0.0955)"><polyline points="-0.4275,0.1105
-0.4275,0.0805"/></g><g transform="rotate(-90.0, -0.4275, 0.0684)"><polyline points="-0.4275,0.0834
-0.4275,0.0534"/></g><g transform="rotate(-90.0, -0.4275, 0.0412)"><polyline points="-0.4275,0.0562
-0.4275,0.0262"/></g><g transform="rotate(-90.0, -0.4275, 0.0141)"><polyline points="-0.4275,0.0291
-0.4275,-0.0009"/></g><g transform="rotate(-90.0, -0.4275, -0.0130)"><polyline points="-0.4275,0.0020
-0.4275,-0.0280"/></g><g transform="rotate(-90.0, -0.4275, -0.0402)"><polyline points="-0.4275,-0.0252
-0.4275,-0.0552"/></g><g transform="rotate(-90.0, -0.4275, -0.0673)"><polyline points="-0.4275,-0.0523
-0.4275,-0.0823"/></g></g></g><g class="ticktext"><g stroke-width="0.0" stroke="none" fill="rgb(5%, 5%, 5%)" fill-opacity="1.0" font-size="0.0202" text-anchor="end"><text x="-0.4421" y="0.1803"> 0</text><text x="-0.4421" y="0.1531"> 2</text><text x="-0.4421" y="0.1260"> 4</text><text x="-0.4421" y="0.0989"> 6</text><text x="-0.4421" y="0.0717"> 8</text><text x="-0.4421" y="0.0446">10</text><text x="-0.4421" y="0.0175">12</text><text x="-0.4421" y="-0.0097">14</text><text x="-0.4421" y="-0.0368">16</text><text x="-0.4421" y="-0.0640">18</text></g></g><g class="ticklines"><g stroke-width="0.0050" stroke="rgb(5%, 5%, 5%)" stroke-opacity="0.05" fill="none"><polyline points="-0.4153,0.1769 0.2396,0.1769"/><polyline points="-0.4153,0.1498 0.2396,0.1498"/><polyline points="-0.4153,0.1226 0.2396,0.1226"/><polyline points="-0.4153,0.0955 0.2396,0.0955"/><polyline points="-0.4153,0.0684 0.2396,0.0684"/><polyline points="-0.4153,0.0412 0.2396,0.0412"/><polyline points="-0.4153,0.0141 0.2396,0.0141"/><polyline points="-0.4153,-0.0130 0.2396,-0.0130"/><polyline points="-0.4153,-0.0402 0.2396,-0.0402"/><polyline points="-0.4153,-0.0673 0.2396,-0.0673"/></g></g></g><g class="axisbar"><g stroke-width="0" stroke="rgb(0%, 0%, 0%)" stroke-opacity="0" fill="rgb(5%, 5%, 5%)" fill-opacity="0.4"><rect width="0.0016" height="0.2452" x="-0.4210" y="-0.0678"/></g></g></g><g class="axis"><g class="ticks"><g class="tickglyph"><g stroke-width="0.0040" stroke="rgb(5%, 5%, 5%)" stroke-opacity="0.4" fill="rgb(5%, 5%, 5%)" fill-opacity="0.4"><polyline points="-0.3746,0.1994
-0.3746,0.1694"/><polyline points="-0.3587,0.1994
-0.3587,0.1694"/><polyline points="-0.3428,0.1994
-0.3428,0.1694"/><polyline points="-0.3268,0.1994
-0.3268,0.1694"/><polyline points="-0.3109,0.1994
-0.3109,0.1694"/><polyline points="-0.2950,0.1994
-0.2950,0.1694"/><polyline points="-0.2790,0.1994
-0.2790,0.1694"/><polyline points="-0.2631,0.1994
-0.2631,0.1694"/><polyline points="-0.2472,0.1994
-0.2472,0.1694"/><polyline points="-0.2312,0.1994
-0.2312,0.1694"/><polyline points="-0.2153,0.1994
-0.2153,0.1694"/><polyline points="-0.1994,0.1994
-0.1994,0.1694"/><polyline points="-0.1835,0.1994
-0.1835,0.1694"/><polyline points="-0.1675,0.1994
-0.1675,0.1694"/><polyline points="-0.1516,0.1994
-0.1516,0.1694"/><polyline points="-0.1357,0.1994
-0.1357,0.1694"/><polyline points="-0.1197,0.1994
-0.1197,0.1694"/><polyline points="-0.1038,0.1994
-0.1038,0.1694"/><polyline points="-0.0879,0.1994
-0.0879,0.1694"/><polyline points="-0.0719,0.1994
-0.0719,0.1694"/><polyline points="-0.0560,0.1994
-0.0560,0.1694"/><polyline points="-0.0401,0.1994
-0.0401,0.1694"/><polyline points="-0.0241,0.1994
-0.0241,0.1694"/><polyline points="-0.0082,0.1994
-0.0082,0.1694"/><polyline points="0.0077,0.1994
0.0077,0.1694"/><polyline points="0.0236,0.1994
0.0236,0.1694"/><polyline points="0.0396,0.1994
0.0396,0.1694"/><polyline points="0.0555,0.1994
0.0555,0.1694"/><polyline points="0.0714,0.1994
0.0714,0.1694"/><polyline points="0.0874,0.1994
0.0874,0.1694"/><polyline points="0.1033,0.1994
0.1033,0.1694"/><polyline points="0.1192,0.1994
0.1192,0.1694"/><polyline points="0.1352,0.1994
0.1352,0.1694"/><polyline points="0.1511,0.1994
0.1511,0.1694"/><polyline points="0.1670,0.1994
0.1670,0.1694"/><polyline points="0.1830,0.1994
0.1830,0.1694"/><polyline points="0.1989,0.1994
0.1989,0.1694"/></g></g><g class="ticktext"><g stroke-width="0.0" stroke="none" fill="rgb(5%, 5%, 5%)" fill-opacity="1.0" font-size="0.0202" text-anchor="end"><text x="-0.3746" y="0.1999" transform="rotate(-45.0, -0.3746, 0.1999)">CDCL (adaptive)</text><text x="-0.3587" y="0.1999" transform="rotate(-45.0, -0.3587, 0.1999)">CDCL (adaptive), Baseline</text><text x="-0.3428" y="0.1999" transform="rotate(-45.0, -0.3428, 0.1999)">CDCL (adaptive, mVISDS, ExpRestart(100, 2))</text><text x="-0.3268" y="0.1999" transform="rotate(-45.0, -0.3268, 0.1999)">CDCL (adaptive, mVISDS, ExpRestart(100, 2)), Baseline</text><text x="-0.3109" y="0.1999" transform="rotate(-45.0, -0.3109, 0.1999)">CDCL (adaptive, mVISDS, ExpRestart(100, 2), Clause Decay 0.999)</text><text x="-0.2950" y="0.1999" transform="rotate(-45.0, -0.2950, 0.1999)">CDCL (adaptive, mVISDS, LubyRestart(100, 2))</text><text x="-0.2790" y="0.1999" transform="rotate(-45.0, -0.2790, 0.1999)">CDCL (adaptive, mVISDS, LubyRestart(100, 2)), Baseline</text><text x="-0.2631" y="0.1999" transform="rotate(-45.0, -0.2631, 0.1999)">CDCL (adaptive, mVISDS, LubyRestart(100, 2), Clause Decay)</text><text x="-0.2472" y="0.1999" transform="rotate(-45.0, -0.2472, 0.1999)">CDCL (adaptive, mVSIDS)</text><text x="-0.2312" y="0.1999" transform="rotate(-45.0, -0.2312, 0.1999)">CDCL (adaptive, mVSIDS), Baseline</text><text x="-0.2153" y="0.1999" transform="rotate(-45.0, -0.2153, 0.1999)">CDCL (adaptive, mVSIDS, Clause Decay 0.999)</text><text x="-0.1994" y="0.1999" transform="rotate(-45.0, -0.1994, 0.1999)">CDCL (α = 0.75)</text><text x="-0.1835" y="0.1999" transform="rotate(-45.0, -0.1835, 0.1999)">CDCL (α = 0.75), Baseline</text><text x="-0.1675" y="0.1999" transform="rotate(-45.0, -0.1675, 0.1999)">CDCL (α = 0.75, mVISDS)</text><text x="-0.1516" y="0.1999" transform="rotate(-45.0, -0.1516, 0.1999)">CDCL (α = 0.75, mVISDS), Baseline</text><text x="-0.1357" y="0.1999" transform="rotate(-45.0, -0.1357, 0.1999)">CDCL (α = 0.75, mVISDS, Clause Decay 0.999)</text><text x="-0.1197" y="0.1999" transform="rotate(-45.0, -0.1197, 0.1999)">CDCL (α = 0.75, mVISDS, ExpRestart(100, 2))</text><text x="-0.1038" y="0.1999" transform="rotate(-45.0, -0.1038, 0.1999)">CDCL (α = 0.75, mVISDS, ExpRestart(100, 2)), Baseline</text><text x="-0.0879" y="0.1999" transform="rotate(-45.0, -0.0879, 0.1999)">CDCL (α = 0.75, mVISDS, ExpRestart(100, 2), Clause Decay 0.999)</text><text x="-0.0719" y="0.1999" transform="rotate(-45.0, -0.0719, 0.1999)">CDCL (α = 0.75, mVISDS, LubyRestart(100, 2))</text><text x="-0.0560" y="0.1999" transform="rotate(-45.0, -0.0560, 0.1999)">CDCL (α = 0.75, mVISDS, LubyRestart(100, 2)), Baseline</text><text x="-0.0401" y="0.1999" transform="rotate(-45.0, -0.0401, 0.1999)">CDCL (α = 0.75, mVISDS, LubyRestart(100, 2), Clause Decay 0.999)</text><text x="-0.0241" y="0.1999" transform="rotate(-45.0, -0.0241, 0.1999)">CDCL (α = 0.95)</text><text x="-0.0082" y="0.1999" transform="rotate(-45.0, -0.0082, 0.1999)">CDCL (α = 0.95), Baseline</text><text x="0.0077" y="0.1999" transform="rotate(-45.0, 0.0077, 0.1999)">CDCL (α = 0.95, mVISDS)</text><text x="0.0236" y="0.1999" transform="rotate(-45.0, 0.0236, 0.1999)">CDCL (α = 0.95, mVISDS), Baseline</text><text x="0.0396" y="0.1999" transform="rotate(-45.0, 0.0396, 0.1999)">CDCL (α = 0.95, mVISDS, Clause Decay 0.999)</text><text x="0.0555" y="0.1999" transform="rotate(-45.0, 0.0555, 0.1999)">CDCL (α = 0.95, mVISDS, ExpRestart(100, 2))</text><text x="0.0714" y="0.1999" transform="rotate(-45.0, 0.0714, 0.1999)">CDCL (α = 0.95, mVISDS, ExpRestart(100, 2)), Baseline</text><text x="0.0874" y="0.1999" transform="rotate(-45.0, 0.0874, 0.1999)">CDCL (α = 0.95, mVISDS, ExpRestart(100, 2), Clause Decay 0.999)</text><text x="0.1033" y="0.1999" transform="rotate(-45.0, 0.1033, 0.1999)">CDCL (α = 0.95, mVISDS, LubyRestart(100, 2))</text><text x="0.1192" y="0.1999" transform="rotate(-45.0, 0.1192, 0.1999)">CDCL (α = 0.95, mVISDS, LubyRestart(100, 2)), Baseline</text><text x="0.1352" y="0.1999" transform="rotate(-45.0, 0.1352, 0.1999)">CDCL (α = 0.95, mVISDS, LubyRestart(100, 2), Clause Decay 0.999)</text><text x="0.1511" y="0.1999" transform="rotate(-45.0, 0.1511, 0.1999)">DPLL</text><text x="0.1670" y="0.1999" transform="rotate(-45.0, 0.1670, 0.1999)">DPLL, Baseline</text><text x="0.1830" y="0.1999" transform="rotate(-45.0, 0.1830, 0.1999)">tableaux</text><text x="0.1989" y="0.1999" transform="rotate(-45.0, 0.1989, 0.1999)">tableaux, Baseline</text></g></g></g><g class="axisbar"><g stroke-width="0" stroke="rgb(0%, 0%, 0%)" stroke-opacity="0" fill="rgb(5%, 5%, 5%)" fill-opacity="0.4"><rect width="0.6566" height="0.0010" x="-0.4161" y="0.1795"/></g></g></g><g class="title"><g stroke-width="0.0" stroke="none" fill="rgb(5%, 5%, 5%)" fill-opacity="1.0" font-size="0.0486" text-anchor="middle"><text x="-0.2437" y="-0.0923">Time: huge/3/cnf</text></g></g><g class="legend"><g class="legendBorder"><g stroke-width="0.0017" stroke="rgb(5%, 5%, 5%)" stroke-opacity="1.0" fill="rgb(5%, 5%, 5%)" fill-opacity="0"><rect width="0.4168" height="0.6379" x="0.3098" y="-0.4503"/></g></g><g class="legendContent"><g stroke-width="0.0" stroke="none" fill="rgb(5%, 5%, 5%)" fill-opacity="1.0" font-size="0.0128" text-anchor="start"><text x="0.3169" y="0.1788">tableaux, Baseline</text></g><g stroke-width="0.0002" stroke="rgb(69%, 16%, 76%)" stroke-opacity="1.0" fill="rgb(69%, 16%, 76%)" fill-opacity="0.25"><rect width="0.0213" height="0.0128" x="0.6983" y="0.1705"/></g><g stroke-width="0.0" stroke="none" fill="rgb(5%, 5%, 5%)" fill-opacity="1.0" font-size="0.0128" text-anchor="start"><text x="0.3169" y="0.1617">tableaux</text></g><g stroke-width="0" stroke="rgb(2%, 29%, 48%)" stroke-opacity="1.0" fill="rgb(69%, 16%, 76%)" fill-opacity="1.0"><rect width="0.0213" height="0.0128" x="0.6983" y="0.1534"/></g><g stroke-width="0.0" stroke="none" fill="rgb(5%, 5%, 5%)" fill-opacity="1.0" font-size="0.0128" text-anchor="start"><text x="0.3169" y="0.1446">DPLL, Baseline</text></g><g stroke-width="0.0002" stroke="rgb(0%, 49%, 30%)" stroke-opacity="1.0" fill="rgb(0%, 49%, 30%)" fill-opacity="0.25"><rect width="0.0213" height="0.0128" x="0.6983" y="0.1363"/></g><g stroke-width="0.0" stroke="none" fill="rgb(5%, 5%, 5%)" fill-opacity="1.0" font-size="0.0128" text-anchor="start"><text x="0.3169" y="0.1274">DPLL</text></g><g stroke-width="0" stroke="rgb(2%, 29%, 48%)" stroke-opacity="1.0" fill="rgb(0%, 49%, 30%)" fill-opacity="1.0"><rect width="0.0213" height="0.0128" x="0.6983" y="0.1191"/></g><g stroke-width="0.0" stroke="none" fill="rgb(5%, 5%, 5%)" fill-opacity="1.0" font-size="0.0128" text-anchor="start"><text x="0.3169" y="0.1103">CDCL (α = 0.95, mVISDS, LubyRestart(100, 2), Clause Decay 0.999)</text></g><g stroke-width="0" stroke="rgb(2%, 29%, 48%)" stroke-opacity="1.0" fill="rgb(0%, 38%, 61%)" fill-opacity="1.0"><rect width="0.0213" height="0.0128" x="0.6983" y="0.1020"/></g><g stroke-width="0.0" stroke="none" fill="rgb(5%, 5%, 5%)" fill-opacity="1.0" font-size="0.0128" text-anchor="start"><text x="0.3169" y="0.0932">CDCL (α = 0.95, mVISDS, LubyRestart(100, 2)), Baseline</text></g><g stroke-width="0.0002" stroke="rgb(100%, 37%, 0%)" stroke-opacity="1.0" fill="rgb(100%, 37%, 0%)" fill-opacity="0.25"><rect width="0.0213" height="0.0128" x="0.6983" y="0.0849"/></g><g stroke-width="0.0" stroke="none" fill="rgb(5%, 5%, 5%)" fill-opacity="1.0" font-size="0.0128" text-anchor="start"><text x="0.3169" y="0.0761">CDCL (α = 0.95, mVISDS, LubyRestart(100, 2))</text></g><g stroke-width="0" stroke="rgb(2%, 29%, 48%)" stroke-opacity="1.0" fill="rgb(100%, 37%, 0%)" fill-opacity="1.0"><rect width="0.0213" height="0.0128" x="0.6983" y="0.0677"/></g><g stroke-width="0.0" stroke="none" fill="rgb(5%, 5%, 5%)" fill-opacity="1.0" font-size="0.0128" text-anchor="start"><text x="0.3169" y="0.0590">CDCL (α = 0.95, mVISDS, ExpRestart(100, 2), Clause Decay 0.999)</text></g><g stroke-width="0" stroke="rgb(2%, 29%, 48%)" stroke-opacity="1.0" fill="rgb(54%, 0%, 0%)" fill-opacity="1.0"><rect width="0.0213" height="0.0128" x="0.6983" y="0.0506"/></g><g stroke-width="0.0" stroke="none" fill="rgb(5%, 5%, 5%)" fill-opacity="1.0" font-size="0.0128" text-anchor="start"><text x="0.3169" y="0.0418">CDCL (α = 0.95, mVISDS, ExpRestart(100, 2)), Baseline</text></g><g stroke-width="0.0002" stroke="rgb(42%, 44%, 14%)" stroke-opacity="1.0" fill="rgb(42%, 44%, 14%)" fill-opacity="0.25"><rect width="0.0213" height="0.0128" x="0.6983" y="0.0335"/></g><g stroke-width="0.0" stroke="none" fill="rgb(5%, 5%, 5%)" fill-opacity="1.0" font-size="0.0128" text-anchor="start"><text x="0.3169" y="0.0247">CDCL (α = 0.95, mVISDS, ExpRestart(100, 2))</text></g><g stroke-width="0" stroke="rgb(2%, 29%, 48%)" stroke-opacity="1.0" fill="rgb(42%, 44%, 14%)" fill-opacity="1.0"><rect width="0.0213" height="0.0128" x="0.6983" y="0.0164"/></g><g stroke-width="0.0" stroke="none" fill="rgb(5%, 5%, 5%)" fill-opacity="1.0" font-size="0.0128" text-anchor="start"><text x="0.3169" y="0.0076">CDCL (α = 0.95, mVISDS, Clause Decay 0.999)</text></g><g stroke-width="0" stroke="rgb(2%, 29%, 48%)" stroke-opacity="1.0" fill="rgb(18%, 22%, 10%)" fill-opacity="1.0"><rect width="0.0213" height="0.0128" x="0.6983" y="-0.0008"/></g><g stroke-width="0.0" stroke="none" fill="rgb(5%, 5%, 5%)" fill-opacity="1.0" font-size="0.0128" text-anchor="start"><text x="0.3169" y="-0.0095">CDCL (α = 0.95, mVISDS), Baseline</text></g><g stroke-width="0.0002" stroke="rgb(0%, 42%, 48%)" stroke-opacity="1.0" fill="rgb(0%, 42%, 48%)" fill-opacity="0.25"><rect width="0.0213" height="0.0128" x="0.6983" y="-0.0179"/></g><g stroke-width="0.0" stroke="none" fill="rgb(5%, 5%, 5%)" fill-opacity="1.0" font-size="0.0128" text-anchor="start"><text x="0.3169" y="-0.0267">CDCL (α = 0.95, mVISDS)</text></g><g stroke-width="0" stroke="rgb(2%, 29%, 48%)" stroke-opacity="1.0" fill="rgb(0%, 42%, 48%)" fill-opacity="1.0"><rect width="0.0213" height="0.0128" x="0.6983" y="-0.0350"/></g><g stroke-width="0.0" stroke="none" fill="rgb(5%, 5%, 5%)" fill-opacity="1.0" font-size="0.0128" text-anchor="start"><text x="0.3169" y="-0.0438">CDCL (α = 0.95), Baseline</text></g><g stroke-width="0.0002" stroke="rgb(69%, 17%, 0%)" stroke-opacity="1.0" fill="rgb(69%, 17%, 0%)" fill-opacity="0.25"><rect width="0.0213" height="0.0128" x="0.6983" y="-0.0521"/></g><g stroke-width="0.0" stroke="none" fill="rgb(5%, 5%, 5%)" fill-opacity="1.0" font-size="0.0128" text-anchor="start"><text x="0.3169" y="-0.0609">CDCL (α = 0.95)</text></g><g stroke-width="0" stroke="rgb(2%, 29%, 48%)" stroke-opacity="1.0" fill="rgb(69%, 17%, 0%)" fill-opacity="1.0"><rect width="0.0213" height="0.0128" x="0.6983" y="-0.0693"/></g><g stroke-width="0.0" stroke="none" fill="rgb(5%, 5%, 5%)" fill-opacity="1.0" font-size="0.0128" text-anchor="start"><text x="0.3169" y="-0.0780">CDCL (α = 0.75, mVISDS, LubyRestart(100, 2), Clause Decay 0.999)</text></g><g stroke-width="0" stroke="rgb(2%, 29%, 48%)" stroke-opacity="1.0" fill="rgb(53%, 24%, 0%)" fill-opacity="1.0"><rect width="0.0213" height="0.0128" x="0.6983" y="-0.0864"/></g><g stroke-width="0.0" stroke="none" fill="rgb(5%, 5%, 5%)" fill-opacity="1.0" font-size="0.0128" text-anchor="start"><text x="0.3169" y="-0.0952">CDCL (α = 0.75, mVISDS, LubyRestart(100, 2)), Baseline</text></g><g stroke-width="0.0002" stroke="rgb(57%, 62%, 78%)" stroke-opacity="1.0" fill="rgb(57%, 62%, 78%)" fill-opacity="0.25"><rect width="0.0213" height="0.0128" x="0.6983" y="-0.1035"/></g><g stroke-width="0.0" stroke="none" fill="rgb(5%, 5%, 5%)" fill-opacity="1.0" font-size="0.0128" text-anchor="start"><text x="0.3169" y="-0.1123">CDCL (α = 0.75, mVISDS, LubyRestart(100, 2))</text></g><g stroke-width="0" stroke="rgb(2%, 29%, 48%)" stroke-opacity="1.0" fill="rgb(57%, 62%, 78%)" fill-opacity="1.0"><rect width="0.0213" height="0.0128" x="0.6983" y="-0.1206"/></g><g stroke-width="0.0" stroke="none" fill="rgb(5%, 5%, 5%)" fill-opacity="1.0" font-size="0.0128" text-anchor="start"><text x="0.3169" y="-0.1294">CDCL (α = 0.75, mVISDS, ExpRestart(100, 2), Clause Decay 0.999)</text></g><g stroke-width="0" stroke="rgb(2%, 29%, 48%)" stroke-opacity="1.0" fill="rgb(98%, 15%, 25%)" fill-opacity="1.0"><rect width="0.0213" height="0.0128" x="0.6983" y="-0.1378"/></g><g stroke-width="0.0" stroke="none" fill="rgb(5%, 5%, 5%)" fill-opacity="1.0" font-size="0.0128" text-anchor="start"><text x="0.3169" y="-0.1465">CDCL (α = 0.75, mVISDS, ExpRestart(100, 2)), Baseline</text></g><g stroke-width="0.0002" stroke="rgb(0%, 72%, 67%)" stroke-opacity="1.0" fill="rgb(0%, 72%, 67%)" fill-opacity="0.25"><rect width="0.0213" height="0.0128" x="0.6983" y="-0.1549"/></g><g stroke-width="0.0" stroke="none" fill="rgb(5%, 5%, 5%)" fill-opacity="1.0" font-size="0.0128" text-anchor="start"><text x="0.3169" y="-0.1637">CDCL (α = 0.75, mVISDS, ExpRestart(100, 2))</text></g><g stroke-width="0" stroke="rgb(2%, 29%, 48%)" stroke-opacity="1.0" fill="rgb(0%, 72%, 67%)" fill-opacity="1.0"><rect width="0.0213" height="0.0128" x="0.6983" y="-0.1720"/></g><g stroke-width="0.0" stroke="none" fill="rgb(5%, 5%, 5%)" fill-opacity="1.0" font-size="0.0128" text-anchor="start"><text x="0.3169" y="-0.1808">CDCL (α = 0.75, mVISDS, Clause Decay 0.999)</text></g><g stroke-width="0" stroke="rgb(2%, 29%, 48%)" stroke-opacity="1.0" fill="rgb(35%, 24%, 0%)" fill-opacity="1.0"><rect width="0.0213" height="0.0128" x="0.6983" y="-0.1891"/></g><g stroke-width="0.0" stroke="none" fill="rgb(5%, 5%, 5%)" fill-opacity="1.0" font-size="0.0128" text-anchor="start"><text x="0.3169" y="-0.1979">CDCL (α = 0.75, mVISDS), Baseline</text></g><g stroke-width="0.0002" stroke="rgb(48%, 65%, 0%)" stroke-opacity="1.0" fill="rgb(48%, 65%, 0%)" fill-opacity="0.25"><rect width="0.0213" height="0.0128" x="0.6983" y="-0.2062"/></g><g stroke-width="0.0" stroke="none" fill="rgb(5%, 5%, 5%)" fill-opacity="1.0" font-size="0.0128" text-anchor="start"><text x="0.3169" y="-0.2151">CDCL (α = 0.75, mVISDS)</text></g><g stroke-width="0" stroke="rgb(2%, 29%, 48%)" stroke-opacity="1.0" fill="rgb(48%, 65%, 0%)" fill-opacity="1.0"><rect width="0.0213" height="0.0128" x="0.6983" y="-0.2234"/></g><g stroke-width="0.0" stroke="none" fill="rgb(5%, 5%, 5%)" fill-opacity="1.0" font-size="0.0128" text-anchor="start"><text x="0.3169" y="-0.2322">CDCL (α = 0.75), Baseline</text></g><g stroke-width="0.0002" stroke="rgb(20%, 15%, 40%)" stroke-opacity="1.0" fill="rgb(20%, 15%, 40%)" fill-opacity="0.25"><rect width="0.0213" height="0.0128" x="0.6983" y="-0.2405"/></g><g stroke-width="0.0" stroke="none" fill="rgb(5%, 5%, 5%)" fill-opacity="1.0" font-size="0.0128" text-anchor="start"><text x="0.3169" y="-0.2493">CDCL (α = 0.75)</text></g><g stroke-width="0" stroke="rgb(2%, 29%, 48%)" stroke-opacity="1.0" fill="rgb(20%, 15%, 40%)" fill-opacity="1.0"><rect width="0.0213" height="0.0128" x="0.6983" y="-0.2576"/></g><g stroke-width="0.0" stroke="none" fill="rgb(5%, 5%, 5%)" fill-opacity="1.0" font-size="0.0128" text-anchor="start"><text x="0.3169" y="-0.2664">CDCL (adaptive, mVSIDS, Clause Decay 0.999)</text></g><g stroke-width="0" stroke="rgb(2%, 29%, 48%)" stroke-opacity="1.0" fill="rgb(37%, 17%, 0%)" fill-opacity="1.0"><rect width="0.0213" height="0.0128" x="0.6983" y="-0.2748"/></g><g stroke-width="0.0" stroke="none" fill="rgb(5%, 5%, 5%)" fill-opacity="1.0" font-size="0.0128" text-anchor="start"><text x="0.3169" y="-0.2835">CDCL (adaptive, mVSIDS), Baseline</text></g><g stroke-width="0.0002" stroke="rgb(72%, 66%, 0%)" stroke-opacity="1.0" fill="rgb(72%, 66%, 0%)" fill-opacity="0.25"><rect width="0.0213" height="0.0128" x="0.6983" y="-0.2919"/></g><g stroke-width="0.0" stroke="none" fill="rgb(5%, 5%, 5%)" fill-opacity="1.0" font-size="0.0128" text-anchor="start"><text x="0.3169" y="-0.3007">CDCL (adaptive, mVSIDS)</text></g><g stroke-width="0" stroke="rgb(2%, 29%, 48%)" stroke-opacity="1.0" fill="rgb(72%, 66%, 0%)" fill-opacity="1.0"><rect width="0.0213" height="0.0128" x="0.6983" y="-0.3090"/></g><g stroke-width="0.0" stroke="none" fill="rgb(5%, 5%, 5%)" fill-opacity="1.0" font-size="0.0128" text-anchor="start"><text x="0.3169" y="-0.3178">CDCL (adaptive, mVISDS, LubyRestart(100, 2), Clause Decay)</text></g><g stroke-width="0" stroke="rgb(2%, 29%, 48%)" stroke-opacity="1.0" fill="rgb(0%, 21%, 55%)" fill-opacity="1.0"><rect width="0.0213" height="0.0128" x="0.6983" y="-0.3261"/></g><g stroke-width="0.0" stroke="none" fill="rgb(5%, 5%, 5%)" fill-opacity="1.0" font-size="0.0128" text-anchor="start"><text x="0.3169" y="-0.3349">CDCL (adaptive, mVISDS, LubyRestart(100, 2)), Baseline</text></g><g stroke-width="0.0002" stroke="rgb(0%, 36%, 0%)" stroke-opacity="1.0" fill="rgb(0%, 36%, 0%)" fill-opacity="0.25"><rect width="0.0213" height="0.0128" x="0.6983" y="-0.3433"/></g><g stroke-width="0.0" stroke="none" fill="rgb(5%, 5%, 5%)" fill-opacity="1.0" font-size="0.0128" text-anchor="start"><text x="0.3169" y="-0.3521">CDCL (adaptive, mVISDS, LubyRestart(100, 2))</text></g><g stroke-width="0" stroke="rgb(2%, 29%, 48%)" stroke-opacity="1.0" fill="rgb(0%, 36%, 0%)" fill-opacity="1.0"><rect width="0.0213" height="0.0128" x="0.6983" y="-0.3604"/></g><g stroke-width="0.0" stroke="none" fill="rgb(5%, 5%, 5%)" fill-opacity="1.0" font-size="0.0128" text-anchor="start"><text x="0.3169" y="-0.3692">CDCL (adaptive, mVISDS, ExpRestart(100, 2), Clause Decay 0.999)</text></g><g stroke-width="0" stroke="rgb(2%, 29%, 48%)" stroke-opacity="1.0" fill="rgb(70%, 21%, 0%)" fill-opacity="1.0"><rect width="0.0213" height="0.0128" x="0.6983" y="-0.3775"/></g><g stroke-width="0.0" stroke="none" fill="rgb(5%, 5%, 5%)" fill-opacity="1.0" font-size="0.0128" text-anchor="start"><text x="0.3169" y="-0.3863">CDCL (adaptive, mVISDS, ExpRestart(100, 2)), Baseline</text></g><g stroke-width="0.0002" stroke="rgb(47%, 34%, 0%)" stroke-opacity="1.0" fill="rgb(47%, 34%, 0%)" fill-opacity="0.25"><rect width="0.0213" height="0.0128" x="0.6983" y="-0.3946"/></g><g stroke-width="0.0" stroke="none" fill="rgb(5%, 5%, 5%)" fill-opacity="1.0" font-size="0.0128" text-anchor="start"><text x="0.3169" y="-0.4034">CDCL (adaptive, mVISDS, ExpRestart(100, 2))</text></g><g stroke-width="0" stroke="rgb(2%, 29%, 48%)" stroke-opacity="1.0" fill="rgb(47%, 34%, 0%)" fill-opacity="1.0"><rect width="0.0213" height="0.0128" x="0.6983" y="-0.4118"/></g><g stroke-width="0.0" stroke="none" fill="rgb(5%, 5%, 5%)" fill-opacity="1.0" font-size="0.0128" text-anchor="start"><text x="0.3169" y="-0.4206">CDCL (adaptive), Baseline</text></g><g stroke-width="0.0002" stroke="rgb(57%, 0%, 21%)" stroke-opacity="1.0" fill="rgb(57%, 0%, 21%)" fill-opacity="0.25"><rect width="0.0213" height="0.0128" x="0.6983" y="-0.4289"/></g><g stroke-width="0.0" stroke="none" fill="rgb(5%, 5%, 5%)" fill-opacity="1.0" font-size="0.0128" text-anchor="start"><text x="0.3169" y="-0.4377">CDCL (adaptive)</text></g><g stroke-width="0" stroke="rgb(2%, 29%, 48%)" stroke-opacity="1.0" fill="rgb(57%, 0%, 21%)" fill-opacity="1.0"><rect width="0.0213" height="0.0128" x="0.6983" y="-0.4460"/></g></g></g><g class="frame"><g stroke-width="0" stroke="rgb(0%, 0%, 0%)" stroke-opacity="0" fill="rgb(100%, 100%, 100%)" fill-opacity="0.02"><rect width="1.6180" height="1.0" x="-0.8090" y="-0.5"/></g></g><g class="title"><g stroke-width="0.0" stroke="none" fill="rgb(5%, 5%, 5%)" fill-opacity="1.0" font-size="0.0243" text-anchor="middle"><text x="-0.7515" y="0" transform="rotate(-90.0, -0.7515, 0)">Time [ms]</text></g></g></g></svg>