<svg xmlns="http://www.w3.org/2000/svg" xmlns:xlink="http://www.w3.org/1999/xlink" width="469" height="300" viewBox="-0.8090 -0.5 1.6180 1.0341"><style>svg {
  color-scheme: light dark;
}
{
  .canvas g, .title g, .axisbar g, .ticktext g, .tickglyph g, .ticklines g, .legendContent g text {
    fill: rgb(5%, 5%, 5%);
  }
  .ticklines g, .tickglyph g, .legendBorder g {
    stroke: rgb(5%, 5%, 5%);
  }
  .legendBorder g {
    fill: rgb(94%, 94%, 94%);
  }
}
@media (prefers-color-scheme:dark) {
  .canvas g, .title g, .axisbar g, .ticktext g, .tickglyph g, .ticklines g, .legendContent g text {
    fill: rgb(94%, 94%, 94%);
  }
  .ticklines g, .tickglyph g, .legendBorder g {
    stroke: rgb(94%, 94%, 94%);
  }
  .legendBorder g {
    fill: rgb(5%, 5%, 5%);
  }
}</style><g class="chart"><g class="barchart"><g stroke-width="0" stroke="rgb(2%, 29%, 48%)" stroke-opacity="1.0" fill="rgb(8%, 16%, 42%)" fill-opacity="1.0"><rect width="0.0355" height="0.0284" x="-0.5571" y="0.0474"/></g><g stroke-width="0.0010" stroke="rgb(8%, 16%, 42%)" stroke-opacity="1.0" fill="rgb(8%, 16%, 42%)" fill-opacity="0.25"><rect width="0.0355" height="0.0280" x="-0.5216" y="0.0478"/></g><g stroke-width="0" stroke="rgb(2%, 29%, 48%)" stroke-opacity="1.0" fill="rgb(26%, 54%, 57%)" fill-opacity="1.0"><rect width="0.0355" height="0.3085" x="-0.4861" y="-0.2327"/></g><g stroke-width="0.0010" stroke="rgb(26%, 54%, 57%)" stroke-opacity="1.0" fill="rgb(26%, 54%, 57%)" fill-opacity="0.25"><rect width="0.0355" height="0.3044" x="-0.4506" y="-0.2286"/></g><g stroke-width="0" stroke="rgb(2%, 29%, 48%)" stroke-opacity="1.0" fill="rgb(1%, 28%, 43%)" fill-opacity="1.0"><rect width="0.0355" height="0.0943" x="-0.4151" y="-0.0185"/></g><g stroke-width="0.0010" stroke="rgb(1%, 28%, 43%)" stroke-opacity="1.0" fill="rgb(1%, 28%, 43%)" fill-opacity="0.25"><rect width="0.0355" height="0.0932" x="-0.3796" y="-0.0174"/></g><g stroke-width="0" stroke="rgb(2%, 29%, 48%)" stroke-opacity="1.0" fill="rgb(0%, 72%, 98%)" fill-opacity="1.0"><rect width="0.0355" height="0.0750" x="-0.3441" y="0.0009"/></g><g stroke-width="0.0010" stroke="rgb(0%, 72%, 98%)" stroke-opacity="1.0" fill="rgb(0%, 72%, 98%)" fill-opacity="0.25"><rect width="0.0355" height="0.0740" x="-0.3086" y="0.0018"/></g><g stroke-width="0" stroke="rgb(2%, 29%, 48%)" stroke-opacity="1.0" fill="rgb(90%, 37%, 58%)" fill-opacity="1.0"><rect width="0.0355" height="0.1833" x="-0.2731" y="-0.1075"/></g><g stroke-width="0.0010" stroke="rgb(90%, 37%, 58%)" stroke-opacity="1.0" fill="rgb(90%, 37%, 58%)" fill-opacity="0.25"><rect width="0.0355" height="0.1808" x="-0.2376" y="-0.1050"/></g><g stroke-width="0" stroke="rgb(2%, 29%, 48%)" stroke-opacity="1.0" fill="rgb(38%, 23%, 0%)" fill-opacity="1.0"><rect width="0.0355" height="0.1833" x="-0.2021" y="-0.1075"/></g><g stroke-width="0.0010" stroke="rgb(38%, 23%, 0%)" stroke-opacity="1.0" fill="rgb(38%, 23%, 0%)" fill-opacity="0.25"><rect width="0.0355" height="0.1808" x="-0.1666" y="-0.1050"/></g><g stroke-width="0" stroke="rgb(2%, 29%, 48%)" stroke-opacity="1.0" fill="rgb(91%, 19%, 0%)" fill-opacity="1.0"><rect width="0.0355" height="0.0286" x="-0.1311" y="0.0473"/></g><g stroke-width="0.0010" stroke="rgb(91%, 19%, 0%)" stroke-opacity="1.0" fill="rgb(91%, 19%, 0%)" fill-opacity="0.25"><rect width="0.0355" height="0.0282" x="-0.0956" y="0.0476"/></g><g stroke-width="0" stroke="rgb(2%, 29%, 48%)" stroke-opacity="1.0" fill="rgb(0%, 64%, 70%)" fill-opacity="1.0"><rect width="0.0355" height="0.1178" x="-0.0601" y="-0.0419"/></g><g stroke-width="0.0010" stroke="rgb(0%, 64%, 70%)" stroke-opacity="1.0" fill="rgb(0%, 64%, 70%)" fill-opacity="0.25"><rect width="0.0355" height="0.1162" x="-0.0246" y="-0.0404"/></g><g stroke-width="0" stroke="rgb(2%, 29%, 48%)" stroke-opacity="1.0" fill="rgb(91%, 47%, 0%)" fill-opacity="1.0"><rect width="0.0355" height="0.0806" x="0.0109" y="-0.0048"/></g><g stroke-width="0.0010" stroke="rgb(91%, 47%, 0%)" stroke-opacity="1.0" fill="rgb(91%, 47%, 0%)" fill-opacity="0.25"><rect width="0.0355" height="0.0798" x="0.0464" y="-0.0039"/></g><g stroke-width="0" stroke="rgb(2%, 29%, 48%)" stroke-opacity="1.0" fill="rgb(62%, 0%, 31%)" fill-opacity="1.0"><rect width="0.0355" height="0.0806" x="0.0819" y="-0.0048"/></g><g stroke-width="0.0010" stroke="rgb(62%, 0%, 31%)" stroke-opacity="1.0" fill="rgb(62%, 0%, 31%)" fill-opacity="0.25"><rect width="0.0355" height="0.0798" x="0.1174" y="-0.0039"/></g></g><g class="errors"></g></g><g class="hud"><g class="axis"><g class="ticks"><g class="tickglyph"><g stroke-width="0.0040" stroke="rgb(5%, 5%, 5%)" stroke-opacity="0.4" fill="rgb(5%, 5%, 5%)" fill-opacity="0.4"><g transform="rotate(-90.0, -0.6111, 0.0758)"><polyline points="-0.6111,0.0908
-0.6111,0.0608"/></g><g transform="rotate(-90.0, -0.6111, 0.0151)"><polyline points="-0.6111,0.0301
-0.6111,0.0001"/></g><g transform="rotate(-90.0, -0.6111, -0.0457)"><polyline points="-0.6111,-0.0307
-0.6111,-0.0607"/></g><g transform="rotate(-90.0, -0.6111, -0.1064)"><polyline points="-0.6111,-0.0914
-0.6111,-0.1214"/></g><g transform="rotate(-90.0, -0.6111, -0.1672)"><polyline points="-0.6111,-0.1522
-0.6111,-0.1822"/></g><g transform="rotate(-90.0, -0.6111, -0.2279)"><polyline points="-0.6111,-0.2129
-0.6111,-0.2429"/></g><g transform="rotate(-90.0, -0.6111, -0.2887)"><polyline points="-0.6111,-0.2737
-0.6111,-0.3037"/></g></g></g><g class="ticktext"><g stroke-width="0.0" stroke="none" fill="rgb(5%, 5%, 5%)" fill-opacity="1.0" font-size="0.0244" text-anchor="end"><text x="-0.6287" y="0.0808"> 0</text><text x="-0.6287" y="0.0201"> 5</text><text x="-0.6287" y="-0.0407">10</text><text x="-0.6287" y="-0.1014">15</text><text x="-0.6287" y="-0.1622">20</text><text x="-0.6287" y="-0.2229">25</text><text x="-0.6287" y="-0.2837">30</text></g></g><g class="ticklines"><g stroke-width="0.0050" stroke="rgb(5%, 5%, 5%)" stroke-opacity="0.05" fill="none"><polyline points="-0.5965,0.0758 0.1923,0.0758"/><polyline points="-0.5965,0.0151 0.1923,0.0151"/><polyline points="-0.5965,-0.0457 0.1923,-0.0457"/><polyline points="-0.5965,-0.1064 0.1923,-0.1064"/><polyline points="-0.5965,-0.1672 0.1923,-0.1672"/><polyline points="-0.5965,-0.2279 0.1923,-0.2279"/><polyline points="-0.5965,-0.2887 0.1923,-0.2887"/></g></g></g><g class="axisbar"><g stroke-width="0" stroke="rgb(0%, 0%, 0%)" stroke-opacity="0" fill="rgb(5%, 5%, 5%)" fill-opacity="0.4"><rect width="0.0020" height="0.3660" x="-0.6033" y="-0.2894"/></g></g></g><g class="axis"><g class="ticks"><g class="tickglyph"><g stroke-width="0.0040" stroke="rgb(5%, 5%, 5%)" stroke-opacity="0.4" fill="rgb(5%, 5%, 5%)" fill-opacity="0.4"><polyline points="-0.5393,0.1019
-0.5393,0.0719"/><polyline points="-0.5038,0.1019
-0.5038,0.0719"/><polyline points="-0.4683,0.1019
-0.4683,0.0719"/><polyline points="-0.4328,0.1019
-0.4328,0.0719"/><polyline points="-0.3973,0.1019
-0.3973,0.0719"/><polyline points="-0.3618,0.1019
-0.3618,0.0719"/><polyline points="-0.3263,0.1019
-0.3263,0.0719"/><polyline points="-0.2908,0.1019
-0.2908,0.0719"/><polyline points="-0.2553,0.1019
-0.2553,0.0719"/><polyline points="-0.2198,0.1019
-0.2198,0.0719"/><polyline points="-0.1844,0.1019
-0.1844,0.0719"/><polyline points="-0.1489,0.1019
-0.1489,0.0719"/><polyline points="-0.1134,0.1019
-0.1134,0.0719"/><polyline points="-0.0779,0.1019
-0.0779,0.0719"/><polyline points="-0.0424,0.1019
-0.0424,0.0719"/><polyline points="-0.0069,0.1019
-0.0069,0.0719"/><polyline points="0.0286,0.1019
0.0286,0.0719"/><polyline points="0.0641,0.1019
0.0641,0.0719"/><polyline points="0.0996,0.1019
0.0996,0.0719"/><polyline points="0.1351,0.1019
0.1351,0.0719"/></g></g><g class="ticktext"><g stroke-width="0.0" stroke="none" fill="rgb(5%, 5%, 5%)" fill-opacity="1.0" font-size="0.0244" text-anchor="end"><text x="-0.5393" y="0.1101" transform="rotate(-45.0, -0.5393, 0.1101)">CDCL (adaptive)</text><text x="-0.5038" y="0.1101" transform="rotate(-45.0, -0.5038, 0.1101)">CDCL (adaptive), Baseline</text><text x="-0.4683" y="0.1101" transform="rotate(-45.0, -0.4683, 0.1101)">CDCL (adaptive, mVSIDS)</text><text x="-0.4328" y="0.1101" transform="rotate(-45.0, -0.4328, 0.1101)">CDCL (adaptive, mVSIDS), Baseline</text><text x="-0.3973" y="0.1101" transform="rotate(-45.0, -0.3973, 0.1101)">CDCL (α = 0.75)</text><text x="-0.3618" y="0.1101" transform="rotate(-45.0, -0.3618, 0.1101)">CDCL (α = 0.75), Baseline</text><text x="-0.3263" y="0.1101" transform="rotate(-45.0, -0.3263, 0.1101)">CDCL (α = 0.75, mVISDS)</text><text x="-0.2908" y="0.1101" transform="rotate(-45.0, -0.2908, 0.1101)">CDCL (α = 0.75, mVISDS), Baseline</text><text x="-0.2553" y="0.1101" transform="rotate(-45.0, -0.2553, 0.1101)">CDCL (α = 0.75, mVISDS, ExpRestart(100, 2))</text><text x="-0.2198" y="0.1101" transform="rotate(-45.0, -0.2198, 0.1101)">CDCL (α = 0.75, mVISDS, ExpRestart(100, 2)), Baseline</text><text x="-0.1844" y="0.1101" transform="rotate(-45.0, -0.1844, 0.1101)">CDCL (α = 0.75, mVISDS, LubyRestart(100, 2))</text><text x="-0.1489" y="0.1101" transform="rotate(-45.0, -0.1489, 0.1101)">CDCL (α = 0.75, mVISDS, LubyRestart(100, 2)), Baseline</text><text x="-0.1134" y="0.1101" transform="rotate(-45.0, -0.1134, 0.1101)">CDCL (α = 0.95)</text><text x="-0.0779" y="0.1101" transform="rotate(-45.0, -0.0779, 0.1101)">CDCL (α = 0.95), Baseline</text><text x="-0.0424" y="0.1101" transform="rotate(-45.0, -0.0424, 0.1101)">CDCL (α = 0.95, mVISDS)</text><text x="-0.0069" y="0.1101" transform="rotate(-45.0, -0.0069, 0.1101)">CDCL (α = 0.95, mVISDS), Baseline</text><text x="0.0286" y="0.1101" transform="rotate(-45.0, 0.0286, 0.1101)">CDCL (α = 0.95, mVISDS, ExpRestart(100, 2))</text><text x="0.0641" y="0.1101" transform="rotate(-45.0, 0.0641, 0.1101)">CDCL (α = 0.95, mVISDS, ExpRestart(100, 2)), Baseline</text><text x="0.0996" y="0.1101" transform="rotate(-45.0, 0.0996, 0.1101)">CDCL (α = 0.95, mVISDS, LubyRestart(100, 2))</text><text x="0.1351" y="0.1101" transform="rotate(-45.0, 0.1351, 0.1101)">CDCL (α = 0.95, mVISDS, LubyRestart(100, 2)), Baseline</text></g></g></g><g class="axisbar"><g stroke-width="0" stroke="rgb(0%, 0%, 0%)" stroke-opacity="0" fill="rgb(5%, 5%, 5%)" fill-opacity="0.4"><rect width="0.7908" height="0.0015" x="-0.5975" y="0.0797"/></g></g></g><g class="title"><g stroke-width="0.0" stroke="none" fill="rgb(5%, 5%, 5%)" fill-opacity="1.0" font-size="0.0585" text-anchor="middle"><text x="-0.2590" y="-0.3259">Alloc: SATLIB/Bejing/3blocks/cnf</text></g></g><g class="legend"><g class="legendBorder"><g stroke-width="0.0017" stroke="rgb(5%, 5%, 5%)" stroke-opacity="1.0" fill="rgb(5%, 5%, 5%)" fill-opacity="0"><rect width="0.4329" height="0.5176" x="0.2769" y="-0.4258"/></g></g><g class="legendContent"><g stroke-width="0.0" stroke="none" fill="rgb(5%, 5%, 5%)" fill-opacity="1.0" font-size="0.0154" text-anchor="start"><text x="0.2854" y="0.0787">CDCL (α = 0.95, mVISDS, LubyRestart(100, 2)), Baseline</text></g><g stroke-width="0.0002" stroke="rgb(62%, 0%, 31%)" stroke-opacity="1.0" fill="rgb(62%, 0%, 31%)" fill-opacity="0.25"><rect width="0.0256" height="0.0191" x="0.6756" y="0.0663"/></g><g stroke-width="0.0" stroke="none" fill="rgb(5%, 5%, 5%)" fill-opacity="1.0" font-size="0.0154" text-anchor="start"><text x="0.2854" y="0.0531">CDCL (α = 0.95, mVISDS, LubyRestart(100, 2))</text></g><g stroke-width="0" stroke="rgb(2%, 29%, 48%)" stroke-opacity="1.0" fill="rgb(62%, 0%, 31%)" fill-opacity="1.0"><rect width="0.0256" height="0.0191" x="0.6756" y="0.0407"/></g><g stroke-width="0.0" stroke="none" fill="rgb(5%, 5%, 5%)" fill-opacity="1.0" font-size="0.0154" text-anchor="start"><text x="0.2854" y="0.0276">CDCL (α = 0.95, mVISDS, ExpRestart(100, 2)), Baseline</text></g><g stroke-width="0.0002" stroke="rgb(91%, 47%, 0%)" stroke-opacity="1.0" fill="rgb(91%, 47%, 0%)" fill-opacity="0.25"><rect width="0.0256" height="0.0191" x="0.6756" y="0.0151"/></g><g stroke-width="0.0" stroke="none" fill="rgb(5%, 5%, 5%)" fill-opacity="1.0" font-size="0.0154" text-anchor="start"><text x="0.2854" y="0.0020">CDCL (α = 0.95, mVISDS, ExpRestart(100, 2))</text></g><g stroke-width="0" stroke="rgb(2%, 29%, 48%)" stroke-opacity="1.0" fill="rgb(91%, 47%, 0%)" fill-opacity="1.0"><rect width="0.0256" height="0.0191" x="0.6756" y="-0.0104"/></g><g stroke-width="0.0" stroke="none" fill="rgb(5%, 5%, 5%)" fill-opacity="1.0" font-size="0.0154" text-anchor="start"><text x="0.2854" y="-0.0236">CDCL (α = 0.95, mVISDS), Baseline</text></g><g stroke-width="0.0002" stroke="rgb(0%, 64%, 70%)" stroke-opacity="1.0" fill="rgb(0%, 64%, 70%)" fill-opacity="0.25"><rect width="0.0256" height="0.0191" x="0.6756" y="-0.0360"/></g><g stroke-width="0.0" stroke="none" fill="rgb(5%, 5%, 5%)" fill-opacity="1.0" font-size="0.0154" text-anchor="start"><text x="0.2854" y="-0.0491">CDCL (α = 0.95, mVISDS)</text></g><g stroke-width="0" stroke="rgb(2%, 29%, 48%)" stroke-opacity="1.0" fill="rgb(0%, 64%, 70%)" fill-opacity="1.0"><rect width="0.0256" height="0.0191" x="0.6756" y="-0.0616"/></g><g stroke-width="0.0" stroke="none" fill="rgb(5%, 5%, 5%)" fill-opacity="1.0" font-size="0.0154" text-anchor="start"><text x="0.2854" y="-0.0747">CDCL (α = 0.95), Baseline</text></g><g stroke-width="0.0002" stroke="rgb(91%, 19%, 0%)" stroke-opacity="1.0" fill="rgb(91%, 19%, 0%)" fill-opacity="0.25"><rect width="0.0256" height="0.0191" x="0.6756" y="-0.0871"/></g><g stroke-width="0.0" stroke="none" fill="rgb(5%, 5%, 5%)" fill-opacity="1.0" font-size="0.0154" text-anchor="start"><text x="0.2854" y="-0.1003">CDCL (α = 0.95)</text></g><g stroke-width="0" stroke="rgb(2%, 29%, 48%)" stroke-opacity="1.0" fill="rgb(91%, 19%, 0%)" fill-opacity="1.0"><rect width="0.0256" height="0.0191" x="0.6756" y="-0.1127"/></g><g stroke-width="0.0" stroke="none" fill="rgb(5%, 5%, 5%)" fill-opacity="1.0" font-size="0.0154" text-anchor="start"><text x="0.2854" y="-0.1258">CDCL (α = 0.75, mVISDS, LubyRestart(100, 2)), Baseline</text></g><g stroke-width="0.0002" stroke="rgb(38%, 23%, 0%)" stroke-opacity="1.0" fill="rgb(38%, 23%, 0%)" fill-opacity="0.25"><rect width="0.0256" height="0.0191" x="0.6756" y="-0.1382"/></g><g stroke-width="0.0" stroke="none" fill="rgb(5%, 5%, 5%)" fill-opacity="1.0" font-size="0.0154" text-anchor="start"><text x="0.2854" y="-0.1514">CDCL (α = 0.75, mVISDS, LubyRestart(100, 2))</text></g><g stroke-width="0" stroke="rgb(2%, 29%, 48%)" stroke-opacity="1.0" fill="rgb(38%, 23%, 0%)" fill-opacity="1.0"><rect width="0.0256" height="0.0191" x="0.6756" y="-0.1638"/></g><g stroke-width="0.0" stroke="none" fill="rgb(5%, 5%, 5%)" fill-opacity="1.0" font-size="0.0154" text-anchor="start"><text x="0.2854" y="-0.1769">CDCL (α = 0.75, mVISDS, ExpRestart(100, 2)), Baseline</text></g><g stroke-width="0.0002" stroke="rgb(90%, 37%, 58%)" stroke-opacity="1.0" fill="rgb(90%, 37%, 58%)" fill-opacity="0.25"><rect width="0.0256" height="0.0191" x="0.6756" y="-0.1894"/></g><g stroke-width="0.0" stroke="none" fill="rgb(5%, 5%, 5%)" fill-opacity="1.0" font-size="0.0154" text-anchor="start"><text x="0.2854" y="-0.2025">CDCL (α = 0.75, mVISDS, ExpRestart(100, 2))</text></g><g stroke-width="0" stroke="rgb(2%, 29%, 48%)" stroke-opacity="1.0" fill="rgb(90%, 37%, 58%)" fill-opacity="1.0"><rect width="0.0256" height="0.0191" x="0.6756" y="-0.2149"/></g><g stroke-width="0.0" stroke="none" fill="rgb(5%, 5%, 5%)" fill-opacity="1.0" font-size="0.0154" text-anchor="start"><text x="0.2854" y="-0.2281">CDCL (α = 0.75, mVISDS), Baseline</text></g><g stroke-width="0.0002" stroke="rgb(0%, 72%, 98%)" stroke-opacity="1.0" fill="rgb(0%, 72%, 98%)" fill-opacity="0.25"><rect width="0.0256" height="0.0191" x="0.6756" y="-0.2405"/></g><g stroke-width="0.0" stroke="none" fill="rgb(5%, 5%, 5%)" fill-opacity="1.0" font-size="0.0154" text-anchor="start"><text x="0.2854" y="-0.2536">CDCL (α = 0.75, mVISDS)</text></g><g stroke-width="0" stroke="rgb(2%, 29%, 48%)" stroke-opacity="1.0" fill="rgb(0%, 72%, 98%)" fill-opacity="1.0"><rect width="0.0256" height="0.0191" x="0.6756" y="-0.2661"/></g><g stroke-width="0.0" stroke="none" fill="rgb(5%, 5%, 5%)" fill-opacity="1.0" font-size="0.0154" text-anchor="start"><text x="0.2854" y="-0.2792">CDCL (α = 0.75), Baseline</text></g><g stroke-width="0.0002" stroke="rgb(1%, 28%, 43%)" stroke-opacity="1.0" fill="rgb(1%, 28%, 43%)" fill-opacity="0.25"><rect width="0.0256" height="0.0191" x="0.6756" y="-0.2916"/></g><g stroke-width="0.0" stroke="none" fill="rgb(5%, 5%, 5%)" fill-opacity="1.0" font-size="0.0154" text-anchor="start"><text x="0.2854" y="-0.3048">CDCL (α = 0.75)</text></g><g stroke-width="0" stroke="rgb(2%, 29%, 48%)" stroke-opacity="1.0" fill="rgb(1%, 28%, 43%)" fill-opacity="1.0"><rect width="0.0256" height="0.0191" x="0.6756" y="-0.3172"/></g><g stroke-width="0.0" stroke="none" fill="rgb(5%, 5%, 5%)" fill-opacity="1.0" font-size="0.0154" text-anchor="start"><text x="0.2854" y="-0.3303">CDCL (adaptive, mVSIDS), Baseline</text></g><g stroke-width="0.0002" stroke="rgb(26%, 54%, 57%)" stroke-opacity="1.0" fill="rgb(26%, 54%, 57%)" fill-opacity="0.25"><rect width="0.0256" height="0.0191" x="0.6756" y="-0.3427"/></g><g stroke-width="0.0" stroke="none" fill="rgb(5%, 5%, 5%)" fill-opacity="1.0" font-size="0.0154" text-anchor="start"><text x="0.2854" y="-0.3559">CDCL (adaptive, mVSIDS)</text></g><g stroke-width="0" stroke="rgb(2%, 29%, 48%)" stroke-opacity="1.0" fill="rgb(26%, 54%, 57%)" fill-opacity="1.0"><rect width="0.0256" height="0.0191" x="0.6756" y="-0.3683"/></g><g stroke-width="0.0" stroke="none" fill="rgb(5%, 5%, 5%)" fill-opacity="1.0" font-size="0.0154" text-anchor="start"><text x="0.2854" y="-0.3814">CDCL (adaptive), Baseline</text></g><g stroke-width="0.0002" stroke="rgb(8%, 16%, 42%)" stroke-opacity="1.0" fill="rgb(8%, 16%, 42%)" fill-opacity="0.25"><rect width="0.0256" height="0.0191" x="0.6756" y="-0.3939"/></g><g stroke-width="0.0" stroke="none" fill="rgb(5%, 5%, 5%)" fill-opacity="1.0" font-size="0.0154" text-anchor="start"><text x="0.2854" y="-0.4070">CDCL (adaptive)</text></g><g stroke-width="0" stroke="rgb(2%, 29%, 48%)" stroke-opacity="1.0" fill="rgb(8%, 16%, 42%)" fill-opacity="1.0"><rect width="0.0256" height="0.0191" x="0.6756" y="-0.4194"/></g></g></g><g class="frame"><g stroke-width="0" stroke="rgb(0%, 0%, 0%)" stroke-opacity="0" fill="rgb(100%, 100%, 100%)" fill-opacity="0.02"><rect width="1.6180" height="1.0" x="-0.8090" y="-0.5"/></g></g><g class="title"><g stroke-width="0.0" stroke="none" fill="rgb(5%, 5%, 5%)" fill-opacity="1.0" font-size="0.0293" text-anchor="middle"><text x="-0.7398" y="0" transform="rotate(-90.0, -0.7398, 0)">Alloc [GiB]</text></g></g></g></svg>