<svg xmlns="http://www.w3.org/2000/svg" xmlns:xlink="http://www.w3.org/1999/xlink" width="485" height="300" viewBox="-0.8090 -0.5 1.6180 1.0"><style>svg {
  color-scheme: light dark;
}
{
  .canvas g, .title g, .axisbar g, .ticktext g, .tickglyph g, .ticklines g, .legendContent g text {
    fill: rgb(5%, 5%, 5%);
  }
  .ticklines g, .tickglyph g, .legendBorder g {
    stroke: rgb(5%, 5%, 5%);
  }
  .legendBorder g {
    fill: rgb(94%, 94%, 94%);
  }
}
@media (prefers-color-scheme:dark) {
  .canvas g, .title g, .axisbar g, .ticktext g, .tickglyph g, .ticklines g, .legendContent g text {
    fill: rgb(94%, 94%, 94%);
  }
  .ticklines g, .tickglyph g, .legendBorder g {
    stroke: rgb(94%, 94%, 94%);
  }
  .legendBorder g {
    fill: rgb(5%, 5%, 5%);
  }
}</style><g class="chart"><g class="barchart"><g stroke-width="0" stroke="rgb(2%, 29%, 48%)" stroke-opacity="1.0" fill="rgb(0%, 30%, 12%)" fill-opacity="1.0"><rect width="0.0694" height="0.0065" x="-0.5846" y="0.0755"/></g><g stroke-width="0" stroke="rgb(2%, 29%, 48%)" stroke-opacity="1.0" fill="rgb(1%, 28%, 43%)" fill-opacity="1.0"><rect width="0.0694" height="0.0664" x="-0.5153" y="0.0156"/></g><g stroke-width="0" stroke="rgb(2%, 29%, 48%)" stroke-opacity="1.0" fill="rgb(0%, 72%, 98%)" fill-opacity="1.0"><rect width="0.0694" height="0.0183" x="-0.4459" y="0.0638"/></g><g stroke-width="0" stroke="rgb(2%, 29%, 48%)" stroke-opacity="1.0" fill="rgb(90%, 37%, 58%)" fill-opacity="1.0"><rect width="0.0694" height="0.0165" x="-0.3766" y="0.0656"/></g><g stroke-width="0" stroke="rgb(2%, 29%, 48%)" stroke-opacity="1.0" fill="rgb(38%, 23%, 0%)" fill-opacity="1.0"><rect width="0.0694" height="0.0397" x="-0.3072" y="0.0423"/></g><g stroke-width="0" stroke="rgb(2%, 29%, 48%)" stroke-opacity="1.0" fill="rgb(91%, 19%, 0%)" fill-opacity="1.0"><rect width="0.0694" height="0.0403" x="-0.2379" y="0.0417"/></g><g stroke-width="0" stroke="rgb(2%, 29%, 48%)" stroke-opacity="1.0" fill="rgb(0%, 64%, 70%)" fill-opacity="1.0"><rect width="0.0694" height="0.0066" x="-0.1685" y="0.0754"/></g><g stroke-width="0" stroke="rgb(2%, 29%, 48%)" stroke-opacity="1.0" fill="rgb(91%, 47%, 0%)" fill-opacity="1.0"><rect width="0.0694" height="0.0237" x="-0.0992" y="0.0583"/></g><g stroke-width="0" stroke="rgb(2%, 29%, 48%)" stroke-opacity="1.0" fill="rgb(62%, 0%, 31%)" fill-opacity="1.0"><rect width="0.0694" height="0.0165" x="-0.0298" y="0.0656"/></g><g stroke-width="0" stroke="rgb(2%, 29%, 48%)" stroke-opacity="1.0" fill="rgb(17%, 40%, 67%)" fill-opacity="1.0"><rect width="0.0694" height="0.0164" x="0.0395" y="0.0657"/></g><g stroke-width="0" stroke="rgb(2%, 29%, 48%)" stroke-opacity="1.0" fill="rgb(0%, 52%, 40%)" fill-opacity="1.0"><rect width="0.0694" height="0.3944" x="0.1089" y="-0.3124"/></g></g><g class="errors"></g></g><g class="hud"><g class="axis"><g class="ticks"><g class="tickglyph"><g stroke-width="0.0040" stroke="rgb(5%, 5%, 5%)" stroke-opacity="0.4" fill="rgb(5%, 5%, 5%)" fill-opacity="0.4"><g transform="rotate(-90.0, -0.6427, 0.0820)"><polyline points="-0.6427,0.0970
-0.6427,0.0670"/></g><g transform="rotate(-90.0, -0.6427, 0.0126)"><polyline points="-0.6427,0.0276
-0.6427,-0.0024"/></g><g transform="rotate(-90.0, -0.6427, -0.0567)"><polyline points="-0.6427,-0.0417
-0.6427,-0.0717"/></g><g transform="rotate(-90.0, -0.6427, -0.1261)"><polyline points="-0.6427,-0.1111
-0.6427,-0.1411"/></g><g transform="rotate(-90.0, -0.6427, -0.1955)"><polyline points="-0.6427,-0.1805
-0.6427,-0.2105"/></g><g transform="rotate(-90.0, -0.6427, -0.2649)"><polyline points="-0.6427,-0.2499
-0.6427,-0.2799"/></g><g transform="rotate(-90.0, -0.6427, -0.3342)"><polyline points="-0.6427,-0.3192
-0.6427,-0.3492"/></g></g></g><g class="ticktext"><g stroke-width="0.0" stroke="none" fill="rgb(5%, 5%, 5%)" fill-opacity="1.0" font-size="0.0262" text-anchor="end"><text x="-0.6616" y="0.0877">0.0</text><text x="-0.6616" y="0.0184">0.2</text><text x="-0.6616" y="-0.0510">0.4</text><text x="-0.6616" y="-0.1204">0.6</text><text x="-0.6616" y="-0.1898">0.8</text><text x="-0.6616" y="-0.2591">1.0</text><text x="-0.6616" y="-0.3285">1.2</text></g></g><g class="ticklines"><g stroke-width="0.0050" stroke="rgb(5%, 5%, 5%)" stroke-opacity="0.05" fill="none"><polyline points="-0.6270,0.0820 0.2206,0.0820"/><polyline points="-0.6270,0.0126 0.2206,0.0126"/><polyline points="-0.6270,-0.0567 0.2206,-0.0567"/><polyline points="-0.6270,-0.1261 0.2206,-0.1261"/><polyline points="-0.6270,-0.1955 0.2206,-0.1955"/><polyline points="-0.6270,-0.2649 0.2206,-0.2649"/><polyline points="-0.6270,-0.3342 0.2206,-0.3342"/></g></g></g><g class="axisbar"><g stroke-width="0" stroke="rgb(0%, 0%, 0%)" stroke-opacity="0" fill="rgb(5%, 5%, 5%)" fill-opacity="0.4"><rect width="0.0021" height="0.4179" x="-0.6343" y="-0.3351"/></g></g></g><g class="axis"><g class="ticks"><g class="tickglyph"><g stroke-width="0.0040" stroke="rgb(5%, 5%, 5%)" stroke-opacity="0.4" fill="rgb(5%, 5%, 5%)" fill-opacity="0.4"><polyline points="-0.5499,0.1095
-0.5499,0.0795"/><polyline points="-0.4806,0.1095
-0.4806,0.0795"/><polyline points="-0.4112,0.1095
-0.4112,0.0795"/><polyline points="-0.3419,0.1095
-0.3419,0.0795"/><polyline points="-0.2725,0.1095
-0.2725,0.0795"/><polyline points="-0.2032,0.1095
-0.2032,0.0795"/><polyline points="-0.1338,0.1095
-0.1338,0.0795"/><polyline points="-0.0645,0.1095
-0.0645,0.0795"/><polyline points="0.0049,0.1095
0.0049,0.0795"/><polyline points="0.0742,0.1095
0.0742,0.0795"/><polyline points="0.1436,0.1095
0.1436,0.0795"/></g></g><g class="ticktext"><g stroke-width="0.0" stroke="none" fill="rgb(5%, 5%, 5%)" fill-opacity="1.0" font-size="0.0262" text-anchor="end"><text x="-0.5499" y="0.1209" transform="rotate(-45.0, -0.5499, 0.1209)">CDCL (adaptive)</text><text x="-0.4806" y="0.1209" transform="rotate(-45.0, -0.4806, 0.1209)">CDCL (adaptive, mVSIDS)</text><text x="-0.4112" y="0.1209" transform="rotate(-45.0, -0.4112, 0.1209)">CDCL (α = 0.75)</text><text x="-0.3419" y="0.1209" transform="rotate(-45.0, -0.3419, 0.1209)">CDCL (α = 0.75, mVISDS)</text><text x="-0.2725" y="0.1209" transform="rotate(-45.0, -0.2725, 0.1209)">CDCL (α = 0.75, mVISDS, ExpRestart(100, 2))</text><text x="-0.2032" y="0.1209" transform="rotate(-45.0, -0.2032, 0.1209)">CDCL (α = 0.75, mVISDS, LubyRestart(100, 2))</text><text x="-0.1338" y="0.1209" transform="rotate(-45.0, -0.1338, 0.1209)">CDCL (α = 0.95)</text><text x="-0.0645" y="0.1209" transform="rotate(-45.0, -0.0645, 0.1209)">CDCL (α = 0.95, mVISDS)</text><text x="0.0049" y="0.1209" transform="rotate(-45.0, 0.0049, 0.1209)">CDCL (α = 0.95, mVISDS, ExpRestart(100, 2))</text><text x="0.0742" y="0.1209" transform="rotate(-45.0, 0.0742, 0.1209)">CDCL (α = 0.95, mVISDS, LubyRestart(100, 2))</text><text x="0.1436" y="0.1209" transform="rotate(-45.0, 0.1436, 0.1209)">DPLL</text></g></g></g><g class="axisbar"><g stroke-width="0" stroke="rgb(0%, 0%, 0%)" stroke-opacity="0" fill="rgb(5%, 5%, 5%)" fill-opacity="0.4"><rect width="0.8497" height="0.0017" x="-0.6280" y="0.0862"/></g></g></g><g class="title"><g stroke-width="0.0" stroke="none" fill="rgb(5%, 5%, 5%)" fill-opacity="1.0" font-size="0.0629" text-anchor="middle"><text x="-0.2375" y="-0.3768">Copied: SATLIB/Bejing/3blocks/cnf</text></g></g><g class="legend"><g class="legendBorder"><g stroke-width="0.0017" stroke="rgb(5%, 5%, 5%)" stroke-opacity="1.0" fill="rgb(5%, 5%, 5%)" fill-opacity="0"><rect width="0.3909" height="0.3278" x="0.3115" y="-0.2276"/></g></g><g class="legendContent"><g stroke-width="0.0" stroke="none" fill="rgb(5%, 5%, 5%)" fill-opacity="1.0" font-size="0.0165" text-anchor="start"><text x="0.3207" y="0.0853">DPLL</text></g><g stroke-width="0" stroke="rgb(2%, 29%, 48%)" stroke-opacity="1.0" fill="rgb(0%, 52%, 40%)" fill-opacity="1.0"><rect width="0.0275" height="0.0219" x="0.6657" y="0.0711"/></g><g stroke-width="0.0" stroke="none" fill="rgb(5%, 5%, 5%)" fill-opacity="1.0" font-size="0.0165" text-anchor="start"><text x="0.3207" y="0.0562">CDCL (α = 0.95, mVISDS, LubyRestart(100, 2))</text></g><g stroke-width="0" stroke="rgb(2%, 29%, 48%)" stroke-opacity="1.0" fill="rgb(17%, 40%, 67%)" fill-opacity="1.0"><rect width="0.0275" height="0.0219" x="0.6657" y="0.0420"/></g><g stroke-width="0.0" stroke="none" fill="rgb(5%, 5%, 5%)" fill-opacity="1.0" font-size="0.0165" text-anchor="start"><text x="0.3207" y="0.0270">CDCL (α = 0.95, mVISDS, ExpRestart(100, 2))</text></g><g stroke-width="0" stroke="rgb(2%, 29%, 48%)" stroke-opacity="1.0" fill="rgb(62%, 0%, 31%)" fill-opacity="1.0"><rect width="0.0275" height="0.0219" x="0.6657" y="0.0128"/></g><g stroke-width="0.0" stroke="none" fill="rgb(5%, 5%, 5%)" fill-opacity="1.0" font-size="0.0165" text-anchor="start"><text x="0.3207" y="-0.0021">CDCL (α = 0.95, mVISDS)</text></g><g stroke-width="0" stroke="rgb(2%, 29%, 48%)" stroke-opacity="1.0" fill="rgb(91%, 47%, 0%)" fill-opacity="1.0"><rect width="0.0275" height="0.0219" x="0.6657" y="-0.0163"/></g><g stroke-width="0.0" stroke="none" fill="rgb(5%, 5%, 5%)" fill-opacity="1.0" font-size="0.0165" text-anchor="start"><text x="0.3207" y="-0.0312">CDCL (α = 0.95)</text></g><g stroke-width="0" stroke="rgb(2%, 29%, 48%)" stroke-opacity="1.0" fill="rgb(0%, 64%, 70%)" fill-opacity="1.0"><rect width="0.0275" height="0.0219" x="0.6657" y="-0.0455"/></g><g stroke-width="0.0" stroke="none" fill="rgb(5%, 5%, 5%)" fill-opacity="1.0" font-size="0.0165" text-anchor="start"><text x="0.3207" y="-0.0604">CDCL (α = 0.75, mVISDS, LubyRestart(100, 2))</text></g><g stroke-width="0" stroke="rgb(2%, 29%, 48%)" stroke-opacity="1.0" fill="rgb(91%, 19%, 0%)" fill-opacity="1.0"><rect width="0.0275" height="0.0219" x="0.6657" y="-0.0746"/></g><g stroke-width="0.0" stroke="none" fill="rgb(5%, 5%, 5%)" fill-opacity="1.0" font-size="0.0165" text-anchor="start"><text x="0.3207" y="-0.0895">CDCL (α = 0.75, mVISDS, ExpRestart(100, 2))</text></g><g stroke-width="0" stroke="rgb(2%, 29%, 48%)" stroke-opacity="1.0" fill="rgb(38%, 23%, 0%)" fill-opacity="1.0"><rect width="0.0275" height="0.0219" x="0.6657" y="-0.1037"/></g><g stroke-width="0.0" stroke="none" fill="rgb(5%, 5%, 5%)" fill-opacity="1.0" font-size="0.0165" text-anchor="start"><text x="0.3207" y="-0.1187">CDCL (α = 0.75, mVISDS)</text></g><g stroke-width="0" stroke="rgb(2%, 29%, 48%)" stroke-opacity="1.0" fill="rgb(90%, 37%, 58%)" fill-opacity="1.0"><rect width="0.0275" height="0.0219" x="0.6657" y="-0.1329"/></g><g stroke-width="0.0" stroke="none" fill="rgb(5%, 5%, 5%)" fill-opacity="1.0" font-size="0.0165" text-anchor="start"><text x="0.3207" y="-0.1478">CDCL (α = 0.75)</text></g><g stroke-width="0" stroke="rgb(2%, 29%, 48%)" stroke-opacity="1.0" fill="rgb(0%, 72%, 98%)" fill-opacity="1.0"><rect width="0.0275" height="0.0219" x="0.6657" y="-0.1620"/></g><g stroke-width="0.0" stroke="none" fill="rgb(5%, 5%, 5%)" fill-opacity="1.0" font-size="0.0165" text-anchor="start"><text x="0.3207" y="-0.1769">CDCL (adaptive, mVSIDS)</text></g><g stroke-width="0" stroke="rgb(2%, 29%, 48%)" stroke-opacity="1.0" fill="rgb(1%, 28%, 43%)" fill-opacity="1.0"><rect width="0.0275" height="0.0219" x="0.6657" y="-0.1911"/></g><g stroke-width="0.0" stroke="none" fill="rgb(5%, 5%, 5%)" fill-opacity="1.0" font-size="0.0165" text-anchor="start"><text x="0.3207" y="-0.2061">CDCL (adaptive)</text></g><g stroke-width="0" stroke="rgb(2%, 29%, 48%)" stroke-opacity="1.0" fill="rgb(0%, 30%, 12%)" fill-opacity="1.0"><rect width="0.0275" height="0.0219" x="0.6657" y="-0.2203"/></g></g></g><g class="frame"><g stroke-width="0" stroke="rgb(0%, 0%, 0%)" stroke-opacity="0" fill="rgb(100%, 100%, 100%)" fill-opacity="0.02"><rect width="1.6180" height="1.0" x="-0.8090" y="-0.5"/></g></g><g class="title"><g stroke-width="0.0" stroke="none" fill="rgb(5%, 5%, 5%)" fill-opacity="1.0" font-size="0.0314" text-anchor="middle"><text x="-0.7346" y="0" transform="rotate(-90.0, -0.7346, 0)">Copied [GiB]</text></g></g></g></svg>