<svg xmlns="http://www.w3.org/2000/svg" xmlns:xlink="http://www.w3.org/1999/xlink" width="459" height="300" viewBox="-0.8090 -0.5 1.6180 1.0575"><style>svg {
  color-scheme: light dark;
}
{
  .canvas g, .title g, .axisbar g, .ticktext g, .tickglyph g, .ticklines g, .legendContent g text {
    fill: rgb(5%, 5%, 5%);
  }
  .ticklines g, .tickglyph g, .legendBorder g {
    stroke: rgb(5%, 5%, 5%);
  }
  .legendBorder g {
    fill: rgb(94%, 94%, 94%);
  }
}
@media (prefers-color-scheme:dark) {
  .canvas g, .title g, .axisbar g, .ticktext g, .tickglyph g, .ticklines g, .legendContent g text {
    fill: rgb(94%, 94%, 94%);
  }
  .ticklines g, .tickglyph g, .legendBorder g {
    stroke: rgb(94%, 94%, 94%);
  }
  .legendBorder g {
    fill: rgb(5%, 5%, 5%);
  }
}</style><g class="chart"><g class="barchart"><g stroke-width="0" stroke="rgb(2%, 29%, 48%)" stroke-opacity="1.0" fill="rgb(8%, 16%, 42%)" fill-opacity="1.0"><rect width="0.0228" height="0.1628" x="-0.4192" y="-0.0150"/></g><g stroke-width="0.0010" stroke="rgb(8%, 16%, 42%)" stroke-opacity="1.0" fill="rgb(8%, 16%, 42%)" fill-opacity="0.25"><rect width="0.0228" height="0.1479" x="-0.3964" y="-0.0000"/></g><g stroke-width="0" stroke="rgb(2%, 29%, 48%)" stroke-opacity="1.0" fill="rgb(0%, 30%, 12%)" fill-opacity="1.0"><rect width="0.0228" height="0.1624" x="-0.3736" y="-0.0146"/></g><g stroke-width="0.0010" stroke="rgb(0%, 30%, 12%)" stroke-opacity="1.0" fill="rgb(0%, 30%, 12%)" fill-opacity="0.25"><rect width="0.0228" height="0.1339" x="-0.3508" y="0.0140"/></g><g stroke-width="0" stroke="rgb(2%, 29%, 48%)" stroke-opacity="1.0" fill="rgb(0%, 25%, 37%)" fill-opacity="1.0"><rect width="0.0228" height="0.1484" x="-0.3280" y="-0.0006"/></g><g stroke-width="0.0010" stroke="rgb(0%, 25%, 37%)" stroke-opacity="1.0" fill="rgb(0%, 25%, 37%)" fill-opacity="0.25"><rect width="0.0228" height="0.1400" x="-0.3052" y="0.0078"/></g><g stroke-width="0" stroke="rgb(2%, 29%, 48%)" stroke-opacity="1.0" fill="rgb(26%, 54%, 57%)" fill-opacity="1.0"><rect width="0.0228" height="0.1636" x="-0.2824" y="-0.0157"/></g><g stroke-width="0.0010" stroke="rgb(26%, 54%, 57%)" stroke-opacity="1.0" fill="rgb(26%, 54%, 57%)" fill-opacity="0.25"><rect width="0.0228" height="0.1297" x="-0.2596" y="0.0182"/></g><g stroke-width="0" stroke="rgb(2%, 29%, 48%)" stroke-opacity="1.0" fill="rgb(1%, 28%, 43%)" fill-opacity="1.0"><rect width="0.0228" height="0.1487" x="-0.2368" y="-0.0008"/></g><g stroke-width="0.0010" stroke="rgb(1%, 28%, 43%)" stroke-opacity="1.0" fill="rgb(1%, 28%, 43%)" fill-opacity="0.25"><rect width="0.0228" height="0.1249" x="-0.2140" y="0.0230"/></g><g stroke-width="0" stroke="rgb(2%, 29%, 48%)" stroke-opacity="1.0" fill="rgb(0%, 72%, 98%)" fill-opacity="1.0"><rect width="0.0228" height="0.1519" x="-0.1912" y="-0.0040"/></g><g stroke-width="0.0010" stroke="rgb(0%, 72%, 98%)" stroke-opacity="1.0" fill="rgb(0%, 72%, 98%)" fill-opacity="0.25"><rect width="0.0228" height="0.1319" x="-0.1684" y="0.0160"/></g><g stroke-width="0" stroke="rgb(2%, 29%, 48%)" stroke-opacity="1.0" fill="rgb(90%, 37%, 58%)" fill-opacity="1.0"><rect width="0.0228" height="0.1466" x="-0.1456" y="0.0012"/></g><g stroke-width="0.0010" stroke="rgb(90%, 37%, 58%)" stroke-opacity="1.0" fill="rgb(90%, 37%, 58%)" fill-opacity="0.25"><rect width="0.0228" height="0.1351" x="-0.1228" y="0.0127"/></g><g stroke-width="0" stroke="rgb(2%, 29%, 48%)" stroke-opacity="1.0" fill="rgb(38%, 23%, 0%)" fill-opacity="1.0"><rect width="0.0228" height="0.1504" x="-0.1000" y="-0.0026"/></g><g stroke-width="0.0010" stroke="rgb(38%, 23%, 0%)" stroke-opacity="1.0" fill="rgb(38%, 23%, 0%)" fill-opacity="0.25"><rect width="0.0228" height="0.1451" x="-0.0772" y="0.0028"/></g><g stroke-width="0" stroke="rgb(2%, 29%, 48%)" stroke-opacity="1.0" fill="rgb(91%, 19%, 0%)" fill-opacity="1.0"><rect width="0.0228" height="0.1562" x="-0.0544" y="-0.0084"/></g><g stroke-width="0.0010" stroke="rgb(91%, 19%, 0%)" stroke-opacity="1.0" fill="rgb(91%, 19%, 0%)" fill-opacity="0.25"><rect width="0.0228" height="0.1371" x="-0.0316" y="0.0107"/></g><g stroke-width="0" stroke="rgb(2%, 29%, 48%)" stroke-opacity="1.0" fill="rgb(0%, 64%, 70%)" fill-opacity="1.0"><rect width="0.0228" height="0.1481" x="-0.0088" y="-0.0003"/></g><g stroke-width="0.0010" stroke="rgb(0%, 64%, 70%)" stroke-opacity="1.0" fill="rgb(0%, 64%, 70%)" fill-opacity="0.25"><rect width="0.0228" height="0.1308" x="0.0139" y="0.0171"/></g><g stroke-width="0" stroke="rgb(2%, 29%, 48%)" stroke-opacity="1.0" fill="rgb(91%, 47%, 0%)" fill-opacity="1.0"><rect width="0.0228" height="0.1478" x="0.0367" y="0.0001"/></g><g stroke-width="0.0010" stroke="rgb(91%, 47%, 0%)" stroke-opacity="1.0" fill="rgb(91%, 47%, 0%)" fill-opacity="0.25"><rect width="0.0228" height="0.1413" x="0.0595" y="0.0065"/></g><g stroke-width="0" stroke="rgb(2%, 29%, 48%)" stroke-opacity="1.0" fill="rgb(62%, 0%, 31%)" fill-opacity="1.0"><rect width="0.0228" height="0.1468" x="0.0823" y="0.0010"/></g><g stroke-width="0.0010" stroke="rgb(62%, 0%, 31%)" stroke-opacity="1.0" fill="rgb(62%, 0%, 31%)" fill-opacity="0.25"><rect width="0.0228" height="0.1395" x="0.1051" y="0.0083"/></g><g stroke-width="0" stroke="rgb(2%, 29%, 48%)" stroke-opacity="1.0" fill="rgb(17%, 40%, 67%)" fill-opacity="1.0"><rect width="0.0228" height="0.0351" x="0.1279" y="0.1128"/></g><g stroke-width="0.0010" stroke="rgb(17%, 40%, 67%)" stroke-opacity="1.0" fill="rgb(17%, 40%, 67%)" fill-opacity="0.25"><rect width="0.0228" height="0.0324" x="0.1507" y="0.1154"/></g><g stroke-width="0" stroke="rgb(2%, 29%, 48%)" stroke-opacity="1.0" fill="rgb(0%, 52%, 40%)" fill-opacity="1.0"><rect width="0.0228" height="0.2315" x="0.1735" y="-0.0837"/></g><g stroke-width="0.0010" stroke="rgb(0%, 52%, 40%)" stroke-opacity="1.0" fill="rgb(0%, 52%, 40%)" fill-opacity="0.25"><rect width="0.0228" height="0.2677" x="0.1963" y="-0.1199"/></g></g><g class="errors"><g stroke-width="0.0015" stroke="rgb(5%, 5%, 5%)" stroke-opacity="1.0" fill="none"><polyline points="-0.4100,-0.0086 -0.4055,-0.0086"/><polyline points="-0.4078,-0.0086 -0.4078,-0.0214"/><polyline points="-0.4100,-0.0214 -0.4055,-0.0214"/></g><g stroke-width="0.0015" stroke="rgb(5%, 5%, 5%)" stroke-opacity="1.0" fill="none"><polyline points="-0.3872,0.0073 -0.3827,0.0073"/><polyline points="-0.3850,0.0073 -0.3850,-0.0074"/><polyline points="-0.3872,-0.0074 -0.3827,-0.0074"/></g><g stroke-width="0.0015" stroke="rgb(5%, 5%, 5%)" stroke-opacity="1.0" fill="none"><polyline points="-0.3645,-0.0084 -0.3599,-0.0084"/><polyline points="-0.3622,-0.0084 -0.3622,-0.0207"/><polyline points="-0.3645,-0.0207 -0.3599,-0.0207"/></g><g stroke-width="0.0015" stroke="rgb(5%, 5%, 5%)" stroke-opacity="1.0" fill="none"><polyline points="-0.3417,0.0206 -0.3371,0.0206"/><polyline points="-0.3394,0.0206 -0.3394,0.0073"/><polyline points="-0.3417,0.0073 -0.3371,0.0073"/></g><g stroke-width="0.0015" stroke="rgb(5%, 5%, 5%)" stroke-opacity="1.0" fill="none"><polyline points="-0.3189,0.0019 -0.3143,0.0019"/><polyline points="-0.3166,0.0019 -0.3166,-0.0031"/><polyline points="-0.3189,-0.0031 -0.3143,-0.0031"/></g><g stroke-width="0.0015" stroke="rgb(5%, 5%, 5%)" stroke-opacity="1.0" fill="none"><polyline points="-0.2961,0.0093 -0.2915,0.0093"/><polyline points="-0.2938,0.0093 -0.2938,0.0064"/><polyline points="-0.2961,0.0064 -0.2915,0.0064"/></g><g stroke-width="0.0015" stroke="rgb(5%, 5%, 5%)" stroke-opacity="1.0" fill="none"><polyline points="-0.2733,-0.0091 -0.2687,-0.0091"/><polyline points="-0.2710,-0.0091 -0.2710,-0.0224"/><polyline points="-0.2733,-0.0224 -0.2687,-0.0224"/></g><g stroke-width="0.0015" stroke="rgb(5%, 5%, 5%)" stroke-opacity="1.0" fill="none"><polyline points="-0.2505,0.0219 -0.2459,0.0219"/><polyline points="-0.2482,0.0219 -0.2482,0.0144"/><polyline points="-0.2505,0.0144 -0.2459,0.0144"/></g><g stroke-width="0.0015" stroke="rgb(5%, 5%, 5%)" stroke-opacity="1.0" fill="none"><polyline points="-0.2277,0.0042 -0.2231,0.0042"/><polyline points="-0.2254,0.0042 -0.2254,-0.0058"/><polyline points="-0.2277,-0.0058 -0.2231,-0.0058"/></g><g stroke-width="0.0015" stroke="rgb(5%, 5%, 5%)" stroke-opacity="1.0" fill="none"><polyline points="-0.2049,0.0290 -0.2003,0.0290"/><polyline points="-0.2026,0.0290 -0.2026,0.0169"/><polyline points="-0.2049,0.0169 -0.2003,0.0169"/></g><g stroke-width="0.0015" stroke="rgb(5%, 5%, 5%)" stroke-opacity="1.0" fill="none"><polyline points="-0.1821,0.0033 -0.1775,0.0033"/><polyline points="-0.1798,0.0033 -0.1798,-0.0114"/><polyline points="-0.1821,-0.0114 -0.1775,-0.0114"/></g><g stroke-width="0.0015" stroke="rgb(5%, 5%, 5%)" stroke-opacity="1.0" fill="none"><polyline points="-0.1593,0.0211 -0.1547,0.0211"/><polyline points="-0.1570,0.0211 -0.1570,0.0108"/><polyline points="-0.1593,0.0108 -0.1547,0.0108"/></g><g stroke-width="0.0015" stroke="rgb(5%, 5%, 5%)" stroke-opacity="1.0" fill="none"><polyline points="-0.1365,0.0079 -0.1319,0.0079"/><polyline points="-0.1342,0.0079 -0.1342,-0.0054"/><polyline points="-0.1365,-0.0054 -0.1319,-0.0054"/></g><g stroke-width="0.0015" stroke="rgb(5%, 5%, 5%)" stroke-opacity="1.0" fill="none"><polyline points="-0.1137,0.0158 -0.1091,0.0158"/><polyline points="-0.1114,0.0158 -0.1114,0.0096"/><polyline points="-0.1137,0.0096 -0.1091,0.0096"/></g><g stroke-width="0.0015" stroke="rgb(5%, 5%, 5%)" stroke-opacity="1.0" fill="none"><polyline points="-0.0909,0.0025 -0.0864,0.0025"/><polyline points="-0.0886,0.0025 -0.0886,-0.0077"/><polyline points="-0.0909,-0.0077 -0.0864,-0.0077"/></g><g stroke-width="0.0015" stroke="rgb(5%, 5%, 5%)" stroke-opacity="1.0" fill="none"><polyline points="-0.0681,0.0070 -0.0636,0.0070"/><polyline points="-0.0658,0.0070 -0.0658,-0.0014"/><polyline points="-0.0681,-0.0014 -0.0636,-0.0014"/></g><g stroke-width="0.0015" stroke="rgb(5%, 5%, 5%)" stroke-opacity="1.0" fill="none"><polyline points="-0.0453,-0.0037 -0.0408,-0.0037"/><polyline points="-0.0430,-0.0037 -0.0430,-0.0131"/><polyline points="-0.0453,-0.0131 -0.0408,-0.0131"/></g><g stroke-width="0.0015" stroke="rgb(5%, 5%, 5%)" stroke-opacity="1.0" fill="none"><polyline points="-0.0225,0.0169 -0.0180,0.0169"/><polyline points="-0.0202,0.0169 -0.0202,0.0045"/><polyline points="-0.0225,0.0045 -0.0180,0.0045"/></g><g stroke-width="0.0015" stroke="rgb(5%, 5%, 5%)" stroke-opacity="1.0" fill="none"><polyline points="0.0003,0.0038 0.0048,0.0038"/><polyline points="0.0025,0.0038 0.0025,-0.0043"/><polyline points="0.0003,-0.0043 0.0048,-0.0043"/></g><g stroke-width="0.0015" stroke="rgb(5%, 5%, 5%)" stroke-opacity="1.0" fill="none"><polyline points="0.0231,0.0197 0.0276,0.0197"/><polyline points="0.0253,0.0197 0.0253,0.0145"/><polyline points="0.0231,0.0145 0.0276,0.0145"/></g><g stroke-width="0.0015" stroke="rgb(5%, 5%, 5%)" stroke-opacity="1.0" fill="none"><polyline points="0.0459,0.0052 0.0504,0.0052"/><polyline points="0.0481,0.0052 0.0481,-0.0051"/><polyline points="0.0459,-0.0051 0.0504,-0.0051"/></g><g stroke-width="0.0015" stroke="rgb(5%, 5%, 5%)" stroke-opacity="1.0" fill="none"><polyline points="0.0687,0.0120 0.0732,0.0120"/><polyline points="0.0709,0.0120 0.0709,0.0011"/><polyline points="0.0687,0.0011 0.0732,0.0011"/></g><g stroke-width="0.0015" stroke="rgb(5%, 5%, 5%)" stroke-opacity="1.0" fill="none"><polyline points="0.0915,0.0060 0.0960,0.0060"/><polyline points="0.0937,0.0060 0.0937,-0.0039"/><polyline points="0.0915,-0.0039 0.0960,-0.0039"/></g><g stroke-width="0.0015" stroke="rgb(5%, 5%, 5%)" stroke-opacity="1.0" fill="none"><polyline points="0.1142,0.0137 0.1188,0.0137"/><polyline points="0.1165,0.0137 0.1165,0.0029"/><polyline points="0.1142,0.0029 0.1188,0.0029"/></g><g stroke-width="0.0015" stroke="rgb(5%, 5%, 5%)" stroke-opacity="1.0" fill="none"><polyline points="0.1370,0.1136 0.1416,0.1136"/><polyline points="0.1393,0.1136 0.1393,0.1119"/><polyline points="0.1370,0.1119 0.1416,0.1119"/></g><g stroke-width="0.0015" stroke="rgb(5%, 5%, 5%)" stroke-opacity="1.0" fill="none"><polyline points="0.1598,0.1168 0.1644,0.1168"/><polyline points="0.1621,0.1168 0.1621,0.1141"/><polyline points="0.1598,0.1141 0.1644,0.1141"/></g><g stroke-width="0.0015" stroke="rgb(5%, 5%, 5%)" stroke-opacity="1.0" fill="none"><polyline points="0.1826,-0.0758 0.1872,-0.0758"/><polyline points="0.1849,-0.0758 0.1849,-0.0915"/><polyline points="0.1826,-0.0915 0.1872,-0.0915"/></g><g stroke-width="0.0015" stroke="rgb(5%, 5%, 5%)" stroke-opacity="1.0" fill="none"><polyline points="0.2054,-0.1108 0.2100,-0.1108"/><polyline points="0.2077,-0.1108 0.2077,-0.1289"/><polyline points="0.2054,-0.1289 0.2100,-0.1289"/></g></g></g><g class="hud"><g class="axis"><g class="ticks"><g class="tickglyph"><g stroke-width="0.0040" stroke="rgb(5%, 5%, 5%)" stroke-opacity="0.4" fill="rgb(5%, 5%, 5%)" fill-opacity="0.4"><g transform="rotate(-90.0, -0.4678, 0.1478)"><polyline points="-0.4678,0.1628
-0.4678,0.1328"/></g><g transform="rotate(-90.0, -0.4678, 0.0873)"><polyline points="-0.4678,0.1023
-0.4678,0.0723"/></g><g transform="rotate(-90.0, -0.4678, 0.0268)"><polyline points="-0.4678,0.0418
-0.4678,0.0118"/></g><g transform="rotate(-90.0, -0.4678, -0.0337)"><polyline points="-0.4678,-0.0187
-0.4678,-0.0487"/></g><g transform="rotate(-90.0, -0.4678, -0.0942)"><polyline points="-0.4678,-0.0792
-0.4678,-0.1092"/></g><g transform="rotate(-90.0, -0.4678, -0.1548)"><polyline points="-0.4678,-0.1398
-0.4678,-0.1698"/></g></g></g><g class="ticktext"><g stroke-width="0.0" stroke="none" fill="rgb(5%, 5%, 5%)" fill-opacity="1.0" font-size="0.0219" text-anchor="end"><text x="-0.4835" y="0.1520">0.0</text><text x="-0.4835" y="0.0915">0.5</text><text x="-0.4835" y="0.0310">1.0</text><text x="-0.4835" y="-0.0296">1.5</text><text x="-0.4835" y="-0.0901">2.0</text><text x="-0.4835" y="-0.1506">2.5</text></g></g><g class="ticklines"><g stroke-width="0.0050" stroke="rgb(5%, 5%, 5%)" stroke-opacity="0.05" fill="none"><polyline points="-0.4546,0.1478 0.2546,0.1478"/><polyline points="-0.4546,0.0873 0.2546,0.0873"/><polyline points="-0.4546,0.0268 0.2546,0.0268"/><polyline points="-0.4546,-0.0337 0.2546,-0.0337"/><polyline points="-0.4546,-0.0942 0.2546,-0.0942"/><polyline points="-0.4546,-0.1548 0.2546,-0.1548"/></g></g></g><g class="axisbar"><g stroke-width="0" stroke="rgb(0%, 0%, 0%)" stroke-opacity="0" fill="rgb(5%, 5%, 5%)" fill-opacity="0.4"><rect width="0.0018" height="0.3038" x="-0.4608" y="-0.1554"/></g></g></g><g class="axis"><g class="ticks"><g class="tickglyph"><g stroke-width="0.0040" stroke="rgb(5%, 5%, 5%)" stroke-opacity="0.4" fill="rgb(5%, 5%, 5%)" fill-opacity="0.4"><polyline points="-0.4078,0.1721
-0.4078,0.1421"/><polyline points="-0.3850,0.1721
-0.3850,0.1421"/><polyline points="-0.3622,0.1721
-0.3622,0.1421"/><polyline points="-0.3394,0.1721
-0.3394,0.1421"/><polyline points="-0.3166,0.1721
-0.3166,0.1421"/><polyline points="-0.2938,0.1721
-0.2938,0.1421"/><polyline points="-0.2710,0.1721
-0.2710,0.1421"/><polyline points="-0.2482,0.1721
-0.2482,0.1421"/><polyline points="-0.2254,0.1721
-0.2254,0.1421"/><polyline points="-0.2026,0.1721
-0.2026,0.1421"/><polyline points="-0.1798,0.1721
-0.1798,0.1421"/><polyline points="-0.1570,0.1721
-0.1570,0.1421"/><polyline points="-0.1342,0.1721
-0.1342,0.1421"/><polyline points="-0.1114,0.1721
-0.1114,0.1421"/><polyline points="-0.0886,0.1721
-0.0886,0.1421"/><polyline points="-0.0658,0.1721
-0.0658,0.1421"/><polyline points="-0.0430,0.1721
-0.0430,0.1421"/><polyline points="-0.0202,0.1721
-0.0202,0.1421"/><polyline points="0.0025,0.1721
0.0025,0.1421"/><polyline points="0.0253,0.1721
0.0253,0.1421"/><polyline points="0.0481,0.1721
0.0481,0.1421"/><polyline points="0.0709,0.1721
0.0709,0.1421"/><polyline points="0.0937,0.1721
0.0937,0.1421"/><polyline points="0.1165,0.1721
0.1165,0.1421"/><polyline points="0.1393,0.1721
0.1393,0.1421"/><polyline points="0.1621,0.1721
0.1621,0.1421"/><polyline points="0.1849,0.1721
0.1849,0.1421"/><polyline points="0.2077,0.1721
0.2077,0.1421"/></g></g><g class="ticktext"><g stroke-width="0.0" stroke="none" fill="rgb(5%, 5%, 5%)" fill-opacity="1.0" font-size="0.0219" text-anchor="end"><text x="-0.4078" y="0.1763" transform="rotate(-45.0, -0.4078, 0.1763)">CDCL (adaptive)</text><text x="-0.3850" y="0.1763" transform="rotate(-45.0, -0.3850, 0.1763)">CDCL (adaptive), Baseline</text><text x="-0.3622" y="0.1763" transform="rotate(-45.0, -0.3622, 0.1763)">CDCL (adaptive, mVISDS, ExpRestart(100, 2))</text><text x="-0.3394" y="0.1763" transform="rotate(-45.0, -0.3394, 0.1763)">CDCL (adaptive, mVISDS, ExpRestart(100, 2)), Baseline</text><text x="-0.3166" y="0.1763" transform="rotate(-45.0, -0.3166, 0.1763)">CDCL (adaptive, mVISDS, LubyRestart(100, 2))</text><text x="-0.2938" y="0.1763" transform="rotate(-45.0, -0.2938, 0.1763)">CDCL (adaptive, mVISDS, LubyRestart(100, 2)), Baseline</text><text x="-0.2710" y="0.1763" transform="rotate(-45.0, -0.2710, 0.1763)">CDCL (adaptive, mVSIDS)</text><text x="-0.2482" y="0.1763" transform="rotate(-45.0, -0.2482, 0.1763)">CDCL (adaptive, mVSIDS), Baseline</text><text x="-0.2254" y="0.1763" transform="rotate(-45.0, -0.2254, 0.1763)">CDCL (α = 0.75)</text><text x="-0.2026" y="0.1763" transform="rotate(-45.0, -0.2026, 0.1763)">CDCL (α = 0.75), Baseline</text><text x="-0.1798" y="0.1763" transform="rotate(-45.0, -0.1798, 0.1763)">CDCL (α = 0.75, mVISDS)</text><text x="-0.1570" y="0.1763" transform="rotate(-45.0, -0.1570, 0.1763)">CDCL (α = 0.75, mVISDS), Baseline</text><text x="-0.1342" y="0.1763" transform="rotate(-45.0, -0.1342, 0.1763)">CDCL (α = 0.75, mVISDS, ExpRestart(100, 2))</text><text x="-0.1114" y="0.1763" transform="rotate(-45.0, -0.1114, 0.1763)">CDCL (α = 0.75, mVISDS, ExpRestart(100, 2)), Baseline</text><text x="-0.0886" y="0.1763" transform="rotate(-45.0, -0.0886, 0.1763)">CDCL (α = 0.75, mVISDS, LubyRestart(100, 2))</text><text x="-0.0658" y="0.1763" transform="rotate(-45.0, -0.0658, 0.1763)">CDCL (α = 0.75, mVISDS, LubyRestart(100, 2)), Baseline</text><text x="-0.0430" y="0.1763" transform="rotate(-45.0, -0.0430, 0.1763)">CDCL (α = 0.95)</text><text x="-0.0202" y="0.1763" transform="rotate(-45.0, -0.0202, 0.1763)">CDCL (α = 0.95), Baseline</text><text x="0.0025" y="0.1763" transform="rotate(-45.0, 0.0025, 0.1763)">CDCL (α = 0.95, mVISDS)</text><text x="0.0253" y="0.1763" transform="rotate(-45.0, 0.0253, 0.1763)">CDCL (α = 0.95, mVISDS), Baseline</text><text x="0.0481" y="0.1763" transform="rotate(-45.0, 0.0481, 0.1763)">CDCL (α = 0.95, mVISDS, ExpRestart(100, 2))</text><text x="0.0709" y="0.1763" transform="rotate(-45.0, 0.0709, 0.1763)">CDCL (α = 0.95, mVISDS, ExpRestart(100, 2)), Baseline</text><text x="0.0937" y="0.1763" transform="rotate(-45.0, 0.0937, 0.1763)">CDCL (α = 0.95, mVISDS, LubyRestart(100, 2))</text><text x="0.1165" y="0.1763" transform="rotate(-45.0, 0.1165, 0.1763)">CDCL (α = 0.95, mVISDS, LubyRestart(100, 2)), Baseline</text><text x="0.1393" y="0.1763" transform="rotate(-45.0, 0.1393, 0.1763)">DPLL</text><text x="0.1621" y="0.1763" transform="rotate(-45.0, 0.1621, 0.1763)">DPLL, Baseline</text><text x="0.1849" y="0.1763" transform="rotate(-45.0, 0.1849, 0.1763)">tableaux</text><text x="0.2077" y="0.1763" transform="rotate(-45.0, 0.2077, 0.1763)">tableaux, Baseline</text></g></g></g><g class="axisbar"><g stroke-width="0" stroke="rgb(0%, 0%, 0%)" stroke-opacity="0" fill="rgb(5%, 5%, 5%)" fill-opacity="0.4"><rect width="0.7109" height="0.0012" x="-0.4555" y="0.1510"/></g></g></g><g class="title"><g stroke-width="0.0" stroke="none" fill="rgb(5%, 5%, 5%)" fill-opacity="1.0" font-size="0.0526" text-anchor="middle"><text x="-0.2329" y="-0.1857">Time: huge/1/cnf</text></g></g><g class="legend"><g class="legendBorder"><g stroke-width="0.0017" stroke="rgb(5%, 5%, 5%)" stroke-opacity="1.0" fill="rgb(5%, 5%, 5%)" fill-opacity="0"><rect width="0.3892" height="0.5995" x="0.3306" y="-0.4384"/></g></g><g class="legendContent"><g stroke-width="0.0" stroke="none" fill="rgb(5%, 5%, 5%)" fill-opacity="1.0" font-size="0.0138" text-anchor="start"><text x="0.3383" y="0.1502">tableaux, Baseline</text></g><g stroke-width="0.0002" stroke="rgb(0%, 52%, 40%)" stroke-opacity="1.0" fill="rgb(0%, 52%, 40%)" fill-opacity="0.25"><rect width="0.0230" height="0.0159" x="0.6891" y="0.1399"/></g><g stroke-width="0.0" stroke="none" fill="rgb(5%, 5%, 5%)" fill-opacity="1.0" font-size="0.0138" text-anchor="start"><text x="0.3383" y="0.1290">tableaux</text></g><g stroke-width="0" stroke="rgb(2%, 29%, 48%)" stroke-opacity="1.0" fill="rgb(0%, 52%, 40%)" fill-opacity="1.0"><rect width="0.0230" height="0.0159" x="0.6891" y="0.1187"/></g><g stroke-width="0.0" stroke="none" fill="rgb(5%, 5%, 5%)" fill-opacity="1.0" font-size="0.0138" text-anchor="start"><text x="0.3383" y="0.1078">DPLL, Baseline</text></g><g stroke-width="0.0002" stroke="rgb(17%, 40%, 67%)" stroke-opacity="1.0" fill="rgb(17%, 40%, 67%)" fill-opacity="0.25"><rect width="0.0230" height="0.0159" x="0.6891" y="0.0975"/></g><g stroke-width="0.0" stroke="none" fill="rgb(5%, 5%, 5%)" fill-opacity="1.0" font-size="0.0138" text-anchor="start"><text x="0.3383" y="0.0865">DPLL</text></g><g stroke-width="0" stroke="rgb(2%, 29%, 48%)" stroke-opacity="1.0" fill="rgb(17%, 40%, 67%)" fill-opacity="1.0"><rect width="0.0230" height="0.0159" x="0.6891" y="0.0762"/></g><g stroke-width="0.0" stroke="none" fill="rgb(5%, 5%, 5%)" fill-opacity="1.0" font-size="0.0138" text-anchor="start"><text x="0.3383" y="0.0653">CDCL (α = 0.95, mVISDS, LubyRestart(100, 2)), Baseline</text></g><g stroke-width="0.0002" stroke="rgb(62%, 0%, 31%)" stroke-opacity="1.0" fill="rgb(62%, 0%, 31%)" fill-opacity="0.25"><rect width="0.0230" height="0.0159" x="0.6891" y="0.0550"/></g><g stroke-width="0.0" stroke="none" fill="rgb(5%, 5%, 5%)" fill-opacity="1.0" font-size="0.0138" text-anchor="start"><text x="0.3383" y="0.0441">CDCL (α = 0.95, mVISDS, LubyRestart(100, 2))</text></g><g stroke-width="0" stroke="rgb(2%, 29%, 48%)" stroke-opacity="1.0" fill="rgb(62%, 0%, 31%)" fill-opacity="1.0"><rect width="0.0230" height="0.0159" x="0.6891" y="0.0338"/></g><g stroke-width="0.0" stroke="none" fill="rgb(5%, 5%, 5%)" fill-opacity="1.0" font-size="0.0138" text-anchor="start"><text x="0.3383" y="0.0229">CDCL (α = 0.95, mVISDS, ExpRestart(100, 2)), Baseline</text></g><g stroke-width="0.0002" stroke="rgb(91%, 47%, 0%)" stroke-opacity="1.0" fill="rgb(91%, 47%, 0%)" fill-opacity="0.25"><rect width="0.0230" height="0.0159" x="0.6891" y="0.0126"/></g><g stroke-width="0.0" stroke="none" fill="rgb(5%, 5%, 5%)" fill-opacity="1.0" font-size="0.0138" text-anchor="start"><text x="0.3383" y="0.0017">CDCL (α = 0.95, mVISDS, ExpRestart(100, 2))</text></g><g stroke-width="0" stroke="rgb(2%, 29%, 48%)" stroke-opacity="1.0" fill="rgb(91%, 47%, 0%)" fill-opacity="1.0"><rect width="0.0230" height="0.0159" x="0.6891" y="-0.0087"/></g><g stroke-width="0.0" stroke="none" fill="rgb(5%, 5%, 5%)" fill-opacity="1.0" font-size="0.0138" text-anchor="start"><text x="0.3383" y="-0.0196">CDCL (α = 0.95, mVISDS), Baseline</text></g><g stroke-width="0.0002" stroke="rgb(0%, 64%, 70%)" stroke-opacity="1.0" fill="rgb(0%, 64%, 70%)" fill-opacity="0.25"><rect width="0.0230" height="0.0159" x="0.6891" y="-0.0299"/></g><g stroke-width="0.0" stroke="none" fill="rgb(5%, 5%, 5%)" fill-opacity="1.0" font-size="0.0138" text-anchor="start"><text x="0.3383" y="-0.0408">CDCL (α = 0.95, mVISDS)</text></g><g stroke-width="0" stroke="rgb(2%, 29%, 48%)" stroke-opacity="1.0" fill="rgb(0%, 64%, 70%)" fill-opacity="1.0"><rect width="0.0230" height="0.0159" x="0.6891" y="-0.0511"/></g><g stroke-width="0.0" stroke="none" fill="rgb(5%, 5%, 5%)" fill-opacity="1.0" font-size="0.0138" text-anchor="start"><text x="0.3383" y="-0.0620">CDCL (α = 0.95), Baseline</text></g><g stroke-width="0.0002" stroke="rgb(91%, 19%, 0%)" stroke-opacity="1.0" fill="rgb(91%, 19%, 0%)" fill-opacity="0.25"><rect width="0.0230" height="0.0159" x="0.6891" y="-0.0723"/></g><g stroke-width="0.0" stroke="none" fill="rgb(5%, 5%, 5%)" fill-opacity="1.0" font-size="0.0138" text-anchor="start"><text x="0.3383" y="-0.0832">CDCL (α = 0.95)</text></g><g stroke-width="0" stroke="rgb(2%, 29%, 48%)" stroke-opacity="1.0" fill="rgb(91%, 19%, 0%)" fill-opacity="1.0"><rect width="0.0230" height="0.0159" x="0.6891" y="-0.0936"/></g><g stroke-width="0.0" stroke="none" fill="rgb(5%, 5%, 5%)" fill-opacity="1.0" font-size="0.0138" text-anchor="start"><text x="0.3383" y="-0.1044">CDCL (α = 0.75, mVISDS, LubyRestart(100, 2)), Baseline</text></g><g stroke-width="0.0002" stroke="rgb(38%, 23%, 0%)" stroke-opacity="1.0" fill="rgb(38%, 23%, 0%)" fill-opacity="0.25"><rect width="0.0230" height="0.0159" x="0.6891" y="-0.1148"/></g><g stroke-width="0.0" stroke="none" fill="rgb(5%, 5%, 5%)" fill-opacity="1.0" font-size="0.0138" text-anchor="start"><text x="0.3383" y="-0.1257">CDCL (α = 0.75, mVISDS, LubyRestart(100, 2))</text></g><g stroke-width="0" stroke="rgb(2%, 29%, 48%)" stroke-opacity="1.0" fill="rgb(38%, 23%, 0%)" fill-opacity="1.0"><rect width="0.0230" height="0.0159" x="0.6891" y="-0.1360"/></g><g stroke-width="0.0" stroke="none" fill="rgb(5%, 5%, 5%)" fill-opacity="1.0" font-size="0.0138" text-anchor="start"><text x="0.3383" y="-0.1469">CDCL (α = 0.75, mVISDS, ExpRestart(100, 2)), Baseline</text></g><g stroke-width="0.0002" stroke="rgb(90%, 37%, 58%)" stroke-opacity="1.0" fill="rgb(90%, 37%, 58%)" fill-opacity="0.25"><rect width="0.0230" height="0.0159" x="0.6891" y="-0.1572"/></g><g stroke-width="0.0" stroke="none" fill="rgb(5%, 5%, 5%)" fill-opacity="1.0" font-size="0.0138" text-anchor="start"><text x="0.3383" y="-0.1681">CDCL (α = 0.75, mVISDS, ExpRestart(100, 2))</text></g><g stroke-width="0" stroke="rgb(2%, 29%, 48%)" stroke-opacity="1.0" fill="rgb(90%, 37%, 58%)" fill-opacity="1.0"><rect width="0.0230" height="0.0159" x="0.6891" y="-0.1785"/></g><g stroke-width="0.0" stroke="none" fill="rgb(5%, 5%, 5%)" fill-opacity="1.0" font-size="0.0138" text-anchor="start"><text x="0.3383" y="-0.1893">CDCL (α = 0.75, mVISDS), Baseline</text></g><g stroke-width="0.0002" stroke="rgb(0%, 72%, 98%)" stroke-opacity="1.0" fill="rgb(0%, 72%, 98%)" fill-opacity="0.25"><rect width="0.0230" height="0.0159" x="0.6891" y="-0.1997"/></g><g stroke-width="0.0" stroke="none" fill="rgb(5%, 5%, 5%)" fill-opacity="1.0" font-size="0.0138" text-anchor="start"><text x="0.3383" y="-0.2106">CDCL (α = 0.75, mVISDS)</text></g><g stroke-width="0" stroke="rgb(2%, 29%, 48%)" stroke-opacity="1.0" fill="rgb(0%, 72%, 98%)" fill-opacity="1.0"><rect width="0.0230" height="0.0159" x="0.6891" y="-0.2209"/></g><g stroke-width="0.0" stroke="none" fill="rgb(5%, 5%, 5%)" fill-opacity="1.0" font-size="0.0138" text-anchor="start"><text x="0.3383" y="-0.2318">CDCL (α = 0.75), Baseline</text></g><g stroke-width="0.0002" stroke="rgb(1%, 28%, 43%)" stroke-opacity="1.0" fill="rgb(1%, 28%, 43%)" fill-opacity="0.25"><rect width="0.0230" height="0.0159" x="0.6891" y="-0.2421"/></g><g stroke-width="0.0" stroke="none" fill="rgb(5%, 5%, 5%)" fill-opacity="1.0" font-size="0.0138" text-anchor="start"><text x="0.3383" y="-0.2530">CDCL (α = 0.75)</text></g><g stroke-width="0" stroke="rgb(2%, 29%, 48%)" stroke-opacity="1.0" fill="rgb(1%, 28%, 43%)" fill-opacity="1.0"><rect width="0.0230" height="0.0159" x="0.6891" y="-0.2633"/></g><g stroke-width="0.0" stroke="none" fill="rgb(5%, 5%, 5%)" fill-opacity="1.0" font-size="0.0138" text-anchor="start"><text x="0.3383" y="-0.2742">CDCL (adaptive, mVSIDS), Baseline</text></g><g stroke-width="0.0002" stroke="rgb(26%, 54%, 57%)" stroke-opacity="1.0" fill="rgb(26%, 54%, 57%)" fill-opacity="0.25"><rect width="0.0230" height="0.0159" x="0.6891" y="-0.2846"/></g><g stroke-width="0.0" stroke="none" fill="rgb(5%, 5%, 5%)" fill-opacity="1.0" font-size="0.0138" text-anchor="start"><text x="0.3383" y="-0.2955">CDCL (adaptive, mVSIDS)</text></g><g stroke-width="0" stroke="rgb(2%, 29%, 48%)" stroke-opacity="1.0" fill="rgb(26%, 54%, 57%)" fill-opacity="1.0"><rect width="0.0230" height="0.0159" x="0.6891" y="-0.3058"/></g><g stroke-width="0.0" stroke="none" fill="rgb(5%, 5%, 5%)" fill-opacity="1.0" font-size="0.0138" text-anchor="start"><text x="0.3383" y="-0.3167">CDCL (adaptive, mVISDS, LubyRestart(100, 2)), Baseline</text></g><g stroke-width="0.0002" stroke="rgb(0%, 25%, 37%)" stroke-opacity="1.0" fill="rgb(0%, 25%, 37%)" fill-opacity="0.25"><rect width="0.0230" height="0.0159" x="0.6891" y="-0.3270"/></g><g stroke-width="0.0" stroke="none" fill="rgb(5%, 5%, 5%)" fill-opacity="1.0" font-size="0.0138" text-anchor="start"><text x="0.3383" y="-0.3379">CDCL (adaptive, mVISDS, LubyRestart(100, 2))</text></g><g stroke-width="0" stroke="rgb(2%, 29%, 48%)" stroke-opacity="1.0" fill="rgb(0%, 25%, 37%)" fill-opacity="1.0"><rect width="0.0230" height="0.0159" x="0.6891" y="-0.3482"/></g><g stroke-width="0.0" stroke="none" fill="rgb(5%, 5%, 5%)" fill-opacity="1.0" font-size="0.0138" text-anchor="start"><text x="0.3383" y="-0.3591">CDCL (adaptive, mVISDS, ExpRestart(100, 2)), Baseline</text></g><g stroke-width="0.0002" stroke="rgb(0%, 30%, 12%)" stroke-opacity="1.0" fill="rgb(0%, 30%, 12%)" fill-opacity="0.25"><rect width="0.0230" height="0.0159" x="0.6891" y="-0.3694"/></g><g stroke-width="0.0" stroke="none" fill="rgb(5%, 5%, 5%)" fill-opacity="1.0" font-size="0.0138" text-anchor="start"><text x="0.3383" y="-0.3804">CDCL (adaptive, mVISDS, ExpRestart(100, 2))</text></g><g stroke-width="0" stroke="rgb(2%, 29%, 48%)" stroke-opacity="1.0" fill="rgb(0%, 30%, 12%)" fill-opacity="1.0"><rect width="0.0230" height="0.0159" x="0.6891" y="-0.3907"/></g><g stroke-width="0.0" stroke="none" fill="rgb(5%, 5%, 5%)" fill-opacity="1.0" font-size="0.0138" text-anchor="start"><text x="0.3383" y="-0.4016">CDCL (adaptive), Baseline</text></g><g stroke-width="0.0002" stroke="rgb(8%, 16%, 42%)" stroke-opacity="1.0" fill="rgb(8%, 16%, 42%)" fill-opacity="0.25"><rect width="0.0230" height="0.0159" x="0.6891" y="-0.4119"/></g><g stroke-width="0.0" stroke="none" fill="rgb(5%, 5%, 5%)" fill-opacity="1.0" font-size="0.0138" text-anchor="start"><text x="0.3383" y="-0.4228">CDCL (adaptive)</text></g><g stroke-width="0" stroke="rgb(2%, 29%, 48%)" stroke-opacity="1.0" fill="rgb(8%, 16%, 42%)" fill-opacity="1.0"><rect width="0.0230" height="0.0159" x="0.6891" y="-0.4331"/></g></g></g><g class="frame"><g stroke-width="0" stroke="rgb(0%, 0%, 0%)" stroke-opacity="0" fill="rgb(100%, 100%, 100%)" fill-opacity="0.02"><rect width="1.6180" height="1.0" x="-0.8090" y="-0.5"/></g></g><g class="title"><g stroke-width="0.0" stroke="none" fill="rgb(5%, 5%, 5%)" fill-opacity="1.0" font-size="0.0263" text-anchor="middle"><text x="-0.7468" y="0" transform="rotate(-90.0, -0.7468, 0)">Time [ms]</text></g></g></g></svg>