<svg xmlns="http://www.w3.org/2000/svg" xmlns:xlink="http://www.w3.org/1999/xlink" width="485" height="300" viewBox="-0.8090 -0.5 1.6180 1.0"><style>svg {
  color-scheme: light dark;
}
{
  .canvas g, .title g, .axisbar g, .ticktext g, .tickglyph g, .ticklines g, .legendContent g text {
    fill: rgb(5%, 5%, 5%);
  }
  .ticklines g, .tickglyph g, .legendBorder g {
    stroke: rgb(5%, 5%, 5%);
  }
  .legendBorder g {
    fill: rgb(94%, 94%, 94%);
  }
}
@media (prefers-color-scheme:dark) {
  .canvas g, .title g, .axisbar g, .ticktext g, .tickglyph g, .ticklines g, .legendContent g text {
    fill: rgb(94%, 94%, 94%);
  }
  .ticklines g, .tickglyph g, .legendBorder g {
    stroke: rgb(94%, 94%, 94%);
  }
  .legendBorder g {
    fill: rgb(5%, 5%, 5%);
  }
}</style><g class="chart"><g class="barchart"><g stroke-width="0" stroke="rgb(2%, 29%, 48%)" stroke-opacity="1.0" fill="rgb(0%, 30%, 12%)" fill-opacity="1.0"><rect width="0.0567" height="0.0318" x="-0.4341" y="0.0502"/></g><g stroke-width="0" stroke="rgb(2%, 29%, 48%)" stroke-opacity="1.0" fill="rgb(0%, 25%, 37%)" fill-opacity="1.0"><rect width="0.0567" height="0.1688" x="-0.3774" y="-0.0868"/></g><g stroke-width="0" stroke="rgb(2%, 29%, 48%)" stroke-opacity="1.0" fill="rgb(26%, 54%, 57%)" fill-opacity="1.0"><rect width="0.0567" height="0.1720" x="-0.3207" y="-0.0900"/></g><g stroke-width="0" stroke="rgb(2%, 29%, 48%)" stroke-opacity="1.0" fill="rgb(1%, 28%, 43%)" fill-opacity="1.0"><rect width="0.0567" height="0.0460" x="-0.2640" y="0.0361"/></g><g stroke-width="0" stroke="rgb(2%, 29%, 48%)" stroke-opacity="1.0" fill="rgb(0%, 72%, 98%)" fill-opacity="1.0"><rect width="0.0567" height="0.0708" x="-0.2073" y="0.0113"/></g><g stroke-width="0" stroke="rgb(2%, 29%, 48%)" stroke-opacity="1.0" fill="rgb(90%, 37%, 58%)" fill-opacity="1.0"><rect width="0.0567" height="0.0617" x="-0.1506" y="0.0203"/></g><g stroke-width="0" stroke="rgb(2%, 29%, 48%)" stroke-opacity="1.0" fill="rgb(38%, 23%, 0%)" fill-opacity="1.0"><rect width="0.0567" height="0.4119" x="-0.0939" y="-0.3298"/></g><g stroke-width="0" stroke="rgb(2%, 29%, 48%)" stroke-opacity="1.0" fill="rgb(91%, 19%, 0%)" fill-opacity="1.0"><rect width="0.0567" height="0.4063" x="-0.0371" y="-0.3243"/></g><g stroke-width="0" stroke="rgb(2%, 29%, 48%)" stroke-opacity="1.0" fill="rgb(0%, 64%, 70%)" fill-opacity="1.0"><rect width="0.0567" height="0.0343" x="0.0196" y="0.0477"/></g><g stroke-width="0" stroke="rgb(2%, 29%, 48%)" stroke-opacity="1.0" fill="rgb(91%, 47%, 0%)" fill-opacity="1.0"><rect width="0.0567" height="0.0637" x="0.0763" y="0.0183"/></g><g stroke-width="0" stroke="rgb(2%, 29%, 48%)" stroke-opacity="1.0" fill="rgb(62%, 0%, 31%)" fill-opacity="1.0"><rect width="0.0567" height="0.0844" x="0.1330" y="-0.0023"/></g><g stroke-width="0" stroke="rgb(2%, 29%, 48%)" stroke-opacity="1.0" fill="rgb(17%, 40%, 67%)" fill-opacity="1.0"><rect width="0.0567" height="0.0841" x="0.1897" y="-0.0021"/></g></g><g class="errors"></g></g><g class="hud"><g class="axis"><g class="ticks"><g class="tickglyph"><g stroke-width="0.0040" stroke="rgb(5%, 5%, 5%)" stroke-opacity="0.4" fill="rgb(5%, 5%, 5%)" fill-opacity="0.4"><g transform="rotate(-90.0, -0.4859, 0.0820)"><polyline points="-0.4859,0.0970
-0.4859,0.0670"/></g><g transform="rotate(-90.0, -0.4859, 0.0404)"><polyline points="-0.4859,0.0554
-0.4859,0.0254"/></g><g transform="rotate(-90.0, -0.4859, -0.0012)"><polyline points="-0.4859,0.0138
-0.4859,-0.0162"/></g><g transform="rotate(-90.0, -0.4859, -0.0429)"><polyline points="-0.4859,-0.0279
-0.4859,-0.0579"/></g><g transform="rotate(-90.0, -0.4859, -0.0845)"><polyline points="-0.4859,-0.0695
-0.4859,-0.0995"/></g><g transform="rotate(-90.0, -0.4859, -0.1261)"><polyline points="-0.4859,-0.1111
-0.4859,-0.1411"/></g><g transform="rotate(-90.0, -0.4859, -0.1677)"><polyline points="-0.4859,-0.1527
-0.4859,-0.1827"/></g><g transform="rotate(-90.0, -0.4859, -0.2094)"><polyline points="-0.4859,-0.1944
-0.4859,-0.2244"/></g><g transform="rotate(-90.0, -0.4859, -0.2510)"><polyline points="-0.4859,-0.2360
-0.4859,-0.2660"/></g><g transform="rotate(-90.0, -0.4859, -0.2926)"><polyline points="-0.4859,-0.2776
-0.4859,-0.3076"/></g><g transform="rotate(-90.0, -0.4859, -0.3342)"><polyline points="-0.4859,-0.3192
-0.4859,-0.3492"/></g></g></g><g class="ticktext"><g stroke-width="0.0" stroke="none" fill="rgb(5%, 5%, 5%)" fill-opacity="1.0" font-size="0.0234" text-anchor="end"><text x="-0.5027" y="0.0877">  0</text><text x="-0.5027" y="0.0461"> 20</text><text x="-0.5027" y="0.0045"> 40</text><text x="-0.5027" y="-0.0371"> 60</text><text x="-0.5027" y="-0.0788"> 80</text><text x="-0.5027" y="-0.1204">100</text><text x="-0.5027" y="-0.1620">120</text><text x="-0.5027" y="-0.2036">140</text><text x="-0.5027" y="-0.2453">160</text><text x="-0.5027" y="-0.2869">180</text><text x="-0.5027" y="-0.3285">200</text></g></g><g class="ticklines"><g stroke-width="0.0050" stroke="rgb(5%, 5%, 5%)" stroke-opacity="0.05" fill="none"><polyline points="-0.4719,0.0820 0.2842,0.0820"/><polyline points="-0.4719,0.0404 0.2842,0.0404"/><polyline points="-0.4719,-0.0012 0.2842,-0.0012"/><polyline points="-0.4719,-0.0429 0.2842,-0.0429"/><polyline points="-0.4719,-0.0845 0.2842,-0.0845"/><polyline points="-0.4719,-0.1261 0.2842,-0.1261"/><polyline points="-0.4719,-0.1677 0.2842,-0.1677"/><polyline points="-0.4719,-0.2094 0.2842,-0.2094"/><polyline points="-0.4719,-0.2510 0.2842,-0.2510"/><polyline points="-0.4719,-0.2926 0.2842,-0.2926"/><polyline points="-0.4719,-0.3342 0.2842,-0.3342"/></g></g></g><g class="axisbar"><g stroke-width="0" stroke="rgb(0%, 0%, 0%)" stroke-opacity="0" fill="rgb(5%, 5%, 5%)" fill-opacity="0.4"><rect width="0.0019" height="0.4179" x="-0.4784" y="-0.3351"/></g></g></g><g class="axis"><g class="ticks"><g class="tickglyph"><g stroke-width="0.0040" stroke="rgb(5%, 5%, 5%)" stroke-opacity="0.4" fill="rgb(5%, 5%, 5%)" fill-opacity="0.4"><polyline points="-0.4057,0.1095
-0.4057,0.0795"/><polyline points="-0.3490,0.1095
-0.3490,0.0795"/><polyline points="-0.2923,0.1095
-0.2923,0.0795"/><polyline points="-0.2356,0.1095
-0.2356,0.0795"/><polyline points="-0.1789,0.1095
-0.1789,0.0795"/><polyline points="-0.1222,0.1095
-0.1222,0.0795"/><polyline points="-0.0655,0.1095
-0.0655,0.0795"/><polyline points="-0.0088,0.1095
-0.0088,0.0795"/><polyline points="0.0479,0.1095
0.0479,0.0795"/><polyline points="0.1046,0.1095
0.1046,0.0795"/><polyline points="0.1613,0.1095
0.1613,0.0795"/><polyline points="0.2180,0.1095
0.2180,0.0795"/></g></g><g class="ticktext"><g stroke-width="0.0" stroke="none" fill="rgb(5%, 5%, 5%)" fill-opacity="1.0" font-size="0.0234" text-anchor="end"><text x="-0.4057" y="0.1209" transform="rotate(-45.0, -0.4057, 0.1209)">CDCL (adaptive)</text><text x="-0.3490" y="0.1209" transform="rotate(-45.0, -0.3490, 0.1209)">CDCL (adaptive, mVISDS, ExpRestart(100, 2))</text><text x="-0.2923" y="0.1209" transform="rotate(-45.0, -0.2923, 0.1209)">CDCL (adaptive, mVISDS, LubyRestart(100, 2))</text><text x="-0.2356" y="0.1209" transform="rotate(-45.0, -0.2356, 0.1209)">CDCL (adaptive, mVSIDS)</text><text x="-0.1789" y="0.1209" transform="rotate(-45.0, -0.1789, 0.1209)">CDCL (α = 0.75)</text><text x="-0.1222" y="0.1209" transform="rotate(-45.0, -0.1222, 0.1209)">CDCL (α = 0.75, mVISDS)</text><text x="-0.0655" y="0.1209" transform="rotate(-45.0, -0.0655, 0.1209)">CDCL (α = 0.75, mVISDS, ExpRestart(100, 2))</text><text x="-0.0088" y="0.1209" transform="rotate(-45.0, -0.0088, 0.1209)">CDCL (α = 0.75, mVISDS, LubyRestart(100, 2))</text><text x="0.0479" y="0.1209" transform="rotate(-45.0, 0.0479, 0.1209)">CDCL (α = 0.95)</text><text x="0.1046" y="0.1209" transform="rotate(-45.0, 0.1046, 0.1209)">CDCL (α = 0.95, mVISDS)</text><text x="0.1613" y="0.1209" transform="rotate(-45.0, 0.1613, 0.1209)">CDCL (α = 0.95, mVISDS, ExpRestart(100, 2))</text><text x="0.2180" y="0.1209" transform="rotate(-45.0, 0.2180, 0.1209)">CDCL (α = 0.95, mVISDS, LubyRestart(100, 2))</text></g></g></g><g class="axisbar"><g stroke-width="0" stroke="rgb(0%, 0%, 0%)" stroke-opacity="0" fill="rgb(5%, 5%, 5%)" fill-opacity="0.4"><rect width="0.7579" height="0.0017" x="-0.4728" y="0.0862"/></g></g></g><g class="title"><g stroke-width="0.0" stroke="none" fill="rgb(5%, 5%, 5%)" fill-opacity="1.0" font-size="0.0561" text-anchor="middle"><text x="-0.1983" y="-0.3768">Copied: SATLIB/flat200-479/flat200-10/cnf</text></g></g><g class="legend"><g class="legendBorder"><g stroke-width="0.0017" stroke="rgb(5%, 5%, 5%)" stroke-opacity="1.0" fill="rgb(5%, 5%, 5%)" fill-opacity="0"><rect width="0.3487" height="0.3569" x="0.3652" y="-0.2567"/></g></g><g class="legendContent"><g stroke-width="0.0" stroke="none" fill="rgb(5%, 5%, 5%)" fill-opacity="1.0" font-size="0.0147" text-anchor="start"><text x="0.3734" y="0.0853">CDCL (α = 0.95, mVISDS, LubyRestart(100, 2))</text></g><g stroke-width="0" stroke="rgb(2%, 29%, 48%)" stroke-opacity="1.0" fill="rgb(17%, 40%, 67%)" fill-opacity="1.0"><rect width="0.0245" height="0.0219" x="0.6812" y="0.0711"/></g><g stroke-width="0.0" stroke="none" fill="rgb(5%, 5%, 5%)" fill-opacity="1.0" font-size="0.0147" text-anchor="start"><text x="0.3734" y="0.0562">CDCL (α = 0.95, mVISDS, ExpRestart(100, 2))</text></g><g stroke-width="0" stroke="rgb(2%, 29%, 48%)" stroke-opacity="1.0" fill="rgb(62%, 0%, 31%)" fill-opacity="1.0"><rect width="0.0245" height="0.0219" x="0.6812" y="0.0420"/></g><g stroke-width="0.0" stroke="none" fill="rgb(5%, 5%, 5%)" fill-opacity="1.0" font-size="0.0147" text-anchor="start"><text x="0.3734" y="0.0270">CDCL (α = 0.95, mVISDS)</text></g><g stroke-width="0" stroke="rgb(2%, 29%, 48%)" stroke-opacity="1.0" fill="rgb(91%, 47%, 0%)" fill-opacity="1.0"><rect width="0.0245" height="0.0219" x="0.6812" y="0.0128"/></g><g stroke-width="0.0" stroke="none" fill="rgb(5%, 5%, 5%)" fill-opacity="1.0" font-size="0.0147" text-anchor="start"><text x="0.3734" y="-0.0021">CDCL (α = 0.95)</text></g><g stroke-width="0" stroke="rgb(2%, 29%, 48%)" stroke-opacity="1.0" fill="rgb(0%, 64%, 70%)" fill-opacity="1.0"><rect width="0.0245" height="0.0219" x="0.6812" y="-0.0163"/></g><g stroke-width="0.0" stroke="none" fill="rgb(5%, 5%, 5%)" fill-opacity="1.0" font-size="0.0147" text-anchor="start"><text x="0.3734" y="-0.0312">CDCL (α = 0.75, mVISDS, LubyRestart(100, 2))</text></g><g stroke-width="0" stroke="rgb(2%, 29%, 48%)" stroke-opacity="1.0" fill="rgb(91%, 19%, 0%)" fill-opacity="1.0"><rect width="0.0245" height="0.0219" x="0.6812" y="-0.0455"/></g><g stroke-width="0.0" stroke="none" fill="rgb(5%, 5%, 5%)" fill-opacity="1.0" font-size="0.0147" text-anchor="start"><text x="0.3734" y="-0.0604">CDCL (α = 0.75, mVISDS, ExpRestart(100, 2))</text></g><g stroke-width="0" stroke="rgb(2%, 29%, 48%)" stroke-opacity="1.0" fill="rgb(38%, 23%, 0%)" fill-opacity="1.0"><rect width="0.0245" height="0.0219" x="0.6812" y="-0.0746"/></g><g stroke-width="0.0" stroke="none" fill="rgb(5%, 5%, 5%)" fill-opacity="1.0" font-size="0.0147" text-anchor="start"><text x="0.3734" y="-0.0895">CDCL (α = 0.75, mVISDS)</text></g><g stroke-width="0" stroke="rgb(2%, 29%, 48%)" stroke-opacity="1.0" fill="rgb(90%, 37%, 58%)" fill-opacity="1.0"><rect width="0.0245" height="0.0219" x="0.6812" y="-0.1037"/></g><g stroke-width="0.0" stroke="none" fill="rgb(5%, 5%, 5%)" fill-opacity="1.0" font-size="0.0147" text-anchor="start"><text x="0.3734" y="-0.1187">CDCL (α = 0.75)</text></g><g stroke-width="0" stroke="rgb(2%, 29%, 48%)" stroke-opacity="1.0" fill="rgb(0%, 72%, 98%)" fill-opacity="1.0"><rect width="0.0245" height="0.0219" x="0.6812" y="-0.1329"/></g><g stroke-width="0.0" stroke="none" fill="rgb(5%, 5%, 5%)" fill-opacity="1.0" font-size="0.0147" text-anchor="start"><text x="0.3734" y="-0.1478">CDCL (adaptive, mVSIDS)</text></g><g stroke-width="0" stroke="rgb(2%, 29%, 48%)" stroke-opacity="1.0" fill="rgb(1%, 28%, 43%)" fill-opacity="1.0"><rect width="0.0245" height="0.0219" x="0.6812" y="-0.1620"/></g><g stroke-width="0.0" stroke="none" fill="rgb(5%, 5%, 5%)" fill-opacity="1.0" font-size="0.0147" text-anchor="start"><text x="0.3734" y="-0.1769">CDCL (adaptive, mVISDS, LubyRestart(100, 2))</text></g><g stroke-width="0" stroke="rgb(2%, 29%, 48%)" stroke-opacity="1.0" fill="rgb(26%, 54%, 57%)" fill-opacity="1.0"><rect width="0.0245" height="0.0219" x="0.6812" y="-0.1911"/></g><g stroke-width="0.0" stroke="none" fill="rgb(5%, 5%, 5%)" fill-opacity="1.0" font-size="0.0147" text-anchor="start"><text x="0.3734" y="-0.2061">CDCL (adaptive, mVISDS, ExpRestart(100, 2))</text></g><g stroke-width="0" stroke="rgb(2%, 29%, 48%)" stroke-opacity="1.0" fill="rgb(0%, 25%, 37%)" fill-opacity="1.0"><rect width="0.0245" height="0.0219" x="0.6812" y="-0.2203"/></g><g stroke-width="0.0" stroke="none" fill="rgb(5%, 5%, 5%)" fill-opacity="1.0" font-size="0.0147" text-anchor="start"><text x="0.3734" y="-0.2352">CDCL (adaptive)</text></g><g stroke-width="0" stroke="rgb(2%, 29%, 48%)" stroke-opacity="1.0" fill="rgb(0%, 30%, 12%)" fill-opacity="1.0"><rect width="0.0245" height="0.0219" x="0.6812" y="-0.2494"/></g></g></g><g class="frame"><g stroke-width="0" stroke="rgb(0%, 0%, 0%)" stroke-opacity="0" fill="rgb(100%, 100%, 100%)" fill-opacity="0.02"><rect width="1.6180" height="1.0" x="-0.8090" y="-0.5"/></g></g><g class="title"><g stroke-width="0.0" stroke="none" fill="rgb(5%, 5%, 5%)" fill-opacity="1.0" font-size="0.0280" text-anchor="middle"><text x="-0.7427" y="0" transform="rotate(-90.0, -0.7427, 0)">Copied [MiB]</text></g></g></g></svg>