<svg xmlns="http://www.w3.org/2000/svg" xmlns:xlink="http://www.w3.org/1999/xlink" width="506" height="300" viewBox="-1.2900 -0.5 2.304 1.3645"><style>svg {color-scheme: light dark;} {.canvas g, .title g, .axisbar g, .ticktext g, .tickglyph g, .ticklines g, .legendContent g text {fill: rgb(5%, 5%, 5%);} .ticklines g, .tickglyph g, .legendBorder g {stroke: rgb(5%, 5%, 5%);} .legendBorder g {fill: rgb(94%, 94%, 94%);}} @media (prefers-color-scheme:dark) {.canvas g, .title g, .axisbar g, .ticktext g, .tickglyph g, .ticklines g, .legendContent g text {fill: rgb(94%, 94%, 94%);} .ticklines g, .tickglyph g, .legendBorder g {stroke: rgb(94%, 94%, 94%);} .legendBorder g {fill: rgb(5%, 5%, 5%);}}
svg { font-family: system-ui,-apple-system,"Segoe UI",Roboto,"Helvetica Neue",Arial,"Noto Sans","Liberation Sans",sans-serif,"Apple Color Emoji","Segoe UI Emoji","Segoe UI Symbol","Noto Color Emoji";
}

ticktext { font-family: SFMono-Regular,Menlo,Monaco,Consolas,"Liberation Mono","Courier New",monospace;}</style><g class="chart"><g class="barchart"><g stroke-width="0" stroke="rgb(2%, 29%, 48%)" stroke-opacity="1.0" fill="rgb(0%, 68%, 84%)" fill-opacity="1.0"><rect width="0.0669" height="0.0134" x="-0.4036" y="-0.1414"/></g><g stroke-width="0" stroke="rgb(2%, 29%, 48%)" stroke-opacity="1.0" fill="rgb(31%, 35%, 20%)" fill-opacity="1.0"><rect width="0.0669" height="0.0133" x="-0.3367" y="-0.1412"/></g><g stroke-width="0" stroke="rgb(2%, 29%, 48%)" stroke-opacity="1.0" fill="rgb(82%, 47%, 0%)" fill-opacity="1.0"><rect width="0.0669" height="0.0135" x="-0.2698" y="-0.1414"/></g><g stroke-width="0" stroke="rgb(2%, 29%, 48%)" stroke-opacity="1.0" fill="rgb(58%, 33%, 58%)" fill-opacity="1.0"><rect width="0.0669" height="0.0134" x="-0.2029" y="-0.1413"/></g><g stroke-width="0" stroke="rgb(2%, 29%, 48%)" stroke-opacity="1.0" fill="rgb(69%, 48%, 50%)" fill-opacity="1.0"><rect width="0.0669" height="0.0135" x="-0.1360" y="-0.1415"/></g><g stroke-width="0" stroke="rgb(2%, 29%, 48%)" stroke-opacity="1.0" fill="rgb(44%, 21%, 47%)" fill-opacity="1.0"><rect width="0.0669" height="0.0134" x="-0.0690" y="-0.1414"/></g><g stroke-width="0" stroke="rgb(2%, 29%, 48%)" stroke-opacity="1.0" fill="rgb(22%, 70%, 43%)" fill-opacity="1.0"><rect width="0.0669" height="0.0136" x="-0.0021" y="-0.1415"/></g><g stroke-width="0" stroke="rgb(2%, 29%, 48%)" stroke-opacity="1.0" fill="rgb(13%, 40%, 0%)" fill-opacity="1.0"><rect width="0.0669" height="0.0136" x="0.0648" y="-0.1416"/></g><g stroke-width="0" stroke="rgb(2%, 29%, 48%)" stroke-opacity="1.0" fill="rgb(24%, 31%, 12%)" fill-opacity="1.0"><rect width="0.0669" height="0.0135" x="0.1317" y="-0.1415"/></g><g stroke-width="0" stroke="rgb(2%, 29%, 48%)" stroke-opacity="1.0" fill="rgb(73%, 50%, 48%)" fill-opacity="1.0"><rect width="0.0669" height="0.0134" x="0.1986" y="-0.1414"/></g><g stroke-width="0" stroke="rgb(2%, 29%, 48%)" stroke-opacity="1.0" fill="rgb(46%, 11%, 0%)" fill-opacity="1.0"><rect width="0.0669" height="0.0135" x="0.2656" y="-0.1415"/></g><g stroke-width="0" stroke="rgb(2%, 29%, 48%)" stroke-opacity="1.0" fill="rgb(39%, 42%, 73%)" fill-opacity="1.0"><rect width="0.0669" height="0.0136" x="0.3325" y="-0.1416"/></g></g><g class="errors"><g stroke-width="0.0015" stroke="rgb(5%, 5%, 5%)" stroke-opacity="1.0" fill="none"><polyline points="-0.3769,0.0468 -0.3635,0.0468"/><polyline points="-0.3702,0.0468 -0.3702,-0.3295"/><polyline points="-0.3769,-0.3295 -0.3635,-0.3295"/></g><g stroke-width="0.0015" stroke="rgb(5%, 5%, 5%)" stroke-opacity="1.0" fill="none"><polyline points="-0.3100,0.0474 -0.2966,0.0474"/><polyline points="-0.3033,0.0474 -0.3033,-0.3298"/><polyline points="-0.3100,-0.3298 -0.2966,-0.3298"/></g><g stroke-width="0.0015" stroke="rgb(5%, 5%, 5%)" stroke-opacity="1.0" fill="none"><polyline points="-0.2430,0.0039 -0.2296,0.0039"/><polyline points="-0.2363,0.0039 -0.2363,-0.2867"/><polyline points="-0.2430,-0.2867 -0.2296,-0.2867"/></g><g stroke-width="0.0015" stroke="rgb(5%, 5%, 5%)" stroke-opacity="1.0" fill="none"><polyline points="-0.1761,-0.0474 -0.1627,-0.0474"/><polyline points="-0.1694,-0.0474 -0.1694,-0.2352"/><polyline points="-0.1761,-0.2352 -0.1627,-0.2352"/></g><g stroke-width="0.0015" stroke="rgb(5%, 5%, 5%)" stroke-opacity="1.0" fill="none"><polyline points="-0.1092,0.0226 -0.0958,0.0226"/><polyline points="-0.1025,0.0226 -0.1025,-0.3056"/><polyline points="-0.1092,-0.3056 -0.0958,-0.3056"/></g><g stroke-width="0.0015" stroke="rgb(5%, 5%, 5%)" stroke-opacity="1.0" fill="none"><polyline points="-0.0423,0.0389 -0.0289,0.0389"/><polyline points="-0.0356,0.0389 -0.0356,-0.3217"/><polyline points="-0.0423,-0.3217 -0.0289,-0.3217"/></g><g stroke-width="0.0015" stroke="rgb(5%, 5%, 5%)" stroke-opacity="1.0" fill="none"><polyline points="0.0246,0.0547 0.0380,0.0547"/><polyline points="0.0313,0.0547 0.0313,-0.3378"/><polyline points="0.0246,-0.3378 0.0380,-0.3378"/></g><g stroke-width="0.0015" stroke="rgb(5%, 5%, 5%)" stroke-opacity="1.0" fill="none"><polyline points="0.0916,-0.0150 0.1050,-0.0150"/><polyline points="0.0983,-0.0150 0.0983,-0.2682"/><polyline points="0.0916,-0.2682 0.1050,-0.2682"/></g><g stroke-width="0.0015" stroke="rgb(5%, 5%, 5%)" stroke-opacity="1.0" fill="none"><polyline points="0.1585,0.0423 0.1719,0.0423"/><polyline points="0.1652,0.0423 0.1652,-0.3253"/><polyline points="0.1585,-0.3253 0.1719,-0.3253"/></g><g stroke-width="0.0015" stroke="rgb(5%, 5%, 5%)" stroke-opacity="1.0" fill="none"><polyline points="0.2254,0.0448 0.2388,0.0448"/><polyline points="0.2321,0.0448 0.2321,-0.3276"/><polyline points="0.2254,-0.3276 0.2388,-0.3276"/></g><g stroke-width="0.0015" stroke="rgb(5%, 5%, 5%)" stroke-opacity="1.0" fill="none"><polyline points="0.2923,-0.0402 0.3057,-0.0402"/><polyline points="0.2990,-0.0402 0.2990,-0.2428"/><polyline points="0.2923,-0.2428 0.3057,-0.2428"/></g><g stroke-width="0.0015" stroke="rgb(5%, 5%, 5%)" stroke-opacity="1.0" fill="none"><polyline points="0.3592,0.0144 0.3726,0.0144"/><polyline points="0.3659,0.0144 0.3659,-0.2975"/><polyline points="0.3592,-0.2975 0.3726,-0.2975"/></g></g><g class="datapadding"></g></g><g class="hud"><g class="axis"><g class="axisbar"><g stroke-width="0" stroke="rgb(0%, 0%, 0%)" stroke-opacity="0" fill="rgb(5%, 5%, 5%)" fill-opacity="0.4"><rect width="0.8050" height="0.0016" x="-0.4046" y="0.0738"/></g></g><g class="ticks"><g class="tickglyph"><g stroke-width="0.0016" stroke="rgb(5%, 5%, 5%)" stroke-opacity="0.4" fill="rgb(5%, 5%, 5%)" fill-opacity="0.4"><polyline points="-0.3702,0.0869
-0.3702,0.0746"/><polyline points="-0.3033,0.0869
-0.3033,0.0746"/><polyline points="-0.2363,0.0869
-0.2363,0.0746"/><polyline points="-0.1694,0.0869
-0.1694,0.0746"/><polyline points="-0.1025,0.0869
-0.1025,0.0746"/><polyline points="-0.0356,0.0869
-0.0356,0.0746"/><polyline points="0.0313,0.0869
0.0313,0.0746"/><polyline points="0.0983,0.0869
0.0983,0.0746"/><polyline points="0.1652,0.0869
0.1652,0.0746"/><polyline points="0.2321,0.0869
0.2321,0.0746"/><polyline points="0.2990,0.0869
0.2990,0.0746"/><polyline points="0.3659,0.0869
0.3659,0.0746"/></g></g><g class="ticktext"><g stroke-width="0.0" stroke="none" fill="rgb(5%, 5%, 5%)" fill-opacity="1.0" font-size="0.0400" text-anchor="end"><text x="-0.3702" y="0.1094" transform="rotate(-45.0, -0.3702, 0.1094)">CDCL (adaptive)</text><text x="-0.3033" y="0.1094" transform="rotate(-45.0, -0.3033, 0.1094)">CDCL (adaptive, mVISDS, ExpRestart(100, 2))</text><text x="-0.2363" y="0.1094" transform="rotate(-45.0, -0.2363, 0.1094)">CDCL (adaptive, mVISDS, LubyRestart(100, 2))</text><text x="-0.1694" y="0.1094" transform="rotate(-45.0, -0.1694, 0.1094)">CDCL (adaptive, mVSIDS)</text><text x="-0.1025" y="0.1094" transform="rotate(-45.0, -0.1025, 0.1094)">CDCL (α = 0.75)</text><text x="-0.0356" y="0.1094" transform="rotate(-45.0, -0.0356, 0.1094)">CDCL (α = 0.75, mVISDS)</text><text x="0.0313" y="0.1094" transform="rotate(-45.0, 0.0313, 0.1094)">CDCL (α = 0.75, mVISDS, ExpRestart(100, 2))</text><text x="0.0983" y="0.1094" transform="rotate(-45.0, 0.0983, 0.1094)">CDCL (α = 0.75, mVISDS, LubyRestart(100, 2))</text><text x="0.1652" y="0.1094" transform="rotate(-45.0, 0.1652, 0.1094)">CDCL (α = 0.95)</text><text x="0.2321" y="0.1094" transform="rotate(-45.0, 0.2321, 0.1094)">CDCL (α = 0.95, mVISDS)</text><text x="0.2990" y="0.1094" transform="rotate(-45.0, 0.2990, 0.1094)">CDCL (α = 0.95, mVISDS, ExpRestart(100, 2))</text><text x="0.3659" y="0.1094" transform="rotate(-45.0, 0.3659, 0.1094)">CDCL (α = 0.95, mVISDS, LubyRestart(100, 2))</text></g></g></g></g><g class="axis"><g class="axisbar"><g stroke-width="0" stroke="rgb(0%, 0%, 0%)" stroke-opacity="0" fill="rgb(5%, 5%, 5%)" fill-opacity="0.4"><rect width="0.0020" height="0.4106" x="-0.4106" y="-0.3401"/></g></g><g class="ticks"><g class="ticklines"><g stroke-width="0.0050" stroke="rgb(5%, 5%, 5%)" stroke-opacity="0.05" fill="none"><polyline points="-0.4036,0.0697 0.3994,0.0697"/><polyline points="-0.4036,0.0015 0.3994,0.0015"/><polyline points="-0.4036,-0.0666 0.3994,-0.0666"/><polyline points="-0.4036,-0.1348 0.3994,-0.1348"/><polyline points="-0.4036,-0.2030 0.3994,-0.2030"/><polyline points="-0.4036,-0.2711 0.3994,-0.2711"/><polyline points="-0.4036,-0.3393 0.3994,-0.3393"/></g></g><g class="tickglyph"><g stroke-width="0.0020" stroke="rgb(5%, 5%, 5%)" stroke-opacity="0.4" fill="rgb(5%, 5%, 5%)" fill-opacity="0.4"><polyline points="-0.4245,0.0697
-0.4096,0.0697"/><polyline points="-0.4245,0.0015
-0.4096,0.0015"/><polyline points="-0.4245,-0.0666
-0.4096,-0.0666"/><polyline points="-0.4245,-0.1348
-0.4096,-0.1348"/><polyline points="-0.4245,-0.2030
-0.4096,-0.2030"/><polyline points="-0.4245,-0.2711
-0.4096,-0.2711"/><polyline points="-0.4245,-0.3393
-0.4096,-0.3393"/></g></g><g class="ticktext"><g stroke-width="0.0" stroke="none" fill="rgb(5%, 5%, 5%)" fill-opacity="1.0" font-size="0.0400" text-anchor="end"><text x="-0.4354" y="0.0742">-20</text><text x="-0.4354" y="0.0060">-10</text><text x="-0.4354" y="-0.0621"> -5</text><text x="-0.4354" y="-0.1303">  0</text><text x="-0.4354" y="-0.1985">  5</text><text x="-0.4354" y="-0.2666"> 10</text><text x="-0.4354" y="-0.3348"> 20</text></g></g></g></g><g class="title"><g stroke-width="0.0" stroke="none" fill="rgb(5%, 5%, 5%)" fill-opacity="1.0" font-size="0.12" text-anchor="middle"><text x="-0.1380" y="-0.3789">Time: SATLIB/uf20-91/uf20-01/cnf</text></g></g><g class="legend"><g class="padding"></g><g class="padding"></g><g class="frame"><g stroke-width="0.0004" stroke="rgb(5%, 5%, 5%)" stroke-opacity="1.0" fill="rgb(5%, 5%, 5%)" fill-opacity="0"><rect width="0.4277" height="0.3507" x="0.2804" y="-0.1057"/></g></g><g class="legendContent"><g stroke-width="0" stroke="rgb(2%, 29%, 48%)" stroke-opacity="1.0" fill="rgb(39%, 42%, 73%)" fill-opacity="1.0"><rect width="0.0261" height="0.0215" x="0.6733" y="0.2164"/></g><g stroke-width="0.0" stroke="none" fill="rgb(5%, 5%, 5%)" fill-opacity="1.0" font-size="0.0139" text-anchor="start"><text x="0.2890" y="0.2300">CDCL (α = 0.95, mVISDS, LubyRestart(100, 2))</text></g><g stroke-width="0" stroke="rgb(2%, 29%, 48%)" stroke-opacity="1.0" fill="rgb(46%, 11%, 0%)" fill-opacity="1.0"><rect width="0.0261" height="0.0215" x="0.6733" y="0.1878"/></g><g stroke-width="0.0" stroke="none" fill="rgb(5%, 5%, 5%)" fill-opacity="1.0" font-size="0.0139" text-anchor="start"><text x="0.2890" y="0.2014">CDCL (α = 0.95, mVISDS, ExpRestart(100, 2))</text></g><g stroke-width="0" stroke="rgb(2%, 29%, 48%)" stroke-opacity="1.0" fill="rgb(73%, 50%, 48%)" fill-opacity="1.0"><rect width="0.0261" height="0.0215" x="0.6733" y="0.1592"/></g><g stroke-width="0.0" stroke="none" fill="rgb(5%, 5%, 5%)" fill-opacity="1.0" font-size="0.0139" text-anchor="start"><text x="0.2890" y="0.1727">CDCL (α = 0.95, mVISDS)</text></g><g stroke-width="0" stroke="rgb(2%, 29%, 48%)" stroke-opacity="1.0" fill="rgb(24%, 31%, 12%)" fill-opacity="1.0"><rect width="0.0261" height="0.0215" x="0.6733" y="0.1305"/></g><g stroke-width="0.0" stroke="none" fill="rgb(5%, 5%, 5%)" fill-opacity="1.0" font-size="0.0139" text-anchor="start"><text x="0.2890" y="0.1441">CDCL (α = 0.95)</text></g><g stroke-width="0" stroke="rgb(2%, 29%, 48%)" stroke-opacity="1.0" fill="rgb(13%, 40%, 0%)" fill-opacity="1.0"><rect width="0.0261" height="0.0215" x="0.6733" y="0.1019"/></g><g stroke-width="0.0" stroke="none" fill="rgb(5%, 5%, 5%)" fill-opacity="1.0" font-size="0.0139" text-anchor="start"><text x="0.2890" y="0.1155">CDCL (α = 0.75, mVISDS, LubyRestart(100, 2))</text></g><g stroke-width="0" stroke="rgb(2%, 29%, 48%)" stroke-opacity="1.0" fill="rgb(22%, 70%, 43%)" fill-opacity="1.0"><rect width="0.0261" height="0.0215" x="0.6733" y="0.0733"/></g><g stroke-width="0.0" stroke="none" fill="rgb(5%, 5%, 5%)" fill-opacity="1.0" font-size="0.0139" text-anchor="start"><text x="0.2890" y="0.0869">CDCL (α = 0.75, mVISDS, ExpRestart(100, 2))</text></g><g stroke-width="0" stroke="rgb(2%, 29%, 48%)" stroke-opacity="1.0" fill="rgb(44%, 21%, 47%)" fill-opacity="1.0"><rect width="0.0261" height="0.0215" x="0.6733" y="0.0446"/></g><g stroke-width="0.0" stroke="none" fill="rgb(5%, 5%, 5%)" fill-opacity="1.0" font-size="0.0139" text-anchor="start"><text x="0.2890" y="0.0582">CDCL (α = 0.75, mVISDS)</text></g><g stroke-width="0" stroke="rgb(2%, 29%, 48%)" stroke-opacity="1.0" fill="rgb(69%, 48%, 50%)" fill-opacity="1.0"><rect width="0.0261" height="0.0215" x="0.6733" y="0.0160"/></g><g stroke-width="0.0" stroke="none" fill="rgb(5%, 5%, 5%)" fill-opacity="1.0" font-size="0.0139" text-anchor="start"><text x="0.2890" y="0.0296">CDCL (α = 0.75)</text></g><g stroke-width="0" stroke="rgb(2%, 29%, 48%)" stroke-opacity="1.0" fill="rgb(58%, 33%, 58%)" fill-opacity="1.0"><rect width="0.0261" height="0.0215" x="0.6733" y="-0.0126"/></g><g stroke-width="0.0" stroke="none" fill="rgb(5%, 5%, 5%)" fill-opacity="1.0" font-size="0.0139" text-anchor="start"><text x="0.2890" y="0.0010">CDCL (adaptive, mVSIDS)</text></g><g stroke-width="0" stroke="rgb(2%, 29%, 48%)" stroke-opacity="1.0" fill="rgb(82%, 47%, 0%)" fill-opacity="1.0"><rect width="0.0261" height="0.0215" x="0.6733" y="-0.0412"/></g><g stroke-width="0.0" stroke="none" fill="rgb(5%, 5%, 5%)" fill-opacity="1.0" font-size="0.0139" text-anchor="start"><text x="0.2890" y="-0.0276">CDCL (adaptive, mVISDS, LubyRestart(100, 2))</text></g><g stroke-width="0" stroke="rgb(2%, 29%, 48%)" stroke-opacity="1.0" fill="rgb(31%, 35%, 20%)" fill-opacity="1.0"><rect width="0.0261" height="0.0215" x="0.6733" y="-0.0699"/></g><g stroke-width="0.0" stroke="none" fill="rgb(5%, 5%, 5%)" fill-opacity="1.0" font-size="0.0139" text-anchor="start"><text x="0.2890" y="-0.0563">CDCL (adaptive, mVISDS, ExpRestart(100, 2))</text></g><g stroke-width="0" stroke="rgb(2%, 29%, 48%)" stroke-opacity="1.0" fill="rgb(0%, 68%, 84%)" fill-opacity="1.0"><rect width="0.0261" height="0.0215" x="0.6733" y="-0.0985"/></g><g stroke-width="0.0" stroke="none" fill="rgb(5%, 5%, 5%)" fill-opacity="1.0" font-size="0.0139" text-anchor="start"><text x="0.2890" y="-0.0849">CDCL (adaptive)</text></g></g></g><g class="frame"><g stroke-width="0" stroke="rgb(0%, 0%, 0%)" stroke-opacity="0" fill="rgb(100%, 100%, 100%)" fill-opacity="0.02"><rect width="1.6180" height="1.0" x="-0.8090" y="-0.5"/></g></g><g class="title"><g stroke-width="0.0" stroke="none" fill="rgb(5%, 5%, 5%)" fill-opacity="1.0" font-size="0.0600" text-anchor="middle"><text x="-0.7385" y="0" transform="rotate(-90.0, -0.7385, 0)">Time [us]</text></g></g></g></svg>