<svg xmlns="http://www.w3.org/2000/svg" xmlns:xlink="http://www.w3.org/1999/xlink" width="485" height="300" viewBox="-0.8090 -0.5 1.6180 1.0"><style>svg {
  color-scheme: light dark;
}
{
  .canvas g, .title g, .axisbar g, .ticktext g, .tickglyph g, .ticklines g, .legendContent g text {
    fill: rgb(5%, 5%, 5%);
  }
  .ticklines g, .tickglyph g, .legendBorder g {
    stroke: rgb(5%, 5%, 5%);
  }
  .legendBorder g {
    fill: rgb(94%, 94%, 94%);
  }
}
@media (prefers-color-scheme:dark) {
  .canvas g, .title g, .axisbar g, .ticktext g, .tickglyph g, .ticklines g, .legendContent g text {
    fill: rgb(94%, 94%, 94%);
  }
  .ticklines g, .tickglyph g, .legendBorder g {
    stroke: rgb(94%, 94%, 94%);
  }
  .legendBorder g {
    fill: rgb(5%, 5%, 5%);
  }
}</style><g class="chart"><g class="barchart"><g stroke-width="0" stroke="rgb(2%, 29%, 48%)" stroke-opacity="1.0" fill="rgb(0%, 30%, 12%)" fill-opacity="1.0"><rect width="0.0694" height="0.0048" x="-0.5846" y="0.0773"/></g><g stroke-width="0" stroke="rgb(2%, 29%, 48%)" stroke-opacity="1.0" fill="rgb(1%, 28%, 43%)" fill-opacity="1.0"><rect width="0.0694" height="0.0511" x="-0.5153" y="0.0309"/></g><g stroke-width="0" stroke="rgb(2%, 29%, 48%)" stroke-opacity="1.0" fill="rgb(0%, 72%, 98%)" fill-opacity="1.0"><rect width="0.0694" height="0.0144" x="-0.4459" y="0.0677"/></g><g stroke-width="0" stroke="rgb(2%, 29%, 48%)" stroke-opacity="1.0" fill="rgb(90%, 37%, 58%)" fill-opacity="1.0"><rect width="0.0694" height="0.0126" x="-0.3766" y="0.0694"/></g><g stroke-width="0" stroke="rgb(2%, 29%, 48%)" stroke-opacity="1.0" fill="rgb(38%, 23%, 0%)" fill-opacity="1.0"><rect width="0.0694" height="0.0316" x="-0.3072" y="0.0504"/></g><g stroke-width="0" stroke="rgb(2%, 29%, 48%)" stroke-opacity="1.0" fill="rgb(91%, 19%, 0%)" fill-opacity="1.0"><rect width="0.0694" height="0.0321" x="-0.2379" y="0.0499"/></g><g stroke-width="0" stroke="rgb(2%, 29%, 48%)" stroke-opacity="1.0" fill="rgb(0%, 64%, 70%)" fill-opacity="1.0"><rect width="0.0694" height="0.0047" x="-0.1685" y="0.0774"/></g><g stroke-width="0" stroke="rgb(2%, 29%, 48%)" stroke-opacity="1.0" fill="rgb(91%, 47%, 0%)" fill-opacity="1.0"><rect width="0.0694" height="0.0191" x="-0.0992" y="0.0630"/></g><g stroke-width="0" stroke="rgb(2%, 29%, 48%)" stroke-opacity="1.0" fill="rgb(62%, 0%, 31%)" fill-opacity="1.0"><rect width="0.0694" height="0.0127" x="-0.0298" y="0.0694"/></g><g stroke-width="0" stroke="rgb(2%, 29%, 48%)" stroke-opacity="1.0" fill="rgb(17%, 40%, 67%)" fill-opacity="1.0"><rect width="0.0694" height="0.0126" x="0.0395" y="0.0694"/></g><g stroke-width="0" stroke="rgb(2%, 29%, 48%)" stroke-opacity="1.0" fill="rgb(0%, 52%, 40%)" fill-opacity="1.0"><rect width="0.0694" height="0.3587" x="0.1089" y="-0.2767"/></g></g><g class="errors"></g></g><g class="hud"><g class="axis"><g class="ticks"><g class="tickglyph"><g stroke-width="0.0040" stroke="rgb(5%, 5%, 5%)" stroke-opacity="0.4" fill="rgb(5%, 5%, 5%)" fill-opacity="0.4"><g transform="rotate(-90.0, -0.6427, 0.0820)"><polyline points="-0.6427,0.0970
-0.6427,0.0670"/></g><g transform="rotate(-90.0, -0.6427, 0.0226)"><polyline points="-0.6427,0.0376
-0.6427,0.0076"/></g><g transform="rotate(-90.0, -0.6427, -0.0369)"><polyline points="-0.6427,-0.0219
-0.6427,-0.0519"/></g><g transform="rotate(-90.0, -0.6427, -0.0964)"><polyline points="-0.6427,-0.0814
-0.6427,-0.1114"/></g><g transform="rotate(-90.0, -0.6427, -0.1558)"><polyline points="-0.6427,-0.1408
-0.6427,-0.1708"/></g><g transform="rotate(-90.0, -0.6427, -0.2153)"><polyline points="-0.6427,-0.2003
-0.6427,-0.2303"/></g><g transform="rotate(-90.0, -0.6427, -0.2748)"><polyline points="-0.6427,-0.2598
-0.6427,-0.2898"/></g><g transform="rotate(-90.0, -0.6427, -0.3342)"><polyline points="-0.6427,-0.3192
-0.6427,-0.3492"/></g></g></g><g class="ticktext"><g stroke-width="0.0" stroke="none" fill="rgb(5%, 5%, 5%)" fill-opacity="1.0" font-size="0.0262" text-anchor="end"><text x="-0.6616" y="0.0877">0.0</text><text x="-0.6616" y="0.0283">0.2</text><text x="-0.6616" y="-0.0312">0.4</text><text x="-0.6616" y="-0.0906">0.6</text><text x="-0.6616" y="-0.1501">0.8</text><text x="-0.6616" y="-0.2096">1.0</text><text x="-0.6616" y="-0.2690">1.2</text><text x="-0.6616" y="-0.3285">1.4</text></g></g><g class="ticklines"><g stroke-width="0.0050" stroke="rgb(5%, 5%, 5%)" stroke-opacity="0.05" fill="none"><polyline points="-0.6270,0.0820 0.2206,0.0820"/><polyline points="-0.6270,0.0226 0.2206,0.0226"/><polyline points="-0.6270,-0.0369 0.2206,-0.0369"/><polyline points="-0.6270,-0.0964 0.2206,-0.0964"/><polyline points="-0.6270,-0.1558 0.2206,-0.1558"/><polyline points="-0.6270,-0.2153 0.2206,-0.2153"/><polyline points="-0.6270,-0.2748 0.2206,-0.2748"/><polyline points="-0.6270,-0.3342 0.2206,-0.3342"/></g></g></g><g class="axisbar"><g stroke-width="0" stroke="rgb(0%, 0%, 0%)" stroke-opacity="0" fill="rgb(5%, 5%, 5%)" fill-opacity="0.4"><rect width="0.0021" height="0.4179" x="-0.6343" y="-0.3351"/></g></g></g><g class="axis"><g class="ticks"><g class="tickglyph"><g stroke-width="0.0040" stroke="rgb(5%, 5%, 5%)" stroke-opacity="0.4" fill="rgb(5%, 5%, 5%)" fill-opacity="0.4"><polyline points="-0.5499,0.1095
-0.5499,0.0795"/><polyline points="-0.4806,0.1095
-0.4806,0.0795"/><polyline points="-0.4112,0.1095
-0.4112,0.0795"/><polyline points="-0.3419,0.1095
-0.3419,0.0795"/><polyline points="-0.2725,0.1095
-0.2725,0.0795"/><polyline points="-0.2032,0.1095
-0.2032,0.0795"/><polyline points="-0.1338,0.1095
-0.1338,0.0795"/><polyline points="-0.0645,0.1095
-0.0645,0.0795"/><polyline points="0.0049,0.1095
0.0049,0.0795"/><polyline points="0.0742,0.1095
0.0742,0.0795"/><polyline points="0.1436,0.1095
0.1436,0.0795"/></g></g><g class="ticktext"><g stroke-width="0.0" stroke="none" fill="rgb(5%, 5%, 5%)" fill-opacity="1.0" font-size="0.0262" text-anchor="end"><text x="-0.5499" y="0.1209" transform="rotate(-45.0, -0.5499, 0.1209)">CDCL (adaptive)</text><text x="-0.4806" y="0.1209" transform="rotate(-45.0, -0.4806, 0.1209)">CDCL (adaptive, mVSIDS)</text><text x="-0.4112" y="0.1209" transform="rotate(-45.0, -0.4112, 0.1209)">CDCL (α = 0.75)</text><text x="-0.3419" y="0.1209" transform="rotate(-45.0, -0.3419, 0.1209)">CDCL (α = 0.75, mVISDS)</text><text x="-0.2725" y="0.1209" transform="rotate(-45.0, -0.2725, 0.1209)">CDCL (α = 0.75, mVISDS, ExpRestart(100, 2))</text><text x="-0.2032" y="0.1209" transform="rotate(-45.0, -0.2032, 0.1209)">CDCL (α = 0.75, mVISDS, LubyRestart(100, 2))</text><text x="-0.1338" y="0.1209" transform="rotate(-45.0, -0.1338, 0.1209)">CDCL (α = 0.95)</text><text x="-0.0645" y="0.1209" transform="rotate(-45.0, -0.0645, 0.1209)">CDCL (α = 0.95, mVISDS)</text><text x="0.0049" y="0.1209" transform="rotate(-45.0, 0.0049, 0.1209)">CDCL (α = 0.95, mVISDS, ExpRestart(100, 2))</text><text x="0.0742" y="0.1209" transform="rotate(-45.0, 0.0742, 0.1209)">CDCL (α = 0.95, mVISDS, LubyRestart(100, 2))</text><text x="0.1436" y="0.1209" transform="rotate(-45.0, 0.1436, 0.1209)">DPLL</text></g></g></g><g class="axisbar"><g stroke-width="0" stroke="rgb(0%, 0%, 0%)" stroke-opacity="0" fill="rgb(5%, 5%, 5%)" fill-opacity="0.4"><rect width="0.8497" height="0.0017" x="-0.6280" y="0.0862"/></g></g></g><g class="title"><g stroke-width="0.0" stroke="none" fill="rgb(5%, 5%, 5%)" fill-opacity="1.0" font-size="0.0629" text-anchor="middle"><text x="-0.2375" y="-0.3768">Copied: SATLIB/Bejing/3blocks/cnf</text></g></g><g class="legend"><g class="legendBorder"><g stroke-width="0.0017" stroke="rgb(5%, 5%, 5%)" stroke-opacity="1.0" fill="rgb(5%, 5%, 5%)" fill-opacity="0"><rect width="0.3909" height="0.3278" x="0.3115" y="-0.2276"/></g></g><g class="legendContent"><g stroke-width="0.0" stroke="none" fill="rgb(5%, 5%, 5%)" fill-opacity="1.0" font-size="0.0165" text-anchor="start"><text x="0.3207" y="0.0853">DPLL</text></g><g stroke-width="0" stroke="rgb(2%, 29%, 48%)" stroke-opacity="1.0" fill="rgb(0%, 52%, 40%)" fill-opacity="1.0"><rect width="0.0275" height="0.0219" x="0.6657" y="0.0711"/></g><g stroke-width="0.0" stroke="none" fill="rgb(5%, 5%, 5%)" fill-opacity="1.0" font-size="0.0165" text-anchor="start"><text x="0.3207" y="0.0562">CDCL (α = 0.95, mVISDS, LubyRestart(100, 2))</text></g><g stroke-width="0" stroke="rgb(2%, 29%, 48%)" stroke-opacity="1.0" fill="rgb(17%, 40%, 67%)" fill-opacity="1.0"><rect width="0.0275" height="0.0219" x="0.6657" y="0.0420"/></g><g stroke-width="0.0" stroke="none" fill="rgb(5%, 5%, 5%)" fill-opacity="1.0" font-size="0.0165" text-anchor="start"><text x="0.3207" y="0.0270">CDCL (α = 0.95, mVISDS, ExpRestart(100, 2))</text></g><g stroke-width="0" stroke="rgb(2%, 29%, 48%)" stroke-opacity="1.0" fill="rgb(62%, 0%, 31%)" fill-opacity="1.0"><rect width="0.0275" height="0.0219" x="0.6657" y="0.0128"/></g><g stroke-width="0.0" stroke="none" fill="rgb(5%, 5%, 5%)" fill-opacity="1.0" font-size="0.0165" text-anchor="start"><text x="0.3207" y="-0.0021">CDCL (α = 0.95, mVISDS)</text></g><g stroke-width="0" stroke="rgb(2%, 29%, 48%)" stroke-opacity="1.0" fill="rgb(91%, 47%, 0%)" fill-opacity="1.0"><rect width="0.0275" height="0.0219" x="0.6657" y="-0.0163"/></g><g stroke-width="0.0" stroke="none" fill="rgb(5%, 5%, 5%)" fill-opacity="1.0" font-size="0.0165" text-anchor="start"><text x="0.3207" y="-0.0312">CDCL (α = 0.95)</text></g><g stroke-width="0" stroke="rgb(2%, 29%, 48%)" stroke-opacity="1.0" fill="rgb(0%, 64%, 70%)" fill-opacity="1.0"><rect width="0.0275" height="0.0219" x="0.6657" y="-0.0455"/></g><g stroke-width="0.0" stroke="none" fill="rgb(5%, 5%, 5%)" fill-opacity="1.0" font-size="0.0165" text-anchor="start"><text x="0.3207" y="-0.0604">CDCL (α = 0.75, mVISDS, LubyRestart(100, 2))</text></g><g stroke-width="0" stroke="rgb(2%, 29%, 48%)" stroke-opacity="1.0" fill="rgb(91%, 19%, 0%)" fill-opacity="1.0"><rect width="0.0275" height="0.0219" x="0.6657" y="-0.0746"/></g><g stroke-width="0.0" stroke="none" fill="rgb(5%, 5%, 5%)" fill-opacity="1.0" font-size="0.0165" text-anchor="start"><text x="0.3207" y="-0.0895">CDCL (α = 0.75, mVISDS, ExpRestart(100, 2))</text></g><g stroke-width="0" stroke="rgb(2%, 29%, 48%)" stroke-opacity="1.0" fill="rgb(38%, 23%, 0%)" fill-opacity="1.0"><rect width="0.0275" height="0.0219" x="0.6657" y="-0.1037"/></g><g stroke-width="0.0" stroke="none" fill="rgb(5%, 5%, 5%)" fill-opacity="1.0" font-size="0.0165" text-anchor="start"><text x="0.3207" y="-0.1187">CDCL (α = 0.75, mVISDS)</text></g><g stroke-width="0" stroke="rgb(2%, 29%, 48%)" stroke-opacity="1.0" fill="rgb(90%, 37%, 58%)" fill-opacity="1.0"><rect width="0.0275" height="0.0219" x="0.6657" y="-0.1329"/></g><g stroke-width="0.0" stroke="none" fill="rgb(5%, 5%, 5%)" fill-opacity="1.0" font-size="0.0165" text-anchor="start"><text x="0.3207" y="-0.1478">CDCL (α = 0.75)</text></g><g stroke-width="0" stroke="rgb(2%, 29%, 48%)" stroke-opacity="1.0" fill="rgb(0%, 72%, 98%)" fill-opacity="1.0"><rect width="0.0275" height="0.0219" x="0.6657" y="-0.1620"/></g><g stroke-width="0.0" stroke="none" fill="rgb(5%, 5%, 5%)" fill-opacity="1.0" font-size="0.0165" text-anchor="start"><text x="0.3207" y="-0.1769">CDCL (adaptive, mVSIDS)</text></g><g stroke-width="0" stroke="rgb(2%, 29%, 48%)" stroke-opacity="1.0" fill="rgb(1%, 28%, 43%)" fill-opacity="1.0"><rect width="0.0275" height="0.0219" x="0.6657" y="-0.1911"/></g><g stroke-width="0.0" stroke="none" fill="rgb(5%, 5%, 5%)" fill-opacity="1.0" font-size="0.0165" text-anchor="start"><text x="0.3207" y="-0.2061">CDCL (adaptive)</text></g><g stroke-width="0" stroke="rgb(2%, 29%, 48%)" stroke-opacity="1.0" fill="rgb(0%, 30%, 12%)" fill-opacity="1.0"><rect width="0.0275" height="0.0219" x="0.6657" y="-0.2203"/></g></g></g><g class="frame"><g stroke-width="0" stroke="rgb(0%, 0%, 0%)" stroke-opacity="0" fill="rgb(100%, 100%, 100%)" fill-opacity="0.02"><rect width="1.6180" height="1.0" x="-0.8090" y="-0.5"/></g></g><g class="title"><g stroke-width="0.0" stroke="none" fill="rgb(5%, 5%, 5%)" fill-opacity="1.0" font-size="0.0314" text-anchor="middle"><text x="-0.7346" y="0" transform="rotate(-90.0, -0.7346, 0)">Copied [GiB]</text></g></g></g></svg>