<svg xmlns="http://www.w3.org/2000/svg" xmlns:xlink="http://www.w3.org/1999/xlink" width="438" height="300" viewBox="-0.8090 -0.5 1.6180 1.1067"><style>svg {
  color-scheme: light dark;
}
{
  .canvas g, .title g, .axisbar g, .ticktext g, .tickglyph g, .ticklines g, .legendContent g text {
    fill: rgb(5%, 5%, 5%);
  }
  .ticklines g, .tickglyph g, .legendBorder g {
    stroke: rgb(5%, 5%, 5%);
  }
  .legendBorder g {
    fill: rgb(94%, 94%, 94%);
  }
}
@media (prefers-color-scheme:dark) {
  .canvas g, .title g, .axisbar g, .ticktext g, .tickglyph g, .ticklines g, .legendContent g text {
    fill: rgb(94%, 94%, 94%);
  }
  .ticklines g, .tickglyph g, .legendBorder g {
    stroke: rgb(94%, 94%, 94%);
  }
  .legendBorder g {
    fill: rgb(5%, 5%, 5%);
  }
}</style><g class="chart"><g class="barchart"><g stroke-width="0" stroke="rgb(2%, 29%, 48%)" stroke-opacity="1.0" fill="rgb(57%, 0%, 21%)" fill-opacity="1.0"><rect width="0.0169" height="0.1575" x="-0.3856" y="0.0079"/></g><g stroke-width="0.0010" stroke="rgb(57%, 0%, 21%)" stroke-opacity="1.0" fill="rgb(57%, 0%, 21%)" fill-opacity="0.25"><rect width="0.0169" height="0.1366" x="-0.3687" y="0.0288"/></g><g stroke-width="0" stroke="rgb(2%, 29%, 48%)" stroke-opacity="1.0" fill="rgb(47%, 34%, 0%)" fill-opacity="1.0"><rect width="0.0169" height="0.2235" x="-0.3518" y="-0.0580"/></g><g stroke-width="0.0010" stroke="rgb(47%, 34%, 0%)" stroke-opacity="1.0" fill="rgb(47%, 34%, 0%)" fill-opacity="0.25"><rect width="0.0169" height="0.1870" x="-0.3350" y="-0.0216"/></g><g stroke-width="0" stroke="rgb(2%, 29%, 48%)" stroke-opacity="1.0" fill="rgb(70%, 21%, 0%)" fill-opacity="1.0"><rect width="0.0169" height="0.2287" x="-0.3181" y="-0.0632"/></g><g stroke-width="0" stroke="rgb(2%, 29%, 48%)" stroke-opacity="1.0" fill="rgb(0%, 36%, 0%)" fill-opacity="1.0"><rect width="0.0169" height="0.2191" x="-0.3012" y="-0.0536"/></g><g stroke-width="0.0010" stroke="rgb(0%, 36%, 0%)" stroke-opacity="1.0" fill="rgb(0%, 36%, 0%)" fill-opacity="0.25"><rect width="0.0169" height="0.1896" x="-0.2843" y="-0.0241"/></g><g stroke-width="0" stroke="rgb(2%, 29%, 48%)" stroke-opacity="1.0" fill="rgb(0%, 21%, 55%)" fill-opacity="1.0"><rect width="0.0169" height="0.2232" x="-0.2674" y="-0.0577"/></g><g stroke-width="0" stroke="rgb(2%, 29%, 48%)" stroke-opacity="1.0" fill="rgb(72%, 66%, 0%)" fill-opacity="1.0"><rect width="0.0169" height="0.2177" x="-0.2505" y="-0.0522"/></g><g stroke-width="0.0010" stroke="rgb(72%, 66%, 0%)" stroke-opacity="1.0" fill="rgb(72%, 66%, 0%)" fill-opacity="0.25"><rect width="0.0169" height="0.1957" x="-0.2337" y="-0.0302"/></g><g stroke-width="0" stroke="rgb(2%, 29%, 48%)" stroke-opacity="1.0" fill="rgb(37%, 17%, 0%)" fill-opacity="1.0"><rect width="0.0169" height="0.2221" x="-0.2168" y="-0.0567"/></g><g stroke-width="0" stroke="rgb(2%, 29%, 48%)" stroke-opacity="1.0" fill="rgb(20%, 15%, 40%)" fill-opacity="1.0"><rect width="0.0169" height="0.1570" x="-0.1999" y="0.0085"/></g><g stroke-width="0.0010" stroke="rgb(20%, 15%, 40%)" stroke-opacity="1.0" fill="rgb(20%, 15%, 40%)" fill-opacity="0.25"><rect width="0.0169" height="0.1368" x="-0.1830" y="0.0287"/></g><g stroke-width="0" stroke="rgb(2%, 29%, 48%)" stroke-opacity="1.0" fill="rgb(48%, 65%, 0%)" fill-opacity="1.0"><rect width="0.0169" height="0.2203" x="-0.1661" y="-0.0548"/></g><g stroke-width="0.0010" stroke="rgb(48%, 65%, 0%)" stroke-opacity="1.0" fill="rgb(48%, 65%, 0%)" fill-opacity="0.25"><rect width="0.0169" height="0.1853" x="-0.1492" y="-0.0199"/></g><g stroke-width="0" stroke="rgb(2%, 29%, 48%)" stroke-opacity="1.0" fill="rgb(35%, 24%, 0%)" fill-opacity="1.0"><rect width="0.0169" height="0.2128" x="-0.1324" y="-0.0473"/></g><g stroke-width="0" stroke="rgb(2%, 29%, 48%)" stroke-opacity="1.0" fill="rgb(0%, 72%, 67%)" fill-opacity="1.0"><rect width="0.0169" height="0.2212" x="-0.1155" y="-0.0557"/></g><g stroke-width="0.0010" stroke="rgb(0%, 72%, 67%)" stroke-opacity="1.0" fill="rgb(0%, 72%, 67%)" fill-opacity="0.25"><rect width="0.0169" height="0.1873" x="-0.0986" y="-0.0218"/></g><g stroke-width="0" stroke="rgb(2%, 29%, 48%)" stroke-opacity="1.0" fill="rgb(98%, 15%, 25%)" fill-opacity="1.0"><rect width="0.0169" height="0.2223" x="-0.0817" y="-0.0569"/></g><g stroke-width="0" stroke="rgb(2%, 29%, 48%)" stroke-opacity="1.0" fill="rgb(57%, 62%, 78%)" fill-opacity="1.0"><rect width="0.0169" height="0.2222" x="-0.0648" y="-0.0567"/></g><g stroke-width="0.0010" stroke="rgb(57%, 62%, 78%)" stroke-opacity="1.0" fill="rgb(57%, 62%, 78%)" fill-opacity="0.25"><rect width="0.0169" height="0.1885" x="-0.0479" y="-0.0230"/></g><g stroke-width="0" stroke="rgb(2%, 29%, 48%)" stroke-opacity="1.0" fill="rgb(53%, 24%, 0%)" fill-opacity="1.0"><rect width="0.0169" height="0.2148" x="-0.0311" y="-0.0494"/></g><g stroke-width="0" stroke="rgb(2%, 29%, 48%)" stroke-opacity="1.0" fill="rgb(69%, 17%, 0%)" fill-opacity="1.0"><rect width="0.0169" height="0.1599" x="-0.0142" y="0.0056"/></g><g stroke-width="0.0010" stroke="rgb(69%, 17%, 0%)" stroke-opacity="1.0" fill="rgb(69%, 17%, 0%)" fill-opacity="0.25"><rect width="0.0169" height="0.1343" x="0.0027" y="0.0312"/></g><g stroke-width="0" stroke="rgb(2%, 29%, 48%)" stroke-opacity="1.0" fill="rgb(0%, 42%, 48%)" fill-opacity="1.0"><rect width="0.0169" height="0.2149" x="0.0196" y="-0.0495"/></g><g stroke-width="0.0010" stroke="rgb(0%, 42%, 48%)" stroke-opacity="1.0" fill="rgb(0%, 42%, 48%)" fill-opacity="0.25"><rect width="0.0169" height="0.1899" x="0.0365" y="-0.0245"/></g><g stroke-width="0" stroke="rgb(2%, 29%, 48%)" stroke-opacity="1.0" fill="rgb(18%, 22%, 10%)" fill-opacity="1.0"><rect width="0.0169" height="0.2194" x="0.0534" y="-0.0540"/></g><g stroke-width="0" stroke="rgb(2%, 29%, 48%)" stroke-opacity="1.0" fill="rgb(42%, 44%, 14%)" fill-opacity="1.0"><rect width="0.0169" height="0.2142" x="0.0703" y="-0.0487"/></g><g stroke-width="0.0010" stroke="rgb(42%, 44%, 14%)" stroke-opacity="1.0" fill="rgb(42%, 44%, 14%)" fill-opacity="0.25"><rect width="0.0169" height="0.1888" x="0.0871" y="-0.0234"/></g><g stroke-width="0" stroke="rgb(2%, 29%, 48%)" stroke-opacity="1.0" fill="rgb(54%, 0%, 0%)" fill-opacity="1.0"><rect width="0.0169" height="0.2147" x="0.1040" y="-0.0493"/></g><g stroke-width="0" stroke="rgb(2%, 29%, 48%)" stroke-opacity="1.0" fill="rgb(100%, 37%, 0%)" fill-opacity="1.0"><rect width="0.0169" height="0.2135" x="0.1209" y="-0.0481"/></g><g stroke-width="0.0010" stroke="rgb(100%, 37%, 0%)" stroke-opacity="1.0" fill="rgb(100%, 37%, 0%)" fill-opacity="0.25"><rect width="0.0169" height="0.1916" x="0.1378" y="-0.0262"/></g><g stroke-width="0" stroke="rgb(2%, 29%, 48%)" stroke-opacity="1.0" fill="rgb(0%, 38%, 61%)" fill-opacity="1.0"><rect width="0.0169" height="0.2198" x="0.1547" y="-0.0544"/></g><g stroke-width="0" stroke="rgb(2%, 29%, 48%)" stroke-opacity="1.0" fill="rgb(0%, 49%, 30%)" fill-opacity="1.0"><rect width="0.0169" height="0.0673" x="0.1716" y="0.0982"/></g><g stroke-width="0.0010" stroke="rgb(0%, 49%, 30%)" stroke-opacity="1.0" fill="rgb(0%, 49%, 30%)" fill-opacity="0.25"><rect width="0.0169" height="0.0631" x="0.1884" y="0.1023"/></g></g><g class="errors"><g stroke-width="0.0015" stroke="rgb(5%, 5%, 5%)" stroke-opacity="1.0" fill="none"><polyline points="-0.3789,0.0148 -0.3755,0.0148"/><polyline points="-0.3772,0.0148 -0.3772,0.0011"/><polyline points="-0.3789,0.0011 -0.3755,0.0011"/></g><g stroke-width="0.0015" stroke="rgb(5%, 5%, 5%)" stroke-opacity="1.0" fill="none"><polyline points="-0.3620,0.0346 -0.3586,0.0346"/><polyline points="-0.3603,0.0346 -0.3603,0.0231"/><polyline points="-0.3620,0.0231 -0.3586,0.0231"/></g><g stroke-width="0.0015" stroke="rgb(5%, 5%, 5%)" stroke-opacity="1.0" fill="none"><polyline points="-0.3451,-0.0521 -0.3417,-0.0521"/><polyline points="-0.3434,-0.0521 -0.3434,-0.0639"/><polyline points="-0.3451,-0.0639 -0.3417,-0.0639"/></g><g stroke-width="0.0015" stroke="rgb(5%, 5%, 5%)" stroke-opacity="1.0" fill="none"><polyline points="-0.3282,-0.0139 -0.3248,-0.0139"/><polyline points="-0.3265,-0.0139 -0.3265,-0.0293"/><polyline points="-0.3282,-0.0293 -0.3248,-0.0293"/></g><g stroke-width="0.0015" stroke="rgb(5%, 5%, 5%)" stroke-opacity="1.0" fill="none"><polyline points="-0.3113,-0.0605 -0.3079,-0.0605"/><polyline points="-0.3096,-0.0605 -0.3096,-0.0659"/><polyline points="-0.3113,-0.0659 -0.3079,-0.0659"/></g><g stroke-width="0.0015" stroke="rgb(5%, 5%, 5%)" stroke-opacity="1.0" fill="none"><polyline points="-0.2944,-0.0455 -0.2911,-0.0455"/><polyline points="-0.2928,-0.0455 -0.2928,-0.0618"/><polyline points="-0.2944,-0.0618 -0.2911,-0.0618"/></g><g stroke-width="0.0015" stroke="rgb(5%, 5%, 5%)" stroke-opacity="1.0" fill="none"><polyline points="-0.2776,-0.0187 -0.2742,-0.0187"/><polyline points="-0.2759,-0.0187 -0.2759,-0.0295"/><polyline points="-0.2776,-0.0295 -0.2742,-0.0295"/></g><g stroke-width="0.0015" stroke="rgb(5%, 5%, 5%)" stroke-opacity="1.0" fill="none"><polyline points="-0.2607,-0.0511 -0.2573,-0.0511"/><polyline points="-0.2590,-0.0511 -0.2590,-0.0644"/><polyline points="-0.2607,-0.0644 -0.2573,-0.0644"/></g><g stroke-width="0.0015" stroke="rgb(5%, 5%, 5%)" stroke-opacity="1.0" fill="none"><polyline points="-0.2438,-0.0458 -0.2404,-0.0458"/><polyline points="-0.2421,-0.0458 -0.2421,-0.0587"/><polyline points="-0.2438,-0.0587 -0.2404,-0.0587"/></g><g stroke-width="0.0015" stroke="rgb(5%, 5%, 5%)" stroke-opacity="1.0" fill="none"><polyline points="-0.2269,-0.0212 -0.2235,-0.0212"/><polyline points="-0.2252,-0.0212 -0.2252,-0.0392"/><polyline points="-0.2269,-0.0392 -0.2235,-0.0392"/></g><g stroke-width="0.0015" stroke="rgb(5%, 5%, 5%)" stroke-opacity="1.0" fill="none"><polyline points="-0.2100,-0.0514 -0.2066,-0.0514"/><polyline points="-0.2083,-0.0514 -0.2083,-0.0619"/><polyline points="-0.2100,-0.0619 -0.2066,-0.0619"/></g><g stroke-width="0.0015" stroke="rgb(5%, 5%, 5%)" stroke-opacity="1.0" fill="none"><polyline points="-0.1931,0.0152 -0.1898,0.0152"/><polyline points="-0.1915,0.0152 -0.1915,0.0017"/><polyline points="-0.1931,0.0017 -0.1898,0.0017"/></g><g stroke-width="0.0015" stroke="rgb(5%, 5%, 5%)" stroke-opacity="1.0" fill="none"><polyline points="-0.1763,0.0347 -0.1729,0.0347"/><polyline points="-0.1746,0.0347 -0.1746,0.0227"/><polyline points="-0.1763,0.0227 -0.1729,0.0227"/></g><g stroke-width="0.0015" stroke="rgb(5%, 5%, 5%)" stroke-opacity="1.0" fill="none"><polyline points="-0.1594,-0.0497 -0.1560,-0.0497"/><polyline points="-0.1577,-0.0497 -0.1577,-0.0599"/><polyline points="-0.1594,-0.0599 -0.1560,-0.0599"/></g><g stroke-width="0.0015" stroke="rgb(5%, 5%, 5%)" stroke-opacity="1.0" fill="none"><polyline points="-0.1425,-0.0128 -0.1391,-0.0128"/><polyline points="-0.1408,-0.0128 -0.1408,-0.0269"/><polyline points="-0.1425,-0.0269 -0.1391,-0.0269"/></g><g stroke-width="0.0015" stroke="rgb(5%, 5%, 5%)" stroke-opacity="1.0" fill="none"><polyline points="-0.1256,-0.0378 -0.1222,-0.0378"/><polyline points="-0.1239,-0.0378 -0.1239,-0.0568"/><polyline points="-0.1256,-0.0568 -0.1222,-0.0568"/></g><g stroke-width="0.0015" stroke="rgb(5%, 5%, 5%)" stroke-opacity="1.0" fill="none"><polyline points="-0.1087,-0.0456 -0.1053,-0.0456"/><polyline points="-0.1070,-0.0456 -0.1070,-0.0658"/><polyline points="-0.1087,-0.0658 -0.1053,-0.0658"/></g><g stroke-width="0.0015" stroke="rgb(5%, 5%, 5%)" stroke-opacity="1.0" fill="none"><polyline points="-0.0918,-0.0143 -0.0885,-0.0143"/><polyline points="-0.0901,-0.0143 -0.0901,-0.0293"/><polyline points="-0.0918,-0.0293 -0.0885,-0.0293"/></g><g stroke-width="0.0015" stroke="rgb(5%, 5%, 5%)" stroke-opacity="1.0" fill="none"><polyline points="-0.0750,-0.0493 -0.0716,-0.0493"/><polyline points="-0.0733,-0.0493 -0.0733,-0.0645"/><polyline points="-0.0750,-0.0645 -0.0716,-0.0645"/></g><g stroke-width="0.0015" stroke="rgb(5%, 5%, 5%)" stroke-opacity="1.0" fill="none"><polyline points="-0.0581,-0.0477 -0.0547,-0.0477"/><polyline points="-0.0564,-0.0477 -0.0564,-0.0658"/><polyline points="-0.0581,-0.0658 -0.0547,-0.0658"/></g><g stroke-width="0.0015" stroke="rgb(5%, 5%, 5%)" stroke-opacity="1.0" fill="none"><polyline points="-0.0412,-0.0176 -0.0378,-0.0176"/><polyline points="-0.0395,-0.0176 -0.0395,-0.0284"/><polyline points="-0.0412,-0.0284 -0.0378,-0.0284"/></g><g stroke-width="0.0015" stroke="rgb(5%, 5%, 5%)" stroke-opacity="1.0" fill="none"><polyline points="-0.0243,-0.0397 -0.0209,-0.0397"/><polyline points="-0.0226,-0.0397 -0.0226,-0.0590"/><polyline points="-0.0243,-0.0590 -0.0209,-0.0590"/></g><g stroke-width="0.0015" stroke="rgb(5%, 5%, 5%)" stroke-opacity="1.0" fill="none"><polyline points="-0.0074,0.0114 -0.0040,0.0114"/><polyline points="-0.0057,0.0114 -0.0057,-0.0003"/><polyline points="-0.0074,-0.0003 -0.0040,-0.0003"/></g><g stroke-width="0.0015" stroke="rgb(5%, 5%, 5%)" stroke-opacity="1.0" fill="none"><polyline points="0.0095,0.0350 0.0128,0.0350"/><polyline points="0.0112,0.0350 0.0112,0.0273"/><polyline points="0.0095,0.0273 0.0128,0.0273"/></g><g stroke-width="0.0015" stroke="rgb(5%, 5%, 5%)" stroke-opacity="1.0" fill="none"><polyline points="0.0264,-0.0426 0.0297,-0.0426"/><polyline points="0.0280,-0.0426 0.0280,-0.0563"/><polyline points="0.0264,-0.0563 0.0297,-0.0563"/></g><g stroke-width="0.0015" stroke="rgb(5%, 5%, 5%)" stroke-opacity="1.0" fill="none"><polyline points="0.0432,-0.0186 0.0466,-0.0186"/><polyline points="0.0449,-0.0186 0.0449,-0.0303"/><polyline points="0.0432,-0.0303 0.0466,-0.0303"/></g><g stroke-width="0.0015" stroke="rgb(5%, 5%, 5%)" stroke-opacity="1.0" fill="none"><polyline points="0.0601,-0.0487 0.0635,-0.0487"/><polyline points="0.0618,-0.0487 0.0618,-0.0592"/><polyline points="0.0601,-0.0592 0.0635,-0.0592"/></g><g stroke-width="0.0015" stroke="rgb(5%, 5%, 5%)" stroke-opacity="1.0" fill="none"><polyline points="0.0770,-0.0408 0.0804,-0.0408"/><polyline points="0.0787,-0.0408 0.0787,-0.0567"/><polyline points="0.0770,-0.0567 0.0804,-0.0567"/></g><g stroke-width="0.0015" stroke="rgb(5%, 5%, 5%)" stroke-opacity="1.0" fill="none"><polyline points="0.0939,-0.0183 0.0973,-0.0183"/><polyline points="0.0956,-0.0183 0.0956,-0.0285"/><polyline points="0.0939,-0.0285 0.0973,-0.0285"/></g><g stroke-width="0.0015" stroke="rgb(5%, 5%, 5%)" stroke-opacity="1.0" fill="none"><polyline points="0.1108,-0.0426 0.1141,-0.0426"/><polyline points="0.1125,-0.0426 0.1125,-0.0560"/><polyline points="0.1108,-0.0560 0.1141,-0.0560"/></g><g stroke-width="0.0015" stroke="rgb(5%, 5%, 5%)" stroke-opacity="1.0" fill="none"><polyline points="0.1277,-0.0405 0.1310,-0.0405"/><polyline points="0.1293,-0.0405 0.1293,-0.0556"/><polyline points="0.1277,-0.0556 0.1310,-0.0556"/></g><g stroke-width="0.0015" stroke="rgb(5%, 5%, 5%)" stroke-opacity="1.0" fill="none"><polyline points="0.1445,-0.0207 0.1479,-0.0207"/><polyline points="0.1462,-0.0207 0.1462,-0.0316"/><polyline points="0.1445,-0.0316 0.1479,-0.0316"/></g><g stroke-width="0.0015" stroke="rgb(5%, 5%, 5%)" stroke-opacity="1.0" fill="none"><polyline points="0.1614,-0.0465 0.1648,-0.0465"/><polyline points="0.1631,-0.0465 0.1631,-0.0623"/><polyline points="0.1614,-0.0623 0.1648,-0.0623"/></g><g stroke-width="0.0015" stroke="rgb(5%, 5%, 5%)" stroke-opacity="1.0" fill="none"><polyline points="0.1783,0.1008 0.1817,0.1008"/><polyline points="0.1800,0.1008 0.1800,0.0955"/><polyline points="0.1783,0.0955 0.1817,0.0955"/></g><g stroke-width="0.0015" stroke="rgb(5%, 5%, 5%)" stroke-opacity="1.0" fill="none"><polyline points="0.1952,0.1050 0.1986,0.1050"/><polyline points="0.1969,0.1050 0.1969,0.0996"/><polyline points="0.1952,0.0996 0.1986,0.0996"/></g></g></g><g class="hud"><g class="axis"><g class="ticks"><g class="tickglyph"><g stroke-width="0.0040" stroke="rgb(5%, 5%, 5%)" stroke-opacity="0.4" fill="rgb(5%, 5%, 5%)" fill-opacity="0.4"><g transform="rotate(-90.0, -0.4306, 0.1655)"><polyline points="-0.4306,0.1805
-0.4306,0.1505"/></g><g transform="rotate(-90.0, -0.4306, 0.1425)"><polyline points="-0.4306,0.1575
-0.4306,0.1275"/></g><g transform="rotate(-90.0, -0.4306, 0.1195)"><polyline points="-0.4306,0.1345
-0.4306,0.1045"/></g><g transform="rotate(-90.0, -0.4306, 0.0965)"><polyline points="-0.4306,0.1115
-0.4306,0.0815"/></g><g transform="rotate(-90.0, -0.4306, 0.0735)"><polyline points="-0.4306,0.0885
-0.4306,0.0585"/></g><g transform="rotate(-90.0, -0.4306, 0.0505)"><polyline points="-0.4306,0.0655
-0.4306,0.0355"/></g><g transform="rotate(-90.0, -0.4306, 0.0275)"><polyline points="-0.4306,0.0425
-0.4306,0.0125"/></g><g transform="rotate(-90.0, -0.4306, 0.0045)"><polyline points="-0.4306,0.0195
-0.4306,-0.0105"/></g><g transform="rotate(-90.0, -0.4306, -0.0185)"><polyline points="-0.4306,-0.0035
-0.4306,-0.0335"/></g><g transform="rotate(-90.0, -0.4306, -0.0415)"><polyline points="-0.4306,-0.0265
-0.4306,-0.0565"/></g><g transform="rotate(-90.0, -0.4306, -0.0644)"><polyline points="-0.4306,-0.0494
-0.4306,-0.0794"/></g><g transform="rotate(-90.0, -0.4306, -0.0874)"><polyline points="-0.4306,-0.0724
-0.4306,-0.1024"/></g></g></g><g class="ticktext"><g stroke-width="0.0" stroke="none" fill="rgb(5%, 5%, 5%)" fill-opacity="1.0" font-size="0.0203" text-anchor="end"><text x="-0.4452" y="0.1689">0.0</text><text x="-0.4452" y="0.1459">0.2</text><text x="-0.4452" y="0.1230">0.4</text><text x="-0.4452" y="0.1000">0.6</text><text x="-0.4452" y="0.0770">0.8</text><text x="-0.4452" y="0.0540">1.0</text><text x="-0.4452" y="0.0310">1.2</text><text x="-0.4452" y="0.0080">1.4</text><text x="-0.4452" y="-0.0150">1.6</text><text x="-0.4452" y="-0.0380">1.8</text><text x="-0.4452" y="-0.0610">2.0</text><text x="-0.4452" y="-0.0840">2.2</text></g></g><g class="ticklines"><g stroke-width="0.0050" stroke="rgb(5%, 5%, 5%)" stroke-opacity="0.05" fill="none"><polyline points="-0.4184,0.1655 0.2382,0.1655"/><polyline points="-0.4184,0.1425 0.2382,0.1425"/><polyline points="-0.4184,0.1195 0.2382,0.1195"/><polyline points="-0.4184,0.0965 0.2382,0.0965"/><polyline points="-0.4184,0.0735 0.2382,0.0735"/><polyline points="-0.4184,0.0505 0.2382,0.0505"/><polyline points="-0.4184,0.0275 0.2382,0.0275"/><polyline points="-0.4184,0.0045 0.2382,0.0045"/><polyline points="-0.4184,-0.0185 0.2382,-0.0185"/><polyline points="-0.4184,-0.0415 0.2382,-0.0415"/><polyline points="-0.4184,-0.0644 0.2382,-0.0644"/><polyline points="-0.4184,-0.0874 0.2382,-0.0874"/></g></g></g><g class="axisbar"><g stroke-width="0" stroke="rgb(0%, 0%, 0%)" stroke-opacity="0" fill="rgb(5%, 5%, 5%)" fill-opacity="0.4"><rect width="0.0016" height="0.2539" x="-0.4241" y="-0.0879"/></g></g></g><g class="axis"><g class="ticks"><g class="tickglyph"><g stroke-width="0.0040" stroke="rgb(5%, 5%, 5%)" stroke-opacity="0.4" fill="rgb(5%, 5%, 5%)" fill-opacity="0.4"><polyline points="-0.3772,0.1882
-0.3772,0.1582"/><polyline points="-0.3603,0.1882
-0.3603,0.1582"/><polyline points="-0.3434,0.1882
-0.3434,0.1582"/><polyline points="-0.3265,0.1882
-0.3265,0.1582"/><polyline points="-0.3096,0.1882
-0.3096,0.1582"/><polyline points="-0.2928,0.1882
-0.2928,0.1582"/><polyline points="-0.2759,0.1882
-0.2759,0.1582"/><polyline points="-0.2590,0.1882
-0.2590,0.1582"/><polyline points="-0.2421,0.1882
-0.2421,0.1582"/><polyline points="-0.2252,0.1882
-0.2252,0.1582"/><polyline points="-0.2083,0.1882
-0.2083,0.1582"/><polyline points="-0.1915,0.1882
-0.1915,0.1582"/><polyline points="-0.1746,0.1882
-0.1746,0.1582"/><polyline points="-0.1577,0.1882
-0.1577,0.1582"/><polyline points="-0.1408,0.1882
-0.1408,0.1582"/><polyline points="-0.1239,0.1882
-0.1239,0.1582"/><polyline points="-0.1070,0.1882
-0.1070,0.1582"/><polyline points="-0.0901,0.1882
-0.0901,0.1582"/><polyline points="-0.0733,0.1882
-0.0733,0.1582"/><polyline points="-0.0564,0.1882
-0.0564,0.1582"/><polyline points="-0.0395,0.1882
-0.0395,0.1582"/><polyline points="-0.0226,0.1882
-0.0226,0.1582"/><polyline points="-0.0057,0.1882
-0.0057,0.1582"/><polyline points="0.0112,0.1882
0.0112,0.1582"/><polyline points="0.0280,0.1882
0.0280,0.1582"/><polyline points="0.0449,0.1882
0.0449,0.1582"/><polyline points="0.0618,0.1882
0.0618,0.1582"/><polyline points="0.0787,0.1882
0.0787,0.1582"/><polyline points="0.0956,0.1882
0.0956,0.1582"/><polyline points="0.1125,0.1882
0.1125,0.1582"/><polyline points="0.1293,0.1882
0.1293,0.1582"/><polyline points="0.1462,0.1882
0.1462,0.1582"/><polyline points="0.1631,0.1882
0.1631,0.1582"/><polyline points="0.1800,0.1882
0.1800,0.1582"/><polyline points="0.1969,0.1882
0.1969,0.1582"/></g></g><g class="ticktext"><g stroke-width="0.0" stroke="none" fill="rgb(5%, 5%, 5%)" fill-opacity="1.0" font-size="0.0203" text-anchor="end"><text x="-0.3772" y="0.1892" transform="rotate(-45.0, -0.3772, 0.1892)">CDCL (adaptive)</text><text x="-0.3603" y="0.1892" transform="rotate(-45.0, -0.3603, 0.1892)">CDCL (adaptive), Baseline</text><text x="-0.3434" y="0.1892" transform="rotate(-45.0, -0.3434, 0.1892)">CDCL (adaptive, mVISDS, ExpRestart(100, 2))</text><text x="-0.3265" y="0.1892" transform="rotate(-45.0, -0.3265, 0.1892)">CDCL (adaptive, mVISDS, ExpRestart(100, 2)), Baseline</text><text x="-0.3096" y="0.1892" transform="rotate(-45.0, -0.3096, 0.1892)">CDCL (adaptive, mVISDS, ExpRestart(100, 2), Clause Decay 0.999)</text><text x="-0.2928" y="0.1892" transform="rotate(-45.0, -0.2928, 0.1892)">CDCL (adaptive, mVISDS, LubyRestart(100, 2))</text><text x="-0.2759" y="0.1892" transform="rotate(-45.0, -0.2759, 0.1892)">CDCL (adaptive, mVISDS, LubyRestart(100, 2)), Baseline</text><text x="-0.2590" y="0.1892" transform="rotate(-45.0, -0.2590, 0.1892)">CDCL (adaptive, mVISDS, LubyRestart(100, 2), Clause Decay)</text><text x="-0.2421" y="0.1892" transform="rotate(-45.0, -0.2421, 0.1892)">CDCL (adaptive, mVSIDS)</text><text x="-0.2252" y="0.1892" transform="rotate(-45.0, -0.2252, 0.1892)">CDCL (adaptive, mVSIDS), Baseline</text><text x="-0.2083" y="0.1892" transform="rotate(-45.0, -0.2083, 0.1892)">CDCL (adaptive, mVSIDS, Clause Decay 0.999)</text><text x="-0.1915" y="0.1892" transform="rotate(-45.0, -0.1915, 0.1892)">CDCL (α = 0.75)</text><text x="-0.1746" y="0.1892" transform="rotate(-45.0, -0.1746, 0.1892)">CDCL (α = 0.75), Baseline</text><text x="-0.1577" y="0.1892" transform="rotate(-45.0, -0.1577, 0.1892)">CDCL (α = 0.75, mVISDS)</text><text x="-0.1408" y="0.1892" transform="rotate(-45.0, -0.1408, 0.1892)">CDCL (α = 0.75, mVISDS), Baseline</text><text x="-0.1239" y="0.1892" transform="rotate(-45.0, -0.1239, 0.1892)">CDCL (α = 0.75, mVISDS, Clause Decay 0.999)</text><text x="-0.1070" y="0.1892" transform="rotate(-45.0, -0.1070, 0.1892)">CDCL (α = 0.75, mVISDS, ExpRestart(100, 2))</text><text x="-0.0901" y="0.1892" transform="rotate(-45.0, -0.0901, 0.1892)">CDCL (α = 0.75, mVISDS, ExpRestart(100, 2)), Baseline</text><text x="-0.0733" y="0.1892" transform="rotate(-45.0, -0.0733, 0.1892)">CDCL (α = 0.75, mVISDS, ExpRestart(100, 2), Clause Decay 0.999)</text><text x="-0.0564" y="0.1892" transform="rotate(-45.0, -0.0564, 0.1892)">CDCL (α = 0.75, mVISDS, LubyRestart(100, 2))</text><text x="-0.0395" y="0.1892" transform="rotate(-45.0, -0.0395, 0.1892)">CDCL (α = 0.75, mVISDS, LubyRestart(100, 2)), Baseline</text><text x="-0.0226" y="0.1892" transform="rotate(-45.0, -0.0226, 0.1892)">CDCL (α = 0.75, mVISDS, LubyRestart(100, 2), Clause Decay 0.999)</text><text x="-0.0057" y="0.1892" transform="rotate(-45.0, -0.0057, 0.1892)">CDCL (α = 0.95)</text><text x="0.0112" y="0.1892" transform="rotate(-45.0, 0.0112, 0.1892)">CDCL (α = 0.95), Baseline</text><text x="0.0280" y="0.1892" transform="rotate(-45.0, 0.0280, 0.1892)">CDCL (α = 0.95, mVISDS)</text><text x="0.0449" y="0.1892" transform="rotate(-45.0, 0.0449, 0.1892)">CDCL (α = 0.95, mVISDS), Baseline</text><text x="0.0618" y="0.1892" transform="rotate(-45.0, 0.0618, 0.1892)">CDCL (α = 0.95, mVISDS, Clause Decay 0.999)</text><text x="0.0787" y="0.1892" transform="rotate(-45.0, 0.0787, 0.1892)">CDCL (α = 0.95, mVISDS, ExpRestart(100, 2))</text><text x="0.0956" y="0.1892" transform="rotate(-45.0, 0.0956, 0.1892)">CDCL (α = 0.95, mVISDS, ExpRestart(100, 2)), Baseline</text><text x="0.1125" y="0.1892" transform="rotate(-45.0, 0.1125, 0.1892)">CDCL (α = 0.95, mVISDS, ExpRestart(100, 2), Clause Decay 0.999)</text><text x="0.1293" y="0.1892" transform="rotate(-45.0, 0.1293, 0.1892)">CDCL (α = 0.95, mVISDS, LubyRestart(100, 2))</text><text x="0.1462" y="0.1892" transform="rotate(-45.0, 0.1462, 0.1892)">CDCL (α = 0.95, mVISDS, LubyRestart(100, 2)), Baseline</text><text x="0.1631" y="0.1892" transform="rotate(-45.0, 0.1631, 0.1892)">CDCL (α = 0.95, mVISDS, LubyRestart(100, 2), Clause Decay 0.999)</text><text x="0.1800" y="0.1892" transform="rotate(-45.0, 0.1800, 0.1892)">DPLL</text><text x="0.1969" y="0.1892" transform="rotate(-45.0, 0.1969, 0.1892)">DPLL, Baseline</text></g></g></g><g class="axisbar"><g stroke-width="0" stroke="rgb(0%, 0%, 0%)" stroke-opacity="0" fill="rgb(5%, 5%, 5%)" fill-opacity="0.4"><rect width="0.6582" height="0.0010" x="-0.4193" y="0.1681"/></g></g></g><g class="title"><g stroke-width="0.0" stroke="none" fill="rgb(5%, 5%, 5%)" fill-opacity="1.0" font-size="0.0487" text-anchor="middle"><text x="-0.2443" y="-0.1133">Time: SATLIB/uf20-91/uf20-030/cnf</text></g></g><g class="legend"><g class="legendBorder"><g stroke-width="0.0017" stroke="rgb(5%, 5%, 5%)" stroke-opacity="1.0" fill="rgb(5%, 5%, 5%)" fill-opacity="0"><rect width="0.4179" height="0.6251" x="0.3086" y="-0.4485"/></g></g><g class="legendContent"><g stroke-width="0.0" stroke="none" fill="rgb(5%, 5%, 5%)" fill-opacity="1.0" font-size="0.0128" text-anchor="start"><text x="0.3157" y="0.1675">DPLL, Baseline</text></g><g stroke-width="0.0002" stroke="rgb(0%, 49%, 30%)" stroke-opacity="1.0" fill="rgb(0%, 49%, 30%)" fill-opacity="0.25"><rect width="0.0213" height="0.0133" x="0.6980" y="0.1588"/></g><g stroke-width="0.0" stroke="none" fill="rgb(5%, 5%, 5%)" fill-opacity="1.0" font-size="0.0128" text-anchor="start"><text x="0.3157" y="0.1497">DPLL</text></g><g stroke-width="0" stroke="rgb(2%, 29%, 48%)" stroke-opacity="1.0" fill="rgb(0%, 49%, 30%)" fill-opacity="1.0"><rect width="0.0213" height="0.0133" x="0.6980" y="0.1411"/></g><g stroke-width="0.0" stroke="none" fill="rgb(5%, 5%, 5%)" fill-opacity="1.0" font-size="0.0128" text-anchor="start"><text x="0.3157" y="0.1320">CDCL (α = 0.95, mVISDS, LubyRestart(100, 2), Clause Decay 0.999)</text></g><g stroke-width="0" stroke="rgb(2%, 29%, 48%)" stroke-opacity="1.0" fill="rgb(0%, 38%, 61%)" fill-opacity="1.0"><rect width="0.0213" height="0.0133" x="0.6980" y="0.1233"/></g><g stroke-width="0.0" stroke="none" fill="rgb(5%, 5%, 5%)" fill-opacity="1.0" font-size="0.0128" text-anchor="start"><text x="0.3157" y="0.1143">CDCL (α = 0.95, mVISDS, LubyRestart(100, 2)), Baseline</text></g><g stroke-width="0.0002" stroke="rgb(100%, 37%, 0%)" stroke-opacity="1.0" fill="rgb(100%, 37%, 0%)" fill-opacity="0.25"><rect width="0.0213" height="0.0133" x="0.6980" y="0.1056"/></g><g stroke-width="0.0" stroke="none" fill="rgb(5%, 5%, 5%)" fill-opacity="1.0" font-size="0.0128" text-anchor="start"><text x="0.3157" y="0.0965">CDCL (α = 0.95, mVISDS, LubyRestart(100, 2))</text></g><g stroke-width="0" stroke="rgb(2%, 29%, 48%)" stroke-opacity="1.0" fill="rgb(100%, 37%, 0%)" fill-opacity="1.0"><rect width="0.0213" height="0.0133" x="0.6980" y="0.0879"/></g><g stroke-width="0.0" stroke="none" fill="rgb(5%, 5%, 5%)" fill-opacity="1.0" font-size="0.0128" text-anchor="start"><text x="0.3157" y="0.0788">CDCL (α = 0.95, mVISDS, ExpRestart(100, 2), Clause Decay 0.999)</text></g><g stroke-width="0" stroke="rgb(2%, 29%, 48%)" stroke-opacity="1.0" fill="rgb(54%, 0%, 0%)" fill-opacity="1.0"><rect width="0.0213" height="0.0133" x="0.6980" y="0.0702"/></g><g stroke-width="0.0" stroke="none" fill="rgb(5%, 5%, 5%)" fill-opacity="1.0" font-size="0.0128" text-anchor="start"><text x="0.3157" y="0.0611">CDCL (α = 0.95, mVISDS, ExpRestart(100, 2)), Baseline</text></g><g stroke-width="0.0002" stroke="rgb(42%, 44%, 14%)" stroke-opacity="1.0" fill="rgb(42%, 44%, 14%)" fill-opacity="0.25"><rect width="0.0213" height="0.0133" x="0.6980" y="0.0524"/></g><g stroke-width="0.0" stroke="none" fill="rgb(5%, 5%, 5%)" fill-opacity="1.0" font-size="0.0128" text-anchor="start"><text x="0.3157" y="0.0433">CDCL (α = 0.95, mVISDS, ExpRestart(100, 2))</text></g><g stroke-width="0" stroke="rgb(2%, 29%, 48%)" stroke-opacity="1.0" fill="rgb(42%, 44%, 14%)" fill-opacity="1.0"><rect width="0.0213" height="0.0133" x="0.6980" y="0.0347"/></g><g stroke-width="0.0" stroke="none" fill="rgb(5%, 5%, 5%)" fill-opacity="1.0" font-size="0.0128" text-anchor="start"><text x="0.3157" y="0.0256">CDCL (α = 0.95, mVISDS, Clause Decay 0.999)</text></g><g stroke-width="0" stroke="rgb(2%, 29%, 48%)" stroke-opacity="1.0" fill="rgb(18%, 22%, 10%)" fill-opacity="1.0"><rect width="0.0213" height="0.0133" x="0.6980" y="0.0170"/></g><g stroke-width="0.0" stroke="none" fill="rgb(5%, 5%, 5%)" fill-opacity="1.0" font-size="0.0128" text-anchor="start"><text x="0.3157" y="0.0079">CDCL (α = 0.95, mVISDS), Baseline</text></g><g stroke-width="0.0002" stroke="rgb(0%, 42%, 48%)" stroke-opacity="1.0" fill="rgb(0%, 42%, 48%)" fill-opacity="0.25"><rect width="0.0213" height="0.0133" x="0.6980" y="-0.0008"/></g><g stroke-width="0.0" stroke="none" fill="rgb(5%, 5%, 5%)" fill-opacity="1.0" font-size="0.0128" text-anchor="start"><text x="0.3157" y="-0.0099">CDCL (α = 0.95, mVISDS)</text></g><g stroke-width="0" stroke="rgb(2%, 29%, 48%)" stroke-opacity="1.0" fill="rgb(0%, 42%, 48%)" fill-opacity="1.0"><rect width="0.0213" height="0.0133" x="0.6980" y="-0.0185"/></g><g stroke-width="0.0" stroke="none" fill="rgb(5%, 5%, 5%)" fill-opacity="1.0" font-size="0.0128" text-anchor="start"><text x="0.3157" y="-0.0276">CDCL (α = 0.95), Baseline</text></g><g stroke-width="0.0002" stroke="rgb(69%, 17%, 0%)" stroke-opacity="1.0" fill="rgb(69%, 17%, 0%)" fill-opacity="0.25"><rect width="0.0213" height="0.0133" x="0.6980" y="-0.0362"/></g><g stroke-width="0.0" stroke="none" fill="rgb(5%, 5%, 5%)" fill-opacity="1.0" font-size="0.0128" text-anchor="start"><text x="0.3157" y="-0.0454">CDCL (α = 0.95)</text></g><g stroke-width="0" stroke="rgb(2%, 29%, 48%)" stroke-opacity="1.0" fill="rgb(69%, 17%, 0%)" fill-opacity="1.0"><rect width="0.0213" height="0.0133" x="0.6980" y="-0.0540"/></g><g stroke-width="0.0" stroke="none" fill="rgb(5%, 5%, 5%)" fill-opacity="1.0" font-size="0.0128" text-anchor="start"><text x="0.3157" y="-0.0631">CDCL (α = 0.75, mVISDS, LubyRestart(100, 2), Clause Decay 0.999)</text></g><g stroke-width="0" stroke="rgb(2%, 29%, 48%)" stroke-opacity="1.0" fill="rgb(53%, 24%, 0%)" fill-opacity="1.0"><rect width="0.0213" height="0.0133" x="0.6980" y="-0.0717"/></g><g stroke-width="0.0" stroke="none" fill="rgb(5%, 5%, 5%)" fill-opacity="1.0" font-size="0.0128" text-anchor="start"><text x="0.3157" y="-0.0808">CDCL (α = 0.75, mVISDS, LubyRestart(100, 2)), Baseline</text></g><g stroke-width="0.0002" stroke="rgb(57%, 62%, 78%)" stroke-opacity="1.0" fill="rgb(57%, 62%, 78%)" fill-opacity="0.25"><rect width="0.0213" height="0.0133" x="0.6980" y="-0.0894"/></g><g stroke-width="0.0" stroke="none" fill="rgb(5%, 5%, 5%)" fill-opacity="1.0" font-size="0.0128" text-anchor="start"><text x="0.3157" y="-0.0986">CDCL (α = 0.75, mVISDS, LubyRestart(100, 2))</text></g><g stroke-width="0" stroke="rgb(2%, 29%, 48%)" stroke-opacity="1.0" fill="rgb(57%, 62%, 78%)" fill-opacity="1.0"><rect width="0.0213" height="0.0133" x="0.6980" y="-0.1072"/></g><g stroke-width="0.0" stroke="none" fill="rgb(5%, 5%, 5%)" fill-opacity="1.0" font-size="0.0128" text-anchor="start"><text x="0.3157" y="-0.1163">CDCL (α = 0.75, mVISDS, ExpRestart(100, 2), Clause Decay 0.999)</text></g><g stroke-width="0" stroke="rgb(2%, 29%, 48%)" stroke-opacity="1.0" fill="rgb(98%, 15%, 25%)" fill-opacity="1.0"><rect width="0.0213" height="0.0133" x="0.6980" y="-0.1249"/></g><g stroke-width="0.0" stroke="none" fill="rgb(5%, 5%, 5%)" fill-opacity="1.0" font-size="0.0128" text-anchor="start"><text x="0.3157" y="-0.1340">CDCL (α = 0.75, mVISDS, ExpRestart(100, 2)), Baseline</text></g><g stroke-width="0.0002" stroke="rgb(0%, 72%, 67%)" stroke-opacity="1.0" fill="rgb(0%, 72%, 67%)" fill-opacity="0.25"><rect width="0.0213" height="0.0133" x="0.6980" y="-0.1426"/></g><g stroke-width="0.0" stroke="none" fill="rgb(5%, 5%, 5%)" fill-opacity="1.0" font-size="0.0128" text-anchor="start"><text x="0.3157" y="-0.1518">CDCL (α = 0.75, mVISDS, ExpRestart(100, 2))</text></g><g stroke-width="0" stroke="rgb(2%, 29%, 48%)" stroke-opacity="1.0" fill="rgb(0%, 72%, 67%)" fill-opacity="1.0"><rect width="0.0213" height="0.0133" x="0.6980" y="-0.1604"/></g><g stroke-width="0.0" stroke="none" fill="rgb(5%, 5%, 5%)" fill-opacity="1.0" font-size="0.0128" text-anchor="start"><text x="0.3157" y="-0.1695">CDCL (α = 0.75, mVISDS, Clause Decay 0.999)</text></g><g stroke-width="0" stroke="rgb(2%, 29%, 48%)" stroke-opacity="1.0" fill="rgb(35%, 24%, 0%)" fill-opacity="1.0"><rect width="0.0213" height="0.0133" x="0.6980" y="-0.1781"/></g><g stroke-width="0.0" stroke="none" fill="rgb(5%, 5%, 5%)" fill-opacity="1.0" font-size="0.0128" text-anchor="start"><text x="0.3157" y="-0.1872">CDCL (α = 0.75, mVISDS), Baseline</text></g><g stroke-width="0.0002" stroke="rgb(48%, 65%, 0%)" stroke-opacity="1.0" fill="rgb(48%, 65%, 0%)" fill-opacity="0.25"><rect width="0.0213" height="0.0133" x="0.6980" y="-0.1958"/></g><g stroke-width="0.0" stroke="none" fill="rgb(5%, 5%, 5%)" fill-opacity="1.0" font-size="0.0128" text-anchor="start"><text x="0.3157" y="-0.2049">CDCL (α = 0.75, mVISDS)</text></g><g stroke-width="0" stroke="rgb(2%, 29%, 48%)" stroke-opacity="1.0" fill="rgb(48%, 65%, 0%)" fill-opacity="1.0"><rect width="0.0213" height="0.0133" x="0.6980" y="-0.2136"/></g><g stroke-width="0.0" stroke="none" fill="rgb(5%, 5%, 5%)" fill-opacity="1.0" font-size="0.0128" text-anchor="start"><text x="0.3157" y="-0.2227">CDCL (α = 0.75), Baseline</text></g><g stroke-width="0.0002" stroke="rgb(20%, 15%, 40%)" stroke-opacity="1.0" fill="rgb(20%, 15%, 40%)" fill-opacity="0.25"><rect width="0.0213" height="0.0133" x="0.6980" y="-0.2313"/></g><g stroke-width="0.0" stroke="none" fill="rgb(5%, 5%, 5%)" fill-opacity="1.0" font-size="0.0128" text-anchor="start"><text x="0.3157" y="-0.2404">CDCL (α = 0.75)</text></g><g stroke-width="0" stroke="rgb(2%, 29%, 48%)" stroke-opacity="1.0" fill="rgb(20%, 15%, 40%)" fill-opacity="1.0"><rect width="0.0213" height="0.0133" x="0.6980" y="-0.2490"/></g><g stroke-width="0.0" stroke="none" fill="rgb(5%, 5%, 5%)" fill-opacity="1.0" font-size="0.0128" text-anchor="start"><text x="0.3157" y="-0.2581">CDCL (adaptive, mVSIDS, Clause Decay 0.999)</text></g><g stroke-width="0" stroke="rgb(2%, 29%, 48%)" stroke-opacity="1.0" fill="rgb(37%, 17%, 0%)" fill-opacity="1.0"><rect width="0.0213" height="0.0133" x="0.6980" y="-0.2668"/></g><g stroke-width="0.0" stroke="none" fill="rgb(5%, 5%, 5%)" fill-opacity="1.0" font-size="0.0128" text-anchor="start"><text x="0.3157" y="-0.2759">CDCL (adaptive, mVSIDS), Baseline</text></g><g stroke-width="0.0002" stroke="rgb(72%, 66%, 0%)" stroke-opacity="1.0" fill="rgb(72%, 66%, 0%)" fill-opacity="0.25"><rect width="0.0213" height="0.0133" x="0.6980" y="-0.2845"/></g><g stroke-width="0.0" stroke="none" fill="rgb(5%, 5%, 5%)" fill-opacity="1.0" font-size="0.0128" text-anchor="start"><text x="0.3157" y="-0.2936">CDCL (adaptive, mVSIDS)</text></g><g stroke-width="0" stroke="rgb(2%, 29%, 48%)" stroke-opacity="1.0" fill="rgb(72%, 66%, 0%)" fill-opacity="1.0"><rect width="0.0213" height="0.0133" x="0.6980" y="-0.3022"/></g><g stroke-width="0.0" stroke="none" fill="rgb(5%, 5%, 5%)" fill-opacity="1.0" font-size="0.0128" text-anchor="start"><text x="0.3157" y="-0.3113">CDCL (adaptive, mVISDS, LubyRestart(100, 2), Clause Decay)</text></g><g stroke-width="0" stroke="rgb(2%, 29%, 48%)" stroke-opacity="1.0" fill="rgb(0%, 21%, 55%)" fill-opacity="1.0"><rect width="0.0213" height="0.0133" x="0.6980" y="-0.3200"/></g><g stroke-width="0.0" stroke="none" fill="rgb(5%, 5%, 5%)" fill-opacity="1.0" font-size="0.0128" text-anchor="start"><text x="0.3157" y="-0.3291">CDCL (adaptive, mVISDS, LubyRestart(100, 2)), Baseline</text></g><g stroke-width="0.0002" stroke="rgb(0%, 36%, 0%)" stroke-opacity="1.0" fill="rgb(0%, 36%, 0%)" fill-opacity="0.25"><rect width="0.0213" height="0.0133" x="0.6980" y="-0.3377"/></g><g stroke-width="0.0" stroke="none" fill="rgb(5%, 5%, 5%)" fill-opacity="1.0" font-size="0.0128" text-anchor="start"><text x="0.3157" y="-0.3468">CDCL (adaptive, mVISDS, LubyRestart(100, 2))</text></g><g stroke-width="0" stroke="rgb(2%, 29%, 48%)" stroke-opacity="1.0" fill="rgb(0%, 36%, 0%)" fill-opacity="1.0"><rect width="0.0213" height="0.0133" x="0.6980" y="-0.3554"/></g><g stroke-width="0.0" stroke="none" fill="rgb(5%, 5%, 5%)" fill-opacity="1.0" font-size="0.0128" text-anchor="start"><text x="0.3157" y="-0.3645">CDCL (adaptive, mVISDS, ExpRestart(100, 2), Clause Decay 0.999)</text></g><g stroke-width="0" stroke="rgb(2%, 29%, 48%)" stroke-opacity="1.0" fill="rgb(70%, 21%, 0%)" fill-opacity="1.0"><rect width="0.0213" height="0.0133" x="0.6980" y="-0.3732"/></g><g stroke-width="0.0" stroke="none" fill="rgb(5%, 5%, 5%)" fill-opacity="1.0" font-size="0.0128" text-anchor="start"><text x="0.3157" y="-0.3823">CDCL (adaptive, mVISDS, ExpRestart(100, 2)), Baseline</text></g><g stroke-width="0.0002" stroke="rgb(47%, 34%, 0%)" stroke-opacity="1.0" fill="rgb(47%, 34%, 0%)" fill-opacity="0.25"><rect width="0.0213" height="0.0133" x="0.6980" y="-0.3909"/></g><g stroke-width="0.0" stroke="none" fill="rgb(5%, 5%, 5%)" fill-opacity="1.0" font-size="0.0128" text-anchor="start"><text x="0.3157" y="-0.4000">CDCL (adaptive, mVISDS, ExpRestart(100, 2))</text></g><g stroke-width="0" stroke="rgb(2%, 29%, 48%)" stroke-opacity="1.0" fill="rgb(47%, 34%, 0%)" fill-opacity="1.0"><rect width="0.0213" height="0.0133" x="0.6980" y="-0.4086"/></g><g stroke-width="0.0" stroke="none" fill="rgb(5%, 5%, 5%)" fill-opacity="1.0" font-size="0.0128" text-anchor="start"><text x="0.3157" y="-0.4177">CDCL (adaptive), Baseline</text></g><g stroke-width="0.0002" stroke="rgb(57%, 0%, 21%)" stroke-opacity="1.0" fill="rgb(57%, 0%, 21%)" fill-opacity="0.25"><rect width="0.0213" height="0.0133" x="0.6980" y="-0.4264"/></g><g stroke-width="0.0" stroke="none" fill="rgb(5%, 5%, 5%)" fill-opacity="1.0" font-size="0.0128" text-anchor="start"><text x="0.3157" y="-0.4355">CDCL (adaptive)</text></g><g stroke-width="0" stroke="rgb(2%, 29%, 48%)" stroke-opacity="1.0" fill="rgb(57%, 0%, 21%)" fill-opacity="1.0"><rect width="0.0213" height="0.0133" x="0.6980" y="-0.4441"/></g></g></g><g class="frame"><g stroke-width="0" stroke="rgb(0%, 0%, 0%)" stroke-opacity="0" fill="rgb(100%, 100%, 100%)" fill-opacity="0.02"><rect width="1.6180" height="1.0" x="-0.8090" y="-0.5"/></g></g><g class="title"><g stroke-width="0.0" stroke="none" fill="rgb(5%, 5%, 5%)" fill-opacity="1.0" font-size="0.0243" text-anchor="middle"><text x="-0.7514" y="0" transform="rotate(-90.0, -0.7514, 0)">Time [ms]</text></g></g></g></svg>