<svg xmlns="http://www.w3.org/2000/svg" xmlns:xlink="http://www.w3.org/1999/xlink" width="438" height="300" viewBox="-0.8090 -0.5 1.6180 1.1067"><style>svg {
  color-scheme: light dark;
}
{
  .canvas g, .title g, .axisbar g, .ticktext g, .tickglyph g, .ticklines g, .legendContent g text {
    fill: rgb(5%, 5%, 5%);
  }
  .ticklines g, .tickglyph g, .legendBorder g {
    stroke: rgb(5%, 5%, 5%);
  }
  .legendBorder g {
    fill: rgb(94%, 94%, 94%);
  }
}
@media (prefers-color-scheme:dark) {
  .canvas g, .title g, .axisbar g, .ticktext g, .tickglyph g, .ticklines g, .legendContent g text {
    fill: rgb(94%, 94%, 94%);
  }
  .ticklines g, .tickglyph g, .legendBorder g {
    stroke: rgb(94%, 94%, 94%);
  }
  .legendBorder g {
    fill: rgb(5%, 5%, 5%);
  }
}</style><g class="chart"><g class="barchart"><g stroke-width="0" stroke="rgb(2%, 29%, 48%)" stroke-opacity="1.0" fill="rgb(57%, 0%, 21%)" fill-opacity="1.0"><rect width="0.0169" height="0.0320" x="-0.3856" y="0.1335"/></g><g stroke-width="0.0010" stroke="rgb(57%, 0%, 21%)" stroke-opacity="1.0" fill="rgb(57%, 0%, 21%)" fill-opacity="0.25"><rect width="0.0169" height="0.0265" x="-0.3687" y="0.1390"/></g><g stroke-width="0" stroke="rgb(2%, 29%, 48%)" stroke-opacity="1.0" fill="rgb(47%, 34%, 0%)" fill-opacity="1.0"><rect width="0.0169" height="0.0316" x="-0.3518" y="0.1339"/></g><g stroke-width="0.0010" stroke="rgb(47%, 34%, 0%)" stroke-opacity="1.0" fill="rgb(47%, 34%, 0%)" fill-opacity="0.25"><rect width="0.0169" height="0.0264" x="-0.3350" y="0.1391"/></g><g stroke-width="0" stroke="rgb(2%, 29%, 48%)" stroke-opacity="1.0" fill="rgb(70%, 21%, 0%)" fill-opacity="1.0"><rect width="0.0169" height="0.0326" x="-0.3181" y="0.1328"/></g><g stroke-width="0" stroke="rgb(2%, 29%, 48%)" stroke-opacity="1.0" fill="rgb(0%, 36%, 0%)" fill-opacity="1.0"><rect width="0.0169" height="0.0310" x="-0.3012" y="0.1345"/></g><g stroke-width="0.0010" stroke="rgb(0%, 36%, 0%)" stroke-opacity="1.0" fill="rgb(0%, 36%, 0%)" fill-opacity="0.25"><rect width="0.0169" height="0.0267" x="-0.2843" y="0.1388"/></g><g stroke-width="0" stroke="rgb(2%, 29%, 48%)" stroke-opacity="1.0" fill="rgb(0%, 21%, 55%)" fill-opacity="1.0"><rect width="0.0169" height="0.0332" x="-0.2674" y="0.1323"/></g><g stroke-width="0" stroke="rgb(2%, 29%, 48%)" stroke-opacity="1.0" fill="rgb(72%, 66%, 0%)" fill-opacity="1.0"><rect width="0.0169" height="0.0311" x="-0.2505" y="0.1343"/></g><g stroke-width="0.0010" stroke="rgb(72%, 66%, 0%)" stroke-opacity="1.0" fill="rgb(72%, 66%, 0%)" fill-opacity="0.25"><rect width="0.0169" height="0.0266" x="-0.2337" y="0.1389"/></g><g stroke-width="0" stroke="rgb(2%, 29%, 48%)" stroke-opacity="1.0" fill="rgb(37%, 17%, 0%)" fill-opacity="1.0"><rect width="0.0169" height="0.0313" x="-0.2168" y="0.1342"/></g><g stroke-width="0" stroke="rgb(2%, 29%, 48%)" stroke-opacity="1.0" fill="rgb(20%, 15%, 40%)" fill-opacity="1.0"><rect width="0.0169" height="0.0325" x="-0.1999" y="0.1329"/></g><g stroke-width="0.0010" stroke="rgb(20%, 15%, 40%)" stroke-opacity="1.0" fill="rgb(20%, 15%, 40%)" fill-opacity="0.25"><rect width="0.0169" height="0.0267" x="-0.1830" y="0.1388"/></g><g stroke-width="0" stroke="rgb(2%, 29%, 48%)" stroke-opacity="1.0" fill="rgb(48%, 65%, 0%)" fill-opacity="1.0"><rect width="0.0169" height="0.0324" x="-0.1661" y="0.1331"/></g><g stroke-width="0.0010" stroke="rgb(48%, 65%, 0%)" stroke-opacity="1.0" fill="rgb(48%, 65%, 0%)" fill-opacity="0.25"><rect width="0.0169" height="0.0265" x="-0.1492" y="0.1390"/></g><g stroke-width="0" stroke="rgb(2%, 29%, 48%)" stroke-opacity="1.0" fill="rgb(35%, 24%, 0%)" fill-opacity="1.0"><rect width="0.0169" height="0.0327" x="-0.1324" y="0.1328"/></g><g stroke-width="0" stroke="rgb(2%, 29%, 48%)" stroke-opacity="1.0" fill="rgb(0%, 72%, 67%)" fill-opacity="1.0"><rect width="0.0169" height="0.0314" x="-0.1155" y="0.1341"/></g><g stroke-width="0.0010" stroke="rgb(0%, 72%, 67%)" stroke-opacity="1.0" fill="rgb(0%, 72%, 67%)" fill-opacity="0.25"><rect width="0.0169" height="0.0272" x="-0.0986" y="0.1383"/></g><g stroke-width="0" stroke="rgb(2%, 29%, 48%)" stroke-opacity="1.0" fill="rgb(98%, 15%, 25%)" fill-opacity="1.0"><rect width="0.0169" height="0.0321" x="-0.0817" y="0.1334"/></g><g stroke-width="0" stroke="rgb(2%, 29%, 48%)" stroke-opacity="1.0" fill="rgb(57%, 62%, 78%)" fill-opacity="1.0"><rect width="0.0169" height="0.0327" x="-0.0648" y="0.1328"/></g><g stroke-width="0.0010" stroke="rgb(57%, 62%, 78%)" stroke-opacity="1.0" fill="rgb(57%, 62%, 78%)" fill-opacity="0.25"><rect width="0.0169" height="0.0270" x="-0.0479" y="0.1384"/></g><g stroke-width="0" stroke="rgb(2%, 29%, 48%)" stroke-opacity="1.0" fill="rgb(53%, 24%, 0%)" fill-opacity="1.0"><rect width="0.0169" height="0.0326" x="-0.0311" y="0.1328"/></g><g stroke-width="0" stroke="rgb(2%, 29%, 48%)" stroke-opacity="1.0" fill="rgb(69%, 17%, 0%)" fill-opacity="1.0"><rect width="0.0169" height="0.0334" x="-0.0142" y="0.1321"/></g><g stroke-width="0.0010" stroke="rgb(69%, 17%, 0%)" stroke-opacity="1.0" fill="rgb(69%, 17%, 0%)" fill-opacity="0.25"><rect width="0.0169" height="0.0270" x="0.0027" y="0.1385"/></g><g stroke-width="0" stroke="rgb(2%, 29%, 48%)" stroke-opacity="1.0" fill="rgb(0%, 42%, 48%)" fill-opacity="1.0"><rect width="0.0169" height="0.0331" x="0.0196" y="0.1324"/></g><g stroke-width="0.0010" stroke="rgb(0%, 42%, 48%)" stroke-opacity="1.0" fill="rgb(0%, 42%, 48%)" fill-opacity="0.25"><rect width="0.0169" height="0.0267" x="0.0365" y="0.1388"/></g><g stroke-width="0" stroke="rgb(2%, 29%, 48%)" stroke-opacity="1.0" fill="rgb(18%, 22%, 10%)" fill-opacity="1.0"><rect width="0.0169" height="0.0328" x="0.0534" y="0.1327"/></g><g stroke-width="0" stroke="rgb(2%, 29%, 48%)" stroke-opacity="1.0" fill="rgb(42%, 44%, 14%)" fill-opacity="1.0"><rect width="0.0169" height="0.0319" x="0.0703" y="0.1336"/></g><g stroke-width="0.0010" stroke="rgb(42%, 44%, 14%)" stroke-opacity="1.0" fill="rgb(42%, 44%, 14%)" fill-opacity="0.25"><rect width="0.0169" height="0.0270" x="0.0871" y="0.1385"/></g><g stroke-width="0" stroke="rgb(2%, 29%, 48%)" stroke-opacity="1.0" fill="rgb(54%, 0%, 0%)" fill-opacity="1.0"><rect width="0.0169" height="0.0319" x="0.1040" y="0.1336"/></g><g stroke-width="0" stroke="rgb(2%, 29%, 48%)" stroke-opacity="1.0" fill="rgb(100%, 37%, 0%)" fill-opacity="1.0"><rect width="0.0169" height="0.0329" x="0.1209" y="0.1326"/></g><g stroke-width="0.0010" stroke="rgb(100%, 37%, 0%)" stroke-opacity="1.0" fill="rgb(100%, 37%, 0%)" fill-opacity="0.25"><rect width="0.0169" height="0.0266" x="0.1378" y="0.1389"/></g><g stroke-width="0" stroke="rgb(2%, 29%, 48%)" stroke-opacity="1.0" fill="rgb(0%, 38%, 61%)" fill-opacity="1.0"><rect width="0.0169" height="0.0317" x="0.1547" y="0.1337"/></g><g stroke-width="0" stroke="rgb(2%, 29%, 48%)" stroke-opacity="1.0" fill="rgb(0%, 49%, 30%)" fill-opacity="1.0"><rect width="0.0169" height="0.2315" x="0.1716" y="-0.0661"/></g><g stroke-width="0.0010" stroke="rgb(0%, 49%, 30%)" stroke-opacity="1.0" fill="rgb(0%, 49%, 30%)" fill-opacity="0.25"><rect width="0.0169" height="0.2038" x="0.1884" y="-0.0384"/></g></g><g class="errors"><g stroke-width="0.0015" stroke="rgb(5%, 5%, 5%)" stroke-opacity="1.0" fill="none"><polyline points="-0.3789,0.1350 -0.3755,0.1350"/><polyline points="-0.3772,0.1350 -0.3772,0.1319"/><polyline points="-0.3789,0.1319 -0.3755,0.1319"/></g><g stroke-width="0.0015" stroke="rgb(5%, 5%, 5%)" stroke-opacity="1.0" fill="none"><polyline points="-0.3620,0.1400 -0.3586,0.1400"/><polyline points="-0.3603,0.1400 -0.3603,0.1380"/><polyline points="-0.3620,0.1380 -0.3586,0.1380"/></g><g stroke-width="0.0015" stroke="rgb(5%, 5%, 5%)" stroke-opacity="1.0" fill="none"><polyline points="-0.3451,0.1348 -0.3417,0.1348"/><polyline points="-0.3434,0.1348 -0.3434,0.1330"/><polyline points="-0.3451,0.1330 -0.3417,0.1330"/></g><g stroke-width="0.0015" stroke="rgb(5%, 5%, 5%)" stroke-opacity="1.0" fill="none"><polyline points="-0.3282,0.1399 -0.3248,0.1399"/><polyline points="-0.3265,0.1399 -0.3265,0.1382"/><polyline points="-0.3282,0.1382 -0.3248,0.1382"/></g><g stroke-width="0.0015" stroke="rgb(5%, 5%, 5%)" stroke-opacity="1.0" fill="none"><polyline points="-0.3113,0.1336 -0.3079,0.1336"/><polyline points="-0.3096,0.1336 -0.3096,0.1320"/><polyline points="-0.3113,0.1320 -0.3079,0.1320"/></g><g stroke-width="0.0015" stroke="rgb(5%, 5%, 5%)" stroke-opacity="1.0" fill="none"><polyline points="-0.2944,0.1360 -0.2911,0.1360"/><polyline points="-0.2928,0.1360 -0.2928,0.1330"/><polyline points="-0.2944,0.1330 -0.2911,0.1330"/></g><g stroke-width="0.0015" stroke="rgb(5%, 5%, 5%)" stroke-opacity="1.0" fill="none"><polyline points="-0.2776,0.1399 -0.2742,0.1399"/><polyline points="-0.2759,0.1399 -0.2759,0.1377"/><polyline points="-0.2776,0.1377 -0.2742,0.1377"/></g><g stroke-width="0.0015" stroke="rgb(5%, 5%, 5%)" stroke-opacity="1.0" fill="none"><polyline points="-0.2607,0.1334 -0.2573,0.1334"/><polyline points="-0.2590,0.1334 -0.2590,0.1312"/><polyline points="-0.2607,0.1312 -0.2573,0.1312"/></g><g stroke-width="0.0015" stroke="rgb(5%, 5%, 5%)" stroke-opacity="1.0" fill="none"><polyline points="-0.2438,0.1353 -0.2404,0.1353"/><polyline points="-0.2421,0.1353 -0.2421,0.1333"/><polyline points="-0.2438,0.1333 -0.2404,0.1333"/></g><g stroke-width="0.0015" stroke="rgb(5%, 5%, 5%)" stroke-opacity="1.0" fill="none"><polyline points="-0.2269,0.1401 -0.2235,0.1401"/><polyline points="-0.2252,0.1401 -0.2252,0.1376"/><polyline points="-0.2269,0.1376 -0.2235,0.1376"/></g><g stroke-width="0.0015" stroke="rgb(5%, 5%, 5%)" stroke-opacity="1.0" fill="none"><polyline points="-0.2100,0.1357 -0.2066,0.1357"/><polyline points="-0.2083,0.1357 -0.2083,0.1327"/><polyline points="-0.2100,0.1327 -0.2066,0.1327"/></g><g stroke-width="0.0015" stroke="rgb(5%, 5%, 5%)" stroke-opacity="1.0" fill="none"><polyline points="-0.1931,0.1337 -0.1898,0.1337"/><polyline points="-0.1915,0.1337 -0.1915,0.1321"/><polyline points="-0.1931,0.1321 -0.1898,0.1321"/></g><g stroke-width="0.0015" stroke="rgb(5%, 5%, 5%)" stroke-opacity="1.0" fill="none"><polyline points="-0.1763,0.1398 -0.1729,0.1398"/><polyline points="-0.1746,0.1398 -0.1746,0.1377"/><polyline points="-0.1763,0.1377 -0.1729,0.1377"/></g><g stroke-width="0.0015" stroke="rgb(5%, 5%, 5%)" stroke-opacity="1.0" fill="none"><polyline points="-0.1594,0.1341 -0.1560,0.1341"/><polyline points="-0.1577,0.1341 -0.1577,0.1321"/><polyline points="-0.1594,0.1321 -0.1560,0.1321"/></g><g stroke-width="0.0015" stroke="rgb(5%, 5%, 5%)" stroke-opacity="1.0" fill="none"><polyline points="-0.1425,0.1400 -0.1391,0.1400"/><polyline points="-0.1408,0.1400 -0.1408,0.1379"/><polyline points="-0.1425,0.1379 -0.1391,0.1379"/></g><g stroke-width="0.0015" stroke="rgb(5%, 5%, 5%)" stroke-opacity="1.0" fill="none"><polyline points="-0.1256,0.1332 -0.1222,0.1332"/><polyline points="-0.1239,0.1332 -0.1239,0.1323"/><polyline points="-0.1256,0.1323 -0.1222,0.1323"/></g><g stroke-width="0.0015" stroke="rgb(5%, 5%, 5%)" stroke-opacity="1.0" fill="none"><polyline points="-0.1087,0.1356 -0.1053,0.1356"/><polyline points="-0.1070,0.1356 -0.1070,0.1325"/><polyline points="-0.1087,0.1325 -0.1053,0.1325"/></g><g stroke-width="0.0015" stroke="rgb(5%, 5%, 5%)" stroke-opacity="1.0" fill="none"><polyline points="-0.0918,0.1392 -0.0885,0.1392"/><polyline points="-0.0901,0.1392 -0.0901,0.1374"/><polyline points="-0.0918,0.1374 -0.0885,0.1374"/></g><g stroke-width="0.0015" stroke="rgb(5%, 5%, 5%)" stroke-opacity="1.0" fill="none"><polyline points="-0.0750,0.1348 -0.0716,0.1348"/><polyline points="-0.0733,0.1348 -0.0733,0.1320"/><polyline points="-0.0750,0.1320 -0.0716,0.1320"/></g><g stroke-width="0.0015" stroke="rgb(5%, 5%, 5%)" stroke-opacity="1.0" fill="none"><polyline points="-0.0581,0.1340 -0.0547,0.1340"/><polyline points="-0.0564,0.1340 -0.0564,0.1315"/><polyline points="-0.0581,0.1315 -0.0547,0.1315"/></g><g stroke-width="0.0015" stroke="rgb(5%, 5%, 5%)" stroke-opacity="1.0" fill="none"><polyline points="-0.0412,0.1395 -0.0378,0.1395"/><polyline points="-0.0395,0.1395 -0.0395,0.1374"/><polyline points="-0.0412,0.1374 -0.0378,0.1374"/></g><g stroke-width="0.0015" stroke="rgb(5%, 5%, 5%)" stroke-opacity="1.0" fill="none"><polyline points="-0.0243,0.1341 -0.0209,0.1341"/><polyline points="-0.0226,0.1341 -0.0226,0.1315"/><polyline points="-0.0243,0.1315 -0.0209,0.1315"/></g><g stroke-width="0.0015" stroke="rgb(5%, 5%, 5%)" stroke-opacity="1.0" fill="none"><polyline points="-0.0074,0.1331 -0.0040,0.1331"/><polyline points="-0.0057,0.1331 -0.0057,0.1311"/><polyline points="-0.0074,0.1311 -0.0040,0.1311"/></g><g stroke-width="0.0015" stroke="rgb(5%, 5%, 5%)" stroke-opacity="1.0" fill="none"><polyline points="0.0095,0.1395 0.0128,0.1395"/><polyline points="0.0112,0.1395 0.0112,0.1375"/><polyline points="0.0095,0.1375 0.0128,0.1375"/></g><g stroke-width="0.0015" stroke="rgb(5%, 5%, 5%)" stroke-opacity="1.0" fill="none"><polyline points="0.0264,0.1340 0.0297,0.1340"/><polyline points="0.0280,0.1340 0.0280,0.1309"/><polyline points="0.0264,0.1309 0.0297,0.1309"/></g><g stroke-width="0.0015" stroke="rgb(5%, 5%, 5%)" stroke-opacity="1.0" fill="none"><polyline points="0.0432,0.1399 0.0466,0.1399"/><polyline points="0.0449,0.1399 0.0449,0.1376"/><polyline points="0.0432,0.1376 0.0466,0.1376"/></g><g stroke-width="0.0015" stroke="rgb(5%, 5%, 5%)" stroke-opacity="1.0" fill="none"><polyline points="0.0601,0.1339 0.0635,0.1339"/><polyline points="0.0618,0.1339 0.0618,0.1314"/><polyline points="0.0601,0.1314 0.0635,0.1314"/></g><g stroke-width="0.0015" stroke="rgb(5%, 5%, 5%)" stroke-opacity="1.0" fill="none"><polyline points="0.0770,0.1349 0.0804,0.1349"/><polyline points="0.0787,0.1349 0.0787,0.1323"/><polyline points="0.0770,0.1323 0.0804,0.1323"/></g><g stroke-width="0.0015" stroke="rgb(5%, 5%, 5%)" stroke-opacity="1.0" fill="none"><polyline points="0.0939,0.1389 0.0973,0.1389"/><polyline points="0.0956,0.1389 0.0956,0.1381"/><polyline points="0.0939,0.1381 0.0973,0.1381"/></g><g stroke-width="0.0015" stroke="rgb(5%, 5%, 5%)" stroke-opacity="1.0" fill="none"><polyline points="0.1108,0.1352 0.1141,0.1352"/><polyline points="0.1125,0.1352 0.1125,0.1320"/><polyline points="0.1108,0.1320 0.1141,0.1320"/></g><g stroke-width="0.0015" stroke="rgb(5%, 5%, 5%)" stroke-opacity="1.0" fill="none"><polyline points="0.1277,0.1339 0.1310,0.1339"/><polyline points="0.1293,0.1339 0.1293,0.1313"/><polyline points="0.1277,0.1313 0.1310,0.1313"/></g><g stroke-width="0.0015" stroke="rgb(5%, 5%, 5%)" stroke-opacity="1.0" fill="none"><polyline points="0.1445,0.1394 0.1479,0.1394"/><polyline points="0.1462,0.1394 0.1462,0.1384"/><polyline points="0.1445,0.1384 0.1479,0.1384"/></g><g stroke-width="0.0015" stroke="rgb(5%, 5%, 5%)" stroke-opacity="1.0" fill="none"><polyline points="0.1614,0.1349 0.1648,0.1349"/><polyline points="0.1631,0.1349 0.1631,0.1326"/><polyline points="0.1614,0.1326 0.1648,0.1326"/></g><g stroke-width="0.0015" stroke="rgb(5%, 5%, 5%)" stroke-opacity="1.0" fill="none"><polyline points="0.1783,-0.0563 0.1817,-0.0563"/><polyline points="0.1800,-0.0563 0.1800,-0.0759"/><polyline points="0.1783,-0.0759 0.1817,-0.0759"/></g><g stroke-width="0.0015" stroke="rgb(5%, 5%, 5%)" stroke-opacity="1.0" fill="none"><polyline points="0.1952,-0.0319 0.1986,-0.0319"/><polyline points="0.1969,-0.0319 0.1969,-0.0449"/><polyline points="0.1952,-0.0449 0.1986,-0.0449"/></g></g></g><g class="hud"><g class="axis"><g class="ticks"><g class="tickglyph"><g stroke-width="0.0040" stroke="rgb(5%, 5%, 5%)" stroke-opacity="0.4" fill="rgb(5%, 5%, 5%)" fill-opacity="0.4"><g transform="rotate(-90.0, -0.4306, 0.1655)"><polyline points="-0.4306,0.1805
-0.4306,0.1505"/></g><g transform="rotate(-90.0, -0.4306, 0.1293)"><polyline points="-0.4306,0.1443
-0.4306,0.1143"/></g><g transform="rotate(-90.0, -0.4306, 0.0932)"><polyline points="-0.4306,0.1082
-0.4306,0.0782"/></g><g transform="rotate(-90.0, -0.4306, 0.0571)"><polyline points="-0.4306,0.0721
-0.4306,0.0421"/></g><g transform="rotate(-90.0, -0.4306, 0.0209)"><polyline points="-0.4306,0.0359
-0.4306,0.0059"/></g><g transform="rotate(-90.0, -0.4306, -0.0152)"><polyline points="-0.4306,-0.0002
-0.4306,-0.0302"/></g><g transform="rotate(-90.0, -0.4306, -0.0513)"><polyline points="-0.4306,-0.0363
-0.4306,-0.0663"/></g><g transform="rotate(-90.0, -0.4306, -0.0874)"><polyline points="-0.4306,-0.0724
-0.4306,-0.1024"/></g></g></g><g class="ticktext"><g stroke-width="0.0" stroke="none" fill="rgb(5%, 5%, 5%)" fill-opacity="1.0" font-size="0.0203" text-anchor="end"><text x="-0.4452" y="0.1689">0.0</text><text x="-0.4452" y="0.1328">0.5</text><text x="-0.4452" y="0.0967">1.0</text><text x="-0.4452" y="0.0606">1.5</text><text x="-0.4452" y="0.0244">2.0</text><text x="-0.4452" y="-0.0117">2.5</text><text x="-0.4452" y="-0.0478">3.0</text><text x="-0.4452" y="-0.0840">3.5</text></g></g><g class="ticklines"><g stroke-width="0.0050" stroke="rgb(5%, 5%, 5%)" stroke-opacity="0.05" fill="none"><polyline points="-0.4184,0.1655 0.2382,0.1655"/><polyline points="-0.4184,0.1293 0.2382,0.1293"/><polyline points="-0.4184,0.0932 0.2382,0.0932"/><polyline points="-0.4184,0.0571 0.2382,0.0571"/><polyline points="-0.4184,0.0209 0.2382,0.0209"/><polyline points="-0.4184,-0.0152 0.2382,-0.0152"/><polyline points="-0.4184,-0.0513 0.2382,-0.0513"/><polyline points="-0.4184,-0.0874 0.2382,-0.0874"/></g></g></g><g class="axisbar"><g stroke-width="0" stroke="rgb(0%, 0%, 0%)" stroke-opacity="0" fill="rgb(5%, 5%, 5%)" fill-opacity="0.4"><rect width="0.0016" height="0.2539" x="-0.4241" y="-0.0879"/></g></g></g><g class="axis"><g class="ticks"><g class="tickglyph"><g stroke-width="0.0040" stroke="rgb(5%, 5%, 5%)" stroke-opacity="0.4" fill="rgb(5%, 5%, 5%)" fill-opacity="0.4"><polyline points="-0.3772,0.1882
-0.3772,0.1582"/><polyline points="-0.3603,0.1882
-0.3603,0.1582"/><polyline points="-0.3434,0.1882
-0.3434,0.1582"/><polyline points="-0.3265,0.1882
-0.3265,0.1582"/><polyline points="-0.3096,0.1882
-0.3096,0.1582"/><polyline points="-0.2928,0.1882
-0.2928,0.1582"/><polyline points="-0.2759,0.1882
-0.2759,0.1582"/><polyline points="-0.2590,0.1882
-0.2590,0.1582"/><polyline points="-0.2421,0.1882
-0.2421,0.1582"/><polyline points="-0.2252,0.1882
-0.2252,0.1582"/><polyline points="-0.2083,0.1882
-0.2083,0.1582"/><polyline points="-0.1915,0.1882
-0.1915,0.1582"/><polyline points="-0.1746,0.1882
-0.1746,0.1582"/><polyline points="-0.1577,0.1882
-0.1577,0.1582"/><polyline points="-0.1408,0.1882
-0.1408,0.1582"/><polyline points="-0.1239,0.1882
-0.1239,0.1582"/><polyline points="-0.1070,0.1882
-0.1070,0.1582"/><polyline points="-0.0901,0.1882
-0.0901,0.1582"/><polyline points="-0.0733,0.1882
-0.0733,0.1582"/><polyline points="-0.0564,0.1882
-0.0564,0.1582"/><polyline points="-0.0395,0.1882
-0.0395,0.1582"/><polyline points="-0.0226,0.1882
-0.0226,0.1582"/><polyline points="-0.0057,0.1882
-0.0057,0.1582"/><polyline points="0.0112,0.1882
0.0112,0.1582"/><polyline points="0.0280,0.1882
0.0280,0.1582"/><polyline points="0.0449,0.1882
0.0449,0.1582"/><polyline points="0.0618,0.1882
0.0618,0.1582"/><polyline points="0.0787,0.1882
0.0787,0.1582"/><polyline points="0.0956,0.1882
0.0956,0.1582"/><polyline points="0.1125,0.1882
0.1125,0.1582"/><polyline points="0.1293,0.1882
0.1293,0.1582"/><polyline points="0.1462,0.1882
0.1462,0.1582"/><polyline points="0.1631,0.1882
0.1631,0.1582"/><polyline points="0.1800,0.1882
0.1800,0.1582"/><polyline points="0.1969,0.1882
0.1969,0.1582"/></g></g><g class="ticktext"><g stroke-width="0.0" stroke="none" fill="rgb(5%, 5%, 5%)" fill-opacity="1.0" font-size="0.0203" text-anchor="end"><text x="-0.3772" y="0.1892" transform="rotate(-45.0, -0.3772, 0.1892)">CDCL (adaptive)</text><text x="-0.3603" y="0.1892" transform="rotate(-45.0, -0.3603, 0.1892)">CDCL (adaptive), Baseline</text><text x="-0.3434" y="0.1892" transform="rotate(-45.0, -0.3434, 0.1892)">CDCL (adaptive, mVISDS, ExpRestart(100, 2))</text><text x="-0.3265" y="0.1892" transform="rotate(-45.0, -0.3265, 0.1892)">CDCL (adaptive, mVISDS, ExpRestart(100, 2)), Baseline</text><text x="-0.3096" y="0.1892" transform="rotate(-45.0, -0.3096, 0.1892)">CDCL (adaptive, mVISDS, ExpRestart(100, 2), Clause Decay 0.999)</text><text x="-0.2928" y="0.1892" transform="rotate(-45.0, -0.2928, 0.1892)">CDCL (adaptive, mVISDS, LubyRestart(100, 2))</text><text x="-0.2759" y="0.1892" transform="rotate(-45.0, -0.2759, 0.1892)">CDCL (adaptive, mVISDS, LubyRestart(100, 2)), Baseline</text><text x="-0.2590" y="0.1892" transform="rotate(-45.0, -0.2590, 0.1892)">CDCL (adaptive, mVISDS, LubyRestart(100, 2), Clause Decay)</text><text x="-0.2421" y="0.1892" transform="rotate(-45.0, -0.2421, 0.1892)">CDCL (adaptive, mVSIDS)</text><text x="-0.2252" y="0.1892" transform="rotate(-45.0, -0.2252, 0.1892)">CDCL (adaptive, mVSIDS), Baseline</text><text x="-0.2083" y="0.1892" transform="rotate(-45.0, -0.2083, 0.1892)">CDCL (adaptive, mVSIDS, Clause Decay 0.999)</text><text x="-0.1915" y="0.1892" transform="rotate(-45.0, -0.1915, 0.1892)">CDCL (α = 0.75)</text><text x="-0.1746" y="0.1892" transform="rotate(-45.0, -0.1746, 0.1892)">CDCL (α = 0.75), Baseline</text><text x="-0.1577" y="0.1892" transform="rotate(-45.0, -0.1577, 0.1892)">CDCL (α = 0.75, mVISDS)</text><text x="-0.1408" y="0.1892" transform="rotate(-45.0, -0.1408, 0.1892)">CDCL (α = 0.75, mVISDS), Baseline</text><text x="-0.1239" y="0.1892" transform="rotate(-45.0, -0.1239, 0.1892)">CDCL (α = 0.75, mVISDS, Clause Decay 0.999)</text><text x="-0.1070" y="0.1892" transform="rotate(-45.0, -0.1070, 0.1892)">CDCL (α = 0.75, mVISDS, ExpRestart(100, 2))</text><text x="-0.0901" y="0.1892" transform="rotate(-45.0, -0.0901, 0.1892)">CDCL (α = 0.75, mVISDS, ExpRestart(100, 2)), Baseline</text><text x="-0.0733" y="0.1892" transform="rotate(-45.0, -0.0733, 0.1892)">CDCL (α = 0.75, mVISDS, ExpRestart(100, 2), Clause Decay 0.999)</text><text x="-0.0564" y="0.1892" transform="rotate(-45.0, -0.0564, 0.1892)">CDCL (α = 0.75, mVISDS, LubyRestart(100, 2))</text><text x="-0.0395" y="0.1892" transform="rotate(-45.0, -0.0395, 0.1892)">CDCL (α = 0.75, mVISDS, LubyRestart(100, 2)), Baseline</text><text x="-0.0226" y="0.1892" transform="rotate(-45.0, -0.0226, 0.1892)">CDCL (α = 0.75, mVISDS, LubyRestart(100, 2), Clause Decay 0.999)</text><text x="-0.0057" y="0.1892" transform="rotate(-45.0, -0.0057, 0.1892)">CDCL (α = 0.95)</text><text x="0.0112" y="0.1892" transform="rotate(-45.0, 0.0112, 0.1892)">CDCL (α = 0.95), Baseline</text><text x="0.0280" y="0.1892" transform="rotate(-45.0, 0.0280, 0.1892)">CDCL (α = 0.95, mVISDS)</text><text x="0.0449" y="0.1892" transform="rotate(-45.0, 0.0449, 0.1892)">CDCL (α = 0.95, mVISDS), Baseline</text><text x="0.0618" y="0.1892" transform="rotate(-45.0, 0.0618, 0.1892)">CDCL (α = 0.95, mVISDS, Clause Decay 0.999)</text><text x="0.0787" y="0.1892" transform="rotate(-45.0, 0.0787, 0.1892)">CDCL (α = 0.95, mVISDS, ExpRestart(100, 2))</text><text x="0.0956" y="0.1892" transform="rotate(-45.0, 0.0956, 0.1892)">CDCL (α = 0.95, mVISDS, ExpRestart(100, 2)), Baseline</text><text x="0.1125" y="0.1892" transform="rotate(-45.0, 0.1125, 0.1892)">CDCL (α = 0.95, mVISDS, ExpRestart(100, 2), Clause Decay 0.999)</text><text x="0.1293" y="0.1892" transform="rotate(-45.0, 0.1293, 0.1892)">CDCL (α = 0.95, mVISDS, LubyRestart(100, 2))</text><text x="0.1462" y="0.1892" transform="rotate(-45.0, 0.1462, 0.1892)">CDCL (α = 0.95, mVISDS, LubyRestart(100, 2)), Baseline</text><text x="0.1631" y="0.1892" transform="rotate(-45.0, 0.1631, 0.1892)">CDCL (α = 0.95, mVISDS, LubyRestart(100, 2), Clause Decay 0.999)</text><text x="0.1800" y="0.1892" transform="rotate(-45.0, 0.1800, 0.1892)">DPLL</text><text x="0.1969" y="0.1892" transform="rotate(-45.0, 0.1969, 0.1892)">DPLL, Baseline</text></g></g></g><g class="axisbar"><g stroke-width="0" stroke="rgb(0%, 0%, 0%)" stroke-opacity="0" fill="rgb(5%, 5%, 5%)" fill-opacity="0.4"><rect width="0.6582" height="0.0010" x="-0.4193" y="0.1681"/></g></g></g><g class="title"><g stroke-width="0.0" stroke="none" fill="rgb(5%, 5%, 5%)" fill-opacity="1.0" font-size="0.0487" text-anchor="middle"><text x="-0.2443" y="-0.1133">Time: SATLIB/uf20-91/uf20-010/cnf</text></g></g><g class="legend"><g class="legendBorder"><g stroke-width="0.0017" stroke="rgb(5%, 5%, 5%)" stroke-opacity="1.0" fill="rgb(5%, 5%, 5%)" fill-opacity="0"><rect width="0.4179" height="0.6251" x="0.3086" y="-0.4485"/></g></g><g class="legendContent"><g stroke-width="0.0" stroke="none" fill="rgb(5%, 5%, 5%)" fill-opacity="1.0" font-size="0.0128" text-anchor="start"><text x="0.3157" y="0.1675">DPLL, Baseline</text></g><g stroke-width="0.0002" stroke="rgb(0%, 49%, 30%)" stroke-opacity="1.0" fill="rgb(0%, 49%, 30%)" fill-opacity="0.25"><rect width="0.0213" height="0.0133" x="0.6980" y="0.1588"/></g><g stroke-width="0.0" stroke="none" fill="rgb(5%, 5%, 5%)" fill-opacity="1.0" font-size="0.0128" text-anchor="start"><text x="0.3157" y="0.1497">DPLL</text></g><g stroke-width="0" stroke="rgb(2%, 29%, 48%)" stroke-opacity="1.0" fill="rgb(0%, 49%, 30%)" fill-opacity="1.0"><rect width="0.0213" height="0.0133" x="0.6980" y="0.1411"/></g><g stroke-width="0.0" stroke="none" fill="rgb(5%, 5%, 5%)" fill-opacity="1.0" font-size="0.0128" text-anchor="start"><text x="0.3157" y="0.1320">CDCL (α = 0.95, mVISDS, LubyRestart(100, 2), Clause Decay 0.999)</text></g><g stroke-width="0" stroke="rgb(2%, 29%, 48%)" stroke-opacity="1.0" fill="rgb(0%, 38%, 61%)" fill-opacity="1.0"><rect width="0.0213" height="0.0133" x="0.6980" y="0.1233"/></g><g stroke-width="0.0" stroke="none" fill="rgb(5%, 5%, 5%)" fill-opacity="1.0" font-size="0.0128" text-anchor="start"><text x="0.3157" y="0.1143">CDCL (α = 0.95, mVISDS, LubyRestart(100, 2)), Baseline</text></g><g stroke-width="0.0002" stroke="rgb(100%, 37%, 0%)" stroke-opacity="1.0" fill="rgb(100%, 37%, 0%)" fill-opacity="0.25"><rect width="0.0213" height="0.0133" x="0.6980" y="0.1056"/></g><g stroke-width="0.0" stroke="none" fill="rgb(5%, 5%, 5%)" fill-opacity="1.0" font-size="0.0128" text-anchor="start"><text x="0.3157" y="0.0965">CDCL (α = 0.95, mVISDS, LubyRestart(100, 2))</text></g><g stroke-width="0" stroke="rgb(2%, 29%, 48%)" stroke-opacity="1.0" fill="rgb(100%, 37%, 0%)" fill-opacity="1.0"><rect width="0.0213" height="0.0133" x="0.6980" y="0.0879"/></g><g stroke-width="0.0" stroke="none" fill="rgb(5%, 5%, 5%)" fill-opacity="1.0" font-size="0.0128" text-anchor="start"><text x="0.3157" y="0.0788">CDCL (α = 0.95, mVISDS, ExpRestart(100, 2), Clause Decay 0.999)</text></g><g stroke-width="0" stroke="rgb(2%, 29%, 48%)" stroke-opacity="1.0" fill="rgb(54%, 0%, 0%)" fill-opacity="1.0"><rect width="0.0213" height="0.0133" x="0.6980" y="0.0702"/></g><g stroke-width="0.0" stroke="none" fill="rgb(5%, 5%, 5%)" fill-opacity="1.0" font-size="0.0128" text-anchor="start"><text x="0.3157" y="0.0611">CDCL (α = 0.95, mVISDS, ExpRestart(100, 2)), Baseline</text></g><g stroke-width="0.0002" stroke="rgb(42%, 44%, 14%)" stroke-opacity="1.0" fill="rgb(42%, 44%, 14%)" fill-opacity="0.25"><rect width="0.0213" height="0.0133" x="0.6980" y="0.0524"/></g><g stroke-width="0.0" stroke="none" fill="rgb(5%, 5%, 5%)" fill-opacity="1.0" font-size="0.0128" text-anchor="start"><text x="0.3157" y="0.0433">CDCL (α = 0.95, mVISDS, ExpRestart(100, 2))</text></g><g stroke-width="0" stroke="rgb(2%, 29%, 48%)" stroke-opacity="1.0" fill="rgb(42%, 44%, 14%)" fill-opacity="1.0"><rect width="0.0213" height="0.0133" x="0.6980" y="0.0347"/></g><g stroke-width="0.0" stroke="none" fill="rgb(5%, 5%, 5%)" fill-opacity="1.0" font-size="0.0128" text-anchor="start"><text x="0.3157" y="0.0256">CDCL (α = 0.95, mVISDS, Clause Decay 0.999)</text></g><g stroke-width="0" stroke="rgb(2%, 29%, 48%)" stroke-opacity="1.0" fill="rgb(18%, 22%, 10%)" fill-opacity="1.0"><rect width="0.0213" height="0.0133" x="0.6980" y="0.0170"/></g><g stroke-width="0.0" stroke="none" fill="rgb(5%, 5%, 5%)" fill-opacity="1.0" font-size="0.0128" text-anchor="start"><text x="0.3157" y="0.0079">CDCL (α = 0.95, mVISDS), Baseline</text></g><g stroke-width="0.0002" stroke="rgb(0%, 42%, 48%)" stroke-opacity="1.0" fill="rgb(0%, 42%, 48%)" fill-opacity="0.25"><rect width="0.0213" height="0.0133" x="0.6980" y="-0.0008"/></g><g stroke-width="0.0" stroke="none" fill="rgb(5%, 5%, 5%)" fill-opacity="1.0" font-size="0.0128" text-anchor="start"><text x="0.3157" y="-0.0099">CDCL (α = 0.95, mVISDS)</text></g><g stroke-width="0" stroke="rgb(2%, 29%, 48%)" stroke-opacity="1.0" fill="rgb(0%, 42%, 48%)" fill-opacity="1.0"><rect width="0.0213" height="0.0133" x="0.6980" y="-0.0185"/></g><g stroke-width="0.0" stroke="none" fill="rgb(5%, 5%, 5%)" fill-opacity="1.0" font-size="0.0128" text-anchor="start"><text x="0.3157" y="-0.0276">CDCL (α = 0.95), Baseline</text></g><g stroke-width="0.0002" stroke="rgb(69%, 17%, 0%)" stroke-opacity="1.0" fill="rgb(69%, 17%, 0%)" fill-opacity="0.25"><rect width="0.0213" height="0.0133" x="0.6980" y="-0.0362"/></g><g stroke-width="0.0" stroke="none" fill="rgb(5%, 5%, 5%)" fill-opacity="1.0" font-size="0.0128" text-anchor="start"><text x="0.3157" y="-0.0454">CDCL (α = 0.95)</text></g><g stroke-width="0" stroke="rgb(2%, 29%, 48%)" stroke-opacity="1.0" fill="rgb(69%, 17%, 0%)" fill-opacity="1.0"><rect width="0.0213" height="0.0133" x="0.6980" y="-0.0540"/></g><g stroke-width="0.0" stroke="none" fill="rgb(5%, 5%, 5%)" fill-opacity="1.0" font-size="0.0128" text-anchor="start"><text x="0.3157" y="-0.0631">CDCL (α = 0.75, mVISDS, LubyRestart(100, 2), Clause Decay 0.999)</text></g><g stroke-width="0" stroke="rgb(2%, 29%, 48%)" stroke-opacity="1.0" fill="rgb(53%, 24%, 0%)" fill-opacity="1.0"><rect width="0.0213" height="0.0133" x="0.6980" y="-0.0717"/></g><g stroke-width="0.0" stroke="none" fill="rgb(5%, 5%, 5%)" fill-opacity="1.0" font-size="0.0128" text-anchor="start"><text x="0.3157" y="-0.0808">CDCL (α = 0.75, mVISDS, LubyRestart(100, 2)), Baseline</text></g><g stroke-width="0.0002" stroke="rgb(57%, 62%, 78%)" stroke-opacity="1.0" fill="rgb(57%, 62%, 78%)" fill-opacity="0.25"><rect width="0.0213" height="0.0133" x="0.6980" y="-0.0894"/></g><g stroke-width="0.0" stroke="none" fill="rgb(5%, 5%, 5%)" fill-opacity="1.0" font-size="0.0128" text-anchor="start"><text x="0.3157" y="-0.0986">CDCL (α = 0.75, mVISDS, LubyRestart(100, 2))</text></g><g stroke-width="0" stroke="rgb(2%, 29%, 48%)" stroke-opacity="1.0" fill="rgb(57%, 62%, 78%)" fill-opacity="1.0"><rect width="0.0213" height="0.0133" x="0.6980" y="-0.1072"/></g><g stroke-width="0.0" stroke="none" fill="rgb(5%, 5%, 5%)" fill-opacity="1.0" font-size="0.0128" text-anchor="start"><text x="0.3157" y="-0.1163">CDCL (α = 0.75, mVISDS, ExpRestart(100, 2), Clause Decay 0.999)</text></g><g stroke-width="0" stroke="rgb(2%, 29%, 48%)" stroke-opacity="1.0" fill="rgb(98%, 15%, 25%)" fill-opacity="1.0"><rect width="0.0213" height="0.0133" x="0.6980" y="-0.1249"/></g><g stroke-width="0.0" stroke="none" fill="rgb(5%, 5%, 5%)" fill-opacity="1.0" font-size="0.0128" text-anchor="start"><text x="0.3157" y="-0.1340">CDCL (α = 0.75, mVISDS, ExpRestart(100, 2)), Baseline</text></g><g stroke-width="0.0002" stroke="rgb(0%, 72%, 67%)" stroke-opacity="1.0" fill="rgb(0%, 72%, 67%)" fill-opacity="0.25"><rect width="0.0213" height="0.0133" x="0.6980" y="-0.1426"/></g><g stroke-width="0.0" stroke="none" fill="rgb(5%, 5%, 5%)" fill-opacity="1.0" font-size="0.0128" text-anchor="start"><text x="0.3157" y="-0.1518">CDCL (α = 0.75, mVISDS, ExpRestart(100, 2))</text></g><g stroke-width="0" stroke="rgb(2%, 29%, 48%)" stroke-opacity="1.0" fill="rgb(0%, 72%, 67%)" fill-opacity="1.0"><rect width="0.0213" height="0.0133" x="0.6980" y="-0.1604"/></g><g stroke-width="0.0" stroke="none" fill="rgb(5%, 5%, 5%)" fill-opacity="1.0" font-size="0.0128" text-anchor="start"><text x="0.3157" y="-0.1695">CDCL (α = 0.75, mVISDS, Clause Decay 0.999)</text></g><g stroke-width="0" stroke="rgb(2%, 29%, 48%)" stroke-opacity="1.0" fill="rgb(35%, 24%, 0%)" fill-opacity="1.0"><rect width="0.0213" height="0.0133" x="0.6980" y="-0.1781"/></g><g stroke-width="0.0" stroke="none" fill="rgb(5%, 5%, 5%)" fill-opacity="1.0" font-size="0.0128" text-anchor="start"><text x="0.3157" y="-0.1872">CDCL (α = 0.75, mVISDS), Baseline</text></g><g stroke-width="0.0002" stroke="rgb(48%, 65%, 0%)" stroke-opacity="1.0" fill="rgb(48%, 65%, 0%)" fill-opacity="0.25"><rect width="0.0213" height="0.0133" x="0.6980" y="-0.1958"/></g><g stroke-width="0.0" stroke="none" fill="rgb(5%, 5%, 5%)" fill-opacity="1.0" font-size="0.0128" text-anchor="start"><text x="0.3157" y="-0.2049">CDCL (α = 0.75, mVISDS)</text></g><g stroke-width="0" stroke="rgb(2%, 29%, 48%)" stroke-opacity="1.0" fill="rgb(48%, 65%, 0%)" fill-opacity="1.0"><rect width="0.0213" height="0.0133" x="0.6980" y="-0.2136"/></g><g stroke-width="0.0" stroke="none" fill="rgb(5%, 5%, 5%)" fill-opacity="1.0" font-size="0.0128" text-anchor="start"><text x="0.3157" y="-0.2227">CDCL (α = 0.75), Baseline</text></g><g stroke-width="0.0002" stroke="rgb(20%, 15%, 40%)" stroke-opacity="1.0" fill="rgb(20%, 15%, 40%)" fill-opacity="0.25"><rect width="0.0213" height="0.0133" x="0.6980" y="-0.2313"/></g><g stroke-width="0.0" stroke="none" fill="rgb(5%, 5%, 5%)" fill-opacity="1.0" font-size="0.0128" text-anchor="start"><text x="0.3157" y="-0.2404">CDCL (α = 0.75)</text></g><g stroke-width="0" stroke="rgb(2%, 29%, 48%)" stroke-opacity="1.0" fill="rgb(20%, 15%, 40%)" fill-opacity="1.0"><rect width="0.0213" height="0.0133" x="0.6980" y="-0.2490"/></g><g stroke-width="0.0" stroke="none" fill="rgb(5%, 5%, 5%)" fill-opacity="1.0" font-size="0.0128" text-anchor="start"><text x="0.3157" y="-0.2581">CDCL (adaptive, mVSIDS, Clause Decay 0.999)</text></g><g stroke-width="0" stroke="rgb(2%, 29%, 48%)" stroke-opacity="1.0" fill="rgb(37%, 17%, 0%)" fill-opacity="1.0"><rect width="0.0213" height="0.0133" x="0.6980" y="-0.2668"/></g><g stroke-width="0.0" stroke="none" fill="rgb(5%, 5%, 5%)" fill-opacity="1.0" font-size="0.0128" text-anchor="start"><text x="0.3157" y="-0.2759">CDCL (adaptive, mVSIDS), Baseline</text></g><g stroke-width="0.0002" stroke="rgb(72%, 66%, 0%)" stroke-opacity="1.0" fill="rgb(72%, 66%, 0%)" fill-opacity="0.25"><rect width="0.0213" height="0.0133" x="0.6980" y="-0.2845"/></g><g stroke-width="0.0" stroke="none" fill="rgb(5%, 5%, 5%)" fill-opacity="1.0" font-size="0.0128" text-anchor="start"><text x="0.3157" y="-0.2936">CDCL (adaptive, mVSIDS)</text></g><g stroke-width="0" stroke="rgb(2%, 29%, 48%)" stroke-opacity="1.0" fill="rgb(72%, 66%, 0%)" fill-opacity="1.0"><rect width="0.0213" height="0.0133" x="0.6980" y="-0.3022"/></g><g stroke-width="0.0" stroke="none" fill="rgb(5%, 5%, 5%)" fill-opacity="1.0" font-size="0.0128" text-anchor="start"><text x="0.3157" y="-0.3113">CDCL (adaptive, mVISDS, LubyRestart(100, 2), Clause Decay)</text></g><g stroke-width="0" stroke="rgb(2%, 29%, 48%)" stroke-opacity="1.0" fill="rgb(0%, 21%, 55%)" fill-opacity="1.0"><rect width="0.0213" height="0.0133" x="0.6980" y="-0.3200"/></g><g stroke-width="0.0" stroke="none" fill="rgb(5%, 5%, 5%)" fill-opacity="1.0" font-size="0.0128" text-anchor="start"><text x="0.3157" y="-0.3291">CDCL (adaptive, mVISDS, LubyRestart(100, 2)), Baseline</text></g><g stroke-width="0.0002" stroke="rgb(0%, 36%, 0%)" stroke-opacity="1.0" fill="rgb(0%, 36%, 0%)" fill-opacity="0.25"><rect width="0.0213" height="0.0133" x="0.6980" y="-0.3377"/></g><g stroke-width="0.0" stroke="none" fill="rgb(5%, 5%, 5%)" fill-opacity="1.0" font-size="0.0128" text-anchor="start"><text x="0.3157" y="-0.3468">CDCL (adaptive, mVISDS, LubyRestart(100, 2))</text></g><g stroke-width="0" stroke="rgb(2%, 29%, 48%)" stroke-opacity="1.0" fill="rgb(0%, 36%, 0%)" fill-opacity="1.0"><rect width="0.0213" height="0.0133" x="0.6980" y="-0.3554"/></g><g stroke-width="0.0" stroke="none" fill="rgb(5%, 5%, 5%)" fill-opacity="1.0" font-size="0.0128" text-anchor="start"><text x="0.3157" y="-0.3645">CDCL (adaptive, mVISDS, ExpRestart(100, 2), Clause Decay 0.999)</text></g><g stroke-width="0" stroke="rgb(2%, 29%, 48%)" stroke-opacity="1.0" fill="rgb(70%, 21%, 0%)" fill-opacity="1.0"><rect width="0.0213" height="0.0133" x="0.6980" y="-0.3732"/></g><g stroke-width="0.0" stroke="none" fill="rgb(5%, 5%, 5%)" fill-opacity="1.0" font-size="0.0128" text-anchor="start"><text x="0.3157" y="-0.3823">CDCL (adaptive, mVISDS, ExpRestart(100, 2)), Baseline</text></g><g stroke-width="0.0002" stroke="rgb(47%, 34%, 0%)" stroke-opacity="1.0" fill="rgb(47%, 34%, 0%)" fill-opacity="0.25"><rect width="0.0213" height="0.0133" x="0.6980" y="-0.3909"/></g><g stroke-width="0.0" stroke="none" fill="rgb(5%, 5%, 5%)" fill-opacity="1.0" font-size="0.0128" text-anchor="start"><text x="0.3157" y="-0.4000">CDCL (adaptive, mVISDS, ExpRestart(100, 2))</text></g><g stroke-width="0" stroke="rgb(2%, 29%, 48%)" stroke-opacity="1.0" fill="rgb(47%, 34%, 0%)" fill-opacity="1.0"><rect width="0.0213" height="0.0133" x="0.6980" y="-0.4086"/></g><g stroke-width="0.0" stroke="none" fill="rgb(5%, 5%, 5%)" fill-opacity="1.0" font-size="0.0128" text-anchor="start"><text x="0.3157" y="-0.4177">CDCL (adaptive), Baseline</text></g><g stroke-width="0.0002" stroke="rgb(57%, 0%, 21%)" stroke-opacity="1.0" fill="rgb(57%, 0%, 21%)" fill-opacity="0.25"><rect width="0.0213" height="0.0133" x="0.6980" y="-0.4264"/></g><g stroke-width="0.0" stroke="none" fill="rgb(5%, 5%, 5%)" fill-opacity="1.0" font-size="0.0128" text-anchor="start"><text x="0.3157" y="-0.4355">CDCL (adaptive)</text></g><g stroke-width="0" stroke="rgb(2%, 29%, 48%)" stroke-opacity="1.0" fill="rgb(57%, 0%, 21%)" fill-opacity="1.0"><rect width="0.0213" height="0.0133" x="0.6980" y="-0.4441"/></g></g></g><g class="frame"><g stroke-width="0" stroke="rgb(0%, 0%, 0%)" stroke-opacity="0" fill="rgb(100%, 100%, 100%)" fill-opacity="0.02"><rect width="1.6180" height="1.0" x="-0.8090" y="-0.5"/></g></g><g class="title"><g stroke-width="0.0" stroke="none" fill="rgb(5%, 5%, 5%)" fill-opacity="1.0" font-size="0.0243" text-anchor="middle"><text x="-0.7514" y="0" transform="rotate(-90.0, -0.7514, 0)">Time [ms]</text></g></g></g></svg>