<svg xmlns="http://www.w3.org/2000/svg" xmlns:xlink="http://www.w3.org/1999/xlink" width="438" height="300" viewBox="-0.8090 -0.5 1.6180 1.1067"><style>svg {
  color-scheme: light dark;
}
{
  .canvas g, .title g, .axisbar g, .ticktext g, .tickglyph g, .ticklines g, .legendContent g text {
    fill: rgb(5%, 5%, 5%);
  }
  .ticklines g, .tickglyph g, .legendBorder g {
    stroke: rgb(5%, 5%, 5%);
  }
  .legendBorder g {
    fill: rgb(94%, 94%, 94%);
  }
}
@media (prefers-color-scheme:dark) {
  .canvas g, .title g, .axisbar g, .ticktext g, .tickglyph g, .ticklines g, .legendContent g text {
    fill: rgb(94%, 94%, 94%);
  }
  .ticklines g, .tickglyph g, .legendBorder g {
    stroke: rgb(94%, 94%, 94%);
  }
  .legendBorder g {
    fill: rgb(5%, 5%, 5%);
  }
}</style><g class="chart"><g class="barchart"><g stroke-width="0" stroke="rgb(2%, 29%, 48%)" stroke-opacity="1.0" fill="rgb(57%, 0%, 21%)" fill-opacity="1.0"><rect width="0.0169" height="0.0094" x="-0.3856" y="0.1560"/></g><g stroke-width="0.0010" stroke="rgb(57%, 0%, 21%)" stroke-opacity="1.0" fill="rgb(57%, 0%, 21%)" fill-opacity="0.25"><rect width="0.0169" height="0.0076" x="-0.3687" y="0.1579"/></g><g stroke-width="0" stroke="rgb(2%, 29%, 48%)" stroke-opacity="1.0" fill="rgb(47%, 34%, 0%)" fill-opacity="1.0"><rect width="0.0169" height="0.0081" x="-0.3518" y="0.1573"/></g><g stroke-width="0.0010" stroke="rgb(47%, 34%, 0%)" stroke-opacity="1.0" fill="rgb(47%, 34%, 0%)" fill-opacity="0.25"><rect width="0.0169" height="0.0064" x="-0.3350" y="0.1590"/></g><g stroke-width="0" stroke="rgb(2%, 29%, 48%)" stroke-opacity="1.0" fill="rgb(70%, 21%, 0%)" fill-opacity="1.0"><rect width="0.0169" height="0.0085" x="-0.3181" y="0.1570"/></g><g stroke-width="0" stroke="rgb(2%, 29%, 48%)" stroke-opacity="1.0" fill="rgb(0%, 36%, 0%)" fill-opacity="1.0"><rect width="0.0169" height="0.0084" x="-0.3012" y="0.1570"/></g><g stroke-width="0.0010" stroke="rgb(0%, 36%, 0%)" stroke-opacity="1.0" fill="rgb(0%, 36%, 0%)" fill-opacity="0.25"><rect width="0.0169" height="0.0068" x="-0.2843" y="0.1586"/></g><g stroke-width="0" stroke="rgb(2%, 29%, 48%)" stroke-opacity="1.0" fill="rgb(0%, 21%, 55%)" fill-opacity="1.0"><rect width="0.0169" height="0.0081" x="-0.2674" y="0.1573"/></g><g stroke-width="0" stroke="rgb(2%, 29%, 48%)" stroke-opacity="1.0" fill="rgb(72%, 66%, 0%)" fill-opacity="1.0"><rect width="0.0169" height="0.0085" x="-0.2505" y="0.1570"/></g><g stroke-width="0.0010" stroke="rgb(72%, 66%, 0%)" stroke-opacity="1.0" fill="rgb(72%, 66%, 0%)" fill-opacity="0.25"><rect width="0.0169" height="0.0066" x="-0.2337" y="0.1589"/></g><g stroke-width="0" stroke="rgb(2%, 29%, 48%)" stroke-opacity="1.0" fill="rgb(37%, 17%, 0%)" fill-opacity="1.0"><rect width="0.0169" height="0.0085" x="-0.2168" y="0.1570"/></g><g stroke-width="0" stroke="rgb(2%, 29%, 48%)" stroke-opacity="1.0" fill="rgb(20%, 15%, 40%)" fill-opacity="1.0"><rect width="0.0169" height="0.0107" x="-0.1999" y="0.1547"/></g><g stroke-width="0.0010" stroke="rgb(20%, 15%, 40%)" stroke-opacity="1.0" fill="rgb(20%, 15%, 40%)" fill-opacity="0.25"><rect width="0.0169" height="0.0090" x="-0.1830" y="0.1564"/></g><g stroke-width="0" stroke="rgb(2%, 29%, 48%)" stroke-opacity="1.0" fill="rgb(48%, 65%, 0%)" fill-opacity="1.0"><rect width="0.0169" height="0.0117" x="-0.1661" y="0.1537"/></g><g stroke-width="0.0010" stroke="rgb(48%, 65%, 0%)" stroke-opacity="1.0" fill="rgb(48%, 65%, 0%)" fill-opacity="0.25"><rect width="0.0169" height="0.0097" x="-0.1492" y="0.1557"/></g><g stroke-width="0" stroke="rgb(2%, 29%, 48%)" stroke-opacity="1.0" fill="rgb(35%, 24%, 0%)" fill-opacity="1.0"><rect width="0.0169" height="0.0120" x="-0.1324" y="0.1535"/></g><g stroke-width="0" stroke="rgb(2%, 29%, 48%)" stroke-opacity="1.0" fill="rgb(0%, 72%, 67%)" fill-opacity="1.0"><rect width="0.0169" height="0.0328" x="-0.1155" y="0.1327"/></g><g stroke-width="0.0010" stroke="rgb(0%, 72%, 67%)" stroke-opacity="1.0" fill="rgb(0%, 72%, 67%)" fill-opacity="0.25"><rect width="0.0169" height="0.0266" x="-0.0986" y="0.1389"/></g><g stroke-width="0" stroke="rgb(2%, 29%, 48%)" stroke-opacity="1.0" fill="rgb(98%, 15%, 25%)" fill-opacity="1.0"><rect width="0.0169" height="0.0299" x="-0.0817" y="0.1356"/></g><g stroke-width="0" stroke="rgb(2%, 29%, 48%)" stroke-opacity="1.0" fill="rgb(57%, 62%, 78%)" fill-opacity="1.0"><rect width="0.0169" height="0.0326" x="-0.0648" y="0.1328"/></g><g stroke-width="0.0010" stroke="rgb(57%, 62%, 78%)" stroke-opacity="1.0" fill="rgb(57%, 62%, 78%)" fill-opacity="0.25"><rect width="0.0169" height="0.0276" x="-0.0479" y="0.1378"/></g><g stroke-width="0" stroke="rgb(2%, 29%, 48%)" stroke-opacity="1.0" fill="rgb(53%, 24%, 0%)" fill-opacity="1.0"><rect width="0.0169" height="0.0304" x="-0.0311" y="0.1351"/></g><g stroke-width="0" stroke="rgb(2%, 29%, 48%)" stroke-opacity="1.0" fill="rgb(69%, 17%, 0%)" fill-opacity="1.0"><rect width="0.0169" height="0.0257" x="-0.0142" y="0.1397"/></g><g stroke-width="0.0010" stroke="rgb(69%, 17%, 0%)" stroke-opacity="1.0" fill="rgb(69%, 17%, 0%)" fill-opacity="0.25"><rect width="0.0169" height="0.0216" x="0.0027" y="0.1439"/></g><g stroke-width="0" stroke="rgb(2%, 29%, 48%)" stroke-opacity="1.0" fill="rgb(0%, 42%, 48%)" fill-opacity="1.0"><rect width="0.0169" height="0.0078" x="0.0196" y="0.1577"/></g><g stroke-width="0.0010" stroke="rgb(0%, 42%, 48%)" stroke-opacity="1.0" fill="rgb(0%, 42%, 48%)" fill-opacity="0.25"><rect width="0.0169" height="0.0066" x="0.0365" y="0.1589"/></g><g stroke-width="0" stroke="rgb(2%, 29%, 48%)" stroke-opacity="1.0" fill="rgb(18%, 22%, 10%)" fill-opacity="1.0"><rect width="0.0169" height="0.0081" x="0.0534" y="0.1573"/></g><g stroke-width="0" stroke="rgb(2%, 29%, 48%)" stroke-opacity="1.0" fill="rgb(42%, 44%, 14%)" fill-opacity="1.0"><rect width="0.0169" height="0.0082" x="0.0703" y="0.1572"/></g><g stroke-width="0.0010" stroke="rgb(42%, 44%, 14%)" stroke-opacity="1.0" fill="rgb(42%, 44%, 14%)" fill-opacity="0.25"><rect width="0.0169" height="0.0064" x="0.0871" y="0.1590"/></g><g stroke-width="0" stroke="rgb(2%, 29%, 48%)" stroke-opacity="1.0" fill="rgb(54%, 0%, 0%)" fill-opacity="1.0"><rect width="0.0169" height="0.0079" x="0.1040" y="0.1576"/></g><g stroke-width="0" stroke="rgb(2%, 29%, 48%)" stroke-opacity="1.0" fill="rgb(100%, 37%, 0%)" fill-opacity="1.0"><rect width="0.0169" height="0.0079" x="0.1209" y="0.1576"/></g><g stroke-width="0.0010" stroke="rgb(100%, 37%, 0%)" stroke-opacity="1.0" fill="rgb(100%, 37%, 0%)" fill-opacity="0.25"><rect width="0.0169" height="0.0065" x="0.1378" y="0.1590"/></g><g stroke-width="0" stroke="rgb(2%, 29%, 48%)" stroke-opacity="1.0" fill="rgb(0%, 38%, 61%)" fill-opacity="1.0"><rect width="0.0169" height="0.0082" x="0.1547" y="0.1573"/></g><g stroke-width="0" stroke="rgb(2%, 29%, 48%)" stroke-opacity="1.0" fill="rgb(0%, 49%, 30%)" fill-opacity="1.0"><rect width="0.0169" height="0.2186" x="0.1716" y="-0.0531"/></g><g stroke-width="0.0010" stroke="rgb(0%, 49%, 30%)" stroke-opacity="1.0" fill="rgb(0%, 49%, 30%)" fill-opacity="0.25"><rect width="0.0169" height="0.1969" x="0.1884" y="-0.0315"/></g></g><g class="errors"><g stroke-width="0.0015" stroke="rgb(5%, 5%, 5%)" stroke-opacity="1.0" fill="none"><polyline points="-0.3789,0.1563 -0.3755,0.1563"/><polyline points="-0.3772,0.1563 -0.3772,0.1558"/><polyline points="-0.3789,0.1558 -0.3755,0.1558"/></g><g stroke-width="0.0015" stroke="rgb(5%, 5%, 5%)" stroke-opacity="1.0" fill="none"><polyline points="-0.3620,0.1582 -0.3586,0.1582"/><polyline points="-0.3603,0.1582 -0.3603,0.1575"/><polyline points="-0.3620,0.1575 -0.3586,0.1575"/></g><g stroke-width="0.0015" stroke="rgb(5%, 5%, 5%)" stroke-opacity="1.0" fill="none"><polyline points="-0.3451,0.1575 -0.3417,0.1575"/><polyline points="-0.3434,0.1575 -0.3434,0.1571"/><polyline points="-0.3451,0.1571 -0.3417,0.1571"/></g><g stroke-width="0.0015" stroke="rgb(5%, 5%, 5%)" stroke-opacity="1.0" fill="none"><polyline points="-0.3282,0.1593 -0.3248,0.1593"/><polyline points="-0.3265,0.1593 -0.3265,0.1588"/><polyline points="-0.3282,0.1588 -0.3248,0.1588"/></g><g stroke-width="0.0015" stroke="rgb(5%, 5%, 5%)" stroke-opacity="1.0" fill="none"><polyline points="-0.3113,0.1573 -0.3079,0.1573"/><polyline points="-0.3096,0.1573 -0.3096,0.1567"/><polyline points="-0.3113,0.1567 -0.3079,0.1567"/></g><g stroke-width="0.0015" stroke="rgb(5%, 5%, 5%)" stroke-opacity="1.0" fill="none"><polyline points="-0.2944,0.1571 -0.2911,0.1571"/><polyline points="-0.2928,0.1571 -0.2928,0.1569"/><polyline points="-0.2944,0.1569 -0.2911,0.1569"/></g><g stroke-width="0.0015" stroke="rgb(5%, 5%, 5%)" stroke-opacity="1.0" fill="none"><polyline points="-0.2776,0.1589 -0.2742,0.1589"/><polyline points="-0.2759,0.1589 -0.2759,0.1584"/><polyline points="-0.2776,0.1584 -0.2742,0.1584"/></g><g stroke-width="0.0015" stroke="rgb(5%, 5%, 5%)" stroke-opacity="1.0" fill="none"><polyline points="-0.2607,0.1575 -0.2573,0.1575"/><polyline points="-0.2590,0.1575 -0.2590,0.1571"/><polyline points="-0.2607,0.1571 -0.2573,0.1571"/></g><g stroke-width="0.0015" stroke="rgb(5%, 5%, 5%)" stroke-opacity="1.0" fill="none"><polyline points="-0.2438,0.1572 -0.2404,0.1572"/><polyline points="-0.2421,0.1572 -0.2421,0.1568"/><polyline points="-0.2438,0.1568 -0.2404,0.1568"/></g><g stroke-width="0.0015" stroke="rgb(5%, 5%, 5%)" stroke-opacity="1.0" fill="none"><polyline points="-0.2269,0.1591 -0.2235,0.1591"/><polyline points="-0.2252,0.1591 -0.2252,0.1587"/><polyline points="-0.2269,0.1587 -0.2235,0.1587"/></g><g stroke-width="0.0015" stroke="rgb(5%, 5%, 5%)" stroke-opacity="1.0" fill="none"><polyline points="-0.2100,0.1571 -0.2066,0.1571"/><polyline points="-0.2083,0.1571 -0.2083,0.1569"/><polyline points="-0.2100,0.1569 -0.2066,0.1569"/></g><g stroke-width="0.0015" stroke="rgb(5%, 5%, 5%)" stroke-opacity="1.0" fill="none"><polyline points="-0.1931,0.1549 -0.1898,0.1549"/><polyline points="-0.1915,0.1549 -0.1915,0.1546"/><polyline points="-0.1931,0.1546 -0.1898,0.1546"/></g><g stroke-width="0.0015" stroke="rgb(5%, 5%, 5%)" stroke-opacity="1.0" fill="none"><polyline points="-0.1763,0.1567 -0.1729,0.1567"/><polyline points="-0.1746,0.1567 -0.1746,0.1562"/><polyline points="-0.1763,0.1562 -0.1729,0.1562"/></g><g stroke-width="0.0015" stroke="rgb(5%, 5%, 5%)" stroke-opacity="1.0" fill="none"><polyline points="-0.1594,0.1542 -0.1560,0.1542"/><polyline points="-0.1577,0.1542 -0.1577,0.1533"/><polyline points="-0.1594,0.1533 -0.1560,0.1533"/></g><g stroke-width="0.0015" stroke="rgb(5%, 5%, 5%)" stroke-opacity="1.0" fill="none"><polyline points="-0.1425,0.1561 -0.1391,0.1561"/><polyline points="-0.1408,0.1561 -0.1408,0.1554"/><polyline points="-0.1425,0.1554 -0.1391,0.1554"/></g><g stroke-width="0.0015" stroke="rgb(5%, 5%, 5%)" stroke-opacity="1.0" fill="none"><polyline points="-0.1256,0.1540 -0.1222,0.1540"/><polyline points="-0.1239,0.1540 -0.1239,0.1529"/><polyline points="-0.1256,0.1529 -0.1222,0.1529"/></g><g stroke-width="0.0015" stroke="rgb(5%, 5%, 5%)" stroke-opacity="1.0" fill="none"><polyline points="-0.1087,0.1342 -0.1053,0.1342"/><polyline points="-0.1070,0.1342 -0.1070,0.1311"/><polyline points="-0.1087,0.1311 -0.1053,0.1311"/></g><g stroke-width="0.0015" stroke="rgb(5%, 5%, 5%)" stroke-opacity="1.0" fill="none"><polyline points="-0.0918,0.1393 -0.0885,0.1393"/><polyline points="-0.0901,0.1393 -0.0901,0.1384"/><polyline points="-0.0918,0.1384 -0.0885,0.1384"/></g><g stroke-width="0.0015" stroke="rgb(5%, 5%, 5%)" stroke-opacity="1.0" fill="none"><polyline points="-0.0750,0.1360 -0.0716,0.1360"/><polyline points="-0.0733,0.1360 -0.0733,0.1351"/><polyline points="-0.0750,0.1351 -0.0716,0.1351"/></g><g stroke-width="0.0015" stroke="rgb(5%, 5%, 5%)" stroke-opacity="1.0" fill="none"><polyline points="-0.0581,0.1333 -0.0547,0.1333"/><polyline points="-0.0564,0.1333 -0.0564,0.1324"/><polyline points="-0.0581,0.1324 -0.0547,0.1324"/></g><g stroke-width="0.0015" stroke="rgb(5%, 5%, 5%)" stroke-opacity="1.0" fill="none"><polyline points="-0.0412,0.1387 -0.0378,0.1387"/><polyline points="-0.0395,0.1387 -0.0395,0.1370"/><polyline points="-0.0412,0.1370 -0.0378,0.1370"/></g><g stroke-width="0.0015" stroke="rgb(5%, 5%, 5%)" stroke-opacity="1.0" fill="none"><polyline points="-0.0243,0.1357 -0.0209,0.1357"/><polyline points="-0.0226,0.1357 -0.0226,0.1345"/><polyline points="-0.0243,0.1345 -0.0209,0.1345"/></g><g stroke-width="0.0015" stroke="rgb(5%, 5%, 5%)" stroke-opacity="1.0" fill="none"><polyline points="-0.0074,0.1406 -0.0040,0.1406"/><polyline points="-0.0057,0.1406 -0.0057,0.1388"/><polyline points="-0.0074,0.1388 -0.0040,0.1388"/></g><g stroke-width="0.0015" stroke="rgb(5%, 5%, 5%)" stroke-opacity="1.0" fill="none"><polyline points="0.0095,0.1443 0.0128,0.1443"/><polyline points="0.0112,0.1443 0.0112,0.1435"/><polyline points="0.0095,0.1435 0.0128,0.1435"/></g><g stroke-width="0.0015" stroke="rgb(5%, 5%, 5%)" stroke-opacity="1.0" fill="none"><polyline points="0.0264,0.1580 0.0297,0.1580"/><polyline points="0.0280,0.1580 0.0280,0.1574"/><polyline points="0.0264,0.1574 0.0297,0.1574"/></g><g stroke-width="0.0015" stroke="rgb(5%, 5%, 5%)" stroke-opacity="1.0" fill="none"><polyline points="0.0432,0.1590 0.0466,0.1590"/><polyline points="0.0449,0.1590 0.0449,0.1588"/><polyline points="0.0432,0.1588 0.0466,0.1588"/></g><g stroke-width="0.0015" stroke="rgb(5%, 5%, 5%)" stroke-opacity="1.0" fill="none"><polyline points="0.0601,0.1575 0.0635,0.1575"/><polyline points="0.0618,0.1575 0.0618,0.1572"/><polyline points="0.0601,0.1572 0.0635,0.1572"/></g><g stroke-width="0.0015" stroke="rgb(5%, 5%, 5%)" stroke-opacity="1.0" fill="none"><polyline points="0.0770,0.1575 0.0804,0.1575"/><polyline points="0.0787,0.1575 0.0787,0.1569"/><polyline points="0.0770,0.1569 0.0804,0.1569"/></g><g stroke-width="0.0015" stroke="rgb(5%, 5%, 5%)" stroke-opacity="1.0" fill="none"><polyline points="0.0939,0.1592 0.0973,0.1592"/><polyline points="0.0956,0.1592 0.0956,0.1588"/><polyline points="0.0939,0.1588 0.0973,0.1588"/></g><g stroke-width="0.0015" stroke="rgb(5%, 5%, 5%)" stroke-opacity="1.0" fill="none"><polyline points="0.1108,0.1580 0.1141,0.1580"/><polyline points="0.1125,0.1580 0.1125,0.1572"/><polyline points="0.1108,0.1572 0.1141,0.1572"/></g><g stroke-width="0.0015" stroke="rgb(5%, 5%, 5%)" stroke-opacity="1.0" fill="none"><polyline points="0.1277,0.1580 0.1310,0.1580"/><polyline points="0.1293,0.1580 0.1293,0.1572"/><polyline points="0.1277,0.1572 0.1310,0.1572"/></g><g stroke-width="0.0015" stroke="rgb(5%, 5%, 5%)" stroke-opacity="1.0" fill="none"><polyline points="0.1445,0.1592 0.1479,0.1592"/><polyline points="0.1462,0.1592 0.1462,0.1588"/><polyline points="0.1445,0.1588 0.1479,0.1588"/></g><g stroke-width="0.0015" stroke="rgb(5%, 5%, 5%)" stroke-opacity="1.0" fill="none"><polyline points="0.1614,0.1574 0.1648,0.1574"/><polyline points="0.1631,0.1574 0.1631,0.1572"/><polyline points="0.1614,0.1572 0.1648,0.1572"/></g><g stroke-width="0.0015" stroke="rgb(5%, 5%, 5%)" stroke-opacity="1.0" fill="none"><polyline points="0.1783,-0.0499 0.1817,-0.0499"/><polyline points="0.1800,-0.0499 0.1800,-0.0564"/><polyline points="0.1783,-0.0564 0.1817,-0.0564"/></g><g stroke-width="0.0015" stroke="rgb(5%, 5%, 5%)" stroke-opacity="1.0" fill="none"><polyline points="0.1952,-0.0294 0.1986,-0.0294"/><polyline points="0.1969,-0.0294 0.1969,-0.0335"/><polyline points="0.1952,-0.0335 0.1986,-0.0335"/></g></g></g><g class="hud"><g class="axis"><g class="ticks"><g class="tickglyph"><g stroke-width="0.0040" stroke="rgb(5%, 5%, 5%)" stroke-opacity="0.4" fill="rgb(5%, 5%, 5%)" fill-opacity="0.4"><g transform="rotate(-90.0, -0.4306, 0.1655)"><polyline points="-0.4306,0.1805
-0.4306,0.1505"/></g><g transform="rotate(-90.0, -0.4306, 0.1338)"><polyline points="-0.4306,0.1488
-0.4306,0.1188"/></g><g transform="rotate(-90.0, -0.4306, 0.1022)"><polyline points="-0.4306,0.1172
-0.4306,0.0872"/></g><g transform="rotate(-90.0, -0.4306, 0.0706)"><polyline points="-0.4306,0.0856
-0.4306,0.0556"/></g><g transform="rotate(-90.0, -0.4306, 0.0390)"><polyline points="-0.4306,0.0540
-0.4306,0.0240"/></g><g transform="rotate(-90.0, -0.4306, 0.0074)"><polyline points="-0.4306,0.0224
-0.4306,-0.0076"/></g><g transform="rotate(-90.0, -0.4306, -0.0242)"><polyline points="-0.4306,-0.0092
-0.4306,-0.0392"/></g><g transform="rotate(-90.0, -0.4306, -0.0558)"><polyline points="-0.4306,-0.0408
-0.4306,-0.0708"/></g><g transform="rotate(-90.0, -0.4306, -0.0874)"><polyline points="-0.4306,-0.0724
-0.4306,-0.1024"/></g></g></g><g class="ticktext"><g stroke-width="0.0" stroke="none" fill="rgb(5%, 5%, 5%)" fill-opacity="1.0" font-size="0.0203" text-anchor="end"><text x="-0.4452" y="0.1689">0.0</text><text x="-0.4452" y="0.1373">0.2</text><text x="-0.4452" y="0.1057">0.4</text><text x="-0.4452" y="0.0741">0.6</text><text x="-0.4452" y="0.0425">0.8</text><text x="-0.4452" y="0.0109">1.0</text><text x="-0.4452" y="-0.0207">1.2</text><text x="-0.4452" y="-0.0523">1.4</text><text x="-0.4452" y="-0.0840">1.6</text></g></g><g class="ticklines"><g stroke-width="0.0050" stroke="rgb(5%, 5%, 5%)" stroke-opacity="0.05" fill="none"><polyline points="-0.4184,0.1655 0.2382,0.1655"/><polyline points="-0.4184,0.1338 0.2382,0.1338"/><polyline points="-0.4184,0.1022 0.2382,0.1022"/><polyline points="-0.4184,0.0706 0.2382,0.0706"/><polyline points="-0.4184,0.0390 0.2382,0.0390"/><polyline points="-0.4184,0.0074 0.2382,0.0074"/><polyline points="-0.4184,-0.0242 0.2382,-0.0242"/><polyline points="-0.4184,-0.0558 0.2382,-0.0558"/><polyline points="-0.4184,-0.0874 0.2382,-0.0874"/></g></g></g><g class="axisbar"><g stroke-width="0" stroke="rgb(0%, 0%, 0%)" stroke-opacity="0" fill="rgb(5%, 5%, 5%)" fill-opacity="0.4"><rect width="0.0016" height="0.2539" x="-0.4241" y="-0.0879"/></g></g></g><g class="axis"><g class="ticks"><g class="tickglyph"><g stroke-width="0.0040" stroke="rgb(5%, 5%, 5%)" stroke-opacity="0.4" fill="rgb(5%, 5%, 5%)" fill-opacity="0.4"><polyline points="-0.3772,0.1882
-0.3772,0.1582"/><polyline points="-0.3603,0.1882
-0.3603,0.1582"/><polyline points="-0.3434,0.1882
-0.3434,0.1582"/><polyline points="-0.3265,0.1882
-0.3265,0.1582"/><polyline points="-0.3096,0.1882
-0.3096,0.1582"/><polyline points="-0.2928,0.1882
-0.2928,0.1582"/><polyline points="-0.2759,0.1882
-0.2759,0.1582"/><polyline points="-0.2590,0.1882
-0.2590,0.1582"/><polyline points="-0.2421,0.1882
-0.2421,0.1582"/><polyline points="-0.2252,0.1882
-0.2252,0.1582"/><polyline points="-0.2083,0.1882
-0.2083,0.1582"/><polyline points="-0.1915,0.1882
-0.1915,0.1582"/><polyline points="-0.1746,0.1882
-0.1746,0.1582"/><polyline points="-0.1577,0.1882
-0.1577,0.1582"/><polyline points="-0.1408,0.1882
-0.1408,0.1582"/><polyline points="-0.1239,0.1882
-0.1239,0.1582"/><polyline points="-0.1070,0.1882
-0.1070,0.1582"/><polyline points="-0.0901,0.1882
-0.0901,0.1582"/><polyline points="-0.0733,0.1882
-0.0733,0.1582"/><polyline points="-0.0564,0.1882
-0.0564,0.1582"/><polyline points="-0.0395,0.1882
-0.0395,0.1582"/><polyline points="-0.0226,0.1882
-0.0226,0.1582"/><polyline points="-0.0057,0.1882
-0.0057,0.1582"/><polyline points="0.0112,0.1882
0.0112,0.1582"/><polyline points="0.0280,0.1882
0.0280,0.1582"/><polyline points="0.0449,0.1882
0.0449,0.1582"/><polyline points="0.0618,0.1882
0.0618,0.1582"/><polyline points="0.0787,0.1882
0.0787,0.1582"/><polyline points="0.0956,0.1882
0.0956,0.1582"/><polyline points="0.1125,0.1882
0.1125,0.1582"/><polyline points="0.1293,0.1882
0.1293,0.1582"/><polyline points="0.1462,0.1882
0.1462,0.1582"/><polyline points="0.1631,0.1882
0.1631,0.1582"/><polyline points="0.1800,0.1882
0.1800,0.1582"/><polyline points="0.1969,0.1882
0.1969,0.1582"/></g></g><g class="ticktext"><g stroke-width="0.0" stroke="none" fill="rgb(5%, 5%, 5%)" fill-opacity="1.0" font-size="0.0203" text-anchor="end"><text x="-0.3772" y="0.1892" transform="rotate(-45.0, -0.3772, 0.1892)">CDCL (adaptive)</text><text x="-0.3603" y="0.1892" transform="rotate(-45.0, -0.3603, 0.1892)">CDCL (adaptive), Baseline</text><text x="-0.3434" y="0.1892" transform="rotate(-45.0, -0.3434, 0.1892)">CDCL (adaptive, mVISDS, ExpRestart(100, 2))</text><text x="-0.3265" y="0.1892" transform="rotate(-45.0, -0.3265, 0.1892)">CDCL (adaptive, mVISDS, ExpRestart(100, 2)), Baseline</text><text x="-0.3096" y="0.1892" transform="rotate(-45.0, -0.3096, 0.1892)">CDCL (adaptive, mVISDS, ExpRestart(100, 2), Clause Decay 0.999)</text><text x="-0.2928" y="0.1892" transform="rotate(-45.0, -0.2928, 0.1892)">CDCL (adaptive, mVISDS, LubyRestart(100, 2))</text><text x="-0.2759" y="0.1892" transform="rotate(-45.0, -0.2759, 0.1892)">CDCL (adaptive, mVISDS, LubyRestart(100, 2)), Baseline</text><text x="-0.2590" y="0.1892" transform="rotate(-45.0, -0.2590, 0.1892)">CDCL (adaptive, mVISDS, LubyRestart(100, 2), Clause Decay)</text><text x="-0.2421" y="0.1892" transform="rotate(-45.0, -0.2421, 0.1892)">CDCL (adaptive, mVSIDS)</text><text x="-0.2252" y="0.1892" transform="rotate(-45.0, -0.2252, 0.1892)">CDCL (adaptive, mVSIDS), Baseline</text><text x="-0.2083" y="0.1892" transform="rotate(-45.0, -0.2083, 0.1892)">CDCL (adaptive, mVSIDS, Clause Decay 0.999)</text><text x="-0.1915" y="0.1892" transform="rotate(-45.0, -0.1915, 0.1892)">CDCL (α = 0.75)</text><text x="-0.1746" y="0.1892" transform="rotate(-45.0, -0.1746, 0.1892)">CDCL (α = 0.75), Baseline</text><text x="-0.1577" y="0.1892" transform="rotate(-45.0, -0.1577, 0.1892)">CDCL (α = 0.75, mVISDS)</text><text x="-0.1408" y="0.1892" transform="rotate(-45.0, -0.1408, 0.1892)">CDCL (α = 0.75, mVISDS), Baseline</text><text x="-0.1239" y="0.1892" transform="rotate(-45.0, -0.1239, 0.1892)">CDCL (α = 0.75, mVISDS, Clause Decay 0.999)</text><text x="-0.1070" y="0.1892" transform="rotate(-45.0, -0.1070, 0.1892)">CDCL (α = 0.75, mVISDS, ExpRestart(100, 2))</text><text x="-0.0901" y="0.1892" transform="rotate(-45.0, -0.0901, 0.1892)">CDCL (α = 0.75, mVISDS, ExpRestart(100, 2)), Baseline</text><text x="-0.0733" y="0.1892" transform="rotate(-45.0, -0.0733, 0.1892)">CDCL (α = 0.75, mVISDS, ExpRestart(100, 2), Clause Decay 0.999)</text><text x="-0.0564" y="0.1892" transform="rotate(-45.0, -0.0564, 0.1892)">CDCL (α = 0.75, mVISDS, LubyRestart(100, 2))</text><text x="-0.0395" y="0.1892" transform="rotate(-45.0, -0.0395, 0.1892)">CDCL (α = 0.75, mVISDS, LubyRestart(100, 2)), Baseline</text><text x="-0.0226" y="0.1892" transform="rotate(-45.0, -0.0226, 0.1892)">CDCL (α = 0.75, mVISDS, LubyRestart(100, 2), Clause Decay 0.999)</text><text x="-0.0057" y="0.1892" transform="rotate(-45.0, -0.0057, 0.1892)">CDCL (α = 0.95)</text><text x="0.0112" y="0.1892" transform="rotate(-45.0, 0.0112, 0.1892)">CDCL (α = 0.95), Baseline</text><text x="0.0280" y="0.1892" transform="rotate(-45.0, 0.0280, 0.1892)">CDCL (α = 0.95, mVISDS)</text><text x="0.0449" y="0.1892" transform="rotate(-45.0, 0.0449, 0.1892)">CDCL (α = 0.95, mVISDS), Baseline</text><text x="0.0618" y="0.1892" transform="rotate(-45.0, 0.0618, 0.1892)">CDCL (α = 0.95, mVISDS, Clause Decay 0.999)</text><text x="0.0787" y="0.1892" transform="rotate(-45.0, 0.0787, 0.1892)">CDCL (α = 0.95, mVISDS, ExpRestart(100, 2))</text><text x="0.0956" y="0.1892" transform="rotate(-45.0, 0.0956, 0.1892)">CDCL (α = 0.95, mVISDS, ExpRestart(100, 2)), Baseline</text><text x="0.1125" y="0.1892" transform="rotate(-45.0, 0.1125, 0.1892)">CDCL (α = 0.95, mVISDS, ExpRestart(100, 2), Clause Decay 0.999)</text><text x="0.1293" y="0.1892" transform="rotate(-45.0, 0.1293, 0.1892)">CDCL (α = 0.95, mVISDS, LubyRestart(100, 2))</text><text x="0.1462" y="0.1892" transform="rotate(-45.0, 0.1462, 0.1892)">CDCL (α = 0.95, mVISDS, LubyRestart(100, 2)), Baseline</text><text x="0.1631" y="0.1892" transform="rotate(-45.0, 0.1631, 0.1892)">CDCL (α = 0.95, mVISDS, LubyRestart(100, 2), Clause Decay 0.999)</text><text x="0.1800" y="0.1892" transform="rotate(-45.0, 0.1800, 0.1892)">DPLL</text><text x="0.1969" y="0.1892" transform="rotate(-45.0, 0.1969, 0.1892)">DPLL, Baseline</text></g></g></g><g class="axisbar"><g stroke-width="0" stroke="rgb(0%, 0%, 0%)" stroke-opacity="0" fill="rgb(5%, 5%, 5%)" fill-opacity="0.4"><rect width="0.6582" height="0.0010" x="-0.4193" y="0.1681"/></g></g></g><g class="title"><g stroke-width="0.0" stroke="none" fill="rgb(5%, 5%, 5%)" fill-opacity="1.0" font-size="0.0487" text-anchor="middle"><text x="-0.2443" y="-0.1133">Time: SATLIB/uf100-430/uf100-01000/cnf</text></g></g><g class="legend"><g class="legendBorder"><g stroke-width="0.0017" stroke="rgb(5%, 5%, 5%)" stroke-opacity="1.0" fill="rgb(5%, 5%, 5%)" fill-opacity="0"><rect width="0.4179" height="0.6251" x="0.3086" y="-0.4485"/></g></g><g class="legendContent"><g stroke-width="0.0" stroke="none" fill="rgb(5%, 5%, 5%)" fill-opacity="1.0" font-size="0.0128" text-anchor="start"><text x="0.3157" y="0.1675">DPLL, Baseline</text></g><g stroke-width="0.0002" stroke="rgb(0%, 49%, 30%)" stroke-opacity="1.0" fill="rgb(0%, 49%, 30%)" fill-opacity="0.25"><rect width="0.0213" height="0.0133" x="0.6980" y="0.1588"/></g><g stroke-width="0.0" stroke="none" fill="rgb(5%, 5%, 5%)" fill-opacity="1.0" font-size="0.0128" text-anchor="start"><text x="0.3157" y="0.1497">DPLL</text></g><g stroke-width="0" stroke="rgb(2%, 29%, 48%)" stroke-opacity="1.0" fill="rgb(0%, 49%, 30%)" fill-opacity="1.0"><rect width="0.0213" height="0.0133" x="0.6980" y="0.1411"/></g><g stroke-width="0.0" stroke="none" fill="rgb(5%, 5%, 5%)" fill-opacity="1.0" font-size="0.0128" text-anchor="start"><text x="0.3157" y="0.1320">CDCL (α = 0.95, mVISDS, LubyRestart(100, 2), Clause Decay 0.999)</text></g><g stroke-width="0" stroke="rgb(2%, 29%, 48%)" stroke-opacity="1.0" fill="rgb(0%, 38%, 61%)" fill-opacity="1.0"><rect width="0.0213" height="0.0133" x="0.6980" y="0.1233"/></g><g stroke-width="0.0" stroke="none" fill="rgb(5%, 5%, 5%)" fill-opacity="1.0" font-size="0.0128" text-anchor="start"><text x="0.3157" y="0.1143">CDCL (α = 0.95, mVISDS, LubyRestart(100, 2)), Baseline</text></g><g stroke-width="0.0002" stroke="rgb(100%, 37%, 0%)" stroke-opacity="1.0" fill="rgb(100%, 37%, 0%)" fill-opacity="0.25"><rect width="0.0213" height="0.0133" x="0.6980" y="0.1056"/></g><g stroke-width="0.0" stroke="none" fill="rgb(5%, 5%, 5%)" fill-opacity="1.0" font-size="0.0128" text-anchor="start"><text x="0.3157" y="0.0965">CDCL (α = 0.95, mVISDS, LubyRestart(100, 2))</text></g><g stroke-width="0" stroke="rgb(2%, 29%, 48%)" stroke-opacity="1.0" fill="rgb(100%, 37%, 0%)" fill-opacity="1.0"><rect width="0.0213" height="0.0133" x="0.6980" y="0.0879"/></g><g stroke-width="0.0" stroke="none" fill="rgb(5%, 5%, 5%)" fill-opacity="1.0" font-size="0.0128" text-anchor="start"><text x="0.3157" y="0.0788">CDCL (α = 0.95, mVISDS, ExpRestart(100, 2), Clause Decay 0.999)</text></g><g stroke-width="0" stroke="rgb(2%, 29%, 48%)" stroke-opacity="1.0" fill="rgb(54%, 0%, 0%)" fill-opacity="1.0"><rect width="0.0213" height="0.0133" x="0.6980" y="0.0702"/></g><g stroke-width="0.0" stroke="none" fill="rgb(5%, 5%, 5%)" fill-opacity="1.0" font-size="0.0128" text-anchor="start"><text x="0.3157" y="0.0611">CDCL (α = 0.95, mVISDS, ExpRestart(100, 2)), Baseline</text></g><g stroke-width="0.0002" stroke="rgb(42%, 44%, 14%)" stroke-opacity="1.0" fill="rgb(42%, 44%, 14%)" fill-opacity="0.25"><rect width="0.0213" height="0.0133" x="0.6980" y="0.0524"/></g><g stroke-width="0.0" stroke="none" fill="rgb(5%, 5%, 5%)" fill-opacity="1.0" font-size="0.0128" text-anchor="start"><text x="0.3157" y="0.0433">CDCL (α = 0.95, mVISDS, ExpRestart(100, 2))</text></g><g stroke-width="0" stroke="rgb(2%, 29%, 48%)" stroke-opacity="1.0" fill="rgb(42%, 44%, 14%)" fill-opacity="1.0"><rect width="0.0213" height="0.0133" x="0.6980" y="0.0347"/></g><g stroke-width="0.0" stroke="none" fill="rgb(5%, 5%, 5%)" fill-opacity="1.0" font-size="0.0128" text-anchor="start"><text x="0.3157" y="0.0256">CDCL (α = 0.95, mVISDS, Clause Decay 0.999)</text></g><g stroke-width="0" stroke="rgb(2%, 29%, 48%)" stroke-opacity="1.0" fill="rgb(18%, 22%, 10%)" fill-opacity="1.0"><rect width="0.0213" height="0.0133" x="0.6980" y="0.0170"/></g><g stroke-width="0.0" stroke="none" fill="rgb(5%, 5%, 5%)" fill-opacity="1.0" font-size="0.0128" text-anchor="start"><text x="0.3157" y="0.0079">CDCL (α = 0.95, mVISDS), Baseline</text></g><g stroke-width="0.0002" stroke="rgb(0%, 42%, 48%)" stroke-opacity="1.0" fill="rgb(0%, 42%, 48%)" fill-opacity="0.25"><rect width="0.0213" height="0.0133" x="0.6980" y="-0.0008"/></g><g stroke-width="0.0" stroke="none" fill="rgb(5%, 5%, 5%)" fill-opacity="1.0" font-size="0.0128" text-anchor="start"><text x="0.3157" y="-0.0099">CDCL (α = 0.95, mVISDS)</text></g><g stroke-width="0" stroke="rgb(2%, 29%, 48%)" stroke-opacity="1.0" fill="rgb(0%, 42%, 48%)" fill-opacity="1.0"><rect width="0.0213" height="0.0133" x="0.6980" y="-0.0185"/></g><g stroke-width="0.0" stroke="none" fill="rgb(5%, 5%, 5%)" fill-opacity="1.0" font-size="0.0128" text-anchor="start"><text x="0.3157" y="-0.0276">CDCL (α = 0.95), Baseline</text></g><g stroke-width="0.0002" stroke="rgb(69%, 17%, 0%)" stroke-opacity="1.0" fill="rgb(69%, 17%, 0%)" fill-opacity="0.25"><rect width="0.0213" height="0.0133" x="0.6980" y="-0.0362"/></g><g stroke-width="0.0" stroke="none" fill="rgb(5%, 5%, 5%)" fill-opacity="1.0" font-size="0.0128" text-anchor="start"><text x="0.3157" y="-0.0454">CDCL (α = 0.95)</text></g><g stroke-width="0" stroke="rgb(2%, 29%, 48%)" stroke-opacity="1.0" fill="rgb(69%, 17%, 0%)" fill-opacity="1.0"><rect width="0.0213" height="0.0133" x="0.6980" y="-0.0540"/></g><g stroke-width="0.0" stroke="none" fill="rgb(5%, 5%, 5%)" fill-opacity="1.0" font-size="0.0128" text-anchor="start"><text x="0.3157" y="-0.0631">CDCL (α = 0.75, mVISDS, LubyRestart(100, 2), Clause Decay 0.999)</text></g><g stroke-width="0" stroke="rgb(2%, 29%, 48%)" stroke-opacity="1.0" fill="rgb(53%, 24%, 0%)" fill-opacity="1.0"><rect width="0.0213" height="0.0133" x="0.6980" y="-0.0717"/></g><g stroke-width="0.0" stroke="none" fill="rgb(5%, 5%, 5%)" fill-opacity="1.0" font-size="0.0128" text-anchor="start"><text x="0.3157" y="-0.0808">CDCL (α = 0.75, mVISDS, LubyRestart(100, 2)), Baseline</text></g><g stroke-width="0.0002" stroke="rgb(57%, 62%, 78%)" stroke-opacity="1.0" fill="rgb(57%, 62%, 78%)" fill-opacity="0.25"><rect width="0.0213" height="0.0133" x="0.6980" y="-0.0894"/></g><g stroke-width="0.0" stroke="none" fill="rgb(5%, 5%, 5%)" fill-opacity="1.0" font-size="0.0128" text-anchor="start"><text x="0.3157" y="-0.0986">CDCL (α = 0.75, mVISDS, LubyRestart(100, 2))</text></g><g stroke-width="0" stroke="rgb(2%, 29%, 48%)" stroke-opacity="1.0" fill="rgb(57%, 62%, 78%)" fill-opacity="1.0"><rect width="0.0213" height="0.0133" x="0.6980" y="-0.1072"/></g><g stroke-width="0.0" stroke="none" fill="rgb(5%, 5%, 5%)" fill-opacity="1.0" font-size="0.0128" text-anchor="start"><text x="0.3157" y="-0.1163">CDCL (α = 0.75, mVISDS, ExpRestart(100, 2), Clause Decay 0.999)</text></g><g stroke-width="0" stroke="rgb(2%, 29%, 48%)" stroke-opacity="1.0" fill="rgb(98%, 15%, 25%)" fill-opacity="1.0"><rect width="0.0213" height="0.0133" x="0.6980" y="-0.1249"/></g><g stroke-width="0.0" stroke="none" fill="rgb(5%, 5%, 5%)" fill-opacity="1.0" font-size="0.0128" text-anchor="start"><text x="0.3157" y="-0.1340">CDCL (α = 0.75, mVISDS, ExpRestart(100, 2)), Baseline</text></g><g stroke-width="0.0002" stroke="rgb(0%, 72%, 67%)" stroke-opacity="1.0" fill="rgb(0%, 72%, 67%)" fill-opacity="0.25"><rect width="0.0213" height="0.0133" x="0.6980" y="-0.1426"/></g><g stroke-width="0.0" stroke="none" fill="rgb(5%, 5%, 5%)" fill-opacity="1.0" font-size="0.0128" text-anchor="start"><text x="0.3157" y="-0.1518">CDCL (α = 0.75, mVISDS, ExpRestart(100, 2))</text></g><g stroke-width="0" stroke="rgb(2%, 29%, 48%)" stroke-opacity="1.0" fill="rgb(0%, 72%, 67%)" fill-opacity="1.0"><rect width="0.0213" height="0.0133" x="0.6980" y="-0.1604"/></g><g stroke-width="0.0" stroke="none" fill="rgb(5%, 5%, 5%)" fill-opacity="1.0" font-size="0.0128" text-anchor="start"><text x="0.3157" y="-0.1695">CDCL (α = 0.75, mVISDS, Clause Decay 0.999)</text></g><g stroke-width="0" stroke="rgb(2%, 29%, 48%)" stroke-opacity="1.0" fill="rgb(35%, 24%, 0%)" fill-opacity="1.0"><rect width="0.0213" height="0.0133" x="0.6980" y="-0.1781"/></g><g stroke-width="0.0" stroke="none" fill="rgb(5%, 5%, 5%)" fill-opacity="1.0" font-size="0.0128" text-anchor="start"><text x="0.3157" y="-0.1872">CDCL (α = 0.75, mVISDS), Baseline</text></g><g stroke-width="0.0002" stroke="rgb(48%, 65%, 0%)" stroke-opacity="1.0" fill="rgb(48%, 65%, 0%)" fill-opacity="0.25"><rect width="0.0213" height="0.0133" x="0.6980" y="-0.1958"/></g><g stroke-width="0.0" stroke="none" fill="rgb(5%, 5%, 5%)" fill-opacity="1.0" font-size="0.0128" text-anchor="start"><text x="0.3157" y="-0.2049">CDCL (α = 0.75, mVISDS)</text></g><g stroke-width="0" stroke="rgb(2%, 29%, 48%)" stroke-opacity="1.0" fill="rgb(48%, 65%, 0%)" fill-opacity="1.0"><rect width="0.0213" height="0.0133" x="0.6980" y="-0.2136"/></g><g stroke-width="0.0" stroke="none" fill="rgb(5%, 5%, 5%)" fill-opacity="1.0" font-size="0.0128" text-anchor="start"><text x="0.3157" y="-0.2227">CDCL (α = 0.75), Baseline</text></g><g stroke-width="0.0002" stroke="rgb(20%, 15%, 40%)" stroke-opacity="1.0" fill="rgb(20%, 15%, 40%)" fill-opacity="0.25"><rect width="0.0213" height="0.0133" x="0.6980" y="-0.2313"/></g><g stroke-width="0.0" stroke="none" fill="rgb(5%, 5%, 5%)" fill-opacity="1.0" font-size="0.0128" text-anchor="start"><text x="0.3157" y="-0.2404">CDCL (α = 0.75)</text></g><g stroke-width="0" stroke="rgb(2%, 29%, 48%)" stroke-opacity="1.0" fill="rgb(20%, 15%, 40%)" fill-opacity="1.0"><rect width="0.0213" height="0.0133" x="0.6980" y="-0.2490"/></g><g stroke-width="0.0" stroke="none" fill="rgb(5%, 5%, 5%)" fill-opacity="1.0" font-size="0.0128" text-anchor="start"><text x="0.3157" y="-0.2581">CDCL (adaptive, mVSIDS, Clause Decay 0.999)</text></g><g stroke-width="0" stroke="rgb(2%, 29%, 48%)" stroke-opacity="1.0" fill="rgb(37%, 17%, 0%)" fill-opacity="1.0"><rect width="0.0213" height="0.0133" x="0.6980" y="-0.2668"/></g><g stroke-width="0.0" stroke="none" fill="rgb(5%, 5%, 5%)" fill-opacity="1.0" font-size="0.0128" text-anchor="start"><text x="0.3157" y="-0.2759">CDCL (adaptive, mVSIDS), Baseline</text></g><g stroke-width="0.0002" stroke="rgb(72%, 66%, 0%)" stroke-opacity="1.0" fill="rgb(72%, 66%, 0%)" fill-opacity="0.25"><rect width="0.0213" height="0.0133" x="0.6980" y="-0.2845"/></g><g stroke-width="0.0" stroke="none" fill="rgb(5%, 5%, 5%)" fill-opacity="1.0" font-size="0.0128" text-anchor="start"><text x="0.3157" y="-0.2936">CDCL (adaptive, mVSIDS)</text></g><g stroke-width="0" stroke="rgb(2%, 29%, 48%)" stroke-opacity="1.0" fill="rgb(72%, 66%, 0%)" fill-opacity="1.0"><rect width="0.0213" height="0.0133" x="0.6980" y="-0.3022"/></g><g stroke-width="0.0" stroke="none" fill="rgb(5%, 5%, 5%)" fill-opacity="1.0" font-size="0.0128" text-anchor="start"><text x="0.3157" y="-0.3113">CDCL (adaptive, mVISDS, LubyRestart(100, 2), Clause Decay)</text></g><g stroke-width="0" stroke="rgb(2%, 29%, 48%)" stroke-opacity="1.0" fill="rgb(0%, 21%, 55%)" fill-opacity="1.0"><rect width="0.0213" height="0.0133" x="0.6980" y="-0.3200"/></g><g stroke-width="0.0" stroke="none" fill="rgb(5%, 5%, 5%)" fill-opacity="1.0" font-size="0.0128" text-anchor="start"><text x="0.3157" y="-0.3291">CDCL (adaptive, mVISDS, LubyRestart(100, 2)), Baseline</text></g><g stroke-width="0.0002" stroke="rgb(0%, 36%, 0%)" stroke-opacity="1.0" fill="rgb(0%, 36%, 0%)" fill-opacity="0.25"><rect width="0.0213" height="0.0133" x="0.6980" y="-0.3377"/></g><g stroke-width="0.0" stroke="none" fill="rgb(5%, 5%, 5%)" fill-opacity="1.0" font-size="0.0128" text-anchor="start"><text x="0.3157" y="-0.3468">CDCL (adaptive, mVISDS, LubyRestart(100, 2))</text></g><g stroke-width="0" stroke="rgb(2%, 29%, 48%)" stroke-opacity="1.0" fill="rgb(0%, 36%, 0%)" fill-opacity="1.0"><rect width="0.0213" height="0.0133" x="0.6980" y="-0.3554"/></g><g stroke-width="0.0" stroke="none" fill="rgb(5%, 5%, 5%)" fill-opacity="1.0" font-size="0.0128" text-anchor="start"><text x="0.3157" y="-0.3645">CDCL (adaptive, mVISDS, ExpRestart(100, 2), Clause Decay 0.999)</text></g><g stroke-width="0" stroke="rgb(2%, 29%, 48%)" stroke-opacity="1.0" fill="rgb(70%, 21%, 0%)" fill-opacity="1.0"><rect width="0.0213" height="0.0133" x="0.6980" y="-0.3732"/></g><g stroke-width="0.0" stroke="none" fill="rgb(5%, 5%, 5%)" fill-opacity="1.0" font-size="0.0128" text-anchor="start"><text x="0.3157" y="-0.3823">CDCL (adaptive, mVISDS, ExpRestart(100, 2)), Baseline</text></g><g stroke-width="0.0002" stroke="rgb(47%, 34%, 0%)" stroke-opacity="1.0" fill="rgb(47%, 34%, 0%)" fill-opacity="0.25"><rect width="0.0213" height="0.0133" x="0.6980" y="-0.3909"/></g><g stroke-width="0.0" stroke="none" fill="rgb(5%, 5%, 5%)" fill-opacity="1.0" font-size="0.0128" text-anchor="start"><text x="0.3157" y="-0.4000">CDCL (adaptive, mVISDS, ExpRestart(100, 2))</text></g><g stroke-width="0" stroke="rgb(2%, 29%, 48%)" stroke-opacity="1.0" fill="rgb(47%, 34%, 0%)" fill-opacity="1.0"><rect width="0.0213" height="0.0133" x="0.6980" y="-0.4086"/></g><g stroke-width="0.0" stroke="none" fill="rgb(5%, 5%, 5%)" fill-opacity="1.0" font-size="0.0128" text-anchor="start"><text x="0.3157" y="-0.4177">CDCL (adaptive), Baseline</text></g><g stroke-width="0.0002" stroke="rgb(57%, 0%, 21%)" stroke-opacity="1.0" fill="rgb(57%, 0%, 21%)" fill-opacity="0.25"><rect width="0.0213" height="0.0133" x="0.6980" y="-0.4264"/></g><g stroke-width="0.0" stroke="none" fill="rgb(5%, 5%, 5%)" fill-opacity="1.0" font-size="0.0128" text-anchor="start"><text x="0.3157" y="-0.4355">CDCL (adaptive)</text></g><g stroke-width="0" stroke="rgb(2%, 29%, 48%)" stroke-opacity="1.0" fill="rgb(57%, 0%, 21%)" fill-opacity="1.0"><rect width="0.0213" height="0.0133" x="0.6980" y="-0.4441"/></g></g></g><g class="frame"><g stroke-width="0" stroke="rgb(0%, 0%, 0%)" stroke-opacity="0" fill="rgb(100%, 100%, 100%)" fill-opacity="0.02"><rect width="1.6180" height="1.0" x="-0.8090" y="-0.5"/></g></g><g class="title"><g stroke-width="0.0" stroke="none" fill="rgb(5%, 5%, 5%)" fill-opacity="1.0" font-size="0.0243" text-anchor="middle"><text x="-0.7514" y="0" transform="rotate(-90.0, -0.7514, 0)">Time [s]</text></g></g></g></svg>