<svg xmlns="http://www.w3.org/2000/svg" xmlns:xlink="http://www.w3.org/1999/xlink" width="569" height="300" viewBox="-1.3940 -0.5 2.5920 1.3645"><style>svg {color-scheme: light dark;} {.canvas g, .title g, .axisbar g, .ticktext g, .tickglyph g, .ticklines g, .legendContent g text {fill: rgb(5%, 5%, 5%);} .ticklines g, .tickglyph g, .legendBorder g {stroke: rgb(5%, 5%, 5%);} .legendBorder g {fill: rgb(94%, 94%, 94%);}} @media (prefers-color-scheme:dark) {.canvas g, .title g, .axisbar g, .ticktext g, .tickglyph g, .ticklines g, .legendContent g text {fill: rgb(94%, 94%, 94%);} .ticklines g, .tickglyph g, .legendBorder g {stroke: rgb(94%, 94%, 94%);} .legendBorder g {fill: rgb(5%, 5%, 5%);}}
svg { font-family: system-ui,-apple-system,"Segoe UI",Roboto,"Helvetica Neue",Arial,"Noto Sans","Liberation Sans",sans-serif,"Apple Color Emoji","Segoe UI Emoji","Segoe UI Symbol","Noto Color Emoji";
}

ticktext { font-family: SFMono-Regular,Menlo,Monaco,Consolas,"Liberation Mono","Courier New",monospace;}</style><g class="chart"><g class="barchart"><g stroke-width="0" stroke="rgb(2%, 29%, 48%)" stroke-opacity="1.0" fill="rgb(0%, 68%, 84%)" fill-opacity="1.0"><rect width="0.0641" height="0.0437" x="-0.3523" y="-0.1201"/></g><g stroke-width="0" stroke="rgb(2%, 29%, 48%)" stroke-opacity="1.0" fill="rgb(31%, 35%, 20%)" fill-opacity="1.0"><rect width="0.0641" height="0.0154" x="-0.2883" y="-0.0918"/></g><g stroke-width="0" stroke="rgb(2%, 29%, 48%)" stroke-opacity="1.0" fill="rgb(82%, 47%, 0%)" fill-opacity="1.0"><rect width="0.0641" height="0.0156" x="-0.2242" y="-0.0919"/></g><g stroke-width="0" stroke="rgb(2%, 29%, 48%)" stroke-opacity="1.0" fill="rgb(58%, 33%, 58%)" fill-opacity="1.0"><rect width="0.0641" height="0.0445" x="-0.1601" y="-0.1209"/></g><g stroke-width="0" stroke="rgb(2%, 29%, 48%)" stroke-opacity="1.0" fill="rgb(69%, 48%, 50%)" fill-opacity="1.0"><rect width="0.0641" height="0.0573" x="-0.0960" y="-0.1337"/></g><g stroke-width="0" stroke="rgb(2%, 29%, 48%)" stroke-opacity="1.0" fill="rgb(44%, 21%, 47%)" fill-opacity="1.0"><rect width="0.0641" height="0.0584" x="-0.0319" y="-0.1348"/></g><g stroke-width="0" stroke="rgb(2%, 29%, 48%)" stroke-opacity="1.0" fill="rgb(22%, 70%, 43%)" fill-opacity="1.0"><rect width="0.0641" height="0.0452" x="0.0322" y="-0.1216"/></g><g stroke-width="0" stroke="rgb(2%, 29%, 48%)" stroke-opacity="1.0" fill="rgb(13%, 40%, 0%)" fill-opacity="1.0"><rect width="0.0641" height="0.0350" x="0.0963" y="-0.1114"/></g><g stroke-width="0" stroke="rgb(2%, 29%, 48%)" stroke-opacity="1.0" fill="rgb(24%, 31%, 12%)" fill-opacity="1.0"><rect width="0.0641" height="0.0340" x="0.1604" y="-0.1103"/></g><g stroke-width="0" stroke="rgb(2%, 29%, 48%)" stroke-opacity="1.0" fill="rgb(73%, 50%, 48%)" fill-opacity="1.0"><rect width="0.0641" height="0.0423" x="0.2245" y="-0.1187"/></g><g stroke-width="0" stroke="rgb(2%, 29%, 48%)" stroke-opacity="1.0" fill="rgb(46%, 11%, 0%)" fill-opacity="1.0"><rect width="0.0641" height="0.0253" x="0.2885" y="-0.1016"/></g><g stroke-width="0" stroke="rgb(2%, 29%, 48%)" stroke-opacity="1.0" fill="rgb(39%, 42%, 73%)" fill-opacity="1.0"><rect width="0.0641" height="0.0294" x="0.3526" y="-0.1058"/></g></g><g class="errors"><g stroke-width="0.0015" stroke="rgb(5%, 5%, 5%)" stroke-opacity="1.0" fill="none"><polyline points="-0.3267,0.0316 -0.3139,0.0316"/><polyline points="-0.3203,0.0316 -0.3203,-0.2718"/><polyline points="-0.3267,-0.2718 -0.3139,-0.2718"/></g><g stroke-width="0.0015" stroke="rgb(5%, 5%, 5%)" stroke-opacity="1.0" fill="none"><polyline points="-0.2626,-0.0547 -0.2498,-0.0547"/><polyline points="-0.2562,-0.0547 -0.2562,-0.1288"/><polyline points="-0.2626,-0.1288 -0.2498,-0.1288"/></g><g stroke-width="0.0015" stroke="rgb(5%, 5%, 5%)" stroke-opacity="1.0" fill="none"><polyline points="-0.1985,-0.0713 -0.1857,-0.0713"/><polyline points="-0.1921,-0.0713 -0.1921,-0.1126"/><polyline points="-0.1985,-0.1126 -0.1857,-0.1126"/></g><g stroke-width="0.0015" stroke="rgb(5%, 5%, 5%)" stroke-opacity="1.0" fill="none"><polyline points="-0.1344,-0.0390 -0.1216,-0.0390"/><polyline points="-0.1280,-0.0390 -0.1280,-0.2028"/><polyline points="-0.1344,-0.2028 -0.1216,-0.2028"/></g><g stroke-width="0.0015" stroke="rgb(5%, 5%, 5%)" stroke-opacity="1.0" fill="none"><polyline points="-0.0704,-0.0123 -0.0575,-0.0123"/><polyline points="-0.0639,-0.0123 -0.0639,-0.2551"/><polyline points="-0.0704,-0.2551 -0.0575,-0.2551"/></g><g stroke-width="0.0015" stroke="rgb(5%, 5%, 5%)" stroke-opacity="1.0" fill="none"><polyline points="-0.0063,0.0277 0.0066,0.0277"/><polyline points="0.0001,0.0277 0.0001,-0.2973"/><polyline points="-0.0063,-0.2973 0.0066,-0.2973"/></g><g stroke-width="0.0015" stroke="rgb(5%, 5%, 5%)" stroke-opacity="1.0" fill="none"><polyline points="0.0578,0.0465 0.0706,0.0465"/><polyline points="0.0642,0.0465 0.0642,-0.2897"/><polyline points="0.0578,-0.2897 0.0706,-0.2897"/></g><g stroke-width="0.0015" stroke="rgb(5%, 5%, 5%)" stroke-opacity="1.0" fill="none"><polyline points="0.1219,0.0065 0.1347,0.0065"/><polyline points="0.1283,0.0065 0.1283,-0.2293"/><polyline points="0.1219,-0.2293 0.1347,-0.2293"/></g><g stroke-width="0.0015" stroke="rgb(5%, 5%, 5%)" stroke-opacity="1.0" fill="none"><polyline points="0.1860,-0.0205 0.1988,-0.0205"/><polyline points="0.1924,-0.0205 0.1924,-0.2001"/><polyline points="0.1860,-0.2001 0.1988,-0.2001"/></g><g stroke-width="0.0015" stroke="rgb(5%, 5%, 5%)" stroke-opacity="1.0" fill="none"><polyline points="0.2501,-0.0135 0.2629,-0.0135"/><polyline points="0.2565,-0.0135 0.2565,-0.2239"/><polyline points="0.2501,-0.2239 0.2629,-0.2239"/></g><g stroke-width="0.0015" stroke="rgb(5%, 5%, 5%)" stroke-opacity="1.0" fill="none"><polyline points="0.3142,-0.0481 0.3270,-0.0481"/><polyline points="0.3206,-0.0481 0.3206,-0.1551"/><polyline points="0.3142,-0.1551 0.3270,-0.1551"/></g><g stroke-width="0.0015" stroke="rgb(5%, 5%, 5%)" stroke-opacity="1.0" fill="none"><polyline points="0.3783,-0.0264 0.3911,-0.0264"/><polyline points="0.3847,-0.0264 0.3847,-0.1852"/><polyline points="0.3783,-0.1852 0.3911,-0.1852"/></g></g><g class="datapadding"></g></g><g class="hud"><g class="axis"><g class="axisbar"><g stroke-width="0" stroke="rgb(0%, 0%, 0%)" stroke-opacity="0" fill="rgb(5%, 5%, 5%)" fill-opacity="0.4"><rect width="0.7710" height="0.0016" x="-0.3533" y="0.0738"/></g></g><g class="ticks"><g class="tickglyph"><g stroke-width="0.0016" stroke="rgb(5%, 5%, 5%)" stroke-opacity="0.4" fill="rgb(5%, 5%, 5%)" fill-opacity="0.4"><polyline points="-0.3203,0.0869
-0.3203,0.0746"/><polyline points="-0.2562,0.0869
-0.2562,0.0746"/><polyline points="-0.1921,0.0869
-0.1921,0.0746"/><polyline points="-0.1280,0.0869
-0.1280,0.0746"/><polyline points="-0.0639,0.0869
-0.0639,0.0746"/><polyline points="0.0001,0.0869
0.0001,0.0746"/><polyline points="0.0642,0.0869
0.0642,0.0746"/><polyline points="0.1283,0.0869
0.1283,0.0746"/><polyline points="0.1924,0.0869
0.1924,0.0746"/><polyline points="0.2565,0.0869
0.2565,0.0746"/><polyline points="0.3206,0.0869
0.3206,0.0746"/><polyline points="0.3847,0.0869
0.3847,0.0746"/></g></g><g class="ticktext"><g stroke-width="0.0" stroke="none" fill="rgb(5%, 5%, 5%)" fill-opacity="1.0" font-size="0.0400" text-anchor="end"><text x="-0.3203" y="0.1094" transform="rotate(-45.0, -0.3203, 0.1094)">CDCL (adaptive)</text><text x="-0.2562" y="0.1094" transform="rotate(-45.0, -0.2562, 0.1094)">CDCL (adaptive, mVISDS, ExpRestart(100, 2))</text><text x="-0.1921" y="0.1094" transform="rotate(-45.0, -0.1921, 0.1094)">CDCL (adaptive, mVISDS, LubyRestart(100, 2))</text><text x="-0.1280" y="0.1094" transform="rotate(-45.0, -0.1280, 0.1094)">CDCL (adaptive, mVSIDS)</text><text x="-0.0639" y="0.1094" transform="rotate(-45.0, -0.0639, 0.1094)">CDCL (α = 0.75)</text><text x="0.0001" y="0.1094" transform="rotate(-45.0, 0.0001, 0.1094)">CDCL (α = 0.75, mVISDS)</text><text x="0.0642" y="0.1094" transform="rotate(-45.0, 0.0642, 0.1094)">CDCL (α = 0.75, mVISDS, ExpRestart(100, 2))</text><text x="0.1283" y="0.1094" transform="rotate(-45.0, 0.1283, 0.1094)">CDCL (α = 0.75, mVISDS, LubyRestart(100, 2))</text><text x="0.1924" y="0.1094" transform="rotate(-45.0, 0.1924, 0.1094)">CDCL (α = 0.95)</text><text x="0.2565" y="0.1094" transform="rotate(-45.0, 0.2565, 0.1094)">CDCL (α = 0.95, mVISDS)</text><text x="0.3206" y="0.1094" transform="rotate(-45.0, 0.3206, 0.1094)">CDCL (α = 0.95, mVISDS, ExpRestart(100, 2))</text><text x="0.3847" y="0.1094" transform="rotate(-45.0, 0.3847, 0.1094)">CDCL (α = 0.95, mVISDS, LubyRestart(100, 2))</text></g></g></g></g><g class="axis"><g class="axisbar"><g stroke-width="0" stroke="rgb(0%, 0%, 0%)" stroke-opacity="0" fill="rgb(5%, 5%, 5%)" fill-opacity="0.4"><rect width="0.0019" height="0.4106" x="-0.3590" y="-0.3401"/></g></g><g class="ticks"><g class="ticklines"><g stroke-width="0.0050" stroke="rgb(5%, 5%, 5%)" stroke-opacity="0.05" fill="none"><polyline points="-0.3523,0.0697 0.4167,0.0697"/><polyline points="-0.3523,0.0113 0.4167,0.0113"/><polyline points="-0.3523,-0.0472 0.4167,-0.0472"/><polyline points="-0.3523,-0.1056 0.4167,-0.1056"/><polyline points="-0.3523,-0.1640 0.4167,-0.1640"/><polyline points="-0.3523,-0.2224 0.4167,-0.2224"/><polyline points="-0.3523,-0.2809 0.4167,-0.2809"/><polyline points="-0.3523,-0.3393 0.4167,-0.3393"/></g></g><g class="tickglyph"><g stroke-width="0.0019" stroke="rgb(5%, 5%, 5%)" stroke-opacity="0.4" fill="rgb(5%, 5%, 5%)" fill-opacity="0.4"><polyline points="-0.3723,0.0697
-0.3580,0.0697"/><polyline points="-0.3723,0.0113
-0.3580,0.0113"/><polyline points="-0.3723,-0.0472
-0.3580,-0.0472"/><polyline points="-0.3723,-0.1056
-0.3580,-0.1056"/><polyline points="-0.3723,-0.1640
-0.3580,-0.1640"/><polyline points="-0.3723,-0.2224
-0.3580,-0.2224"/><polyline points="-0.3723,-0.2809
-0.3580,-0.2809"/><polyline points="-0.3723,-0.3393
-0.3580,-0.3393"/></g></g><g class="ticktext"><g stroke-width="0.0" stroke="none" fill="rgb(5%, 5%, 5%)" fill-opacity="1.0" font-size="0.0400" text-anchor="end"><text x="-0.3828" y="0.0742">-3</text><text x="-0.3828" y="0.0158">-2</text><text x="-0.3828" y="-0.0427">-1</text><text x="-0.3828" y="-0.1011"> 0</text><text x="-0.3828" y="-0.1595"> 1</text><text x="-0.3828" y="-0.2179"> 2</text><text x="-0.3828" y="-0.2764"> 3</text><text x="-0.3828" y="-0.3348"> 4</text></g></g></g></g><g class="title"><g stroke-width="0.0" stroke="none" fill="rgb(5%, 5%, 5%)" fill-opacity="1.0" font-size="0.12" text-anchor="middle"><text x="-0.0980" y="-0.3789">Time: SATLIB/uf100-430/uf100-010/cnf</text></g></g><g class="legend"><g class="padding"></g><g class="padding"></g><g class="frame"><g stroke-width="0.0004" stroke="rgb(5%, 5%, 5%)" stroke-opacity="1.0" fill="rgb(5%, 5%, 5%)" fill-opacity="0"><rect width="0.4096" height="0.3507" x="0.3027" y="-0.1057"/></g></g><g class="legendContent"><g stroke-width="0" stroke="rgb(2%, 29%, 48%)" stroke-opacity="1.0" fill="rgb(39%, 42%, 73%)" fill-opacity="1.0"><rect width="0.0250" height="0.0215" x="0.6790" y="0.2164"/></g><g stroke-width="0.0" stroke="none" fill="rgb(5%, 5%, 5%)" fill-opacity="1.0" font-size="0.0133" text-anchor="start"><text x="0.3110" y="0.2300">CDCL (α = 0.95, mVISDS, LubyRestart(100, 2))</text></g><g stroke-width="0" stroke="rgb(2%, 29%, 48%)" stroke-opacity="1.0" fill="rgb(46%, 11%, 0%)" fill-opacity="1.0"><rect width="0.0250" height="0.0215" x="0.6790" y="0.1878"/></g><g stroke-width="0.0" stroke="none" fill="rgb(5%, 5%, 5%)" fill-opacity="1.0" font-size="0.0133" text-anchor="start"><text x="0.3110" y="0.2014">CDCL (α = 0.95, mVISDS, ExpRestart(100, 2))</text></g><g stroke-width="0" stroke="rgb(2%, 29%, 48%)" stroke-opacity="1.0" fill="rgb(73%, 50%, 48%)" fill-opacity="1.0"><rect width="0.0250" height="0.0215" x="0.6790" y="0.1592"/></g><g stroke-width="0.0" stroke="none" fill="rgb(5%, 5%, 5%)" fill-opacity="1.0" font-size="0.0133" text-anchor="start"><text x="0.3110" y="0.1727">CDCL (α = 0.95, mVISDS)</text></g><g stroke-width="0" stroke="rgb(2%, 29%, 48%)" stroke-opacity="1.0" fill="rgb(24%, 31%, 12%)" fill-opacity="1.0"><rect width="0.0250" height="0.0215" x="0.6790" y="0.1305"/></g><g stroke-width="0.0" stroke="none" fill="rgb(5%, 5%, 5%)" fill-opacity="1.0" font-size="0.0133" text-anchor="start"><text x="0.3110" y="0.1441">CDCL (α = 0.95)</text></g><g stroke-width="0" stroke="rgb(2%, 29%, 48%)" stroke-opacity="1.0" fill="rgb(13%, 40%, 0%)" fill-opacity="1.0"><rect width="0.0250" height="0.0215" x="0.6790" y="0.1019"/></g><g stroke-width="0.0" stroke="none" fill="rgb(5%, 5%, 5%)" fill-opacity="1.0" font-size="0.0133" text-anchor="start"><text x="0.3110" y="0.1155">CDCL (α = 0.75, mVISDS, LubyRestart(100, 2))</text></g><g stroke-width="0" stroke="rgb(2%, 29%, 48%)" stroke-opacity="1.0" fill="rgb(22%, 70%, 43%)" fill-opacity="1.0"><rect width="0.0250" height="0.0215" x="0.6790" y="0.0733"/></g><g stroke-width="0.0" stroke="none" fill="rgb(5%, 5%, 5%)" fill-opacity="1.0" font-size="0.0133" text-anchor="start"><text x="0.3110" y="0.0869">CDCL (α = 0.75, mVISDS, ExpRestart(100, 2))</text></g><g stroke-width="0" stroke="rgb(2%, 29%, 48%)" stroke-opacity="1.0" fill="rgb(44%, 21%, 47%)" fill-opacity="1.0"><rect width="0.0250" height="0.0215" x="0.6790" y="0.0446"/></g><g stroke-width="0.0" stroke="none" fill="rgb(5%, 5%, 5%)" fill-opacity="1.0" font-size="0.0133" text-anchor="start"><text x="0.3110" y="0.0582">CDCL (α = 0.75, mVISDS)</text></g><g stroke-width="0" stroke="rgb(2%, 29%, 48%)" stroke-opacity="1.0" fill="rgb(69%, 48%, 50%)" fill-opacity="1.0"><rect width="0.0250" height="0.0215" x="0.6790" y="0.0160"/></g><g stroke-width="0.0" stroke="none" fill="rgb(5%, 5%, 5%)" fill-opacity="1.0" font-size="0.0133" text-anchor="start"><text x="0.3110" y="0.0296">CDCL (α = 0.75)</text></g><g stroke-width="0" stroke="rgb(2%, 29%, 48%)" stroke-opacity="1.0" fill="rgb(58%, 33%, 58%)" fill-opacity="1.0"><rect width="0.0250" height="0.0215" x="0.6790" y="-0.0126"/></g><g stroke-width="0.0" stroke="none" fill="rgb(5%, 5%, 5%)" fill-opacity="1.0" font-size="0.0133" text-anchor="start"><text x="0.3110" y="0.0010">CDCL (adaptive, mVSIDS)</text></g><g stroke-width="0" stroke="rgb(2%, 29%, 48%)" stroke-opacity="1.0" fill="rgb(82%, 47%, 0%)" fill-opacity="1.0"><rect width="0.0250" height="0.0215" x="0.6790" y="-0.0412"/></g><g stroke-width="0.0" stroke="none" fill="rgb(5%, 5%, 5%)" fill-opacity="1.0" font-size="0.0133" text-anchor="start"><text x="0.3110" y="-0.0276">CDCL (adaptive, mVISDS, LubyRestart(100, 2))</text></g><g stroke-width="0" stroke="rgb(2%, 29%, 48%)" stroke-opacity="1.0" fill="rgb(31%, 35%, 20%)" fill-opacity="1.0"><rect width="0.0250" height="0.0215" x="0.6790" y="-0.0699"/></g><g stroke-width="0.0" stroke="none" fill="rgb(5%, 5%, 5%)" fill-opacity="1.0" font-size="0.0133" text-anchor="start"><text x="0.3110" y="-0.0563">CDCL (adaptive, mVISDS, ExpRestart(100, 2))</text></g><g stroke-width="0" stroke="rgb(2%, 29%, 48%)" stroke-opacity="1.0" fill="rgb(0%, 68%, 84%)" fill-opacity="1.0"><rect width="0.0250" height="0.0215" x="0.6790" y="-0.0985"/></g><g stroke-width="0.0" stroke="none" fill="rgb(5%, 5%, 5%)" fill-opacity="1.0" font-size="0.0133" text-anchor="start"><text x="0.3110" y="-0.0849">CDCL (adaptive)</text></g></g></g><g class="frame"><g stroke-width="0" stroke="rgb(0%, 0%, 0%)" stroke-opacity="0" fill="rgb(100%, 100%, 100%)" fill-opacity="0.02"><rect width="1.6180" height="1.0" x="-0.8090" y="-0.5"/></g></g><g class="title"><g stroke-width="0.0" stroke="none" fill="rgb(5%, 5%, 5%)" fill-opacity="1.0" font-size="0.0600" text-anchor="middle"><text x="-0.7415" y="0" transform="rotate(-90.0, -0.7415, 0)">Time [ms]</text></g></g></g></svg>