<svg xmlns="http://www.w3.org/2000/svg" xmlns:xlink="http://www.w3.org/1999/xlink" width="485" height="300" viewBox="-0.8090 -0.5 1.6180 1.0"><style>svg {
  color-scheme: light dark;
}
{
  .canvas g, .title g, .axisbar g, .ticktext g, .tickglyph g, .ticklines g, .legendContent g text {
    fill: rgb(5%, 5%, 5%);
  }
  .ticklines g, .tickglyph g, .legendBorder g {
    stroke: rgb(5%, 5%, 5%);
  }
  .legendBorder g {
    fill: rgb(94%, 94%, 94%);
  }
}
@media (prefers-color-scheme:dark) {
  .canvas g, .title g, .axisbar g, .ticktext g, .tickglyph g, .ticklines g, .legendContent g text {
    fill: rgb(94%, 94%, 94%);
  }
  .ticklines g, .tickglyph g, .legendBorder g {
    stroke: rgb(94%, 94%, 94%);
  }
  .legendBorder g {
    fill: rgb(5%, 5%, 5%);
  }
}</style><g class="chart"><g class="barchart"><g stroke-width="0" stroke="rgb(2%, 29%, 48%)" stroke-opacity="1.0" fill="rgb(0%, 30%, 12%)" fill-opacity="1.0"><rect width="0.0572" height="0.3460" x="-0.4439" y="-0.2639"/></g><g stroke-width="0" stroke="rgb(2%, 29%, 48%)" stroke-opacity="1.0" fill="rgb(0%, 25%, 37%)" fill-opacity="1.0"><rect width="0.0572" height="0.1088" x="-0.3867" y="-0.0268"/></g><g stroke-width="0" stroke="rgb(2%, 29%, 48%)" stroke-opacity="1.0" fill="rgb(26%, 54%, 57%)" fill-opacity="1.0"><rect width="0.0572" height="0.1123" x="-0.3296" y="-0.0302"/></g><g stroke-width="0" stroke="rgb(2%, 29%, 48%)" stroke-opacity="1.0" fill="rgb(1%, 28%, 43%)" fill-opacity="1.0"><rect width="0.0572" height="0.1089" x="-0.2724" y="-0.0269"/></g><g stroke-width="0" stroke="rgb(2%, 29%, 48%)" stroke-opacity="1.0" fill="rgb(0%, 72%, 98%)" fill-opacity="1.0"><rect width="0.0572" height="0.3851" x="-0.2153" y="-0.3031"/></g><g stroke-width="0" stroke="rgb(2%, 29%, 48%)" stroke-opacity="1.0" fill="rgb(90%, 37%, 58%)" fill-opacity="1.0"><rect width="0.0572" height="0.1801" x="-0.1581" y="-0.0981"/></g><g stroke-width="0" stroke="rgb(2%, 29%, 48%)" stroke-opacity="1.0" fill="rgb(38%, 23%, 0%)" fill-opacity="1.0"><rect width="0.0572" height="0.1700" x="-0.1010" y="-0.0880"/></g><g stroke-width="0" stroke="rgb(2%, 29%, 48%)" stroke-opacity="1.0" fill="rgb(91%, 19%, 0%)" fill-opacity="1.0"><rect width="0.0572" height="0.1696" x="-0.0438" y="-0.0876"/></g><g stroke-width="0" stroke="rgb(2%, 29%, 48%)" stroke-opacity="1.0" fill="rgb(0%, 64%, 70%)" fill-opacity="1.0"><rect width="0.0572" height="0.3130" x="0.0134" y="-0.2310"/></g><g stroke-width="0" stroke="rgb(2%, 29%, 48%)" stroke-opacity="1.0" fill="rgb(91%, 47%, 0%)" fill-opacity="1.0"><rect width="0.0572" height="0.1446" x="0.0705" y="-0.0625"/></g><g stroke-width="0" stroke="rgb(2%, 29%, 48%)" stroke-opacity="1.0" fill="rgb(62%, 0%, 31%)" fill-opacity="1.0"><rect width="0.0572" height="0.1715" x="0.1277" y="-0.0895"/></g><g stroke-width="0" stroke="rgb(2%, 29%, 48%)" stroke-opacity="1.0" fill="rgb(17%, 40%, 67%)" fill-opacity="1.0"><rect width="0.0572" height="0.1816" x="0.1848" y="-0.0995"/></g></g><g class="errors"></g></g><g class="hud"><g class="axis"><g class="ticks"><g class="tickglyph"><g stroke-width="0.0040" stroke="rgb(5%, 5%, 5%)" stroke-opacity="0.4" fill="rgb(5%, 5%, 5%)" fill-opacity="0.4"><g transform="rotate(-90.0, -0.4961, 0.0820)"><polyline points="-0.4961,0.0970
-0.4961,0.0670"/></g><g transform="rotate(-90.0, -0.4961, 0.0442)"><polyline points="-0.4961,0.0592
-0.4961,0.0292"/></g><g transform="rotate(-90.0, -0.4961, 0.0063)"><polyline points="-0.4961,0.0213
-0.4961,-0.0087"/></g><g transform="rotate(-90.0, -0.4961, -0.0315)"><polyline points="-0.4961,-0.0165
-0.4961,-0.0465"/></g><g transform="rotate(-90.0, -0.4961, -0.0693)"><polyline points="-0.4961,-0.0543
-0.4961,-0.0843"/></g><g transform="rotate(-90.0, -0.4961, -0.1072)"><polyline points="-0.4961,-0.0922
-0.4961,-0.1222"/></g><g transform="rotate(-90.0, -0.4961, -0.1450)"><polyline points="-0.4961,-0.1300
-0.4961,-0.1600"/></g><g transform="rotate(-90.0, -0.4961, -0.1829)"><polyline points="-0.4961,-0.1679
-0.4961,-0.1979"/></g><g transform="rotate(-90.0, -0.4961, -0.2207)"><polyline points="-0.4961,-0.2057
-0.4961,-0.2357"/></g><g transform="rotate(-90.0, -0.4961, -0.2585)"><polyline points="-0.4961,-0.2435
-0.4961,-0.2735"/></g><g transform="rotate(-90.0, -0.4961, -0.2964)"><polyline points="-0.4961,-0.2814
-0.4961,-0.3114"/></g><g transform="rotate(-90.0, -0.4961, -0.3342)"><polyline points="-0.4961,-0.3192
-0.4961,-0.3492"/></g></g></g><g class="ticktext"><g stroke-width="0.0" stroke="none" fill="rgb(5%, 5%, 5%)" fill-opacity="1.0" font-size="0.0235" text-anchor="end"><text x="-0.5130" y="0.0877"> 0</text><text x="-0.5130" y="0.0499"> 2</text><text x="-0.5130" y="0.0121"> 4</text><text x="-0.5130" y="-0.0258"> 6</text><text x="-0.5130" y="-0.0636"> 8</text><text x="-0.5130" y="-0.1015">10</text><text x="-0.5130" y="-0.1393">12</text><text x="-0.5130" y="-0.1771">14</text><text x="-0.5130" y="-0.2150">16</text><text x="-0.5130" y="-0.2528">18</text><text x="-0.5130" y="-0.2907">20</text><text x="-0.5130" y="-0.3285">22</text></g></g><g class="ticklines"><g stroke-width="0.0050" stroke="rgb(5%, 5%, 5%)" stroke-opacity="0.05" fill="none"><polyline points="-0.4820,0.0820 0.2801,0.0820"/><polyline points="-0.4820,0.0442 0.2801,0.0442"/><polyline points="-0.4820,0.0063 0.2801,0.0063"/><polyline points="-0.4820,-0.0315 0.2801,-0.0315"/><polyline points="-0.4820,-0.0693 0.2801,-0.0693"/><polyline points="-0.4820,-0.1072 0.2801,-0.1072"/><polyline points="-0.4820,-0.1450 0.2801,-0.1450"/><polyline points="-0.4820,-0.1829 0.2801,-0.1829"/><polyline points="-0.4820,-0.2207 0.2801,-0.2207"/><polyline points="-0.4820,-0.2585 0.2801,-0.2585"/><polyline points="-0.4820,-0.2964 0.2801,-0.2964"/><polyline points="-0.4820,-0.3342 0.2801,-0.3342"/></g></g></g><g class="axisbar"><g stroke-width="0" stroke="rgb(0%, 0%, 0%)" stroke-opacity="0" fill="rgb(5%, 5%, 5%)" fill-opacity="0.4"><rect width="0.0019" height="0.4179" x="-0.4885" y="-0.3351"/></g></g></g><g class="axis"><g class="ticks"><g class="tickglyph"><g stroke-width="0.0040" stroke="rgb(5%, 5%, 5%)" stroke-opacity="0.4" fill="rgb(5%, 5%, 5%)" fill-opacity="0.4"><polyline points="-0.4153,0.1095
-0.4153,0.0795"/><polyline points="-0.3581,0.1095
-0.3581,0.0795"/><polyline points="-0.3010,0.1095
-0.3010,0.0795"/><polyline points="-0.2438,0.1095
-0.2438,0.0795"/><polyline points="-0.1867,0.1095
-0.1867,0.0795"/><polyline points="-0.1295,0.1095
-0.1295,0.0795"/><polyline points="-0.0724,0.1095
-0.0724,0.0795"/><polyline points="-0.0152,0.1095
-0.0152,0.0795"/><polyline points="0.0419,0.1095
0.0419,0.0795"/><polyline points="0.0991,0.1095
0.0991,0.0795"/><polyline points="0.1562,0.1095
0.1562,0.0795"/><polyline points="0.2134,0.1095
0.2134,0.0795"/></g></g><g class="ticktext"><g stroke-width="0.0" stroke="none" fill="rgb(5%, 5%, 5%)" fill-opacity="1.0" font-size="0.0235" text-anchor="end"><text x="-0.4153" y="0.1209" transform="rotate(-45.0, -0.4153, 0.1209)">CDCL (adaptive)</text><text x="-0.3581" y="0.1209" transform="rotate(-45.0, -0.3581, 0.1209)">CDCL (adaptive, mVISDS, ExpRestart(100, 2))</text><text x="-0.3010" y="0.1209" transform="rotate(-45.0, -0.3010, 0.1209)">CDCL (adaptive, mVISDS, LubyRestart(100, 2))</text><text x="-0.2438" y="0.1209" transform="rotate(-45.0, -0.2438, 0.1209)">CDCL (adaptive, mVSIDS)</text><text x="-0.1867" y="0.1209" transform="rotate(-45.0, -0.1867, 0.1209)">CDCL (α = 0.75)</text><text x="-0.1295" y="0.1209" transform="rotate(-45.0, -0.1295, 0.1209)">CDCL (α = 0.75, mVISDS)</text><text x="-0.0724" y="0.1209" transform="rotate(-45.0, -0.0724, 0.1209)">CDCL (α = 0.75, mVISDS, ExpRestart(100, 2))</text><text x="-0.0152" y="0.1209" transform="rotate(-45.0, -0.0152, 0.1209)">CDCL (α = 0.75, mVISDS, LubyRestart(100, 2))</text><text x="0.0419" y="0.1209" transform="rotate(-45.0, 0.0419, 0.1209)">CDCL (α = 0.95)</text><text x="0.0991" y="0.1209" transform="rotate(-45.0, 0.0991, 0.1209)">CDCL (α = 0.95, mVISDS)</text><text x="0.1562" y="0.1209" transform="rotate(-45.0, 0.1562, 0.1209)">CDCL (α = 0.95, mVISDS, ExpRestart(100, 2))</text><text x="0.2134" y="0.1209" transform="rotate(-45.0, 0.2134, 0.1209)">CDCL (α = 0.95, mVISDS, LubyRestart(100, 2))</text></g></g></g><g class="axisbar"><g stroke-width="0" stroke="rgb(0%, 0%, 0%)" stroke-opacity="0" fill="rgb(5%, 5%, 5%)" fill-opacity="0.4"><rect width="0.7639" height="0.0017" x="-0.4829" y="0.0862"/></g></g></g><g class="title"><g stroke-width="0.0" stroke="none" fill="rgb(5%, 5%, 5%)" fill-opacity="1.0" font-size="0.0565" text-anchor="middle"><text x="-0.2062" y="-0.3768">Copied: SATLIB/flat200-479/flat200-1/cnf</text></g></g><g class="legend"><g class="legendBorder"><g stroke-width="0.0017" stroke="rgb(5%, 5%, 5%)" stroke-opacity="1.0" fill="rgb(5%, 5%, 5%)" fill-opacity="0"><rect width="0.3514" height="0.3569" x="0.3618" y="-0.2567"/></g></g><g class="legendContent"><g stroke-width="0.0" stroke="none" fill="rgb(5%, 5%, 5%)" fill-opacity="1.0" font-size="0.0148" text-anchor="start"><text x="0.3700" y="0.0853">CDCL (α = 0.95, mVISDS, LubyRestart(100, 2))</text></g><g stroke-width="0" stroke="rgb(2%, 29%, 48%)" stroke-opacity="1.0" fill="rgb(17%, 40%, 67%)" fill-opacity="1.0"><rect width="0.0247" height="0.0219" x="0.6802" y="0.0711"/></g><g stroke-width="0.0" stroke="none" fill="rgb(5%, 5%, 5%)" fill-opacity="1.0" font-size="0.0148" text-anchor="start"><text x="0.3700" y="0.0562">CDCL (α = 0.95, mVISDS, ExpRestart(100, 2))</text></g><g stroke-width="0" stroke="rgb(2%, 29%, 48%)" stroke-opacity="1.0" fill="rgb(62%, 0%, 31%)" fill-opacity="1.0"><rect width="0.0247" height="0.0219" x="0.6802" y="0.0420"/></g><g stroke-width="0.0" stroke="none" fill="rgb(5%, 5%, 5%)" fill-opacity="1.0" font-size="0.0148" text-anchor="start"><text x="0.3700" y="0.0270">CDCL (α = 0.95, mVISDS)</text></g><g stroke-width="0" stroke="rgb(2%, 29%, 48%)" stroke-opacity="1.0" fill="rgb(91%, 47%, 0%)" fill-opacity="1.0"><rect width="0.0247" height="0.0219" x="0.6802" y="0.0128"/></g><g stroke-width="0.0" stroke="none" fill="rgb(5%, 5%, 5%)" fill-opacity="1.0" font-size="0.0148" text-anchor="start"><text x="0.3700" y="-0.0021">CDCL (α = 0.95)</text></g><g stroke-width="0" stroke="rgb(2%, 29%, 48%)" stroke-opacity="1.0" fill="rgb(0%, 64%, 70%)" fill-opacity="1.0"><rect width="0.0247" height="0.0219" x="0.6802" y="-0.0163"/></g><g stroke-width="0.0" stroke="none" fill="rgb(5%, 5%, 5%)" fill-opacity="1.0" font-size="0.0148" text-anchor="start"><text x="0.3700" y="-0.0312">CDCL (α = 0.75, mVISDS, LubyRestart(100, 2))</text></g><g stroke-width="0" stroke="rgb(2%, 29%, 48%)" stroke-opacity="1.0" fill="rgb(91%, 19%, 0%)" fill-opacity="1.0"><rect width="0.0247" height="0.0219" x="0.6802" y="-0.0455"/></g><g stroke-width="0.0" stroke="none" fill="rgb(5%, 5%, 5%)" fill-opacity="1.0" font-size="0.0148" text-anchor="start"><text x="0.3700" y="-0.0604">CDCL (α = 0.75, mVISDS, ExpRestart(100, 2))</text></g><g stroke-width="0" stroke="rgb(2%, 29%, 48%)" stroke-opacity="1.0" fill="rgb(38%, 23%, 0%)" fill-opacity="1.0"><rect width="0.0247" height="0.0219" x="0.6802" y="-0.0746"/></g><g stroke-width="0.0" stroke="none" fill="rgb(5%, 5%, 5%)" fill-opacity="1.0" font-size="0.0148" text-anchor="start"><text x="0.3700" y="-0.0895">CDCL (α = 0.75, mVISDS)</text></g><g stroke-width="0" stroke="rgb(2%, 29%, 48%)" stroke-opacity="1.0" fill="rgb(90%, 37%, 58%)" fill-opacity="1.0"><rect width="0.0247" height="0.0219" x="0.6802" y="-0.1037"/></g><g stroke-width="0.0" stroke="none" fill="rgb(5%, 5%, 5%)" fill-opacity="1.0" font-size="0.0148" text-anchor="start"><text x="0.3700" y="-0.1187">CDCL (α = 0.75)</text></g><g stroke-width="0" stroke="rgb(2%, 29%, 48%)" stroke-opacity="1.0" fill="rgb(0%, 72%, 98%)" fill-opacity="1.0"><rect width="0.0247" height="0.0219" x="0.6802" y="-0.1329"/></g><g stroke-width="0.0" stroke="none" fill="rgb(5%, 5%, 5%)" fill-opacity="1.0" font-size="0.0148" text-anchor="start"><text x="0.3700" y="-0.1478">CDCL (adaptive, mVSIDS)</text></g><g stroke-width="0" stroke="rgb(2%, 29%, 48%)" stroke-opacity="1.0" fill="rgb(1%, 28%, 43%)" fill-opacity="1.0"><rect width="0.0247" height="0.0219" x="0.6802" y="-0.1620"/></g><g stroke-width="0.0" stroke="none" fill="rgb(5%, 5%, 5%)" fill-opacity="1.0" font-size="0.0148" text-anchor="start"><text x="0.3700" y="-0.1769">CDCL (adaptive, mVISDS, LubyRestart(100, 2))</text></g><g stroke-width="0" stroke="rgb(2%, 29%, 48%)" stroke-opacity="1.0" fill="rgb(26%, 54%, 57%)" fill-opacity="1.0"><rect width="0.0247" height="0.0219" x="0.6802" y="-0.1911"/></g><g stroke-width="0.0" stroke="none" fill="rgb(5%, 5%, 5%)" fill-opacity="1.0" font-size="0.0148" text-anchor="start"><text x="0.3700" y="-0.2061">CDCL (adaptive, mVISDS, ExpRestart(100, 2))</text></g><g stroke-width="0" stroke="rgb(2%, 29%, 48%)" stroke-opacity="1.0" fill="rgb(0%, 25%, 37%)" fill-opacity="1.0"><rect width="0.0247" height="0.0219" x="0.6802" y="-0.2203"/></g><g stroke-width="0.0" stroke="none" fill="rgb(5%, 5%, 5%)" fill-opacity="1.0" font-size="0.0148" text-anchor="start"><text x="0.3700" y="-0.2352">CDCL (adaptive)</text></g><g stroke-width="0" stroke="rgb(2%, 29%, 48%)" stroke-opacity="1.0" fill="rgb(0%, 30%, 12%)" fill-opacity="1.0"><rect width="0.0247" height="0.0219" x="0.6802" y="-0.2494"/></g></g></g><g class="frame"><g stroke-width="0" stroke="rgb(0%, 0%, 0%)" stroke-opacity="0" fill="rgb(100%, 100%, 100%)" fill-opacity="0.02"><rect width="1.6180" height="1.0" x="-0.8090" y="-0.5"/></g></g><g class="title"><g stroke-width="0.0" stroke="none" fill="rgb(5%, 5%, 5%)" fill-opacity="1.0" font-size="0.0283" text-anchor="middle"><text x="-0.7421" y="0" transform="rotate(-90.0, -0.7421, 0)">Copied [MiB]</text></g></g></g></svg>