<svg xmlns="http://www.w3.org/2000/svg" xmlns:xlink="http://www.w3.org/1999/xlink" width="485" height="300" viewBox="-0.8090 -0.5 1.6180 1.0"><style>svg {
  color-scheme: light dark;
}
{
  .canvas g, .title g, .axisbar g, .ticktext g, .tickglyph g, .ticklines g, .legendContent g text {
    fill: rgb(5%, 5%, 5%);
  }
  .ticklines g, .tickglyph g, .legendBorder g {
    stroke: rgb(5%, 5%, 5%);
  }
  .legendBorder g {
    fill: rgb(94%, 94%, 94%);
  }
}
@media (prefers-color-scheme:dark) {
  .canvas g, .title g, .axisbar g, .ticktext g, .tickglyph g, .ticklines g, .legendContent g text {
    fill: rgb(94%, 94%, 94%);
  }
  .ticklines g, .tickglyph g, .legendBorder g {
    stroke: rgb(94%, 94%, 94%);
  }
  .legendBorder g {
    fill: rgb(5%, 5%, 5%);
  }
}</style><g class="chart"><g class="barchart"><g stroke-width="0" stroke="rgb(2%, 29%, 48%)" stroke-opacity="1.0" fill="rgb(0%, 30%, 12%)" fill-opacity="1.0"><rect width="0.0579" height="0.3488" x="-0.4605" y="-0.2668"/></g><g stroke-width="0" stroke="rgb(2%, 29%, 48%)" stroke-opacity="1.0" fill="rgb(0%, 25%, 37%)" fill-opacity="1.0"><rect width="0.0579" height="0.1119" x="-0.4026" y="-0.0299"/></g><g stroke-width="0" stroke="rgb(2%, 29%, 48%)" stroke-opacity="1.0" fill="rgb(26%, 54%, 57%)" fill-opacity="1.0"><rect width="0.0579" height="0.1132" x="-0.3447" y="-0.0312"/></g><g stroke-width="0" stroke="rgb(2%, 29%, 48%)" stroke-opacity="1.0" fill="rgb(1%, 28%, 43%)" fill-opacity="1.0"><rect width="0.0579" height="0.1093" x="-0.2868" y="-0.0272"/></g><g stroke-width="0" stroke="rgb(2%, 29%, 48%)" stroke-opacity="1.0" fill="rgb(0%, 72%, 98%)" fill-opacity="1.0"><rect width="0.0579" height="0.3706" x="-0.2288" y="-0.2886"/></g><g stroke-width="0" stroke="rgb(2%, 29%, 48%)" stroke-opacity="1.0" fill="rgb(90%, 37%, 58%)" fill-opacity="1.0"><rect width="0.0579" height="0.1774" x="-0.1709" y="-0.0954"/></g><g stroke-width="0" stroke="rgb(2%, 29%, 48%)" stroke-opacity="1.0" fill="rgb(38%, 23%, 0%)" fill-opacity="1.0"><rect width="0.0579" height="0.1663" x="-0.1130" y="-0.0843"/></g><g stroke-width="0" stroke="rgb(2%, 29%, 48%)" stroke-opacity="1.0" fill="rgb(91%, 19%, 0%)" fill-opacity="1.0"><rect width="0.0579" height="0.1677" x="-0.0551" y="-0.0857"/></g><g stroke-width="0" stroke="rgb(2%, 29%, 48%)" stroke-opacity="1.0" fill="rgb(0%, 64%, 70%)" fill-opacity="1.0"><rect width="0.0579" height="0.3160" x="0.0028" y="-0.2340"/></g><g stroke-width="0" stroke="rgb(2%, 29%, 48%)" stroke-opacity="1.0" fill="rgb(91%, 47%, 0%)" fill-opacity="1.0"><rect width="0.0579" height="0.1466" x="0.0607" y="-0.0645"/></g><g stroke-width="0" stroke="rgb(2%, 29%, 48%)" stroke-opacity="1.0" fill="rgb(62%, 0%, 31%)" fill-opacity="1.0"><rect width="0.0579" height="0.1766" x="0.1186" y="-0.0946"/></g><g stroke-width="0" stroke="rgb(2%, 29%, 48%)" stroke-opacity="1.0" fill="rgb(17%, 40%, 67%)" fill-opacity="1.0"><rect width="0.0579" height="0.1774" x="0.1765" y="-0.0954"/></g></g><g class="errors"><g stroke-width="0.0015" stroke="rgb(5%, 5%, 5%)" stroke-opacity="1.0" fill="none"><polyline points="-0.4373,-0.2660 -0.4257,-0.2660"/><polyline points="-0.4315,-0.2660 -0.4315,-0.2676"/><polyline points="-0.4373,-0.2676 -0.4257,-0.2676"/></g><g stroke-width="0.0015" stroke="rgb(5%, 5%, 5%)" stroke-opacity="1.0" fill="none"><polyline points="-0.3794,-0.0280 -0.3678,-0.0280"/><polyline points="-0.3736,-0.0280 -0.3736,-0.0318"/><polyline points="-0.3794,-0.0318 -0.3678,-0.0318"/></g><g stroke-width="0.0015" stroke="rgb(5%, 5%, 5%)" stroke-opacity="1.0" fill="none"><polyline points="-0.3215,-0.0268 -0.3099,-0.0268"/><polyline points="-0.3157,-0.0268 -0.3157,-0.0356"/><polyline points="-0.3215,-0.0356 -0.3099,-0.0356"/></g><g stroke-width="0.0015" stroke="rgb(5%, 5%, 5%)" stroke-opacity="1.0" fill="none"><polyline points="-0.2636,-0.0255 -0.2520,-0.0255"/><polyline points="-0.2578,-0.0255 -0.2578,-0.0289"/><polyline points="-0.2636,-0.0289 -0.2520,-0.0289"/></g><g stroke-width="0.0015" stroke="rgb(5%, 5%, 5%)" stroke-opacity="1.0" fill="none"><polyline points="-0.2057,-0.2772 -0.1941,-0.2772"/><polyline points="-0.1999,-0.2772 -0.1999,-0.3000"/><polyline points="-0.2057,-0.3000 -0.1941,-0.3000"/></g><g stroke-width="0.0015" stroke="rgb(5%, 5%, 5%)" stroke-opacity="1.0" fill="none"><polyline points="-0.1478,-0.0898 -0.1362,-0.0898"/><polyline points="-0.1420,-0.0898 -0.1420,-0.1010"/><polyline points="-0.1478,-0.1010 -0.1362,-0.1010"/></g><g stroke-width="0.0015" stroke="rgb(5%, 5%, 5%)" stroke-opacity="1.0" fill="none"><polyline points="-0.0899,-0.0799 -0.0783,-0.0799"/><polyline points="-0.0841,-0.0799 -0.0841,-0.0886"/><polyline points="-0.0899,-0.0886 -0.0783,-0.0886"/></g><g stroke-width="0.0015" stroke="rgb(5%, 5%, 5%)" stroke-opacity="1.0" fill="none"><polyline points="-0.0320,-0.0836 -0.0204,-0.0836"/><polyline points="-0.0262,-0.0836 -0.0262,-0.0879"/><polyline points="-0.0320,-0.0879 -0.0204,-0.0879"/></g><g stroke-width="0.0015" stroke="rgb(5%, 5%, 5%)" stroke-opacity="1.0" fill="none"><polyline points="0.0260,-0.2220 0.0375,-0.2220"/><polyline points="0.0317,-0.2220 0.0317,-0.2461"/><polyline points="0.0260,-0.2461 0.0375,-0.2461"/></g><g stroke-width="0.0015" stroke="rgb(5%, 5%, 5%)" stroke-opacity="1.0" fill="none"><polyline points="0.0839,-0.0630 0.0954,-0.0630"/><polyline points="0.0897,-0.0630 0.0897,-0.0661"/><polyline points="0.0839,-0.0661 0.0954,-0.0661"/></g><g stroke-width="0.0015" stroke="rgb(5%, 5%, 5%)" stroke-opacity="1.0" fill="none"><polyline points="0.1418,-0.0926 0.1534,-0.0926"/><polyline points="0.1476,-0.0926 0.1476,-0.0965"/><polyline points="0.1418,-0.0965 0.1534,-0.0965"/></g><g stroke-width="0.0015" stroke="rgb(5%, 5%, 5%)" stroke-opacity="1.0" fill="none"><polyline points="0.1997,-0.0912 0.2113,-0.0912"/><polyline points="0.2055,-0.0912 0.2055,-0.0995"/><polyline points="0.1997,-0.0995 0.2113,-0.0995"/></g></g></g><g class="hud"><g class="axis"><g class="ticks"><g class="tickglyph"><g stroke-width="0.0040" stroke="rgb(5%, 5%, 5%)" stroke-opacity="0.4" fill="rgb(5%, 5%, 5%)" fill-opacity="0.4"><g transform="rotate(-90.0, -0.5134, 0.0820)"><polyline points="-0.5134,0.0970
-0.5134,0.0670"/></g><g transform="rotate(-90.0, -0.5134, 0.0442)"><polyline points="-0.5134,0.0592
-0.5134,0.0292"/></g><g transform="rotate(-90.0, -0.5134, 0.0063)"><polyline points="-0.5134,0.0213
-0.5134,-0.0087"/></g><g transform="rotate(-90.0, -0.5134, -0.0315)"><polyline points="-0.5134,-0.0165
-0.5134,-0.0465"/></g><g transform="rotate(-90.0, -0.5134, -0.0693)"><polyline points="-0.5134,-0.0543
-0.5134,-0.0843"/></g><g transform="rotate(-90.0, -0.5134, -0.1072)"><polyline points="-0.5134,-0.0922
-0.5134,-0.1222"/></g><g transform="rotate(-90.0, -0.5134, -0.1450)"><polyline points="-0.5134,-0.1300
-0.5134,-0.1600"/></g><g transform="rotate(-90.0, -0.5134, -0.1829)"><polyline points="-0.5134,-0.1679
-0.5134,-0.1979"/></g><g transform="rotate(-90.0, -0.5134, -0.2207)"><polyline points="-0.5134,-0.2057
-0.5134,-0.2357"/></g><g transform="rotate(-90.0, -0.5134, -0.2585)"><polyline points="-0.5134,-0.2435
-0.5134,-0.2735"/></g><g transform="rotate(-90.0, -0.5134, -0.2964)"><polyline points="-0.5134,-0.2814
-0.5134,-0.3114"/></g><g transform="rotate(-90.0, -0.5134, -0.3342)"><polyline points="-0.5134,-0.3192
-0.5134,-0.3492"/></g></g></g><g class="ticktext"><g stroke-width="0.0" stroke="none" fill="rgb(5%, 5%, 5%)" fill-opacity="1.0" font-size="0.0239" text-anchor="end"><text x="-0.5306" y="0.0877">    0</text><text x="-0.5306" y="0.0499">  100</text><text x="-0.5306" y="0.0121">  200</text><text x="-0.5306" y="-0.0258">  300</text><text x="-0.5306" y="-0.0636">  400</text><text x="-0.5306" y="-0.1015">  500</text><text x="-0.5306" y="-0.1393">  600</text><text x="-0.5306" y="-0.1771">  700</text><text x="-0.5306" y="-0.2150">  800</text><text x="-0.5306" y="-0.2528">  900</text><text x="-0.5306" y="-0.2907">1,000</text><text x="-0.5306" y="-0.3285">1,100</text></g></g><g class="ticklines"><g stroke-width="0.0050" stroke="rgb(5%, 5%, 5%)" stroke-opacity="0.05" fill="none"><polyline points="-0.4991,0.0820 0.2730,0.0820"/><polyline points="-0.4991,0.0442 0.2730,0.0442"/><polyline points="-0.4991,0.0063 0.2730,0.0063"/><polyline points="-0.4991,-0.0315 0.2730,-0.0315"/><polyline points="-0.4991,-0.0693 0.2730,-0.0693"/><polyline points="-0.4991,-0.1072 0.2730,-0.1072"/><polyline points="-0.4991,-0.1450 0.2730,-0.1450"/><polyline points="-0.4991,-0.1829 0.2730,-0.1829"/><polyline points="-0.4991,-0.2207 0.2730,-0.2207"/><polyline points="-0.4991,-0.2585 0.2730,-0.2585"/><polyline points="-0.4991,-0.2964 0.2730,-0.2964"/><polyline points="-0.4991,-0.3342 0.2730,-0.3342"/></g></g></g><g class="axisbar"><g stroke-width="0" stroke="rgb(0%, 0%, 0%)" stroke-opacity="0" fill="rgb(5%, 5%, 5%)" fill-opacity="0.4"><rect width="0.0019" height="0.4179" x="-0.5058" y="-0.3351"/></g></g></g><g class="axis"><g class="ticks"><g class="tickglyph"><g stroke-width="0.0040" stroke="rgb(5%, 5%, 5%)" stroke-opacity="0.4" fill="rgb(5%, 5%, 5%)" fill-opacity="0.4"><polyline points="-0.4315,0.1095
-0.4315,0.0795"/><polyline points="-0.3736,0.1095
-0.3736,0.0795"/><polyline points="-0.3157,0.1095
-0.3157,0.0795"/><polyline points="-0.2578,0.1095
-0.2578,0.0795"/><polyline points="-0.1999,0.1095
-0.1999,0.0795"/><polyline points="-0.1420,0.1095
-0.1420,0.0795"/><polyline points="-0.0841,0.1095
-0.0841,0.0795"/><polyline points="-0.0262,0.1095
-0.0262,0.0795"/><polyline points="0.0317,0.1095
0.0317,0.0795"/><polyline points="0.0897,0.1095
0.0897,0.0795"/><polyline points="0.1476,0.1095
0.1476,0.0795"/><polyline points="0.2055,0.1095
0.2055,0.0795"/></g></g><g class="ticktext"><g stroke-width="0.0" stroke="none" fill="rgb(5%, 5%, 5%)" fill-opacity="1.0" font-size="0.0239" text-anchor="end"><text x="-0.4315" y="0.1209" transform="rotate(-45.0, -0.4315, 0.1209)">CDCL (adaptive)</text><text x="-0.3736" y="0.1209" transform="rotate(-45.0, -0.3736, 0.1209)">CDCL (adaptive, mVISDS, ExpRestart(100, 2))</text><text x="-0.3157" y="0.1209" transform="rotate(-45.0, -0.3157, 0.1209)">CDCL (adaptive, mVISDS, LubyRestart(100, 2))</text><text x="-0.2578" y="0.1209" transform="rotate(-45.0, -0.2578, 0.1209)">CDCL (adaptive, mVSIDS)</text><text x="-0.1999" y="0.1209" transform="rotate(-45.0, -0.1999, 0.1209)">CDCL (α = 0.75)</text><text x="-0.1420" y="0.1209" transform="rotate(-45.0, -0.1420, 0.1209)">CDCL (α = 0.75, mVISDS)</text><text x="-0.0841" y="0.1209" transform="rotate(-45.0, -0.0841, 0.1209)">CDCL (α = 0.75, mVISDS, ExpRestart(100, 2))</text><text x="-0.0262" y="0.1209" transform="rotate(-45.0, -0.0262, 0.1209)">CDCL (α = 0.75, mVISDS, LubyRestart(100, 2))</text><text x="0.0317" y="0.1209" transform="rotate(-45.0, 0.0317, 0.1209)">CDCL (α = 0.95)</text><text x="0.0897" y="0.1209" transform="rotate(-45.0, 0.0897, 0.1209)">CDCL (α = 0.95, mVISDS)</text><text x="0.1476" y="0.1209" transform="rotate(-45.0, 0.1476, 0.1209)">CDCL (α = 0.95, mVISDS, ExpRestart(100, 2))</text><text x="0.2055" y="0.1209" transform="rotate(-45.0, 0.2055, 0.1209)">CDCL (α = 0.95, mVISDS, LubyRestart(100, 2))</text></g></g></g><g class="axisbar"><g stroke-width="0" stroke="rgb(0%, 0%, 0%)" stroke-opacity="0" fill="rgb(5%, 5%, 5%)" fill-opacity="0.4"><rect width="0.7740" height="0.0017" x="-0.5000" y="0.0862"/></g></g></g><g class="title"><g stroke-width="0.0" stroke="none" fill="rgb(5%, 5%, 5%)" fill-opacity="1.0" font-size="0.0573" text-anchor="middle"><text x="-0.2197" y="-0.3768">Time: SATLIB/flat200-479/flat200-1/cnf</text></g></g><g class="legend"><g class="legendBorder"><g stroke-width="0.0017" stroke="rgb(5%, 5%, 5%)" stroke-opacity="1.0" fill="rgb(5%, 5%, 5%)" fill-opacity="0"><rect width="0.3561" height="0.3569" x="0.3558" y="-0.2567"/></g></g><g class="legendContent"><g stroke-width="0.0" stroke="none" fill="rgb(5%, 5%, 5%)" fill-opacity="1.0" font-size="0.0150" text-anchor="start"><text x="0.3642" y="0.0853">CDCL (α = 0.95, mVISDS, LubyRestart(100, 2))</text></g><g stroke-width="0" stroke="rgb(2%, 29%, 48%)" stroke-opacity="1.0" fill="rgb(17%, 40%, 67%)" fill-opacity="1.0"><rect width="0.0251" height="0.0219" x="0.6785" y="0.0711"/></g><g stroke-width="0.0" stroke="none" fill="rgb(5%, 5%, 5%)" fill-opacity="1.0" font-size="0.0150" text-anchor="start"><text x="0.3642" y="0.0562">CDCL (α = 0.95, mVISDS, ExpRestart(100, 2))</text></g><g stroke-width="0" stroke="rgb(2%, 29%, 48%)" stroke-opacity="1.0" fill="rgb(62%, 0%, 31%)" fill-opacity="1.0"><rect width="0.0251" height="0.0219" x="0.6785" y="0.0420"/></g><g stroke-width="0.0" stroke="none" fill="rgb(5%, 5%, 5%)" fill-opacity="1.0" font-size="0.0150" text-anchor="start"><text x="0.3642" y="0.0270">CDCL (α = 0.95, mVISDS)</text></g><g stroke-width="0" stroke="rgb(2%, 29%, 48%)" stroke-opacity="1.0" fill="rgb(91%, 47%, 0%)" fill-opacity="1.0"><rect width="0.0251" height="0.0219" x="0.6785" y="0.0128"/></g><g stroke-width="0.0" stroke="none" fill="rgb(5%, 5%, 5%)" fill-opacity="1.0" font-size="0.0150" text-anchor="start"><text x="0.3642" y="-0.0021">CDCL (α = 0.95)</text></g><g stroke-width="0" stroke="rgb(2%, 29%, 48%)" stroke-opacity="1.0" fill="rgb(0%, 64%, 70%)" fill-opacity="1.0"><rect width="0.0251" height="0.0219" x="0.6785" y="-0.0163"/></g><g stroke-width="0.0" stroke="none" fill="rgb(5%, 5%, 5%)" fill-opacity="1.0" font-size="0.0150" text-anchor="start"><text x="0.3642" y="-0.0312">CDCL (α = 0.75, mVISDS, LubyRestart(100, 2))</text></g><g stroke-width="0" stroke="rgb(2%, 29%, 48%)" stroke-opacity="1.0" fill="rgb(91%, 19%, 0%)" fill-opacity="1.0"><rect width="0.0251" height="0.0219" x="0.6785" y="-0.0455"/></g><g stroke-width="0.0" stroke="none" fill="rgb(5%, 5%, 5%)" fill-opacity="1.0" font-size="0.0150" text-anchor="start"><text x="0.3642" y="-0.0604">CDCL (α = 0.75, mVISDS, ExpRestart(100, 2))</text></g><g stroke-width="0" stroke="rgb(2%, 29%, 48%)" stroke-opacity="1.0" fill="rgb(38%, 23%, 0%)" fill-opacity="1.0"><rect width="0.0251" height="0.0219" x="0.6785" y="-0.0746"/></g><g stroke-width="0.0" stroke="none" fill="rgb(5%, 5%, 5%)" fill-opacity="1.0" font-size="0.0150" text-anchor="start"><text x="0.3642" y="-0.0895">CDCL (α = 0.75, mVISDS)</text></g><g stroke-width="0" stroke="rgb(2%, 29%, 48%)" stroke-opacity="1.0" fill="rgb(90%, 37%, 58%)" fill-opacity="1.0"><rect width="0.0251" height="0.0219" x="0.6785" y="-0.1037"/></g><g stroke-width="0.0" stroke="none" fill="rgb(5%, 5%, 5%)" fill-opacity="1.0" font-size="0.0150" text-anchor="start"><text x="0.3642" y="-0.1187">CDCL (α = 0.75)</text></g><g stroke-width="0" stroke="rgb(2%, 29%, 48%)" stroke-opacity="1.0" fill="rgb(0%, 72%, 98%)" fill-opacity="1.0"><rect width="0.0251" height="0.0219" x="0.6785" y="-0.1329"/></g><g stroke-width="0.0" stroke="none" fill="rgb(5%, 5%, 5%)" fill-opacity="1.0" font-size="0.0150" text-anchor="start"><text x="0.3642" y="-0.1478">CDCL (adaptive, mVSIDS)</text></g><g stroke-width="0" stroke="rgb(2%, 29%, 48%)" stroke-opacity="1.0" fill="rgb(1%, 28%, 43%)" fill-opacity="1.0"><rect width="0.0251" height="0.0219" x="0.6785" y="-0.1620"/></g><g stroke-width="0.0" stroke="none" fill="rgb(5%, 5%, 5%)" fill-opacity="1.0" font-size="0.0150" text-anchor="start"><text x="0.3642" y="-0.1769">CDCL (adaptive, mVISDS, LubyRestart(100, 2))</text></g><g stroke-width="0" stroke="rgb(2%, 29%, 48%)" stroke-opacity="1.0" fill="rgb(26%, 54%, 57%)" fill-opacity="1.0"><rect width="0.0251" height="0.0219" x="0.6785" y="-0.1911"/></g><g stroke-width="0.0" stroke="none" fill="rgb(5%, 5%, 5%)" fill-opacity="1.0" font-size="0.0150" text-anchor="start"><text x="0.3642" y="-0.2061">CDCL (adaptive, mVISDS, ExpRestart(100, 2))</text></g><g stroke-width="0" stroke="rgb(2%, 29%, 48%)" stroke-opacity="1.0" fill="rgb(0%, 25%, 37%)" fill-opacity="1.0"><rect width="0.0251" height="0.0219" x="0.6785" y="-0.2203"/></g><g stroke-width="0.0" stroke="none" fill="rgb(5%, 5%, 5%)" fill-opacity="1.0" font-size="0.0150" text-anchor="start"><text x="0.3642" y="-0.2352">CDCL (adaptive)</text></g><g stroke-width="0" stroke="rgb(2%, 29%, 48%)" stroke-opacity="1.0" fill="rgb(0%, 30%, 12%)" fill-opacity="1.0"><rect width="0.0251" height="0.0219" x="0.6785" y="-0.2494"/></g></g></g><g class="frame"><g stroke-width="0" stroke="rgb(0%, 0%, 0%)" stroke-opacity="0" fill="rgb(100%, 100%, 100%)" fill-opacity="0.02"><rect width="1.6180" height="1.0" x="-0.8090" y="-0.5"/></g></g><g class="title"><g stroke-width="0.0" stroke="none" fill="rgb(5%, 5%, 5%)" fill-opacity="1.0" font-size="0.0286" text-anchor="middle"><text x="-0.7413" y="0" transform="rotate(-90.0, -0.7413, 0)">Time [ms]</text></g></g></g></svg>