<svg xmlns="http://www.w3.org/2000/svg" xmlns:xlink="http://www.w3.org/1999/xlink" width="549" height="300" viewBox="-1.4778 -0.5 2.7360 1.4947"><style>svg {color-scheme: light dark;} {.canvas g, .title g, .axisbar g, .ticktext g, .tickglyph g, .ticklines g, .legendContent g text {fill: rgb(5%, 5%, 5%);} .ticklines g, .tickglyph g, .legendBorder g {stroke: rgb(5%, 5%, 5%);} .legendBorder g {fill: rgb(94%, 94%, 94%);}} @media (prefers-color-scheme:dark) {.canvas g, .title g, .axisbar g, .ticktext g, .tickglyph g, .ticklines g, .legendContent g text {fill: rgb(94%, 94%, 94%);} .ticklines g, .tickglyph g, .legendBorder g {stroke: rgb(94%, 94%, 94%);} .legendBorder g {fill: rgb(5%, 5%, 5%);}}
svg { font-family: system-ui,-apple-system,"Segoe UI",Roboto,"Helvetica Neue",Arial,"Noto Sans","Liberation Sans",sans-serif,"Apple Color Emoji","Segoe UI Emoji","Segoe UI Symbol","Noto Color Emoji";
}

ticktext { font-family: SFMono-Regular,Menlo,Monaco,Consolas,"Liberation Mono","Courier New",monospace;}</style><g class="chart"><g class="barchart"><g stroke-width="0" stroke="rgb(2%, 29%, 48%)" stroke-opacity="1.0" fill="rgb(0%, 68%, 84%)" fill-opacity="1.0"><rect width="0.0300" height="0.1910" x="-0.3180" y="-0.1583"/></g><g stroke-width="0.0010" stroke="rgb(0%, 68%, 84%)" stroke-opacity="1.0" fill="rgb(0%, 68%, 84%)" fill-opacity="0.25"><rect width="0.0300" height="0.1807" x="-0.2879" y="-0.1480"/></g><g stroke-width="0" stroke="rgb(2%, 29%, 48%)" stroke-opacity="1.0" fill="rgb(31%, 35%, 20%)" fill-opacity="1.0"><rect width="0.0300" height="0.2549" x="-0.2579" y="-0.2222"/></g><g stroke-width="0.0010" stroke="rgb(31%, 35%, 20%)" stroke-opacity="1.0" fill="rgb(31%, 35%, 20%)" fill-opacity="0.25"><rect width="0.0300" height="0.2431" x="-0.2278" y="-0.2105"/></g><g stroke-width="0" stroke="rgb(2%, 29%, 48%)" stroke-opacity="1.0" fill="rgb(82%, 47%, 0%)" fill-opacity="1.0"><rect width="0.0300" height="0.2492" x="-0.1978" y="-0.2165"/></g><g stroke-width="0.0010" stroke="rgb(82%, 47%, 0%)" stroke-opacity="1.0" fill="rgb(82%, 47%, 0%)" fill-opacity="0.25"><rect width="0.0300" height="0.2428" x="-0.1677" y="-0.2101"/></g><g stroke-width="0" stroke="rgb(2%, 29%, 48%)" stroke-opacity="1.0" fill="rgb(58%, 33%, 58%)" fill-opacity="1.0"><rect width="0.0300" height="0.1837" x="-0.1377" y="-0.1511"/></g><g stroke-width="0.0010" stroke="rgb(58%, 33%, 58%)" stroke-opacity="1.0" fill="rgb(58%, 33%, 58%)" fill-opacity="0.25"><rect width="0.0300" height="0.1767" x="-0.1076" y="-0.1440"/></g><g stroke-width="0" stroke="rgb(2%, 29%, 48%)" stroke-opacity="1.0" fill="rgb(69%, 48%, 50%)" fill-opacity="1.0"><rect width="0.0300" height="0.1518" x="-0.0776" y="-0.1192"/></g><g stroke-width="0.0010" stroke="rgb(69%, 48%, 50%)" stroke-opacity="1.0" fill="rgb(69%, 48%, 50%)" fill-opacity="0.25"><rect width="0.0300" height="0.1431" x="-0.0475" y="-0.1104"/></g><g stroke-width="0" stroke="rgb(2%, 29%, 48%)" stroke-opacity="1.0" fill="rgb(44%, 21%, 47%)" fill-opacity="1.0"><rect width="0.0300" height="0.1176" x="-0.0175" y="-0.0850"/></g><g stroke-width="0.0010" stroke="rgb(44%, 21%, 47%)" stroke-opacity="1.0" fill="rgb(44%, 21%, 47%)" fill-opacity="0.25"><rect width="0.0300" height="0.1126" x="0.0126" y="-0.0800"/></g><g stroke-width="0" stroke="rgb(2%, 29%, 48%)" stroke-opacity="1.0" fill="rgb(22%, 70%, 43%)" fill-opacity="1.0"><rect width="0.0300" height="0.1182" x="0.0426" y="-0.0855"/></g><g stroke-width="0.0010" stroke="rgb(22%, 70%, 43%)" stroke-opacity="1.0" fill="rgb(22%, 70%, 43%)" fill-opacity="0.25"><rect width="0.0300" height="0.1158" x="0.0727" y="-0.0831"/></g><g stroke-width="0" stroke="rgb(2%, 29%, 48%)" stroke-opacity="1.0" fill="rgb(13%, 40%, 0%)" fill-opacity="1.0"><rect width="0.0300" height="0.1136" x="0.1027" y="-0.0809"/></g><g stroke-width="0.0010" stroke="rgb(13%, 40%, 0%)" stroke-opacity="1.0" fill="rgb(13%, 40%, 0%)" fill-opacity="0.25"><rect width="0.0300" height="0.1126" x="0.1328" y="-0.0800"/></g><g stroke-width="0" stroke="rgb(2%, 29%, 48%)" stroke-opacity="1.0" fill="rgb(24%, 31%, 12%)" fill-opacity="1.0"><rect width="0.0300" height="0.2307" x="0.1628" y="-0.1981"/></g><g stroke-width="0.0010" stroke="rgb(24%, 31%, 12%)" stroke-opacity="1.0" fill="rgb(24%, 31%, 12%)" fill-opacity="0.25"><rect width="0.0300" height="0.2179" x="0.1929" y="-0.1852"/></g><g stroke-width="0" stroke="rgb(2%, 29%, 48%)" stroke-opacity="1.0" fill="rgb(73%, 50%, 48%)" fill-opacity="1.0"><rect width="0.0300" height="0.1430" x="0.2229" y="-0.1104"/></g><g stroke-width="0.0010" stroke="rgb(73%, 50%, 48%)" stroke-opacity="1.0" fill="rgb(73%, 50%, 48%)" fill-opacity="0.25"><rect width="0.0300" height="0.1362" x="0.2530" y="-0.1036"/></g><g stroke-width="0" stroke="rgb(2%, 29%, 48%)" stroke-opacity="1.0" fill="rgb(46%, 11%, 0%)" fill-opacity="1.0"><rect width="0.0300" height="0.1433" x="0.2830" y="-0.1106"/></g><g stroke-width="0.0010" stroke="rgb(46%, 11%, 0%)" stroke-opacity="1.0" fill="rgb(46%, 11%, 0%)" fill-opacity="0.25"><rect width="0.0300" height="0.1392" x="0.3131" y="-0.1066"/></g><g stroke-width="0" stroke="rgb(2%, 29%, 48%)" stroke-opacity="1.0" fill="rgb(39%, 42%, 73%)" fill-opacity="1.0"><rect width="0.0300" height="0.1424" x="0.3431" y="-0.1097"/></g><g stroke-width="0.0010" stroke="rgb(39%, 42%, 73%)" stroke-opacity="1.0" fill="rgb(39%, 42%, 73%)" fill-opacity="0.25"><rect width="0.0300" height="0.1368" x="0.3732" y="-0.1042"/></g></g><g class="errors"><g stroke-width="0.0015" stroke="rgb(5%, 5%, 5%)" stroke-opacity="1.0" fill="none"><polyline points="-0.3059,-0.0908 -0.2999,-0.0908"/><polyline points="-0.3029,-0.0908 -0.3029,-0.2259"/><polyline points="-0.3059,-0.2259 -0.2999,-0.2259"/></g><g stroke-width="0.0015" stroke="rgb(5%, 5%, 5%)" stroke-opacity="1.0" fill="none"><polyline points="-0.2759,-0.0921 -0.2699,-0.0921"/><polyline points="-0.2729,-0.0921 -0.2729,-0.2040"/><polyline points="-0.2759,-0.2040 -0.2699,-0.2040"/></g><g stroke-width="0.0015" stroke="rgb(5%, 5%, 5%)" stroke-opacity="1.0" fill="none"><polyline points="-0.2458,-0.1519 -0.2398,-0.1519"/><polyline points="-0.2428,-0.1519 -0.2428,-0.2926"/><polyline points="-0.2458,-0.2926 -0.2398,-0.2926"/></g><g stroke-width="0.0015" stroke="rgb(5%, 5%, 5%)" stroke-opacity="1.0" fill="none"><polyline points="-0.2158,-0.1638 -0.2098,-0.1638"/><polyline points="-0.2128,-0.1638 -0.2128,-0.2571"/><polyline points="-0.2158,-0.2571 -0.2098,-0.2571"/></g><g stroke-width="0.0015" stroke="rgb(5%, 5%, 5%)" stroke-opacity="1.0" fill="none"><polyline points="-0.1857,-0.0868 -0.1797,-0.0868"/><polyline points="-0.1827,-0.0868 -0.1827,-0.3463"/><polyline points="-0.1857,-0.3463 -0.1797,-0.3463"/></g><g stroke-width="0.0015" stroke="rgb(5%, 5%, 5%)" stroke-opacity="1.0" fill="none"><polyline points="-0.1557,-0.0891 -0.1497,-0.0891"/><polyline points="-0.1527,-0.0891 -0.1527,-0.3311"/><polyline points="-0.1557,-0.3311 -0.1497,-0.3311"/></g><g stroke-width="0.0015" stroke="rgb(5%, 5%, 5%)" stroke-opacity="1.0" fill="none"><polyline points="-0.1256,-0.0620 -0.1196,-0.0620"/><polyline points="-0.1226,-0.0620 -0.1226,-0.2402"/><polyline points="-0.1256,-0.2402 -0.1196,-0.2402"/></g><g stroke-width="0.0015" stroke="rgb(5%, 5%, 5%)" stroke-opacity="1.0" fill="none"><polyline points="-0.0956,-0.0576 -0.0896,-0.0576"/><polyline points="-0.0926,-0.0576 -0.0926,-0.2304"/><polyline points="-0.0956,-0.2304 -0.0896,-0.2304"/></g><g stroke-width="0.0015" stroke="rgb(5%, 5%, 5%)" stroke-opacity="1.0" fill="none"><polyline points="-0.0655,-0.0541 -0.0595,-0.0541"/><polyline points="-0.0625,-0.0541 -0.0625,-0.1843"/><polyline points="-0.0655,-0.1843 -0.0595,-0.1843"/></g><g stroke-width="0.0015" stroke="rgb(5%, 5%, 5%)" stroke-opacity="1.0" fill="none"><polyline points="-0.0355,-0.0483 -0.0295,-0.0483"/><polyline points="-0.0325,-0.0483 -0.0325,-0.1726"/><polyline points="-0.0355,-0.1726 -0.0295,-0.1726"/></g><g stroke-width="0.0015" stroke="rgb(5%, 5%, 5%)" stroke-opacity="1.0" fill="none"><polyline points="-0.0055,-0.0621 0.0006,-0.0621"/><polyline points="-0.0024,-0.0621 -0.0024,-0.1079"/><polyline points="-0.0055,-0.1079 0.0006,-0.1079"/></g><g stroke-width="0.0015" stroke="rgb(5%, 5%, 5%)" stroke-opacity="1.0" fill="none"><polyline points="0.0246,-0.0186 0.0306,-0.0186"/><polyline points="0.0276,-0.0186 0.0276,-0.1413"/><polyline points="0.0246,-0.1413 0.0306,-0.1413"/></g><g stroke-width="0.0015" stroke="rgb(5%, 5%, 5%)" stroke-opacity="1.0" fill="none"><polyline points="0.0546,-0.0347 0.0607,-0.0347"/><polyline points="0.0576,-0.0347 0.0576,-0.1363"/><polyline points="0.0546,-0.1363 0.0607,-0.1363"/></g><g stroke-width="0.0015" stroke="rgb(5%, 5%, 5%)" stroke-opacity="1.0" fill="none"><polyline points="0.0847,-0.0268 0.0907,-0.0268"/><polyline points="0.0877,-0.0268 0.0877,-0.1394"/><polyline points="0.0847,-0.1394 0.0907,-0.1394"/></g><g stroke-width="0.0015" stroke="rgb(5%, 5%, 5%)" stroke-opacity="1.0" fill="none"><polyline points="0.1147,-0.0346 0.1207,-0.0346"/><polyline points="0.1177,-0.0346 0.1177,-0.1273"/><polyline points="0.1147,-0.1273 0.1207,-0.1273"/></g><g stroke-width="0.0015" stroke="rgb(5%, 5%, 5%)" stroke-opacity="1.0" fill="none"><polyline points="0.1448,-0.0241 0.1508,-0.0241"/><polyline points="0.1478,-0.0241 0.1478,-0.1358"/><polyline points="0.1448,-0.1358 0.1508,-0.1358"/></g><g stroke-width="0.0015" stroke="rgb(5%, 5%, 5%)" stroke-opacity="1.0" fill="none"><polyline points="0.1748,-0.0686 0.1808,-0.0686"/><polyline points="0.1778,-0.0686 0.1778,-0.3276"/><polyline points="0.1748,-0.3276 0.1808,-0.3276"/></g><g stroke-width="0.0015" stroke="rgb(5%, 5%, 5%)" stroke-opacity="1.0" fill="none"><polyline points="0.2049,-0.0733 0.2109,-0.0733"/><polyline points="0.2079,-0.0733 0.2079,-0.2971"/><polyline points="0.2049,-0.2971 0.2109,-0.2971"/></g><g stroke-width="0.0015" stroke="rgb(5%, 5%, 5%)" stroke-opacity="1.0" fill="none"><polyline points="0.2349,-0.0603 0.2409,-0.0603"/><polyline points="0.2379,-0.0603 0.2379,-0.1604"/><polyline points="0.2349,-0.1604 0.2409,-0.1604"/></g><g stroke-width="0.0015" stroke="rgb(5%, 5%, 5%)" stroke-opacity="1.0" fill="none"><polyline points="0.2650,-0.0578 0.2710,-0.0578"/><polyline points="0.2680,-0.0578 0.2680,-0.1493"/><polyline points="0.2650,-0.1493 0.2710,-0.1493"/></g><g stroke-width="0.0015" stroke="rgb(5%, 5%, 5%)" stroke-opacity="1.0" fill="none"><polyline points="0.2950,-0.0524 0.3010,-0.0524"/><polyline points="0.2980,-0.0524 0.2980,-0.1689"/><polyline points="0.2950,-0.1689 0.3010,-0.1689"/></g><g stroke-width="0.0015" stroke="rgb(5%, 5%, 5%)" stroke-opacity="1.0" fill="none"><polyline points="0.3251,-0.0414 0.3311,-0.0414"/><polyline points="0.3281,-0.0414 0.3281,-0.1717"/><polyline points="0.3251,-0.1717 0.3311,-0.1717"/></g><g stroke-width="0.0015" stroke="rgb(5%, 5%, 5%)" stroke-opacity="1.0" fill="none"><polyline points="0.3551,-0.0506 0.3611,-0.0506"/><polyline points="0.3581,-0.0506 0.3581,-0.1689"/><polyline points="0.3551,-0.1689 0.3611,-0.1689"/></g><g stroke-width="0.0015" stroke="rgb(5%, 5%, 5%)" stroke-opacity="1.0" fill="none"><polyline points="0.3852,-0.0435 0.3912,-0.0435"/><polyline points="0.3882,-0.0435 0.3882,-0.1648"/><polyline points="0.3852,-0.1648 0.3912,-0.1648"/></g></g><g class="datapadding"></g></g><g class="hud"><g class="axis"><g class="axisbar"><g stroke-width="0" stroke="rgb(0%, 0%, 0%)" stroke-opacity="0" fill="rgb(5%, 5%, 5%)" fill-opacity="0.4"><rect width="0.7229" height="0.0015" x="-0.3188" y="0.0365"/></g></g><g class="ticks"><g class="tickglyph"><g stroke-width="0.0015" stroke="rgb(5%, 5%, 5%)" stroke-opacity="0.4" fill="rgb(5%, 5%, 5%)" fill-opacity="0.4"><polyline points="-0.3029,0.0487
-0.3029,0.0372"/><polyline points="-0.2729,0.0487
-0.2729,0.0372"/><polyline points="-0.2428,0.0487
-0.2428,0.0372"/><polyline points="-0.2128,0.0487
-0.2128,0.0372"/><polyline points="-0.1827,0.0487
-0.1827,0.0372"/><polyline points="-0.1527,0.0487
-0.1527,0.0372"/><polyline points="-0.1226,0.0487
-0.1226,0.0372"/><polyline points="-0.0926,0.0487
-0.0926,0.0372"/><polyline points="-0.0625,0.0487
-0.0625,0.0372"/><polyline points="-0.0325,0.0487
-0.0325,0.0372"/><polyline points="-0.0024,0.0487
-0.0024,0.0372"/><polyline points="0.0276,0.0487
0.0276,0.0372"/><polyline points="0.0576,0.0487
0.0576,0.0372"/><polyline points="0.0877,0.0487
0.0877,0.0372"/><polyline points="0.1177,0.0487
0.1177,0.0372"/><polyline points="0.1478,0.0487
0.1478,0.0372"/><polyline points="0.1778,0.0487
0.1778,0.0372"/><polyline points="0.2079,0.0487
0.2079,0.0372"/><polyline points="0.2379,0.0487
0.2379,0.0372"/><polyline points="0.2680,0.0487
0.2680,0.0372"/><polyline points="0.2980,0.0487
0.2980,0.0372"/><polyline points="0.3281,0.0487
0.3281,0.0372"/><polyline points="0.3581,0.0487
0.3581,0.0372"/><polyline points="0.3882,0.0487
0.3882,0.0372"/></g></g><g class="ticktext"><g stroke-width="0.0" stroke="none" fill="rgb(5%, 5%, 5%)" fill-opacity="1.0" font-size="0.0400" text-anchor="end"><text x="-0.3029" y="0.0698" transform="rotate(-45.0, -0.3029, 0.0698)">CDCL (adaptive)</text><text x="-0.2729" y="0.0698" transform="rotate(-45.0, -0.2729, 0.0698)">CDCL (adaptive), Baseline</text><text x="-0.2428" y="0.0698" transform="rotate(-45.0, -0.2428, 0.0698)">CDCL (adaptive, mVISDS, ExpRestart(100, 2))</text><text x="-0.2128" y="0.0698" transform="rotate(-45.0, -0.2128, 0.0698)">CDCL (adaptive, mVISDS, ExpRestart(100, 2)), Baseline</text><text x="-0.1827" y="0.0698" transform="rotate(-45.0, -0.1827, 0.0698)">CDCL (adaptive, mVISDS, LubyRestart(100, 2))</text><text x="-0.1527" y="0.0698" transform="rotate(-45.0, -0.1527, 0.0698)">CDCL (adaptive, mVISDS, LubyRestart(100, 2)), Baseline</text><text x="-0.1226" y="0.0698" transform="rotate(-45.0, -0.1226, 0.0698)">CDCL (adaptive, mVSIDS)</text><text x="-0.0926" y="0.0698" transform="rotate(-45.0, -0.0926, 0.0698)">CDCL (adaptive, mVSIDS), Baseline</text><text x="-0.0625" y="0.0698" transform="rotate(-45.0, -0.0625, 0.0698)">CDCL (α = 0.75)</text><text x="-0.0325" y="0.0698" transform="rotate(-45.0, -0.0325, 0.0698)">CDCL (α = 0.75), Baseline</text><text x="-0.0024" y="0.0698" transform="rotate(-45.0, -0.0024, 0.0698)">CDCL (α = 0.75, mVISDS)</text><text x="0.0276" y="0.0698" transform="rotate(-45.0, 0.0276, 0.0698)">CDCL (α = 0.75, mVISDS), Baseline</text><text x="0.0576" y="0.0698" transform="rotate(-45.0, 0.0576, 0.0698)">CDCL (α = 0.75, mVISDS, ExpRestart(100, 2))</text><text x="0.0877" y="0.0698" transform="rotate(-45.0, 0.0877, 0.0698)">CDCL (α = 0.75, mVISDS, ExpRestart(100, 2)), Baseline</text><text x="0.1177" y="0.0698" transform="rotate(-45.0, 0.1177, 0.0698)">CDCL (α = 0.75, mVISDS, LubyRestart(100, 2))</text><text x="0.1478" y="0.0698" transform="rotate(-45.0, 0.1478, 0.0698)">CDCL (α = 0.75, mVISDS, LubyRestart(100, 2)), Baseline</text><text x="0.1778" y="0.0698" transform="rotate(-45.0, 0.1778, 0.0698)">CDCL (α = 0.95)</text><text x="0.2079" y="0.0698" transform="rotate(-45.0, 0.2079, 0.0698)">CDCL (α = 0.95), Baseline</text><text x="0.2379" y="0.0698" transform="rotate(-45.0, 0.2379, 0.0698)">CDCL (α = 0.95, mVISDS)</text><text x="0.2680" y="0.0698" transform="rotate(-45.0, 0.2680, 0.0698)">CDCL (α = 0.95, mVISDS), Baseline</text><text x="0.2980" y="0.0698" transform="rotate(-45.0, 0.2980, 0.0698)">CDCL (α = 0.95, mVISDS, ExpRestart(100, 2))</text><text x="0.3281" y="0.0698" transform="rotate(-45.0, 0.3281, 0.0698)">CDCL (α = 0.95, mVISDS, ExpRestart(100, 2)), Baseline</text><text x="0.3581" y="0.0698" transform="rotate(-45.0, 0.3581, 0.0698)">CDCL (α = 0.95, mVISDS, LubyRestart(100, 2))</text><text x="0.3882" y="0.0698" transform="rotate(-45.0, 0.3882, 0.0698)">CDCL (α = 0.95, mVISDS, LubyRestart(100, 2)), Baseline</text></g></g></g></g><g class="axis"><g class="axisbar"><g stroke-width="0" stroke="rgb(0%, 0%, 0%)" stroke-opacity="0" fill="rgb(5%, 5%, 5%)" fill-opacity="0.4"><rect width="0.0018" height="0.3839" x="-0.3242" y="-0.3505"/></g></g><g class="ticks"><g class="ticklines"><g stroke-width="0.0050" stroke="rgb(5%, 5%, 5%)" stroke-opacity="0.05" fill="none"><polyline points="-0.3180,0.0327 0.4032,0.0327"/><polyline points="-0.3180,-0.0948 0.4032,-0.0948"/><polyline points="-0.3180,-0.2222 0.4032,-0.2222"/><polyline points="-0.3180,-0.3497 0.4032,-0.3497"/></g></g><g class="tickglyph"><g stroke-width="0.0018" stroke="rgb(5%, 5%, 5%)" stroke-opacity="0.4" fill="rgb(5%, 5%, 5%)" fill-opacity="0.4"><polyline points="-0.3367,0.0327
-0.3233,0.0327"/><polyline points="-0.3367,-0.0948
-0.3233,-0.0948"/><polyline points="-0.3367,-0.2222
-0.3233,-0.2222"/><polyline points="-0.3367,-0.3497
-0.3233,-0.3497"/></g></g><g class="ticktext"><g stroke-width="0.0" stroke="none" fill="rgb(5%, 5%, 5%)" fill-opacity="1.0" font-size="0.0400" text-anchor="end"><text x="-0.3465" y="0.0369">-0.5</text><text x="-0.3465" y="-0.0906"> 0.0</text><text x="-0.3465" y="-0.2180"> 0.5</text><text x="-0.3465" y="-0.3455"> 1.0</text></g></g></g></g><g class="title"><g stroke-width="0.0" stroke="none" fill="rgb(5%, 5%, 5%)" fill-opacity="1.0" font-size="0.12" text-anchor="middle"><text x="-0.1098" y="-0.3868">Time: SATLIB/uf100-430/uf100-01000/cnf</text></g></g><g class="legend"><g class="padding"></g><g class="padding"></g><g class="frame"><g stroke-width="0.0004" stroke="rgb(5%, 5%, 5%)" stroke-opacity="1.0" fill="rgb(5%, 5%, 5%)" fill-opacity="0"><rect width="0.4592" height="0.6501" x="0.2590" y="-0.2922"/></g></g><g class="legendContent"><g stroke-width="0.0001" stroke="rgb(39%, 42%, 73%)" stroke-opacity="1.0" fill="rgb(39%, 42%, 73%)" fill-opacity="0.25"><rect width="0.0234" height="0.0201" x="0.6870" y="0.3310"/></g><g stroke-width="0.0" stroke="none" fill="rgb(5%, 5%, 5%)" fill-opacity="1.0" font-size="0.0125" text-anchor="start"><text x="0.2668" y="0.3438">CDCL (α = 0.95, mVISDS, LubyRestart(100, 2)), Baseline</text></g><g stroke-width="0" stroke="rgb(2%, 29%, 48%)" stroke-opacity="1.0" fill="rgb(39%, 42%, 73%)" fill-opacity="1.0"><rect width="0.0234" height="0.0201" x="0.6870" y="0.3042"/></g><g stroke-width="0.0" stroke="none" fill="rgb(5%, 5%, 5%)" fill-opacity="1.0" font-size="0.0125" text-anchor="start"><text x="0.2668" y="0.3169">CDCL (α = 0.95, mVISDS, LubyRestart(100, 2))</text></g><g stroke-width="0.0001" stroke="rgb(46%, 11%, 0%)" stroke-opacity="1.0" fill="rgb(46%, 11%, 0%)" fill-opacity="0.25"><rect width="0.0234" height="0.0201" x="0.6870" y="0.2774"/></g><g stroke-width="0.0" stroke="none" fill="rgb(5%, 5%, 5%)" fill-opacity="1.0" font-size="0.0125" text-anchor="start"><text x="0.2668" y="0.2901">CDCL (α = 0.95, mVISDS, ExpRestart(100, 2)), Baseline</text></g><g stroke-width="0" stroke="rgb(2%, 29%, 48%)" stroke-opacity="1.0" fill="rgb(46%, 11%, 0%)" fill-opacity="1.0"><rect width="0.0234" height="0.0201" x="0.6870" y="0.2506"/></g><g stroke-width="0.0" stroke="none" fill="rgb(5%, 5%, 5%)" fill-opacity="1.0" font-size="0.0125" text-anchor="start"><text x="0.2668" y="0.2633">CDCL (α = 0.95, mVISDS, ExpRestart(100, 2))</text></g><g stroke-width="0.0001" stroke="rgb(73%, 50%, 48%)" stroke-opacity="1.0" fill="rgb(73%, 50%, 48%)" fill-opacity="0.25"><rect width="0.0234" height="0.0201" x="0.6870" y="0.2238"/></g><g stroke-width="0.0" stroke="none" fill="rgb(5%, 5%, 5%)" fill-opacity="1.0" font-size="0.0125" text-anchor="start"><text x="0.2668" y="0.2365">CDCL (α = 0.95, mVISDS), Baseline</text></g><g stroke-width="0" stroke="rgb(2%, 29%, 48%)" stroke-opacity="1.0" fill="rgb(73%, 50%, 48%)" fill-opacity="1.0"><rect width="0.0234" height="0.0201" x="0.6870" y="0.1970"/></g><g stroke-width="0.0" stroke="none" fill="rgb(5%, 5%, 5%)" fill-opacity="1.0" font-size="0.0125" text-anchor="start"><text x="0.2668" y="0.2097">CDCL (α = 0.95, mVISDS)</text></g><g stroke-width="0.0001" stroke="rgb(24%, 31%, 12%)" stroke-opacity="1.0" fill="rgb(24%, 31%, 12%)" fill-opacity="0.25"><rect width="0.0234" height="0.0201" x="0.6870" y="0.1702"/></g><g stroke-width="0.0" stroke="none" fill="rgb(5%, 5%, 5%)" fill-opacity="1.0" font-size="0.0125" text-anchor="start"><text x="0.2668" y="0.1829">CDCL (α = 0.95), Baseline</text></g><g stroke-width="0" stroke="rgb(2%, 29%, 48%)" stroke-opacity="1.0" fill="rgb(24%, 31%, 12%)" fill-opacity="1.0"><rect width="0.0234" height="0.0201" x="0.6870" y="0.1434"/></g><g stroke-width="0.0" stroke="none" fill="rgb(5%, 5%, 5%)" fill-opacity="1.0" font-size="0.0125" text-anchor="start"><text x="0.2668" y="0.1561">CDCL (α = 0.95)</text></g><g stroke-width="0.0001" stroke="rgb(13%, 40%, 0%)" stroke-opacity="1.0" fill="rgb(13%, 40%, 0%)" fill-opacity="0.25"><rect width="0.0234" height="0.0201" x="0.6870" y="0.1166"/></g><g stroke-width="0.0" stroke="none" fill="rgb(5%, 5%, 5%)" fill-opacity="1.0" font-size="0.0125" text-anchor="start"><text x="0.2668" y="0.1293">CDCL (α = 0.75, mVISDS, LubyRestart(100, 2)), Baseline</text></g><g stroke-width="0" stroke="rgb(2%, 29%, 48%)" stroke-opacity="1.0" fill="rgb(13%, 40%, 0%)" fill-opacity="1.0"><rect width="0.0234" height="0.0201" x="0.6870" y="0.0898"/></g><g stroke-width="0.0" stroke="none" fill="rgb(5%, 5%, 5%)" fill-opacity="1.0" font-size="0.0125" text-anchor="start"><text x="0.2668" y="0.1025">CDCL (α = 0.75, mVISDS, LubyRestart(100, 2))</text></g><g stroke-width="0.0001" stroke="rgb(22%, 70%, 43%)" stroke-opacity="1.0" fill="rgb(22%, 70%, 43%)" fill-opacity="0.25"><rect width="0.0234" height="0.0201" x="0.6870" y="0.0630"/></g><g stroke-width="0.0" stroke="none" fill="rgb(5%, 5%, 5%)" fill-opacity="1.0" font-size="0.0125" text-anchor="start"><text x="0.2668" y="0.0757">CDCL (α = 0.75, mVISDS, ExpRestart(100, 2)), Baseline</text></g><g stroke-width="0" stroke="rgb(2%, 29%, 48%)" stroke-opacity="1.0" fill="rgb(22%, 70%, 43%)" fill-opacity="1.0"><rect width="0.0234" height="0.0201" x="0.6870" y="0.0362"/></g><g stroke-width="0.0" stroke="none" fill="rgb(5%, 5%, 5%)" fill-opacity="1.0" font-size="0.0125" text-anchor="start"><text x="0.2668" y="0.0489">CDCL (α = 0.75, mVISDS, ExpRestart(100, 2))</text></g><g stroke-width="0.0001" stroke="rgb(44%, 21%, 47%)" stroke-opacity="1.0" fill="rgb(44%, 21%, 47%)" fill-opacity="0.25"><rect width="0.0234" height="0.0201" x="0.6870" y="0.0094"/></g><g stroke-width="0.0" stroke="none" fill="rgb(5%, 5%, 5%)" fill-opacity="1.0" font-size="0.0125" text-anchor="start"><text x="0.2668" y="0.0221">CDCL (α = 0.75, mVISDS), Baseline</text></g><g stroke-width="0" stroke="rgb(2%, 29%, 48%)" stroke-opacity="1.0" fill="rgb(44%, 21%, 47%)" fill-opacity="1.0"><rect width="0.0234" height="0.0201" x="0.6870" y="-0.0174"/></g><g stroke-width="0.0" stroke="none" fill="rgb(5%, 5%, 5%)" fill-opacity="1.0" font-size="0.0125" text-anchor="start"><text x="0.2668" y="-0.0047">CDCL (α = 0.75, mVISDS)</text></g><g stroke-width="0.0001" stroke="rgb(69%, 48%, 50%)" stroke-opacity="1.0" fill="rgb(69%, 48%, 50%)" fill-opacity="0.25"><rect width="0.0234" height="0.0201" x="0.6870" y="-0.0443"/></g><g stroke-width="0.0" stroke="none" fill="rgb(5%, 5%, 5%)" fill-opacity="1.0" font-size="0.0125" text-anchor="start"><text x="0.2668" y="-0.0315">CDCL (α = 0.75), Baseline</text></g><g stroke-width="0" stroke="rgb(2%, 29%, 48%)" stroke-opacity="1.0" fill="rgb(69%, 48%, 50%)" fill-opacity="1.0"><rect width="0.0234" height="0.0201" x="0.6870" y="-0.0711"/></g><g stroke-width="0.0" stroke="none" fill="rgb(5%, 5%, 5%)" fill-opacity="1.0" font-size="0.0125" text-anchor="start"><text x="0.2668" y="-0.0583">CDCL (α = 0.75)</text></g><g stroke-width="0.0001" stroke="rgb(58%, 33%, 58%)" stroke-opacity="1.0" fill="rgb(58%, 33%, 58%)" fill-opacity="0.25"><rect width="0.0234" height="0.0201" x="0.6870" y="-0.0979"/></g><g stroke-width="0.0" stroke="none" fill="rgb(5%, 5%, 5%)" fill-opacity="1.0" font-size="0.0125" text-anchor="start"><text x="0.2668" y="-0.0852">CDCL (adaptive, mVSIDS), Baseline</text></g><g stroke-width="0" stroke="rgb(2%, 29%, 48%)" stroke-opacity="1.0" fill="rgb(58%, 33%, 58%)" fill-opacity="1.0"><rect width="0.0234" height="0.0201" x="0.6870" y="-0.1247"/></g><g stroke-width="0.0" stroke="none" fill="rgb(5%, 5%, 5%)" fill-opacity="1.0" font-size="0.0125" text-anchor="start"><text x="0.2668" y="-0.1120">CDCL (adaptive, mVSIDS)</text></g><g stroke-width="0.0001" stroke="rgb(82%, 47%, 0%)" stroke-opacity="1.0" fill="rgb(82%, 47%, 0%)" fill-opacity="0.25"><rect width="0.0234" height="0.0201" x="0.6870" y="-0.1515"/></g><g stroke-width="0.0" stroke="none" fill="rgb(5%, 5%, 5%)" fill-opacity="1.0" font-size="0.0125" text-anchor="start"><text x="0.2668" y="-0.1388">CDCL (adaptive, mVISDS, LubyRestart(100, 2)), Baseline</text></g><g stroke-width="0" stroke="rgb(2%, 29%, 48%)" stroke-opacity="1.0" fill="rgb(82%, 47%, 0%)" fill-opacity="1.0"><rect width="0.0234" height="0.0201" x="0.6870" y="-0.1783"/></g><g stroke-width="0.0" stroke="none" fill="rgb(5%, 5%, 5%)" fill-opacity="1.0" font-size="0.0125" text-anchor="start"><text x="0.2668" y="-0.1656">CDCL (adaptive, mVISDS, LubyRestart(100, 2))</text></g><g stroke-width="0.0001" stroke="rgb(31%, 35%, 20%)" stroke-opacity="1.0" fill="rgb(31%, 35%, 20%)" fill-opacity="0.25"><rect width="0.0234" height="0.0201" x="0.6870" y="-0.2051"/></g><g stroke-width="0.0" stroke="none" fill="rgb(5%, 5%, 5%)" fill-opacity="1.0" font-size="0.0125" text-anchor="start"><text x="0.2668" y="-0.1924">CDCL (adaptive, mVISDS, ExpRestart(100, 2)), Baseline</text></g><g stroke-width="0" stroke="rgb(2%, 29%, 48%)" stroke-opacity="1.0" fill="rgb(31%, 35%, 20%)" fill-opacity="1.0"><rect width="0.0234" height="0.0201" x="0.6870" y="-0.2319"/></g><g stroke-width="0.0" stroke="none" fill="rgb(5%, 5%, 5%)" fill-opacity="1.0" font-size="0.0125" text-anchor="start"><text x="0.2668" y="-0.2192">CDCL (adaptive, mVISDS, ExpRestart(100, 2))</text></g><g stroke-width="0.0001" stroke="rgb(0%, 68%, 84%)" stroke-opacity="1.0" fill="rgb(0%, 68%, 84%)" fill-opacity="0.25"><rect width="0.0234" height="0.0201" x="0.6870" y="-0.2587"/></g><g stroke-width="0.0" stroke="none" fill="rgb(5%, 5%, 5%)" fill-opacity="1.0" font-size="0.0125" text-anchor="start"><text x="0.2668" y="-0.2460">CDCL (adaptive), Baseline</text></g><g stroke-width="0" stroke="rgb(2%, 29%, 48%)" stroke-opacity="1.0" fill="rgb(0%, 68%, 84%)" fill-opacity="1.0"><rect width="0.0234" height="0.0201" x="0.6870" y="-0.2855"/></g><g stroke-width="0.0" stroke="none" fill="rgb(5%, 5%, 5%)" fill-opacity="1.0" font-size="0.0125" text-anchor="start"><text x="0.2668" y="-0.2728">CDCL (adaptive)</text></g></g></g><g class="frame"><g stroke-width="0" stroke="rgb(0%, 0%, 0%)" stroke-opacity="0" fill="rgb(100%, 100%, 100%)" fill-opacity="0.02"><rect width="1.6180" height="1.0" x="-0.8090" y="-0.5"/></g></g><g class="title"><g stroke-width="0.0" stroke="none" fill="rgb(5%, 5%, 5%)" fill-opacity="1.0" font-size="0.0600" text-anchor="middle"><text x="-0.7457" y="0" transform="rotate(-90.0, -0.7457, 0)">Time [ms]</text></g></g></g></svg>