<svg xmlns="http://www.w3.org/2000/svg" xmlns:xlink="http://www.w3.org/1999/xlink" width="403" height="300" viewBox="-1.1992 -0.5 2.0082 1.4947"><style>svg {color-scheme: light dark;} {.canvas g, .title g, .axisbar g, .ticktext g, .tickglyph g, .ticklines g, .legendContent g text {fill: rgb(5%, 5%, 5%);} .ticklines g, .tickglyph g, .legendBorder g {stroke: rgb(5%, 5%, 5%);} .legendBorder g {fill: rgb(94%, 94%, 94%);}} @media (prefers-color-scheme:dark) {.canvas g, .title g, .axisbar g, .ticktext g, .tickglyph g, .ticklines g, .legendContent g text {fill: rgb(94%, 94%, 94%);} .ticklines g, .tickglyph g, .legendBorder g {stroke: rgb(94%, 94%, 94%);} .legendBorder g {fill: rgb(5%, 5%, 5%);}}
svg { font-family: system-ui,-apple-system,"Segoe UI",Roboto,"Helvetica Neue",Arial,"Noto Sans","Liberation Sans",sans-serif,"Apple Color Emoji","Segoe UI Emoji","Segoe UI Symbol","Noto Color Emoji";
}

ticktext { font-family: SFMono-Regular,Menlo,Monaco,Consolas,"Liberation Mono","Courier New",monospace;}</style><g class="chart"><g class="barchart"><g stroke-width="0" stroke="rgb(2%, 29%, 48%)" stroke-opacity="1.0" fill="rgb(0%, 68%, 84%)" fill-opacity="1.0"><rect width="0.0319" height="0.0718" x="-0.3889" y="-0.1538"/></g><g stroke-width="0.0010" stroke="rgb(0%, 68%, 84%)" stroke-opacity="1.0" fill="rgb(0%, 68%, 84%)" fill-opacity="0.25"><rect width="0.0319" height="0.0758" x="-0.3570" y="-0.1579"/></g><g stroke-width="0" stroke="rgb(2%, 29%, 48%)" stroke-opacity="1.0" fill="rgb(31%, 35%, 20%)" fill-opacity="1.0"><rect width="0.0319" height="0.0713" x="-0.3251" y="-0.1533"/></g><g stroke-width="0.0010" stroke="rgb(31%, 35%, 20%)" stroke-opacity="1.0" fill="rgb(31%, 35%, 20%)" fill-opacity="0.25"><rect width="0.0319" height="0.0747" x="-0.2931" y="-0.1567"/></g><g stroke-width="0" stroke="rgb(2%, 29%, 48%)" stroke-opacity="1.0" fill="rgb(82%, 47%, 0%)" fill-opacity="1.0"><rect width="0.0319" height="0.0709" x="-0.2612" y="-0.1529"/></g><g stroke-width="0.0010" stroke="rgb(82%, 47%, 0%)" stroke-opacity="1.0" fill="rgb(82%, 47%, 0%)" fill-opacity="0.25"><rect width="0.0319" height="0.0761" x="-0.2292" y="-0.1581"/></g><g stroke-width="0" stroke="rgb(2%, 29%, 48%)" stroke-opacity="1.0" fill="rgb(58%, 33%, 58%)" fill-opacity="1.0"><rect width="0.0319" height="0.0711" x="-0.1973" y="-0.1531"/></g><g stroke-width="0.0010" stroke="rgb(58%, 33%, 58%)" stroke-opacity="1.0" fill="rgb(58%, 33%, 58%)" fill-opacity="0.25"><rect width="0.0319" height="0.0765" x="-0.1654" y="-0.1585"/></g><g stroke-width="0" stroke="rgb(2%, 29%, 48%)" stroke-opacity="1.0" fill="rgb(69%, 48%, 50%)" fill-opacity="1.0"><rect width="0.0319" height="0.0686" x="-0.1334" y="-0.1506"/></g><g stroke-width="0.0010" stroke="rgb(69%, 48%, 50%)" stroke-opacity="1.0" fill="rgb(69%, 48%, 50%)" fill-opacity="0.25"><rect width="0.0319" height="0.0746" x="-0.1015" y="-0.1566"/></g><g stroke-width="0" stroke="rgb(2%, 29%, 48%)" stroke-opacity="1.0" fill="rgb(44%, 21%, 47%)" fill-opacity="1.0"><rect width="0.0319" height="0.0694" x="-0.0695" y="-0.1514"/></g><g stroke-width="0.0010" stroke="rgb(44%, 21%, 47%)" stroke-opacity="1.0" fill="rgb(44%, 21%, 47%)" fill-opacity="0.25"><rect width="0.0319" height="0.0732" x="-0.0376" y="-0.1552"/></g><g stroke-width="0" stroke="rgb(2%, 29%, 48%)" stroke-opacity="1.0" fill="rgb(22%, 70%, 43%)" fill-opacity="1.0"><rect width="0.0319" height="0.0702" x="-0.0057" y="-0.1522"/></g><g stroke-width="0.0010" stroke="rgb(22%, 70%, 43%)" stroke-opacity="1.0" fill="rgb(22%, 70%, 43%)" fill-opacity="0.25"><rect width="0.0319" height="0.0722" x="0.0263" y="-0.1542"/></g><g stroke-width="0" stroke="rgb(2%, 29%, 48%)" stroke-opacity="1.0" fill="rgb(13%, 40%, 0%)" fill-opacity="1.0"><rect width="0.0319" height="0.0721" x="0.0582" y="-0.1541"/></g><g stroke-width="0.0010" stroke="rgb(13%, 40%, 0%)" stroke-opacity="1.0" fill="rgb(13%, 40%, 0%)" fill-opacity="0.25"><rect width="0.0319" height="0.0741" x="0.0902" y="-0.1561"/></g><g stroke-width="0" stroke="rgb(2%, 29%, 48%)" stroke-opacity="1.0" fill="rgb(24%, 31%, 12%)" fill-opacity="1.0"><rect width="0.0319" height="0.0708" x="0.1221" y="-0.1528"/></g><g stroke-width="0.0010" stroke="rgb(24%, 31%, 12%)" stroke-opacity="1.0" fill="rgb(24%, 31%, 12%)" fill-opacity="0.25"><rect width="0.0319" height="0.0726" x="0.1541" y="-0.1547"/></g><g stroke-width="0" stroke="rgb(2%, 29%, 48%)" stroke-opacity="1.0" fill="rgb(73%, 50%, 48%)" fill-opacity="1.0"><rect width="0.0319" height="0.0703" x="0.1860" y="-0.1524"/></g><g stroke-width="0.0010" stroke="rgb(73%, 50%, 48%)" stroke-opacity="1.0" fill="rgb(73%, 50%, 48%)" fill-opacity="0.25"><rect width="0.0319" height="0.0740" x="0.2179" y="-0.1560"/></g><g stroke-width="0" stroke="rgb(2%, 29%, 48%)" stroke-opacity="1.0" fill="rgb(46%, 11%, 0%)" fill-opacity="1.0"><rect width="0.0319" height="0.0696" x="0.2499" y="-0.1516"/></g><g stroke-width="0.0010" stroke="rgb(46%, 11%, 0%)" stroke-opacity="1.0" fill="rgb(46%, 11%, 0%)" fill-opacity="0.25"><rect width="0.0319" height="0.0740" x="0.2818" y="-0.1560"/></g><g stroke-width="0" stroke="rgb(2%, 29%, 48%)" stroke-opacity="1.0" fill="rgb(39%, 42%, 73%)" fill-opacity="1.0"><rect width="0.0319" height="0.0707" x="0.3138" y="-0.1527"/></g><g stroke-width="0.0010" stroke="rgb(39%, 42%, 73%)" stroke-opacity="1.0" fill="rgb(39%, 42%, 73%)" fill-opacity="0.25"><rect width="0.0319" height="0.0733" x="0.3457" y="-0.1553"/></g></g><g class="errors"><g stroke-width="0.0015" stroke="rgb(5%, 5%, 5%)" stroke-opacity="1.0" fill="none"><polyline points="-0.3762,-0.0209 -0.3698,-0.0209"/><polyline points="-0.3730,-0.0209 -0.3730,-0.2867"/><polyline points="-0.3762,-0.2867 -0.3698,-0.2867"/></g><g stroke-width="0.0015" stroke="rgb(5%, 5%, 5%)" stroke-opacity="1.0" fill="none"><polyline points="-0.3442,-0.0893 -0.3378,-0.0893"/><polyline points="-0.3410,-0.0893 -0.3410,-0.2264"/><polyline points="-0.3442,-0.2264 -0.3378,-0.2264"/></g><g stroke-width="0.0015" stroke="rgb(5%, 5%, 5%)" stroke-opacity="1.0" fill="none"><polyline points="-0.3123,-0.0196 -0.3059,-0.0196"/><polyline points="-0.3091,-0.0196 -0.3091,-0.2871"/><polyline points="-0.3123,-0.2871 -0.3059,-0.2871"/></g><g stroke-width="0.0015" stroke="rgb(5%, 5%, 5%)" stroke-opacity="1.0" fill="none"><polyline points="-0.2803,0.0015 -0.2740,0.0015"/><polyline points="-0.2771,0.0015 -0.2771,-0.3150"/><polyline points="-0.2803,-0.3150 -0.2740,-0.3150"/></g><g stroke-width="0.0015" stroke="rgb(5%, 5%, 5%)" stroke-opacity="1.0" fill="none"><polyline points="-0.2484,-0.0237 -0.2420,-0.0237"/><polyline points="-0.2452,-0.0237 -0.2452,-0.2821"/><polyline points="-0.2484,-0.2821 -0.2420,-0.2821"/></g><g stroke-width="0.0015" stroke="rgb(5%, 5%, 5%)" stroke-opacity="1.0" fill="none"><polyline points="-0.2165,-0.0472 -0.2101,-0.0472"/><polyline points="-0.2133,-0.0472 -0.2133,-0.2689"/><polyline points="-0.2165,-0.2689 -0.2101,-0.2689"/></g><g stroke-width="0.0015" stroke="rgb(5%, 5%, 5%)" stroke-opacity="1.0" fill="none"><polyline points="-0.1845,-0.0052 -0.1781,-0.0052"/><polyline points="-0.1813,-0.0052 -0.1813,-0.3010"/><polyline points="-0.1845,-0.3010 -0.1781,-0.3010"/></g><g stroke-width="0.0015" stroke="rgb(5%, 5%, 5%)" stroke-opacity="1.0" fill="none"><polyline points="-0.1526,-0.0177 -0.1462,-0.0177"/><polyline points="-0.1494,-0.0177 -0.1494,-0.2993"/><polyline points="-0.1526,-0.2993 -0.1462,-0.2993"/></g><g stroke-width="0.0015" stroke="rgb(5%, 5%, 5%)" stroke-opacity="1.0" fill="none"><polyline points="-0.1206,-0.0585 -0.1143,-0.0585"/><polyline points="-0.1174,-0.0585 -0.1174,-0.2427"/><polyline points="-0.1206,-0.2427 -0.1143,-0.2427"/></g><g stroke-width="0.0015" stroke="rgb(5%, 5%, 5%)" stroke-opacity="1.0" fill="none"><polyline points="-0.0887,-0.0134 -0.0823,-0.0134"/><polyline points="-0.0855,-0.0134 -0.0855,-0.2998"/><polyline points="-0.0887,-0.2998 -0.0823,-0.2998"/></g><g stroke-width="0.0015" stroke="rgb(5%, 5%, 5%)" stroke-opacity="1.0" fill="none"><polyline points="-0.0568,-0.0062 -0.0504,-0.0062"/><polyline points="-0.0536,-0.0062 -0.0536,-0.2966"/><polyline points="-0.0568,-0.2966 -0.0504,-0.2966"/></g><g stroke-width="0.0015" stroke="rgb(5%, 5%, 5%)" stroke-opacity="1.0" fill="none"><polyline points="-0.0248,-0.0519 -0.0184,-0.0519"/><polyline points="-0.0216,-0.0519 -0.0216,-0.2584"/><polyline points="-0.0248,-0.2584 -0.0184,-0.2584"/></g><g stroke-width="0.0015" stroke="rgb(5%, 5%, 5%)" stroke-opacity="1.0" fill="none"><polyline points="0.0071,0.0024 0.0135,0.0024"/><polyline points="0.0103,0.0024 0.0103,-0.3068"/><polyline points="0.0071,-0.3068 0.0135,-0.3068"/></g><g stroke-width="0.0015" stroke="rgb(5%, 5%, 5%)" stroke-opacity="1.0" fill="none"><polyline points="0.0391,-0.0482 0.0455,-0.0482"/><polyline points="0.0423,-0.0482 0.0423,-0.2601"/><polyline points="0.0391,-0.2601 0.0455,-0.2601"/></g><g stroke-width="0.0015" stroke="rgb(5%, 5%, 5%)" stroke-opacity="1.0" fill="none"><polyline points="0.0710,-0.0446 0.0774,-0.0446"/><polyline points="0.0742,-0.0446 0.0742,-0.2637"/><polyline points="0.0710,-0.2637 0.0774,-0.2637"/></g><g stroke-width="0.0015" stroke="rgb(5%, 5%, 5%)" stroke-opacity="1.0" fill="none"><polyline points="0.1029,-0.0913 0.1093,-0.0913"/><polyline points="0.1061,-0.0913 0.1061,-0.2209"/><polyline points="0.1029,-0.2209 0.1093,-0.2209"/></g><g stroke-width="0.0015" stroke="rgb(5%, 5%, 5%)" stroke-opacity="1.0" fill="none"><polyline points="0.1349,-0.0171 0.1413,-0.0171"/><polyline points="0.1381,-0.0171 0.1381,-0.2884"/><polyline points="0.1349,-0.2884 0.1413,-0.2884"/></g><g stroke-width="0.0015" stroke="rgb(5%, 5%, 5%)" stroke-opacity="1.0" fill="none"><polyline points="0.1668,-0.0457 0.1732,-0.0457"/><polyline points="0.1700,-0.0457 0.1700,-0.2637"/><polyline points="0.1668,-0.2637 0.1732,-0.2637"/></g><g stroke-width="0.0015" stroke="rgb(5%, 5%, 5%)" stroke-opacity="1.0" fill="none"><polyline points="0.1988,-0.0924 0.2052,-0.0924"/><polyline points="0.2020,-0.0924 0.2020,-0.2123"/><polyline points="0.1988,-0.2123 0.2052,-0.2123"/></g><g stroke-width="0.0015" stroke="rgb(5%, 5%, 5%)" stroke-opacity="1.0" fill="none"><polyline points="0.2307,-0.0043 0.2371,-0.0043"/><polyline points="0.2339,-0.0043 0.2339,-0.3077"/><polyline points="0.2307,-0.3077 0.2371,-0.3077"/></g><g stroke-width="0.0015" stroke="rgb(5%, 5%, 5%)" stroke-opacity="1.0" fill="none"><polyline points="0.2626,-0.0131 0.2690,-0.0131"/><polyline points="0.2658,-0.0131 0.2658,-0.2902"/><polyline points="0.2626,-0.2902 0.2690,-0.2902"/></g><g stroke-width="0.0015" stroke="rgb(5%, 5%, 5%)" stroke-opacity="1.0" fill="none"><polyline points="0.2946,-0.0604 0.3010,-0.0604"/><polyline points="0.2978,-0.0604 0.2978,-0.2516"/><polyline points="0.2946,-0.2516 0.3010,-0.2516"/></g><g stroke-width="0.0015" stroke="rgb(5%, 5%, 5%)" stroke-opacity="1.0" fill="none"><polyline points="0.3265,-0.0480 0.3329,-0.0480"/><polyline points="0.3297,-0.0480 0.3297,-0.2575"/><polyline points="0.3265,-0.2575 0.3329,-0.2575"/></g><g stroke-width="0.0015" stroke="rgb(5%, 5%, 5%)" stroke-opacity="1.0" fill="none"><polyline points="0.3585,-0.0186 0.3649,-0.0186"/><polyline points="0.3617,-0.0186 0.3617,-0.2921"/><polyline points="0.3585,-0.2921 0.3649,-0.2921"/></g></g><g class="datapadding"></g></g><g class="hud"><g class="axis"><g class="axisbar"><g stroke-width="0" stroke="rgb(0%, 0%, 0%)" stroke-opacity="0" fill="rgb(5%, 5%, 5%)" fill-opacity="0.4"><rect width="0.7685" height="0.0015" x="-0.3899" y="0.0365"/></g></g><g class="ticks"><g class="tickglyph"><g stroke-width="0.0015" stroke="rgb(5%, 5%, 5%)" stroke-opacity="0.4" fill="rgb(5%, 5%, 5%)" fill-opacity="0.4"><polyline points="-0.3730,0.0488
-0.3730,0.0373"/><polyline points="-0.3410,0.0488
-0.3410,0.0373"/><polyline points="-0.3091,0.0488
-0.3091,0.0373"/><polyline points="-0.2771,0.0488
-0.2771,0.0373"/><polyline points="-0.2452,0.0488
-0.2452,0.0373"/><polyline points="-0.2133,0.0488
-0.2133,0.0373"/><polyline points="-0.1813,0.0488
-0.1813,0.0373"/><polyline points="-0.1494,0.0488
-0.1494,0.0373"/><polyline points="-0.1174,0.0488
-0.1174,0.0373"/><polyline points="-0.0855,0.0488
-0.0855,0.0373"/><polyline points="-0.0536,0.0488
-0.0536,0.0373"/><polyline points="-0.0216,0.0488
-0.0216,0.0373"/><polyline points="0.0103,0.0488
0.0103,0.0373"/><polyline points="0.0423,0.0488
0.0423,0.0373"/><polyline points="0.0742,0.0488
0.0742,0.0373"/><polyline points="0.1061,0.0488
0.1061,0.0373"/><polyline points="0.1381,0.0488
0.1381,0.0373"/><polyline points="0.1700,0.0488
0.1700,0.0373"/><polyline points="0.2020,0.0488
0.2020,0.0373"/><polyline points="0.2339,0.0488
0.2339,0.0373"/><polyline points="0.2658,0.0488
0.2658,0.0373"/><polyline points="0.2978,0.0488
0.2978,0.0373"/><polyline points="0.3297,0.0488
0.3297,0.0373"/><polyline points="0.3617,0.0488
0.3617,0.0373"/></g></g><g class="ticktext"><g stroke-width="0.0" stroke="none" fill="rgb(5%, 5%, 5%)" fill-opacity="1.0" font-size="0.0400" text-anchor="end"><text x="-0.3730" y="0.0698" transform="rotate(-45.0, -0.3730, 0.0698)">CDCL (adaptive)</text><text x="-0.3410" y="0.0698" transform="rotate(-45.0, -0.3410, 0.0698)">CDCL (adaptive), Baseline</text><text x="-0.3091" y="0.0698" transform="rotate(-45.0, -0.3091, 0.0698)">CDCL (adaptive, mVISDS, ExpRestart(100, 2))</text><text x="-0.2771" y="0.0698" transform="rotate(-45.0, -0.2771, 0.0698)">CDCL (adaptive, mVISDS, ExpRestart(100, 2)), Baseline</text><text x="-0.2452" y="0.0698" transform="rotate(-45.0, -0.2452, 0.0698)">CDCL (adaptive, mVISDS, LubyRestart(100, 2))</text><text x="-0.2133" y="0.0698" transform="rotate(-45.0, -0.2133, 0.0698)">CDCL (adaptive, mVISDS, LubyRestart(100, 2)), Baseline</text><text x="-0.1813" y="0.0698" transform="rotate(-45.0, -0.1813, 0.0698)">CDCL (adaptive, mVSIDS)</text><text x="-0.1494" y="0.0698" transform="rotate(-45.0, -0.1494, 0.0698)">CDCL (adaptive, mVSIDS), Baseline</text><text x="-0.1174" y="0.0698" transform="rotate(-45.0, -0.1174, 0.0698)">CDCL (α = 0.75)</text><text x="-0.0855" y="0.0698" transform="rotate(-45.0, -0.0855, 0.0698)">CDCL (α = 0.75), Baseline</text><text x="-0.0536" y="0.0698" transform="rotate(-45.0, -0.0536, 0.0698)">CDCL (α = 0.75, mVISDS)</text><text x="-0.0216" y="0.0698" transform="rotate(-45.0, -0.0216, 0.0698)">CDCL (α = 0.75, mVISDS), Baseline</text><text x="0.0103" y="0.0698" transform="rotate(-45.0, 0.0103, 0.0698)">CDCL (α = 0.75, mVISDS, ExpRestart(100, 2))</text><text x="0.0423" y="0.0698" transform="rotate(-45.0, 0.0423, 0.0698)">CDCL (α = 0.75, mVISDS, ExpRestart(100, 2)), Baseline</text><text x="0.0742" y="0.0698" transform="rotate(-45.0, 0.0742, 0.0698)">CDCL (α = 0.75, mVISDS, LubyRestart(100, 2))</text><text x="0.1061" y="0.0698" transform="rotate(-45.0, 0.1061, 0.0698)">CDCL (α = 0.75, mVISDS, LubyRestart(100, 2)), Baseline</text><text x="0.1381" y="0.0698" transform="rotate(-45.0, 0.1381, 0.0698)">CDCL (α = 0.95)</text><text x="0.1700" y="0.0698" transform="rotate(-45.0, 0.1700, 0.0698)">CDCL (α = 0.95), Baseline</text><text x="0.2020" y="0.0698" transform="rotate(-45.0, 0.2020, 0.0698)">CDCL (α = 0.95, mVISDS)</text><text x="0.2339" y="0.0698" transform="rotate(-45.0, 0.2339, 0.0698)">CDCL (α = 0.95, mVISDS), Baseline</text><text x="0.2658" y="0.0698" transform="rotate(-45.0, 0.2658, 0.0698)">CDCL (α = 0.95, mVISDS, ExpRestart(100, 2))</text><text x="0.2978" y="0.0698" transform="rotate(-45.0, 0.2978, 0.0698)">CDCL (α = 0.95, mVISDS, ExpRestart(100, 2)), Baseline</text><text x="0.3297" y="0.0698" transform="rotate(-45.0, 0.3297, 0.0698)">CDCL (α = 0.95, mVISDS, LubyRestart(100, 2))</text><text x="0.3617" y="0.0698" transform="rotate(-45.0, 0.3617, 0.0698)">CDCL (α = 0.95, mVISDS, LubyRestart(100, 2)), Baseline</text></g></g></g></g><g class="axis"><g class="axisbar"><g stroke-width="0" stroke="rgb(0%, 0%, 0%)" stroke-opacity="0" fill="rgb(5%, 5%, 5%)" fill-opacity="0.4"><rect width="0.0019" height="0.3840" x="-0.3956" y="-0.3505"/></g></g><g class="ticks"><g class="ticklines"><g stroke-width="0.0050" stroke="rgb(5%, 5%, 5%)" stroke-opacity="0.05" fill="none"><polyline points="-0.3889,0.0327 0.3776,0.0327"/><polyline points="-0.3889,-0.0438 0.3776,-0.0438"/><polyline points="-0.3889,-0.1203 0.3776,-0.1203"/><polyline points="-0.3889,-0.1967 0.3776,-0.1967"/><polyline points="-0.3889,-0.2732 0.3776,-0.2732"/><polyline points="-0.3889,-0.3497 0.3776,-0.3497"/></g></g><g class="tickglyph"><g stroke-width="0.0019" stroke="rgb(5%, 5%, 5%)" stroke-opacity="0.4" fill="rgb(5%, 5%, 5%)" fill-opacity="0.4"><polyline points="-0.4088,0.0327
-0.3946,0.0327"/><polyline points="-0.4088,-0.0438
-0.3946,-0.0438"/><polyline points="-0.4088,-0.1203
-0.3946,-0.1203"/><polyline points="-0.4088,-0.1967
-0.3946,-0.1967"/><polyline points="-0.4088,-0.2732
-0.3946,-0.2732"/><polyline points="-0.4088,-0.3497
-0.3946,-0.3497"/></g></g><g class="ticktext"><g stroke-width="0.0" stroke="none" fill="rgb(5%, 5%, 5%)" fill-opacity="1.0" font-size="0.0400" text-anchor="end"><text x="-0.4193" y="0.0369">-2</text><text x="-0.4193" y="-0.0396">-1</text><text x="-0.4193" y="-0.1160"> 0</text><text x="-0.4193" y="-0.1925"> 1</text><text x="-0.4193" y="-0.2690"> 2</text><text x="-0.4193" y="-0.3455"> 3</text></g></g></g></g><g class="title"><g stroke-width="0.0" stroke="none" fill="rgb(5%, 5%, 5%)" fill-opacity="1.0" font-size="0.12" text-anchor="middle"><text x="-0.1677" y="-0.3868">Time: huge/1/cnf</text></g></g><g class="legend"><g class="padding"></g><g class="padding"></g><g class="frame"><g stroke-width="0.0004" stroke="rgb(5%, 5%, 5%)" stroke-opacity="1.0" fill="rgb(5%, 5%, 5%)" fill-opacity="0"><rect width="0.4882" height="0.6500" x="0.2244" y="-0.2923"/></g></g><g class="legendContent"><g stroke-width="0.0001" stroke="rgb(39%, 42%, 73%)" stroke-opacity="1.0" fill="rgb(39%, 42%, 73%)" fill-opacity="0.25"><rect width="0.0249" height="0.0201" x="0.6793" y="0.3309"/></g><g stroke-width="0.0" stroke="none" fill="rgb(5%, 5%, 5%)" fill-opacity="1.0" font-size="0.0133" text-anchor="start"><text x="0.2327" y="0.3436">CDCL (α = 0.95, mVISDS, LubyRestart(100, 2)), Baseline</text></g><g stroke-width="0" stroke="rgb(2%, 29%, 48%)" stroke-opacity="1.0" fill="rgb(39%, 42%, 73%)" fill-opacity="1.0"><rect width="0.0249" height="0.0201" x="0.6793" y="0.3041"/></g><g stroke-width="0.0" stroke="none" fill="rgb(5%, 5%, 5%)" fill-opacity="1.0" font-size="0.0133" text-anchor="start"><text x="0.2327" y="0.3168">CDCL (α = 0.95, mVISDS, LubyRestart(100, 2))</text></g><g stroke-width="0.0001" stroke="rgb(46%, 11%, 0%)" stroke-opacity="1.0" fill="rgb(46%, 11%, 0%)" fill-opacity="0.25"><rect width="0.0249" height="0.0201" x="0.6793" y="0.2773"/></g><g stroke-width="0.0" stroke="none" fill="rgb(5%, 5%, 5%)" fill-opacity="1.0" font-size="0.0133" text-anchor="start"><text x="0.2327" y="0.2900">CDCL (α = 0.95, mVISDS, ExpRestart(100, 2)), Baseline</text></g><g stroke-width="0" stroke="rgb(2%, 29%, 48%)" stroke-opacity="1.0" fill="rgb(46%, 11%, 0%)" fill-opacity="1.0"><rect width="0.0249" height="0.0201" x="0.6793" y="0.2505"/></g><g stroke-width="0.0" stroke="none" fill="rgb(5%, 5%, 5%)" fill-opacity="1.0" font-size="0.0133" text-anchor="start"><text x="0.2327" y="0.2632">CDCL (α = 0.95, mVISDS, ExpRestart(100, 2))</text></g><g stroke-width="0.0001" stroke="rgb(73%, 50%, 48%)" stroke-opacity="1.0" fill="rgb(73%, 50%, 48%)" fill-opacity="0.25"><rect width="0.0249" height="0.0201" x="0.6793" y="0.2237"/></g><g stroke-width="0.0" stroke="none" fill="rgb(5%, 5%, 5%)" fill-opacity="1.0" font-size="0.0133" text-anchor="start"><text x="0.2327" y="0.2364">CDCL (α = 0.95, mVISDS), Baseline</text></g><g stroke-width="0" stroke="rgb(2%, 29%, 48%)" stroke-opacity="1.0" fill="rgb(73%, 50%, 48%)" fill-opacity="1.0"><rect width="0.0249" height="0.0201" x="0.6793" y="0.1969"/></g><g stroke-width="0.0" stroke="none" fill="rgb(5%, 5%, 5%)" fill-opacity="1.0" font-size="0.0133" text-anchor="start"><text x="0.2327" y="0.2096">CDCL (α = 0.95, mVISDS)</text></g><g stroke-width="0.0001" stroke="rgb(24%, 31%, 12%)" stroke-opacity="1.0" fill="rgb(24%, 31%, 12%)" fill-opacity="0.25"><rect width="0.0249" height="0.0201" x="0.6793" y="0.1701"/></g><g stroke-width="0.0" stroke="none" fill="rgb(5%, 5%, 5%)" fill-opacity="1.0" font-size="0.0133" text-anchor="start"><text x="0.2327" y="0.1828">CDCL (α = 0.95), Baseline</text></g><g stroke-width="0" stroke="rgb(2%, 29%, 48%)" stroke-opacity="1.0" fill="rgb(24%, 31%, 12%)" fill-opacity="1.0"><rect width="0.0249" height="0.0201" x="0.6793" y="0.1433"/></g><g stroke-width="0.0" stroke="none" fill="rgb(5%, 5%, 5%)" fill-opacity="1.0" font-size="0.0133" text-anchor="start"><text x="0.2327" y="0.1560">CDCL (α = 0.95)</text></g><g stroke-width="0.0001" stroke="rgb(13%, 40%, 0%)" stroke-opacity="1.0" fill="rgb(13%, 40%, 0%)" fill-opacity="0.25"><rect width="0.0249" height="0.0201" x="0.6793" y="0.1165"/></g><g stroke-width="0.0" stroke="none" fill="rgb(5%, 5%, 5%)" fill-opacity="1.0" font-size="0.0133" text-anchor="start"><text x="0.2327" y="0.1292">CDCL (α = 0.75, mVISDS, LubyRestart(100, 2)), Baseline</text></g><g stroke-width="0" stroke="rgb(2%, 29%, 48%)" stroke-opacity="1.0" fill="rgb(13%, 40%, 0%)" fill-opacity="1.0"><rect width="0.0249" height="0.0201" x="0.6793" y="0.0897"/></g><g stroke-width="0.0" stroke="none" fill="rgb(5%, 5%, 5%)" fill-opacity="1.0" font-size="0.0133" text-anchor="start"><text x="0.2327" y="0.1024">CDCL (α = 0.75, mVISDS, LubyRestart(100, 2))</text></g><g stroke-width="0.0001" stroke="rgb(22%, 70%, 43%)" stroke-opacity="1.0" fill="rgb(22%, 70%, 43%)" fill-opacity="0.25"><rect width="0.0249" height="0.0201" x="0.6793" y="0.0629"/></g><g stroke-width="0.0" stroke="none" fill="rgb(5%, 5%, 5%)" fill-opacity="1.0" font-size="0.0133" text-anchor="start"><text x="0.2327" y="0.0756">CDCL (α = 0.75, mVISDS, ExpRestart(100, 2)), Baseline</text></g><g stroke-width="0" stroke="rgb(2%, 29%, 48%)" stroke-opacity="1.0" fill="rgb(22%, 70%, 43%)" fill-opacity="1.0"><rect width="0.0249" height="0.0201" x="0.6793" y="0.0361"/></g><g stroke-width="0.0" stroke="none" fill="rgb(5%, 5%, 5%)" fill-opacity="1.0" font-size="0.0133" text-anchor="start"><text x="0.2327" y="0.0488">CDCL (α = 0.75, mVISDS, ExpRestart(100, 2))</text></g><g stroke-width="0.0001" stroke="rgb(44%, 21%, 47%)" stroke-opacity="1.0" fill="rgb(44%, 21%, 47%)" fill-opacity="0.25"><rect width="0.0249" height="0.0201" x="0.6793" y="0.0093"/></g><g stroke-width="0.0" stroke="none" fill="rgb(5%, 5%, 5%)" fill-opacity="1.0" font-size="0.0133" text-anchor="start"><text x="0.2327" y="0.0220">CDCL (α = 0.75, mVISDS), Baseline</text></g><g stroke-width="0" stroke="rgb(2%, 29%, 48%)" stroke-opacity="1.0" fill="rgb(44%, 21%, 47%)" fill-opacity="1.0"><rect width="0.0249" height="0.0201" x="0.6793" y="-0.0175"/></g><g stroke-width="0.0" stroke="none" fill="rgb(5%, 5%, 5%)" fill-opacity="1.0" font-size="0.0133" text-anchor="start"><text x="0.2327" y="-0.0048">CDCL (α = 0.75, mVISDS)</text></g><g stroke-width="0.0001" stroke="rgb(69%, 48%, 50%)" stroke-opacity="1.0" fill="rgb(69%, 48%, 50%)" fill-opacity="0.25"><rect width="0.0249" height="0.0201" x="0.6793" y="-0.0443"/></g><g stroke-width="0.0" stroke="none" fill="rgb(5%, 5%, 5%)" fill-opacity="1.0" font-size="0.0133" text-anchor="start"><text x="0.2327" y="-0.0316">CDCL (α = 0.75), Baseline</text></g><g stroke-width="0" stroke="rgb(2%, 29%, 48%)" stroke-opacity="1.0" fill="rgb(69%, 48%, 50%)" fill-opacity="1.0"><rect width="0.0249" height="0.0201" x="0.6793" y="-0.0711"/></g><g stroke-width="0.0" stroke="none" fill="rgb(5%, 5%, 5%)" fill-opacity="1.0" font-size="0.0133" text-anchor="start"><text x="0.2327" y="-0.0584">CDCL (α = 0.75)</text></g><g stroke-width="0.0001" stroke="rgb(58%, 33%, 58%)" stroke-opacity="1.0" fill="rgb(58%, 33%, 58%)" fill-opacity="0.25"><rect width="0.0249" height="0.0201" x="0.6793" y="-0.0980"/></g><g stroke-width="0.0" stroke="none" fill="rgb(5%, 5%, 5%)" fill-opacity="1.0" font-size="0.0133" text-anchor="start"><text x="0.2327" y="-0.0852">CDCL (adaptive, mVSIDS), Baseline</text></g><g stroke-width="0" stroke="rgb(2%, 29%, 48%)" stroke-opacity="1.0" fill="rgb(58%, 33%, 58%)" fill-opacity="1.0"><rect width="0.0249" height="0.0201" x="0.6793" y="-0.1248"/></g><g stroke-width="0.0" stroke="none" fill="rgb(5%, 5%, 5%)" fill-opacity="1.0" font-size="0.0133" text-anchor="start"><text x="0.2327" y="-0.1120">CDCL (adaptive, mVSIDS)</text></g><g stroke-width="0.0001" stroke="rgb(82%, 47%, 0%)" stroke-opacity="1.0" fill="rgb(82%, 47%, 0%)" fill-opacity="0.25"><rect width="0.0249" height="0.0201" x="0.6793" y="-0.1516"/></g><g stroke-width="0.0" stroke="none" fill="rgb(5%, 5%, 5%)" fill-opacity="1.0" font-size="0.0133" text-anchor="start"><text x="0.2327" y="-0.1388">CDCL (adaptive, mVISDS, LubyRestart(100, 2)), Baseline</text></g><g stroke-width="0" stroke="rgb(2%, 29%, 48%)" stroke-opacity="1.0" fill="rgb(82%, 47%, 0%)" fill-opacity="1.0"><rect width="0.0249" height="0.0201" x="0.6793" y="-0.1784"/></g><g stroke-width="0.0" stroke="none" fill="rgb(5%, 5%, 5%)" fill-opacity="1.0" font-size="0.0133" text-anchor="start"><text x="0.2327" y="-0.1656">CDCL (adaptive, mVISDS, LubyRestart(100, 2))</text></g><g stroke-width="0.0001" stroke="rgb(31%, 35%, 20%)" stroke-opacity="1.0" fill="rgb(31%, 35%, 20%)" fill-opacity="0.25"><rect width="0.0249" height="0.0201" x="0.6793" y="-0.2052"/></g><g stroke-width="0.0" stroke="none" fill="rgb(5%, 5%, 5%)" fill-opacity="1.0" font-size="0.0133" text-anchor="start"><text x="0.2327" y="-0.1924">CDCL (adaptive, mVISDS, ExpRestart(100, 2)), Baseline</text></g><g stroke-width="0" stroke="rgb(2%, 29%, 48%)" stroke-opacity="1.0" fill="rgb(31%, 35%, 20%)" fill-opacity="1.0"><rect width="0.0249" height="0.0201" x="0.6793" y="-0.2320"/></g><g stroke-width="0.0" stroke="none" fill="rgb(5%, 5%, 5%)" fill-opacity="1.0" font-size="0.0133" text-anchor="start"><text x="0.2327" y="-0.2193">CDCL (adaptive, mVISDS, ExpRestart(100, 2))</text></g><g stroke-width="0.0001" stroke="rgb(0%, 68%, 84%)" stroke-opacity="1.0" fill="rgb(0%, 68%, 84%)" fill-opacity="0.25"><rect width="0.0249" height="0.0201" x="0.6793" y="-0.2588"/></g><g stroke-width="0.0" stroke="none" fill="rgb(5%, 5%, 5%)" fill-opacity="1.0" font-size="0.0133" text-anchor="start"><text x="0.2327" y="-0.2461">CDCL (adaptive), Baseline</text></g><g stroke-width="0" stroke="rgb(2%, 29%, 48%)" stroke-opacity="1.0" fill="rgb(0%, 68%, 84%)" fill-opacity="1.0"><rect width="0.0249" height="0.0201" x="0.6793" y="-0.2856"/></g><g stroke-width="0.0" stroke="none" fill="rgb(5%, 5%, 5%)" fill-opacity="1.0" font-size="0.0133" text-anchor="start"><text x="0.2327" y="-0.2729">CDCL (adaptive)</text></g></g></g><g class="frame"><g stroke-width="0" stroke="rgb(0%, 0%, 0%)" stroke-opacity="0" fill="rgb(100%, 100%, 100%)" fill-opacity="0.02"><rect width="1.6180" height="1.0" x="-0.8090" y="-0.5"/></g></g><g class="title"><g stroke-width="0.0" stroke="none" fill="rgb(5%, 5%, 5%)" fill-opacity="1.0" font-size="0.0600" text-anchor="middle"><text x="-0.7417" y="0" transform="rotate(-90.0, -0.7417, 0)">Time [us]</text></g></g></g></svg>