<svg xmlns="http://www.w3.org/2000/svg" xmlns:xlink="http://www.w3.org/1999/xlink" width="434" height="300" viewBox="-0.8090 -0.5 1.6180 1.1163"><style>svg {
  color-scheme: light dark;
}
{
  .canvas g, .title g, .axisbar g, .ticktext g, .tickglyph g, .ticklines g, .legendContent g text {
    fill: rgb(5%, 5%, 5%);
  }
  .ticklines g, .tickglyph g, .legendBorder g {
    stroke: rgb(5%, 5%, 5%);
  }
  .legendBorder g {
    fill: rgb(94%, 94%, 94%);
  }
}
@media (prefers-color-scheme:dark) {
  .canvas g, .title g, .axisbar g, .ticktext g, .tickglyph g, .ticklines g, .legendContent g text {
    fill: rgb(94%, 94%, 94%);
  }
  .ticklines g, .tickglyph g, .legendBorder g {
    stroke: rgb(94%, 94%, 94%);
  }
  .legendBorder g {
    fill: rgb(5%, 5%, 5%);
  }
}</style><g class="chart"><g class="barchart"><g stroke-width="0" stroke="rgb(2%, 29%, 48%)" stroke-opacity="1.0" fill="rgb(57%, 0%, 21%)" fill-opacity="1.0"><rect width="0.0159" height="0.0572" x="-0.3826" y="0.1197"/></g><g stroke-width="0.0010" stroke="rgb(57%, 0%, 21%)" stroke-opacity="1.0" fill="rgb(57%, 0%, 21%)" fill-opacity="0.25"><rect width="0.0159" height="0.0490" x="-0.3667" y="0.1279"/></g><g stroke-width="0" stroke="rgb(2%, 29%, 48%)" stroke-opacity="1.0" fill="rgb(47%, 34%, 0%)" fill-opacity="1.0"><rect width="0.0159" height="0.0571" x="-0.3507" y="0.1199"/></g><g stroke-width="0.0010" stroke="rgb(47%, 34%, 0%)" stroke-opacity="1.0" fill="rgb(47%, 34%, 0%)" fill-opacity="0.25"><rect width="0.0159" height="0.0488" x="-0.3348" y="0.1282"/></g><g stroke-width="0" stroke="rgb(2%, 29%, 48%)" stroke-opacity="1.0" fill="rgb(70%, 21%, 0%)" fill-opacity="1.0"><rect width="0.0159" height="0.0561" x="-0.3189" y="0.1208"/></g><g stroke-width="0" stroke="rgb(2%, 29%, 48%)" stroke-opacity="1.0" fill="rgb(0%, 36%, 0%)" fill-opacity="1.0"><rect width="0.0159" height="0.0575" x="-0.3029" y="0.1194"/></g><g stroke-width="0.0010" stroke="rgb(0%, 36%, 0%)" stroke-opacity="1.0" fill="rgb(0%, 36%, 0%)" fill-opacity="0.25"><rect width="0.0159" height="0.0471" x="-0.2870" y="0.1298"/></g><g stroke-width="0" stroke="rgb(2%, 29%, 48%)" stroke-opacity="1.0" fill="rgb(0%, 21%, 55%)" fill-opacity="1.0"><rect width="0.0159" height="0.0588" x="-0.2711" y="0.1182"/></g><g stroke-width="0" stroke="rgb(2%, 29%, 48%)" stroke-opacity="1.0" fill="rgb(72%, 66%, 0%)" fill-opacity="1.0"><rect width="0.0159" height="0.0577" x="-0.2551" y="0.1192"/></g><g stroke-width="0.0010" stroke="rgb(72%, 66%, 0%)" stroke-opacity="1.0" fill="rgb(72%, 66%, 0%)" fill-opacity="0.25"><rect width="0.0159" height="0.0480" x="-0.2392" y="0.1289"/></g><g stroke-width="0" stroke="rgb(2%, 29%, 48%)" stroke-opacity="1.0" fill="rgb(37%, 17%, 0%)" fill-opacity="1.0"><rect width="0.0159" height="0.0575" x="-0.2233" y="0.1195"/></g><g stroke-width="0" stroke="rgb(2%, 29%, 48%)" stroke-opacity="1.0" fill="rgb(20%, 15%, 40%)" fill-opacity="1.0"><rect width="0.0159" height="0.0572" x="-0.2074" y="0.1197"/></g><g stroke-width="0.0010" stroke="rgb(20%, 15%, 40%)" stroke-opacity="1.0" fill="rgb(20%, 15%, 40%)" fill-opacity="0.25"><rect width="0.0159" height="0.0490" x="-0.1914" y="0.1279"/></g><g stroke-width="0" stroke="rgb(2%, 29%, 48%)" stroke-opacity="1.0" fill="rgb(48%, 65%, 0%)" fill-opacity="1.0"><rect width="0.0159" height="0.0571" x="-0.1755" y="0.1198"/></g><g stroke-width="0.0010" stroke="rgb(48%, 65%, 0%)" stroke-opacity="1.0" fill="rgb(48%, 65%, 0%)" fill-opacity="0.25"><rect width="0.0159" height="0.0510" x="-0.1596" y="0.1259"/></g><g stroke-width="0" stroke="rgb(2%, 29%, 48%)" stroke-opacity="1.0" fill="rgb(35%, 24%, 0%)" fill-opacity="1.0"><rect width="0.0159" height="0.0591" x="-0.1436" y="0.1178"/></g><g stroke-width="0" stroke="rgb(2%, 29%, 48%)" stroke-opacity="1.0" fill="rgb(0%, 72%, 67%)" fill-opacity="1.0"><rect width="0.0159" height="0.0557" x="-0.1277" y="0.1213"/></g><g stroke-width="0.0010" stroke="rgb(0%, 72%, 67%)" stroke-opacity="1.0" fill="rgb(0%, 72%, 67%)" fill-opacity="0.25"><rect width="0.0159" height="0.0512" x="-0.1118" y="0.1257"/></g><g stroke-width="0" stroke="rgb(2%, 29%, 48%)" stroke-opacity="1.0" fill="rgb(98%, 15%, 25%)" fill-opacity="1.0"><rect width="0.0159" height="0.0578" x="-0.0958" y="0.1191"/></g><g stroke-width="0" stroke="rgb(2%, 29%, 48%)" stroke-opacity="1.0" fill="rgb(57%, 62%, 78%)" fill-opacity="1.0"><rect width="0.0159" height="0.0570" x="-0.0799" y="0.1200"/></g><g stroke-width="0.0010" stroke="rgb(57%, 62%, 78%)" stroke-opacity="1.0" fill="rgb(57%, 62%, 78%)" fill-opacity="0.25"><rect width="0.0159" height="0.0491" x="-0.0640" y="0.1279"/></g><g stroke-width="0" stroke="rgb(2%, 29%, 48%)" stroke-opacity="1.0" fill="rgb(53%, 24%, 0%)" fill-opacity="1.0"><rect width="0.0159" height="0.0569" x="-0.0480" y="0.1200"/></g><g stroke-width="0" stroke="rgb(2%, 29%, 48%)" stroke-opacity="1.0" fill="rgb(69%, 17%, 0%)" fill-opacity="1.0"><rect width="0.0159" height="0.0577" x="-0.0321" y="0.1192"/></g><g stroke-width="0.0010" stroke="rgb(69%, 17%, 0%)" stroke-opacity="1.0" fill="rgb(69%, 17%, 0%)" fill-opacity="0.25"><rect width="0.0159" height="0.0496" x="-0.0162" y="0.1273"/></g><g stroke-width="0" stroke="rgb(2%, 29%, 48%)" stroke-opacity="1.0" fill="rgb(0%, 42%, 48%)" fill-opacity="1.0"><rect width="0.0159" height="0.0567" x="-0.0003" y="0.1202"/></g><g stroke-width="0.0010" stroke="rgb(0%, 42%, 48%)" stroke-opacity="1.0" fill="rgb(0%, 42%, 48%)" fill-opacity="0.25"><rect width="0.0159" height="0.0489" x="0.0157" y="0.1280"/></g><g stroke-width="0" stroke="rgb(2%, 29%, 48%)" stroke-opacity="1.0" fill="rgb(18%, 22%, 10%)" fill-opacity="1.0"><rect width="0.0159" height="0.0573" x="0.0316" y="0.1196"/></g><g stroke-width="0" stroke="rgb(2%, 29%, 48%)" stroke-opacity="1.0" fill="rgb(42%, 44%, 14%)" fill-opacity="1.0"><rect width="0.0159" height="0.0572" x="0.0475" y="0.1198"/></g><g stroke-width="0.0010" stroke="rgb(42%, 44%, 14%)" stroke-opacity="1.0" fill="rgb(42%, 44%, 14%)" fill-opacity="0.25"><rect width="0.0159" height="0.0485" x="0.0635" y="0.1284"/></g><g stroke-width="0" stroke="rgb(2%, 29%, 48%)" stroke-opacity="1.0" fill="rgb(54%, 0%, 0%)" fill-opacity="1.0"><rect width="0.0159" height="0.0577" x="0.0794" y="0.1192"/></g><g stroke-width="0" stroke="rgb(2%, 29%, 48%)" stroke-opacity="1.0" fill="rgb(100%, 37%, 0%)" fill-opacity="1.0"><rect width="0.0159" height="0.0555" x="0.0953" y="0.1214"/></g><g stroke-width="0.0010" stroke="rgb(100%, 37%, 0%)" stroke-opacity="1.0" fill="rgb(100%, 37%, 0%)" fill-opacity="0.25"><rect width="0.0159" height="0.0483" x="0.1113" y="0.1286"/></g><g stroke-width="0" stroke="rgb(2%, 29%, 48%)" stroke-opacity="1.0" fill="rgb(0%, 38%, 61%)" fill-opacity="1.0"><rect width="0.0159" height="0.0554" x="0.1272" y="0.1216"/></g><g stroke-width="0" stroke="rgb(2%, 29%, 48%)" stroke-opacity="1.0" fill="rgb(0%, 49%, 30%)" fill-opacity="1.0"><rect width="0.0159" height="0.0116" x="0.1431" y="0.1653"/></g><g stroke-width="0.0010" stroke="rgb(0%, 49%, 30%)" stroke-opacity="1.0" fill="rgb(0%, 49%, 30%)" fill-opacity="0.25"><rect width="0.0159" height="0.0112" x="0.1591" y="0.1657"/></g><g stroke-width="0" stroke="rgb(2%, 29%, 48%)" stroke-opacity="1.0" fill="rgb(69%, 16%, 76%)" fill-opacity="1.0"><rect width="0.0159" height="0.2202" x="0.1750" y="-0.0433"/></g><g stroke-width="0.0010" stroke="rgb(69%, 16%, 76%)" stroke-opacity="1.0" fill="rgb(69%, 16%, 76%)" fill-opacity="0.25"><rect width="0.0159" height="0.2057" x="0.1909" y="-0.0288"/></g></g><g class="errors"><g stroke-width="0.0015" stroke="rgb(5%, 5%, 5%)" stroke-opacity="1.0" fill="none"><polyline points="-0.3762,0.1217 -0.3730,0.1217"/><polyline points="-0.3746,0.1217 -0.3746,0.1178"/><polyline points="-0.3762,0.1178 -0.3730,0.1178"/></g><g stroke-width="0.0015" stroke="rgb(5%, 5%, 5%)" stroke-opacity="1.0" fill="none"><polyline points="-0.3603,0.1286 -0.3571,0.1286"/><polyline points="-0.3587,0.1286 -0.3587,0.1272"/><polyline points="-0.3603,0.1272 -0.3571,0.1272"/></g><g stroke-width="0.0015" stroke="rgb(5%, 5%, 5%)" stroke-opacity="1.0" fill="none"><polyline points="-0.3444,0.1217 -0.3412,0.1217"/><polyline points="-0.3428,0.1217 -0.3428,0.1181"/><polyline points="-0.3444,0.1181 -0.3412,0.1181"/></g><g stroke-width="0.0015" stroke="rgb(5%, 5%, 5%)" stroke-opacity="1.0" fill="none"><polyline points="-0.3284,0.1305 -0.3252,0.1305"/><polyline points="-0.3268,0.1305 -0.3268,0.1258"/><polyline points="-0.3284,0.1258 -0.3252,0.1258"/></g><g stroke-width="0.0015" stroke="rgb(5%, 5%, 5%)" stroke-opacity="1.0" fill="none"><polyline points="-0.3125,0.1228 -0.3093,0.1228"/><polyline points="-0.3109,0.1228 -0.3109,0.1188"/><polyline points="-0.3125,0.1188 -0.3093,0.1188"/></g><g stroke-width="0.0015" stroke="rgb(5%, 5%, 5%)" stroke-opacity="1.0" fill="none"><polyline points="-0.2966,0.1221 -0.2934,0.1221"/><polyline points="-0.2950,0.1221 -0.2950,0.1168"/><polyline points="-0.2966,0.1168 -0.2934,0.1168"/></g><g stroke-width="0.0015" stroke="rgb(5%, 5%, 5%)" stroke-opacity="1.0" fill="none"><polyline points="-0.2806,0.1321 -0.2774,0.1321"/><polyline points="-0.2790,0.1321 -0.2790,0.1275"/><polyline points="-0.2806,0.1275 -0.2774,0.1275"/></g><g stroke-width="0.0015" stroke="rgb(5%, 5%, 5%)" stroke-opacity="1.0" fill="none"><polyline points="-0.2647,0.1187 -0.2615,0.1187"/><polyline points="-0.2631,0.1187 -0.2631,0.1176"/><polyline points="-0.2647,0.1176 -0.2615,0.1176"/></g><g stroke-width="0.0015" stroke="rgb(5%, 5%, 5%)" stroke-opacity="1.0" fill="none"><polyline points="-0.2488,0.1214 -0.2456,0.1214"/><polyline points="-0.2472,0.1214 -0.2472,0.1171"/><polyline points="-0.2488,0.1171 -0.2456,0.1171"/></g><g stroke-width="0.0015" stroke="rgb(5%, 5%, 5%)" stroke-opacity="1.0" fill="none"><polyline points="-0.2328,0.1311 -0.2297,0.1311"/><polyline points="-0.2312,0.1311 -0.2312,0.1266"/><polyline points="-0.2328,0.1266 -0.2297,0.1266"/></g><g stroke-width="0.0015" stroke="rgb(5%, 5%, 5%)" stroke-opacity="1.0" fill="none"><polyline points="-0.2169,0.1210 -0.2137,0.1210"/><polyline points="-0.2153,0.1210 -0.2153,0.1179"/><polyline points="-0.2169,0.1179 -0.2137,0.1179"/></g><g stroke-width="0.0015" stroke="rgb(5%, 5%, 5%)" stroke-opacity="1.0" fill="none"><polyline points="-0.2010,0.1204 -0.1978,0.1204"/><polyline points="-0.1994,0.1204 -0.1994,0.1190"/><polyline points="-0.2010,0.1190 -0.1978,0.1190"/></g><g stroke-width="0.0015" stroke="rgb(5%, 5%, 5%)" stroke-opacity="1.0" fill="none"><polyline points="-0.1850,0.1295 -0.1819,0.1295"/><polyline points="-0.1835,0.1295 -0.1835,0.1263"/><polyline points="-0.1850,0.1263 -0.1819,0.1263"/></g><g stroke-width="0.0015" stroke="rgb(5%, 5%, 5%)" stroke-opacity="1.0" fill="none"><polyline points="-0.1691,0.1221 -0.1659,0.1221"/><polyline points="-0.1675,0.1221 -0.1675,0.1175"/><polyline points="-0.1691,0.1175 -0.1659,0.1175"/></g><g stroke-width="0.0015" stroke="rgb(5%, 5%, 5%)" stroke-opacity="1.0" fill="none"><polyline points="-0.1532,0.1279 -0.1500,0.1279"/><polyline points="-0.1516,0.1279 -0.1516,0.1240"/><polyline points="-0.1532,0.1240 -0.1500,0.1240"/></g><g stroke-width="0.0015" stroke="rgb(5%, 5%, 5%)" stroke-opacity="1.0" fill="none"><polyline points="-0.1373,0.1205 -0.1341,0.1205"/><polyline points="-0.1357,0.1205 -0.1357,0.1151"/><polyline points="-0.1373,0.1151 -0.1341,0.1151"/></g><g stroke-width="0.0015" stroke="rgb(5%, 5%, 5%)" stroke-opacity="1.0" fill="none"><polyline points="-0.1213,0.1236 -0.1181,0.1236"/><polyline points="-0.1197,0.1236 -0.1197,0.1189"/><polyline points="-0.1213,0.1189 -0.1181,0.1189"/></g><g stroke-width="0.0015" stroke="rgb(5%, 5%, 5%)" stroke-opacity="1.0" fill="none"><polyline points="-0.1054,0.1282 -0.1022,0.1282"/><polyline points="-0.1038,0.1282 -0.1038,0.1232"/><polyline points="-0.1054,0.1232 -0.1022,0.1232"/></g><g stroke-width="0.0015" stroke="rgb(5%, 5%, 5%)" stroke-opacity="1.0" fill="none"><polyline points="-0.0895,0.1214 -0.0863,0.1214"/><polyline points="-0.0879,0.1214 -0.0879,0.1169"/><polyline points="-0.0895,0.1169 -0.0863,0.1169"/></g><g stroke-width="0.0015" stroke="rgb(5%, 5%, 5%)" stroke-opacity="1.0" fill="none"><polyline points="-0.0735,0.1221 -0.0703,0.1221"/><polyline points="-0.0719,0.1221 -0.0719,0.1178"/><polyline points="-0.0735,0.1178 -0.0703,0.1178"/></g><g stroke-width="0.0015" stroke="rgb(5%, 5%, 5%)" stroke-opacity="1.0" fill="none"><polyline points="-0.0576,0.1302 -0.0544,0.1302"/><polyline points="-0.0560,0.1302 -0.0560,0.1255"/><polyline points="-0.0576,0.1255 -0.0544,0.1255"/></g><g stroke-width="0.0015" stroke="rgb(5%, 5%, 5%)" stroke-opacity="1.0" fill="none"><polyline points="-0.0417,0.1224 -0.0385,0.1224"/><polyline points="-0.0401,0.1224 -0.0401,0.1176"/><polyline points="-0.0417,0.1176 -0.0385,0.1176"/></g><g stroke-width="0.0015" stroke="rgb(5%, 5%, 5%)" stroke-opacity="1.0" fill="none"><polyline points="-0.0257,0.1211 -0.0226,0.1211"/><polyline points="-0.0241,0.1211 -0.0241,0.1173"/><polyline points="-0.0257,0.1173 -0.0226,0.1173"/></g><g stroke-width="0.0015" stroke="rgb(5%, 5%, 5%)" stroke-opacity="1.0" fill="none"><polyline points="-0.0098,0.1292 -0.0066,0.1292"/><polyline points="-0.0082,0.1292 -0.0082,0.1255"/><polyline points="-0.0098,0.1255 -0.0066,0.1255"/></g><g stroke-width="0.0015" stroke="rgb(5%, 5%, 5%)" stroke-opacity="1.0" fill="none"><polyline points="0.0061,0.1226 0.0093,0.1226"/><polyline points="0.0077,0.1226 0.0077,0.1178"/><polyline points="0.0061,0.1178 0.0093,0.1178"/></g><g stroke-width="0.0015" stroke="rgb(5%, 5%, 5%)" stroke-opacity="1.0" fill="none"><polyline points="0.0221,0.1300 0.0252,0.1300"/><polyline points="0.0236,0.1300 0.0236,0.1259"/><polyline points="0.0221,0.1259 0.0252,0.1259"/></g><g stroke-width="0.0015" stroke="rgb(5%, 5%, 5%)" stroke-opacity="1.0" fill="none"><polyline points="0.0380,0.1213 0.0412,0.1213"/><polyline points="0.0396,0.1213 0.0396,0.1179"/><polyline points="0.0380,0.1179 0.0412,0.1179"/></g><g stroke-width="0.0015" stroke="rgb(5%, 5%, 5%)" stroke-opacity="1.0" fill="none"><polyline points="0.0539,0.1205 0.0571,0.1205"/><polyline points="0.0555,0.1205 0.0555,0.1190"/><polyline points="0.0539,0.1190 0.0571,0.1190"/></g><g stroke-width="0.0015" stroke="rgb(5%, 5%, 5%)" stroke-opacity="1.0" fill="none"><polyline points="0.0698,0.1306 0.0730,0.1306"/><polyline points="0.0714,0.1306 0.0714,0.1262"/><polyline points="0.0698,0.1262 0.0730,0.1262"/></g><g stroke-width="0.0015" stroke="rgb(5%, 5%, 5%)" stroke-opacity="1.0" fill="none"><polyline points="0.0858,0.1218 0.0890,0.1218"/><polyline points="0.0874,0.1218 0.0874,0.1165"/><polyline points="0.0858,0.1165 0.0890,0.1165"/></g><g stroke-width="0.0015" stroke="rgb(5%, 5%, 5%)" stroke-opacity="1.0" fill="none"><polyline points="0.1017,0.1239 0.1049,0.1239"/><polyline points="0.1033,0.1239 0.1033,0.1189"/><polyline points="0.1017,0.1189 0.1049,0.1189"/></g><g stroke-width="0.0015" stroke="rgb(5%, 5%, 5%)" stroke-opacity="1.0" fill="none"><polyline points="0.1176,0.1302 0.1208,0.1302"/><polyline points="0.1192,0.1302 0.1192,0.1270"/><polyline points="0.1176,0.1270 0.1208,0.1270"/></g><g stroke-width="0.0015" stroke="rgb(5%, 5%, 5%)" stroke-opacity="1.0" fill="none"><polyline points="0.1336,0.1236 0.1368,0.1236"/><polyline points="0.1352,0.1236 0.1352,0.1195"/><polyline points="0.1336,0.1195 0.1368,0.1195"/></g><g stroke-width="0.0015" stroke="rgb(5%, 5%, 5%)" stroke-opacity="1.0" fill="none"><polyline points="0.1495,0.1658 0.1527,0.1658"/><polyline points="0.1511,0.1658 0.1511,0.1649"/><polyline points="0.1495,0.1649 0.1527,0.1649"/></g><g stroke-width="0.0015" stroke="rgb(5%, 5%, 5%)" stroke-opacity="1.0" fill="none"><polyline points="0.1654,0.1662 0.1686,0.1662"/><polyline points="0.1670,0.1662 0.1670,0.1652"/><polyline points="0.1654,0.1652 0.1686,0.1652"/></g><g stroke-width="0.0015" stroke="rgb(5%, 5%, 5%)" stroke-opacity="1.0" fill="none"><polyline points="0.1814,-0.0357 0.1845,-0.0357"/><polyline points="0.1830,-0.0357 0.1830,-0.0509"/><polyline points="0.1814,-0.0509 0.1845,-0.0509"/></g><g stroke-width="0.0015" stroke="rgb(5%, 5%, 5%)" stroke-opacity="1.0" fill="none"><polyline points="0.1973,-0.0214 0.2005,-0.0214"/><polyline points="0.1989,-0.0214 0.1989,-0.0363"/><polyline points="0.1973,-0.0363 0.2005,-0.0363"/></g></g></g><g class="hud"><g class="axis"><g class="ticks"><g class="tickglyph"><g stroke-width="0.0040" stroke="rgb(5%, 5%, 5%)" stroke-opacity="0.4" fill="rgb(5%, 5%, 5%)" fill-opacity="0.4"><g transform="rotate(-90.0, -0.4275, 0.1769)"><polyline points="-0.4275,0.1919
-0.4275,0.1619"/></g><g transform="rotate(-90.0, -0.4275, 0.1547)"><polyline points="-0.4275,0.1697
-0.4275,0.1397"/></g><g transform="rotate(-90.0, -0.4275, 0.1325)"><polyline points="-0.4275,0.1475
-0.4275,0.1175"/></g><g transform="rotate(-90.0, -0.4275, 0.1103)"><polyline points="-0.4275,0.1253
-0.4275,0.0953"/></g><g transform="rotate(-90.0, -0.4275, 0.0881)"><polyline points="-0.4275,0.1031
-0.4275,0.0731"/></g><g transform="rotate(-90.0, -0.4275, 0.0659)"><polyline points="-0.4275,0.0809
-0.4275,0.0509"/></g><g transform="rotate(-90.0, -0.4275, 0.0437)"><polyline points="-0.4275,0.0587
-0.4275,0.0287"/></g><g transform="rotate(-90.0, -0.4275, 0.0215)"><polyline points="-0.4275,0.0365
-0.4275,0.0065"/></g><g transform="rotate(-90.0, -0.4275, -0.0007)"><polyline points="-0.4275,0.0143
-0.4275,-0.0157"/></g><g transform="rotate(-90.0, -0.4275, -0.0229)"><polyline points="-0.4275,-0.0079
-0.4275,-0.0379"/></g><g transform="rotate(-90.0, -0.4275, -0.0451)"><polyline points="-0.4275,-0.0301
-0.4275,-0.0601"/></g><g transform="rotate(-90.0, -0.4275, -0.0673)"><polyline points="-0.4275,-0.0523
-0.4275,-0.0823"/></g></g></g><g class="ticktext"><g stroke-width="0.0" stroke="none" fill="rgb(5%, 5%, 5%)" fill-opacity="1.0" font-size="0.0202" text-anchor="end"><text x="-0.4421" y="0.1803"> 0</text><text x="-0.4421" y="0.1581"> 1</text><text x="-0.4421" y="0.1359"> 2</text><text x="-0.4421" y="0.1137"> 3</text><text x="-0.4421" y="0.0915"> 4</text><text x="-0.4421" y="0.0693"> 5</text><text x="-0.4421" y="0.0471"> 6</text><text x="-0.4421" y="0.0249"> 7</text><text x="-0.4421" y="0.0027"> 8</text><text x="-0.4421" y="-0.0195"> 9</text><text x="-0.4421" y="-0.0418">10</text><text x="-0.4421" y="-0.0640">11</text></g></g><g class="ticklines"><g stroke-width="0.0050" stroke="rgb(5%, 5%, 5%)" stroke-opacity="0.05" fill="none"><polyline points="-0.4153,0.1769 0.2396,0.1769"/><polyline points="-0.4153,0.1547 0.2396,0.1547"/><polyline points="-0.4153,0.1325 0.2396,0.1325"/><polyline points="-0.4153,0.1103 0.2396,0.1103"/><polyline points="-0.4153,0.0881 0.2396,0.0881"/><polyline points="-0.4153,0.0659 0.2396,0.0659"/><polyline points="-0.4153,0.0437 0.2396,0.0437"/><polyline points="-0.4153,0.0215 0.2396,0.0215"/><polyline points="-0.4153,-0.0007 0.2396,-0.0007"/><polyline points="-0.4153,-0.0229 0.2396,-0.0229"/><polyline points="-0.4153,-0.0451 0.2396,-0.0451"/><polyline points="-0.4153,-0.0673 0.2396,-0.0673"/></g></g></g><g class="axisbar"><g stroke-width="0" stroke="rgb(0%, 0%, 0%)" stroke-opacity="0" fill="rgb(5%, 5%, 5%)" fill-opacity="0.4"><rect width="0.0016" height="0.2452" x="-0.4210" y="-0.0678"/></g></g></g><g class="axis"><g class="ticks"><g class="tickglyph"><g stroke-width="0.0040" stroke="rgb(5%, 5%, 5%)" stroke-opacity="0.4" fill="rgb(5%, 5%, 5%)" fill-opacity="0.4"><polyline points="-0.3746,0.1994
-0.3746,0.1694"/><polyline points="-0.3587,0.1994
-0.3587,0.1694"/><polyline points="-0.3428,0.1994
-0.3428,0.1694"/><polyline points="-0.3268,0.1994
-0.3268,0.1694"/><polyline points="-0.3109,0.1994
-0.3109,0.1694"/><polyline points="-0.2950,0.1994
-0.2950,0.1694"/><polyline points="-0.2790,0.1994
-0.2790,0.1694"/><polyline points="-0.2631,0.1994
-0.2631,0.1694"/><polyline points="-0.2472,0.1994
-0.2472,0.1694"/><polyline points="-0.2312,0.1994
-0.2312,0.1694"/><polyline points="-0.2153,0.1994
-0.2153,0.1694"/><polyline points="-0.1994,0.1994
-0.1994,0.1694"/><polyline points="-0.1835,0.1994
-0.1835,0.1694"/><polyline points="-0.1675,0.1994
-0.1675,0.1694"/><polyline points="-0.1516,0.1994
-0.1516,0.1694"/><polyline points="-0.1357,0.1994
-0.1357,0.1694"/><polyline points="-0.1197,0.1994
-0.1197,0.1694"/><polyline points="-0.1038,0.1994
-0.1038,0.1694"/><polyline points="-0.0879,0.1994
-0.0879,0.1694"/><polyline points="-0.0719,0.1994
-0.0719,0.1694"/><polyline points="-0.0560,0.1994
-0.0560,0.1694"/><polyline points="-0.0401,0.1994
-0.0401,0.1694"/><polyline points="-0.0241,0.1994
-0.0241,0.1694"/><polyline points="-0.0082,0.1994
-0.0082,0.1694"/><polyline points="0.0077,0.1994
0.0077,0.1694"/><polyline points="0.0236,0.1994
0.0236,0.1694"/><polyline points="0.0396,0.1994
0.0396,0.1694"/><polyline points="0.0555,0.1994
0.0555,0.1694"/><polyline points="0.0714,0.1994
0.0714,0.1694"/><polyline points="0.0874,0.1994
0.0874,0.1694"/><polyline points="0.1033,0.1994
0.1033,0.1694"/><polyline points="0.1192,0.1994
0.1192,0.1694"/><polyline points="0.1352,0.1994
0.1352,0.1694"/><polyline points="0.1511,0.1994
0.1511,0.1694"/><polyline points="0.1670,0.1994
0.1670,0.1694"/><polyline points="0.1830,0.1994
0.1830,0.1694"/><polyline points="0.1989,0.1994
0.1989,0.1694"/></g></g><g class="ticktext"><g stroke-width="0.0" stroke="none" fill="rgb(5%, 5%, 5%)" fill-opacity="1.0" font-size="0.0202" text-anchor="end"><text x="-0.3746" y="0.1999" transform="rotate(-45.0, -0.3746, 0.1999)">CDCL (adaptive)</text><text x="-0.3587" y="0.1999" transform="rotate(-45.0, -0.3587, 0.1999)">CDCL (adaptive), Baseline</text><text x="-0.3428" y="0.1999" transform="rotate(-45.0, -0.3428, 0.1999)">CDCL (adaptive, mVISDS, ExpRestart(100, 2))</text><text x="-0.3268" y="0.1999" transform="rotate(-45.0, -0.3268, 0.1999)">CDCL (adaptive, mVISDS, ExpRestart(100, 2)), Baseline</text><text x="-0.3109" y="0.1999" transform="rotate(-45.0, -0.3109, 0.1999)">CDCL (adaptive, mVISDS, ExpRestart(100, 2), Clause Decay 0.999)</text><text x="-0.2950" y="0.1999" transform="rotate(-45.0, -0.2950, 0.1999)">CDCL (adaptive, mVISDS, LubyRestart(100, 2))</text><text x="-0.2790" y="0.1999" transform="rotate(-45.0, -0.2790, 0.1999)">CDCL (adaptive, mVISDS, LubyRestart(100, 2)), Baseline</text><text x="-0.2631" y="0.1999" transform="rotate(-45.0, -0.2631, 0.1999)">CDCL (adaptive, mVISDS, LubyRestart(100, 2), Clause Decay)</text><text x="-0.2472" y="0.1999" transform="rotate(-45.0, -0.2472, 0.1999)">CDCL (adaptive, mVSIDS)</text><text x="-0.2312" y="0.1999" transform="rotate(-45.0, -0.2312, 0.1999)">CDCL (adaptive, mVSIDS), Baseline</text><text x="-0.2153" y="0.1999" transform="rotate(-45.0, -0.2153, 0.1999)">CDCL (adaptive, mVSIDS, Clause Decay 0.999)</text><text x="-0.1994" y="0.1999" transform="rotate(-45.0, -0.1994, 0.1999)">CDCL (α = 0.75)</text><text x="-0.1835" y="0.1999" transform="rotate(-45.0, -0.1835, 0.1999)">CDCL (α = 0.75), Baseline</text><text x="-0.1675" y="0.1999" transform="rotate(-45.0, -0.1675, 0.1999)">CDCL (α = 0.75, mVISDS)</text><text x="-0.1516" y="0.1999" transform="rotate(-45.0, -0.1516, 0.1999)">CDCL (α = 0.75, mVISDS), Baseline</text><text x="-0.1357" y="0.1999" transform="rotate(-45.0, -0.1357, 0.1999)">CDCL (α = 0.75, mVISDS, Clause Decay 0.999)</text><text x="-0.1197" y="0.1999" transform="rotate(-45.0, -0.1197, 0.1999)">CDCL (α = 0.75, mVISDS, ExpRestart(100, 2))</text><text x="-0.1038" y="0.1999" transform="rotate(-45.0, -0.1038, 0.1999)">CDCL (α = 0.75, mVISDS, ExpRestart(100, 2)), Baseline</text><text x="-0.0879" y="0.1999" transform="rotate(-45.0, -0.0879, 0.1999)">CDCL (α = 0.75, mVISDS, ExpRestart(100, 2), Clause Decay 0.999)</text><text x="-0.0719" y="0.1999" transform="rotate(-45.0, -0.0719, 0.1999)">CDCL (α = 0.75, mVISDS, LubyRestart(100, 2))</text><text x="-0.0560" y="0.1999" transform="rotate(-45.0, -0.0560, 0.1999)">CDCL (α = 0.75, mVISDS, LubyRestart(100, 2)), Baseline</text><text x="-0.0401" y="0.1999" transform="rotate(-45.0, -0.0401, 0.1999)">CDCL (α = 0.75, mVISDS, LubyRestart(100, 2), Clause Decay 0.999)</text><text x="-0.0241" y="0.1999" transform="rotate(-45.0, -0.0241, 0.1999)">CDCL (α = 0.95)</text><text x="-0.0082" y="0.1999" transform="rotate(-45.0, -0.0082, 0.1999)">CDCL (α = 0.95), Baseline</text><text x="0.0077" y="0.1999" transform="rotate(-45.0, 0.0077, 0.1999)">CDCL (α = 0.95, mVISDS)</text><text x="0.0236" y="0.1999" transform="rotate(-45.0, 0.0236, 0.1999)">CDCL (α = 0.95, mVISDS), Baseline</text><text x="0.0396" y="0.1999" transform="rotate(-45.0, 0.0396, 0.1999)">CDCL (α = 0.95, mVISDS, Clause Decay 0.999)</text><text x="0.0555" y="0.1999" transform="rotate(-45.0, 0.0555, 0.1999)">CDCL (α = 0.95, mVISDS, ExpRestart(100, 2))</text><text x="0.0714" y="0.1999" transform="rotate(-45.0, 0.0714, 0.1999)">CDCL (α = 0.95, mVISDS, ExpRestart(100, 2)), Baseline</text><text x="0.0874" y="0.1999" transform="rotate(-45.0, 0.0874, 0.1999)">CDCL (α = 0.95, mVISDS, ExpRestart(100, 2), Clause Decay 0.999)</text><text x="0.1033" y="0.1999" transform="rotate(-45.0, 0.1033, 0.1999)">CDCL (α = 0.95, mVISDS, LubyRestart(100, 2))</text><text x="0.1192" y="0.1999" transform="rotate(-45.0, 0.1192, 0.1999)">CDCL (α = 0.95, mVISDS, LubyRestart(100, 2)), Baseline</text><text x="0.1352" y="0.1999" transform="rotate(-45.0, 0.1352, 0.1999)">CDCL (α = 0.95, mVISDS, LubyRestart(100, 2), Clause Decay 0.999)</text><text x="0.1511" y="0.1999" transform="rotate(-45.0, 0.1511, 0.1999)">DPLL</text><text x="0.1670" y="0.1999" transform="rotate(-45.0, 0.1670, 0.1999)">DPLL, Baseline</text><text x="0.1830" y="0.1999" transform="rotate(-45.0, 0.1830, 0.1999)">tableaux</text><text x="0.1989" y="0.1999" transform="rotate(-45.0, 0.1989, 0.1999)">tableaux, Baseline</text></g></g></g><g class="axisbar"><g stroke-width="0" stroke="rgb(0%, 0%, 0%)" stroke-opacity="0" fill="rgb(5%, 5%, 5%)" fill-opacity="0.4"><rect width="0.6566" height="0.0010" x="-0.4161" y="0.1795"/></g></g></g><g class="title"><g stroke-width="0.0" stroke="none" fill="rgb(5%, 5%, 5%)" fill-opacity="1.0" font-size="0.0486" text-anchor="middle"><text x="-0.2437" y="-0.0923">Time: huge/4/cnf</text></g></g><g class="legend"><g class="legendBorder"><g stroke-width="0.0017" stroke="rgb(5%, 5%, 5%)" stroke-opacity="1.0" fill="rgb(5%, 5%, 5%)" fill-opacity="0"><rect width="0.4168" height="0.6379" x="0.3098" y="-0.4503"/></g></g><g class="legendContent"><g stroke-width="0.0" stroke="none" fill="rgb(5%, 5%, 5%)" fill-opacity="1.0" font-size="0.0128" text-anchor="start"><text x="0.3169" y="0.1788">tableaux, Baseline</text></g><g stroke-width="0.0002" stroke="rgb(69%, 16%, 76%)" stroke-opacity="1.0" fill="rgb(69%, 16%, 76%)" fill-opacity="0.25"><rect width="0.0213" height="0.0128" x="0.6983" y="0.1705"/></g><g stroke-width="0.0" stroke="none" fill="rgb(5%, 5%, 5%)" fill-opacity="1.0" font-size="0.0128" text-anchor="start"><text x="0.3169" y="0.1617">tableaux</text></g><g stroke-width="0" stroke="rgb(2%, 29%, 48%)" stroke-opacity="1.0" fill="rgb(69%, 16%, 76%)" fill-opacity="1.0"><rect width="0.0213" height="0.0128" x="0.6983" y="0.1534"/></g><g stroke-width="0.0" stroke="none" fill="rgb(5%, 5%, 5%)" fill-opacity="1.0" font-size="0.0128" text-anchor="start"><text x="0.3169" y="0.1446">DPLL, Baseline</text></g><g stroke-width="0.0002" stroke="rgb(0%, 49%, 30%)" stroke-opacity="1.0" fill="rgb(0%, 49%, 30%)" fill-opacity="0.25"><rect width="0.0213" height="0.0128" x="0.6983" y="0.1363"/></g><g stroke-width="0.0" stroke="none" fill="rgb(5%, 5%, 5%)" fill-opacity="1.0" font-size="0.0128" text-anchor="start"><text x="0.3169" y="0.1274">DPLL</text></g><g stroke-width="0" stroke="rgb(2%, 29%, 48%)" stroke-opacity="1.0" fill="rgb(0%, 49%, 30%)" fill-opacity="1.0"><rect width="0.0213" height="0.0128" x="0.6983" y="0.1191"/></g><g stroke-width="0.0" stroke="none" fill="rgb(5%, 5%, 5%)" fill-opacity="1.0" font-size="0.0128" text-anchor="start"><text x="0.3169" y="0.1103">CDCL (α = 0.95, mVISDS, LubyRestart(100, 2), Clause Decay 0.999)</text></g><g stroke-width="0" stroke="rgb(2%, 29%, 48%)" stroke-opacity="1.0" fill="rgb(0%, 38%, 61%)" fill-opacity="1.0"><rect width="0.0213" height="0.0128" x="0.6983" y="0.1020"/></g><g stroke-width="0.0" stroke="none" fill="rgb(5%, 5%, 5%)" fill-opacity="1.0" font-size="0.0128" text-anchor="start"><text x="0.3169" y="0.0932">CDCL (α = 0.95, mVISDS, LubyRestart(100, 2)), Baseline</text></g><g stroke-width="0.0002" stroke="rgb(100%, 37%, 0%)" stroke-opacity="1.0" fill="rgb(100%, 37%, 0%)" fill-opacity="0.25"><rect width="0.0213" height="0.0128" x="0.6983" y="0.0849"/></g><g stroke-width="0.0" stroke="none" fill="rgb(5%, 5%, 5%)" fill-opacity="1.0" font-size="0.0128" text-anchor="start"><text x="0.3169" y="0.0761">CDCL (α = 0.95, mVISDS, LubyRestart(100, 2))</text></g><g stroke-width="0" stroke="rgb(2%, 29%, 48%)" stroke-opacity="1.0" fill="rgb(100%, 37%, 0%)" fill-opacity="1.0"><rect width="0.0213" height="0.0128" x="0.6983" y="0.0677"/></g><g stroke-width="0.0" stroke="none" fill="rgb(5%, 5%, 5%)" fill-opacity="1.0" font-size="0.0128" text-anchor="start"><text x="0.3169" y="0.0590">CDCL (α = 0.95, mVISDS, ExpRestart(100, 2), Clause Decay 0.999)</text></g><g stroke-width="0" stroke="rgb(2%, 29%, 48%)" stroke-opacity="1.0" fill="rgb(54%, 0%, 0%)" fill-opacity="1.0"><rect width="0.0213" height="0.0128" x="0.6983" y="0.0506"/></g><g stroke-width="0.0" stroke="none" fill="rgb(5%, 5%, 5%)" fill-opacity="1.0" font-size="0.0128" text-anchor="start"><text x="0.3169" y="0.0418">CDCL (α = 0.95, mVISDS, ExpRestart(100, 2)), Baseline</text></g><g stroke-width="0.0002" stroke="rgb(42%, 44%, 14%)" stroke-opacity="1.0" fill="rgb(42%, 44%, 14%)" fill-opacity="0.25"><rect width="0.0213" height="0.0128" x="0.6983" y="0.0335"/></g><g stroke-width="0.0" stroke="none" fill="rgb(5%, 5%, 5%)" fill-opacity="1.0" font-size="0.0128" text-anchor="start"><text x="0.3169" y="0.0247">CDCL (α = 0.95, mVISDS, ExpRestart(100, 2))</text></g><g stroke-width="0" stroke="rgb(2%, 29%, 48%)" stroke-opacity="1.0" fill="rgb(42%, 44%, 14%)" fill-opacity="1.0"><rect width="0.0213" height="0.0128" x="0.6983" y="0.0164"/></g><g stroke-width="0.0" stroke="none" fill="rgb(5%, 5%, 5%)" fill-opacity="1.0" font-size="0.0128" text-anchor="start"><text x="0.3169" y="0.0076">CDCL (α = 0.95, mVISDS, Clause Decay 0.999)</text></g><g stroke-width="0" stroke="rgb(2%, 29%, 48%)" stroke-opacity="1.0" fill="rgb(18%, 22%, 10%)" fill-opacity="1.0"><rect width="0.0213" height="0.0128" x="0.6983" y="-0.0008"/></g><g stroke-width="0.0" stroke="none" fill="rgb(5%, 5%, 5%)" fill-opacity="1.0" font-size="0.0128" text-anchor="start"><text x="0.3169" y="-0.0095">CDCL (α = 0.95, mVISDS), Baseline</text></g><g stroke-width="0.0002" stroke="rgb(0%, 42%, 48%)" stroke-opacity="1.0" fill="rgb(0%, 42%, 48%)" fill-opacity="0.25"><rect width="0.0213" height="0.0128" x="0.6983" y="-0.0179"/></g><g stroke-width="0.0" stroke="none" fill="rgb(5%, 5%, 5%)" fill-opacity="1.0" font-size="0.0128" text-anchor="start"><text x="0.3169" y="-0.0267">CDCL (α = 0.95, mVISDS)</text></g><g stroke-width="0" stroke="rgb(2%, 29%, 48%)" stroke-opacity="1.0" fill="rgb(0%, 42%, 48%)" fill-opacity="1.0"><rect width="0.0213" height="0.0128" x="0.6983" y="-0.0350"/></g><g stroke-width="0.0" stroke="none" fill="rgb(5%, 5%, 5%)" fill-opacity="1.0" font-size="0.0128" text-anchor="start"><text x="0.3169" y="-0.0438">CDCL (α = 0.95), Baseline</text></g><g stroke-width="0.0002" stroke="rgb(69%, 17%, 0%)" stroke-opacity="1.0" fill="rgb(69%, 17%, 0%)" fill-opacity="0.25"><rect width="0.0213" height="0.0128" x="0.6983" y="-0.0521"/></g><g stroke-width="0.0" stroke="none" fill="rgb(5%, 5%, 5%)" fill-opacity="1.0" font-size="0.0128" text-anchor="start"><text x="0.3169" y="-0.0609">CDCL (α = 0.95)</text></g><g stroke-width="0" stroke="rgb(2%, 29%, 48%)" stroke-opacity="1.0" fill="rgb(69%, 17%, 0%)" fill-opacity="1.0"><rect width="0.0213" height="0.0128" x="0.6983" y="-0.0693"/></g><g stroke-width="0.0" stroke="none" fill="rgb(5%, 5%, 5%)" fill-opacity="1.0" font-size="0.0128" text-anchor="start"><text x="0.3169" y="-0.0780">CDCL (α = 0.75, mVISDS, LubyRestart(100, 2), Clause Decay 0.999)</text></g><g stroke-width="0" stroke="rgb(2%, 29%, 48%)" stroke-opacity="1.0" fill="rgb(53%, 24%, 0%)" fill-opacity="1.0"><rect width="0.0213" height="0.0128" x="0.6983" y="-0.0864"/></g><g stroke-width="0.0" stroke="none" fill="rgb(5%, 5%, 5%)" fill-opacity="1.0" font-size="0.0128" text-anchor="start"><text x="0.3169" y="-0.0952">CDCL (α = 0.75, mVISDS, LubyRestart(100, 2)), Baseline</text></g><g stroke-width="0.0002" stroke="rgb(57%, 62%, 78%)" stroke-opacity="1.0" fill="rgb(57%, 62%, 78%)" fill-opacity="0.25"><rect width="0.0213" height="0.0128" x="0.6983" y="-0.1035"/></g><g stroke-width="0.0" stroke="none" fill="rgb(5%, 5%, 5%)" fill-opacity="1.0" font-size="0.0128" text-anchor="start"><text x="0.3169" y="-0.1123">CDCL (α = 0.75, mVISDS, LubyRestart(100, 2))</text></g><g stroke-width="0" stroke="rgb(2%, 29%, 48%)" stroke-opacity="1.0" fill="rgb(57%, 62%, 78%)" fill-opacity="1.0"><rect width="0.0213" height="0.0128" x="0.6983" y="-0.1206"/></g><g stroke-width="0.0" stroke="none" fill="rgb(5%, 5%, 5%)" fill-opacity="1.0" font-size="0.0128" text-anchor="start"><text x="0.3169" y="-0.1294">CDCL (α = 0.75, mVISDS, ExpRestart(100, 2), Clause Decay 0.999)</text></g><g stroke-width="0" stroke="rgb(2%, 29%, 48%)" stroke-opacity="1.0" fill="rgb(98%, 15%, 25%)" fill-opacity="1.0"><rect width="0.0213" height="0.0128" x="0.6983" y="-0.1378"/></g><g stroke-width="0.0" stroke="none" fill="rgb(5%, 5%, 5%)" fill-opacity="1.0" font-size="0.0128" text-anchor="start"><text x="0.3169" y="-0.1465">CDCL (α = 0.75, mVISDS, ExpRestart(100, 2)), Baseline</text></g><g stroke-width="0.0002" stroke="rgb(0%, 72%, 67%)" stroke-opacity="1.0" fill="rgb(0%, 72%, 67%)" fill-opacity="0.25"><rect width="0.0213" height="0.0128" x="0.6983" y="-0.1549"/></g><g stroke-width="0.0" stroke="none" fill="rgb(5%, 5%, 5%)" fill-opacity="1.0" font-size="0.0128" text-anchor="start"><text x="0.3169" y="-0.1637">CDCL (α = 0.75, mVISDS, ExpRestart(100, 2))</text></g><g stroke-width="0" stroke="rgb(2%, 29%, 48%)" stroke-opacity="1.0" fill="rgb(0%, 72%, 67%)" fill-opacity="1.0"><rect width="0.0213" height="0.0128" x="0.6983" y="-0.1720"/></g><g stroke-width="0.0" stroke="none" fill="rgb(5%, 5%, 5%)" fill-opacity="1.0" font-size="0.0128" text-anchor="start"><text x="0.3169" y="-0.1808">CDCL (α = 0.75, mVISDS, Clause Decay 0.999)</text></g><g stroke-width="0" stroke="rgb(2%, 29%, 48%)" stroke-opacity="1.0" fill="rgb(35%, 24%, 0%)" fill-opacity="1.0"><rect width="0.0213" height="0.0128" x="0.6983" y="-0.1891"/></g><g stroke-width="0.0" stroke="none" fill="rgb(5%, 5%, 5%)" fill-opacity="1.0" font-size="0.0128" text-anchor="start"><text x="0.3169" y="-0.1979">CDCL (α = 0.75, mVISDS), Baseline</text></g><g stroke-width="0.0002" stroke="rgb(48%, 65%, 0%)" stroke-opacity="1.0" fill="rgb(48%, 65%, 0%)" fill-opacity="0.25"><rect width="0.0213" height="0.0128" x="0.6983" y="-0.2062"/></g><g stroke-width="0.0" stroke="none" fill="rgb(5%, 5%, 5%)" fill-opacity="1.0" font-size="0.0128" text-anchor="start"><text x="0.3169" y="-0.2151">CDCL (α = 0.75, mVISDS)</text></g><g stroke-width="0" stroke="rgb(2%, 29%, 48%)" stroke-opacity="1.0" fill="rgb(48%, 65%, 0%)" fill-opacity="1.0"><rect width="0.0213" height="0.0128" x="0.6983" y="-0.2234"/></g><g stroke-width="0.0" stroke="none" fill="rgb(5%, 5%, 5%)" fill-opacity="1.0" font-size="0.0128" text-anchor="start"><text x="0.3169" y="-0.2322">CDCL (α = 0.75), Baseline</text></g><g stroke-width="0.0002" stroke="rgb(20%, 15%, 40%)" stroke-opacity="1.0" fill="rgb(20%, 15%, 40%)" fill-opacity="0.25"><rect width="0.0213" height="0.0128" x="0.6983" y="-0.2405"/></g><g stroke-width="0.0" stroke="none" fill="rgb(5%, 5%, 5%)" fill-opacity="1.0" font-size="0.0128" text-anchor="start"><text x="0.3169" y="-0.2493">CDCL (α = 0.75)</text></g><g stroke-width="0" stroke="rgb(2%, 29%, 48%)" stroke-opacity="1.0" fill="rgb(20%, 15%, 40%)" fill-opacity="1.0"><rect width="0.0213" height="0.0128" x="0.6983" y="-0.2576"/></g><g stroke-width="0.0" stroke="none" fill="rgb(5%, 5%, 5%)" fill-opacity="1.0" font-size="0.0128" text-anchor="start"><text x="0.3169" y="-0.2664">CDCL (adaptive, mVSIDS, Clause Decay 0.999)</text></g><g stroke-width="0" stroke="rgb(2%, 29%, 48%)" stroke-opacity="1.0" fill="rgb(37%, 17%, 0%)" fill-opacity="1.0"><rect width="0.0213" height="0.0128" x="0.6983" y="-0.2748"/></g><g stroke-width="0.0" stroke="none" fill="rgb(5%, 5%, 5%)" fill-opacity="1.0" font-size="0.0128" text-anchor="start"><text x="0.3169" y="-0.2835">CDCL (adaptive, mVSIDS), Baseline</text></g><g stroke-width="0.0002" stroke="rgb(72%, 66%, 0%)" stroke-opacity="1.0" fill="rgb(72%, 66%, 0%)" fill-opacity="0.25"><rect width="0.0213" height="0.0128" x="0.6983" y="-0.2919"/></g><g stroke-width="0.0" stroke="none" fill="rgb(5%, 5%, 5%)" fill-opacity="1.0" font-size="0.0128" text-anchor="start"><text x="0.3169" y="-0.3007">CDCL (adaptive, mVSIDS)</text></g><g stroke-width="0" stroke="rgb(2%, 29%, 48%)" stroke-opacity="1.0" fill="rgb(72%, 66%, 0%)" fill-opacity="1.0"><rect width="0.0213" height="0.0128" x="0.6983" y="-0.3090"/></g><g stroke-width="0.0" stroke="none" fill="rgb(5%, 5%, 5%)" fill-opacity="1.0" font-size="0.0128" text-anchor="start"><text x="0.3169" y="-0.3178">CDCL (adaptive, mVISDS, LubyRestart(100, 2), Clause Decay)</text></g><g stroke-width="0" stroke="rgb(2%, 29%, 48%)" stroke-opacity="1.0" fill="rgb(0%, 21%, 55%)" fill-opacity="1.0"><rect width="0.0213" height="0.0128" x="0.6983" y="-0.3261"/></g><g stroke-width="0.0" stroke="none" fill="rgb(5%, 5%, 5%)" fill-opacity="1.0" font-size="0.0128" text-anchor="start"><text x="0.3169" y="-0.3349">CDCL (adaptive, mVISDS, LubyRestart(100, 2)), Baseline</text></g><g stroke-width="0.0002" stroke="rgb(0%, 36%, 0%)" stroke-opacity="1.0" fill="rgb(0%, 36%, 0%)" fill-opacity="0.25"><rect width="0.0213" height="0.0128" x="0.6983" y="-0.3433"/></g><g stroke-width="0.0" stroke="none" fill="rgb(5%, 5%, 5%)" fill-opacity="1.0" font-size="0.0128" text-anchor="start"><text x="0.3169" y="-0.3521">CDCL (adaptive, mVISDS, LubyRestart(100, 2))</text></g><g stroke-width="0" stroke="rgb(2%, 29%, 48%)" stroke-opacity="1.0" fill="rgb(0%, 36%, 0%)" fill-opacity="1.0"><rect width="0.0213" height="0.0128" x="0.6983" y="-0.3604"/></g><g stroke-width="0.0" stroke="none" fill="rgb(5%, 5%, 5%)" fill-opacity="1.0" font-size="0.0128" text-anchor="start"><text x="0.3169" y="-0.3692">CDCL (adaptive, mVISDS, ExpRestart(100, 2), Clause Decay 0.999)</text></g><g stroke-width="0" stroke="rgb(2%, 29%, 48%)" stroke-opacity="1.0" fill="rgb(70%, 21%, 0%)" fill-opacity="1.0"><rect width="0.0213" height="0.0128" x="0.6983" y="-0.3775"/></g><g stroke-width="0.0" stroke="none" fill="rgb(5%, 5%, 5%)" fill-opacity="1.0" font-size="0.0128" text-anchor="start"><text x="0.3169" y="-0.3863">CDCL (adaptive, mVISDS, ExpRestart(100, 2)), Baseline</text></g><g stroke-width="0.0002" stroke="rgb(47%, 34%, 0%)" stroke-opacity="1.0" fill="rgb(47%, 34%, 0%)" fill-opacity="0.25"><rect width="0.0213" height="0.0128" x="0.6983" y="-0.3946"/></g><g stroke-width="0.0" stroke="none" fill="rgb(5%, 5%, 5%)" fill-opacity="1.0" font-size="0.0128" text-anchor="start"><text x="0.3169" y="-0.4034">CDCL (adaptive, mVISDS, ExpRestart(100, 2))</text></g><g stroke-width="0" stroke="rgb(2%, 29%, 48%)" stroke-opacity="1.0" fill="rgb(47%, 34%, 0%)" fill-opacity="1.0"><rect width="0.0213" height="0.0128" x="0.6983" y="-0.4118"/></g><g stroke-width="0.0" stroke="none" fill="rgb(5%, 5%, 5%)" fill-opacity="1.0" font-size="0.0128" text-anchor="start"><text x="0.3169" y="-0.4206">CDCL (adaptive), Baseline</text></g><g stroke-width="0.0002" stroke="rgb(57%, 0%, 21%)" stroke-opacity="1.0" fill="rgb(57%, 0%, 21%)" fill-opacity="0.25"><rect width="0.0213" height="0.0128" x="0.6983" y="-0.4289"/></g><g stroke-width="0.0" stroke="none" fill="rgb(5%, 5%, 5%)" fill-opacity="1.0" font-size="0.0128" text-anchor="start"><text x="0.3169" y="-0.4377">CDCL (adaptive)</text></g><g stroke-width="0" stroke="rgb(2%, 29%, 48%)" stroke-opacity="1.0" fill="rgb(57%, 0%, 21%)" fill-opacity="1.0"><rect width="0.0213" height="0.0128" x="0.6983" y="-0.4460"/></g></g></g><g class="frame"><g stroke-width="0" stroke="rgb(0%, 0%, 0%)" stroke-opacity="0" fill="rgb(100%, 100%, 100%)" fill-opacity="0.02"><rect width="1.6180" height="1.0" x="-0.8090" y="-0.5"/></g></g><g class="title"><g stroke-width="0.0" stroke="none" fill="rgb(5%, 5%, 5%)" fill-opacity="1.0" font-size="0.0243" text-anchor="middle"><text x="-0.7515" y="0" transform="rotate(-90.0, -0.7515, 0)">Time [ms]</text></g></g></g></svg>