<svg xmlns="http://www.w3.org/2000/svg" xmlns:xlink="http://www.w3.org/1999/xlink" width="476" height="300" viewBox="-1.3475 -0.5 2.376 1.4947"><style>svg {color-scheme: light dark;} {.canvas g, .title g, .axisbar g, .ticktext g, .tickglyph g, .ticklines g, .legendContent g text {fill: rgb(5%, 5%, 5%);} .ticklines g, .tickglyph g, .legendBorder g {stroke: rgb(5%, 5%, 5%);} .legendBorder g {fill: rgb(94%, 94%, 94%);}} @media (prefers-color-scheme:dark) {.canvas g, .title g, .axisbar g, .ticktext g, .tickglyph g, .ticklines g, .legendContent g text {fill: rgb(94%, 94%, 94%);} .ticklines g, .tickglyph g, .legendBorder g {stroke: rgb(94%, 94%, 94%);} .legendBorder g {fill: rgb(5%, 5%, 5%);}}
svg { font-family: system-ui,-apple-system,"Segoe UI",Roboto,"Helvetica Neue",Arial,"Noto Sans","Liberation Sans",sans-serif,"Apple Color Emoji","Segoe UI Emoji","Segoe UI Symbol","Noto Color Emoji";
}

ticktext { font-family: SFMono-Regular,Menlo,Monaco,Consolas,"Liberation Mono","Courier New",monospace;}</style><g class="chart"><g class="barchart"><g stroke-width="0" stroke="rgb(2%, 29%, 48%)" stroke-opacity="1.0" fill="rgb(0%, 57%, 62%)" fill-opacity="1.0"><rect width="0.0291" height="0.1260" x="-0.3737" y="-0.1251"/></g><g stroke-width="0.0010" stroke="rgb(0%, 57%, 62%)" stroke-opacity="1.0" fill="rgb(0%, 57%, 62%)" fill-opacity="0.25"><rect width="0.0291" height="0.2255" x="-0.3446" y="-0.2247"/></g><g stroke-width="0" stroke="rgb(2%, 29%, 48%)" stroke-opacity="1.0" fill="rgb(0%, 35%, 53%)" fill-opacity="1.0"><rect width="0.0291" height="0.1299" x="-0.3154" y="-0.1290"/></g><g stroke-width="0.0010" stroke="rgb(0%, 35%, 53%)" stroke-opacity="1.0" fill="rgb(0%, 35%, 53%)" fill-opacity="0.25"><rect width="0.0291" height="0.1813" x="-0.2863" y="-0.1804"/></g><g stroke-width="0" stroke="rgb(2%, 29%, 48%)" stroke-opacity="1.0" fill="rgb(0%, 72%, 98%)" fill-opacity="1.0"><rect width="0.0291" height="0.1289" x="-0.2572" y="-0.1281"/></g><g stroke-width="0.0010" stroke="rgb(0%, 72%, 98%)" stroke-opacity="1.0" fill="rgb(0%, 72%, 98%)" fill-opacity="0.25"><rect width="0.0291" height="0.1828" x="-0.2281" y="-0.1819"/></g><g stroke-width="0" stroke="rgb(2%, 29%, 48%)" stroke-opacity="1.0" fill="rgb(90%, 37%, 58%)" fill-opacity="1.0"><rect width="0.0291" height="0.1297" x="-0.1990" y="-0.1289"/></g><g stroke-width="0.0010" stroke="rgb(90%, 37%, 58%)" stroke-opacity="1.0" fill="rgb(90%, 37%, 58%)" fill-opacity="0.25"><rect width="0.0291" height="0.1836" x="-0.1699" y="-0.1828"/></g><g stroke-width="0" stroke="rgb(2%, 29%, 48%)" stroke-opacity="1.0" fill="rgb(34%, 34%, 0%)" fill-opacity="1.0"><rect width="0.0291" height="0.1238" x="-0.1408" y="-0.1229"/></g><g stroke-width="0.0010" stroke="rgb(34%, 34%, 0%)" stroke-opacity="1.0" fill="rgb(34%, 34%, 0%)" fill-opacity="0.25"><rect width="0.0291" height="0.2135" x="-0.1117" y="-0.2127"/></g><g stroke-width="0" stroke="rgb(2%, 29%, 48%)" stroke-opacity="1.0" fill="rgb(16%, 61%, 0%)" fill-opacity="1.0"><rect width="0.0291" height="0.1297" x="-0.0826" y="-0.1289"/></g><g stroke-width="0.0010" stroke="rgb(16%, 61%, 0%)" stroke-opacity="1.0" fill="rgb(16%, 61%, 0%)" fill-opacity="0.25"><rect width="0.0291" height="0.1815" x="-0.0535" y="-0.1807"/></g><g stroke-width="0" stroke="rgb(2%, 29%, 48%)" stroke-opacity="1.0" fill="rgb(0%, 64%, 70%)" fill-opacity="1.0"><rect width="0.0291" height="0.1333" x="-0.0244" y="-0.1324"/></g><g stroke-width="0.0010" stroke="rgb(0%, 64%, 70%)" stroke-opacity="1.0" fill="rgb(0%, 64%, 70%)" fill-opacity="0.25"><rect width="0.0291" height="0.1823" x="0.0047" y="-0.1814"/></g><g stroke-width="0" stroke="rgb(2%, 29%, 48%)" stroke-opacity="1.0" fill="rgb(67%, 62%, 0%)" fill-opacity="1.0"><rect width="0.0291" height="0.1235" x="0.0338" y="-0.1227"/></g><g stroke-width="0.0010" stroke="rgb(67%, 62%, 0%)" stroke-opacity="1.0" fill="rgb(67%, 62%, 0%)" fill-opacity="0.25"><rect width="0.0291" height="0.1799" x="0.0630" y="-0.1791"/></g><g stroke-width="0" stroke="rgb(2%, 29%, 48%)" stroke-opacity="1.0" fill="rgb(0%, 37%, 27%)" fill-opacity="1.0"><rect width="0.0291" height="0.1219" x="0.0921" y="-0.1210"/></g><g stroke-width="0.0010" stroke="rgb(0%, 37%, 27%)" stroke-opacity="1.0" fill="rgb(0%, 37%, 27%)" fill-opacity="0.25"><rect width="0.0291" height="0.2141" x="0.1212" y="-0.2133"/></g><g stroke-width="0" stroke="rgb(2%, 29%, 48%)" stroke-opacity="1.0" fill="rgb(9%, 20%, 33%)" fill-opacity="1.0"><rect width="0.0291" height="0.1312" x="0.1503" y="-0.1304"/></g><g stroke-width="0.0010" stroke="rgb(9%, 20%, 33%)" stroke-opacity="1.0" fill="rgb(9%, 20%, 33%)" fill-opacity="0.25"><rect width="0.0291" height="0.1822" x="0.1794" y="-0.1814"/></g><g stroke-width="0" stroke="rgb(2%, 29%, 48%)" stroke-opacity="1.0" fill="rgb(50%, 0%, 19%)" fill-opacity="1.0"><rect width="0.0291" height="0.1292" x="0.2085" y="-0.1283"/></g><g stroke-width="0.0010" stroke="rgb(50%, 0%, 19%)" stroke-opacity="1.0" fill="rgb(50%, 0%, 19%)" fill-opacity="0.25"><rect width="0.0291" height="0.1837" x="0.2376" y="-0.1829"/></g><g stroke-width="0" stroke="rgb(2%, 29%, 48%)" stroke-opacity="1.0" fill="rgb(24%, 33%, 6%)" fill-opacity="1.0"><rect width="0.0291" height="0.1243" x="0.2667" y="-0.1234"/></g><g stroke-width="0.0010" stroke="rgb(24%, 33%, 6%)" stroke-opacity="1.0" fill="rgb(24%, 33%, 6%)" fill-opacity="0.25"><rect width="0.0291" height="0.1781" x="0.2958" y="-0.1773"/></g><g stroke-width="0" stroke="rgb(2%, 29%, 48%)" stroke-opacity="1.0" fill="rgb(46%, 28%, 12%)" fill-opacity="1.0"><rect width="0.0291" height="0.3159" x="0.3249" y="-0.3151"/></g><g stroke-width="0.0010" stroke="rgb(46%, 28%, 12%)" stroke-opacity="1.0" fill="rgb(46%, 28%, 12%)" fill-opacity="0.25"><rect width="0.0291" height="0.3187" x="0.3540" y="-0.3178"/></g></g><g class="errors"><g stroke-width="0.0015" stroke="rgb(5%, 5%, 5%)" stroke-opacity="1.0" fill="none"><polyline points="-0.3620,-0.1164 -0.3562,-0.1164"/><polyline points="-0.3591,-0.1164 -0.3591,-0.1338"/><polyline points="-0.3620,-0.1338 -0.3562,-0.1338"/></g><g stroke-width="0.0015" stroke="rgb(5%, 5%, 5%)" stroke-opacity="1.0" fill="none"><polyline points="-0.3329,-0.2181 -0.3271,-0.2181"/><polyline points="-0.3300,-0.2181 -0.3300,-0.2313"/><polyline points="-0.3329,-0.2313 -0.3271,-0.2313"/></g><g stroke-width="0.0015" stroke="rgb(5%, 5%, 5%)" stroke-opacity="1.0" fill="none"><polyline points="-0.3038,-0.1208 -0.2980,-0.1208"/><polyline points="-0.3009,-0.1208 -0.3009,-0.1373"/><polyline points="-0.3038,-0.1373 -0.2980,-0.1373"/></g><g stroke-width="0.0015" stroke="rgb(5%, 5%, 5%)" stroke-opacity="1.0" fill="none"><polyline points="-0.2747,-0.1729 -0.2689,-0.1729"/><polyline points="-0.2718,-0.1729 -0.2718,-0.1880"/><polyline points="-0.2747,-0.1880 -0.2689,-0.1880"/></g><g stroke-width="0.0015" stroke="rgb(5%, 5%, 5%)" stroke-opacity="1.0" fill="none"><polyline points="-0.2456,-0.1182 -0.2398,-0.1182"/><polyline points="-0.2427,-0.1182 -0.2427,-0.1380"/><polyline points="-0.2456,-0.1380 -0.2398,-0.1380"/></g><g stroke-width="0.0015" stroke="rgb(5%, 5%, 5%)" stroke-opacity="1.0" fill="none"><polyline points="-0.2165,-0.1703 -0.2107,-0.1703"/><polyline points="-0.2136,-0.1703 -0.2136,-0.1935"/><polyline points="-0.2165,-0.1935 -0.2107,-0.1935"/></g><g stroke-width="0.0015" stroke="rgb(5%, 5%, 5%)" stroke-opacity="1.0" fill="none"><polyline points="-0.1874,-0.1220 -0.1816,-0.1220"/><polyline points="-0.1845,-0.1220 -0.1845,-0.1358"/><polyline points="-0.1874,-0.1358 -0.1816,-0.1358"/></g><g stroke-width="0.0015" stroke="rgb(5%, 5%, 5%)" stroke-opacity="1.0" fill="none"><polyline points="-0.1583,-0.1756 -0.1524,-0.1756"/><polyline points="-0.1554,-0.1756 -0.1554,-0.1900"/><polyline points="-0.1583,-0.1900 -0.1524,-0.1900"/></g><g stroke-width="0.0015" stroke="rgb(5%, 5%, 5%)" stroke-opacity="1.0" fill="none"><polyline points="-0.1292,-0.1205 -0.1233,-0.1205"/><polyline points="-0.1262,-0.1205 -0.1262,-0.1253"/><polyline points="-0.1292,-0.1253 -0.1233,-0.1253"/></g><g stroke-width="0.0015" stroke="rgb(5%, 5%, 5%)" stroke-opacity="1.0" fill="none"><polyline points="-0.1001,-0.1991 -0.0942,-0.1991"/><polyline points="-0.0971,-0.1991 -0.0971,-0.2262"/><polyline points="-0.1001,-0.2262 -0.0942,-0.2262"/></g><g stroke-width="0.0015" stroke="rgb(5%, 5%, 5%)" stroke-opacity="1.0" fill="none"><polyline points="-0.0709,-0.1231 -0.0651,-0.1231"/><polyline points="-0.0680,-0.1231 -0.0680,-0.1347"/><polyline points="-0.0709,-0.1347 -0.0651,-0.1347"/></g><g stroke-width="0.0015" stroke="rgb(5%, 5%, 5%)" stroke-opacity="1.0" fill="none"><polyline points="-0.0418,-0.1678 -0.0360,-0.1678"/><polyline points="-0.0389,-0.1678 -0.0389,-0.1935"/><polyline points="-0.0418,-0.1935 -0.0360,-0.1935"/></g><g stroke-width="0.0015" stroke="rgb(5%, 5%, 5%)" stroke-opacity="1.0" fill="none"><polyline points="-0.0127,-0.1243 -0.0069,-0.1243"/><polyline points="-0.0098,-0.1243 -0.0098,-0.1405"/><polyline points="-0.0127,-0.1405 -0.0069,-0.1405"/></g><g stroke-width="0.0015" stroke="rgb(5%, 5%, 5%)" stroke-opacity="1.0" fill="none"><polyline points="0.0164,-0.1724 0.0222,-0.1724"/><polyline points="0.0193,-0.1724 0.0193,-0.1905"/><polyline points="0.0164,-0.1905 0.0222,-0.1905"/></g><g stroke-width="0.0015" stroke="rgb(5%, 5%, 5%)" stroke-opacity="1.0" fill="none"><polyline points="0.0455,-0.1151 0.0513,-0.1151"/><polyline points="0.0484,-0.1151 0.0484,-0.1303"/><polyline points="0.0455,-0.1303 0.0513,-0.1303"/></g><g stroke-width="0.0015" stroke="rgb(5%, 5%, 5%)" stroke-opacity="1.0" fill="none"><polyline points="0.0746,-0.1677 0.0804,-0.1677"/><polyline points="0.0775,-0.1677 0.0775,-0.1904"/><polyline points="0.0746,-0.1904 0.0804,-0.1904"/></g><g stroke-width="0.0015" stroke="rgb(5%, 5%, 5%)" stroke-opacity="1.0" fill="none"><polyline points="0.1037,-0.1176 0.1095,-0.1176"/><polyline points="0.1066,-0.1176 0.1066,-0.1244"/><polyline points="0.1037,-0.1244 0.1095,-0.1244"/></g><g stroke-width="0.0015" stroke="rgb(5%, 5%, 5%)" stroke-opacity="1.0" fill="none"><polyline points="0.1328,-0.2038 0.1386,-0.2038"/><polyline points="0.1357,-0.2038 0.1357,-0.2228"/><polyline points="0.1328,-0.2228 0.1386,-0.2228"/></g><g stroke-width="0.0015" stroke="rgb(5%, 5%, 5%)" stroke-opacity="1.0" fill="none"><polyline points="0.1619,-0.1218 0.1677,-0.1218"/><polyline points="0.1648,-0.1218 0.1648,-0.1389"/><polyline points="0.1619,-0.1389 0.1677,-0.1389"/></g><g stroke-width="0.0015" stroke="rgb(5%, 5%, 5%)" stroke-opacity="1.0" fill="none"><polyline points="0.1910,-0.1744 0.1968,-0.1744"/><polyline points="0.1939,-0.1744 0.1939,-0.1883"/><polyline points="0.1910,-0.1883 0.1968,-0.1883"/></g><g stroke-width="0.0015" stroke="rgb(5%, 5%, 5%)" stroke-opacity="1.0" fill="none"><polyline points="0.2201,-0.1206 0.2260,-0.1206"/><polyline points="0.2230,-0.1206 0.2230,-0.1360"/><polyline points="0.2201,-0.1360 0.2260,-0.1360"/></g><g stroke-width="0.0015" stroke="rgb(5%, 5%, 5%)" stroke-opacity="1.0" fill="none"><polyline points="0.2492,-0.1745 0.2551,-0.1745"/><polyline points="0.2522,-0.1745 0.2522,-0.1913"/><polyline points="0.2492,-0.1913 0.2551,-0.1913"/></g><g stroke-width="0.0015" stroke="rgb(5%, 5%, 5%)" stroke-opacity="1.0" fill="none"><polyline points="0.2783,-0.1156 0.2842,-0.1156"/><polyline points="0.2813,-0.1156 0.2813,-0.1312"/><polyline points="0.2783,-0.1312 0.2842,-0.1312"/></g><g stroke-width="0.0015" stroke="rgb(5%, 5%, 5%)" stroke-opacity="1.0" fill="none"><polyline points="0.3075,-0.1639 0.3133,-0.1639"/><polyline points="0.3104,-0.1639 0.3104,-0.1907"/><polyline points="0.3075,-0.1907 0.3133,-0.1907"/></g><g stroke-width="0.0015" stroke="rgb(5%, 5%, 5%)" stroke-opacity="1.0" fill="none"><polyline points="0.3366,-0.2933 0.3424,-0.2933"/><polyline points="0.3395,-0.2933 0.3395,-0.3369"/><polyline points="0.3366,-0.3369 0.3424,-0.3369"/></g><g stroke-width="0.0015" stroke="rgb(5%, 5%, 5%)" stroke-opacity="1.0" fill="none"><polyline points="0.3657,-0.3016 0.3715,-0.3016"/><polyline points="0.3686,-0.3016 0.3686,-0.3340"/><polyline points="0.3657,-0.3340 0.3715,-0.3340"/></g></g><g class="datapadding"></g></g><g class="hud"><g class="axis"><g class="axisbar"><g stroke-width="0" stroke="rgb(0%, 0%, 0%)" stroke-opacity="0" fill="rgb(5%, 5%, 5%)" fill-opacity="0.4"><rect width="0.7587" height="0.0015" x="-0.3746" y="0.0365"/></g></g><g class="ticks"><g class="tickglyph"><g stroke-width="0.0015" stroke="rgb(5%, 5%, 5%)" stroke-opacity="0.4" fill="rgb(5%, 5%, 5%)" fill-opacity="0.4"><polyline points="-0.3591,0.0488
-0.3591,0.0373"/><polyline points="-0.3300,0.0488
-0.3300,0.0373"/><polyline points="-0.3009,0.0488
-0.3009,0.0373"/><polyline points="-0.2718,0.0488
-0.2718,0.0373"/><polyline points="-0.2427,0.0488
-0.2427,0.0373"/><polyline points="-0.2136,0.0488
-0.2136,0.0373"/><polyline points="-0.1845,0.0488
-0.1845,0.0373"/><polyline points="-0.1554,0.0488
-0.1554,0.0373"/><polyline points="-0.1262,0.0488
-0.1262,0.0373"/><polyline points="-0.0971,0.0488
-0.0971,0.0373"/><polyline points="-0.0680,0.0488
-0.0680,0.0373"/><polyline points="-0.0389,0.0488
-0.0389,0.0373"/><polyline points="-0.0098,0.0488
-0.0098,0.0373"/><polyline points="0.0193,0.0488
0.0193,0.0373"/><polyline points="0.0484,0.0488
0.0484,0.0373"/><polyline points="0.0775,0.0488
0.0775,0.0373"/><polyline points="0.1066,0.0488
0.1066,0.0373"/><polyline points="0.1357,0.0488
0.1357,0.0373"/><polyline points="0.1648,0.0488
0.1648,0.0373"/><polyline points="0.1939,0.0488
0.1939,0.0373"/><polyline points="0.2230,0.0488
0.2230,0.0373"/><polyline points="0.2522,0.0488
0.2522,0.0373"/><polyline points="0.2813,0.0488
0.2813,0.0373"/><polyline points="0.3104,0.0488
0.3104,0.0373"/><polyline points="0.3395,0.0488
0.3395,0.0373"/><polyline points="0.3686,0.0488
0.3686,0.0373"/></g></g><g class="ticktext"><g stroke-width="0.0" stroke="none" fill="rgb(5%, 5%, 5%)" fill-opacity="1.0" font-size="0.0400" text-anchor="end"><text x="-0.3591" y="0.0698" transform="rotate(-45.0, -0.3591, 0.0698)">CDCL (adaptive)</text><text x="-0.3300" y="0.0698" transform="rotate(-45.0, -0.3300, 0.0698)">CDCL (adaptive), Baseline</text><text x="-0.3009" y="0.0698" transform="rotate(-45.0, -0.3009, 0.0698)">CDCL (adaptive, mVISDS, ExpRestart(100, 2))</text><text x="-0.2718" y="0.0698" transform="rotate(-45.0, -0.2718, 0.0698)">CDCL (adaptive, mVISDS, ExpRestart(100, 2)), Baseline</text><text x="-0.2427" y="0.0698" transform="rotate(-45.0, -0.2427, 0.0698)">CDCL (adaptive, mVISDS, LubyRestart(100, 2))</text><text x="-0.2136" y="0.0698" transform="rotate(-45.0, -0.2136, 0.0698)">CDCL (adaptive, mVISDS, LubyRestart(100, 2)), Baseline</text><text x="-0.1845" y="0.0698" transform="rotate(-45.0, -0.1845, 0.0698)">CDCL (adaptive, mVSIDS)</text><text x="-0.1554" y="0.0698" transform="rotate(-45.0, -0.1554, 0.0698)">CDCL (adaptive, mVSIDS), Baseline</text><text x="-0.1262" y="0.0698" transform="rotate(-45.0, -0.1262, 0.0698)">CDCL (α = 0.75)</text><text x="-0.0971" y="0.0698" transform="rotate(-45.0, -0.0971, 0.0698)">CDCL (α = 0.75), Baseline</text><text x="-0.0680" y="0.0698" transform="rotate(-45.0, -0.0680, 0.0698)">CDCL (α = 0.75, mVISDS)</text><text x="-0.0389" y="0.0698" transform="rotate(-45.0, -0.0389, 0.0698)">CDCL (α = 0.75, mVISDS), Baseline</text><text x="-0.0098" y="0.0698" transform="rotate(-45.0, -0.0098, 0.0698)">CDCL (α = 0.75, mVISDS, ExpRestart(100, 2))</text><text x="0.0193" y="0.0698" transform="rotate(-45.0, 0.0193, 0.0698)">CDCL (α = 0.75, mVISDS, ExpRestart(100, 2)), Baseline</text><text x="0.0484" y="0.0698" transform="rotate(-45.0, 0.0484, 0.0698)">CDCL (α = 0.75, mVISDS, LubyRestart(100, 2))</text><text x="0.0775" y="0.0698" transform="rotate(-45.0, 0.0775, 0.0698)">CDCL (α = 0.75, mVISDS, LubyRestart(100, 2)), Baseline</text><text x="0.1066" y="0.0698" transform="rotate(-45.0, 0.1066, 0.0698)">CDCL (α = 0.95)</text><text x="0.1357" y="0.0698" transform="rotate(-45.0, 0.1357, 0.0698)">CDCL (α = 0.95), Baseline</text><text x="0.1648" y="0.0698" transform="rotate(-45.0, 0.1648, 0.0698)">CDCL (α = 0.95, mVISDS)</text><text x="0.1939" y="0.0698" transform="rotate(-45.0, 0.1939, 0.0698)">CDCL (α = 0.95, mVISDS), Baseline</text><text x="0.2230" y="0.0698" transform="rotate(-45.0, 0.2230, 0.0698)">CDCL (α = 0.95, mVISDS, ExpRestart(100, 2))</text><text x="0.2522" y="0.0698" transform="rotate(-45.0, 0.2522, 0.0698)">CDCL (α = 0.95, mVISDS, ExpRestart(100, 2)), Baseline</text><text x="0.2813" y="0.0698" transform="rotate(-45.0, 0.2813, 0.0698)">CDCL (α = 0.95, mVISDS, LubyRestart(100, 2))</text><text x="0.3104" y="0.0698" transform="rotate(-45.0, 0.3104, 0.0698)">CDCL (α = 0.95, mVISDS, LubyRestart(100, 2)), Baseline</text><text x="0.3395" y="0.0698" transform="rotate(-45.0, 0.3395, 0.0698)">DPLL</text><text x="0.3686" y="0.0698" transform="rotate(-45.0, 0.3686, 0.0698)">DPLL, Baseline</text></g></g></g></g><g class="axis"><g class="axisbar"><g stroke-width="0" stroke="rgb(0%, 0%, 0%)" stroke-opacity="0" fill="rgb(5%, 5%, 5%)" fill-opacity="0.4"><rect width="0.0019" height="0.3840" x="-0.3802" y="-0.3505"/></g></g><g class="ticks"><g class="ticklines"><g stroke-width="0.0050" stroke="rgb(5%, 5%, 5%)" stroke-opacity="0.05" fill="none"><polyline points="-0.3737,0.0327 0.3831,0.0327"/><polyline points="-0.3737,-0.0310 0.3831,-0.0310"/><polyline points="-0.3737,-0.0948 0.3831,-0.0948"/><polyline points="-0.3737,-0.1585 0.3831,-0.1585"/><polyline points="-0.3737,-0.2222 0.3831,-0.2222"/><polyline points="-0.3737,-0.2860 0.3831,-0.2860"/><polyline points="-0.3737,-0.3497 0.3831,-0.3497"/></g></g><g class="tickglyph"><g stroke-width="0.0019" stroke="rgb(5%, 5%, 5%)" stroke-opacity="0.4" fill="rgb(5%, 5%, 5%)" fill-opacity="0.4"><polyline points="-0.3933,0.0327
-0.3793,0.0327"/><polyline points="-0.3933,-0.0310
-0.3793,-0.0310"/><polyline points="-0.3933,-0.0948
-0.3793,-0.0948"/><polyline points="-0.3933,-0.1585
-0.3793,-0.1585"/><polyline points="-0.3933,-0.2222
-0.3793,-0.2222"/><polyline points="-0.3933,-0.2860
-0.3793,-0.2860"/><polyline points="-0.3933,-0.3497
-0.3793,-0.3497"/></g></g><g class="ticktext"><g stroke-width="0.0" stroke="none" fill="rgb(5%, 5%, 5%)" fill-opacity="1.0" font-size="0.0400" text-anchor="end"><text x="-0.4036" y="0.0369">-0.6</text><text x="-0.4036" y="-0.0268">-0.4</text><text x="-0.4036" y="-0.0906">-0.2</text><text x="-0.4036" y="-0.1543"> 0.0</text><text x="-0.4036" y="-0.2180"> 0.2</text><text x="-0.4036" y="-0.2818"> 0.4</text><text x="-0.4036" y="-0.3455"> 0.6</text></g></g></g></g><g class="title"><g stroke-width="0.0" stroke="none" fill="rgb(5%, 5%, 5%)" fill-opacity="1.0" font-size="0.12" text-anchor="middle"><text x="-0.1595" y="-0.3868">Time: SATLIB/uf20-91/uf20-060/cnf</text></g></g><g class="legend"><g class="padding"></g><g class="padding"></g><g class="frame"><g stroke-width="0.0004" stroke="rgb(5%, 5%, 5%)" stroke-opacity="1.0" fill="rgb(5%, 5%, 5%)" fill-opacity="0"><rect width="0.4819" height="0.7036" x="0.2318" y="-0.3191"/></g></g><g class="legendContent"><g stroke-width="0.0001" stroke="rgb(46%, 28%, 12%)" stroke-opacity="1.0" fill="rgb(46%, 28%, 12%)" fill-opacity="0.25"><rect width="0.0246" height="0.0201" x="0.6810" y="0.3577"/></g><g stroke-width="0.0" stroke="none" fill="rgb(5%, 5%, 5%)" fill-opacity="1.0" font-size="0.0131" text-anchor="start"><text x="0.2400" y="0.3704">DPLL, Baseline</text></g><g stroke-width="0" stroke="rgb(2%, 29%, 48%)" stroke-opacity="1.0" fill="rgb(46%, 28%, 12%)" fill-opacity="1.0"><rect width="0.0246" height="0.0201" x="0.6809" y="0.3309"/></g><g stroke-width="0.0" stroke="none" fill="rgb(5%, 5%, 5%)" fill-opacity="1.0" font-size="0.0131" text-anchor="start"><text x="0.2400" y="0.3436">DPLL</text></g><g stroke-width="0.0001" stroke="rgb(24%, 33%, 6%)" stroke-opacity="1.0" fill="rgb(24%, 33%, 6%)" fill-opacity="0.25"><rect width="0.0246" height="0.0201" x="0.6810" y="0.3041"/></g><g stroke-width="0.0" stroke="none" fill="rgb(5%, 5%, 5%)" fill-opacity="1.0" font-size="0.0131" text-anchor="start"><text x="0.2400" y="0.3168">CDCL (α = 0.95, mVISDS, LubyRestart(100, 2)), Baseline</text></g><g stroke-width="0" stroke="rgb(2%, 29%, 48%)" stroke-opacity="1.0" fill="rgb(24%, 33%, 6%)" fill-opacity="1.0"><rect width="0.0246" height="0.0201" x="0.6809" y="0.2773"/></g><g stroke-width="0.0" stroke="none" fill="rgb(5%, 5%, 5%)" fill-opacity="1.0" font-size="0.0131" text-anchor="start"><text x="0.2400" y="0.2900">CDCL (α = 0.95, mVISDS, LubyRestart(100, 2))</text></g><g stroke-width="0.0001" stroke="rgb(50%, 0%, 19%)" stroke-opacity="1.0" fill="rgb(50%, 0%, 19%)" fill-opacity="0.25"><rect width="0.0246" height="0.0201" x="0.6810" y="0.2505"/></g><g stroke-width="0.0" stroke="none" fill="rgb(5%, 5%, 5%)" fill-opacity="1.0" font-size="0.0131" text-anchor="start"><text x="0.2400" y="0.2632">CDCL (α = 0.95, mVISDS, ExpRestart(100, 2)), Baseline</text></g><g stroke-width="0" stroke="rgb(2%, 29%, 48%)" stroke-opacity="1.0" fill="rgb(50%, 0%, 19%)" fill-opacity="1.0"><rect width="0.0246" height="0.0201" x="0.6809" y="0.2237"/></g><g stroke-width="0.0" stroke="none" fill="rgb(5%, 5%, 5%)" fill-opacity="1.0" font-size="0.0131" text-anchor="start"><text x="0.2400" y="0.2364">CDCL (α = 0.95, mVISDS, ExpRestart(100, 2))</text></g><g stroke-width="0.0001" stroke="rgb(9%, 20%, 33%)" stroke-opacity="1.0" fill="rgb(9%, 20%, 33%)" fill-opacity="0.25"><rect width="0.0246" height="0.0201" x="0.6810" y="0.1969"/></g><g stroke-width="0.0" stroke="none" fill="rgb(5%, 5%, 5%)" fill-opacity="1.0" font-size="0.0131" text-anchor="start"><text x="0.2400" y="0.2096">CDCL (α = 0.95, mVISDS), Baseline</text></g><g stroke-width="0" stroke="rgb(2%, 29%, 48%)" stroke-opacity="1.0" fill="rgb(9%, 20%, 33%)" fill-opacity="1.0"><rect width="0.0246" height="0.0201" x="0.6809" y="0.1701"/></g><g stroke-width="0.0" stroke="none" fill="rgb(5%, 5%, 5%)" fill-opacity="1.0" font-size="0.0131" text-anchor="start"><text x="0.2400" y="0.1828">CDCL (α = 0.95, mVISDS)</text></g><g stroke-width="0.0001" stroke="rgb(0%, 37%, 27%)" stroke-opacity="1.0" fill="rgb(0%, 37%, 27%)" fill-opacity="0.25"><rect width="0.0246" height="0.0201" x="0.6810" y="0.1433"/></g><g stroke-width="0.0" stroke="none" fill="rgb(5%, 5%, 5%)" fill-opacity="1.0" font-size="0.0131" text-anchor="start"><text x="0.2400" y="0.1560">CDCL (α = 0.95), Baseline</text></g><g stroke-width="0" stroke="rgb(2%, 29%, 48%)" stroke-opacity="1.0" fill="rgb(0%, 37%, 27%)" fill-opacity="1.0"><rect width="0.0246" height="0.0201" x="0.6809" y="0.1165"/></g><g stroke-width="0.0" stroke="none" fill="rgb(5%, 5%, 5%)" fill-opacity="1.0" font-size="0.0131" text-anchor="start"><text x="0.2400" y="0.1292">CDCL (α = 0.95)</text></g><g stroke-width="0.0001" stroke="rgb(67%, 62%, 0%)" stroke-opacity="1.0" fill="rgb(67%, 62%, 0%)" fill-opacity="0.25"><rect width="0.0246" height="0.0201" x="0.6810" y="0.0897"/></g><g stroke-width="0.0" stroke="none" fill="rgb(5%, 5%, 5%)" fill-opacity="1.0" font-size="0.0131" text-anchor="start"><text x="0.2400" y="0.1024">CDCL (α = 0.75, mVISDS, LubyRestart(100, 2)), Baseline</text></g><g stroke-width="0" stroke="rgb(2%, 29%, 48%)" stroke-opacity="1.0" fill="rgb(67%, 62%, 0%)" fill-opacity="1.0"><rect width="0.0246" height="0.0201" x="0.6809" y="0.0629"/></g><g stroke-width="0.0" stroke="none" fill="rgb(5%, 5%, 5%)" fill-opacity="1.0" font-size="0.0131" text-anchor="start"><text x="0.2400" y="0.0756">CDCL (α = 0.75, mVISDS, LubyRestart(100, 2))</text></g><g stroke-width="0.0001" stroke="rgb(0%, 64%, 70%)" stroke-opacity="1.0" fill="rgb(0%, 64%, 70%)" fill-opacity="0.25"><rect width="0.0246" height="0.0201" x="0.6810" y="0.0361"/></g><g stroke-width="0.0" stroke="none" fill="rgb(5%, 5%, 5%)" fill-opacity="1.0" font-size="0.0131" text-anchor="start"><text x="0.2400" y="0.0488">CDCL (α = 0.75, mVISDS, ExpRestart(100, 2)), Baseline</text></g><g stroke-width="0" stroke="rgb(2%, 29%, 48%)" stroke-opacity="1.0" fill="rgb(0%, 64%, 70%)" fill-opacity="1.0"><rect width="0.0246" height="0.0201" x="0.6809" y="0.0093"/></g><g stroke-width="0.0" stroke="none" fill="rgb(5%, 5%, 5%)" fill-opacity="1.0" font-size="0.0131" text-anchor="start"><text x="0.2400" y="0.0220">CDCL (α = 0.75, mVISDS, ExpRestart(100, 2))</text></g><g stroke-width="0.0001" stroke="rgb(16%, 61%, 0%)" stroke-opacity="1.0" fill="rgb(16%, 61%, 0%)" fill-opacity="0.25"><rect width="0.0246" height="0.0201" x="0.6810" y="-0.0175"/></g><g stroke-width="0.0" stroke="none" fill="rgb(5%, 5%, 5%)" fill-opacity="1.0" font-size="0.0131" text-anchor="start"><text x="0.2400" y="-0.0048">CDCL (α = 0.75, mVISDS), Baseline</text></g><g stroke-width="0" stroke="rgb(2%, 29%, 48%)" stroke-opacity="1.0" fill="rgb(16%, 61%, 0%)" fill-opacity="1.0"><rect width="0.0246" height="0.0201" x="0.6809" y="-0.0443"/></g><g stroke-width="0.0" stroke="none" fill="rgb(5%, 5%, 5%)" fill-opacity="1.0" font-size="0.0131" text-anchor="start"><text x="0.2400" y="-0.0316">CDCL (α = 0.75, mVISDS)</text></g><g stroke-width="0.0001" stroke="rgb(34%, 34%, 0%)" stroke-opacity="1.0" fill="rgb(34%, 34%, 0%)" fill-opacity="0.25"><rect width="0.0246" height="0.0201" x="0.6810" y="-0.0711"/></g><g stroke-width="0.0" stroke="none" fill="rgb(5%, 5%, 5%)" fill-opacity="1.0" font-size="0.0131" text-anchor="start"><text x="0.2400" y="-0.0584">CDCL (α = 0.75), Baseline</text></g><g stroke-width="0" stroke="rgb(2%, 29%, 48%)" stroke-opacity="1.0" fill="rgb(34%, 34%, 0%)" fill-opacity="1.0"><rect width="0.0246" height="0.0201" x="0.6809" y="-0.0980"/></g><g stroke-width="0.0" stroke="none" fill="rgb(5%, 5%, 5%)" fill-opacity="1.0" font-size="0.0131" text-anchor="start"><text x="0.2400" y="-0.0852">CDCL (α = 0.75)</text></g><g stroke-width="0.0001" stroke="rgb(90%, 37%, 58%)" stroke-opacity="1.0" fill="rgb(90%, 37%, 58%)" fill-opacity="0.25"><rect width="0.0246" height="0.0201" x="0.6810" y="-0.1248"/></g><g stroke-width="0.0" stroke="none" fill="rgb(5%, 5%, 5%)" fill-opacity="1.0" font-size="0.0131" text-anchor="start"><text x="0.2400" y="-0.1120">CDCL (adaptive, mVSIDS), Baseline</text></g><g stroke-width="0" stroke="rgb(2%, 29%, 48%)" stroke-opacity="1.0" fill="rgb(90%, 37%, 58%)" fill-opacity="1.0"><rect width="0.0246" height="0.0201" x="0.6809" y="-0.1516"/></g><g stroke-width="0.0" stroke="none" fill="rgb(5%, 5%, 5%)" fill-opacity="1.0" font-size="0.0131" text-anchor="start"><text x="0.2400" y="-0.1388">CDCL (adaptive, mVSIDS)</text></g><g stroke-width="0.0001" stroke="rgb(0%, 72%, 98%)" stroke-opacity="1.0" fill="rgb(0%, 72%, 98%)" fill-opacity="0.25"><rect width="0.0246" height="0.0201" x="0.6810" y="-0.1784"/></g><g stroke-width="0.0" stroke="none" fill="rgb(5%, 5%, 5%)" fill-opacity="1.0" font-size="0.0131" text-anchor="start"><text x="0.2400" y="-0.1656">CDCL (adaptive, mVISDS, LubyRestart(100, 2)), Baseline</text></g><g stroke-width="0" stroke="rgb(2%, 29%, 48%)" stroke-opacity="1.0" fill="rgb(0%, 72%, 98%)" fill-opacity="1.0"><rect width="0.0246" height="0.0201" x="0.6809" y="-0.2052"/></g><g stroke-width="0.0" stroke="none" fill="rgb(5%, 5%, 5%)" fill-opacity="1.0" font-size="0.0131" text-anchor="start"><text x="0.2400" y="-0.1924">CDCL (adaptive, mVISDS, LubyRestart(100, 2))</text></g><g stroke-width="0.0001" stroke="rgb(0%, 35%, 53%)" stroke-opacity="1.0" fill="rgb(0%, 35%, 53%)" fill-opacity="0.25"><rect width="0.0246" height="0.0201" x="0.6810" y="-0.2320"/></g><g stroke-width="0.0" stroke="none" fill="rgb(5%, 5%, 5%)" fill-opacity="1.0" font-size="0.0131" text-anchor="start"><text x="0.2400" y="-0.2193">CDCL (adaptive, mVISDS, ExpRestart(100, 2)), Baseline</text></g><g stroke-width="0" stroke="rgb(2%, 29%, 48%)" stroke-opacity="1.0" fill="rgb(0%, 35%, 53%)" fill-opacity="1.0"><rect width="0.0246" height="0.0201" x="0.6809" y="-0.2588"/></g><g stroke-width="0.0" stroke="none" fill="rgb(5%, 5%, 5%)" fill-opacity="1.0" font-size="0.0131" text-anchor="start"><text x="0.2400" y="-0.2461">CDCL (adaptive, mVISDS, ExpRestart(100, 2))</text></g><g stroke-width="0.0001" stroke="rgb(0%, 57%, 62%)" stroke-opacity="1.0" fill="rgb(0%, 57%, 62%)" fill-opacity="0.25"><rect width="0.0246" height="0.0201" x="0.6810" y="-0.2856"/></g><g stroke-width="0.0" stroke="none" fill="rgb(5%, 5%, 5%)" fill-opacity="1.0" font-size="0.0131" text-anchor="start"><text x="0.2400" y="-0.2729">CDCL (adaptive), Baseline</text></g><g stroke-width="0" stroke="rgb(2%, 29%, 48%)" stroke-opacity="1.0" fill="rgb(0%, 57%, 62%)" fill-opacity="1.0"><rect width="0.0246" height="0.0201" x="0.6809" y="-0.3124"/></g><g stroke-width="0.0" stroke="none" fill="rgb(5%, 5%, 5%)" fill-opacity="1.0" font-size="0.0131" text-anchor="start"><text x="0.2400" y="-0.2997">CDCL (adaptive)</text></g></g></g><g class="frame"><g stroke-width="0" stroke="rgb(0%, 0%, 0%)" stroke-opacity="0" fill="rgb(100%, 100%, 100%)" fill-opacity="0.02"><rect width="1.6180" height="1.0" x="-0.8090" y="-0.5"/></g></g><g class="title"><g stroke-width="0.0" stroke="none" fill="rgb(5%, 5%, 5%)" fill-opacity="1.0" font-size="0.0600" text-anchor="middle"><text x="-0.7426" y="0" transform="rotate(-90.0, -0.7426, 0)">Time [ms]</text></g></g></g></svg>