<svg xmlns="http://www.w3.org/2000/svg" xmlns:xlink="http://www.w3.org/1999/xlink" width="447" height="300" viewBox="-0.8090 -0.5000 1.6180 1.0856"><style>svg {
  color-scheme: light dark;
}
{
  .canvas g, .title g, .axisbar g, .ticktext g, .tickglyph g, .ticklines g, .legendContent g text {
    fill: rgb(5%, 5%, 5%);
  }
  .ticklines g, .tickglyph g, .legendBorder g {
    stroke: rgb(5%, 5%, 5%);
  }
  .legendBorder g {
    fill: rgb(94%, 94%, 94%);
  }
}
@media (prefers-color-scheme:dark) {
  .canvas g, .title g, .axisbar g, .ticktext g, .tickglyph g, .ticklines g, .legendContent g text {
    fill: rgb(94%, 94%, 94%);
  }
  .ticklines g, .tickglyph g, .legendBorder g {
    stroke: rgb(94%, 94%, 94%);
  }
  .legendBorder g {
    fill: rgb(5%, 5%, 5%);
  }
}</style><g class="chart"><g class="barchart"><g stroke-width="0" stroke="rgb(2%, 29%, 48%)" stroke-opacity="1.0" fill="rgb(57%, 0%, 21%)" fill-opacity="1.0"><rect width="0.0212" height="0.0258" x="-0.4315" y="0.0995"/></g><g stroke-width="0.0010" stroke="rgb(57%, 0%, 21%)" stroke-opacity="1.0" fill="rgb(57%, 0%, 21%)" fill-opacity="0.25"><rect width="0.0212" height="0.0106" x="-0.4104" y="0.1148"/></g><g stroke-width="0" stroke="rgb(2%, 29%, 48%)" stroke-opacity="1.0" fill="rgb(47%, 34%, 0%)" fill-opacity="1.0"><rect width="0.0212" height="0.1222" x="-0.3892" y="0.0032"/></g><g stroke-width="0.0010" stroke="rgb(47%, 34%, 0%)" stroke-opacity="1.0" fill="rgb(47%, 34%, 0%)" fill-opacity="0.25"><rect width="0.0212" height="0.0552" x="-0.3681" y="0.0702"/></g><g stroke-width="0" stroke="rgb(2%, 29%, 48%)" stroke-opacity="1.0" fill="rgb(0%, 36%, 0%)" fill-opacity="1.0"><rect width="0.0212" height="0.1214" x="-0.3469" y="0.0040"/></g><g stroke-width="0.0010" stroke="rgb(0%, 36%, 0%)" stroke-opacity="1.0" fill="rgb(0%, 36%, 0%)" fill-opacity="0.25"><rect width="0.0212" height="0.0547" x="-0.3257" y="0.0707"/></g><g stroke-width="0" stroke="rgb(2%, 29%, 48%)" stroke-opacity="1.0" fill="rgb(72%, 66%, 0%)" fill-opacity="1.0"><rect width="0.0212" height="0.0363" x="-0.3046" y="0.0891"/></g><g stroke-width="0.0010" stroke="rgb(72%, 66%, 0%)" stroke-opacity="1.0" fill="rgb(72%, 66%, 0%)" fill-opacity="0.25"><rect width="0.0212" height="0.0152" x="-0.2834" y="0.1101"/></g><g stroke-width="0" stroke="rgb(2%, 29%, 48%)" stroke-opacity="1.0" fill="rgb(37%, 17%, 0%)" fill-opacity="1.0"><rect width="0.0212" height="0.0363" x="-0.2623" y="0.0891"/></g><g stroke-width="0" stroke="rgb(2%, 29%, 48%)" stroke-opacity="1.0" fill="rgb(20%, 15%, 40%)" fill-opacity="1.0"><rect width="0.0212" height="0.0516" x="-0.2411" y="0.0738"/></g><g stroke-width="0.0010" stroke="rgb(20%, 15%, 40%)" stroke-opacity="1.0" fill="rgb(20%, 15%, 40%)" fill-opacity="0.25"><rect width="0.0212" height="0.0224" x="-0.2199" y="0.1030"/></g><g stroke-width="0" stroke="rgb(2%, 29%, 48%)" stroke-opacity="1.0" fill="rgb(48%, 65%, 0%)" fill-opacity="1.0"><rect width="0.0212" height="0.0446" x="-0.1988" y="0.0808"/></g><g stroke-width="0.0010" stroke="rgb(48%, 65%, 0%)" stroke-opacity="1.0" fill="rgb(48%, 65%, 0%)" fill-opacity="0.25"><rect width="0.0212" height="0.0195" x="-0.1776" y="0.1059"/></g><g stroke-width="0" stroke="rgb(2%, 29%, 48%)" stroke-opacity="1.0" fill="rgb(35%, 24%, 0%)" fill-opacity="1.0"><rect width="0.0212" height="0.0457" x="-0.1565" y="0.0797"/></g><g stroke-width="0" stroke="rgb(2%, 29%, 48%)" stroke-opacity="1.0" fill="rgb(0%, 72%, 67%)" fill-opacity="1.0"><rect width="0.0212" height="0.2711" x="-0.1353" y="-0.1457"/></g><g stroke-width="0.0010" stroke="rgb(0%, 72%, 67%)" stroke-opacity="1.0" fill="rgb(0%, 72%, 67%)" fill-opacity="0.25"><rect width="0.0212" height="0.1309" x="-0.1141" y="-0.0056"/></g><g stroke-width="0" stroke="rgb(2%, 29%, 48%)" stroke-opacity="1.0" fill="rgb(57%, 62%, 78%)" fill-opacity="1.0"><rect width="0.0212" height="0.2723" x="-0.0930" y="-0.1469"/></g><g stroke-width="0.0010" stroke="rgb(57%, 62%, 78%)" stroke-opacity="1.0" fill="rgb(57%, 62%, 78%)" fill-opacity="0.25"><rect width="0.0212" height="0.1280" x="-0.0718" y="-0.0026"/></g><g stroke-width="0" stroke="rgb(2%, 29%, 48%)" stroke-opacity="1.0" fill="rgb(69%, 17%, 0%)" fill-opacity="1.0"><rect width="0.0212" height="0.0272" x="-0.0507" y="0.0982"/></g><g stroke-width="0.0010" stroke="rgb(69%, 17%, 0%)" stroke-opacity="1.0" fill="rgb(69%, 17%, 0%)" fill-opacity="0.25"><rect width="0.0212" height="0.0109" x="-0.0295" y="0.1145"/></g><g stroke-width="0" stroke="rgb(2%, 29%, 48%)" stroke-opacity="1.0" fill="rgb(0%, 42%, 48%)" fill-opacity="1.0"><rect width="0.0212" height="0.0493" x="-0.0083" y="0.0761"/></g><g stroke-width="0.0010" stroke="rgb(0%, 42%, 48%)" stroke-opacity="1.0" fill="rgb(0%, 42%, 48%)" fill-opacity="0.25"><rect width="0.0212" height="0.0207" x="0.0128" y="0.1047"/></g><g stroke-width="0" stroke="rgb(2%, 29%, 48%)" stroke-opacity="1.0" fill="rgb(18%, 22%, 10%)" fill-opacity="1.0"><rect width="0.0212" height="0.0491" x="0.0340" y="0.0763"/></g><g stroke-width="0" stroke="rgb(2%, 29%, 48%)" stroke-opacity="1.0" fill="rgb(42%, 44%, 14%)" fill-opacity="1.0"><rect width="0.0212" height="0.0648" x="0.0551" y="0.0606"/></g><g stroke-width="0.0010" stroke="rgb(42%, 44%, 14%)" stroke-opacity="1.0" fill="rgb(42%, 44%, 14%)" fill-opacity="0.25"><rect width="0.0212" height="0.0273" x="0.0763" y="0.0981"/></g><g stroke-width="0" stroke="rgb(2%, 29%, 48%)" stroke-opacity="1.0" fill="rgb(54%, 0%, 0%)" fill-opacity="1.0"><rect width="0.0212" height="0.0645" x="0.0975" y="0.0609"/></g><g stroke-width="0" stroke="rgb(2%, 29%, 48%)" stroke-opacity="1.0" fill="rgb(100%, 37%, 0%)" fill-opacity="1.0"><rect width="0.0212" height="0.0658" x="0.1186" y="0.0596"/></g><g stroke-width="0.0010" stroke="rgb(100%, 37%, 0%)" stroke-opacity="1.0" fill="rgb(100%, 37%, 0%)" fill-opacity="0.25"><rect width="0.0212" height="0.0272" x="0.1398" y="0.0982"/></g><g stroke-width="0" stroke="rgb(2%, 29%, 48%)" stroke-opacity="1.0" fill="rgb(0%, 38%, 61%)" fill-opacity="1.0"><rect width="0.0212" height="0.0655" x="0.1610" y="0.0599"/></g></g><g class="errors"></g></g><g class="hud"><g class="axis"><g class="ticks"><g class="tickglyph"><g stroke-width="0.0040" stroke="rgb(5%, 5%, 5%)" stroke-opacity="0.4" fill="rgb(5%, 5%, 5%)" fill-opacity="0.4"><g transform="rotate(-90.0, -0.4783, 0.1254)"><polyline points="-0.4783,0.1404
-0.4783,0.1104"/></g><g transform="rotate(-90.0, -0.4783, 0.0939)"><polyline points="-0.4783,0.1089
-0.4783,0.0789"/></g><g transform="rotate(-90.0, -0.4783, 0.0624)"><polyline points="-0.4783,0.0774
-0.4783,0.0474"/></g><g transform="rotate(-90.0, -0.4783, 0.0310)"><polyline points="-0.4783,0.0460
-0.4783,0.0160"/></g><g transform="rotate(-90.0, -0.4783, -0.0005)"><polyline points="-0.4783,0.0145
-0.4783,-0.0155"/></g><g transform="rotate(-90.0, -0.4783, -0.0320)"><polyline points="-0.4783,-0.0170
-0.4783,-0.0470"/></g><g transform="rotate(-90.0, -0.4783, -0.0634)"><polyline points="-0.4783,-0.0484
-0.4783,-0.0784"/></g><g transform="rotate(-90.0, -0.4783, -0.0949)"><polyline points="-0.4783,-0.0799
-0.4783,-0.1099"/></g><g transform="rotate(-90.0, -0.4783, -0.1263)"><polyline points="-0.4783,-0.1113
-0.4783,-0.1413"/></g><g transform="rotate(-90.0, -0.4783, -0.1578)"><polyline points="-0.4783,-0.1428
-0.4783,-0.1728"/></g></g></g><g class="ticktext"><g stroke-width="0.0" stroke="none" fill="rgb(5%, 5%, 5%)" fill-opacity="1.0" font-size="0.0211" text-anchor="end"><text x="-0.4934" y="0.1293">  0</text><text x="-0.4934" y="0.0978"> 50</text><text x="-0.4934" y="0.0663">100</text><text x="-0.4934" y="0.0349">150</text><text x="-0.4934" y="0.0034">200</text><text x="-0.4934" y="-0.0281">250</text><text x="-0.4934" y="-0.0595">300</text><text x="-0.4934" y="-0.0910">350</text><text x="-0.4934" y="-0.1225">400</text><text x="-0.4934" y="-0.1539">450</text></g></g><g class="ticklines"><g stroke-width="0.0050" stroke="rgb(5%, 5%, 5%)" stroke-opacity="0.05" fill="none"><polyline points="-0.4656,0.1254 0.2162,0.1254"/><polyline points="-0.4656,0.0939 0.2162,0.0939"/><polyline points="-0.4656,0.0624 0.2162,0.0624"/><polyline points="-0.4656,0.0310 0.2162,0.0310"/><polyline points="-0.4656,-0.0005 0.2162,-0.0005"/><polyline points="-0.4656,-0.0320 0.2162,-0.0320"/><polyline points="-0.4656,-0.0634 0.2162,-0.0634"/><polyline points="-0.4656,-0.0949 0.2162,-0.0949"/><polyline points="-0.4656,-0.1263 0.2162,-0.1263"/><polyline points="-0.4656,-0.1578 0.2162,-0.1578"/></g></g></g><g class="axisbar"><g stroke-width="0" stroke="rgb(0%, 0%, 0%)" stroke-opacity="0" fill="rgb(5%, 5%, 5%)" fill-opacity="0.4"><rect width="0.0017" height="0.2843" x="-0.4715" y="-0.1584"/></g></g></g><g class="axis"><g class="ticks"><g class="tickglyph"><g stroke-width="0.0040" stroke="rgb(5%, 5%, 5%)" stroke-opacity="0.4" fill="rgb(5%, 5%, 5%)" fill-opacity="0.4"><polyline points="-0.4210,0.1490
-0.4210,0.1190"/><polyline points="-0.3998,0.1490
-0.3998,0.1190"/><polyline points="-0.3786,0.1490
-0.3786,0.1190"/><polyline points="-0.3575,0.1490
-0.3575,0.1190"/><polyline points="-0.3363,0.1490
-0.3363,0.1190"/><polyline points="-0.3152,0.1490
-0.3152,0.1190"/><polyline points="-0.2940,0.1490
-0.2940,0.1190"/><polyline points="-0.2728,0.1490
-0.2728,0.1190"/><polyline points="-0.2517,0.1490
-0.2517,0.1190"/><polyline points="-0.2305,0.1490
-0.2305,0.1190"/><polyline points="-0.2094,0.1490
-0.2094,0.1190"/><polyline points="-0.1882,0.1490
-0.1882,0.1190"/><polyline points="-0.1670,0.1490
-0.1670,0.1190"/><polyline points="-0.1459,0.1490
-0.1459,0.1190"/><polyline points="-0.1247,0.1490
-0.1247,0.1190"/><polyline points="-0.1036,0.1490
-0.1036,0.1190"/><polyline points="-0.0824,0.1490
-0.0824,0.1190"/><polyline points="-0.0612,0.1490
-0.0612,0.1190"/><polyline points="-0.0401,0.1490
-0.0401,0.1190"/><polyline points="-0.0189,0.1490
-0.0189,0.1190"/><polyline points="0.0022,0.1490
0.0022,0.1190"/><polyline points="0.0234,0.1490
0.0234,0.1190"/><polyline points="0.0446,0.1490
0.0446,0.1190"/><polyline points="0.0657,0.1490
0.0657,0.1190"/><polyline points="0.0869,0.1490
0.0869,0.1190"/><polyline points="0.1080,0.1490
0.1080,0.1190"/><polyline points="0.1292,0.1490
0.1292,0.1190"/><polyline points="0.1504,0.1490
0.1504,0.1190"/><polyline points="0.1715,0.1490
0.1715,0.1190"/></g></g><g class="ticktext"><g stroke-width="0.0" stroke="none" fill="rgb(5%, 5%, 5%)" fill-opacity="1.0" font-size="0.0211" text-anchor="end"><text x="-0.4210" y="0.1520" transform="rotate(-45.0, -0.4210, 0.1520)">CDCL (adaptive)</text><text x="-0.3998" y="0.1520" transform="rotate(-45.0, -0.3998, 0.1520)">CDCL (adaptive), Baseline</text><text x="-0.3786" y="0.1520" transform="rotate(-45.0, -0.3786, 0.1520)">CDCL (adaptive, mVISDS, ExpRestart(100, 2))</text><text x="-0.3575" y="0.1520" transform="rotate(-45.0, -0.3575, 0.1520)">CDCL (adaptive, mVISDS, ExpRestart(100, 2)), Baseline</text><text x="-0.3363" y="0.1520" transform="rotate(-45.0, -0.3363, 0.1520)">CDCL (adaptive, mVISDS, LubyRestart(100, 2))</text><text x="-0.3152" y="0.1520" transform="rotate(-45.0, -0.3152, 0.1520)">CDCL (adaptive, mVISDS, LubyRestart(100, 2)), Baseline</text><text x="-0.2940" y="0.1520" transform="rotate(-45.0, -0.2940, 0.1520)">CDCL (adaptive, mVSIDS)</text><text x="-0.2728" y="0.1520" transform="rotate(-45.0, -0.2728, 0.1520)">CDCL (adaptive, mVSIDS), Baseline</text><text x="-0.2517" y="0.1520" transform="rotate(-45.0, -0.2517, 0.1520)">CDCL (adaptive, mVSIDS, Clause Decay 0.999)</text><text x="-0.2305" y="0.1520" transform="rotate(-45.0, -0.2305, 0.1520)">CDCL (α = 0.75)</text><text x="-0.2094" y="0.1520" transform="rotate(-45.0, -0.2094, 0.1520)">CDCL (α = 0.75), Baseline</text><text x="-0.1882" y="0.1520" transform="rotate(-45.0, -0.1882, 0.1520)">CDCL (α = 0.75, mVISDS)</text><text x="-0.1670" y="0.1520" transform="rotate(-45.0, -0.1670, 0.1520)">CDCL (α = 0.75, mVISDS), Baseline</text><text x="-0.1459" y="0.1520" transform="rotate(-45.0, -0.1459, 0.1520)">CDCL (α = 0.75, mVISDS, Clause Decay 0.999)</text><text x="-0.1247" y="0.1520" transform="rotate(-45.0, -0.1247, 0.1520)">CDCL (α = 0.75, mVISDS, ExpRestart(100, 2))</text><text x="-0.1036" y="0.1520" transform="rotate(-45.0, -0.1036, 0.1520)">CDCL (α = 0.75, mVISDS, ExpRestart(100, 2)), Baseline</text><text x="-0.0824" y="0.1520" transform="rotate(-45.0, -0.0824, 0.1520)">CDCL (α = 0.75, mVISDS, LubyRestart(100, 2))</text><text x="-0.0612" y="0.1520" transform="rotate(-45.0, -0.0612, 0.1520)">CDCL (α = 0.75, mVISDS, LubyRestart(100, 2)), Baseline</text><text x="-0.0401" y="0.1520" transform="rotate(-45.0, -0.0401, 0.1520)">CDCL (α = 0.95)</text><text x="-0.0189" y="0.1520" transform="rotate(-45.0, -0.0189, 0.1520)">CDCL (α = 0.95), Baseline</text><text x="0.0022" y="0.1520" transform="rotate(-45.0, 0.0022, 0.1520)">CDCL (α = 0.95, mVISDS)</text><text x="0.0234" y="0.1520" transform="rotate(-45.0, 0.0234, 0.1520)">CDCL (α = 0.95, mVISDS), Baseline</text><text x="0.0446" y="0.1520" transform="rotate(-45.0, 0.0446, 0.1520)">CDCL (α = 0.95, mVISDS, Clause Decay 0.999)</text><text x="0.0657" y="0.1520" transform="rotate(-45.0, 0.0657, 0.1520)">CDCL (α = 0.95, mVISDS, ExpRestart(100, 2))</text><text x="0.0869" y="0.1520" transform="rotate(-45.0, 0.0869, 0.1520)">CDCL (α = 0.95, mVISDS, ExpRestart(100, 2)), Baseline</text><text x="0.1080" y="0.1520" transform="rotate(-45.0, 0.1080, 0.1520)">CDCL (α = 0.95, mVISDS, ExpRestart(100, 2), Clause Decay 0.999)</text><text x="0.1292" y="0.1520" transform="rotate(-45.0, 0.1292, 0.1520)">CDCL (α = 0.95, mVISDS, LubyRestart(100, 2))</text><text x="0.1504" y="0.1520" transform="rotate(-45.0, 0.1504, 0.1520)">CDCL (α = 0.95, mVISDS, LubyRestart(100, 2)), Baseline</text><text x="0.1715" y="0.1520" transform="rotate(-45.0, 0.1715, 0.1520)">CDCL (α = 0.95, mVISDS, LubyRestart(100, 2), Clause Decay 0.999)</text></g></g></g><g class="axisbar"><g stroke-width="0" stroke="rgb(0%, 0%, 0%)" stroke-opacity="0" fill="rgb(5%, 5%, 5%)" fill-opacity="0.4"><rect width="0.6835" height="0.0011" x="-0.4665" y="0.1284"/></g></g></g><g class="title"><g stroke-width="0.0" stroke="none" fill="rgb(5%, 5%, 5%)" fill-opacity="1.0" font-size="0.0506" text-anchor="middle"><text x="-0.2537" y="-0.1868">Copied: SATLIB/flat200-479/flat200-10/cnf</text></g></g><g class="legend"><g class="legendBorder"><g stroke-width="0.0017" stroke="rgb(5%, 5%, 5%)" stroke-opacity="1.0" fill="rgb(5%, 5%, 5%)" fill-opacity="0"><rect width="0.4340" height="0.5801" x="0.2893" y="-0.4424"/></g></g><g class="legendContent"><g stroke-width="0.0" stroke="none" fill="rgb(5%, 5%, 5%)" fill-opacity="1.0" font-size="0.0133" text-anchor="start"><text x="0.2967" y="0.1276">CDCL (α = 0.95, mVISDS, LubyRestart(100, 2), Clause Decay 0.999)</text></g><g stroke-width="0" stroke="rgb(2%, 29%, 48%)" stroke-opacity="1.0" fill="rgb(0%, 38%, 61%)" fill-opacity="1.0"><rect width="0.0221" height="0.0149" x="0.6937" y="0.1179"/></g><g stroke-width="0.0" stroke="none" fill="rgb(5%, 5%, 5%)" fill-opacity="1.0" font-size="0.0133" text-anchor="start"><text x="0.2967" y="0.1078">CDCL (α = 0.95, mVISDS, LubyRestart(100, 2)), Baseline</text></g><g stroke-width="0.0002" stroke="rgb(100%, 37%, 0%)" stroke-opacity="1.0" fill="rgb(100%, 37%, 0%)" fill-opacity="0.25"><rect width="0.0221" height="0.0149" x="0.6937" y="0.0981"/></g><g stroke-width="0.0" stroke="none" fill="rgb(5%, 5%, 5%)" fill-opacity="1.0" font-size="0.0133" text-anchor="start"><text x="0.2967" y="0.0879">CDCL (α = 0.95, mVISDS, LubyRestart(100, 2))</text></g><g stroke-width="0" stroke="rgb(2%, 29%, 48%)" stroke-opacity="1.0" fill="rgb(100%, 37%, 0%)" fill-opacity="1.0"><rect width="0.0221" height="0.0149" x="0.6937" y="0.0783"/></g><g stroke-width="0.0" stroke="none" fill="rgb(5%, 5%, 5%)" fill-opacity="1.0" font-size="0.0133" text-anchor="start"><text x="0.2967" y="0.0681">CDCL (α = 0.95, mVISDS, ExpRestart(100, 2), Clause Decay 0.999)</text></g><g stroke-width="0" stroke="rgb(2%, 29%, 48%)" stroke-opacity="1.0" fill="rgb(54%, 0%, 0%)" fill-opacity="1.0"><rect width="0.0221" height="0.0149" x="0.6937" y="0.0584"/></g><g stroke-width="0.0" stroke="none" fill="rgb(5%, 5%, 5%)" fill-opacity="1.0" font-size="0.0133" text-anchor="start"><text x="0.2967" y="0.0483">CDCL (α = 0.95, mVISDS, ExpRestart(100, 2)), Baseline</text></g><g stroke-width="0.0002" stroke="rgb(42%, 44%, 14%)" stroke-opacity="1.0" fill="rgb(42%, 44%, 14%)" fill-opacity="0.25"><rect width="0.0221" height="0.0149" x="0.6937" y="0.0386"/></g><g stroke-width="0.0" stroke="none" fill="rgb(5%, 5%, 5%)" fill-opacity="1.0" font-size="0.0133" text-anchor="start"><text x="0.2967" y="0.0284">CDCL (α = 0.95, mVISDS, ExpRestart(100, 2))</text></g><g stroke-width="0" stroke="rgb(2%, 29%, 48%)" stroke-opacity="1.0" fill="rgb(42%, 44%, 14%)" fill-opacity="1.0"><rect width="0.0221" height="0.0149" x="0.6937" y="0.0188"/></g><g stroke-width="0.0" stroke="none" fill="rgb(5%, 5%, 5%)" fill-opacity="1.0" font-size="0.0133" text-anchor="start"><text x="0.2967" y="0.0086">CDCL (α = 0.95, mVISDS, Clause Decay 0.999)</text></g><g stroke-width="0" stroke="rgb(2%, 29%, 48%)" stroke-opacity="1.0" fill="rgb(18%, 22%, 10%)" fill-opacity="1.0"><rect width="0.0221" height="0.0149" x="0.6937" y="-0.0010"/></g><g stroke-width="0.0" stroke="none" fill="rgb(5%, 5%, 5%)" fill-opacity="1.0" font-size="0.0133" text-anchor="start"><text x="0.2967" y="-0.0112">CDCL (α = 0.95, mVISDS), Baseline</text></g><g stroke-width="0.0002" stroke="rgb(0%, 42%, 48%)" stroke-opacity="1.0" fill="rgb(0%, 42%, 48%)" fill-opacity="0.25"><rect width="0.0221" height="0.0149" x="0.6937" y="-0.0209"/></g><g stroke-width="0.0" stroke="none" fill="rgb(5%, 5%, 5%)" fill-opacity="1.0" font-size="0.0133" text-anchor="start"><text x="0.2967" y="-0.0311">CDCL (α = 0.95, mVISDS)</text></g><g stroke-width="0" stroke="rgb(2%, 29%, 48%)" stroke-opacity="1.0" fill="rgb(0%, 42%, 48%)" fill-opacity="1.0"><rect width="0.0221" height="0.0149" x="0.6937" y="-0.0407"/></g><g stroke-width="0.0" stroke="none" fill="rgb(5%, 5%, 5%)" fill-opacity="1.0" font-size="0.0133" text-anchor="start"><text x="0.2967" y="-0.0509">CDCL (α = 0.95), Baseline</text></g><g stroke-width="0.0002" stroke="rgb(69%, 17%, 0%)" stroke-opacity="1.0" fill="rgb(69%, 17%, 0%)" fill-opacity="0.25"><rect width="0.0221" height="0.0149" x="0.6937" y="-0.0605"/></g><g stroke-width="0.0" stroke="none" fill="rgb(5%, 5%, 5%)" fill-opacity="1.0" font-size="0.0133" text-anchor="start"><text x="0.2967" y="-0.0707">CDCL (α = 0.95)</text></g><g stroke-width="0" stroke="rgb(2%, 29%, 48%)" stroke-opacity="1.0" fill="rgb(69%, 17%, 0%)" fill-opacity="1.0"><rect width="0.0221" height="0.0149" x="0.6937" y="-0.0804"/></g><g stroke-width="0.0" stroke="none" fill="rgb(5%, 5%, 5%)" fill-opacity="1.0" font-size="0.0133" text-anchor="start"><text x="0.2967" y="-0.0906">CDCL (α = 0.75, mVISDS, LubyRestart(100, 2)), Baseline</text></g><g stroke-width="0.0002" stroke="rgb(57%, 62%, 78%)" stroke-opacity="1.0" fill="rgb(57%, 62%, 78%)" fill-opacity="0.25"><rect width="0.0221" height="0.0149" x="0.6937" y="-0.1002"/></g><g stroke-width="0.0" stroke="none" fill="rgb(5%, 5%, 5%)" fill-opacity="1.0" font-size="0.0133" text-anchor="start"><text x="0.2967" y="-0.1104">CDCL (α = 0.75, mVISDS, LubyRestart(100, 2))</text></g><g stroke-width="0" stroke="rgb(2%, 29%, 48%)" stroke-opacity="1.0" fill="rgb(57%, 62%, 78%)" fill-opacity="1.0"><rect width="0.0221" height="0.0149" x="0.6937" y="-0.1201"/></g><g stroke-width="0.0" stroke="none" fill="rgb(5%, 5%, 5%)" fill-opacity="1.0" font-size="0.0133" text-anchor="start"><text x="0.2967" y="-0.1302">CDCL (α = 0.75, mVISDS, ExpRestart(100, 2)), Baseline</text></g><g stroke-width="0.0002" stroke="rgb(0%, 72%, 67%)" stroke-opacity="1.0" fill="rgb(0%, 72%, 67%)" fill-opacity="0.25"><rect width="0.0221" height="0.0149" x="0.6937" y="-0.1399"/></g><g stroke-width="0.0" stroke="none" fill="rgb(5%, 5%, 5%)" fill-opacity="1.0" font-size="0.0133" text-anchor="start"><text x="0.2967" y="-0.1501">CDCL (α = 0.75, mVISDS, ExpRestart(100, 2))</text></g><g stroke-width="0" stroke="rgb(2%, 29%, 48%)" stroke-opacity="1.0" fill="rgb(0%, 72%, 67%)" fill-opacity="1.0"><rect width="0.0221" height="0.0149" x="0.6937" y="-0.1597"/></g><g stroke-width="0.0" stroke="none" fill="rgb(5%, 5%, 5%)" fill-opacity="1.0" font-size="0.0133" text-anchor="start"><text x="0.2967" y="-0.1699">CDCL (α = 0.75, mVISDS, Clause Decay 0.999)</text></g><g stroke-width="0" stroke="rgb(2%, 29%, 48%)" stroke-opacity="1.0" fill="rgb(35%, 24%, 0%)" fill-opacity="1.0"><rect width="0.0221" height="0.0149" x="0.6937" y="-0.1796"/></g><g stroke-width="0.0" stroke="none" fill="rgb(5%, 5%, 5%)" fill-opacity="1.0" font-size="0.0133" text-anchor="start"><text x="0.2967" y="-0.1897">CDCL (α = 0.75, mVISDS), Baseline</text></g><g stroke-width="0.0002" stroke="rgb(48%, 65%, 0%)" stroke-opacity="1.0" fill="rgb(48%, 65%, 0%)" fill-opacity="0.25"><rect width="0.0221" height="0.0149" x="0.6937" y="-0.1994"/></g><g stroke-width="0.0" stroke="none" fill="rgb(5%, 5%, 5%)" fill-opacity="1.0" font-size="0.0133" text-anchor="start"><text x="0.2967" y="-0.2096">CDCL (α = 0.75, mVISDS)</text></g><g stroke-width="0" stroke="rgb(2%, 29%, 48%)" stroke-opacity="1.0" fill="rgb(48%, 65%, 0%)" fill-opacity="1.0"><rect width="0.0221" height="0.0149" x="0.6937" y="-0.2192"/></g><g stroke-width="0.0" stroke="none" fill="rgb(5%, 5%, 5%)" fill-opacity="1.0" font-size="0.0133" text-anchor="start"><text x="0.2967" y="-0.2294">CDCL (α = 0.75), Baseline</text></g><g stroke-width="0.0002" stroke="rgb(20%, 15%, 40%)" stroke-opacity="1.0" fill="rgb(20%, 15%, 40%)" fill-opacity="0.25"><rect width="0.0221" height="0.0149" x="0.6937" y="-0.2391"/></g><g stroke-width="0.0" stroke="none" fill="rgb(5%, 5%, 5%)" fill-opacity="1.0" font-size="0.0133" text-anchor="start"><text x="0.2967" y="-0.2492">CDCL (α = 0.75)</text></g><g stroke-width="0" stroke="rgb(2%, 29%, 48%)" stroke-opacity="1.0" fill="rgb(20%, 15%, 40%)" fill-opacity="1.0"><rect width="0.0221" height="0.0149" x="0.6937" y="-0.2589"/></g><g stroke-width="0.0" stroke="none" fill="rgb(5%, 5%, 5%)" fill-opacity="1.0" font-size="0.0133" text-anchor="start"><text x="0.2967" y="-0.2691">CDCL (adaptive, mVSIDS, Clause Decay 0.999)</text></g><g stroke-width="0" stroke="rgb(2%, 29%, 48%)" stroke-opacity="1.0" fill="rgb(37%, 17%, 0%)" fill-opacity="1.0"><rect width="0.0221" height="0.0149" x="0.6937" y="-0.2787"/></g><g stroke-width="0.0" stroke="none" fill="rgb(5%, 5%, 5%)" fill-opacity="1.0" font-size="0.0133" text-anchor="start"><text x="0.2967" y="-0.2889">CDCL (adaptive, mVSIDS), Baseline</text></g><g stroke-width="0.0002" stroke="rgb(72%, 66%, 0%)" stroke-opacity="1.0" fill="rgb(72%, 66%, 0%)" fill-opacity="0.25"><rect width="0.0221" height="0.0149" x="0.6937" y="-0.2985"/></g><g stroke-width="0.0" stroke="none" fill="rgb(5%, 5%, 5%)" fill-opacity="1.0" font-size="0.0133" text-anchor="start"><text x="0.2967" y="-0.3087">CDCL (adaptive, mVSIDS)</text></g><g stroke-width="0" stroke="rgb(2%, 29%, 48%)" stroke-opacity="1.0" fill="rgb(72%, 66%, 0%)" fill-opacity="1.0"><rect width="0.0221" height="0.0149" x="0.6937" y="-0.3184"/></g><g stroke-width="0.0" stroke="none" fill="rgb(5%, 5%, 5%)" fill-opacity="1.0" font-size="0.0133" text-anchor="start"><text x="0.2967" y="-0.3286">CDCL (adaptive, mVISDS, LubyRestart(100, 2)), Baseline</text></g><g stroke-width="0.0002" stroke="rgb(0%, 36%, 0%)" stroke-opacity="1.0" fill="rgb(0%, 36%, 0%)" fill-opacity="0.25"><rect width="0.0221" height="0.0149" x="0.6937" y="-0.3382"/></g><g stroke-width="0.0" stroke="none" fill="rgb(5%, 5%, 5%)" fill-opacity="1.0" font-size="0.0133" text-anchor="start"><text x="0.2967" y="-0.3484">CDCL (adaptive, mVISDS, LubyRestart(100, 2))</text></g><g stroke-width="0" stroke="rgb(2%, 29%, 48%)" stroke-opacity="1.0" fill="rgb(0%, 36%, 0%)" fill-opacity="1.0"><rect width="0.0221" height="0.0149" x="0.6937" y="-0.3581"/></g><g stroke-width="0.0" stroke="none" fill="rgb(5%, 5%, 5%)" fill-opacity="1.0" font-size="0.0133" text-anchor="start"><text x="0.2967" y="-0.3682">CDCL (adaptive, mVISDS, ExpRestart(100, 2)), Baseline</text></g><g stroke-width="0.0002" stroke="rgb(47%, 34%, 0%)" stroke-opacity="1.0" fill="rgb(47%, 34%, 0%)" fill-opacity="0.25"><rect width="0.0221" height="0.0149" x="0.6937" y="-0.3779"/></g><g stroke-width="0.0" stroke="none" fill="rgb(5%, 5%, 5%)" fill-opacity="1.0" font-size="0.0133" text-anchor="start"><text x="0.2967" y="-0.3881">CDCL (adaptive, mVISDS, ExpRestart(100, 2))</text></g><g stroke-width="0" stroke="rgb(2%, 29%, 48%)" stroke-opacity="1.0" fill="rgb(47%, 34%, 0%)" fill-opacity="1.0"><rect width="0.0221" height="0.0149" x="0.6937" y="-0.3977"/></g><g stroke-width="0.0" stroke="none" fill="rgb(5%, 5%, 5%)" fill-opacity="1.0" font-size="0.0133" text-anchor="start"><text x="0.2967" y="-0.4079">CDCL (adaptive), Baseline</text></g><g stroke-width="0.0002" stroke="rgb(57%, 0%, 21%)" stroke-opacity="1.0" fill="rgb(57%, 0%, 21%)" fill-opacity="0.25"><rect width="0.0221" height="0.0149" x="0.6937" y="-0.4176"/></g><g stroke-width="0.0" stroke="none" fill="rgb(5%, 5%, 5%)" fill-opacity="1.0" font-size="0.0133" text-anchor="start"><text x="0.2967" y="-0.4277">CDCL (adaptive)</text></g><g stroke-width="0" stroke="rgb(2%, 29%, 48%)" stroke-opacity="1.0" fill="rgb(57%, 0%, 21%)" fill-opacity="1.0"><rect width="0.0221" height="0.0149" x="0.6937" y="-0.4374"/></g></g></g><g class="frame"><g stroke-width="0" stroke="rgb(0%, 0%, 0%)" stroke-opacity="0" fill="rgb(100%, 100%, 100%)" fill-opacity="0.02"><rect width="1.6180" height="1.0000" x="-0.8090" y="-0.5000"/></g></g><g class="title"><g stroke-width="0.0" stroke="none" fill="rgb(5%, 5%, 5%)" fill-opacity="1.0" font-size="0.0253" text-anchor="middle"><text x="-0.7492" y="0" transform="rotate(-90.0, -0.7492, 0)">Copied [MiB]</text></g></g></g></svg>