<svg xmlns="http://www.w3.org/2000/svg" xmlns:xlink="http://www.w3.org/1999/xlink" width="476" height="300" viewBox="-1.3360 -0.5 2.376 1.4947"><style>svg {color-scheme: light dark;} {.canvas g, .title g, .axisbar g, .ticktext g, .tickglyph g, .ticklines g, .legendContent g text {fill: rgb(5%, 5%, 5%);} .ticklines g, .tickglyph g, .legendBorder g {stroke: rgb(5%, 5%, 5%);} .legendBorder g {fill: rgb(94%, 94%, 94%);}} @media (prefers-color-scheme:dark) {.canvas g, .title g, .axisbar g, .ticktext g, .tickglyph g, .ticklines g, .legendContent g text {fill: rgb(94%, 94%, 94%);} .ticklines g, .tickglyph g, .legendBorder g {stroke: rgb(94%, 94%, 94%);} .legendBorder g {fill: rgb(5%, 5%, 5%);}}
svg { font-family: system-ui,-apple-system,"Segoe UI",Roboto,"Helvetica Neue",Arial,"Noto Sans","Liberation Sans",sans-serif,"Apple Color Emoji","Segoe UI Emoji","Segoe UI Symbol","Noto Color Emoji";
}

ticktext { font-family: SFMono-Regular,Menlo,Monaco,Consolas,"Liberation Mono","Courier New",monospace;}</style><g class="chart"><g class="barchart"><g stroke-width="0" stroke="rgb(2%, 29%, 48%)" stroke-opacity="1.0" fill="rgb(0%, 57%, 62%)" fill-opacity="1.0"><rect width="0.0321" height="0.0052" x="-0.3946" y="-0.0044"/></g><g stroke-width="0.0010" stroke="rgb(0%, 57%, 62%)" stroke-opacity="1.0" fill="rgb(0%, 57%, 62%)" fill-opacity="0.25"><rect width="0.0321" height="0.0056" x="-0.3625" y="-0.0047"/></g><g stroke-width="0" stroke="rgb(2%, 29%, 48%)" stroke-opacity="1.0" fill="rgb(0%, 35%, 53%)" fill-opacity="1.0"><rect width="0.0321" height="0.0026" x="-0.3304" y="-0.0018"/></g><g stroke-width="0" stroke="rgb(2%, 29%, 48%)" stroke-opacity="1.0" fill="rgb(0%, 72%, 98%)" fill-opacity="1.0"><rect width="0.0321" height="0.0025" x="-0.2984" y="-0.0017"/></g><g stroke-width="0" stroke="rgb(2%, 29%, 48%)" stroke-opacity="1.0" fill="rgb(90%, 37%, 58%)" fill-opacity="1.0"><rect width="0.0321" height="0.0025" x="-0.2663" y="-0.0016"/></g><g stroke-width="0.0010" stroke="rgb(90%, 37%, 58%)" stroke-opacity="1.0" fill="rgb(90%, 37%, 58%)" fill-opacity="0.25"><rect width="0.0321" height="0.0484" x="-0.2342" y="-0.0476"/></g><g stroke-width="0" stroke="rgb(2%, 29%, 48%)" stroke-opacity="1.0" fill="rgb(34%, 34%, 0%)" fill-opacity="1.0"><rect width="0.0321" height="0.0048" x="-0.2021" y="-0.0039"/></g><g stroke-width="0.0010" stroke="rgb(34%, 34%, 0%)" stroke-opacity="1.0" fill="rgb(34%, 34%, 0%)" fill-opacity="0.25"><rect width="0.0321" height="0.0152" x="-0.1700" y="-0.0144"/></g><g stroke-width="0" stroke="rgb(2%, 29%, 48%)" stroke-opacity="1.0" fill="rgb(16%, 61%, 0%)" fill-opacity="1.0"><rect width="0.0321" height="0.0033" x="-0.1379" y="-0.0024"/></g><g stroke-width="0.0010" stroke="rgb(16%, 61%, 0%)" stroke-opacity="1.0" fill="rgb(16%, 61%, 0%)" fill-opacity="0.25"><rect width="0.0321" height="0.0132" x="-0.1058" y="-0.0124"/></g><g stroke-width="0" stroke="rgb(2%, 29%, 48%)" stroke-opacity="1.0" fill="rgb(0%, 64%, 70%)" fill-opacity="1.0"><rect width="0.0321" height="0.0056" x="-0.0737" y="-0.0047"/></g><g stroke-width="0.0010" stroke="rgb(0%, 64%, 70%)" stroke-opacity="1.0" fill="rgb(0%, 64%, 70%)" fill-opacity="0.25"><rect width="0.0321" height="0.0299" x="-0.0416" y="-0.0291"/></g><g stroke-width="0" stroke="rgb(2%, 29%, 48%)" stroke-opacity="1.0" fill="rgb(67%, 62%, 0%)" fill-opacity="1.0"><rect width="0.0321" height="0.0048" x="-0.0095" y="-0.0039"/></g><g stroke-width="0.0010" stroke="rgb(67%, 62%, 0%)" stroke-opacity="1.0" fill="rgb(67%, 62%, 0%)" fill-opacity="0.25"><rect width="0.0321" height="0.0296" x="0.0226" y="-0.0288"/></g><g stroke-width="0" stroke="rgb(2%, 29%, 48%)" stroke-opacity="1.0" fill="rgb(0%, 37%, 27%)" fill-opacity="1.0"><rect width="0.0321" height="0.0027" x="0.0547" y="-0.0019"/></g><g stroke-width="0.0010" stroke="rgb(0%, 37%, 27%)" stroke-opacity="1.0" fill="rgb(0%, 37%, 27%)" fill-opacity="0.25"><rect width="0.0321" height="0.0056" x="0.0868" y="-0.0048"/></g><g stroke-width="0" stroke="rgb(2%, 29%, 48%)" stroke-opacity="1.0" fill="rgb(9%, 20%, 33%)" fill-opacity="1.0"><rect width="0.0321" height="0.0023" x="0.1188" y="-0.0015"/></g><g stroke-width="0.0010" stroke="rgb(9%, 20%, 33%)" stroke-opacity="1.0" fill="rgb(9%, 20%, 33%)" fill-opacity="0.25"><rect width="0.0321" height="0.0188" x="0.1509" y="-0.0180"/></g><g stroke-width="0" stroke="rgb(2%, 29%, 48%)" stroke-opacity="1.0" fill="rgb(50%, 0%, 19%)" fill-opacity="1.0"><rect width="0.0321" height="0.0024" x="0.1830" y="-0.0015"/></g><g stroke-width="0.0010" stroke="rgb(50%, 0%, 19%)" stroke-opacity="1.0" fill="rgb(50%, 0%, 19%)" fill-opacity="0.25"><rect width="0.0321" height="0.0132" x="0.2151" y="-0.0124"/></g><g stroke-width="0" stroke="rgb(2%, 29%, 48%)" stroke-opacity="1.0" fill="rgb(24%, 33%, 6%)" fill-opacity="1.0"><rect width="0.0321" height="0.0024" x="0.2472" y="-0.0015"/></g><g stroke-width="0.0010" stroke="rgb(24%, 33%, 6%)" stroke-opacity="1.0" fill="rgb(24%, 33%, 6%)" fill-opacity="0.25"><rect width="0.0321" height="0.0133" x="0.2793" y="-0.0124"/></g><g stroke-width="0" stroke="rgb(2%, 29%, 48%)" stroke-opacity="1.0" fill="rgb(46%, 28%, 12%)" fill-opacity="1.0"><rect width="0.0321" height="0.2583" x="0.3114" y="-0.2575"/></g><g stroke-width="0.0010" stroke="rgb(46%, 28%, 12%)" stroke-opacity="1.0" fill="rgb(46%, 28%, 12%)" fill-opacity="0.25"><rect width="0.0321" height="0.3187" x="0.3435" y="-0.3178"/></g></g><g class="errors"></g><g class="datapadding"></g></g><g class="hud"><g class="axis"><g class="axisbar"><g stroke-width="0" stroke="rgb(0%, 0%, 0%)" stroke-opacity="0" fill="rgb(5%, 5%, 5%)" fill-opacity="0.4"><rect width="0.7721" height="0.0015" x="-0.3956" y="0.0365"/></g></g><g class="ticks"><g class="tickglyph"><g stroke-width="0.0015" stroke="rgb(5%, 5%, 5%)" stroke-opacity="0.4" fill="rgb(5%, 5%, 5%)" fill-opacity="0.4"><polyline points="-0.3786,0.0488
-0.3786,0.0373"/><polyline points="-0.3465,0.0488
-0.3465,0.0373"/><polyline points="-0.3144,0.0488
-0.3144,0.0373"/><polyline points="-0.2823,0.0488
-0.2823,0.0373"/><polyline points="-0.2502,0.0488
-0.2502,0.0373"/><polyline points="-0.2181,0.0488
-0.2181,0.0373"/><polyline points="-0.1860,0.0488
-0.1860,0.0373"/><polyline points="-0.1539,0.0488
-0.1539,0.0373"/><polyline points="-0.1218,0.0488
-0.1218,0.0373"/><polyline points="-0.0898,0.0488
-0.0898,0.0373"/><polyline points="-0.0577,0.0488
-0.0577,0.0373"/><polyline points="-0.0256,0.0488
-0.0256,0.0373"/><polyline points="0.0065,0.0488
0.0065,0.0373"/><polyline points="0.0386,0.0488
0.0386,0.0373"/><polyline points="0.0707,0.0488
0.0707,0.0373"/><polyline points="0.1028,0.0488
0.1028,0.0373"/><polyline points="0.1349,0.0488
0.1349,0.0373"/><polyline points="0.1670,0.0488
0.1670,0.0373"/><polyline points="0.1991,0.0488
0.1991,0.0373"/><polyline points="0.2312,0.0488
0.2312,0.0373"/><polyline points="0.2633,0.0488
0.2633,0.0373"/><polyline points="0.2954,0.0488
0.2954,0.0373"/><polyline points="0.3274,0.0488
0.3274,0.0373"/><polyline points="0.3595,0.0488
0.3595,0.0373"/></g></g><g class="ticktext"><g stroke-width="0.0" stroke="none" fill="rgb(5%, 5%, 5%)" fill-opacity="1.0" font-size="0.0400" text-anchor="end"><text x="-0.3786" y="0.0698" transform="rotate(-45.0, -0.3786, 0.0698)">CDCL (adaptive)</text><text x="-0.3465" y="0.0698" transform="rotate(-45.0, -0.3465, 0.0698)">CDCL (adaptive), Baseline</text><text x="-0.3144" y="0.0698" transform="rotate(-45.0, -0.3144, 0.0698)">CDCL (adaptive, mVISDS, ExpRestart(100, 2))</text><text x="-0.2823" y="0.0698" transform="rotate(-45.0, -0.2823, 0.0698)">CDCL (adaptive, mVISDS, LubyRestart(100, 2))</text><text x="-0.2502" y="0.0698" transform="rotate(-45.0, -0.2502, 0.0698)">CDCL (adaptive, mVSIDS)</text><text x="-0.2181" y="0.0698" transform="rotate(-45.0, -0.2181, 0.0698)">CDCL (adaptive, mVSIDS), Baseline</text><text x="-0.1860" y="0.0698" transform="rotate(-45.0, -0.1860, 0.0698)">CDCL (α = 0.75)</text><text x="-0.1539" y="0.0698" transform="rotate(-45.0, -0.1539, 0.0698)">CDCL (α = 0.75), Baseline</text><text x="-0.1218" y="0.0698" transform="rotate(-45.0, -0.1218, 0.0698)">CDCL (α = 0.75, mVISDS)</text><text x="-0.0898" y="0.0698" transform="rotate(-45.0, -0.0898, 0.0698)">CDCL (α = 0.75, mVISDS), Baseline</text><text x="-0.0577" y="0.0698" transform="rotate(-45.0, -0.0577, 0.0698)">CDCL (α = 0.75, mVISDS, ExpRestart(100, 2))</text><text x="-0.0256" y="0.0698" transform="rotate(-45.0, -0.0256, 0.0698)">CDCL (α = 0.75, mVISDS, ExpRestart(100, 2)), Baseline</text><text x="0.0065" y="0.0698" transform="rotate(-45.0, 0.0065, 0.0698)">CDCL (α = 0.75, mVISDS, LubyRestart(100, 2))</text><text x="0.0386" y="0.0698" transform="rotate(-45.0, 0.0386, 0.0698)">CDCL (α = 0.75, mVISDS, LubyRestart(100, 2)), Baseline</text><text x="0.0707" y="0.0698" transform="rotate(-45.0, 0.0707, 0.0698)">CDCL (α = 0.95)</text><text x="0.1028" y="0.0698" transform="rotate(-45.0, 0.1028, 0.0698)">CDCL (α = 0.95), Baseline</text><text x="0.1349" y="0.0698" transform="rotate(-45.0, 0.1349, 0.0698)">CDCL (α = 0.95, mVISDS)</text><text x="0.1670" y="0.0698" transform="rotate(-45.0, 0.1670, 0.0698)">CDCL (α = 0.95, mVISDS), Baseline</text><text x="0.1991" y="0.0698" transform="rotate(-45.0, 0.1991, 0.0698)">CDCL (α = 0.95, mVISDS, ExpRestart(100, 2))</text><text x="0.2312" y="0.0698" transform="rotate(-45.0, 0.2312, 0.0698)">CDCL (α = 0.95, mVISDS, ExpRestart(100, 2)), Baseline</text><text x="0.2633" y="0.0698" transform="rotate(-45.0, 0.2633, 0.0698)">CDCL (α = 0.95, mVISDS, LubyRestart(100, 2))</text><text x="0.2954" y="0.0698" transform="rotate(-45.0, 0.2954, 0.0698)">CDCL (α = 0.95, mVISDS, LubyRestart(100, 2)), Baseline</text><text x="0.3274" y="0.0698" transform="rotate(-45.0, 0.3274, 0.0698)">DPLL</text><text x="0.3595" y="0.0698" transform="rotate(-45.0, 0.3595, 0.0698)">DPLL, Baseline</text></g></g></g></g><g class="axis"><g class="axisbar"><g stroke-width="0" stroke="rgb(0%, 0%, 0%)" stroke-opacity="0" fill="rgb(5%, 5%, 5%)" fill-opacity="0.4"><rect width="0.0019" height="0.3840" x="-0.4013" y="-0.3505"/></g></g><g class="ticks"><g class="ticklines"><g stroke-width="0.0050" stroke="rgb(5%, 5%, 5%)" stroke-opacity="0.05" fill="none"><polyline points="-0.3946,0.0327 0.3756,0.0327"/><polyline points="-0.3946,-0.0310 0.3756,-0.0310"/><polyline points="-0.3946,-0.0948 0.3756,-0.0948"/><polyline points="-0.3946,-0.1585 0.3756,-0.1585"/><polyline points="-0.3946,-0.2222 0.3756,-0.2222"/><polyline points="-0.3946,-0.2860 0.3756,-0.2860"/><polyline points="-0.3946,-0.3497 0.3756,-0.3497"/></g></g><g class="tickglyph"><g stroke-width="0.0019" stroke="rgb(5%, 5%, 5%)" stroke-opacity="0.4" fill="rgb(5%, 5%, 5%)" fill-opacity="0.4"><polyline points="-0.4146,0.0327
-0.4003,0.0327"/><polyline points="-0.4146,-0.0310
-0.4003,-0.0310"/><polyline points="-0.4146,-0.0948
-0.4003,-0.0948"/><polyline points="-0.4146,-0.1585
-0.4003,-0.1585"/><polyline points="-0.4146,-0.2222
-0.4003,-0.2222"/><polyline points="-0.4146,-0.2860
-0.4003,-0.2860"/><polyline points="-0.4146,-0.3497
-0.4003,-0.3497"/></g></g><g class="ticktext"><g stroke-width="0.0" stroke="none" fill="rgb(5%, 5%, 5%)" fill-opacity="1.0" font-size="0.0400" text-anchor="end"><text x="-0.4251" y="0.0369">-0.6</text><text x="-0.4251" y="-0.0268">-0.4</text><text x="-0.4251" y="-0.0906">-0.2</text><text x="-0.4251" y="-0.1543"> 0.0</text><text x="-0.4251" y="-0.2180"> 0.2</text><text x="-0.4251" y="-0.2818"> 0.4</text><text x="-0.4251" y="-0.3455"> 0.6</text></g></g></g></g><g class="title"><g stroke-width="0.0" stroke="none" fill="rgb(5%, 5%, 5%)" fill-opacity="1.0" font-size="0.12" text-anchor="middle"><text x="-0.1480" y="-0.3868">Copied: SATLIB/Bejing/3blocks/cnf</text></g></g><g class="legend"><g class="padding"></g><g class="padding"></g><g class="frame"><g stroke-width="0.0004" stroke="rgb(5%, 5%, 5%)" stroke-opacity="1.0" fill="rgb(5%, 5%, 5%)" fill-opacity="0"><rect width="0.4905" height="0.6499" x="0.2216" y="-0.2922"/></g></g><g class="legendContent"><g stroke-width="0.0001" stroke="rgb(46%, 28%, 12%)" stroke-opacity="1.0" fill="rgb(46%, 28%, 12%)" fill-opacity="0.25"><rect width="0.0250" height="0.0201" x="0.6787" y="0.3309"/></g><g stroke-width="0.0" stroke="none" fill="rgb(5%, 5%, 5%)" fill-opacity="1.0" font-size="0.0133" text-anchor="start"><text x="0.2299" y="0.3436">DPLL, Baseline</text></g><g stroke-width="0" stroke="rgb(2%, 29%, 48%)" stroke-opacity="1.0" fill="rgb(46%, 28%, 12%)" fill-opacity="1.0"><rect width="0.0250" height="0.0201" x="0.6787" y="0.3041"/></g><g stroke-width="0.0" stroke="none" fill="rgb(5%, 5%, 5%)" fill-opacity="1.0" font-size="0.0133" text-anchor="start"><text x="0.2299" y="0.3168">DPLL</text></g><g stroke-width="0.0001" stroke="rgb(24%, 33%, 6%)" stroke-opacity="1.0" fill="rgb(24%, 33%, 6%)" fill-opacity="0.25"><rect width="0.0250" height="0.0201" x="0.6787" y="0.2773"/></g><g stroke-width="0.0" stroke="none" fill="rgb(5%, 5%, 5%)" fill-opacity="1.0" font-size="0.0133" text-anchor="start"><text x="0.2299" y="0.2900">CDCL (α = 0.95, mVISDS, LubyRestart(100, 2)), Baseline</text></g><g stroke-width="0" stroke="rgb(2%, 29%, 48%)" stroke-opacity="1.0" fill="rgb(24%, 33%, 6%)" fill-opacity="1.0"><rect width="0.0250" height="0.0201" x="0.6787" y="0.2505"/></g><g stroke-width="0.0" stroke="none" fill="rgb(5%, 5%, 5%)" fill-opacity="1.0" font-size="0.0133" text-anchor="start"><text x="0.2299" y="0.2632">CDCL (α = 0.95, mVISDS, LubyRestart(100, 2))</text></g><g stroke-width="0.0001" stroke="rgb(50%, 0%, 19%)" stroke-opacity="1.0" fill="rgb(50%, 0%, 19%)" fill-opacity="0.25"><rect width="0.0250" height="0.0201" x="0.6787" y="0.2237"/></g><g stroke-width="0.0" stroke="none" fill="rgb(5%, 5%, 5%)" fill-opacity="1.0" font-size="0.0133" text-anchor="start"><text x="0.2299" y="0.2364">CDCL (α = 0.95, mVISDS, ExpRestart(100, 2)), Baseline</text></g><g stroke-width="0" stroke="rgb(2%, 29%, 48%)" stroke-opacity="1.0" fill="rgb(50%, 0%, 19%)" fill-opacity="1.0"><rect width="0.0250" height="0.0201" x="0.6787" y="0.1968"/></g><g stroke-width="0.0" stroke="none" fill="rgb(5%, 5%, 5%)" fill-opacity="1.0" font-size="0.0133" text-anchor="start"><text x="0.2299" y="0.2096">CDCL (α = 0.95, mVISDS, ExpRestart(100, 2))</text></g><g stroke-width="0.0001" stroke="rgb(9%, 20%, 33%)" stroke-opacity="1.0" fill="rgb(9%, 20%, 33%)" fill-opacity="0.25"><rect width="0.0250" height="0.0201" x="0.6787" y="0.1700"/></g><g stroke-width="0.0" stroke="none" fill="rgb(5%, 5%, 5%)" fill-opacity="1.0" font-size="0.0133" text-anchor="start"><text x="0.2299" y="0.1828">CDCL (α = 0.95, mVISDS), Baseline</text></g><g stroke-width="0" stroke="rgb(2%, 29%, 48%)" stroke-opacity="1.0" fill="rgb(9%, 20%, 33%)" fill-opacity="1.0"><rect width="0.0250" height="0.0201" x="0.6787" y="0.1432"/></g><g stroke-width="0.0" stroke="none" fill="rgb(5%, 5%, 5%)" fill-opacity="1.0" font-size="0.0133" text-anchor="start"><text x="0.2299" y="0.1560">CDCL (α = 0.95, mVISDS)</text></g><g stroke-width="0.0001" stroke="rgb(0%, 37%, 27%)" stroke-opacity="1.0" fill="rgb(0%, 37%, 27%)" fill-opacity="0.25"><rect width="0.0250" height="0.0201" x="0.6787" y="0.1164"/></g><g stroke-width="0.0" stroke="none" fill="rgb(5%, 5%, 5%)" fill-opacity="1.0" font-size="0.0133" text-anchor="start"><text x="0.2299" y="0.1292">CDCL (α = 0.95), Baseline</text></g><g stroke-width="0" stroke="rgb(2%, 29%, 48%)" stroke-opacity="1.0" fill="rgb(0%, 37%, 27%)" fill-opacity="1.0"><rect width="0.0250" height="0.0201" x="0.6787" y="0.0896"/></g><g stroke-width="0.0" stroke="none" fill="rgb(5%, 5%, 5%)" fill-opacity="1.0" font-size="0.0133" text-anchor="start"><text x="0.2299" y="0.1024">CDCL (α = 0.95)</text></g><g stroke-width="0.0001" stroke="rgb(67%, 62%, 0%)" stroke-opacity="1.0" fill="rgb(67%, 62%, 0%)" fill-opacity="0.25"><rect width="0.0250" height="0.0201" x="0.6787" y="0.0628"/></g><g stroke-width="0.0" stroke="none" fill="rgb(5%, 5%, 5%)" fill-opacity="1.0" font-size="0.0133" text-anchor="start"><text x="0.2299" y="0.0755">CDCL (α = 0.75, mVISDS, LubyRestart(100, 2)), Baseline</text></g><g stroke-width="0" stroke="rgb(2%, 29%, 48%)" stroke-opacity="1.0" fill="rgb(67%, 62%, 0%)" fill-opacity="1.0"><rect width="0.0250" height="0.0201" x="0.6787" y="0.0360"/></g><g stroke-width="0.0" stroke="none" fill="rgb(5%, 5%, 5%)" fill-opacity="1.0" font-size="0.0133" text-anchor="start"><text x="0.2299" y="0.0487">CDCL (α = 0.75, mVISDS, LubyRestart(100, 2))</text></g><g stroke-width="0.0001" stroke="rgb(0%, 64%, 70%)" stroke-opacity="1.0" fill="rgb(0%, 64%, 70%)" fill-opacity="0.25"><rect width="0.0250" height="0.0201" x="0.6787" y="0.0092"/></g><g stroke-width="0.0" stroke="none" fill="rgb(5%, 5%, 5%)" fill-opacity="1.0" font-size="0.0133" text-anchor="start"><text x="0.2299" y="0.0219">CDCL (α = 0.75, mVISDS, ExpRestart(100, 2)), Baseline</text></g><g stroke-width="0" stroke="rgb(2%, 29%, 48%)" stroke-opacity="1.0" fill="rgb(0%, 64%, 70%)" fill-opacity="1.0"><rect width="0.0250" height="0.0201" x="0.6787" y="-0.0176"/></g><g stroke-width="0.0" stroke="none" fill="rgb(5%, 5%, 5%)" fill-opacity="1.0" font-size="0.0133" text-anchor="start"><text x="0.2299" y="-0.0049">CDCL (α = 0.75, mVISDS, ExpRestart(100, 2))</text></g><g stroke-width="0.0001" stroke="rgb(16%, 61%, 0%)" stroke-opacity="1.0" fill="rgb(16%, 61%, 0%)" fill-opacity="0.25"><rect width="0.0250" height="0.0201" x="0.6787" y="-0.0444"/></g><g stroke-width="0.0" stroke="none" fill="rgb(5%, 5%, 5%)" fill-opacity="1.0" font-size="0.0133" text-anchor="start"><text x="0.2299" y="-0.0317">CDCL (α = 0.75, mVISDS), Baseline</text></g><g stroke-width="0" stroke="rgb(2%, 29%, 48%)" stroke-opacity="1.0" fill="rgb(16%, 61%, 0%)" fill-opacity="1.0"><rect width="0.0250" height="0.0201" x="0.6787" y="-0.0712"/></g><g stroke-width="0.0" stroke="none" fill="rgb(5%, 5%, 5%)" fill-opacity="1.0" font-size="0.0133" text-anchor="start"><text x="0.2299" y="-0.0585">CDCL (α = 0.75, mVISDS)</text></g><g stroke-width="0.0001" stroke="rgb(34%, 34%, 0%)" stroke-opacity="1.0" fill="rgb(34%, 34%, 0%)" fill-opacity="0.25"><rect width="0.0250" height="0.0201" x="0.6787" y="-0.0980"/></g><g stroke-width="0.0" stroke="none" fill="rgb(5%, 5%, 5%)" fill-opacity="1.0" font-size="0.0133" text-anchor="start"><text x="0.2299" y="-0.0853">CDCL (α = 0.75), Baseline</text></g><g stroke-width="0" stroke="rgb(2%, 29%, 48%)" stroke-opacity="1.0" fill="rgb(34%, 34%, 0%)" fill-opacity="1.0"><rect width="0.0250" height="0.0201" x="0.6787" y="-0.1248"/></g><g stroke-width="0.0" stroke="none" fill="rgb(5%, 5%, 5%)" fill-opacity="1.0" font-size="0.0133" text-anchor="start"><text x="0.2299" y="-0.1121">CDCL (α = 0.75)</text></g><g stroke-width="0.0001" stroke="rgb(90%, 37%, 58%)" stroke-opacity="1.0" fill="rgb(90%, 37%, 58%)" fill-opacity="0.25"><rect width="0.0250" height="0.0201" x="0.6787" y="-0.1516"/></g><g stroke-width="0.0" stroke="none" fill="rgb(5%, 5%, 5%)" fill-opacity="1.0" font-size="0.0133" text-anchor="start"><text x="0.2299" y="-0.1389">CDCL (adaptive, mVSIDS), Baseline</text></g><g stroke-width="0" stroke="rgb(2%, 29%, 48%)" stroke-opacity="1.0" fill="rgb(90%, 37%, 58%)" fill-opacity="1.0"><rect width="0.0250" height="0.0201" x="0.6787" y="-0.1784"/></g><g stroke-width="0.0" stroke="none" fill="rgb(5%, 5%, 5%)" fill-opacity="1.0" font-size="0.0133" text-anchor="start"><text x="0.2299" y="-0.1657">CDCL (adaptive, mVSIDS)</text></g><g stroke-width="0" stroke="rgb(2%, 29%, 48%)" stroke-opacity="1.0" fill="rgb(0%, 72%, 98%)" fill-opacity="1.0"><rect width="0.0250" height="0.0201" x="0.6787" y="-0.2052"/></g><g stroke-width="0.0" stroke="none" fill="rgb(5%, 5%, 5%)" fill-opacity="1.0" font-size="0.0133" text-anchor="start"><text x="0.2299" y="-0.1924">CDCL (adaptive, mVISDS, LubyRestart(100, 2))</text></g><g stroke-width="0" stroke="rgb(2%, 29%, 48%)" stroke-opacity="1.0" fill="rgb(0%, 35%, 53%)" fill-opacity="1.0"><rect width="0.0250" height="0.0201" x="0.6787" y="-0.2319"/></g><g stroke-width="0.0" stroke="none" fill="rgb(5%, 5%, 5%)" fill-opacity="1.0" font-size="0.0133" text-anchor="start"><text x="0.2299" y="-0.2192">CDCL (adaptive, mVISDS, ExpRestart(100, 2))</text></g><g stroke-width="0.0001" stroke="rgb(0%, 57%, 62%)" stroke-opacity="1.0" fill="rgb(0%, 57%, 62%)" fill-opacity="0.25"><rect width="0.0250" height="0.0201" x="0.6787" y="-0.2587"/></g><g stroke-width="0.0" stroke="none" fill="rgb(5%, 5%, 5%)" fill-opacity="1.0" font-size="0.0133" text-anchor="start"><text x="0.2299" y="-0.2460">CDCL (adaptive), Baseline</text></g><g stroke-width="0" stroke="rgb(2%, 29%, 48%)" stroke-opacity="1.0" fill="rgb(0%, 57%, 62%)" fill-opacity="1.0"><rect width="0.0250" height="0.0201" x="0.6787" y="-0.2855"/></g><g stroke-width="0.0" stroke="none" fill="rgb(5%, 5%, 5%)" fill-opacity="1.0" font-size="0.0133" text-anchor="start"><text x="0.2299" y="-0.2728">CDCL (adaptive)</text></g></g></g><g class="frame"><g stroke-width="0" stroke="rgb(0%, 0%, 0%)" stroke-opacity="0" fill="rgb(100%, 100%, 100%)" fill-opacity="0.02"><rect width="1.6180" height="1.0" x="-0.8090" y="-0.5"/></g></g><g class="title"><g stroke-width="0.0" stroke="none" fill="rgb(5%, 5%, 5%)" fill-opacity="1.0" font-size="0.0600" text-anchor="middle"><text x="-0.7414" y="0" transform="rotate(-90.0, -0.7414, 0)">Copied [GiB]</text></g></g></g></svg>