<svg xmlns="http://www.w3.org/2000/svg" xmlns:xlink="http://www.w3.org/1999/xlink" width="434" height="300" viewBox="-0.8090 -0.5 1.6180 1.1163"><style>svg {
  color-scheme: light dark;
}
{
  .canvas g, .title g, .axisbar g, .ticktext g, .tickglyph g, .ticklines g, .legendContent g text {
    fill: rgb(5%, 5%, 5%);
  }
  .ticklines g, .tickglyph g, .legendBorder g {
    stroke: rgb(5%, 5%, 5%);
  }
  .legendBorder g {
    fill: rgb(94%, 94%, 94%);
  }
}
@media (prefers-color-scheme:dark) {
  .canvas g, .title g, .axisbar g, .ticktext g, .tickglyph g, .ticklines g, .legendContent g text {
    fill: rgb(94%, 94%, 94%);
  }
  .ticklines g, .tickglyph g, .legendBorder g {
    stroke: rgb(94%, 94%, 94%);
  }
  .legendBorder g {
    fill: rgb(5%, 5%, 5%);
  }
}</style><g class="chart"><g class="barchart"><g stroke-width="0" stroke="rgb(2%, 29%, 48%)" stroke-opacity="1.0" fill="rgb(57%, 0%, 21%)" fill-opacity="1.0"><rect width="0.0159" height="0.0654" x="-0.3826" y="0.1115"/></g><g stroke-width="0.0010" stroke="rgb(57%, 0%, 21%)" stroke-opacity="1.0" fill="rgb(57%, 0%, 21%)" fill-opacity="0.25"><rect width="0.0159" height="0.0584" x="-0.3667" y="0.1185"/></g><g stroke-width="0" stroke="rgb(2%, 29%, 48%)" stroke-opacity="1.0" fill="rgb(47%, 34%, 0%)" fill-opacity="1.0"><rect width="0.0159" height="0.0653" x="-0.3507" y="0.1116"/></g><g stroke-width="0.0010" stroke="rgb(47%, 34%, 0%)" stroke-opacity="1.0" fill="rgb(47%, 34%, 0%)" fill-opacity="0.25"><rect width="0.0159" height="0.0575" x="-0.3348" y="0.1194"/></g><g stroke-width="0" stroke="rgb(2%, 29%, 48%)" stroke-opacity="1.0" fill="rgb(70%, 21%, 0%)" fill-opacity="1.0"><rect width="0.0159" height="0.0662" x="-0.3189" y="0.1108"/></g><g stroke-width="0" stroke="rgb(2%, 29%, 48%)" stroke-opacity="1.0" fill="rgb(0%, 36%, 0%)" fill-opacity="1.0"><rect width="0.0159" height="0.0670" x="-0.3029" y="0.1099"/></g><g stroke-width="0.0010" stroke="rgb(0%, 36%, 0%)" stroke-opacity="1.0" fill="rgb(0%, 36%, 0%)" fill-opacity="0.25"><rect width="0.0159" height="0.0603" x="-0.2870" y="0.1166"/></g><g stroke-width="0" stroke="rgb(2%, 29%, 48%)" stroke-opacity="1.0" fill="rgb(0%, 21%, 55%)" fill-opacity="1.0"><rect width="0.0159" height="0.0652" x="-0.2711" y="0.1117"/></g><g stroke-width="0" stroke="rgb(2%, 29%, 48%)" stroke-opacity="1.0" fill="rgb(72%, 66%, 0%)" fill-opacity="1.0"><rect width="0.0159" height="0.0665" x="-0.2551" y="0.1104"/></g><g stroke-width="0.0010" stroke="rgb(72%, 66%, 0%)" stroke-opacity="1.0" fill="rgb(72%, 66%, 0%)" fill-opacity="0.25"><rect width="0.0159" height="0.0589" x="-0.2392" y="0.1181"/></g><g stroke-width="0" stroke="rgb(2%, 29%, 48%)" stroke-opacity="1.0" fill="rgb(37%, 17%, 0%)" fill-opacity="1.0"><rect width="0.0159" height="0.0656" x="-0.2233" y="0.1113"/></g><g stroke-width="0" stroke="rgb(2%, 29%, 48%)" stroke-opacity="1.0" fill="rgb(20%, 15%, 40%)" fill-opacity="1.0"><rect width="0.0159" height="0.0662" x="-0.2074" y="0.1107"/></g><g stroke-width="0.0010" stroke="rgb(20%, 15%, 40%)" stroke-opacity="1.0" fill="rgb(20%, 15%, 40%)" fill-opacity="0.25"><rect width="0.0159" height="0.0615" x="-0.1914" y="0.1154"/></g><g stroke-width="0" stroke="rgb(2%, 29%, 48%)" stroke-opacity="1.0" fill="rgb(48%, 65%, 0%)" fill-opacity="1.0"><rect width="0.0159" height="0.0667" x="-0.1755" y="0.1102"/></g><g stroke-width="0.0010" stroke="rgb(48%, 65%, 0%)" stroke-opacity="1.0" fill="rgb(48%, 65%, 0%)" fill-opacity="0.25"><rect width="0.0159" height="0.0581" x="-0.1596" y="0.1188"/></g><g stroke-width="0" stroke="rgb(2%, 29%, 48%)" stroke-opacity="1.0" fill="rgb(35%, 24%, 0%)" fill-opacity="1.0"><rect width="0.0159" height="0.0669" x="-0.1436" y="0.1101"/></g><g stroke-width="0" stroke="rgb(2%, 29%, 48%)" stroke-opacity="1.0" fill="rgb(0%, 72%, 67%)" fill-opacity="1.0"><rect width="0.0159" height="0.0678" x="-0.1277" y="0.1091"/></g><g stroke-width="0.0010" stroke="rgb(0%, 72%, 67%)" stroke-opacity="1.0" fill="rgb(0%, 72%, 67%)" fill-opacity="0.25"><rect width="0.0159" height="0.0589" x="-0.1118" y="0.1180"/></g><g stroke-width="0" stroke="rgb(2%, 29%, 48%)" stroke-opacity="1.0" fill="rgb(98%, 15%, 25%)" fill-opacity="1.0"><rect width="0.0159" height="0.0673" x="-0.0958" y="0.1096"/></g><g stroke-width="0" stroke="rgb(2%, 29%, 48%)" stroke-opacity="1.0" fill="rgb(57%, 62%, 78%)" fill-opacity="1.0"><rect width="0.0159" height="0.0677" x="-0.0799" y="0.1092"/></g><g stroke-width="0.0010" stroke="rgb(57%, 62%, 78%)" stroke-opacity="1.0" fill="rgb(57%, 62%, 78%)" fill-opacity="0.25"><rect width="0.0159" height="0.0597" x="-0.0640" y="0.1172"/></g><g stroke-width="0" stroke="rgb(2%, 29%, 48%)" stroke-opacity="1.0" fill="rgb(53%, 24%, 0%)" fill-opacity="1.0"><rect width="0.0159" height="0.0669" x="-0.0480" y="0.1100"/></g><g stroke-width="0" stroke="rgb(2%, 29%, 48%)" stroke-opacity="1.0" fill="rgb(69%, 17%, 0%)" fill-opacity="1.0"><rect width="0.0159" height="0.0671" x="-0.0321" y="0.1098"/></g><g stroke-width="0.0010" stroke="rgb(69%, 17%, 0%)" stroke-opacity="1.0" fill="rgb(69%, 17%, 0%)" fill-opacity="0.25"><rect width="0.0159" height="0.0586" x="-0.0162" y="0.1183"/></g><g stroke-width="0" stroke="rgb(2%, 29%, 48%)" stroke-opacity="1.0" fill="rgb(0%, 42%, 48%)" fill-opacity="1.0"><rect width="0.0159" height="0.0674" x="-0.0003" y="0.1095"/></g><g stroke-width="0.0010" stroke="rgb(0%, 42%, 48%)" stroke-opacity="1.0" fill="rgb(0%, 42%, 48%)" fill-opacity="0.25"><rect width="0.0159" height="0.0595" x="0.0157" y="0.1174"/></g><g stroke-width="0" stroke="rgb(2%, 29%, 48%)" stroke-opacity="1.0" fill="rgb(18%, 22%, 10%)" fill-opacity="1.0"><rect width="0.0159" height="0.0674" x="0.0316" y="0.1095"/></g><g stroke-width="0" stroke="rgb(2%, 29%, 48%)" stroke-opacity="1.0" fill="rgb(42%, 44%, 14%)" fill-opacity="1.0"><rect width="0.0159" height="0.0668" x="0.0475" y="0.1101"/></g><g stroke-width="0.0010" stroke="rgb(42%, 44%, 14%)" stroke-opacity="1.0" fill="rgb(42%, 44%, 14%)" fill-opacity="0.25"><rect width="0.0159" height="0.0576" x="0.0635" y="0.1193"/></g><g stroke-width="0" stroke="rgb(2%, 29%, 48%)" stroke-opacity="1.0" fill="rgb(54%, 0%, 0%)" fill-opacity="1.0"><rect width="0.0159" height="0.0671" x="0.0794" y="0.1098"/></g><g stroke-width="0" stroke="rgb(2%, 29%, 48%)" stroke-opacity="1.0" fill="rgb(100%, 37%, 0%)" fill-opacity="1.0"><rect width="0.0159" height="0.0671" x="0.0953" y="0.1099"/></g><g stroke-width="0.0010" stroke="rgb(100%, 37%, 0%)" stroke-opacity="1.0" fill="rgb(100%, 37%, 0%)" fill-opacity="0.25"><rect width="0.0159" height="0.0581" x="0.1113" y="0.1188"/></g><g stroke-width="0" stroke="rgb(2%, 29%, 48%)" stroke-opacity="1.0" fill="rgb(0%, 38%, 61%)" fill-opacity="1.0"><rect width="0.0159" height="0.0656" x="0.1272" y="0.1113"/></g><g stroke-width="0" stroke="rgb(2%, 29%, 48%)" stroke-opacity="1.0" fill="rgb(0%, 49%, 30%)" fill-opacity="1.0"><rect width="0.0159" height="0.0153" x="0.1431" y="0.1616"/></g><g stroke-width="0.0010" stroke="rgb(0%, 49%, 30%)" stroke-opacity="1.0" fill="rgb(0%, 49%, 30%)" fill-opacity="0.25"><rect width="0.0159" height="0.0148" x="0.1591" y="0.1622"/></g><g stroke-width="0" stroke="rgb(2%, 29%, 48%)" stroke-opacity="1.0" fill="rgb(69%, 16%, 76%)" fill-opacity="1.0"><rect width="0.0159" height="0.2334" x="0.1750" y="-0.0564"/></g><g stroke-width="0.0010" stroke="rgb(69%, 16%, 76%)" stroke-opacity="1.0" fill="rgb(69%, 16%, 76%)" fill-opacity="0.25"><rect width="0.0159" height="0.2149" x="0.1909" y="-0.0380"/></g></g><g class="errors"><g stroke-width="0.0015" stroke="rgb(5%, 5%, 5%)" stroke-opacity="1.0" fill="none"><polyline points="-0.3762,0.1147 -0.3730,0.1147"/><polyline points="-0.3746,0.1147 -0.3746,0.1084"/><polyline points="-0.3762,0.1084 -0.3730,0.1084"/></g><g stroke-width="0.0015" stroke="rgb(5%, 5%, 5%)" stroke-opacity="1.0" fill="none"><polyline points="-0.3603,0.1201 -0.3571,0.1201"/><polyline points="-0.3587,0.1201 -0.3587,0.1170"/><polyline points="-0.3603,0.1170 -0.3571,0.1170"/></g><g stroke-width="0.0015" stroke="rgb(5%, 5%, 5%)" stroke-opacity="1.0" fill="none"><polyline points="-0.3444,0.1147 -0.3412,0.1147"/><polyline points="-0.3428,0.1147 -0.3428,0.1085"/><polyline points="-0.3444,0.1085 -0.3412,0.1085"/></g><g stroke-width="0.0015" stroke="rgb(5%, 5%, 5%)" stroke-opacity="1.0" fill="none"><polyline points="-0.3284,0.1213 -0.3252,0.1213"/><polyline points="-0.3268,0.1213 -0.3268,0.1176"/><polyline points="-0.3284,0.1176 -0.3252,0.1176"/></g><g stroke-width="0.0015" stroke="rgb(5%, 5%, 5%)" stroke-opacity="1.0" fill="none"><polyline points="-0.3125,0.1125 -0.3093,0.1125"/><polyline points="-0.3109,0.1125 -0.3109,0.1091"/><polyline points="-0.3125,0.1091 -0.3093,0.1091"/></g><g stroke-width="0.0015" stroke="rgb(5%, 5%, 5%)" stroke-opacity="1.0" fill="none"><polyline points="-0.2966,0.1125 -0.2934,0.1125"/><polyline points="-0.2950,0.1125 -0.2950,0.1074"/><polyline points="-0.2966,0.1074 -0.2934,0.1074"/></g><g stroke-width="0.0015" stroke="rgb(5%, 5%, 5%)" stroke-opacity="1.0" fill="none"><polyline points="-0.2806,0.1177 -0.2774,0.1177"/><polyline points="-0.2790,0.1177 -0.2790,0.1155"/><polyline points="-0.2806,0.1155 -0.2774,0.1155"/></g><g stroke-width="0.0015" stroke="rgb(5%, 5%, 5%)" stroke-opacity="1.0" fill="none"><polyline points="-0.2647,0.1130 -0.2615,0.1130"/><polyline points="-0.2631,0.1130 -0.2631,0.1103"/><polyline points="-0.2647,0.1103 -0.2615,0.1103"/></g><g stroke-width="0.0015" stroke="rgb(5%, 5%, 5%)" stroke-opacity="1.0" fill="none"><polyline points="-0.2488,0.1125 -0.2456,0.1125"/><polyline points="-0.2472,0.1125 -0.2472,0.1083"/><polyline points="-0.2488,0.1083 -0.2456,0.1083"/></g><g stroke-width="0.0015" stroke="rgb(5%, 5%, 5%)" stroke-opacity="1.0" fill="none"><polyline points="-0.2328,0.1185 -0.2297,0.1185"/><polyline points="-0.2312,0.1185 -0.2312,0.1176"/><polyline points="-0.2328,0.1176 -0.2297,0.1176"/></g><g stroke-width="0.0015" stroke="rgb(5%, 5%, 5%)" stroke-opacity="1.0" fill="none"><polyline points="-0.2169,0.1130 -0.2137,0.1130"/><polyline points="-0.2153,0.1130 -0.2153,0.1096"/><polyline points="-0.2169,0.1096 -0.2137,0.1096"/></g><g stroke-width="0.0015" stroke="rgb(5%, 5%, 5%)" stroke-opacity="1.0" fill="none"><polyline points="-0.2010,0.1124 -0.1978,0.1124"/><polyline points="-0.1994,0.1124 -0.1994,0.1090"/><polyline points="-0.2010,0.1090 -0.1978,0.1090"/></g><g stroke-width="0.0015" stroke="rgb(5%, 5%, 5%)" stroke-opacity="1.0" fill="none"><polyline points="-0.1850,0.1174 -0.1819,0.1174"/><polyline points="-0.1835,0.1174 -0.1835,0.1134"/><polyline points="-0.1850,0.1134 -0.1819,0.1134"/></g><g stroke-width="0.0015" stroke="rgb(5%, 5%, 5%)" stroke-opacity="1.0" fill="none"><polyline points="-0.1691,0.1133 -0.1659,0.1133"/><polyline points="-0.1675,0.1133 -0.1675,0.1071"/><polyline points="-0.1691,0.1071 -0.1659,0.1071"/></g><g stroke-width="0.0015" stroke="rgb(5%, 5%, 5%)" stroke-opacity="1.0" fill="none"><polyline points="-0.1532,0.1209 -0.1500,0.1209"/><polyline points="-0.1516,0.1209 -0.1516,0.1168"/><polyline points="-0.1532,0.1168 -0.1500,0.1168"/></g><g stroke-width="0.0015" stroke="rgb(5%, 5%, 5%)" stroke-opacity="1.0" fill="none"><polyline points="-0.1373,0.1133 -0.1341,0.1133"/><polyline points="-0.1357,0.1133 -0.1357,0.1068"/><polyline points="-0.1373,0.1068 -0.1341,0.1068"/></g><g stroke-width="0.0015" stroke="rgb(5%, 5%, 5%)" stroke-opacity="1.0" fill="none"><polyline points="-0.1213,0.1114 -0.1181,0.1114"/><polyline points="-0.1197,0.1114 -0.1197,0.1068"/><polyline points="-0.1213,0.1068 -0.1181,0.1068"/></g><g stroke-width="0.0015" stroke="rgb(5%, 5%, 5%)" stroke-opacity="1.0" fill="none"><polyline points="-0.1054,0.1202 -0.1022,0.1202"/><polyline points="-0.1038,0.1202 -0.1038,0.1157"/><polyline points="-0.1054,0.1157 -0.1022,0.1157"/></g><g stroke-width="0.0015" stroke="rgb(5%, 5%, 5%)" stroke-opacity="1.0" fill="none"><polyline points="-0.0895,0.1119 -0.0863,0.1119"/><polyline points="-0.0879,0.1119 -0.0879,0.1073"/><polyline points="-0.0895,0.1073 -0.0863,0.1073"/></g><g stroke-width="0.0015" stroke="rgb(5%, 5%, 5%)" stroke-opacity="1.0" fill="none"><polyline points="-0.0735,0.1119 -0.0703,0.1119"/><polyline points="-0.0719,0.1119 -0.0719,0.1065"/><polyline points="-0.0735,0.1065 -0.0703,0.1065"/></g><g stroke-width="0.0015" stroke="rgb(5%, 5%, 5%)" stroke-opacity="1.0" fill="none"><polyline points="-0.0576,0.1183 -0.0544,0.1183"/><polyline points="-0.0560,0.1183 -0.0560,0.1161"/><polyline points="-0.0576,0.1161 -0.0544,0.1161"/></g><g stroke-width="0.0015" stroke="rgb(5%, 5%, 5%)" stroke-opacity="1.0" fill="none"><polyline points="-0.0417,0.1127 -0.0385,0.1127"/><polyline points="-0.0401,0.1127 -0.0401,0.1074"/><polyline points="-0.0417,0.1074 -0.0385,0.1074"/></g><g stroke-width="0.0015" stroke="rgb(5%, 5%, 5%)" stroke-opacity="1.0" fill="none"><polyline points="-0.0257,0.1120 -0.0226,0.1120"/><polyline points="-0.0241,0.1120 -0.0241,0.1076"/><polyline points="-0.0257,0.1076 -0.0226,0.1076"/></g><g stroke-width="0.0015" stroke="rgb(5%, 5%, 5%)" stroke-opacity="1.0" fill="none"><polyline points="-0.0098,0.1200 -0.0066,0.1200"/><polyline points="-0.0082,0.1200 -0.0082,0.1166"/><polyline points="-0.0098,0.1166 -0.0066,0.1166"/></g><g stroke-width="0.0015" stroke="rgb(5%, 5%, 5%)" stroke-opacity="1.0" fill="none"><polyline points="0.0061,0.1124 0.0093,0.1124"/><polyline points="0.0077,0.1124 0.0077,0.1066"/><polyline points="0.0061,0.1066 0.0093,0.1066"/></g><g stroke-width="0.0015" stroke="rgb(5%, 5%, 5%)" stroke-opacity="1.0" fill="none"><polyline points="0.0221,0.1196 0.0252,0.1196"/><polyline points="0.0236,0.1196 0.0236,0.1152"/><polyline points="0.0221,0.1152 0.0252,0.1152"/></g><g stroke-width="0.0015" stroke="rgb(5%, 5%, 5%)" stroke-opacity="1.0" fill="none"><polyline points="0.0380,0.1114 0.0412,0.1114"/><polyline points="0.0396,0.1114 0.0396,0.1076"/><polyline points="0.0380,0.1076 0.0412,0.1076"/></g><g stroke-width="0.0015" stroke="rgb(5%, 5%, 5%)" stroke-opacity="1.0" fill="none"><polyline points="0.0539,0.1119 0.0571,0.1119"/><polyline points="0.0555,0.1119 0.0555,0.1083"/><polyline points="0.0539,0.1083 0.0571,0.1083"/></g><g stroke-width="0.0015" stroke="rgb(5%, 5%, 5%)" stroke-opacity="1.0" fill="none"><polyline points="0.0698,0.1218 0.0730,0.1218"/><polyline points="0.0714,0.1218 0.0714,0.1169"/><polyline points="0.0698,0.1169 0.0730,0.1169"/></g><g stroke-width="0.0015" stroke="rgb(5%, 5%, 5%)" stroke-opacity="1.0" fill="none"><polyline points="0.0858,0.1108 0.0890,0.1108"/><polyline points="0.0874,0.1108 0.0874,0.1088"/><polyline points="0.0858,0.1088 0.0890,0.1088"/></g><g stroke-width="0.0015" stroke="rgb(5%, 5%, 5%)" stroke-opacity="1.0" fill="none"><polyline points="0.1017,0.1117 0.1049,0.1117"/><polyline points="0.1033,0.1117 0.1033,0.1080"/><polyline points="0.1017,0.1080 0.1049,0.1080"/></g><g stroke-width="0.0015" stroke="rgb(5%, 5%, 5%)" stroke-opacity="1.0" fill="none"><polyline points="0.1176,0.1212 0.1208,0.1212"/><polyline points="0.1192,0.1212 0.1192,0.1163"/><polyline points="0.1176,0.1163 0.1208,0.1163"/></g><g stroke-width="0.0015" stroke="rgb(5%, 5%, 5%)" stroke-opacity="1.0" fill="none"><polyline points="0.1336,0.1129 0.1368,0.1129"/><polyline points="0.1352,0.1129 0.1352,0.1097"/><polyline points="0.1336,0.1097 0.1368,0.1097"/></g><g stroke-width="0.0015" stroke="rgb(5%, 5%, 5%)" stroke-opacity="1.0" fill="none"><polyline points="0.1495,0.1620 0.1527,0.1620"/><polyline points="0.1511,0.1620 0.1511,0.1611"/><polyline points="0.1495,0.1611 0.1527,0.1611"/></g><g stroke-width="0.0015" stroke="rgb(5%, 5%, 5%)" stroke-opacity="1.0" fill="none"><polyline points="0.1654,0.1626 0.1686,0.1626"/><polyline points="0.1670,0.1626 0.1670,0.1617"/><polyline points="0.1654,0.1617 0.1686,0.1617"/></g><g stroke-width="0.0015" stroke="rgb(5%, 5%, 5%)" stroke-opacity="1.0" fill="none"><polyline points="0.1814,-0.0489 0.1845,-0.0489"/><polyline points="0.1830,-0.0489 0.1830,-0.0639"/><polyline points="0.1814,-0.0639 0.1845,-0.0639"/></g><g stroke-width="0.0015" stroke="rgb(5%, 5%, 5%)" stroke-opacity="1.0" fill="none"><polyline points="0.1973,-0.0318 0.2005,-0.0318"/><polyline points="0.1989,-0.0318 0.1989,-0.0442"/><polyline points="0.1973,-0.0442 0.2005,-0.0442"/></g></g></g><g class="hud"><g class="axis"><g class="ticks"><g class="tickglyph"><g stroke-width="0.0040" stroke="rgb(5%, 5%, 5%)" stroke-opacity="0.4" fill="rgb(5%, 5%, 5%)" fill-opacity="0.4"><g transform="rotate(-90.0, -0.4275, 0.1769)"><polyline points="-0.4275,0.1919
-0.4275,0.1619"/></g><g transform="rotate(-90.0, -0.4275, 0.1420)"><polyline points="-0.4275,0.1570
-0.4275,0.1270"/></g><g transform="rotate(-90.0, -0.4275, 0.1071)"><polyline points="-0.4275,0.1221
-0.4275,0.0921"/></g><g transform="rotate(-90.0, -0.4275, 0.0722)"><polyline points="-0.4275,0.0872
-0.4275,0.0572"/></g><g transform="rotate(-90.0, -0.4275, 0.0374)"><polyline points="-0.4275,0.0524
-0.4275,0.0224"/></g><g transform="rotate(-90.0, -0.4275, 0.0025)"><polyline points="-0.4275,0.0175
-0.4275,-0.0125"/></g><g transform="rotate(-90.0, -0.4275, -0.0324)"><polyline points="-0.4275,-0.0174
-0.4275,-0.0474"/></g><g transform="rotate(-90.0, -0.4275, -0.0673)"><polyline points="-0.4275,-0.0523
-0.4275,-0.0823"/></g></g></g><g class="ticktext"><g stroke-width="0.0" stroke="none" fill="rgb(5%, 5%, 5%)" fill-opacity="1.0" font-size="0.0202" text-anchor="end"><text x="-0.4421" y="0.1803">0</text><text x="-0.4421" y="0.1454">1</text><text x="-0.4421" y="0.1105">2</text><text x="-0.4421" y="0.0756">3</text><text x="-0.4421" y="0.0407">4</text><text x="-0.4421" y="0.0058">5</text><text x="-0.4421" y="-0.0291">6</text><text x="-0.4421" y="-0.0640">7</text></g></g><g class="ticklines"><g stroke-width="0.0050" stroke="rgb(5%, 5%, 5%)" stroke-opacity="0.05" fill="none"><polyline points="-0.4153,0.1769 0.2396,0.1769"/><polyline points="-0.4153,0.1420 0.2396,0.1420"/><polyline points="-0.4153,0.1071 0.2396,0.1071"/><polyline points="-0.4153,0.0722 0.2396,0.0722"/><polyline points="-0.4153,0.0374 0.2396,0.0374"/><polyline points="-0.4153,0.0025 0.2396,0.0025"/><polyline points="-0.4153,-0.0324 0.2396,-0.0324"/><polyline points="-0.4153,-0.0673 0.2396,-0.0673"/></g></g></g><g class="axisbar"><g stroke-width="0" stroke="rgb(0%, 0%, 0%)" stroke-opacity="0" fill="rgb(5%, 5%, 5%)" fill-opacity="0.4"><rect width="0.0016" height="0.2452" x="-0.4210" y="-0.0678"/></g></g></g><g class="axis"><g class="ticks"><g class="tickglyph"><g stroke-width="0.0040" stroke="rgb(5%, 5%, 5%)" stroke-opacity="0.4" fill="rgb(5%, 5%, 5%)" fill-opacity="0.4"><polyline points="-0.3746,0.1994
-0.3746,0.1694"/><polyline points="-0.3587,0.1994
-0.3587,0.1694"/><polyline points="-0.3428,0.1994
-0.3428,0.1694"/><polyline points="-0.3268,0.1994
-0.3268,0.1694"/><polyline points="-0.3109,0.1994
-0.3109,0.1694"/><polyline points="-0.2950,0.1994
-0.2950,0.1694"/><polyline points="-0.2790,0.1994
-0.2790,0.1694"/><polyline points="-0.2631,0.1994
-0.2631,0.1694"/><polyline points="-0.2472,0.1994
-0.2472,0.1694"/><polyline points="-0.2312,0.1994
-0.2312,0.1694"/><polyline points="-0.2153,0.1994
-0.2153,0.1694"/><polyline points="-0.1994,0.1994
-0.1994,0.1694"/><polyline points="-0.1835,0.1994
-0.1835,0.1694"/><polyline points="-0.1675,0.1994
-0.1675,0.1694"/><polyline points="-0.1516,0.1994
-0.1516,0.1694"/><polyline points="-0.1357,0.1994
-0.1357,0.1694"/><polyline points="-0.1197,0.1994
-0.1197,0.1694"/><polyline points="-0.1038,0.1994
-0.1038,0.1694"/><polyline points="-0.0879,0.1994
-0.0879,0.1694"/><polyline points="-0.0719,0.1994
-0.0719,0.1694"/><polyline points="-0.0560,0.1994
-0.0560,0.1694"/><polyline points="-0.0401,0.1994
-0.0401,0.1694"/><polyline points="-0.0241,0.1994
-0.0241,0.1694"/><polyline points="-0.0082,0.1994
-0.0082,0.1694"/><polyline points="0.0077,0.1994
0.0077,0.1694"/><polyline points="0.0236,0.1994
0.0236,0.1694"/><polyline points="0.0396,0.1994
0.0396,0.1694"/><polyline points="0.0555,0.1994
0.0555,0.1694"/><polyline points="0.0714,0.1994
0.0714,0.1694"/><polyline points="0.0874,0.1994
0.0874,0.1694"/><polyline points="0.1033,0.1994
0.1033,0.1694"/><polyline points="0.1192,0.1994
0.1192,0.1694"/><polyline points="0.1352,0.1994
0.1352,0.1694"/><polyline points="0.1511,0.1994
0.1511,0.1694"/><polyline points="0.1670,0.1994
0.1670,0.1694"/><polyline points="0.1830,0.1994
0.1830,0.1694"/><polyline points="0.1989,0.1994
0.1989,0.1694"/></g></g><g class="ticktext"><g stroke-width="0.0" stroke="none" fill="rgb(5%, 5%, 5%)" fill-opacity="1.0" font-size="0.0202" text-anchor="end"><text x="-0.3746" y="0.1999" transform="rotate(-45.0, -0.3746, 0.1999)">CDCL (adaptive)</text><text x="-0.3587" y="0.1999" transform="rotate(-45.0, -0.3587, 0.1999)">CDCL (adaptive), Baseline</text><text x="-0.3428" y="0.1999" transform="rotate(-45.0, -0.3428, 0.1999)">CDCL (adaptive, mVISDS, ExpRestart(100, 2))</text><text x="-0.3268" y="0.1999" transform="rotate(-45.0, -0.3268, 0.1999)">CDCL (adaptive, mVISDS, ExpRestart(100, 2)), Baseline</text><text x="-0.3109" y="0.1999" transform="rotate(-45.0, -0.3109, 0.1999)">CDCL (adaptive, mVISDS, ExpRestart(100, 2), Clause Decay 0.999)</text><text x="-0.2950" y="0.1999" transform="rotate(-45.0, -0.2950, 0.1999)">CDCL (adaptive, mVISDS, LubyRestart(100, 2))</text><text x="-0.2790" y="0.1999" transform="rotate(-45.0, -0.2790, 0.1999)">CDCL (adaptive, mVISDS, LubyRestart(100, 2)), Baseline</text><text x="-0.2631" y="0.1999" transform="rotate(-45.0, -0.2631, 0.1999)">CDCL (adaptive, mVISDS, LubyRestart(100, 2), Clause Decay)</text><text x="-0.2472" y="0.1999" transform="rotate(-45.0, -0.2472, 0.1999)">CDCL (adaptive, mVSIDS)</text><text x="-0.2312" y="0.1999" transform="rotate(-45.0, -0.2312, 0.1999)">CDCL (adaptive, mVSIDS), Baseline</text><text x="-0.2153" y="0.1999" transform="rotate(-45.0, -0.2153, 0.1999)">CDCL (adaptive, mVSIDS, Clause Decay 0.999)</text><text x="-0.1994" y="0.1999" transform="rotate(-45.0, -0.1994, 0.1999)">CDCL (α = 0.75)</text><text x="-0.1835" y="0.1999" transform="rotate(-45.0, -0.1835, 0.1999)">CDCL (α = 0.75), Baseline</text><text x="-0.1675" y="0.1999" transform="rotate(-45.0, -0.1675, 0.1999)">CDCL (α = 0.75, mVISDS)</text><text x="-0.1516" y="0.1999" transform="rotate(-45.0, -0.1516, 0.1999)">CDCL (α = 0.75, mVISDS), Baseline</text><text x="-0.1357" y="0.1999" transform="rotate(-45.0, -0.1357, 0.1999)">CDCL (α = 0.75, mVISDS, Clause Decay 0.999)</text><text x="-0.1197" y="0.1999" transform="rotate(-45.0, -0.1197, 0.1999)">CDCL (α = 0.75, mVISDS, ExpRestart(100, 2))</text><text x="-0.1038" y="0.1999" transform="rotate(-45.0, -0.1038, 0.1999)">CDCL (α = 0.75, mVISDS, ExpRestart(100, 2)), Baseline</text><text x="-0.0879" y="0.1999" transform="rotate(-45.0, -0.0879, 0.1999)">CDCL (α = 0.75, mVISDS, ExpRestart(100, 2), Clause Decay 0.999)</text><text x="-0.0719" y="0.1999" transform="rotate(-45.0, -0.0719, 0.1999)">CDCL (α = 0.75, mVISDS, LubyRestart(100, 2))</text><text x="-0.0560" y="0.1999" transform="rotate(-45.0, -0.0560, 0.1999)">CDCL (α = 0.75, mVISDS, LubyRestart(100, 2)), Baseline</text><text x="-0.0401" y="0.1999" transform="rotate(-45.0, -0.0401, 0.1999)">CDCL (α = 0.75, mVISDS, LubyRestart(100, 2), Clause Decay 0.999)</text><text x="-0.0241" y="0.1999" transform="rotate(-45.0, -0.0241, 0.1999)">CDCL (α = 0.95)</text><text x="-0.0082" y="0.1999" transform="rotate(-45.0, -0.0082, 0.1999)">CDCL (α = 0.95), Baseline</text><text x="0.0077" y="0.1999" transform="rotate(-45.0, 0.0077, 0.1999)">CDCL (α = 0.95, mVISDS)</text><text x="0.0236" y="0.1999" transform="rotate(-45.0, 0.0236, 0.1999)">CDCL (α = 0.95, mVISDS), Baseline</text><text x="0.0396" y="0.1999" transform="rotate(-45.0, 0.0396, 0.1999)">CDCL (α = 0.95, mVISDS, Clause Decay 0.999)</text><text x="0.0555" y="0.1999" transform="rotate(-45.0, 0.0555, 0.1999)">CDCL (α = 0.95, mVISDS, ExpRestart(100, 2))</text><text x="0.0714" y="0.1999" transform="rotate(-45.0, 0.0714, 0.1999)">CDCL (α = 0.95, mVISDS, ExpRestart(100, 2)), Baseline</text><text x="0.0874" y="0.1999" transform="rotate(-45.0, 0.0874, 0.1999)">CDCL (α = 0.95, mVISDS, ExpRestart(100, 2), Clause Decay 0.999)</text><text x="0.1033" y="0.1999" transform="rotate(-45.0, 0.1033, 0.1999)">CDCL (α = 0.95, mVISDS, LubyRestart(100, 2))</text><text x="0.1192" y="0.1999" transform="rotate(-45.0, 0.1192, 0.1999)">CDCL (α = 0.95, mVISDS, LubyRestart(100, 2)), Baseline</text><text x="0.1352" y="0.1999" transform="rotate(-45.0, 0.1352, 0.1999)">CDCL (α = 0.95, mVISDS, LubyRestart(100, 2), Clause Decay 0.999)</text><text x="0.1511" y="0.1999" transform="rotate(-45.0, 0.1511, 0.1999)">DPLL</text><text x="0.1670" y="0.1999" transform="rotate(-45.0, 0.1670, 0.1999)">DPLL, Baseline</text><text x="0.1830" y="0.1999" transform="rotate(-45.0, 0.1830, 0.1999)">tableaux</text><text x="0.1989" y="0.1999" transform="rotate(-45.0, 0.1989, 0.1999)">tableaux, Baseline</text></g></g></g><g class="axisbar"><g stroke-width="0" stroke="rgb(0%, 0%, 0%)" stroke-opacity="0" fill="rgb(5%, 5%, 5%)" fill-opacity="0.4"><rect width="0.6566" height="0.0010" x="-0.4161" y="0.1795"/></g></g></g><g class="title"><g stroke-width="0.0" stroke="none" fill="rgb(5%, 5%, 5%)" fill-opacity="1.0" font-size="0.0486" text-anchor="middle"><text x="-0.2437" y="-0.0923">Time: huge/10/cnf</text></g></g><g class="legend"><g class="legendBorder"><g stroke-width="0.0017" stroke="rgb(5%, 5%, 5%)" stroke-opacity="1.0" fill="rgb(5%, 5%, 5%)" fill-opacity="0"><rect width="0.4168" height="0.6379" x="0.3098" y="-0.4503"/></g></g><g class="legendContent"><g stroke-width="0.0" stroke="none" fill="rgb(5%, 5%, 5%)" fill-opacity="1.0" font-size="0.0128" text-anchor="start"><text x="0.3169" y="0.1788">tableaux, Baseline</text></g><g stroke-width="0.0002" stroke="rgb(69%, 16%, 76%)" stroke-opacity="1.0" fill="rgb(69%, 16%, 76%)" fill-opacity="0.25"><rect width="0.0213" height="0.0128" x="0.6983" y="0.1705"/></g><g stroke-width="0.0" stroke="none" fill="rgb(5%, 5%, 5%)" fill-opacity="1.0" font-size="0.0128" text-anchor="start"><text x="0.3169" y="0.1617">tableaux</text></g><g stroke-width="0" stroke="rgb(2%, 29%, 48%)" stroke-opacity="1.0" fill="rgb(69%, 16%, 76%)" fill-opacity="1.0"><rect width="0.0213" height="0.0128" x="0.6983" y="0.1534"/></g><g stroke-width="0.0" stroke="none" fill="rgb(5%, 5%, 5%)" fill-opacity="1.0" font-size="0.0128" text-anchor="start"><text x="0.3169" y="0.1446">DPLL, Baseline</text></g><g stroke-width="0.0002" stroke="rgb(0%, 49%, 30%)" stroke-opacity="1.0" fill="rgb(0%, 49%, 30%)" fill-opacity="0.25"><rect width="0.0213" height="0.0128" x="0.6983" y="0.1363"/></g><g stroke-width="0.0" stroke="none" fill="rgb(5%, 5%, 5%)" fill-opacity="1.0" font-size="0.0128" text-anchor="start"><text x="0.3169" y="0.1274">DPLL</text></g><g stroke-width="0" stroke="rgb(2%, 29%, 48%)" stroke-opacity="1.0" fill="rgb(0%, 49%, 30%)" fill-opacity="1.0"><rect width="0.0213" height="0.0128" x="0.6983" y="0.1191"/></g><g stroke-width="0.0" stroke="none" fill="rgb(5%, 5%, 5%)" fill-opacity="1.0" font-size="0.0128" text-anchor="start"><text x="0.3169" y="0.1103">CDCL (α = 0.95, mVISDS, LubyRestart(100, 2), Clause Decay 0.999)</text></g><g stroke-width="0" stroke="rgb(2%, 29%, 48%)" stroke-opacity="1.0" fill="rgb(0%, 38%, 61%)" fill-opacity="1.0"><rect width="0.0213" height="0.0128" x="0.6983" y="0.1020"/></g><g stroke-width="0.0" stroke="none" fill="rgb(5%, 5%, 5%)" fill-opacity="1.0" font-size="0.0128" text-anchor="start"><text x="0.3169" y="0.0932">CDCL (α = 0.95, mVISDS, LubyRestart(100, 2)), Baseline</text></g><g stroke-width="0.0002" stroke="rgb(100%, 37%, 0%)" stroke-opacity="1.0" fill="rgb(100%, 37%, 0%)" fill-opacity="0.25"><rect width="0.0213" height="0.0128" x="0.6983" y="0.0849"/></g><g stroke-width="0.0" stroke="none" fill="rgb(5%, 5%, 5%)" fill-opacity="1.0" font-size="0.0128" text-anchor="start"><text x="0.3169" y="0.0761">CDCL (α = 0.95, mVISDS, LubyRestart(100, 2))</text></g><g stroke-width="0" stroke="rgb(2%, 29%, 48%)" stroke-opacity="1.0" fill="rgb(100%, 37%, 0%)" fill-opacity="1.0"><rect width="0.0213" height="0.0128" x="0.6983" y="0.0677"/></g><g stroke-width="0.0" stroke="none" fill="rgb(5%, 5%, 5%)" fill-opacity="1.0" font-size="0.0128" text-anchor="start"><text x="0.3169" y="0.0590">CDCL (α = 0.95, mVISDS, ExpRestart(100, 2), Clause Decay 0.999)</text></g><g stroke-width="0" stroke="rgb(2%, 29%, 48%)" stroke-opacity="1.0" fill="rgb(54%, 0%, 0%)" fill-opacity="1.0"><rect width="0.0213" height="0.0128" x="0.6983" y="0.0506"/></g><g stroke-width="0.0" stroke="none" fill="rgb(5%, 5%, 5%)" fill-opacity="1.0" font-size="0.0128" text-anchor="start"><text x="0.3169" y="0.0418">CDCL (α = 0.95, mVISDS, ExpRestart(100, 2)), Baseline</text></g><g stroke-width="0.0002" stroke="rgb(42%, 44%, 14%)" stroke-opacity="1.0" fill="rgb(42%, 44%, 14%)" fill-opacity="0.25"><rect width="0.0213" height="0.0128" x="0.6983" y="0.0335"/></g><g stroke-width="0.0" stroke="none" fill="rgb(5%, 5%, 5%)" fill-opacity="1.0" font-size="0.0128" text-anchor="start"><text x="0.3169" y="0.0247">CDCL (α = 0.95, mVISDS, ExpRestart(100, 2))</text></g><g stroke-width="0" stroke="rgb(2%, 29%, 48%)" stroke-opacity="1.0" fill="rgb(42%, 44%, 14%)" fill-opacity="1.0"><rect width="0.0213" height="0.0128" x="0.6983" y="0.0164"/></g><g stroke-width="0.0" stroke="none" fill="rgb(5%, 5%, 5%)" fill-opacity="1.0" font-size="0.0128" text-anchor="start"><text x="0.3169" y="0.0076">CDCL (α = 0.95, mVISDS, Clause Decay 0.999)</text></g><g stroke-width="0" stroke="rgb(2%, 29%, 48%)" stroke-opacity="1.0" fill="rgb(18%, 22%, 10%)" fill-opacity="1.0"><rect width="0.0213" height="0.0128" x="0.6983" y="-0.0008"/></g><g stroke-width="0.0" stroke="none" fill="rgb(5%, 5%, 5%)" fill-opacity="1.0" font-size="0.0128" text-anchor="start"><text x="0.3169" y="-0.0095">CDCL (α = 0.95, mVISDS), Baseline</text></g><g stroke-width="0.0002" stroke="rgb(0%, 42%, 48%)" stroke-opacity="1.0" fill="rgb(0%, 42%, 48%)" fill-opacity="0.25"><rect width="0.0213" height="0.0128" x="0.6983" y="-0.0179"/></g><g stroke-width="0.0" stroke="none" fill="rgb(5%, 5%, 5%)" fill-opacity="1.0" font-size="0.0128" text-anchor="start"><text x="0.3169" y="-0.0267">CDCL (α = 0.95, mVISDS)</text></g><g stroke-width="0" stroke="rgb(2%, 29%, 48%)" stroke-opacity="1.0" fill="rgb(0%, 42%, 48%)" fill-opacity="1.0"><rect width="0.0213" height="0.0128" x="0.6983" y="-0.0350"/></g><g stroke-width="0.0" stroke="none" fill="rgb(5%, 5%, 5%)" fill-opacity="1.0" font-size="0.0128" text-anchor="start"><text x="0.3169" y="-0.0438">CDCL (α = 0.95), Baseline</text></g><g stroke-width="0.0002" stroke="rgb(69%, 17%, 0%)" stroke-opacity="1.0" fill="rgb(69%, 17%, 0%)" fill-opacity="0.25"><rect width="0.0213" height="0.0128" x="0.6983" y="-0.0521"/></g><g stroke-width="0.0" stroke="none" fill="rgb(5%, 5%, 5%)" fill-opacity="1.0" font-size="0.0128" text-anchor="start"><text x="0.3169" y="-0.0609">CDCL (α = 0.95)</text></g><g stroke-width="0" stroke="rgb(2%, 29%, 48%)" stroke-opacity="1.0" fill="rgb(69%, 17%, 0%)" fill-opacity="1.0"><rect width="0.0213" height="0.0128" x="0.6983" y="-0.0693"/></g><g stroke-width="0.0" stroke="none" fill="rgb(5%, 5%, 5%)" fill-opacity="1.0" font-size="0.0128" text-anchor="start"><text x="0.3169" y="-0.0780">CDCL (α = 0.75, mVISDS, LubyRestart(100, 2), Clause Decay 0.999)</text></g><g stroke-width="0" stroke="rgb(2%, 29%, 48%)" stroke-opacity="1.0" fill="rgb(53%, 24%, 0%)" fill-opacity="1.0"><rect width="0.0213" height="0.0128" x="0.6983" y="-0.0864"/></g><g stroke-width="0.0" stroke="none" fill="rgb(5%, 5%, 5%)" fill-opacity="1.0" font-size="0.0128" text-anchor="start"><text x="0.3169" y="-0.0952">CDCL (α = 0.75, mVISDS, LubyRestart(100, 2)), Baseline</text></g><g stroke-width="0.0002" stroke="rgb(57%, 62%, 78%)" stroke-opacity="1.0" fill="rgb(57%, 62%, 78%)" fill-opacity="0.25"><rect width="0.0213" height="0.0128" x="0.6983" y="-0.1035"/></g><g stroke-width="0.0" stroke="none" fill="rgb(5%, 5%, 5%)" fill-opacity="1.0" font-size="0.0128" text-anchor="start"><text x="0.3169" y="-0.1123">CDCL (α = 0.75, mVISDS, LubyRestart(100, 2))</text></g><g stroke-width="0" stroke="rgb(2%, 29%, 48%)" stroke-opacity="1.0" fill="rgb(57%, 62%, 78%)" fill-opacity="1.0"><rect width="0.0213" height="0.0128" x="0.6983" y="-0.1206"/></g><g stroke-width="0.0" stroke="none" fill="rgb(5%, 5%, 5%)" fill-opacity="1.0" font-size="0.0128" text-anchor="start"><text x="0.3169" y="-0.1294">CDCL (α = 0.75, mVISDS, ExpRestart(100, 2), Clause Decay 0.999)</text></g><g stroke-width="0" stroke="rgb(2%, 29%, 48%)" stroke-opacity="1.0" fill="rgb(98%, 15%, 25%)" fill-opacity="1.0"><rect width="0.0213" height="0.0128" x="0.6983" y="-0.1378"/></g><g stroke-width="0.0" stroke="none" fill="rgb(5%, 5%, 5%)" fill-opacity="1.0" font-size="0.0128" text-anchor="start"><text x="0.3169" y="-0.1465">CDCL (α = 0.75, mVISDS, ExpRestart(100, 2)), Baseline</text></g><g stroke-width="0.0002" stroke="rgb(0%, 72%, 67%)" stroke-opacity="1.0" fill="rgb(0%, 72%, 67%)" fill-opacity="0.25"><rect width="0.0213" height="0.0128" x="0.6983" y="-0.1549"/></g><g stroke-width="0.0" stroke="none" fill="rgb(5%, 5%, 5%)" fill-opacity="1.0" font-size="0.0128" text-anchor="start"><text x="0.3169" y="-0.1637">CDCL (α = 0.75, mVISDS, ExpRestart(100, 2))</text></g><g stroke-width="0" stroke="rgb(2%, 29%, 48%)" stroke-opacity="1.0" fill="rgb(0%, 72%, 67%)" fill-opacity="1.0"><rect width="0.0213" height="0.0128" x="0.6983" y="-0.1720"/></g><g stroke-width="0.0" stroke="none" fill="rgb(5%, 5%, 5%)" fill-opacity="1.0" font-size="0.0128" text-anchor="start"><text x="0.3169" y="-0.1808">CDCL (α = 0.75, mVISDS, Clause Decay 0.999)</text></g><g stroke-width="0" stroke="rgb(2%, 29%, 48%)" stroke-opacity="1.0" fill="rgb(35%, 24%, 0%)" fill-opacity="1.0"><rect width="0.0213" height="0.0128" x="0.6983" y="-0.1891"/></g><g stroke-width="0.0" stroke="none" fill="rgb(5%, 5%, 5%)" fill-opacity="1.0" font-size="0.0128" text-anchor="start"><text x="0.3169" y="-0.1979">CDCL (α = 0.75, mVISDS), Baseline</text></g><g stroke-width="0.0002" stroke="rgb(48%, 65%, 0%)" stroke-opacity="1.0" fill="rgb(48%, 65%, 0%)" fill-opacity="0.25"><rect width="0.0213" height="0.0128" x="0.6983" y="-0.2062"/></g><g stroke-width="0.0" stroke="none" fill="rgb(5%, 5%, 5%)" fill-opacity="1.0" font-size="0.0128" text-anchor="start"><text x="0.3169" y="-0.2151">CDCL (α = 0.75, mVISDS)</text></g><g stroke-width="0" stroke="rgb(2%, 29%, 48%)" stroke-opacity="1.0" fill="rgb(48%, 65%, 0%)" fill-opacity="1.0"><rect width="0.0213" height="0.0128" x="0.6983" y="-0.2234"/></g><g stroke-width="0.0" stroke="none" fill="rgb(5%, 5%, 5%)" fill-opacity="1.0" font-size="0.0128" text-anchor="start"><text x="0.3169" y="-0.2322">CDCL (α = 0.75), Baseline</text></g><g stroke-width="0.0002" stroke="rgb(20%, 15%, 40%)" stroke-opacity="1.0" fill="rgb(20%, 15%, 40%)" fill-opacity="0.25"><rect width="0.0213" height="0.0128" x="0.6983" y="-0.2405"/></g><g stroke-width="0.0" stroke="none" fill="rgb(5%, 5%, 5%)" fill-opacity="1.0" font-size="0.0128" text-anchor="start"><text x="0.3169" y="-0.2493">CDCL (α = 0.75)</text></g><g stroke-width="0" stroke="rgb(2%, 29%, 48%)" stroke-opacity="1.0" fill="rgb(20%, 15%, 40%)" fill-opacity="1.0"><rect width="0.0213" height="0.0128" x="0.6983" y="-0.2576"/></g><g stroke-width="0.0" stroke="none" fill="rgb(5%, 5%, 5%)" fill-opacity="1.0" font-size="0.0128" text-anchor="start"><text x="0.3169" y="-0.2664">CDCL (adaptive, mVSIDS, Clause Decay 0.999)</text></g><g stroke-width="0" stroke="rgb(2%, 29%, 48%)" stroke-opacity="1.0" fill="rgb(37%, 17%, 0%)" fill-opacity="1.0"><rect width="0.0213" height="0.0128" x="0.6983" y="-0.2748"/></g><g stroke-width="0.0" stroke="none" fill="rgb(5%, 5%, 5%)" fill-opacity="1.0" font-size="0.0128" text-anchor="start"><text x="0.3169" y="-0.2835">CDCL (adaptive, mVSIDS), Baseline</text></g><g stroke-width="0.0002" stroke="rgb(72%, 66%, 0%)" stroke-opacity="1.0" fill="rgb(72%, 66%, 0%)" fill-opacity="0.25"><rect width="0.0213" height="0.0128" x="0.6983" y="-0.2919"/></g><g stroke-width="0.0" stroke="none" fill="rgb(5%, 5%, 5%)" fill-opacity="1.0" font-size="0.0128" text-anchor="start"><text x="0.3169" y="-0.3007">CDCL (adaptive, mVSIDS)</text></g><g stroke-width="0" stroke="rgb(2%, 29%, 48%)" stroke-opacity="1.0" fill="rgb(72%, 66%, 0%)" fill-opacity="1.0"><rect width="0.0213" height="0.0128" x="0.6983" y="-0.3090"/></g><g stroke-width="0.0" stroke="none" fill="rgb(5%, 5%, 5%)" fill-opacity="1.0" font-size="0.0128" text-anchor="start"><text x="0.3169" y="-0.3178">CDCL (adaptive, mVISDS, LubyRestart(100, 2), Clause Decay)</text></g><g stroke-width="0" stroke="rgb(2%, 29%, 48%)" stroke-opacity="1.0" fill="rgb(0%, 21%, 55%)" fill-opacity="1.0"><rect width="0.0213" height="0.0128" x="0.6983" y="-0.3261"/></g><g stroke-width="0.0" stroke="none" fill="rgb(5%, 5%, 5%)" fill-opacity="1.0" font-size="0.0128" text-anchor="start"><text x="0.3169" y="-0.3349">CDCL (adaptive, mVISDS, LubyRestart(100, 2)), Baseline</text></g><g stroke-width="0.0002" stroke="rgb(0%, 36%, 0%)" stroke-opacity="1.0" fill="rgb(0%, 36%, 0%)" fill-opacity="0.25"><rect width="0.0213" height="0.0128" x="0.6983" y="-0.3433"/></g><g stroke-width="0.0" stroke="none" fill="rgb(5%, 5%, 5%)" fill-opacity="1.0" font-size="0.0128" text-anchor="start"><text x="0.3169" y="-0.3521">CDCL (adaptive, mVISDS, LubyRestart(100, 2))</text></g><g stroke-width="0" stroke="rgb(2%, 29%, 48%)" stroke-opacity="1.0" fill="rgb(0%, 36%, 0%)" fill-opacity="1.0"><rect width="0.0213" height="0.0128" x="0.6983" y="-0.3604"/></g><g stroke-width="0.0" stroke="none" fill="rgb(5%, 5%, 5%)" fill-opacity="1.0" font-size="0.0128" text-anchor="start"><text x="0.3169" y="-0.3692">CDCL (adaptive, mVISDS, ExpRestart(100, 2), Clause Decay 0.999)</text></g><g stroke-width="0" stroke="rgb(2%, 29%, 48%)" stroke-opacity="1.0" fill="rgb(70%, 21%, 0%)" fill-opacity="1.0"><rect width="0.0213" height="0.0128" x="0.6983" y="-0.3775"/></g><g stroke-width="0.0" stroke="none" fill="rgb(5%, 5%, 5%)" fill-opacity="1.0" font-size="0.0128" text-anchor="start"><text x="0.3169" y="-0.3863">CDCL (adaptive, mVISDS, ExpRestart(100, 2)), Baseline</text></g><g stroke-width="0.0002" stroke="rgb(47%, 34%, 0%)" stroke-opacity="1.0" fill="rgb(47%, 34%, 0%)" fill-opacity="0.25"><rect width="0.0213" height="0.0128" x="0.6983" y="-0.3946"/></g><g stroke-width="0.0" stroke="none" fill="rgb(5%, 5%, 5%)" fill-opacity="1.0" font-size="0.0128" text-anchor="start"><text x="0.3169" y="-0.4034">CDCL (adaptive, mVISDS, ExpRestart(100, 2))</text></g><g stroke-width="0" stroke="rgb(2%, 29%, 48%)" stroke-opacity="1.0" fill="rgb(47%, 34%, 0%)" fill-opacity="1.0"><rect width="0.0213" height="0.0128" x="0.6983" y="-0.4118"/></g><g stroke-width="0.0" stroke="none" fill="rgb(5%, 5%, 5%)" fill-opacity="1.0" font-size="0.0128" text-anchor="start"><text x="0.3169" y="-0.4206">CDCL (adaptive), Baseline</text></g><g stroke-width="0.0002" stroke="rgb(57%, 0%, 21%)" stroke-opacity="1.0" fill="rgb(57%, 0%, 21%)" fill-opacity="0.25"><rect width="0.0213" height="0.0128" x="0.6983" y="-0.4289"/></g><g stroke-width="0.0" stroke="none" fill="rgb(5%, 5%, 5%)" fill-opacity="1.0" font-size="0.0128" text-anchor="start"><text x="0.3169" y="-0.4377">CDCL (adaptive)</text></g><g stroke-width="0" stroke="rgb(2%, 29%, 48%)" stroke-opacity="1.0" fill="rgb(57%, 0%, 21%)" fill-opacity="1.0"><rect width="0.0213" height="0.0128" x="0.6983" y="-0.4460"/></g></g></g><g class="frame"><g stroke-width="0" stroke="rgb(0%, 0%, 0%)" stroke-opacity="0" fill="rgb(100%, 100%, 100%)" fill-opacity="0.02"><rect width="1.6180" height="1.0" x="-0.8090" y="-0.5"/></g></g><g class="title"><g stroke-width="0.0" stroke="none" fill="rgb(5%, 5%, 5%)" fill-opacity="1.0" font-size="0.0243" text-anchor="middle"><text x="-0.7515" y="0" transform="rotate(-90.0, -0.7515, 0)">Time [ms]</text></g></g></g></svg>