<svg xmlns="http://www.w3.org/2000/svg" xmlns:xlink="http://www.w3.org/1999/xlink" width="461" height="300" viewBox="-0.8090 -0.5 1.6180 1.0518"><style>svg {
  color-scheme: light dark;
}
{
  .canvas g, .title g, .axisbar g, .ticktext g, .tickglyph g, .ticklines g, .legendContent g text {
    fill: rgb(5%, 5%, 5%);
  }
  .ticklines g, .tickglyph g, .legendBorder g {
    stroke: rgb(5%, 5%, 5%);
  }
  .legendBorder g {
    fill: rgb(94%, 94%, 94%);
  }
}
@media (prefers-color-scheme:dark) {
  .canvas g, .title g, .axisbar g, .ticktext g, .tickglyph g, .ticklines g, .legendContent g text {
    fill: rgb(94%, 94%, 94%);
  }
  .ticklines g, .tickglyph g, .legendBorder g {
    stroke: rgb(94%, 94%, 94%);
  }
  .legendBorder g {
    fill: rgb(5%, 5%, 5%);
  }
}</style><g class="chart"><g class="barchart"><g stroke-width="0" stroke="rgb(2%, 29%, 48%)" stroke-opacity="1.0" fill="rgb(0%, 30%, 12%)" fill-opacity="1.0"><rect width="0.0322" height="0.0046" x="-0.5530" y="0.0919"/></g><g stroke-width="0.0010" stroke="rgb(0%, 30%, 12%)" stroke-opacity="1.0" fill="rgb(0%, 30%, 12%)" fill-opacity="0.25"><rect width="0.0322" height="0.0057" x="-0.5208" y="0.0908"/></g><g stroke-width="0" stroke="rgb(2%, 29%, 48%)" stroke-opacity="1.0" fill="rgb(1%, 28%, 43%)" fill-opacity="1.0"><rect width="0.0322" height="0.0498" x="-0.4886" y="0.0466"/></g><g stroke-width="0.0010" stroke="rgb(1%, 28%, 43%)" stroke-opacity="1.0" fill="rgb(1%, 28%, 43%)" fill-opacity="0.25"><rect width="0.0322" height="0.0576" x="-0.4565" y="0.0389"/></g><g stroke-width="0" stroke="rgb(2%, 29%, 48%)" stroke-opacity="1.0" fill="rgb(0%, 72%, 98%)" fill-opacity="1.0"><rect width="0.0322" height="0.0141" x="-0.4243" y="0.0824"/></g><g stroke-width="0.0010" stroke="rgb(0%, 72%, 98%)" stroke-opacity="1.0" fill="rgb(0%, 72%, 98%)" fill-opacity="0.25"><rect width="0.0322" height="0.0168" x="-0.3921" y="0.0796"/></g><g stroke-width="0" stroke="rgb(2%, 29%, 48%)" stroke-opacity="1.0" fill="rgb(90%, 37%, 58%)" fill-opacity="1.0"><rect width="0.0322" height="0.0125" x="-0.3600" y="0.0840"/></g><g stroke-width="0.0010" stroke="rgb(90%, 37%, 58%)" stroke-opacity="1.0" fill="rgb(90%, 37%, 58%)" fill-opacity="0.25"><rect width="0.0322" height="0.0150" x="-0.3278" y="0.0815"/></g><g stroke-width="0" stroke="rgb(2%, 29%, 48%)" stroke-opacity="1.0" fill="rgb(38%, 23%, 0%)" fill-opacity="1.0"><rect width="0.0322" height="0.0308" x="-0.2956" y="0.0656"/></g><g stroke-width="0.0010" stroke="rgb(38%, 23%, 0%)" stroke-opacity="1.0" fill="rgb(38%, 23%, 0%)" fill-opacity="0.25"><rect width="0.0322" height="0.0358" x="-0.2634" y="0.0607"/></g><g stroke-width="0" stroke="rgb(2%, 29%, 48%)" stroke-opacity="1.0" fill="rgb(91%, 19%, 0%)" fill-opacity="1.0"><rect width="0.0322" height="0.0302" x="-0.2313" y="0.0662"/></g><g stroke-width="0.0010" stroke="rgb(91%, 19%, 0%)" stroke-opacity="1.0" fill="rgb(91%, 19%, 0%)" fill-opacity="0.25"><rect width="0.0322" height="0.0359" x="-0.1991" y="0.0606"/></g><g stroke-width="0" stroke="rgb(2%, 29%, 48%)" stroke-opacity="1.0" fill="rgb(0%, 64%, 70%)" fill-opacity="1.0"><rect width="0.0322" height="0.0046" x="-0.1669" y="0.0918"/></g><g stroke-width="0.0010" stroke="rgb(0%, 64%, 70%)" stroke-opacity="1.0" fill="rgb(0%, 64%, 70%)" fill-opacity="0.25"><rect width="0.0322" height="0.0058" x="-0.1347" y="0.0906"/></g><g stroke-width="0" stroke="rgb(2%, 29%, 48%)" stroke-opacity="1.0" fill="rgb(91%, 47%, 0%)" fill-opacity="1.0"><rect width="0.0322" height="0.0186" x="-0.1026" y="0.0778"/></g><g stroke-width="0.0010" stroke="rgb(91%, 47%, 0%)" stroke-opacity="1.0" fill="rgb(91%, 47%, 0%)" fill-opacity="0.25"><rect width="0.0322" height="0.0210" x="-0.0704" y="0.0755"/></g><g stroke-width="0" stroke="rgb(2%, 29%, 48%)" stroke-opacity="1.0" fill="rgb(62%, 0%, 31%)" fill-opacity="1.0"><rect width="0.0322" height="0.0121" x="-0.0382" y="0.0843"/></g><g stroke-width="0.0010" stroke="rgb(62%, 0%, 31%)" stroke-opacity="1.0" fill="rgb(62%, 0%, 31%)" fill-opacity="0.25"><rect width="0.0322" height="0.0145" x="-0.0060" y="0.0819"/></g><g stroke-width="0" stroke="rgb(2%, 29%, 48%)" stroke-opacity="1.0" fill="rgb(17%, 40%, 67%)" fill-opacity="1.0"><rect width="0.0322" height="0.0121" x="0.0261" y="0.0844"/></g><g stroke-width="0.0010" stroke="rgb(17%, 40%, 67%)" stroke-opacity="1.0" fill="rgb(17%, 40%, 67%)" fill-opacity="0.25"><rect width="0.0322" height="0.0144" x="0.0583" y="0.0821"/></g><g stroke-width="0" stroke="rgb(2%, 29%, 48%)" stroke-opacity="1.0" fill="rgb(0%, 52%, 40%)" fill-opacity="1.0"><rect width="0.0322" height="0.3467" x="0.0905" y="-0.2502"/></g><g stroke-width="0.0010" stroke="rgb(0%, 52%, 40%)" stroke-opacity="1.0" fill="rgb(0%, 52%, 40%)" fill-opacity="0.25"><rect width="0.0322" height="0.3425" x="0.1226" y="-0.2461"/></g></g><g class="errors"></g></g><g class="hud"><g class="axis"><g class="ticks"><g class="tickglyph"><g stroke-width="0.0040" stroke="rgb(5%, 5%, 5%)" stroke-opacity="0.4" fill="rgb(5%, 5%, 5%)" fill-opacity="0.4"><g transform="rotate(-90.0, -0.6069, 0.0965)"><polyline points="-0.6069,0.1115
-0.6069,0.0815"/></g><g transform="rotate(-90.0, -0.6069, 0.0387)"><polyline points="-0.6069,0.0537
-0.6069,0.0237"/></g><g transform="rotate(-90.0, -0.6069, -0.0191)"><polyline points="-0.6069,-0.0041
-0.6069,-0.0341"/></g><g transform="rotate(-90.0, -0.6069, -0.0769)"><polyline points="-0.6069,-0.0619
-0.6069,-0.0919"/></g><g transform="rotate(-90.0, -0.6069, -0.1347)"><polyline points="-0.6069,-0.1197
-0.6069,-0.1497"/></g><g transform="rotate(-90.0, -0.6069, -0.1925)"><polyline points="-0.6069,-0.1775
-0.6069,-0.2075"/></g><g transform="rotate(-90.0, -0.6069, -0.2503)"><polyline points="-0.6069,-0.2353
-0.6069,-0.2653"/></g></g></g><g class="ticktext"><g stroke-width="0.0" stroke="none" fill="rgb(5%, 5%, 5%)" fill-opacity="1.0" font-size="0.0243" text-anchor="end"><text x="-0.6244" y="0.1012">0.0</text><text x="-0.6244" y="0.0434">0.2</text><text x="-0.6244" y="-0.0144">0.4</text><text x="-0.6244" y="-0.0722">0.6</text><text x="-0.6244" y="-0.1300">0.8</text><text x="-0.6244" y="-0.1877">1.0</text><text x="-0.6244" y="-0.2455">1.2</text></g></g><g class="ticklines"><g stroke-width="0.0050" stroke="rgb(5%, 5%, 5%)" stroke-opacity="0.05" fill="none"><polyline points="-0.5923,0.0965 0.1941,0.0965"/><polyline points="-0.5923,0.0387 0.1941,0.0387"/><polyline points="-0.5923,-0.0191 0.1941,-0.0191"/><polyline points="-0.5923,-0.0769 0.1941,-0.0769"/><polyline points="-0.5923,-0.1347 0.1941,-0.1347"/><polyline points="-0.5923,-0.1925 0.1941,-0.1925"/><polyline points="-0.5923,-0.2503 0.1941,-0.2503"/></g></g></g><g class="axisbar"><g stroke-width="0" stroke="rgb(0%, 0%, 0%)" stroke-opacity="0" fill="rgb(5%, 5%, 5%)" fill-opacity="0.4"><rect width="0.0019" height="0.3482" x="-0.5991" y="-0.2510"/></g></g></g><g class="axis"><g class="ticks"><g class="tickglyph"><g stroke-width="0.0040" stroke="rgb(5%, 5%, 5%)" stroke-opacity="0.4" fill="rgb(5%, 5%, 5%)" fill-opacity="0.4"><polyline points="-0.5369,0.1220
-0.5369,0.0920"/><polyline points="-0.5047,0.1220
-0.5047,0.0920"/><polyline points="-0.4726,0.1220
-0.4726,0.0920"/><polyline points="-0.4404,0.1220
-0.4404,0.0920"/><polyline points="-0.4082,0.1220
-0.4082,0.0920"/><polyline points="-0.3760,0.1220
-0.3760,0.0920"/><polyline points="-0.3439,0.1220
-0.3439,0.0920"/><polyline points="-0.3117,0.1220
-0.3117,0.0920"/><polyline points="-0.2795,0.1220
-0.2795,0.0920"/><polyline points="-0.2473,0.1220
-0.2473,0.0920"/><polyline points="-0.2152,0.1220
-0.2152,0.0920"/><polyline points="-0.1830,0.1220
-0.1830,0.0920"/><polyline points="-0.1508,0.1220
-0.1508,0.0920"/><polyline points="-0.1187,0.1220
-0.1187,0.0920"/><polyline points="-0.0865,0.1220
-0.0865,0.0920"/><polyline points="-0.0543,0.1220
-0.0543,0.0920"/><polyline points="-0.0221,0.1220
-0.0221,0.0920"/><polyline points="0.0100,0.1220
0.0100,0.0920"/><polyline points="0.0422,0.1220
0.0422,0.0920"/><polyline points="0.0744,0.1220
0.0744,0.0920"/><polyline points="0.1066,0.1220
0.1066,0.0920"/><polyline points="0.1387,0.1220
0.1387,0.0920"/></g></g><g class="ticktext"><g stroke-width="0.0" stroke="none" fill="rgb(5%, 5%, 5%)" fill-opacity="1.0" font-size="0.0243" text-anchor="end"><text x="-0.5369" y="0.1291" transform="rotate(-45.0, -0.5369, 0.1291)">CDCL (adaptive)</text><text x="-0.5047" y="0.1291" transform="rotate(-45.0, -0.5047, 0.1291)">CDCL (adaptive), Baseline</text><text x="-0.4726" y="0.1291" transform="rotate(-45.0, -0.4726, 0.1291)">CDCL (adaptive, mVSIDS)</text><text x="-0.4404" y="0.1291" transform="rotate(-45.0, -0.4404, 0.1291)">CDCL (adaptive, mVSIDS), Baseline</text><text x="-0.4082" y="0.1291" transform="rotate(-45.0, -0.4082, 0.1291)">CDCL (α = 0.75)</text><text x="-0.3760" y="0.1291" transform="rotate(-45.0, -0.3760, 0.1291)">CDCL (α = 0.75), Baseline</text><text x="-0.3439" y="0.1291" transform="rotate(-45.0, -0.3439, 0.1291)">CDCL (α = 0.75, mVISDS)</text><text x="-0.3117" y="0.1291" transform="rotate(-45.0, -0.3117, 0.1291)">CDCL (α = 0.75, mVISDS), Baseline</text><text x="-0.2795" y="0.1291" transform="rotate(-45.0, -0.2795, 0.1291)">CDCL (α = 0.75, mVISDS, ExpRestart(100, 2))</text><text x="-0.2473" y="0.1291" transform="rotate(-45.0, -0.2473, 0.1291)">CDCL (α = 0.75, mVISDS, ExpRestart(100, 2)), Baseline</text><text x="-0.2152" y="0.1291" transform="rotate(-45.0, -0.2152, 0.1291)">CDCL (α = 0.75, mVISDS, LubyRestart(100, 2))</text><text x="-0.1830" y="0.1291" transform="rotate(-45.0, -0.1830, 0.1291)">CDCL (α = 0.75, mVISDS, LubyRestart(100, 2)), Baseline</text><text x="-0.1508" y="0.1291" transform="rotate(-45.0, -0.1508, 0.1291)">CDCL (α = 0.95)</text><text x="-0.1187" y="0.1291" transform="rotate(-45.0, -0.1187, 0.1291)">CDCL (α = 0.95), Baseline</text><text x="-0.0865" y="0.1291" transform="rotate(-45.0, -0.0865, 0.1291)">CDCL (α = 0.95, mVISDS)</text><text x="-0.0543" y="0.1291" transform="rotate(-45.0, -0.0543, 0.1291)">CDCL (α = 0.95, mVISDS), Baseline</text><text x="-0.0221" y="0.1291" transform="rotate(-45.0, -0.0221, 0.1291)">CDCL (α = 0.95, mVISDS, ExpRestart(100, 2))</text><text x="0.0100" y="0.1291" transform="rotate(-45.0, 0.0100, 0.1291)">CDCL (α = 0.95, mVISDS, ExpRestart(100, 2)), Baseline</text><text x="0.0422" y="0.1291" transform="rotate(-45.0, 0.0422, 0.1291)">CDCL (α = 0.95, mVISDS, LubyRestart(100, 2))</text><text x="0.0744" y="0.1291" transform="rotate(-45.0, 0.0744, 0.1291)">CDCL (α = 0.95, mVISDS, LubyRestart(100, 2)), Baseline</text><text x="0.1066" y="0.1291" transform="rotate(-45.0, 0.1066, 0.1291)">DPLL</text><text x="0.1387" y="0.1291" transform="rotate(-45.0, 0.1387, 0.1291)">DPLL, Baseline</text></g></g></g><g class="axisbar"><g stroke-width="0" stroke="rgb(0%, 0%, 0%)" stroke-opacity="0" fill="rgb(5%, 5%, 5%)" fill-opacity="0.4"><rect width="0.7884" height="0.0014" x="-0.5933" y="0.1001"/></g></g></g><g class="title"><g stroke-width="0.0" stroke="none" fill="rgb(5%, 5%, 5%)" fill-opacity="1.0" font-size="0.0583" text-anchor="middle"><text x="-0.2582" y="-0.2858">Copied: SATLIB/Bejing/3blocks/cnf</text></g></g><g class="legend"><g class="legendBorder"><g stroke-width="0.0017" stroke="rgb(5%, 5%, 5%)" stroke-opacity="1.0" fill="rgb(5%, 5%, 5%)" fill-opacity="0"><rect width="0.4316" height="0.5411" x="0.2785" y="-0.4294"/></g></g><g class="legendContent"><g stroke-width="0.0" stroke="none" fill="rgb(5%, 5%, 5%)" fill-opacity="1.0" font-size="0.0153" text-anchor="start"><text x="0.2870" y="0.0992">DPLL, Baseline</text></g><g stroke-width="0.0002" stroke="rgb(0%, 52%, 40%)" stroke-opacity="1.0" fill="rgb(0%, 52%, 40%)" fill-opacity="0.25"><rect width="0.0255" height="0.0182" x="0.6760" y="0.0874"/></g><g stroke-width="0.0" stroke="none" fill="rgb(5%, 5%, 5%)" fill-opacity="1.0" font-size="0.0153" text-anchor="start"><text x="0.2870" y="0.0749">DPLL</text></g><g stroke-width="0" stroke="rgb(2%, 29%, 48%)" stroke-opacity="1.0" fill="rgb(0%, 52%, 40%)" fill-opacity="1.0"><rect width="0.0255" height="0.0182" x="0.6760" y="0.0630"/></g><g stroke-width="0.0" stroke="none" fill="rgb(5%, 5%, 5%)" fill-opacity="1.0" font-size="0.0153" text-anchor="start"><text x="0.2870" y="0.0505">CDCL (α = 0.95, mVISDS, LubyRestart(100, 2)), Baseline</text></g><g stroke-width="0.0002" stroke="rgb(17%, 40%, 67%)" stroke-opacity="1.0" fill="rgb(17%, 40%, 67%)" fill-opacity="0.25"><rect width="0.0255" height="0.0182" x="0.6760" y="0.0387"/></g><g stroke-width="0.0" stroke="none" fill="rgb(5%, 5%, 5%)" fill-opacity="1.0" font-size="0.0153" text-anchor="start"><text x="0.2870" y="0.0262">CDCL (α = 0.95, mVISDS, LubyRestart(100, 2))</text></g><g stroke-width="0" stroke="rgb(2%, 29%, 48%)" stroke-opacity="1.0" fill="rgb(17%, 40%, 67%)" fill-opacity="1.0"><rect width="0.0255" height="0.0182" x="0.6760" y="0.0144"/></g><g stroke-width="0.0" stroke="none" fill="rgb(5%, 5%, 5%)" fill-opacity="1.0" font-size="0.0153" text-anchor="start"><text x="0.2870" y="0.0019">CDCL (α = 0.95, mVISDS, ExpRestart(100, 2)), Baseline</text></g><g stroke-width="0.0002" stroke="rgb(62%, 0%, 31%)" stroke-opacity="1.0" fill="rgb(62%, 0%, 31%)" fill-opacity="0.25"><rect width="0.0255" height="0.0182" x="0.6760" y="-0.0099"/></g><g stroke-width="0.0" stroke="none" fill="rgb(5%, 5%, 5%)" fill-opacity="1.0" font-size="0.0153" text-anchor="start"><text x="0.2870" y="-0.0224">CDCL (α = 0.95, mVISDS, ExpRestart(100, 2))</text></g><g stroke-width="0" stroke="rgb(2%, 29%, 48%)" stroke-opacity="1.0" fill="rgb(62%, 0%, 31%)" fill-opacity="1.0"><rect width="0.0255" height="0.0182" x="0.6760" y="-0.0343"/></g><g stroke-width="0.0" stroke="none" fill="rgb(5%, 5%, 5%)" fill-opacity="1.0" font-size="0.0153" text-anchor="start"><text x="0.2870" y="-0.0467">CDCL (α = 0.95, mVISDS), Baseline</text></g><g stroke-width="0.0002" stroke="rgb(91%, 47%, 0%)" stroke-opacity="1.0" fill="rgb(91%, 47%, 0%)" fill-opacity="0.25"><rect width="0.0255" height="0.0182" x="0.6760" y="-0.0586"/></g><g stroke-width="0.0" stroke="none" fill="rgb(5%, 5%, 5%)" fill-opacity="1.0" font-size="0.0153" text-anchor="start"><text x="0.2870" y="-0.0711">CDCL (α = 0.95, mVISDS)</text></g><g stroke-width="0" stroke="rgb(2%, 29%, 48%)" stroke-opacity="1.0" fill="rgb(91%, 47%, 0%)" fill-opacity="1.0"><rect width="0.0255" height="0.0182" x="0.6760" y="-0.0829"/></g><g stroke-width="0.0" stroke="none" fill="rgb(5%, 5%, 5%)" fill-opacity="1.0" font-size="0.0153" text-anchor="start"><text x="0.2870" y="-0.0954">CDCL (α = 0.95), Baseline</text></g><g stroke-width="0.0002" stroke="rgb(0%, 64%, 70%)" stroke-opacity="1.0" fill="rgb(0%, 64%, 70%)" fill-opacity="0.25"><rect width="0.0255" height="0.0182" x="0.6760" y="-0.1072"/></g><g stroke-width="0.0" stroke="none" fill="rgb(5%, 5%, 5%)" fill-opacity="1.0" font-size="0.0153" text-anchor="start"><text x="0.2870" y="-0.1197">CDCL (α = 0.95)</text></g><g stroke-width="0" stroke="rgb(2%, 29%, 48%)" stroke-opacity="1.0" fill="rgb(0%, 64%, 70%)" fill-opacity="1.0"><rect width="0.0255" height="0.0182" x="0.6760" y="-0.1315"/></g><g stroke-width="0.0" stroke="none" fill="rgb(5%, 5%, 5%)" fill-opacity="1.0" font-size="0.0153" text-anchor="start"><text x="0.2870" y="-0.1440">CDCL (α = 0.75, mVISDS, LubyRestart(100, 2)), Baseline</text></g><g stroke-width="0.0002" stroke="rgb(91%, 19%, 0%)" stroke-opacity="1.0" fill="rgb(91%, 19%, 0%)" fill-opacity="0.25"><rect width="0.0255" height="0.0182" x="0.6760" y="-0.1558"/></g><g stroke-width="0.0" stroke="none" fill="rgb(5%, 5%, 5%)" fill-opacity="1.0" font-size="0.0153" text-anchor="start"><text x="0.2870" y="-0.1683">CDCL (α = 0.75, mVISDS, LubyRestart(100, 2))</text></g><g stroke-width="0" stroke="rgb(2%, 29%, 48%)" stroke-opacity="1.0" fill="rgb(91%, 19%, 0%)" fill-opacity="1.0"><rect width="0.0255" height="0.0182" x="0.6760" y="-0.1802"/></g><g stroke-width="0.0" stroke="none" fill="rgb(5%, 5%, 5%)" fill-opacity="1.0" font-size="0.0153" text-anchor="start"><text x="0.2870" y="-0.1926">CDCL (α = 0.75, mVISDS, ExpRestart(100, 2)), Baseline</text></g><g stroke-width="0.0002" stroke="rgb(38%, 23%, 0%)" stroke-opacity="1.0" fill="rgb(38%, 23%, 0%)" fill-opacity="0.25"><rect width="0.0255" height="0.0182" x="0.6760" y="-0.2045"/></g><g stroke-width="0.0" stroke="none" fill="rgb(5%, 5%, 5%)" fill-opacity="1.0" font-size="0.0153" text-anchor="start"><text x="0.2870" y="-0.2170">CDCL (α = 0.75, mVISDS, ExpRestart(100, 2))</text></g><g stroke-width="0" stroke="rgb(2%, 29%, 48%)" stroke-opacity="1.0" fill="rgb(38%, 23%, 0%)" fill-opacity="1.0"><rect width="0.0255" height="0.0182" x="0.6760" y="-0.2288"/></g><g stroke-width="0.0" stroke="none" fill="rgb(5%, 5%, 5%)" fill-opacity="1.0" font-size="0.0153" text-anchor="start"><text x="0.2870" y="-0.2413">CDCL (α = 0.75, mVISDS), Baseline</text></g><g stroke-width="0.0002" stroke="rgb(90%, 37%, 58%)" stroke-opacity="1.0" fill="rgb(90%, 37%, 58%)" fill-opacity="0.25"><rect width="0.0255" height="0.0182" x="0.6760" y="-0.2531"/></g><g stroke-width="0.0" stroke="none" fill="rgb(5%, 5%, 5%)" fill-opacity="1.0" font-size="0.0153" text-anchor="start"><text x="0.2870" y="-0.2656">CDCL (α = 0.75, mVISDS)</text></g><g stroke-width="0" stroke="rgb(2%, 29%, 48%)" stroke-opacity="1.0" fill="rgb(90%, 37%, 58%)" fill-opacity="1.0"><rect width="0.0255" height="0.0182" x="0.6760" y="-0.2775"/></g><g stroke-width="0.0" stroke="none" fill="rgb(5%, 5%, 5%)" fill-opacity="1.0" font-size="0.0153" text-anchor="start"><text x="0.2870" y="-0.2899">CDCL (α = 0.75), Baseline</text></g><g stroke-width="0.0002" stroke="rgb(0%, 72%, 98%)" stroke-opacity="1.0" fill="rgb(0%, 72%, 98%)" fill-opacity="0.25"><rect width="0.0255" height="0.0182" x="0.6760" y="-0.3018"/></g><g stroke-width="0.0" stroke="none" fill="rgb(5%, 5%, 5%)" fill-opacity="1.0" font-size="0.0153" text-anchor="start"><text x="0.2870" y="-0.3143">CDCL (α = 0.75)</text></g><g stroke-width="0" stroke="rgb(2%, 29%, 48%)" stroke-opacity="1.0" fill="rgb(0%, 72%, 98%)" fill-opacity="1.0"><rect width="0.0255" height="0.0182" x="0.6760" y="-0.3261"/></g><g stroke-width="0.0" stroke="none" fill="rgb(5%, 5%, 5%)" fill-opacity="1.0" font-size="0.0153" text-anchor="start"><text x="0.2870" y="-0.3386">CDCL (adaptive, mVSIDS), Baseline</text></g><g stroke-width="0.0002" stroke="rgb(1%, 28%, 43%)" stroke-opacity="1.0" fill="rgb(1%, 28%, 43%)" fill-opacity="0.25"><rect width="0.0255" height="0.0182" x="0.6760" y="-0.3504"/></g><g stroke-width="0.0" stroke="none" fill="rgb(5%, 5%, 5%)" fill-opacity="1.0" font-size="0.0153" text-anchor="start"><text x="0.2870" y="-0.3629">CDCL (adaptive, mVSIDS)</text></g><g stroke-width="0" stroke="rgb(2%, 29%, 48%)" stroke-opacity="1.0" fill="rgb(1%, 28%, 43%)" fill-opacity="1.0"><rect width="0.0255" height="0.0182" x="0.6760" y="-0.3747"/></g><g stroke-width="0.0" stroke="none" fill="rgb(5%, 5%, 5%)" fill-opacity="1.0" font-size="0.0153" text-anchor="start"><text x="0.2870" y="-0.3872">CDCL (adaptive), Baseline</text></g><g stroke-width="0.0002" stroke="rgb(0%, 30%, 12%)" stroke-opacity="1.0" fill="rgb(0%, 30%, 12%)" fill-opacity="0.25"><rect width="0.0255" height="0.0182" x="0.6760" y="-0.3990"/></g><g stroke-width="0.0" stroke="none" fill="rgb(5%, 5%, 5%)" fill-opacity="1.0" font-size="0.0153" text-anchor="start"><text x="0.2870" y="-0.4115">CDCL (adaptive)</text></g><g stroke-width="0" stroke="rgb(2%, 29%, 48%)" stroke-opacity="1.0" fill="rgb(0%, 30%, 12%)" fill-opacity="1.0"><rect width="0.0255" height="0.0182" x="0.6760" y="-0.4234"/></g></g></g><g class="frame"><g stroke-width="0" stroke="rgb(0%, 0%, 0%)" stroke-opacity="0" fill="rgb(100%, 100%, 100%)" fill-opacity="0.02"><rect width="1.6180" height="1.0" x="-0.8090" y="-0.5"/></g></g><g class="title"><g stroke-width="0.0" stroke="none" fill="rgb(5%, 5%, 5%)" fill-opacity="1.0" font-size="0.0292" text-anchor="middle"><text x="-0.7400" y="0" transform="rotate(-90.0, -0.7400, 0)">Copied [GiB]</text></g></g></g></svg>