<svg xmlns="http://www.w3.org/2000/svg" xmlns:xlink="http://www.w3.org/1999/xlink" width="464" height="300" viewBox="-0.8090 -0.5000 1.6180 1.0446"><style>svg {
  color-scheme: light dark;
}
{
  .canvas g, .title g, .axisbar g, .ticktext g, .tickglyph g, .ticklines g, .legendContent g text {
    fill: rgb(5%, 5%, 5%);
  }
  .ticklines g, .tickglyph g, .legendBorder g {
    stroke: rgb(5%, 5%, 5%);
  }
  .legendBorder g {
    fill: rgb(94%, 94%, 94%);
  }
}
@media (prefers-color-scheme:dark) {
  .canvas g, .title g, .axisbar g, .ticktext g, .tickglyph g, .ticklines g, .legendContent g text {
    fill: rgb(94%, 94%, 94%);
  }
  .ticklines g, .tickglyph g, .legendBorder g {
    stroke: rgb(94%, 94%, 94%);
  }
  .legendBorder g {
    fill: rgb(5%, 5%, 5%);
  }
}</style><g class="chart"><g class="barchart"><g stroke-width="0" stroke="rgb(2%, 29%, 48%)" stroke-opacity="1.0" fill="rgb(0%, 30%, 12%)" fill-opacity="1.0"><rect width="0.0246" height="0.2656" x="-0.4238" y="-0.1333"/></g><g stroke-width="0.0010" stroke="rgb(0%, 30%, 12%)" stroke-opacity="1.0" fill="rgb(0%, 30%, 12%)" fill-opacity="0.25"><rect width="0.0246" height="0.2710" x="-0.3992" y="-0.1388"/></g><g stroke-width="0" stroke="rgb(2%, 29%, 48%)" stroke-opacity="1.0" fill="rgb(0%, 25%, 37%)" fill-opacity="1.0"><rect width="0.0246" height="0.2675" x="-0.3746" y="-0.1353"/></g><g stroke-width="0.0010" stroke="rgb(0%, 25%, 37%)" stroke-opacity="1.0" fill="rgb(0%, 25%, 37%)" fill-opacity="0.25"><rect width="0.0246" height="0.2793" x="-0.3499" y="-0.1470"/></g><g stroke-width="0" stroke="rgb(2%, 29%, 48%)" stroke-opacity="1.0" fill="rgb(26%, 54%, 57%)" fill-opacity="1.0"><rect width="0.0246" height="0.2704" x="-0.3253" y="-0.1382"/></g><g stroke-width="0.0010" stroke="rgb(26%, 54%, 57%)" stroke-opacity="1.0" fill="rgb(26%, 54%, 57%)" fill-opacity="0.25"><rect width="0.0246" height="0.2723" x="-0.3006" y="-0.1400"/></g><g stroke-width="0" stroke="rgb(2%, 29%, 48%)" stroke-opacity="1.0" fill="rgb(1%, 28%, 43%)" fill-opacity="1.0"><rect width="0.0246" height="0.2594" x="-0.2760" y="-0.1272"/></g><g stroke-width="0.0010" stroke="rgb(1%, 28%, 43%)" stroke-opacity="1.0" fill="rgb(1%, 28%, 43%)" fill-opacity="0.25"><rect width="0.0246" height="0.2677" x="-0.2513" y="-0.1355"/></g><g stroke-width="0" stroke="rgb(2%, 29%, 48%)" stroke-opacity="1.0" fill="rgb(0%, 72%, 98%)" fill-opacity="1.0"><rect width="0.0246" height="0.2628" x="-0.2267" y="-0.1306"/></g><g stroke-width="0.0010" stroke="rgb(0%, 72%, 98%)" stroke-opacity="1.0" fill="rgb(0%, 72%, 98%)" fill-opacity="0.25"><rect width="0.0246" height="0.2803" x="-0.2021" y="-0.1481"/></g><g stroke-width="0" stroke="rgb(2%, 29%, 48%)" stroke-opacity="1.0" fill="rgb(90%, 37%, 58%)" fill-opacity="1.0"><rect width="0.0246" height="0.2727" x="-0.1774" y="-0.1405"/></g><g stroke-width="0.0010" stroke="rgb(90%, 37%, 58%)" stroke-opacity="1.0" fill="rgb(90%, 37%, 58%)" fill-opacity="0.25"><rect width="0.0246" height="0.2585" x="-0.1528" y="-0.1262"/></g><g stroke-width="0" stroke="rgb(2%, 29%, 48%)" stroke-opacity="1.0" fill="rgb(38%, 23%, 0%)" fill-opacity="1.0"><rect width="0.0246" height="0.2604" x="-0.1281" y="-0.1281"/></g><g stroke-width="0.0010" stroke="rgb(38%, 23%, 0%)" stroke-opacity="1.0" fill="rgb(38%, 23%, 0%)" fill-opacity="0.25"><rect width="0.0246" height="0.2614" x="-0.1035" y="-0.1292"/></g><g stroke-width="0" stroke="rgb(2%, 29%, 48%)" stroke-opacity="1.0" fill="rgb(91%, 19%, 0%)" fill-opacity="1.0"><rect width="0.0246" height="0.2642" x="-0.0788" y="-0.1320"/></g><g stroke-width="0.0010" stroke="rgb(91%, 19%, 0%)" stroke-opacity="1.0" fill="rgb(91%, 19%, 0%)" fill-opacity="0.25"><rect width="0.0246" height="0.2730" x="-0.0542" y="-0.1408"/></g><g stroke-width="0" stroke="rgb(2%, 29%, 48%)" stroke-opacity="1.0" fill="rgb(0%, 64%, 70%)" fill-opacity="1.0"><rect width="0.0246" height="0.2789" x="-0.0296" y="-0.1467"/></g><g stroke-width="0.0010" stroke="rgb(0%, 64%, 70%)" stroke-opacity="1.0" fill="rgb(0%, 64%, 70%)" fill-opacity="0.25"><rect width="0.0246" height="0.2726" x="-0.0049" y="-0.1404"/></g><g stroke-width="0" stroke="rgb(2%, 29%, 48%)" stroke-opacity="1.0" fill="rgb(91%, 47%, 0%)" fill-opacity="1.0"><rect width="0.0246" height="0.2649" x="0.0197" y="-0.1327"/></g><g stroke-width="0.0010" stroke="rgb(91%, 47%, 0%)" stroke-opacity="1.0" fill="rgb(91%, 47%, 0%)" fill-opacity="0.25"><rect width="0.0246" height="0.2652" x="0.0444" y="-0.1329"/></g><g stroke-width="0" stroke="rgb(2%, 29%, 48%)" stroke-opacity="1.0" fill="rgb(62%, 0%, 31%)" fill-opacity="1.0"><rect width="0.0246" height="0.2578" x="0.0690" y="-0.1256"/></g><g stroke-width="0.0010" stroke="rgb(62%, 0%, 31%)" stroke-opacity="1.0" fill="rgb(62%, 0%, 31%)" fill-opacity="0.25"><rect width="0.0246" height="0.2693" x="0.0936" y="-0.1371"/></g><g stroke-width="0" stroke="rgb(2%, 29%, 48%)" stroke-opacity="1.0" fill="rgb(17%, 40%, 67%)" fill-opacity="1.0"><rect width="0.0246" height="0.2672" x="0.1183" y="-0.1350"/></g><g stroke-width="0.0010" stroke="rgb(17%, 40%, 67%)" stroke-opacity="1.0" fill="rgb(17%, 40%, 67%)" fill-opacity="0.25"><rect width="0.0246" height="0.2614" x="0.1429" y="-0.1292"/></g><g stroke-width="0" stroke="rgb(2%, 29%, 48%)" stroke-opacity="1.0" fill="rgb(0%, 52%, 40%)" fill-opacity="1.0"><rect width="0.0246" height="0.1261" x="0.1676" y="0.0061"/></g><g stroke-width="0.0010" stroke="rgb(0%, 52%, 40%)" stroke-opacity="1.0" fill="rgb(0%, 52%, 40%)" fill-opacity="0.25"><rect width="0.0246" height="0.1296" x="0.1922" y="0.0026"/></g></g><g class="errors"><g stroke-width="0.0015" stroke="rgb(5%, 5%, 5%)" stroke-opacity="1.0" fill="none"><polyline points="-0.4140,-0.1259 -0.4091,-0.1259"/><polyline points="-0.4115,-0.1259 -0.4115,-0.1408"/><polyline points="-0.4140,-0.1408 -0.4091,-0.1408"/></g><g stroke-width="0.0015" stroke="rgb(5%, 5%, 5%)" stroke-opacity="1.0" fill="none"><polyline points="-0.3893,-0.1271 -0.3844,-0.1271"/><polyline points="-0.3869,-0.1271 -0.3869,-0.1505"/><polyline points="-0.3893,-0.1505 -0.3844,-0.1505"/></g><g stroke-width="0.0015" stroke="rgb(5%, 5%, 5%)" stroke-opacity="1.0" fill="none"><polyline points="-0.3647,-0.1220 -0.3598,-0.1220"/><polyline points="-0.3622,-0.1220 -0.3622,-0.1487"/><polyline points="-0.3647,-0.1487 -0.3598,-0.1487"/></g><g stroke-width="0.0015" stroke="rgb(5%, 5%, 5%)" stroke-opacity="1.0" fill="none"><polyline points="-0.3401,-0.1338 -0.3351,-0.1338"/><polyline points="-0.3376,-0.1338 -0.3376,-0.1603"/><polyline points="-0.3401,-0.1603 -0.3351,-0.1603"/></g><g stroke-width="0.0015" stroke="rgb(5%, 5%, 5%)" stroke-opacity="1.0" fill="none"><polyline points="-0.3154,-0.1305 -0.3105,-0.1305"/><polyline points="-0.3129,-0.1305 -0.3129,-0.1458"/><polyline points="-0.3154,-0.1458 -0.3105,-0.1458"/></g><g stroke-width="0.0015" stroke="rgb(5%, 5%, 5%)" stroke-opacity="1.0" fill="none"><polyline points="-0.2908,-0.1292 -0.2858,-0.1292"/><polyline points="-0.2883,-0.1292 -0.2883,-0.1508"/><polyline points="-0.2908,-0.1508 -0.2858,-0.1508"/></g><g stroke-width="0.0015" stroke="rgb(5%, 5%, 5%)" stroke-opacity="1.0" fill="none"><polyline points="-0.2661,-0.1189 -0.2612,-0.1189"/><polyline points="-0.2637,-0.1189 -0.2637,-0.1355"/><polyline points="-0.2661,-0.1355 -0.2612,-0.1355"/></g><g stroke-width="0.0015" stroke="rgb(5%, 5%, 5%)" stroke-opacity="1.0" fill="none"><polyline points="-0.2415,-0.1327 -0.2366,-0.1327"/><polyline points="-0.2390,-0.1327 -0.2390,-0.1383"/><polyline points="-0.2415,-0.1383 -0.2366,-0.1383"/></g><g stroke-width="0.0015" stroke="rgb(5%, 5%, 5%)" stroke-opacity="1.0" fill="none"><polyline points="-0.2168,-0.1200 -0.2119,-0.1200"/><polyline points="-0.2144,-0.1200 -0.2144,-0.1412"/><polyline points="-0.2168,-0.1412 -0.2119,-0.1412"/></g><g stroke-width="0.0015" stroke="rgb(5%, 5%, 5%)" stroke-opacity="1.0" fill="none"><polyline points="-0.1922,-0.1377 -0.1873,-0.1377"/><polyline points="-0.1897,-0.1377 -0.1897,-0.1585"/><polyline points="-0.1922,-0.1585 -0.1873,-0.1585"/></g><g stroke-width="0.0015" stroke="rgb(5%, 5%, 5%)" stroke-opacity="1.0" fill="none"><polyline points="-0.1676,-0.1303 -0.1626,-0.1303"/><polyline points="-0.1651,-0.1303 -0.1651,-0.1507"/><polyline points="-0.1676,-0.1507 -0.1626,-0.1507"/></g><g stroke-width="0.0015" stroke="rgb(5%, 5%, 5%)" stroke-opacity="1.0" fill="none"><polyline points="-0.1429,-0.1179 -0.1380,-0.1179"/><polyline points="-0.1405,-0.1179 -0.1405,-0.1345"/><polyline points="-0.1429,-0.1345 -0.1380,-0.1345"/></g><g stroke-width="0.0015" stroke="rgb(5%, 5%, 5%)" stroke-opacity="1.0" fill="none"><polyline points="-0.1183,-0.1178 -0.1133,-0.1178"/><polyline points="-0.1158,-0.1178 -0.1158,-0.1384"/><polyline points="-0.1183,-0.1384 -0.1133,-0.1384"/></g><g stroke-width="0.0015" stroke="rgb(5%, 5%, 5%)" stroke-opacity="1.0" fill="none"><polyline points="-0.0936,-0.1229 -0.0887,-0.1229"/><polyline points="-0.0912,-0.1229 -0.0912,-0.1354"/><polyline points="-0.0936,-0.1354 -0.0887,-0.1354"/></g><g stroke-width="0.0015" stroke="rgb(5%, 5%, 5%)" stroke-opacity="1.0" fill="none"><polyline points="-0.0690,-0.1212 -0.0641,-0.1212"/><polyline points="-0.0665,-0.1212 -0.0665,-0.1428"/><polyline points="-0.0690,-0.1428 -0.0641,-0.1428"/></g><g stroke-width="0.0015" stroke="rgb(5%, 5%, 5%)" stroke-opacity="1.0" fill="none"><polyline points="-0.0443,-0.1355 -0.0394,-0.1355"/><polyline points="-0.0419,-0.1355 -0.0419,-0.1461"/><polyline points="-0.0443,-0.1461 -0.0394,-0.1461"/></g><g stroke-width="0.0015" stroke="rgb(5%, 5%, 5%)" stroke-opacity="1.0" fill="none"><polyline points="-0.0197,-0.1338 -0.0148,-0.1338"/><polyline points="-0.0172,-0.1338 -0.0172,-0.1597"/><polyline points="-0.0197,-0.1597 -0.0148,-0.1597"/></g><g stroke-width="0.0015" stroke="rgb(5%, 5%, 5%)" stroke-opacity="1.0" fill="none"><polyline points="0.0049,-0.1308 0.0099,-0.1308"/><polyline points="0.0074,-0.1308 0.0074,-0.1501"/><polyline points="0.0049,-0.1501 0.0099,-0.1501"/></g><g stroke-width="0.0015" stroke="rgb(5%, 5%, 5%)" stroke-opacity="1.0" fill="none"><polyline points="0.0296,-0.1213 0.0345,-0.1213"/><polyline points="0.0320,-0.1213 0.0320,-0.1440"/><polyline points="0.0296,-0.1440 0.0345,-0.1440"/></g><g stroke-width="0.0015" stroke="rgb(5%, 5%, 5%)" stroke-opacity="1.0" fill="none"><polyline points="0.0542,-0.1226 0.0591,-0.1226"/><polyline points="0.0567,-0.1226 0.0567,-0.1433"/><polyline points="0.0542,-0.1433 0.0591,-0.1433"/></g><g stroke-width="0.0015" stroke="rgb(5%, 5%, 5%)" stroke-opacity="1.0" fill="none"><polyline points="0.0789,-0.1153 0.0838,-0.1153"/><polyline points="0.0813,-0.1153 0.0813,-0.1360"/><polyline points="0.0789,-0.1360 0.0838,-0.1360"/></g><g stroke-width="0.0015" stroke="rgb(5%, 5%, 5%)" stroke-opacity="1.0" fill="none"><polyline points="0.1035,-0.1321 0.1084,-0.1321"/><polyline points="0.1060,-0.1321 0.1060,-0.1421"/><polyline points="0.1035,-0.1421 0.1084,-0.1421"/></g><g stroke-width="0.0015" stroke="rgb(5%, 5%, 5%)" stroke-opacity="1.0" fill="none"><polyline points="0.1281,-0.1227 0.1331,-0.1227"/><polyline points="0.1306,-0.1227 0.1306,-0.1473"/><polyline points="0.1281,-0.1473 0.1331,-0.1473"/></g><g stroke-width="0.0015" stroke="rgb(5%, 5%, 5%)" stroke-opacity="1.0" fill="none"><polyline points="0.1528,-0.1185 0.1577,-0.1185"/><polyline points="0.1553,-0.1185 0.1553,-0.1399"/><polyline points="0.1528,-0.1399 0.1577,-0.1399"/></g><g stroke-width="0.0015" stroke="rgb(5%, 5%, 5%)" stroke-opacity="1.0" fill="none"><polyline points="0.1774,0.0109 0.1824,0.0109"/><polyline points="0.1799,0.0109 0.1799,0.0013"/><polyline points="0.1774,0.0013 0.1824,0.0013"/></g><g stroke-width="0.0015" stroke="rgb(5%, 5%, 5%)" stroke-opacity="1.0" fill="none"><polyline points="0.2021,0.0084 0.2070,0.0084"/><polyline points="0.2045,0.0084 0.2045,-0.0032"/><polyline points="0.2021,-0.0032 0.2070,-0.0032"/></g></g></g><g class="hud"><g class="axis"><g class="ticks"><g class="tickglyph"><g stroke-width="0.0040" stroke="rgb(5%, 5%, 5%)" stroke-opacity="0.4" fill="rgb(5%, 5%, 5%)" fill-opacity="0.4"><g transform="rotate(-90.0, -0.4726, 0.1322)"><polyline points="-0.4726,0.1472
-0.4726,0.1172"/></g><g transform="rotate(-90.0, -0.4726, 0.0871)"><polyline points="-0.4726,0.1021
-0.4726,0.0721"/></g><g transform="rotate(-90.0, -0.4726, 0.0419)"><polyline points="-0.4726,0.0569
-0.4726,0.0269"/></g><g transform="rotate(-90.0, -0.4726, -0.0032)"><polyline points="-0.4726,0.0118
-0.4726,-0.0182"/></g><g transform="rotate(-90.0, -0.4726, -0.0484)"><polyline points="-0.4726,-0.0334
-0.4726,-0.0634"/></g><g transform="rotate(-90.0, -0.4726, -0.0935)"><polyline points="-0.4726,-0.0785
-0.4726,-0.1085"/></g><g transform="rotate(-90.0, -0.4726, -0.1386)"><polyline points="-0.4726,-0.1236
-0.4726,-0.1536"/></g><g transform="rotate(-90.0, -0.4726, -0.1838)"><polyline points="-0.4726,-0.1688
-0.4726,-0.1988"/></g></g></g><g class="ticktext"><g stroke-width="0.0" stroke="none" fill="rgb(5%, 5%, 5%)" fill-opacity="1.0" font-size="0.0220" text-anchor="end"><text x="-0.4885" y="0.1366">0.0</text><text x="-0.4885" y="0.0914">0.2</text><text x="-0.4885" y="0.0463">0.4</text><text x="-0.4885" y="0.0011">0.6</text><text x="-0.4885" y="-0.0440">0.8</text><text x="-0.4885" y="-0.0892">1.0</text><text x="-0.4885" y="-0.1343">1.2</text><text x="-0.4885" y="-0.1794">1.4</text></g></g><g class="ticklines"><g stroke-width="0.0050" stroke="rgb(5%, 5%, 5%)" stroke-opacity="0.05" fill="none"><polyline points="-0.4594,0.1322 0.2525,0.1322"/><polyline points="-0.4594,0.0871 0.2525,0.0871"/><polyline points="-0.4594,0.0419 0.2525,0.0419"/><polyline points="-0.4594,-0.0032 0.2525,-0.0032"/><polyline points="-0.4594,-0.0484 0.2525,-0.0484"/><polyline points="-0.4594,-0.0935 0.2525,-0.0935"/><polyline points="-0.4594,-0.1386 0.2525,-0.1386"/><polyline points="-0.4594,-0.1838 0.2525,-0.1838"/></g></g></g><g class="axisbar"><g stroke-width="0" stroke="rgb(0%, 0%, 0%)" stroke-opacity="0" fill="rgb(5%, 5%, 5%)" fill-opacity="0.4"><rect width="0.0018" height="0.3173" x="-0.4656" y="-0.1844"/></g></g></g><g class="axis"><g class="ticks"><g class="tickglyph"><g stroke-width="0.0040" stroke="rgb(5%, 5%, 5%)" stroke-opacity="0.4" fill="rgb(5%, 5%, 5%)" fill-opacity="0.4"><polyline points="-0.4115,0.1569
-0.4115,0.1269"/><polyline points="-0.3869,0.1569
-0.3869,0.1269"/><polyline points="-0.3622,0.1569
-0.3622,0.1269"/><polyline points="-0.3376,0.1569
-0.3376,0.1269"/><polyline points="-0.3129,0.1569
-0.3129,0.1269"/><polyline points="-0.2883,0.1569
-0.2883,0.1269"/><polyline points="-0.2637,0.1569
-0.2637,0.1269"/><polyline points="-0.2390,0.1569
-0.2390,0.1269"/><polyline points="-0.2144,0.1569
-0.2144,0.1269"/><polyline points="-0.1897,0.1569
-0.1897,0.1269"/><polyline points="-0.1651,0.1569
-0.1651,0.1269"/><polyline points="-0.1405,0.1569
-0.1405,0.1269"/><polyline points="-0.1158,0.1569
-0.1158,0.1269"/><polyline points="-0.0912,0.1569
-0.0912,0.1269"/><polyline points="-0.0665,0.1569
-0.0665,0.1269"/><polyline points="-0.0419,0.1569
-0.0419,0.1269"/><polyline points="-0.0172,0.1569
-0.0172,0.1269"/><polyline points="0.0074,0.1569
0.0074,0.1269"/><polyline points="0.0320,0.1569
0.0320,0.1269"/><polyline points="0.0567,0.1569
0.0567,0.1269"/><polyline points="0.0813,0.1569
0.0813,0.1269"/><polyline points="0.1060,0.1569
0.1060,0.1269"/><polyline points="0.1306,0.1569
0.1306,0.1269"/><polyline points="0.1553,0.1569
0.1553,0.1269"/><polyline points="0.1799,0.1569
0.1799,0.1269"/><polyline points="0.2045,0.1569
0.2045,0.1269"/></g></g><g class="ticktext"><g stroke-width="0.0" stroke="none" fill="rgb(5%, 5%, 5%)" fill-opacity="1.0" font-size="0.0220" text-anchor="end"><text x="-0.4115" y="0.1619" transform="rotate(-45.0, -0.4115, 0.1619)">CDCL (adaptive)</text><text x="-0.3869" y="0.1619" transform="rotate(-45.0, -0.3869, 0.1619)">CDCL (adaptive), Baseline</text><text x="-0.3622" y="0.1619" transform="rotate(-45.0, -0.3622, 0.1619)">CDCL (adaptive, mVISDS, ExpRestart(100, 2))</text><text x="-0.3376" y="0.1619" transform="rotate(-45.0, -0.3376, 0.1619)">CDCL (adaptive, mVISDS, ExpRestart(100, 2)), Baseline</text><text x="-0.3129" y="0.1619" transform="rotate(-45.0, -0.3129, 0.1619)">CDCL (adaptive, mVISDS, LubyRestart(100, 2))</text><text x="-0.2883" y="0.1619" transform="rotate(-45.0, -0.2883, 0.1619)">CDCL (adaptive, mVISDS, LubyRestart(100, 2)), Baseline</text><text x="-0.2637" y="0.1619" transform="rotate(-45.0, -0.2637, 0.1619)">CDCL (adaptive, mVSIDS)</text><text x="-0.2390" y="0.1619" transform="rotate(-45.0, -0.2390, 0.1619)">CDCL (adaptive, mVSIDS), Baseline</text><text x="-0.2144" y="0.1619" transform="rotate(-45.0, -0.2144, 0.1619)">CDCL (α = 0.75)</text><text x="-0.1897" y="0.1619" transform="rotate(-45.0, -0.1897, 0.1619)">CDCL (α = 0.75), Baseline</text><text x="-0.1651" y="0.1619" transform="rotate(-45.0, -0.1651, 0.1619)">CDCL (α = 0.75, mVISDS)</text><text x="-0.1405" y="0.1619" transform="rotate(-45.0, -0.1405, 0.1619)">CDCL (α = 0.75, mVISDS), Baseline</text><text x="-0.1158" y="0.1619" transform="rotate(-45.0, -0.1158, 0.1619)">CDCL (α = 0.75, mVISDS, ExpRestart(100, 2))</text><text x="-0.0912" y="0.1619" transform="rotate(-45.0, -0.0912, 0.1619)">CDCL (α = 0.75, mVISDS, ExpRestart(100, 2)), Baseline</text><text x="-0.0665" y="0.1619" transform="rotate(-45.0, -0.0665, 0.1619)">CDCL (α = 0.75, mVISDS, LubyRestart(100, 2))</text><text x="-0.0419" y="0.1619" transform="rotate(-45.0, -0.0419, 0.1619)">CDCL (α = 0.75, mVISDS, LubyRestart(100, 2)), Baseline</text><text x="-0.0172" y="0.1619" transform="rotate(-45.0, -0.0172, 0.1619)">CDCL (α = 0.95)</text><text x="0.0074" y="0.1619" transform="rotate(-45.0, 0.0074, 0.1619)">CDCL (α = 0.95), Baseline</text><text x="0.0320" y="0.1619" transform="rotate(-45.0, 0.0320, 0.1619)">CDCL (α = 0.95, mVISDS)</text><text x="0.0567" y="0.1619" transform="rotate(-45.0, 0.0567, 0.1619)">CDCL (α = 0.95, mVISDS), Baseline</text><text x="0.0813" y="0.1619" transform="rotate(-45.0, 0.0813, 0.1619)">CDCL (α = 0.95, mVISDS, ExpRestart(100, 2))</text><text x="0.1060" y="0.1619" transform="rotate(-45.0, 0.1060, 0.1619)">CDCL (α = 0.95, mVISDS, ExpRestart(100, 2)), Baseline</text><text x="0.1306" y="0.1619" transform="rotate(-45.0, 0.1306, 0.1619)">CDCL (α = 0.95, mVISDS, LubyRestart(100, 2))</text><text x="0.1553" y="0.1619" transform="rotate(-45.0, 0.1553, 0.1619)">CDCL (α = 0.95, mVISDS, LubyRestart(100, 2)), Baseline</text><text x="0.1799" y="0.1619" transform="rotate(-45.0, 0.1799, 0.1619)">DPLL</text><text x="0.2045" y="0.1619" transform="rotate(-45.0, 0.2045, 0.1619)">DPLL, Baseline</text></g></g></g><g class="axisbar"><g stroke-width="0" stroke="rgb(0%, 0%, 0%)" stroke-opacity="0" fill="rgb(5%, 5%, 5%)" fill-opacity="0.4"><rect width="0.7136" height="0.0013" x="-0.4603" y="0.1355"/></g></g></g><g class="title"><g stroke-width="0.0" stroke="none" fill="rgb(5%, 5%, 5%)" fill-opacity="1.0" font-size="0.0528" text-anchor="middle"><text x="-0.2337" y="-0.2161">Time: SATLIB/uf20-91/uf20-080/cnf</text></g></g><g class="legend"><g class="legendBorder"><g stroke-width="0.0017" stroke="rgb(5%, 5%, 5%)" stroke-opacity="1.0" fill="rgb(5%, 5%, 5%)" fill-opacity="0"><rect width="0.3907" height="0.5818" x="0.3288" y="-0.4357"/></g></g><g class="legendContent"><g stroke-width="0.0" stroke="none" fill="rgb(5%, 5%, 5%)" fill-opacity="1.0" font-size="0.0139" text-anchor="start"><text x="0.3365" y="0.1347">DPLL, Baseline</text></g><g stroke-width="0.0002" stroke="rgb(0%, 52%, 40%)" stroke-opacity="1.0" fill="rgb(0%, 52%, 40%)" fill-opacity="0.25"><rect width="0.0231" height="0.0166" x="0.6886" y="0.1239"/></g><g stroke-width="0.0" stroke="none" fill="rgb(5%, 5%, 5%)" fill-opacity="1.0" font-size="0.0139" text-anchor="start"><text x="0.3365" y="0.1125">DPLL</text></g><g stroke-width="0" stroke="rgb(2%, 29%, 48%)" stroke-opacity="1.0" fill="rgb(0%, 52%, 40%)" fill-opacity="1.0"><rect width="0.0231" height="0.0166" x="0.6886" y="0.1018"/></g><g stroke-width="0.0" stroke="none" fill="rgb(5%, 5%, 5%)" fill-opacity="1.0" font-size="0.0139" text-anchor="start"><text x="0.3365" y="0.0904">CDCL (α = 0.95, mVISDS, LubyRestart(100, 2)), Baseline</text></g><g stroke-width="0.0002" stroke="rgb(17%, 40%, 67%)" stroke-opacity="1.0" fill="rgb(17%, 40%, 67%)" fill-opacity="0.25"><rect width="0.0231" height="0.0166" x="0.6886" y="0.0796"/></g><g stroke-width="0.0" stroke="none" fill="rgb(5%, 5%, 5%)" fill-opacity="1.0" font-size="0.0139" text-anchor="start"><text x="0.3365" y="0.0682">CDCL (α = 0.95, mVISDS, LubyRestart(100, 2))</text></g><g stroke-width="0" stroke="rgb(2%, 29%, 48%)" stroke-opacity="1.0" fill="rgb(17%, 40%, 67%)" fill-opacity="1.0"><rect width="0.0231" height="0.0166" x="0.6886" y="0.0574"/></g><g stroke-width="0.0" stroke="none" fill="rgb(5%, 5%, 5%)" fill-opacity="1.0" font-size="0.0139" text-anchor="start"><text x="0.3365" y="0.0461">CDCL (α = 0.95, mVISDS, ExpRestart(100, 2)), Baseline</text></g><g stroke-width="0.0002" stroke="rgb(62%, 0%, 31%)" stroke-opacity="1.0" fill="rgb(62%, 0%, 31%)" fill-opacity="0.25"><rect width="0.0231" height="0.0166" x="0.6886" y="0.0353"/></g><g stroke-width="0.0" stroke="none" fill="rgb(5%, 5%, 5%)" fill-opacity="1.0" font-size="0.0139" text-anchor="start"><text x="0.3365" y="0.0239">CDCL (α = 0.95, mVISDS, ExpRestart(100, 2))</text></g><g stroke-width="0" stroke="rgb(2%, 29%, 48%)" stroke-opacity="1.0" fill="rgb(62%, 0%, 31%)" fill-opacity="1.0"><rect width="0.0231" height="0.0166" x="0.6886" y="0.0131"/></g><g stroke-width="0.0" stroke="none" fill="rgb(5%, 5%, 5%)" fill-opacity="1.0" font-size="0.0139" text-anchor="start"><text x="0.3365" y="0.0017">CDCL (α = 0.95, mVISDS), Baseline</text></g><g stroke-width="0.0002" stroke="rgb(91%, 47%, 0%)" stroke-opacity="1.0" fill="rgb(91%, 47%, 0%)" fill-opacity="0.25"><rect width="0.0231" height="0.0166" x="0.6886" y="-0.0090"/></g><g stroke-width="0.0" stroke="none" fill="rgb(5%, 5%, 5%)" fill-opacity="1.0" font-size="0.0139" text-anchor="start"><text x="0.3365" y="-0.0204">CDCL (α = 0.95, mVISDS)</text></g><g stroke-width="0" stroke="rgb(2%, 29%, 48%)" stroke-opacity="1.0" fill="rgb(91%, 47%, 0%)" fill-opacity="1.0"><rect width="0.0231" height="0.0166" x="0.6886" y="-0.0312"/></g><g stroke-width="0.0" stroke="none" fill="rgb(5%, 5%, 5%)" fill-opacity="1.0" font-size="0.0139" text-anchor="start"><text x="0.3365" y="-0.0426">CDCL (α = 0.95), Baseline</text></g><g stroke-width="0.0002" stroke="rgb(0%, 64%, 70%)" stroke-opacity="1.0" fill="rgb(0%, 64%, 70%)" fill-opacity="0.25"><rect width="0.0231" height="0.0166" x="0.6886" y="-0.0534"/></g><g stroke-width="0.0" stroke="none" fill="rgb(5%, 5%, 5%)" fill-opacity="1.0" font-size="0.0139" text-anchor="start"><text x="0.3365" y="-0.0648">CDCL (α = 0.95)</text></g><g stroke-width="0" stroke="rgb(2%, 29%, 48%)" stroke-opacity="1.0" fill="rgb(0%, 64%, 70%)" fill-opacity="1.0"><rect width="0.0231" height="0.0166" x="0.6886" y="-0.0755"/></g><g stroke-width="0.0" stroke="none" fill="rgb(5%, 5%, 5%)" fill-opacity="1.0" font-size="0.0139" text-anchor="start"><text x="0.3365" y="-0.0869">CDCL (α = 0.75, mVISDS, LubyRestart(100, 2)), Baseline</text></g><g stroke-width="0.0002" stroke="rgb(91%, 19%, 0%)" stroke-opacity="1.0" fill="rgb(91%, 19%, 0%)" fill-opacity="0.25"><rect width="0.0231" height="0.0166" x="0.6886" y="-0.0977"/></g><g stroke-width="0.0" stroke="none" fill="rgb(5%, 5%, 5%)" fill-opacity="1.0" font-size="0.0139" text-anchor="start"><text x="0.3365" y="-0.1091">CDCL (α = 0.75, mVISDS, LubyRestart(100, 2))</text></g><g stroke-width="0" stroke="rgb(2%, 29%, 48%)" stroke-opacity="1.0" fill="rgb(91%, 19%, 0%)" fill-opacity="1.0"><rect width="0.0231" height="0.0166" x="0.6886" y="-0.1199"/></g><g stroke-width="0.0" stroke="none" fill="rgb(5%, 5%, 5%)" fill-opacity="1.0" font-size="0.0139" text-anchor="start"><text x="0.3365" y="-0.1312">CDCL (α = 0.75, mVISDS, ExpRestart(100, 2)), Baseline</text></g><g stroke-width="0.0002" stroke="rgb(38%, 23%, 0%)" stroke-opacity="1.0" fill="rgb(38%, 23%, 0%)" fill-opacity="0.25"><rect width="0.0231" height="0.0166" x="0.6886" y="-0.1420"/></g><g stroke-width="0.0" stroke="none" fill="rgb(5%, 5%, 5%)" fill-opacity="1.0" font-size="0.0139" text-anchor="start"><text x="0.3365" y="-0.1534">CDCL (α = 0.75, mVISDS, ExpRestart(100, 2))</text></g><g stroke-width="0" stroke="rgb(2%, 29%, 48%)" stroke-opacity="1.0" fill="rgb(38%, 23%, 0%)" fill-opacity="1.0"><rect width="0.0231" height="0.0166" x="0.6886" y="-0.1642"/></g><g stroke-width="0.0" stroke="none" fill="rgb(5%, 5%, 5%)" fill-opacity="1.0" font-size="0.0139" text-anchor="start"><text x="0.3365" y="-0.1756">CDCL (α = 0.75, mVISDS), Baseline</text></g><g stroke-width="0.0002" stroke="rgb(90%, 37%, 58%)" stroke-opacity="1.0" fill="rgb(90%, 37%, 58%)" fill-opacity="0.25"><rect width="0.0231" height="0.0166" x="0.6886" y="-0.1864"/></g><g stroke-width="0.0" stroke="none" fill="rgb(5%, 5%, 5%)" fill-opacity="1.0" font-size="0.0139" text-anchor="start"><text x="0.3365" y="-0.1977">CDCL (α = 0.75, mVISDS)</text></g><g stroke-width="0" stroke="rgb(2%, 29%, 48%)" stroke-opacity="1.0" fill="rgb(90%, 37%, 58%)" fill-opacity="1.0"><rect width="0.0231" height="0.0166" x="0.6886" y="-0.2085"/></g><g stroke-width="0.0" stroke="none" fill="rgb(5%, 5%, 5%)" fill-opacity="1.0" font-size="0.0139" text-anchor="start"><text x="0.3365" y="-0.2199">CDCL (α = 0.75), Baseline</text></g><g stroke-width="0.0002" stroke="rgb(0%, 72%, 98%)" stroke-opacity="1.0" fill="rgb(0%, 72%, 98%)" fill-opacity="0.25"><rect width="0.0231" height="0.0166" x="0.6886" y="-0.2307"/></g><g stroke-width="0.0" stroke="none" fill="rgb(5%, 5%, 5%)" fill-opacity="1.0" font-size="0.0139" text-anchor="start"><text x="0.3365" y="-0.2421">CDCL (α = 0.75)</text></g><g stroke-width="0" stroke="rgb(2%, 29%, 48%)" stroke-opacity="1.0" fill="rgb(0%, 72%, 98%)" fill-opacity="1.0"><rect width="0.0231" height="0.0166" x="0.6886" y="-0.2529"/></g><g stroke-width="0.0" stroke="none" fill="rgb(5%, 5%, 5%)" fill-opacity="1.0" font-size="0.0139" text-anchor="start"><text x="0.3365" y="-0.2642">CDCL (adaptive, mVSIDS), Baseline</text></g><g stroke-width="0.0002" stroke="rgb(1%, 28%, 43%)" stroke-opacity="1.0" fill="rgb(1%, 28%, 43%)" fill-opacity="0.25"><rect width="0.0231" height="0.0166" x="0.6886" y="-0.2750"/></g><g stroke-width="0.0" stroke="none" fill="rgb(5%, 5%, 5%)" fill-opacity="1.0" font-size="0.0139" text-anchor="start"><text x="0.3365" y="-0.2864">CDCL (adaptive, mVSIDS)</text></g><g stroke-width="0" stroke="rgb(2%, 29%, 48%)" stroke-opacity="1.0" fill="rgb(1%, 28%, 43%)" fill-opacity="1.0"><rect width="0.0231" height="0.0166" x="0.6886" y="-0.2972"/></g><g stroke-width="0.0" stroke="none" fill="rgb(5%, 5%, 5%)" fill-opacity="1.0" font-size="0.0139" text-anchor="start"><text x="0.3365" y="-0.3085">CDCL (adaptive, mVISDS, LubyRestart(100, 2)), Baseline</text></g><g stroke-width="0.0002" stroke="rgb(26%, 54%, 57%)" stroke-opacity="1.0" fill="rgb(26%, 54%, 57%)" fill-opacity="0.25"><rect width="0.0231" height="0.0166" x="0.6886" y="-0.3193"/></g><g stroke-width="0.0" stroke="none" fill="rgb(5%, 5%, 5%)" fill-opacity="1.0" font-size="0.0139" text-anchor="start"><text x="0.3365" y="-0.3307">CDCL (adaptive, mVISDS, LubyRestart(100, 2))</text></g><g stroke-width="0" stroke="rgb(2%, 29%, 48%)" stroke-opacity="1.0" fill="rgb(26%, 54%, 57%)" fill-opacity="1.0"><rect width="0.0231" height="0.0166" x="0.6886" y="-0.3415"/></g><g stroke-width="0.0" stroke="none" fill="rgb(5%, 5%, 5%)" fill-opacity="1.0" font-size="0.0139" text-anchor="start"><text x="0.3365" y="-0.3529">CDCL (adaptive, mVISDS, ExpRestart(100, 2)), Baseline</text></g><g stroke-width="0.0002" stroke="rgb(0%, 25%, 37%)" stroke-opacity="1.0" fill="rgb(0%, 25%, 37%)" fill-opacity="0.25"><rect width="0.0231" height="0.0166" x="0.6886" y="-0.3637"/></g><g stroke-width="0.0" stroke="none" fill="rgb(5%, 5%, 5%)" fill-opacity="1.0" font-size="0.0139" text-anchor="start"><text x="0.3365" y="-0.3750">CDCL (adaptive, mVISDS, ExpRestart(100, 2))</text></g><g stroke-width="0" stroke="rgb(2%, 29%, 48%)" stroke-opacity="1.0" fill="rgb(0%, 25%, 37%)" fill-opacity="1.0"><rect width="0.0231" height="0.0166" x="0.6886" y="-0.3858"/></g><g stroke-width="0.0" stroke="none" fill="rgb(5%, 5%, 5%)" fill-opacity="1.0" font-size="0.0139" text-anchor="start"><text x="0.3365" y="-0.3972">CDCL (adaptive), Baseline</text></g><g stroke-width="0.0002" stroke="rgb(0%, 30%, 12%)" stroke-opacity="1.0" fill="rgb(0%, 30%, 12%)" fill-opacity="0.25"><rect width="0.0231" height="0.0166" x="0.6886" y="-0.4080"/></g><g stroke-width="0.0" stroke="none" fill="rgb(5%, 5%, 5%)" fill-opacity="1.0" font-size="0.0139" text-anchor="start"><text x="0.3365" y="-0.4194">CDCL (adaptive)</text></g><g stroke-width="0" stroke="rgb(2%, 29%, 48%)" stroke-opacity="1.0" fill="rgb(0%, 30%, 12%)" fill-opacity="1.0"><rect width="0.0231" height="0.0166" x="0.6886" y="-0.4302"/></g></g></g><g class="frame"><g stroke-width="0" stroke="rgb(0%, 0%, 0%)" stroke-opacity="0" fill="rgb(100%, 100%, 100%)" fill-opacity="0.02"><rect width="1.6180" height="1.0000" x="-0.8090" y="-0.5000"/></g></g><g class="title"><g stroke-width="0.0" stroke="none" fill="rgb(5%, 5%, 5%)" fill-opacity="1.0" font-size="0.0264" text-anchor="middle"><text x="-0.7465" y="0" transform="rotate(-90.0, -0.7465, 0)">Time [ms]</text></g></g></g></svg>