<svg xmlns="http://www.w3.org/2000/svg" xmlns:xlink="http://www.w3.org/1999/xlink" width="464" height="300" viewBox="-0.8090 -0.5000 1.6180 1.0446"><style>svg {
  color-scheme: light dark;
}
{
  .canvas g, .title g, .axisbar g, .ticktext g, .tickglyph g, .ticklines g, .legendContent g text {
    fill: rgb(5%, 5%, 5%);
  }
  .ticklines g, .tickglyph g, .legendBorder g {
    stroke: rgb(5%, 5%, 5%);
  }
  .legendBorder g {
    fill: rgb(94%, 94%, 94%);
  }
}
@media (prefers-color-scheme:dark) {
  .canvas g, .title g, .axisbar g, .ticktext g, .tickglyph g, .ticklines g, .legendContent g text {
    fill: rgb(94%, 94%, 94%);
  }
  .ticklines g, .tickglyph g, .legendBorder g {
    stroke: rgb(94%, 94%, 94%);
  }
  .legendBorder g {
    fill: rgb(5%, 5%, 5%);
  }
}</style><g class="chart"><g class="barchart"><g stroke-width="0" stroke="rgb(2%, 29%, 48%)" stroke-opacity="1.0" fill="rgb(0%, 30%, 12%)" fill-opacity="1.0"><rect width="0.0246" height="0.1754" x="-0.4238" y="-0.0431"/></g><g stroke-width="0.0010" stroke="rgb(0%, 30%, 12%)" stroke-opacity="1.0" fill="rgb(0%, 30%, 12%)" fill-opacity="0.25"><rect width="0.0246" height="0.2648" x="-0.3992" y="-0.1326"/></g><g stroke-width="0" stroke="rgb(2%, 29%, 48%)" stroke-opacity="1.0" fill="rgb(0%, 25%, 37%)" fill-opacity="1.0"><rect width="0.0246" height="0.1777" x="-0.3746" y="-0.0455"/></g><g stroke-width="0.0010" stroke="rgb(0%, 25%, 37%)" stroke-opacity="1.0" fill="rgb(0%, 25%, 37%)" fill-opacity="0.25"><rect width="0.0246" height="0.2568" x="-0.3499" y="-0.1246"/></g><g stroke-width="0" stroke="rgb(2%, 29%, 48%)" stroke-opacity="1.0" fill="rgb(26%, 54%, 57%)" fill-opacity="1.0"><rect width="0.0246" height="0.1747" x="-0.3253" y="-0.0425"/></g><g stroke-width="0.0010" stroke="rgb(26%, 54%, 57%)" stroke-opacity="1.0" fill="rgb(26%, 54%, 57%)" fill-opacity="0.25"><rect width="0.0246" height="0.2610" x="-0.3006" y="-0.1287"/></g><g stroke-width="0" stroke="rgb(2%, 29%, 48%)" stroke-opacity="1.0" fill="rgb(1%, 28%, 43%)" fill-opacity="1.0"><rect width="0.0246" height="0.1790" x="-0.2760" y="-0.0468"/></g><g stroke-width="0.0010" stroke="rgb(1%, 28%, 43%)" stroke-opacity="1.0" fill="rgb(1%, 28%, 43%)" fill-opacity="0.25"><rect width="0.0246" height="0.2629" x="-0.2513" y="-0.1306"/></g><g stroke-width="0" stroke="rgb(2%, 29%, 48%)" stroke-opacity="1.0" fill="rgb(0%, 72%, 98%)" fill-opacity="1.0"><rect width="0.0246" height="0.1804" x="-0.2267" y="-0.0481"/></g><g stroke-width="0.0010" stroke="rgb(0%, 72%, 98%)" stroke-opacity="1.0" fill="rgb(0%, 72%, 98%)" fill-opacity="0.25"><rect width="0.0246" height="0.2659" x="-0.2021" y="-0.1336"/></g><g stroke-width="0" stroke="rgb(2%, 29%, 48%)" stroke-opacity="1.0" fill="rgb(90%, 37%, 58%)" fill-opacity="1.0"><rect width="0.0246" height="0.1743" x="-0.1774" y="-0.0421"/></g><g stroke-width="0.0010" stroke="rgb(90%, 37%, 58%)" stroke-opacity="1.0" fill="rgb(90%, 37%, 58%)" fill-opacity="0.25"><rect width="0.0246" height="0.2570" x="-0.1528" y="-0.1248"/></g><g stroke-width="0" stroke="rgb(2%, 29%, 48%)" stroke-opacity="1.0" fill="rgb(38%, 23%, 0%)" fill-opacity="1.0"><rect width="0.0246" height="0.1763" x="-0.1281" y="-0.0441"/></g><g stroke-width="0.0010" stroke="rgb(38%, 23%, 0%)" stroke-opacity="1.0" fill="rgb(38%, 23%, 0%)" fill-opacity="0.25"><rect width="0.0246" height="0.2593" x="-0.1035" y="-0.1271"/></g><g stroke-width="0" stroke="rgb(2%, 29%, 48%)" stroke-opacity="1.0" fill="rgb(91%, 19%, 0%)" fill-opacity="1.0"><rect width="0.0246" height="0.1779" x="-0.0788" y="-0.0457"/></g><g stroke-width="0.0010" stroke="rgb(91%, 19%, 0%)" stroke-opacity="1.0" fill="rgb(91%, 19%, 0%)" fill-opacity="0.25"><rect width="0.0246" height="0.2611" x="-0.0542" y="-0.1289"/></g><g stroke-width="0" stroke="rgb(2%, 29%, 48%)" stroke-opacity="1.0" fill="rgb(0%, 64%, 70%)" fill-opacity="1.0"><rect width="0.0246" height="0.1794" x="-0.0296" y="-0.0472"/></g><g stroke-width="0.0010" stroke="rgb(0%, 64%, 70%)" stroke-opacity="1.0" fill="rgb(0%, 64%, 70%)" fill-opacity="0.25"><rect width="0.0246" height="0.2603" x="-0.0049" y="-0.1281"/></g><g stroke-width="0" stroke="rgb(2%, 29%, 48%)" stroke-opacity="1.0" fill="rgb(91%, 47%, 0%)" fill-opacity="1.0"><rect width="0.0246" height="0.1767" x="0.0197" y="-0.0445"/></g><g stroke-width="0.0010" stroke="rgb(91%, 47%, 0%)" stroke-opacity="1.0" fill="rgb(91%, 47%, 0%)" fill-opacity="0.25"><rect width="0.0246" height="0.2588" x="0.0444" y="-0.1265"/></g><g stroke-width="0" stroke="rgb(2%, 29%, 48%)" stroke-opacity="1.0" fill="rgb(62%, 0%, 31%)" fill-opacity="1.0"><rect width="0.0246" height="0.1774" x="0.0690" y="-0.0451"/></g><g stroke-width="0.0010" stroke="rgb(62%, 0%, 31%)" stroke-opacity="1.0" fill="rgb(62%, 0%, 31%)" fill-opacity="0.25"><rect width="0.0246" height="0.2603" x="0.0936" y="-0.1281"/></g><g stroke-width="0" stroke="rgb(2%, 29%, 48%)" stroke-opacity="1.0" fill="rgb(17%, 40%, 67%)" fill-opacity="1.0"><rect width="0.0246" height="0.1793" x="0.1183" y="-0.0471"/></g><g stroke-width="0.0010" stroke="rgb(17%, 40%, 67%)" stroke-opacity="1.0" fill="rgb(17%, 40%, 67%)" fill-opacity="0.25"><rect width="0.0246" height="0.2604" x="0.1429" y="-0.1281"/></g><g stroke-width="0" stroke="rgb(2%, 29%, 48%)" stroke-opacity="1.0" fill="rgb(0%, 52%, 40%)" fill-opacity="1.0"><rect width="0.0246" height="0.1476" x="0.1676" y="-0.0154"/></g><g stroke-width="0.0010" stroke="rgb(0%, 52%, 40%)" stroke-opacity="1.0" fill="rgb(0%, 52%, 40%)" fill-opacity="0.25"><rect width="0.0246" height="0.1505" x="0.1922" y="-0.0182"/></g></g><g class="errors"><g stroke-width="0.0015" stroke="rgb(5%, 5%, 5%)" stroke-opacity="1.0" fill="none"><polyline points="-0.4140,-0.0345 -0.4091,-0.0345"/><polyline points="-0.4115,-0.0345 -0.4115,-0.0517"/><polyline points="-0.4140,-0.0517 -0.4091,-0.0517"/></g><g stroke-width="0.0015" stroke="rgb(5%, 5%, 5%)" stroke-opacity="1.0" fill="none"><polyline points="-0.3893,-0.1219 -0.3844,-0.1219"/><polyline points="-0.3869,-0.1219 -0.3869,-0.1433"/><polyline points="-0.3893,-0.1433 -0.3844,-0.1433"/></g><g stroke-width="0.0015" stroke="rgb(5%, 5%, 5%)" stroke-opacity="1.0" fill="none"><polyline points="-0.3647,-0.0389 -0.3598,-0.0389"/><polyline points="-0.3622,-0.0389 -0.3622,-0.0521"/><polyline points="-0.3647,-0.0521 -0.3598,-0.0521"/></g><g stroke-width="0.0015" stroke="rgb(5%, 5%, 5%)" stroke-opacity="1.0" fill="none"><polyline points="-0.3401,-0.1148 -0.3351,-0.1148"/><polyline points="-0.3376,-0.1148 -0.3376,-0.1343"/><polyline points="-0.3401,-0.1343 -0.3351,-0.1343"/></g><g stroke-width="0.0015" stroke="rgb(5%, 5%, 5%)" stroke-opacity="1.0" fill="none"><polyline points="-0.3154,-0.0366 -0.3105,-0.0366"/><polyline points="-0.3129,-0.0366 -0.3129,-0.0483"/><polyline points="-0.3154,-0.0483 -0.3105,-0.0483"/></g><g stroke-width="0.0015" stroke="rgb(5%, 5%, 5%)" stroke-opacity="1.0" fill="none"><polyline points="-0.2908,-0.1172 -0.2858,-0.1172"/><polyline points="-0.2883,-0.1172 -0.2883,-0.1403"/><polyline points="-0.2908,-0.1403 -0.2858,-0.1403"/></g><g stroke-width="0.0015" stroke="rgb(5%, 5%, 5%)" stroke-opacity="1.0" fill="none"><polyline points="-0.2661,-0.0394 -0.2612,-0.0394"/><polyline points="-0.2637,-0.0394 -0.2637,-0.0542"/><polyline points="-0.2661,-0.0542 -0.2612,-0.0542"/></g><g stroke-width="0.0015" stroke="rgb(5%, 5%, 5%)" stroke-opacity="1.0" fill="none"><polyline points="-0.2415,-0.1246 -0.2366,-0.1246"/><polyline points="-0.2390,-0.1246 -0.2390,-0.1367"/><polyline points="-0.2415,-0.1367 -0.2366,-0.1367"/></g><g stroke-width="0.0015" stroke="rgb(5%, 5%, 5%)" stroke-opacity="1.0" fill="none"><polyline points="-0.2168,-0.0427 -0.2119,-0.0427"/><polyline points="-0.2144,-0.0427 -0.2144,-0.0536"/><polyline points="-0.2168,-0.0536 -0.2119,-0.0536"/></g><g stroke-width="0.0015" stroke="rgb(5%, 5%, 5%)" stroke-opacity="1.0" fill="none"><polyline points="-0.1922,-0.1264 -0.1873,-0.1264"/><polyline points="-0.1897,-0.1264 -0.1897,-0.1408"/><polyline points="-0.1922,-0.1408 -0.1873,-0.1408"/></g><g stroke-width="0.0015" stroke="rgb(5%, 5%, 5%)" stroke-opacity="1.0" fill="none"><polyline points="-0.1676,-0.0364 -0.1626,-0.0364"/><polyline points="-0.1651,-0.0364 -0.1651,-0.0477"/><polyline points="-0.1676,-0.0477 -0.1626,-0.0477"/></g><g stroke-width="0.0015" stroke="rgb(5%, 5%, 5%)" stroke-opacity="1.0" fill="none"><polyline points="-0.1429,-0.1129 -0.1380,-0.1129"/><polyline points="-0.1405,-0.1129 -0.1405,-0.1367"/><polyline points="-0.1429,-0.1367 -0.1380,-0.1367"/></g><g stroke-width="0.0015" stroke="rgb(5%, 5%, 5%)" stroke-opacity="1.0" fill="none"><polyline points="-0.1183,-0.0387 -0.1133,-0.0387"/><polyline points="-0.1158,-0.0387 -0.1158,-0.0495"/><polyline points="-0.1183,-0.0495 -0.1133,-0.0495"/></g><g stroke-width="0.0015" stroke="rgb(5%, 5%, 5%)" stroke-opacity="1.0" fill="none"><polyline points="-0.0936,-0.1154 -0.0887,-0.1154"/><polyline points="-0.0912,-0.1154 -0.0912,-0.1387"/><polyline points="-0.0936,-0.1387 -0.0887,-0.1387"/></g><g stroke-width="0.0015" stroke="rgb(5%, 5%, 5%)" stroke-opacity="1.0" fill="none"><polyline points="-0.0690,-0.0403 -0.0641,-0.0403"/><polyline points="-0.0665,-0.0403 -0.0665,-0.0512"/><polyline points="-0.0690,-0.0512 -0.0641,-0.0512"/></g><g stroke-width="0.0015" stroke="rgb(5%, 5%, 5%)" stroke-opacity="1.0" fill="none"><polyline points="-0.0443,-0.1196 -0.0394,-0.1196"/><polyline points="-0.0419,-0.1196 -0.0419,-0.1381"/><polyline points="-0.0443,-0.1381 -0.0394,-0.1381"/></g><g stroke-width="0.0015" stroke="rgb(5%, 5%, 5%)" stroke-opacity="1.0" fill="none"><polyline points="-0.0197,-0.0398 -0.0148,-0.0398"/><polyline points="-0.0172,-0.0398 -0.0172,-0.0546"/><polyline points="-0.0197,-0.0546 -0.0148,-0.0546"/></g><g stroke-width="0.0015" stroke="rgb(5%, 5%, 5%)" stroke-opacity="1.0" fill="none"><polyline points="0.0049,-0.1171 0.0099,-0.1171"/><polyline points="0.0074,-0.1171 0.0074,-0.1391"/><polyline points="0.0049,-0.1391 0.0099,-0.1391"/></g><g stroke-width="0.0015" stroke="rgb(5%, 5%, 5%)" stroke-opacity="1.0" fill="none"><polyline points="0.0296,-0.0385 0.0345,-0.0385"/><polyline points="0.0320,-0.0385 0.0320,-0.0505"/><polyline points="0.0296,-0.0505 0.0345,-0.0505"/></g><g stroke-width="0.0015" stroke="rgb(5%, 5%, 5%)" stroke-opacity="1.0" fill="none"><polyline points="0.0542,-0.1137 0.0591,-0.1137"/><polyline points="0.0567,-0.1137 0.0567,-0.1394"/><polyline points="0.0542,-0.1394 0.0591,-0.1394"/></g><g stroke-width="0.0015" stroke="rgb(5%, 5%, 5%)" stroke-opacity="1.0" fill="none"><polyline points="0.0789,-0.0398 0.0838,-0.0398"/><polyline points="0.0813,-0.0398 0.0813,-0.0505"/><polyline points="0.0789,-0.0505 0.0838,-0.0505"/></g><g stroke-width="0.0015" stroke="rgb(5%, 5%, 5%)" stroke-opacity="1.0" fill="none"><polyline points="0.1035,-0.1225 0.1084,-0.1225"/><polyline points="0.1060,-0.1225 0.1060,-0.1338"/><polyline points="0.1035,-0.1338 0.1084,-0.1338"/></g><g stroke-width="0.0015" stroke="rgb(5%, 5%, 5%)" stroke-opacity="1.0" fill="none"><polyline points="0.1281,-0.0402 0.1331,-0.0402"/><polyline points="0.1306,-0.0402 0.1306,-0.0540"/><polyline points="0.1281,-0.0540 0.1331,-0.0540"/></g><g stroke-width="0.0015" stroke="rgb(5%, 5%, 5%)" stroke-opacity="1.0" fill="none"><polyline points="0.1528,-0.1185 0.1577,-0.1185"/><polyline points="0.1553,-0.1185 0.1553,-0.1378"/><polyline points="0.1528,-0.1378 0.1577,-0.1378"/></g><g stroke-width="0.0015" stroke="rgb(5%, 5%, 5%)" stroke-opacity="1.0" fill="none"><polyline points="0.1774,-0.0093 0.1824,-0.0093"/><polyline points="0.1799,-0.0093 0.1799,-0.0215"/><polyline points="0.1774,-0.0215 0.1824,-0.0215"/></g><g stroke-width="0.0015" stroke="rgb(5%, 5%, 5%)" stroke-opacity="1.0" fill="none"><polyline points="0.2021,-0.0121 0.2070,-0.0121"/><polyline points="0.2045,-0.0121 0.2045,-0.0244"/><polyline points="0.2021,-0.0244 0.2070,-0.0244"/></g></g></g><g class="hud"><g class="axis"><g class="ticks"><g class="tickglyph"><g stroke-width="0.0040" stroke="rgb(5%, 5%, 5%)" stroke-opacity="0.4" fill="rgb(5%, 5%, 5%)" fill-opacity="0.4"><g transform="rotate(-90.0, -0.4726, 0.1322)"><polyline points="-0.4726,0.1472
-0.4726,0.1172"/></g><g transform="rotate(-90.0, -0.4726, 0.0871)"><polyline points="-0.4726,0.1021
-0.4726,0.0721"/></g><g transform="rotate(-90.0, -0.4726, 0.0419)"><polyline points="-0.4726,0.0569
-0.4726,0.0269"/></g><g transform="rotate(-90.0, -0.4726, -0.0032)"><polyline points="-0.4726,0.0118
-0.4726,-0.0182"/></g><g transform="rotate(-90.0, -0.4726, -0.0484)"><polyline points="-0.4726,-0.0334
-0.4726,-0.0634"/></g><g transform="rotate(-90.0, -0.4726, -0.0935)"><polyline points="-0.4726,-0.0785
-0.4726,-0.1085"/></g><g transform="rotate(-90.0, -0.4726, -0.1386)"><polyline points="-0.4726,-0.1236
-0.4726,-0.1536"/></g><g transform="rotate(-90.0, -0.4726, -0.1838)"><polyline points="-0.4726,-0.1688
-0.4726,-0.1988"/></g></g></g><g class="ticktext"><g stroke-width="0.0" stroke="none" fill="rgb(5%, 5%, 5%)" fill-opacity="1.0" font-size="0.0220" text-anchor="end"><text x="-0.4885" y="0.1366">    0</text><text x="-0.4885" y="0.0914">  200</text><text x="-0.4885" y="0.0463">  400</text><text x="-0.4885" y="0.0011">  600</text><text x="-0.4885" y="-0.0440">  800</text><text x="-0.4885" y="-0.0892">1,000</text><text x="-0.4885" y="-0.1343">1,200</text><text x="-0.4885" y="-0.1794">1,400</text></g></g><g class="ticklines"><g stroke-width="0.0050" stroke="rgb(5%, 5%, 5%)" stroke-opacity="0.05" fill="none"><polyline points="-0.4594,0.1322 0.2525,0.1322"/><polyline points="-0.4594,0.0871 0.2525,0.0871"/><polyline points="-0.4594,0.0419 0.2525,0.0419"/><polyline points="-0.4594,-0.0032 0.2525,-0.0032"/><polyline points="-0.4594,-0.0484 0.2525,-0.0484"/><polyline points="-0.4594,-0.0935 0.2525,-0.0935"/><polyline points="-0.4594,-0.1386 0.2525,-0.1386"/><polyline points="-0.4594,-0.1838 0.2525,-0.1838"/></g></g></g><g class="axisbar"><g stroke-width="0" stroke="rgb(0%, 0%, 0%)" stroke-opacity="0" fill="rgb(5%, 5%, 5%)" fill-opacity="0.4"><rect width="0.0018" height="0.3173" x="-0.4656" y="-0.1844"/></g></g></g><g class="axis"><g class="ticks"><g class="tickglyph"><g stroke-width="0.0040" stroke="rgb(5%, 5%, 5%)" stroke-opacity="0.4" fill="rgb(5%, 5%, 5%)" fill-opacity="0.4"><polyline points="-0.4115,0.1569
-0.4115,0.1269"/><polyline points="-0.3869,0.1569
-0.3869,0.1269"/><polyline points="-0.3622,0.1569
-0.3622,0.1269"/><polyline points="-0.3376,0.1569
-0.3376,0.1269"/><polyline points="-0.3129,0.1569
-0.3129,0.1269"/><polyline points="-0.2883,0.1569
-0.2883,0.1269"/><polyline points="-0.2637,0.1569
-0.2637,0.1269"/><polyline points="-0.2390,0.1569
-0.2390,0.1269"/><polyline points="-0.2144,0.1569
-0.2144,0.1269"/><polyline points="-0.1897,0.1569
-0.1897,0.1269"/><polyline points="-0.1651,0.1569
-0.1651,0.1269"/><polyline points="-0.1405,0.1569
-0.1405,0.1269"/><polyline points="-0.1158,0.1569
-0.1158,0.1269"/><polyline points="-0.0912,0.1569
-0.0912,0.1269"/><polyline points="-0.0665,0.1569
-0.0665,0.1269"/><polyline points="-0.0419,0.1569
-0.0419,0.1269"/><polyline points="-0.0172,0.1569
-0.0172,0.1269"/><polyline points="0.0074,0.1569
0.0074,0.1269"/><polyline points="0.0320,0.1569
0.0320,0.1269"/><polyline points="0.0567,0.1569
0.0567,0.1269"/><polyline points="0.0813,0.1569
0.0813,0.1269"/><polyline points="0.1060,0.1569
0.1060,0.1269"/><polyline points="0.1306,0.1569
0.1306,0.1269"/><polyline points="0.1553,0.1569
0.1553,0.1269"/><polyline points="0.1799,0.1569
0.1799,0.1269"/><polyline points="0.2045,0.1569
0.2045,0.1269"/></g></g><g class="ticktext"><g stroke-width="0.0" stroke="none" fill="rgb(5%, 5%, 5%)" fill-opacity="1.0" font-size="0.0220" text-anchor="end"><text x="-0.4115" y="0.1619" transform="rotate(-45.0, -0.4115, 0.1619)">CDCL (adaptive)</text><text x="-0.3869" y="0.1619" transform="rotate(-45.0, -0.3869, 0.1619)">CDCL (adaptive), Baseline</text><text x="-0.3622" y="0.1619" transform="rotate(-45.0, -0.3622, 0.1619)">CDCL (adaptive, mVISDS, ExpRestart(100, 2))</text><text x="-0.3376" y="0.1619" transform="rotate(-45.0, -0.3376, 0.1619)">CDCL (adaptive, mVISDS, ExpRestart(100, 2)), Baseline</text><text x="-0.3129" y="0.1619" transform="rotate(-45.0, -0.3129, 0.1619)">CDCL (adaptive, mVISDS, LubyRestart(100, 2))</text><text x="-0.2883" y="0.1619" transform="rotate(-45.0, -0.2883, 0.1619)">CDCL (adaptive, mVISDS, LubyRestart(100, 2)), Baseline</text><text x="-0.2637" y="0.1619" transform="rotate(-45.0, -0.2637, 0.1619)">CDCL (adaptive, mVSIDS)</text><text x="-0.2390" y="0.1619" transform="rotate(-45.0, -0.2390, 0.1619)">CDCL (adaptive, mVSIDS), Baseline</text><text x="-0.2144" y="0.1619" transform="rotate(-45.0, -0.2144, 0.1619)">CDCL (α = 0.75)</text><text x="-0.1897" y="0.1619" transform="rotate(-45.0, -0.1897, 0.1619)">CDCL (α = 0.75), Baseline</text><text x="-0.1651" y="0.1619" transform="rotate(-45.0, -0.1651, 0.1619)">CDCL (α = 0.75, mVISDS)</text><text x="-0.1405" y="0.1619" transform="rotate(-45.0, -0.1405, 0.1619)">CDCL (α = 0.75, mVISDS), Baseline</text><text x="-0.1158" y="0.1619" transform="rotate(-45.0, -0.1158, 0.1619)">CDCL (α = 0.75, mVISDS, ExpRestart(100, 2))</text><text x="-0.0912" y="0.1619" transform="rotate(-45.0, -0.0912, 0.1619)">CDCL (α = 0.75, mVISDS, ExpRestart(100, 2)), Baseline</text><text x="-0.0665" y="0.1619" transform="rotate(-45.0, -0.0665, 0.1619)">CDCL (α = 0.75, mVISDS, LubyRestart(100, 2))</text><text x="-0.0419" y="0.1619" transform="rotate(-45.0, -0.0419, 0.1619)">CDCL (α = 0.75, mVISDS, LubyRestart(100, 2)), Baseline</text><text x="-0.0172" y="0.1619" transform="rotate(-45.0, -0.0172, 0.1619)">CDCL (α = 0.95)</text><text x="0.0074" y="0.1619" transform="rotate(-45.0, 0.0074, 0.1619)">CDCL (α = 0.95), Baseline</text><text x="0.0320" y="0.1619" transform="rotate(-45.0, 0.0320, 0.1619)">CDCL (α = 0.95, mVISDS)</text><text x="0.0567" y="0.1619" transform="rotate(-45.0, 0.0567, 0.1619)">CDCL (α = 0.95, mVISDS), Baseline</text><text x="0.0813" y="0.1619" transform="rotate(-45.0, 0.0813, 0.1619)">CDCL (α = 0.95, mVISDS, ExpRestart(100, 2))</text><text x="0.1060" y="0.1619" transform="rotate(-45.0, 0.1060, 0.1619)">CDCL (α = 0.95, mVISDS, ExpRestart(100, 2)), Baseline</text><text x="0.1306" y="0.1619" transform="rotate(-45.0, 0.1306, 0.1619)">CDCL (α = 0.95, mVISDS, LubyRestart(100, 2))</text><text x="0.1553" y="0.1619" transform="rotate(-45.0, 0.1553, 0.1619)">CDCL (α = 0.95, mVISDS, LubyRestart(100, 2)), Baseline</text><text x="0.1799" y="0.1619" transform="rotate(-45.0, 0.1799, 0.1619)">DPLL</text><text x="0.2045" y="0.1619" transform="rotate(-45.0, 0.2045, 0.1619)">DPLL, Baseline</text></g></g></g><g class="axisbar"><g stroke-width="0" stroke="rgb(0%, 0%, 0%)" stroke-opacity="0" fill="rgb(5%, 5%, 5%)" fill-opacity="0.4"><rect width="0.7136" height="0.0013" x="-0.4603" y="0.1355"/></g></g></g><g class="title"><g stroke-width="0.0" stroke="none" fill="rgb(5%, 5%, 5%)" fill-opacity="1.0" font-size="0.0528" text-anchor="middle"><text x="-0.2337" y="-0.2161">Time: SATLIB/uf20-91/uf20-070/cnf</text></g></g><g class="legend"><g class="legendBorder"><g stroke-width="0.0017" stroke="rgb(5%, 5%, 5%)" stroke-opacity="1.0" fill="rgb(5%, 5%, 5%)" fill-opacity="0"><rect width="0.3907" height="0.5818" x="0.3288" y="-0.4357"/></g></g><g class="legendContent"><g stroke-width="0.0" stroke="none" fill="rgb(5%, 5%, 5%)" fill-opacity="1.0" font-size="0.0139" text-anchor="start"><text x="0.3365" y="0.1347">DPLL, Baseline</text></g><g stroke-width="0.0002" stroke="rgb(0%, 52%, 40%)" stroke-opacity="1.0" fill="rgb(0%, 52%, 40%)" fill-opacity="0.25"><rect width="0.0231" height="0.0166" x="0.6886" y="0.1239"/></g><g stroke-width="0.0" stroke="none" fill="rgb(5%, 5%, 5%)" fill-opacity="1.0" font-size="0.0139" text-anchor="start"><text x="0.3365" y="0.1125">DPLL</text></g><g stroke-width="0" stroke="rgb(2%, 29%, 48%)" stroke-opacity="1.0" fill="rgb(0%, 52%, 40%)" fill-opacity="1.0"><rect width="0.0231" height="0.0166" x="0.6886" y="0.1018"/></g><g stroke-width="0.0" stroke="none" fill="rgb(5%, 5%, 5%)" fill-opacity="1.0" font-size="0.0139" text-anchor="start"><text x="0.3365" y="0.0904">CDCL (α = 0.95, mVISDS, LubyRestart(100, 2)), Baseline</text></g><g stroke-width="0.0002" stroke="rgb(17%, 40%, 67%)" stroke-opacity="1.0" fill="rgb(17%, 40%, 67%)" fill-opacity="0.25"><rect width="0.0231" height="0.0166" x="0.6886" y="0.0796"/></g><g stroke-width="0.0" stroke="none" fill="rgb(5%, 5%, 5%)" fill-opacity="1.0" font-size="0.0139" text-anchor="start"><text x="0.3365" y="0.0682">CDCL (α = 0.95, mVISDS, LubyRestart(100, 2))</text></g><g stroke-width="0" stroke="rgb(2%, 29%, 48%)" stroke-opacity="1.0" fill="rgb(17%, 40%, 67%)" fill-opacity="1.0"><rect width="0.0231" height="0.0166" x="0.6886" y="0.0574"/></g><g stroke-width="0.0" stroke="none" fill="rgb(5%, 5%, 5%)" fill-opacity="1.0" font-size="0.0139" text-anchor="start"><text x="0.3365" y="0.0461">CDCL (α = 0.95, mVISDS, ExpRestart(100, 2)), Baseline</text></g><g stroke-width="0.0002" stroke="rgb(62%, 0%, 31%)" stroke-opacity="1.0" fill="rgb(62%, 0%, 31%)" fill-opacity="0.25"><rect width="0.0231" height="0.0166" x="0.6886" y="0.0353"/></g><g stroke-width="0.0" stroke="none" fill="rgb(5%, 5%, 5%)" fill-opacity="1.0" font-size="0.0139" text-anchor="start"><text x="0.3365" y="0.0239">CDCL (α = 0.95, mVISDS, ExpRestart(100, 2))</text></g><g stroke-width="0" stroke="rgb(2%, 29%, 48%)" stroke-opacity="1.0" fill="rgb(62%, 0%, 31%)" fill-opacity="1.0"><rect width="0.0231" height="0.0166" x="0.6886" y="0.0131"/></g><g stroke-width="0.0" stroke="none" fill="rgb(5%, 5%, 5%)" fill-opacity="1.0" font-size="0.0139" text-anchor="start"><text x="0.3365" y="0.0017">CDCL (α = 0.95, mVISDS), Baseline</text></g><g stroke-width="0.0002" stroke="rgb(91%, 47%, 0%)" stroke-opacity="1.0" fill="rgb(91%, 47%, 0%)" fill-opacity="0.25"><rect width="0.0231" height="0.0166" x="0.6886" y="-0.0090"/></g><g stroke-width="0.0" stroke="none" fill="rgb(5%, 5%, 5%)" fill-opacity="1.0" font-size="0.0139" text-anchor="start"><text x="0.3365" y="-0.0204">CDCL (α = 0.95, mVISDS)</text></g><g stroke-width="0" stroke="rgb(2%, 29%, 48%)" stroke-opacity="1.0" fill="rgb(91%, 47%, 0%)" fill-opacity="1.0"><rect width="0.0231" height="0.0166" x="0.6886" y="-0.0312"/></g><g stroke-width="0.0" stroke="none" fill="rgb(5%, 5%, 5%)" fill-opacity="1.0" font-size="0.0139" text-anchor="start"><text x="0.3365" y="-0.0426">CDCL (α = 0.95), Baseline</text></g><g stroke-width="0.0002" stroke="rgb(0%, 64%, 70%)" stroke-opacity="1.0" fill="rgb(0%, 64%, 70%)" fill-opacity="0.25"><rect width="0.0231" height="0.0166" x="0.6886" y="-0.0534"/></g><g stroke-width="0.0" stroke="none" fill="rgb(5%, 5%, 5%)" fill-opacity="1.0" font-size="0.0139" text-anchor="start"><text x="0.3365" y="-0.0648">CDCL (α = 0.95)</text></g><g stroke-width="0" stroke="rgb(2%, 29%, 48%)" stroke-opacity="1.0" fill="rgb(0%, 64%, 70%)" fill-opacity="1.0"><rect width="0.0231" height="0.0166" x="0.6886" y="-0.0755"/></g><g stroke-width="0.0" stroke="none" fill="rgb(5%, 5%, 5%)" fill-opacity="1.0" font-size="0.0139" text-anchor="start"><text x="0.3365" y="-0.0869">CDCL (α = 0.75, mVISDS, LubyRestart(100, 2)), Baseline</text></g><g stroke-width="0.0002" stroke="rgb(91%, 19%, 0%)" stroke-opacity="1.0" fill="rgb(91%, 19%, 0%)" fill-opacity="0.25"><rect width="0.0231" height="0.0166" x="0.6886" y="-0.0977"/></g><g stroke-width="0.0" stroke="none" fill="rgb(5%, 5%, 5%)" fill-opacity="1.0" font-size="0.0139" text-anchor="start"><text x="0.3365" y="-0.1091">CDCL (α = 0.75, mVISDS, LubyRestart(100, 2))</text></g><g stroke-width="0" stroke="rgb(2%, 29%, 48%)" stroke-opacity="1.0" fill="rgb(91%, 19%, 0%)" fill-opacity="1.0"><rect width="0.0231" height="0.0166" x="0.6886" y="-0.1199"/></g><g stroke-width="0.0" stroke="none" fill="rgb(5%, 5%, 5%)" fill-opacity="1.0" font-size="0.0139" text-anchor="start"><text x="0.3365" y="-0.1312">CDCL (α = 0.75, mVISDS, ExpRestart(100, 2)), Baseline</text></g><g stroke-width="0.0002" stroke="rgb(38%, 23%, 0%)" stroke-opacity="1.0" fill="rgb(38%, 23%, 0%)" fill-opacity="0.25"><rect width="0.0231" height="0.0166" x="0.6886" y="-0.1420"/></g><g stroke-width="0.0" stroke="none" fill="rgb(5%, 5%, 5%)" fill-opacity="1.0" font-size="0.0139" text-anchor="start"><text x="0.3365" y="-0.1534">CDCL (α = 0.75, mVISDS, ExpRestart(100, 2))</text></g><g stroke-width="0" stroke="rgb(2%, 29%, 48%)" stroke-opacity="1.0" fill="rgb(38%, 23%, 0%)" fill-opacity="1.0"><rect width="0.0231" height="0.0166" x="0.6886" y="-0.1642"/></g><g stroke-width="0.0" stroke="none" fill="rgb(5%, 5%, 5%)" fill-opacity="1.0" font-size="0.0139" text-anchor="start"><text x="0.3365" y="-0.1756">CDCL (α = 0.75, mVISDS), Baseline</text></g><g stroke-width="0.0002" stroke="rgb(90%, 37%, 58%)" stroke-opacity="1.0" fill="rgb(90%, 37%, 58%)" fill-opacity="0.25"><rect width="0.0231" height="0.0166" x="0.6886" y="-0.1864"/></g><g stroke-width="0.0" stroke="none" fill="rgb(5%, 5%, 5%)" fill-opacity="1.0" font-size="0.0139" text-anchor="start"><text x="0.3365" y="-0.1977">CDCL (α = 0.75, mVISDS)</text></g><g stroke-width="0" stroke="rgb(2%, 29%, 48%)" stroke-opacity="1.0" fill="rgb(90%, 37%, 58%)" fill-opacity="1.0"><rect width="0.0231" height="0.0166" x="0.6886" y="-0.2085"/></g><g stroke-width="0.0" stroke="none" fill="rgb(5%, 5%, 5%)" fill-opacity="1.0" font-size="0.0139" text-anchor="start"><text x="0.3365" y="-0.2199">CDCL (α = 0.75), Baseline</text></g><g stroke-width="0.0002" stroke="rgb(0%, 72%, 98%)" stroke-opacity="1.0" fill="rgb(0%, 72%, 98%)" fill-opacity="0.25"><rect width="0.0231" height="0.0166" x="0.6886" y="-0.2307"/></g><g stroke-width="0.0" stroke="none" fill="rgb(5%, 5%, 5%)" fill-opacity="1.0" font-size="0.0139" text-anchor="start"><text x="0.3365" y="-0.2421">CDCL (α = 0.75)</text></g><g stroke-width="0" stroke="rgb(2%, 29%, 48%)" stroke-opacity="1.0" fill="rgb(0%, 72%, 98%)" fill-opacity="1.0"><rect width="0.0231" height="0.0166" x="0.6886" y="-0.2529"/></g><g stroke-width="0.0" stroke="none" fill="rgb(5%, 5%, 5%)" fill-opacity="1.0" font-size="0.0139" text-anchor="start"><text x="0.3365" y="-0.2642">CDCL (adaptive, mVSIDS), Baseline</text></g><g stroke-width="0.0002" stroke="rgb(1%, 28%, 43%)" stroke-opacity="1.0" fill="rgb(1%, 28%, 43%)" fill-opacity="0.25"><rect width="0.0231" height="0.0166" x="0.6886" y="-0.2750"/></g><g stroke-width="0.0" stroke="none" fill="rgb(5%, 5%, 5%)" fill-opacity="1.0" font-size="0.0139" text-anchor="start"><text x="0.3365" y="-0.2864">CDCL (adaptive, mVSIDS)</text></g><g stroke-width="0" stroke="rgb(2%, 29%, 48%)" stroke-opacity="1.0" fill="rgb(1%, 28%, 43%)" fill-opacity="1.0"><rect width="0.0231" height="0.0166" x="0.6886" y="-0.2972"/></g><g stroke-width="0.0" stroke="none" fill="rgb(5%, 5%, 5%)" fill-opacity="1.0" font-size="0.0139" text-anchor="start"><text x="0.3365" y="-0.3085">CDCL (adaptive, mVISDS, LubyRestart(100, 2)), Baseline</text></g><g stroke-width="0.0002" stroke="rgb(26%, 54%, 57%)" stroke-opacity="1.0" fill="rgb(26%, 54%, 57%)" fill-opacity="0.25"><rect width="0.0231" height="0.0166" x="0.6886" y="-0.3193"/></g><g stroke-width="0.0" stroke="none" fill="rgb(5%, 5%, 5%)" fill-opacity="1.0" font-size="0.0139" text-anchor="start"><text x="0.3365" y="-0.3307">CDCL (adaptive, mVISDS, LubyRestart(100, 2))</text></g><g stroke-width="0" stroke="rgb(2%, 29%, 48%)" stroke-opacity="1.0" fill="rgb(26%, 54%, 57%)" fill-opacity="1.0"><rect width="0.0231" height="0.0166" x="0.6886" y="-0.3415"/></g><g stroke-width="0.0" stroke="none" fill="rgb(5%, 5%, 5%)" fill-opacity="1.0" font-size="0.0139" text-anchor="start"><text x="0.3365" y="-0.3529">CDCL (adaptive, mVISDS, ExpRestart(100, 2)), Baseline</text></g><g stroke-width="0.0002" stroke="rgb(0%, 25%, 37%)" stroke-opacity="1.0" fill="rgb(0%, 25%, 37%)" fill-opacity="0.25"><rect width="0.0231" height="0.0166" x="0.6886" y="-0.3637"/></g><g stroke-width="0.0" stroke="none" fill="rgb(5%, 5%, 5%)" fill-opacity="1.0" font-size="0.0139" text-anchor="start"><text x="0.3365" y="-0.3750">CDCL (adaptive, mVISDS, ExpRestart(100, 2))</text></g><g stroke-width="0" stroke="rgb(2%, 29%, 48%)" stroke-opacity="1.0" fill="rgb(0%, 25%, 37%)" fill-opacity="1.0"><rect width="0.0231" height="0.0166" x="0.6886" y="-0.3858"/></g><g stroke-width="0.0" stroke="none" fill="rgb(5%, 5%, 5%)" fill-opacity="1.0" font-size="0.0139" text-anchor="start"><text x="0.3365" y="-0.3972">CDCL (adaptive), Baseline</text></g><g stroke-width="0.0002" stroke="rgb(0%, 30%, 12%)" stroke-opacity="1.0" fill="rgb(0%, 30%, 12%)" fill-opacity="0.25"><rect width="0.0231" height="0.0166" x="0.6886" y="-0.4080"/></g><g stroke-width="0.0" stroke="none" fill="rgb(5%, 5%, 5%)" fill-opacity="1.0" font-size="0.0139" text-anchor="start"><text x="0.3365" y="-0.4194">CDCL (adaptive)</text></g><g stroke-width="0" stroke="rgb(2%, 29%, 48%)" stroke-opacity="1.0" fill="rgb(0%, 30%, 12%)" fill-opacity="1.0"><rect width="0.0231" height="0.0166" x="0.6886" y="-0.4302"/></g></g></g><g class="frame"><g stroke-width="0" stroke="rgb(0%, 0%, 0%)" stroke-opacity="0" fill="rgb(100%, 100%, 100%)" fill-opacity="0.02"><rect width="1.6180" height="1.0000" x="-0.8090" y="-0.5000"/></g></g><g class="title"><g stroke-width="0.0" stroke="none" fill="rgb(5%, 5%, 5%)" fill-opacity="1.0" font-size="0.0264" text-anchor="middle"><text x="-0.7465" y="0" transform="rotate(-90.0, -0.7465, 0)">Time [us]</text></g></g></g></svg>