<svg xmlns="http://www.w3.org/2000/svg" xmlns:xlink="http://www.w3.org/1999/xlink" width="464" height="300" viewBox="-0.8090 -0.5000 1.6180 1.0446"><style>svg {
  color-scheme: light dark;
}
{
  .canvas g, .title g, .axisbar g, .ticktext g, .tickglyph g, .ticklines g, .legendContent g text {
    fill: rgb(5%, 5%, 5%);
  }
  .ticklines g, .tickglyph g, .legendBorder g {
    stroke: rgb(5%, 5%, 5%);
  }
  .legendBorder g {
    fill: rgb(94%, 94%, 94%);
  }
}
@media (prefers-color-scheme:dark) {
  .canvas g, .title g, .axisbar g, .ticktext g, .tickglyph g, .ticklines g, .legendContent g text {
    fill: rgb(94%, 94%, 94%);
  }
  .ticklines g, .tickglyph g, .legendBorder g {
    stroke: rgb(94%, 94%, 94%);
  }
  .legendBorder g {
    fill: rgb(5%, 5%, 5%);
  }
}</style><g class="chart"><g class="barchart"><g stroke-width="0" stroke="rgb(2%, 29%, 48%)" stroke-opacity="1.0" fill="rgb(0%, 30%, 12%)" fill-opacity="1.0"><rect width="0.0246" height="0.2057" x="-0.4238" y="-0.0735"/></g><g stroke-width="0.0010" stroke="rgb(0%, 30%, 12%)" stroke-opacity="1.0" fill="rgb(0%, 30%, 12%)" fill-opacity="0.25"><rect width="0.0246" height="0.2879" x="-0.3992" y="-0.1557"/></g><g stroke-width="0" stroke="rgb(2%, 29%, 48%)" stroke-opacity="1.0" fill="rgb(0%, 25%, 37%)" fill-opacity="1.0"><rect width="0.0246" height="0.1391" x="-0.3746" y="-0.0069"/></g><g stroke-width="0.0010" stroke="rgb(0%, 25%, 37%)" stroke-opacity="1.0" fill="rgb(0%, 25%, 37%)" fill-opacity="0.25"><rect width="0.0246" height="0.1988" x="-0.3499" y="-0.0666"/></g><g stroke-width="0" stroke="rgb(2%, 29%, 48%)" stroke-opacity="1.0" fill="rgb(26%, 54%, 57%)" fill-opacity="1.0"><rect width="0.0246" height="0.1386" x="-0.3253" y="-0.0064"/></g><g stroke-width="0.0010" stroke="rgb(26%, 54%, 57%)" stroke-opacity="1.0" fill="rgb(26%, 54%, 57%)" fill-opacity="0.25"><rect width="0.0246" height="0.1967" x="-0.3006" y="-0.0645"/></g><g stroke-width="0" stroke="rgb(2%, 29%, 48%)" stroke-opacity="1.0" fill="rgb(1%, 28%, 43%)" fill-opacity="1.0"><rect width="0.0246" height="0.1385" x="-0.2760" y="-0.0062"/></g><g stroke-width="0.0010" stroke="rgb(1%, 28%, 43%)" stroke-opacity="1.0" fill="rgb(1%, 28%, 43%)" fill-opacity="0.25"><rect width="0.0246" height="0.1986" x="-0.2513" y="-0.0663"/></g><g stroke-width="0" stroke="rgb(2%, 29%, 48%)" stroke-opacity="1.0" fill="rgb(0%, 72%, 98%)" fill-opacity="1.0"><rect width="0.0246" height="0.2037" x="-0.2267" y="-0.0715"/></g><g stroke-width="0.0010" stroke="rgb(0%, 72%, 98%)" stroke-opacity="1.0" fill="rgb(0%, 72%, 98%)" fill-opacity="0.25"><rect width="0.0246" height="0.2877" x="-0.2021" y="-0.1555"/></g><g stroke-width="0" stroke="rgb(2%, 29%, 48%)" stroke-opacity="1.0" fill="rgb(90%, 37%, 58%)" fill-opacity="1.0"><rect width="0.0246" height="0.1371" x="-0.1774" y="-0.0049"/></g><g stroke-width="0.0010" stroke="rgb(90%, 37%, 58%)" stroke-opacity="1.0" fill="rgb(90%, 37%, 58%)" fill-opacity="0.25"><rect width="0.0246" height="0.2018" x="-0.1528" y="-0.0695"/></g><g stroke-width="0" stroke="rgb(2%, 29%, 48%)" stroke-opacity="1.0" fill="rgb(38%, 23%, 0%)" fill-opacity="1.0"><rect width="0.0246" height="0.1348" x="-0.1281" y="-0.0025"/></g><g stroke-width="0.0010" stroke="rgb(38%, 23%, 0%)" stroke-opacity="1.0" fill="rgb(38%, 23%, 0%)" fill-opacity="0.25"><rect width="0.0246" height="0.1998" x="-0.1035" y="-0.0676"/></g><g stroke-width="0" stroke="rgb(2%, 29%, 48%)" stroke-opacity="1.0" fill="rgb(91%, 19%, 0%)" fill-opacity="1.0"><rect width="0.0246" height="0.1377" x="-0.0788" y="-0.0055"/></g><g stroke-width="0.0010" stroke="rgb(91%, 19%, 0%)" stroke-opacity="1.0" fill="rgb(91%, 19%, 0%)" fill-opacity="0.25"><rect width="0.0246" height="0.1997" x="-0.0542" y="-0.0674"/></g><g stroke-width="0" stroke="rgb(2%, 29%, 48%)" stroke-opacity="1.0" fill="rgb(0%, 64%, 70%)" fill-opacity="1.0"><rect width="0.0246" height="0.1967" x="-0.0296" y="-0.0645"/></g><g stroke-width="0.0010" stroke="rgb(0%, 64%, 70%)" stroke-opacity="1.0" fill="rgb(0%, 64%, 70%)" fill-opacity="0.25"><rect width="0.0246" height="0.2859" x="-0.0049" y="-0.1537"/></g><g stroke-width="0" stroke="rgb(2%, 29%, 48%)" stroke-opacity="1.0" fill="rgb(91%, 47%, 0%)" fill-opacity="1.0"><rect width="0.0246" height="0.1366" x="0.0197" y="-0.0044"/></g><g stroke-width="0.0010" stroke="rgb(91%, 47%, 0%)" stroke-opacity="1.0" fill="rgb(91%, 47%, 0%)" fill-opacity="0.25"><rect width="0.0246" height="0.2009" x="0.0444" y="-0.0687"/></g><g stroke-width="0" stroke="rgb(2%, 29%, 48%)" stroke-opacity="1.0" fill="rgb(62%, 0%, 31%)" fill-opacity="1.0"><rect width="0.0246" height="0.1379" x="0.0690" y="-0.0057"/></g><g stroke-width="0.0010" stroke="rgb(62%, 0%, 31%)" stroke-opacity="1.0" fill="rgb(62%, 0%, 31%)" fill-opacity="0.25"><rect width="0.0246" height="0.1971" x="0.0936" y="-0.0649"/></g><g stroke-width="0" stroke="rgb(2%, 29%, 48%)" stroke-opacity="1.0" fill="rgb(17%, 40%, 67%)" fill-opacity="1.0"><rect width="0.0246" height="0.1373" x="0.1183" y="-0.0051"/></g><g stroke-width="0.0010" stroke="rgb(17%, 40%, 67%)" stroke-opacity="1.0" fill="rgb(17%, 40%, 67%)" fill-opacity="0.25"><rect width="0.0246" height="0.1980" x="0.1429" y="-0.0658"/></g><g stroke-width="0" stroke="rgb(2%, 29%, 48%)" stroke-opacity="1.0" fill="rgb(0%, 52%, 40%)" fill-opacity="1.0"><rect width="0.0246" height="0.1843" x="0.1676" y="-0.0521"/></g><g stroke-width="0.0010" stroke="rgb(0%, 52%, 40%)" stroke-opacity="1.0" fill="rgb(0%, 52%, 40%)" fill-opacity="0.25"><rect width="0.0246" height="0.1825" x="0.1922" y="-0.0503"/></g></g><g class="errors"><g stroke-width="0.0015" stroke="rgb(5%, 5%, 5%)" stroke-opacity="1.0" fill="none"><polyline points="-0.4140,-0.0661 -0.4091,-0.0661"/><polyline points="-0.4115,-0.0661 -0.4115,-0.0809"/><polyline points="-0.4140,-0.0809 -0.4091,-0.0809"/></g><g stroke-width="0.0015" stroke="rgb(5%, 5%, 5%)" stroke-opacity="1.0" fill="none"><polyline points="-0.3893,-0.1450 -0.3844,-0.1450"/><polyline points="-0.3869,-0.1450 -0.3869,-0.1664"/><polyline points="-0.3893,-0.1664 -0.3844,-0.1664"/></g><g stroke-width="0.0015" stroke="rgb(5%, 5%, 5%)" stroke-opacity="1.0" fill="none"><polyline points="-0.3647,-0.0012 -0.3598,-0.0012"/><polyline points="-0.3622,-0.0012 -0.3622,-0.0125"/><polyline points="-0.3647,-0.0125 -0.3598,-0.0125"/></g><g stroke-width="0.0015" stroke="rgb(5%, 5%, 5%)" stroke-opacity="1.0" fill="none"><polyline points="-0.3401,-0.0602 -0.3351,-0.0602"/><polyline points="-0.3376,-0.0602 -0.3376,-0.0730"/><polyline points="-0.3401,-0.0730 -0.3351,-0.0730"/></g><g stroke-width="0.0015" stroke="rgb(5%, 5%, 5%)" stroke-opacity="1.0" fill="none"><polyline points="-0.3154,-0.0019 -0.3105,-0.0019"/><polyline points="-0.3129,-0.0019 -0.3129,-0.0109"/><polyline points="-0.3154,-0.0109 -0.3105,-0.0109"/></g><g stroke-width="0.0015" stroke="rgb(5%, 5%, 5%)" stroke-opacity="1.0" fill="none"><polyline points="-0.2908,-0.0568 -0.2858,-0.0568"/><polyline points="-0.2883,-0.0568 -0.2883,-0.0722"/><polyline points="-0.2908,-0.0722 -0.2858,-0.0722"/></g><g stroke-width="0.0015" stroke="rgb(5%, 5%, 5%)" stroke-opacity="1.0" fill="none"><polyline points="-0.2661,-0.0033 -0.2612,-0.0033"/><polyline points="-0.2637,-0.0033 -0.2637,-0.0092"/><polyline points="-0.2661,-0.0092 -0.2612,-0.0092"/></g><g stroke-width="0.0015" stroke="rgb(5%, 5%, 5%)" stroke-opacity="1.0" fill="none"><polyline points="-0.2415,-0.0594 -0.2366,-0.0594"/><polyline points="-0.2390,-0.0594 -0.2390,-0.0732"/><polyline points="-0.2415,-0.0732 -0.2366,-0.0732"/></g><g stroke-width="0.0015" stroke="rgb(5%, 5%, 5%)" stroke-opacity="1.0" fill="none"><polyline points="-0.2168,-0.0642 -0.2119,-0.0642"/><polyline points="-0.2144,-0.0642 -0.2144,-0.0787"/><polyline points="-0.2168,-0.0787 -0.2119,-0.0787"/></g><g stroke-width="0.0015" stroke="rgb(5%, 5%, 5%)" stroke-opacity="1.0" fill="none"><polyline points="-0.1922,-0.1504 -0.1873,-0.1504"/><polyline points="-0.1897,-0.1504 -0.1897,-0.1605"/><polyline points="-0.1922,-0.1605 -0.1873,-0.1605"/></g><g stroke-width="0.0015" stroke="rgb(5%, 5%, 5%)" stroke-opacity="1.0" fill="none"><polyline points="-0.1676,0.0007 -0.1626,0.0007"/><polyline points="-0.1651,0.0007 -0.1651,-0.0104"/><polyline points="-0.1676,-0.0104 -0.1626,-0.0104"/></g><g stroke-width="0.0015" stroke="rgb(5%, 5%, 5%)" stroke-opacity="1.0" fill="none"><polyline points="-0.1429,-0.0625 -0.1380,-0.0625"/><polyline points="-0.1405,-0.0625 -0.1405,-0.0765"/><polyline points="-0.1429,-0.0765 -0.1380,-0.0765"/></g><g stroke-width="0.0015" stroke="rgb(5%, 5%, 5%)" stroke-opacity="1.0" fill="none"><polyline points="-0.1183,0.0003 -0.1133,0.0003"/><polyline points="-0.1158,0.0003 -0.1158,-0.0054"/><polyline points="-0.1183,-0.0054 -0.1133,-0.0054"/></g><g stroke-width="0.0015" stroke="rgb(5%, 5%, 5%)" stroke-opacity="1.0" fill="none"><polyline points="-0.0936,-0.0611 -0.0887,-0.0611"/><polyline points="-0.0912,-0.0611 -0.0912,-0.0742"/><polyline points="-0.0936,-0.0742 -0.0887,-0.0742"/></g><g stroke-width="0.0015" stroke="rgb(5%, 5%, 5%)" stroke-opacity="1.0" fill="none"><polyline points="-0.0690,0.0012 -0.0641,0.0012"/><polyline points="-0.0665,0.0012 -0.0665,-0.0123"/><polyline points="-0.0690,-0.0123 -0.0641,-0.0123"/></g><g stroke-width="0.0015" stroke="rgb(5%, 5%, 5%)" stroke-opacity="1.0" fill="none"><polyline points="-0.0443,-0.0611 -0.0394,-0.0611"/><polyline points="-0.0419,-0.0611 -0.0419,-0.0738"/><polyline points="-0.0443,-0.0738 -0.0394,-0.0738"/></g><g stroke-width="0.0015" stroke="rgb(5%, 5%, 5%)" stroke-opacity="1.0" fill="none"><polyline points="-0.0197,-0.0565 -0.0148,-0.0565"/><polyline points="-0.0172,-0.0565 -0.0172,-0.0725"/><polyline points="-0.0197,-0.0725 -0.0148,-0.0725"/></g><g stroke-width="0.0015" stroke="rgb(5%, 5%, 5%)" stroke-opacity="1.0" fill="none"><polyline points="0.0049,-0.1472 0.0099,-0.1472"/><polyline points="0.0074,-0.1472 0.0074,-0.1602"/><polyline points="0.0049,-0.1602 0.0099,-0.1602"/></g><g stroke-width="0.0015" stroke="rgb(5%, 5%, 5%)" stroke-opacity="1.0" fill="none"><polyline points="0.0296,-0.0016 0.0345,-0.0016"/><polyline points="0.0320,-0.0016 0.0320,-0.0072"/><polyline points="0.0296,-0.0072 0.0345,-0.0072"/></g><g stroke-width="0.0015" stroke="rgb(5%, 5%, 5%)" stroke-opacity="1.0" fill="none"><polyline points="0.0542,-0.0627 0.0591,-0.0627"/><polyline points="0.0567,-0.0627 0.0567,-0.0747"/><polyline points="0.0542,-0.0747 0.0591,-0.0747"/></g><g stroke-width="0.0015" stroke="rgb(5%, 5%, 5%)" stroke-opacity="1.0" fill="none"><polyline points="0.0789,0.0005 0.0838,0.0005"/><polyline points="0.0813,0.0005 0.0813,-0.0119"/><polyline points="0.0789,-0.0119 0.0838,-0.0119"/></g><g stroke-width="0.0015" stroke="rgb(5%, 5%, 5%)" stroke-opacity="1.0" fill="none"><polyline points="0.1035,-0.0574 0.1084,-0.0574"/><polyline points="0.1060,-0.0574 0.1060,-0.0724"/><polyline points="0.1035,-0.0724 0.1084,-0.0724"/></g><g stroke-width="0.0015" stroke="rgb(5%, 5%, 5%)" stroke-opacity="1.0" fill="none"><polyline points="0.1281,-0.0003 0.1331,-0.0003"/><polyline points="0.1306,-0.0003 0.1306,-0.0098"/><polyline points="0.1281,-0.0098 0.1331,-0.0098"/></g><g stroke-width="0.0015" stroke="rgb(5%, 5%, 5%)" stroke-opacity="1.0" fill="none"><polyline points="0.1528,-0.0596 0.1577,-0.0596"/><polyline points="0.1553,-0.0596 0.1553,-0.0720"/><polyline points="0.1528,-0.0720 0.1577,-0.0720"/></g><g stroke-width="0.0015" stroke="rgb(5%, 5%, 5%)" stroke-opacity="1.0" fill="none"><polyline points="0.1774,-0.0465 0.1824,-0.0465"/><polyline points="0.1799,-0.0465 0.1799,-0.0577"/><polyline points="0.1774,-0.0577 0.1824,-0.0577"/></g><g stroke-width="0.0015" stroke="rgb(5%, 5%, 5%)" stroke-opacity="1.0" fill="none"><polyline points="0.2021,-0.0424 0.2070,-0.0424"/><polyline points="0.2045,-0.0424 0.2045,-0.0583"/><polyline points="0.2021,-0.0583 0.2070,-0.0583"/></g></g></g><g class="hud"><g class="axis"><g class="ticks"><g class="tickglyph"><g stroke-width="0.0040" stroke="rgb(5%, 5%, 5%)" stroke-opacity="0.4" fill="rgb(5%, 5%, 5%)" fill-opacity="0.4"><g transform="rotate(-90.0, -0.4726, 0.1322)"><polyline points="-0.4726,0.1472
-0.4726,0.1172"/></g><g transform="rotate(-90.0, -0.4726, 0.0690)"><polyline points="-0.4726,0.0840
-0.4726,0.0540"/></g><g transform="rotate(-90.0, -0.4726, 0.0058)"><polyline points="-0.4726,0.0208
-0.4726,-0.0092"/></g><g transform="rotate(-90.0, -0.4726, -0.0574)"><polyline points="-0.4726,-0.0424
-0.4726,-0.0724"/></g><g transform="rotate(-90.0, -0.4726, -0.1206)"><polyline points="-0.4726,-0.1056
-0.4726,-0.1356"/></g><g transform="rotate(-90.0, -0.4726, -0.1838)"><polyline points="-0.4726,-0.1688
-0.4726,-0.1988"/></g></g></g><g class="ticktext"><g stroke-width="0.0" stroke="none" fill="rgb(5%, 5%, 5%)" fill-opacity="1.0" font-size="0.0220" text-anchor="end"><text x="-0.4885" y="0.1366">0.0</text><text x="-0.4885" y="0.0734">0.5</text><text x="-0.4885" y="0.0102">1.0</text><text x="-0.4885" y="-0.0530">1.5</text><text x="-0.4885" y="-0.1162">2.0</text><text x="-0.4885" y="-0.1794">2.5</text></g></g><g class="ticklines"><g stroke-width="0.0050" stroke="rgb(5%, 5%, 5%)" stroke-opacity="0.05" fill="none"><polyline points="-0.4594,0.1322 0.2525,0.1322"/><polyline points="-0.4594,0.0690 0.2525,0.0690"/><polyline points="-0.4594,0.0058 0.2525,0.0058"/><polyline points="-0.4594,-0.0574 0.2525,-0.0574"/><polyline points="-0.4594,-0.1206 0.2525,-0.1206"/><polyline points="-0.4594,-0.1838 0.2525,-0.1838"/></g></g></g><g class="axisbar"><g stroke-width="0" stroke="rgb(0%, 0%, 0%)" stroke-opacity="0" fill="rgb(5%, 5%, 5%)" fill-opacity="0.4"><rect width="0.0018" height="0.3173" x="-0.4656" y="-0.1844"/></g></g></g><g class="axis"><g class="ticks"><g class="tickglyph"><g stroke-width="0.0040" stroke="rgb(5%, 5%, 5%)" stroke-opacity="0.4" fill="rgb(5%, 5%, 5%)" fill-opacity="0.4"><polyline points="-0.4115,0.1569
-0.4115,0.1269"/><polyline points="-0.3869,0.1569
-0.3869,0.1269"/><polyline points="-0.3622,0.1569
-0.3622,0.1269"/><polyline points="-0.3376,0.1569
-0.3376,0.1269"/><polyline points="-0.3129,0.1569
-0.3129,0.1269"/><polyline points="-0.2883,0.1569
-0.2883,0.1269"/><polyline points="-0.2637,0.1569
-0.2637,0.1269"/><polyline points="-0.2390,0.1569
-0.2390,0.1269"/><polyline points="-0.2144,0.1569
-0.2144,0.1269"/><polyline points="-0.1897,0.1569
-0.1897,0.1269"/><polyline points="-0.1651,0.1569
-0.1651,0.1269"/><polyline points="-0.1405,0.1569
-0.1405,0.1269"/><polyline points="-0.1158,0.1569
-0.1158,0.1269"/><polyline points="-0.0912,0.1569
-0.0912,0.1269"/><polyline points="-0.0665,0.1569
-0.0665,0.1269"/><polyline points="-0.0419,0.1569
-0.0419,0.1269"/><polyline points="-0.0172,0.1569
-0.0172,0.1269"/><polyline points="0.0074,0.1569
0.0074,0.1269"/><polyline points="0.0320,0.1569
0.0320,0.1269"/><polyline points="0.0567,0.1569
0.0567,0.1269"/><polyline points="0.0813,0.1569
0.0813,0.1269"/><polyline points="0.1060,0.1569
0.1060,0.1269"/><polyline points="0.1306,0.1569
0.1306,0.1269"/><polyline points="0.1553,0.1569
0.1553,0.1269"/><polyline points="0.1799,0.1569
0.1799,0.1269"/><polyline points="0.2045,0.1569
0.2045,0.1269"/></g></g><g class="ticktext"><g stroke-width="0.0" stroke="none" fill="rgb(5%, 5%, 5%)" fill-opacity="1.0" font-size="0.0220" text-anchor="end"><text x="-0.4115" y="0.1619" transform="rotate(-45.0, -0.4115, 0.1619)">CDCL (adaptive)</text><text x="-0.3869" y="0.1619" transform="rotate(-45.0, -0.3869, 0.1619)">CDCL (adaptive), Baseline</text><text x="-0.3622" y="0.1619" transform="rotate(-45.0, -0.3622, 0.1619)">CDCL (adaptive, mVISDS, ExpRestart(100, 2))</text><text x="-0.3376" y="0.1619" transform="rotate(-45.0, -0.3376, 0.1619)">CDCL (adaptive, mVISDS, ExpRestart(100, 2)), Baseline</text><text x="-0.3129" y="0.1619" transform="rotate(-45.0, -0.3129, 0.1619)">CDCL (adaptive, mVISDS, LubyRestart(100, 2))</text><text x="-0.2883" y="0.1619" transform="rotate(-45.0, -0.2883, 0.1619)">CDCL (adaptive, mVISDS, LubyRestart(100, 2)), Baseline</text><text x="-0.2637" y="0.1619" transform="rotate(-45.0, -0.2637, 0.1619)">CDCL (adaptive, mVSIDS)</text><text x="-0.2390" y="0.1619" transform="rotate(-45.0, -0.2390, 0.1619)">CDCL (adaptive, mVSIDS), Baseline</text><text x="-0.2144" y="0.1619" transform="rotate(-45.0, -0.2144, 0.1619)">CDCL (α = 0.75)</text><text x="-0.1897" y="0.1619" transform="rotate(-45.0, -0.1897, 0.1619)">CDCL (α = 0.75), Baseline</text><text x="-0.1651" y="0.1619" transform="rotate(-45.0, -0.1651, 0.1619)">CDCL (α = 0.75, mVISDS)</text><text x="-0.1405" y="0.1619" transform="rotate(-45.0, -0.1405, 0.1619)">CDCL (α = 0.75, mVISDS), Baseline</text><text x="-0.1158" y="0.1619" transform="rotate(-45.0, -0.1158, 0.1619)">CDCL (α = 0.75, mVISDS, ExpRestart(100, 2))</text><text x="-0.0912" y="0.1619" transform="rotate(-45.0, -0.0912, 0.1619)">CDCL (α = 0.75, mVISDS, ExpRestart(100, 2)), Baseline</text><text x="-0.0665" y="0.1619" transform="rotate(-45.0, -0.0665, 0.1619)">CDCL (α = 0.75, mVISDS, LubyRestart(100, 2))</text><text x="-0.0419" y="0.1619" transform="rotate(-45.0, -0.0419, 0.1619)">CDCL (α = 0.75, mVISDS, LubyRestart(100, 2)), Baseline</text><text x="-0.0172" y="0.1619" transform="rotate(-45.0, -0.0172, 0.1619)">CDCL (α = 0.95)</text><text x="0.0074" y="0.1619" transform="rotate(-45.0, 0.0074, 0.1619)">CDCL (α = 0.95), Baseline</text><text x="0.0320" y="0.1619" transform="rotate(-45.0, 0.0320, 0.1619)">CDCL (α = 0.95, mVISDS)</text><text x="0.0567" y="0.1619" transform="rotate(-45.0, 0.0567, 0.1619)">CDCL (α = 0.95, mVISDS), Baseline</text><text x="0.0813" y="0.1619" transform="rotate(-45.0, 0.0813, 0.1619)">CDCL (α = 0.95, mVISDS, ExpRestart(100, 2))</text><text x="0.1060" y="0.1619" transform="rotate(-45.0, 0.1060, 0.1619)">CDCL (α = 0.95, mVISDS, ExpRestart(100, 2)), Baseline</text><text x="0.1306" y="0.1619" transform="rotate(-45.0, 0.1306, 0.1619)">CDCL (α = 0.95, mVISDS, LubyRestart(100, 2))</text><text x="0.1553" y="0.1619" transform="rotate(-45.0, 0.1553, 0.1619)">CDCL (α = 0.95, mVISDS, LubyRestart(100, 2)), Baseline</text><text x="0.1799" y="0.1619" transform="rotate(-45.0, 0.1799, 0.1619)">DPLL</text><text x="0.2045" y="0.1619" transform="rotate(-45.0, 0.2045, 0.1619)">DPLL, Baseline</text></g></g></g><g class="axisbar"><g stroke-width="0" stroke="rgb(0%, 0%, 0%)" stroke-opacity="0" fill="rgb(5%, 5%, 5%)" fill-opacity="0.4"><rect width="0.7136" height="0.0013" x="-0.4603" y="0.1355"/></g></g></g><g class="title"><g stroke-width="0.0" stroke="none" fill="rgb(5%, 5%, 5%)" fill-opacity="1.0" font-size="0.0528" text-anchor="middle"><text x="-0.2337" y="-0.2161">Time: SATLIB/uf20-91/uf20-050/cnf</text></g></g><g class="legend"><g class="legendBorder"><g stroke-width="0.0017" stroke="rgb(5%, 5%, 5%)" stroke-opacity="1.0" fill="rgb(5%, 5%, 5%)" fill-opacity="0"><rect width="0.3907" height="0.5818" x="0.3288" y="-0.4357"/></g></g><g class="legendContent"><g stroke-width="0.0" stroke="none" fill="rgb(5%, 5%, 5%)" fill-opacity="1.0" font-size="0.0139" text-anchor="start"><text x="0.3365" y="0.1347">DPLL, Baseline</text></g><g stroke-width="0.0002" stroke="rgb(0%, 52%, 40%)" stroke-opacity="1.0" fill="rgb(0%, 52%, 40%)" fill-opacity="0.25"><rect width="0.0231" height="0.0166" x="0.6886" y="0.1239"/></g><g stroke-width="0.0" stroke="none" fill="rgb(5%, 5%, 5%)" fill-opacity="1.0" font-size="0.0139" text-anchor="start"><text x="0.3365" y="0.1125">DPLL</text></g><g stroke-width="0" stroke="rgb(2%, 29%, 48%)" stroke-opacity="1.0" fill="rgb(0%, 52%, 40%)" fill-opacity="1.0"><rect width="0.0231" height="0.0166" x="0.6886" y="0.1018"/></g><g stroke-width="0.0" stroke="none" fill="rgb(5%, 5%, 5%)" fill-opacity="1.0" font-size="0.0139" text-anchor="start"><text x="0.3365" y="0.0904">CDCL (α = 0.95, mVISDS, LubyRestart(100, 2)), Baseline</text></g><g stroke-width="0.0002" stroke="rgb(17%, 40%, 67%)" stroke-opacity="1.0" fill="rgb(17%, 40%, 67%)" fill-opacity="0.25"><rect width="0.0231" height="0.0166" x="0.6886" y="0.0796"/></g><g stroke-width="0.0" stroke="none" fill="rgb(5%, 5%, 5%)" fill-opacity="1.0" font-size="0.0139" text-anchor="start"><text x="0.3365" y="0.0682">CDCL (α = 0.95, mVISDS, LubyRestart(100, 2))</text></g><g stroke-width="0" stroke="rgb(2%, 29%, 48%)" stroke-opacity="1.0" fill="rgb(17%, 40%, 67%)" fill-opacity="1.0"><rect width="0.0231" height="0.0166" x="0.6886" y="0.0574"/></g><g stroke-width="0.0" stroke="none" fill="rgb(5%, 5%, 5%)" fill-opacity="1.0" font-size="0.0139" text-anchor="start"><text x="0.3365" y="0.0461">CDCL (α = 0.95, mVISDS, ExpRestart(100, 2)), Baseline</text></g><g stroke-width="0.0002" stroke="rgb(62%, 0%, 31%)" stroke-opacity="1.0" fill="rgb(62%, 0%, 31%)" fill-opacity="0.25"><rect width="0.0231" height="0.0166" x="0.6886" y="0.0353"/></g><g stroke-width="0.0" stroke="none" fill="rgb(5%, 5%, 5%)" fill-opacity="1.0" font-size="0.0139" text-anchor="start"><text x="0.3365" y="0.0239">CDCL (α = 0.95, mVISDS, ExpRestart(100, 2))</text></g><g stroke-width="0" stroke="rgb(2%, 29%, 48%)" stroke-opacity="1.0" fill="rgb(62%, 0%, 31%)" fill-opacity="1.0"><rect width="0.0231" height="0.0166" x="0.6886" y="0.0131"/></g><g stroke-width="0.0" stroke="none" fill="rgb(5%, 5%, 5%)" fill-opacity="1.0" font-size="0.0139" text-anchor="start"><text x="0.3365" y="0.0017">CDCL (α = 0.95, mVISDS), Baseline</text></g><g stroke-width="0.0002" stroke="rgb(91%, 47%, 0%)" stroke-opacity="1.0" fill="rgb(91%, 47%, 0%)" fill-opacity="0.25"><rect width="0.0231" height="0.0166" x="0.6886" y="-0.0090"/></g><g stroke-width="0.0" stroke="none" fill="rgb(5%, 5%, 5%)" fill-opacity="1.0" font-size="0.0139" text-anchor="start"><text x="0.3365" y="-0.0204">CDCL (α = 0.95, mVISDS)</text></g><g stroke-width="0" stroke="rgb(2%, 29%, 48%)" stroke-opacity="1.0" fill="rgb(91%, 47%, 0%)" fill-opacity="1.0"><rect width="0.0231" height="0.0166" x="0.6886" y="-0.0312"/></g><g stroke-width="0.0" stroke="none" fill="rgb(5%, 5%, 5%)" fill-opacity="1.0" font-size="0.0139" text-anchor="start"><text x="0.3365" y="-0.0426">CDCL (α = 0.95), Baseline</text></g><g stroke-width="0.0002" stroke="rgb(0%, 64%, 70%)" stroke-opacity="1.0" fill="rgb(0%, 64%, 70%)" fill-opacity="0.25"><rect width="0.0231" height="0.0166" x="0.6886" y="-0.0534"/></g><g stroke-width="0.0" stroke="none" fill="rgb(5%, 5%, 5%)" fill-opacity="1.0" font-size="0.0139" text-anchor="start"><text x="0.3365" y="-0.0648">CDCL (α = 0.95)</text></g><g stroke-width="0" stroke="rgb(2%, 29%, 48%)" stroke-opacity="1.0" fill="rgb(0%, 64%, 70%)" fill-opacity="1.0"><rect width="0.0231" height="0.0166" x="0.6886" y="-0.0755"/></g><g stroke-width="0.0" stroke="none" fill="rgb(5%, 5%, 5%)" fill-opacity="1.0" font-size="0.0139" text-anchor="start"><text x="0.3365" y="-0.0869">CDCL (α = 0.75, mVISDS, LubyRestart(100, 2)), Baseline</text></g><g stroke-width="0.0002" stroke="rgb(91%, 19%, 0%)" stroke-opacity="1.0" fill="rgb(91%, 19%, 0%)" fill-opacity="0.25"><rect width="0.0231" height="0.0166" x="0.6886" y="-0.0977"/></g><g stroke-width="0.0" stroke="none" fill="rgb(5%, 5%, 5%)" fill-opacity="1.0" font-size="0.0139" text-anchor="start"><text x="0.3365" y="-0.1091">CDCL (α = 0.75, mVISDS, LubyRestart(100, 2))</text></g><g stroke-width="0" stroke="rgb(2%, 29%, 48%)" stroke-opacity="1.0" fill="rgb(91%, 19%, 0%)" fill-opacity="1.0"><rect width="0.0231" height="0.0166" x="0.6886" y="-0.1199"/></g><g stroke-width="0.0" stroke="none" fill="rgb(5%, 5%, 5%)" fill-opacity="1.0" font-size="0.0139" text-anchor="start"><text x="0.3365" y="-0.1312">CDCL (α = 0.75, mVISDS, ExpRestart(100, 2)), Baseline</text></g><g stroke-width="0.0002" stroke="rgb(38%, 23%, 0%)" stroke-opacity="1.0" fill="rgb(38%, 23%, 0%)" fill-opacity="0.25"><rect width="0.0231" height="0.0166" x="0.6886" y="-0.1420"/></g><g stroke-width="0.0" stroke="none" fill="rgb(5%, 5%, 5%)" fill-opacity="1.0" font-size="0.0139" text-anchor="start"><text x="0.3365" y="-0.1534">CDCL (α = 0.75, mVISDS, ExpRestart(100, 2))</text></g><g stroke-width="0" stroke="rgb(2%, 29%, 48%)" stroke-opacity="1.0" fill="rgb(38%, 23%, 0%)" fill-opacity="1.0"><rect width="0.0231" height="0.0166" x="0.6886" y="-0.1642"/></g><g stroke-width="0.0" stroke="none" fill="rgb(5%, 5%, 5%)" fill-opacity="1.0" font-size="0.0139" text-anchor="start"><text x="0.3365" y="-0.1756">CDCL (α = 0.75, mVISDS), Baseline</text></g><g stroke-width="0.0002" stroke="rgb(90%, 37%, 58%)" stroke-opacity="1.0" fill="rgb(90%, 37%, 58%)" fill-opacity="0.25"><rect width="0.0231" height="0.0166" x="0.6886" y="-0.1864"/></g><g stroke-width="0.0" stroke="none" fill="rgb(5%, 5%, 5%)" fill-opacity="1.0" font-size="0.0139" text-anchor="start"><text x="0.3365" y="-0.1977">CDCL (α = 0.75, mVISDS)</text></g><g stroke-width="0" stroke="rgb(2%, 29%, 48%)" stroke-opacity="1.0" fill="rgb(90%, 37%, 58%)" fill-opacity="1.0"><rect width="0.0231" height="0.0166" x="0.6886" y="-0.2085"/></g><g stroke-width="0.0" stroke="none" fill="rgb(5%, 5%, 5%)" fill-opacity="1.0" font-size="0.0139" text-anchor="start"><text x="0.3365" y="-0.2199">CDCL (α = 0.75), Baseline</text></g><g stroke-width="0.0002" stroke="rgb(0%, 72%, 98%)" stroke-opacity="1.0" fill="rgb(0%, 72%, 98%)" fill-opacity="0.25"><rect width="0.0231" height="0.0166" x="0.6886" y="-0.2307"/></g><g stroke-width="0.0" stroke="none" fill="rgb(5%, 5%, 5%)" fill-opacity="1.0" font-size="0.0139" text-anchor="start"><text x="0.3365" y="-0.2421">CDCL (α = 0.75)</text></g><g stroke-width="0" stroke="rgb(2%, 29%, 48%)" stroke-opacity="1.0" fill="rgb(0%, 72%, 98%)" fill-opacity="1.0"><rect width="0.0231" height="0.0166" x="0.6886" y="-0.2529"/></g><g stroke-width="0.0" stroke="none" fill="rgb(5%, 5%, 5%)" fill-opacity="1.0" font-size="0.0139" text-anchor="start"><text x="0.3365" y="-0.2642">CDCL (adaptive, mVSIDS), Baseline</text></g><g stroke-width="0.0002" stroke="rgb(1%, 28%, 43%)" stroke-opacity="1.0" fill="rgb(1%, 28%, 43%)" fill-opacity="0.25"><rect width="0.0231" height="0.0166" x="0.6886" y="-0.2750"/></g><g stroke-width="0.0" stroke="none" fill="rgb(5%, 5%, 5%)" fill-opacity="1.0" font-size="0.0139" text-anchor="start"><text x="0.3365" y="-0.2864">CDCL (adaptive, mVSIDS)</text></g><g stroke-width="0" stroke="rgb(2%, 29%, 48%)" stroke-opacity="1.0" fill="rgb(1%, 28%, 43%)" fill-opacity="1.0"><rect width="0.0231" height="0.0166" x="0.6886" y="-0.2972"/></g><g stroke-width="0.0" stroke="none" fill="rgb(5%, 5%, 5%)" fill-opacity="1.0" font-size="0.0139" text-anchor="start"><text x="0.3365" y="-0.3085">CDCL (adaptive, mVISDS, LubyRestart(100, 2)), Baseline</text></g><g stroke-width="0.0002" stroke="rgb(26%, 54%, 57%)" stroke-opacity="1.0" fill="rgb(26%, 54%, 57%)" fill-opacity="0.25"><rect width="0.0231" height="0.0166" x="0.6886" y="-0.3193"/></g><g stroke-width="0.0" stroke="none" fill="rgb(5%, 5%, 5%)" fill-opacity="1.0" font-size="0.0139" text-anchor="start"><text x="0.3365" y="-0.3307">CDCL (adaptive, mVISDS, LubyRestart(100, 2))</text></g><g stroke-width="0" stroke="rgb(2%, 29%, 48%)" stroke-opacity="1.0" fill="rgb(26%, 54%, 57%)" fill-opacity="1.0"><rect width="0.0231" height="0.0166" x="0.6886" y="-0.3415"/></g><g stroke-width="0.0" stroke="none" fill="rgb(5%, 5%, 5%)" fill-opacity="1.0" font-size="0.0139" text-anchor="start"><text x="0.3365" y="-0.3529">CDCL (adaptive, mVISDS, ExpRestart(100, 2)), Baseline</text></g><g stroke-width="0.0002" stroke="rgb(0%, 25%, 37%)" stroke-opacity="1.0" fill="rgb(0%, 25%, 37%)" fill-opacity="0.25"><rect width="0.0231" height="0.0166" x="0.6886" y="-0.3637"/></g><g stroke-width="0.0" stroke="none" fill="rgb(5%, 5%, 5%)" fill-opacity="1.0" font-size="0.0139" text-anchor="start"><text x="0.3365" y="-0.3750">CDCL (adaptive, mVISDS, ExpRestart(100, 2))</text></g><g stroke-width="0" stroke="rgb(2%, 29%, 48%)" stroke-opacity="1.0" fill="rgb(0%, 25%, 37%)" fill-opacity="1.0"><rect width="0.0231" height="0.0166" x="0.6886" y="-0.3858"/></g><g stroke-width="0.0" stroke="none" fill="rgb(5%, 5%, 5%)" fill-opacity="1.0" font-size="0.0139" text-anchor="start"><text x="0.3365" y="-0.3972">CDCL (adaptive), Baseline</text></g><g stroke-width="0.0002" stroke="rgb(0%, 30%, 12%)" stroke-opacity="1.0" fill="rgb(0%, 30%, 12%)" fill-opacity="0.25"><rect width="0.0231" height="0.0166" x="0.6886" y="-0.4080"/></g><g stroke-width="0.0" stroke="none" fill="rgb(5%, 5%, 5%)" fill-opacity="1.0" font-size="0.0139" text-anchor="start"><text x="0.3365" y="-0.4194">CDCL (adaptive)</text></g><g stroke-width="0" stroke="rgb(2%, 29%, 48%)" stroke-opacity="1.0" fill="rgb(0%, 30%, 12%)" fill-opacity="1.0"><rect width="0.0231" height="0.0166" x="0.6886" y="-0.4302"/></g></g></g><g class="frame"><g stroke-width="0" stroke="rgb(0%, 0%, 0%)" stroke-opacity="0" fill="rgb(100%, 100%, 100%)" fill-opacity="0.02"><rect width="1.6180" height="1.0000" x="-0.8090" y="-0.5000"/></g></g><g class="title"><g stroke-width="0.0" stroke="none" fill="rgb(5%, 5%, 5%)" fill-opacity="1.0" font-size="0.0264" text-anchor="middle"><text x="-0.7465" y="0" transform="rotate(-90.0, -0.7465, 0)">Time [ms]</text></g></g></g></svg>