<svg xmlns="http://www.w3.org/2000/svg" xmlns:xlink="http://www.w3.org/1999/xlink" width="485" height="300" viewBox="-0.8090 -0.5 1.6180 1.0"><style>svg {
  color-scheme: light dark;
}
{
  .canvas g, .title g, .axisbar g, .ticktext g, .tickglyph g, .ticklines g, .legendContent g text {
    fill: rgb(5%, 5%, 5%);
  }
  .ticklines g, .tickglyph g, .legendBorder g {
    stroke: rgb(5%, 5%, 5%);
  }
  .legendBorder g {
    fill: rgb(94%, 94%, 94%);
  }
}
@media (prefers-color-scheme:dark) {
  .canvas g, .title g, .axisbar g, .ticktext g, .tickglyph g, .ticklines g, .legendContent g text {
    fill: rgb(94%, 94%, 94%);
  }
  .ticklines g, .tickglyph g, .legendBorder g {
    stroke: rgb(94%, 94%, 94%);
  }
  .legendBorder g {
    fill: rgb(5%, 5%, 5%);
  }
}</style><g class="chart"><g class="barchart"><g stroke-width="0" stroke="rgb(2%, 29%, 48%)" stroke-opacity="1.0" fill="rgb(0%, 30%, 12%)" fill-opacity="1.0"><rect width="0.0700" height="0.0062" x="-0.5972" y="0.0758"/></g><g stroke-width="0" stroke="rgb(2%, 29%, 48%)" stroke-opacity="1.0" fill="rgb(1%, 28%, 43%)" fill-opacity="1.0"><rect width="0.0700" height="0.0690" x="-0.5272" y="0.0130"/></g><g stroke-width="0" stroke="rgb(2%, 29%, 48%)" stroke-opacity="1.0" fill="rgb(0%, 72%, 98%)" fill-opacity="1.0"><rect width="0.0700" height="0.0207" x="-0.4572" y="0.0613"/></g><g stroke-width="0" stroke="rgb(2%, 29%, 48%)" stroke-opacity="1.0" fill="rgb(90%, 37%, 58%)" fill-opacity="1.0"><rect width="0.0700" height="0.0166" x="-0.3873" y="0.0654"/></g><g stroke-width="0" stroke="rgb(2%, 29%, 48%)" stroke-opacity="1.0" fill="rgb(38%, 23%, 0%)" fill-opacity="1.0"><rect width="0.0700" height="0.0404" x="-0.3173" y="0.0417"/></g><g stroke-width="0" stroke="rgb(2%, 29%, 48%)" stroke-opacity="1.0" fill="rgb(91%, 19%, 0%)" fill-opacity="1.0"><rect width="0.0700" height="0.0398" x="-0.2473" y="0.0422"/></g><g stroke-width="0" stroke="rgb(2%, 29%, 48%)" stroke-opacity="1.0" fill="rgb(0%, 64%, 70%)" fill-opacity="1.0"><rect width="0.0700" height="0.0065" x="-0.1773" y="0.0755"/></g><g stroke-width="0" stroke="rgb(2%, 29%, 48%)" stroke-opacity="1.0" fill="rgb(91%, 47%, 0%)" fill-opacity="1.0"><rect width="0.0700" height="0.0265" x="-0.1074" y="0.0556"/></g><g stroke-width="0" stroke="rgb(2%, 29%, 48%)" stroke-opacity="1.0" fill="rgb(62%, 0%, 31%)" fill-opacity="1.0"><rect width="0.0700" height="0.0175" x="-0.0374" y="0.0645"/></g><g stroke-width="0" stroke="rgb(2%, 29%, 48%)" stroke-opacity="1.0" fill="rgb(17%, 40%, 67%)" fill-opacity="1.0"><rect width="0.0700" height="0.0177" x="0.0326" y="0.0643"/></g><g stroke-width="0" stroke="rgb(2%, 29%, 48%)" stroke-opacity="1.0" fill="rgb(0%, 52%, 40%)" fill-opacity="1.0"><rect width="0.0700" height="0.3742" x="0.1026" y="-0.2922"/></g></g><g class="errors"><g stroke-width="0.0015" stroke="rgb(5%, 5%, 5%)" stroke-opacity="1.0" fill="none"><polyline points="-0.5692,0.0759 -0.5552,0.0759"/><polyline points="-0.5622,0.0759 -0.5622,0.0757"/><polyline points="-0.5692,0.0757 -0.5552,0.0757"/></g><g stroke-width="0.0015" stroke="rgb(5%, 5%, 5%)" stroke-opacity="1.0" fill="none"><polyline points="-0.4992,0.0143 -0.4852,0.0143"/><polyline points="-0.4922,0.0143 -0.4922,0.0117"/><polyline points="-0.4992,0.0117 -0.4852,0.0117"/></g><g stroke-width="0.0015" stroke="rgb(5%, 5%, 5%)" stroke-opacity="1.0" fill="none"><polyline points="-0.4292,0.0614 -0.4153,0.0614"/><polyline points="-0.4222,0.0614 -0.4222,0.0612"/><polyline points="-0.4292,0.0612 -0.4153,0.0612"/></g><g stroke-width="0.0015" stroke="rgb(5%, 5%, 5%)" stroke-opacity="1.0" fill="none"><polyline points="-0.3593,0.0656 -0.3453,0.0656"/><polyline points="-0.3523,0.0656 -0.3523,0.0651"/><polyline points="-0.3593,0.0651 -0.3453,0.0651"/></g><g stroke-width="0.0015" stroke="rgb(5%, 5%, 5%)" stroke-opacity="1.0" fill="none"><polyline points="-0.2893,0.0420 -0.2753,0.0420"/><polyline points="-0.2823,0.0420 -0.2823,0.0414"/><polyline points="-0.2893,0.0414 -0.2753,0.0414"/></g><g stroke-width="0.0015" stroke="rgb(5%, 5%, 5%)" stroke-opacity="1.0" fill="none"><polyline points="-0.2193,0.0422 -0.2053,0.0422"/><polyline points="-0.2123,0.0422 -0.2123,0.0421"/><polyline points="-0.2193,0.0421 -0.2053,0.0421"/></g><g stroke-width="0.0015" stroke="rgb(5%, 5%, 5%)" stroke-opacity="1.0" fill="none"><polyline points="-0.1493,0.0756 -0.1353,0.0756"/><polyline points="-0.1423,0.0756 -0.1423,0.0755"/><polyline points="-0.1493,0.0755 -0.1353,0.0755"/></g><g stroke-width="0.0015" stroke="rgb(5%, 5%, 5%)" stroke-opacity="1.0" fill="none"><polyline points="-0.0794,0.0558 -0.0654,0.0558"/><polyline points="-0.0724,0.0558 -0.0724,0.0553"/><polyline points="-0.0794,0.0553 -0.0654,0.0553"/></g><g stroke-width="0.0015" stroke="rgb(5%, 5%, 5%)" stroke-opacity="1.0" fill="none"><polyline points="-0.0094,0.0647 0.0046,0.0647"/><polyline points="-0.0024,0.0647 -0.0024,0.0643"/><polyline points="-0.0094,0.0643 0.0046,0.0643"/></g><g stroke-width="0.0015" stroke="rgb(5%, 5%, 5%)" stroke-opacity="1.0" fill="none"><polyline points="0.0606,0.0644 0.0746,0.0644"/><polyline points="0.0676,0.0644 0.0676,0.0642"/><polyline points="0.0606,0.0642 0.0746,0.0642"/></g><g stroke-width="0.0015" stroke="rgb(5%, 5%, 5%)" stroke-opacity="1.0" fill="none"><polyline points="0.1306,-0.2905 0.1446,-0.2905"/><polyline points="0.1376,-0.2905 0.1376,-0.2939"/><polyline points="0.1306,-0.2939 0.1446,-0.2939"/></g></g></g><g class="hud"><g class="axis"><g class="ticks"><g class="tickglyph"><g stroke-width="0.0040" stroke="rgb(5%, 5%, 5%)" stroke-opacity="0.4" fill="rgb(5%, 5%, 5%)" fill-opacity="0.4"><g transform="rotate(-90.0, -0.6558, 0.0820)"><polyline points="-0.6558,0.0970
-0.6558,0.0670"/></g><g transform="rotate(-90.0, -0.6558, 0.0300)"><polyline points="-0.6558,0.0450
-0.6558,0.0150"/></g><g transform="rotate(-90.0, -0.6558, -0.0220)"><polyline points="-0.6558,-0.0070
-0.6558,-0.0370"/></g><g transform="rotate(-90.0, -0.6558, -0.0741)"><polyline points="-0.6558,-0.0591
-0.6558,-0.0891"/></g><g transform="rotate(-90.0, -0.6558, -0.1261)"><polyline points="-0.6558,-0.1111
-0.6558,-0.1411"/></g><g transform="rotate(-90.0, -0.6558, -0.1781)"><polyline points="-0.6558,-0.1631
-0.6558,-0.1931"/></g><g transform="rotate(-90.0, -0.6558, -0.2302)"><polyline points="-0.6558,-0.2152
-0.6558,-0.2452"/></g><g transform="rotate(-90.0, -0.6558, -0.2822)"><polyline points="-0.6558,-0.2672
-0.6558,-0.2972"/></g><g transform="rotate(-90.0, -0.6558, -0.3342)"><polyline points="-0.6558,-0.3192
-0.6558,-0.3492"/></g></g></g><g class="ticktext"><g stroke-width="0.0" stroke="none" fill="rgb(5%, 5%, 5%)" fill-opacity="1.0" font-size="0.0264" text-anchor="end"><text x="-0.6748" y="0.0877"> 0</text><text x="-0.6748" y="0.0357"> 5</text><text x="-0.6748" y="-0.0163">10</text><text x="-0.6748" y="-0.0683">15</text><text x="-0.6748" y="-0.1204">20</text><text x="-0.6748" y="-0.1724">25</text><text x="-0.6748" y="-0.2244">30</text><text x="-0.6748" y="-0.2765">35</text><text x="-0.6748" y="-0.3285">40</text></g></g><g class="ticklines"><g stroke-width="0.0050" stroke="rgb(5%, 5%, 5%)" stroke-opacity="0.05" fill="none"><polyline points="-0.6400,0.0820 0.2153,0.0820"/><polyline points="-0.6400,0.0300 0.2153,0.0300"/><polyline points="-0.6400,-0.0220 0.2153,-0.0220"/><polyline points="-0.6400,-0.0741 0.2153,-0.0741"/><polyline points="-0.6400,-0.1261 0.2153,-0.1261"/><polyline points="-0.6400,-0.1781 0.2153,-0.1781"/><polyline points="-0.6400,-0.2302 0.2153,-0.2302"/><polyline points="-0.6400,-0.2822 0.2153,-0.2822"/><polyline points="-0.6400,-0.3342 0.2153,-0.3342"/></g></g></g><g class="axisbar"><g stroke-width="0" stroke="rgb(0%, 0%, 0%)" stroke-opacity="0" fill="rgb(5%, 5%, 5%)" fill-opacity="0.4"><rect width="0.0021" height="0.4179" x="-0.6474" y="-0.3351"/></g></g></g><g class="axis"><g class="ticks"><g class="tickglyph"><g stroke-width="0.0040" stroke="rgb(5%, 5%, 5%)" stroke-opacity="0.4" fill="rgb(5%, 5%, 5%)" fill-opacity="0.4"><polyline points="-0.5622,0.1095
-0.5622,0.0795"/><polyline points="-0.4922,0.1095
-0.4922,0.0795"/><polyline points="-0.4222,0.1095
-0.4222,0.0795"/><polyline points="-0.3523,0.1095
-0.3523,0.0795"/><polyline points="-0.2823,0.1095
-0.2823,0.0795"/><polyline points="-0.2123,0.1095
-0.2123,0.0795"/><polyline points="-0.1423,0.1095
-0.1423,0.0795"/><polyline points="-0.0724,0.1095
-0.0724,0.0795"/><polyline points="-0.0024,0.1095
-0.0024,0.0795"/><polyline points="0.0676,0.1095
0.0676,0.0795"/><polyline points="0.1376,0.1095
0.1376,0.0795"/></g></g><g class="ticktext"><g stroke-width="0.0" stroke="none" fill="rgb(5%, 5%, 5%)" fill-opacity="1.0" font-size="0.0264" text-anchor="end"><text x="-0.5622" y="0.1209" transform="rotate(-45.0, -0.5622, 0.1209)">CDCL (adaptive)</text><text x="-0.4922" y="0.1209" transform="rotate(-45.0, -0.4922, 0.1209)">CDCL (adaptive, mVSIDS)</text><text x="-0.4222" y="0.1209" transform="rotate(-45.0, -0.4222, 0.1209)">CDCL (α = 0.75)</text><text x="-0.3523" y="0.1209" transform="rotate(-45.0, -0.3523, 0.1209)">CDCL (α = 0.75, mVISDS)</text><text x="-0.2823" y="0.1209" transform="rotate(-45.0, -0.2823, 0.1209)">CDCL (α = 0.75, mVISDS, ExpRestart(100, 2))</text><text x="-0.2123" y="0.1209" transform="rotate(-45.0, -0.2123, 0.1209)">CDCL (α = 0.75, mVISDS, LubyRestart(100, 2))</text><text x="-0.1423" y="0.1209" transform="rotate(-45.0, -0.1423, 0.1209)">CDCL (α = 0.95)</text><text x="-0.0724" y="0.1209" transform="rotate(-45.0, -0.0724, 0.1209)">CDCL (α = 0.95, mVISDS)</text><text x="-0.0024" y="0.1209" transform="rotate(-45.0, -0.0024, 0.1209)">CDCL (α = 0.95, mVISDS, ExpRestart(100, 2))</text><text x="0.0676" y="0.1209" transform="rotate(-45.0, 0.0676, 0.1209)">CDCL (α = 0.95, mVISDS, LubyRestart(100, 2))</text><text x="0.1376" y="0.1209" transform="rotate(-45.0, 0.1376, 0.1209)">DPLL</text></g></g></g><g class="axisbar"><g stroke-width="0" stroke="rgb(0%, 0%, 0%)" stroke-opacity="0" fill="rgb(5%, 5%, 5%)" fill-opacity="0.4"><rect width="0.8574" height="0.0017" x="-0.6410" y="0.0862"/></g></g></g><g class="title"><g stroke-width="0.0" stroke="none" fill="rgb(5%, 5%, 5%)" fill-opacity="1.0" font-size="0.0634" text-anchor="middle"><text x="-0.2433" y="-0.3768">Time: SATLIB/Bejing/3blocks/cnf</text></g></g><g class="legend"><g class="legendBorder"><g stroke-width="0.0017" stroke="rgb(5%, 5%, 5%)" stroke-opacity="1.0" fill="rgb(5%, 5%, 5%)" fill-opacity="0"><rect width="0.3944" height="0.3278" x="0.3070" y="-0.2276"/></g></g><g class="legendContent"><g stroke-width="0.0" stroke="none" fill="rgb(5%, 5%, 5%)" fill-opacity="1.0" font-size="0.0167" text-anchor="start"><text x="0.3163" y="0.0853">DPLL</text></g><g stroke-width="0" stroke="rgb(2%, 29%, 48%)" stroke-opacity="1.0" fill="rgb(0%, 52%, 40%)" fill-opacity="1.0"><rect width="0.0278" height="0.0219" x="0.6644" y="0.0711"/></g><g stroke-width="0.0" stroke="none" fill="rgb(5%, 5%, 5%)" fill-opacity="1.0" font-size="0.0167" text-anchor="start"><text x="0.3163" y="0.0562">CDCL (α = 0.95, mVISDS, LubyRestart(100, 2))</text></g><g stroke-width="0" stroke="rgb(2%, 29%, 48%)" stroke-opacity="1.0" fill="rgb(17%, 40%, 67%)" fill-opacity="1.0"><rect width="0.0278" height="0.0219" x="0.6644" y="0.0420"/></g><g stroke-width="0.0" stroke="none" fill="rgb(5%, 5%, 5%)" fill-opacity="1.0" font-size="0.0167" text-anchor="start"><text x="0.3163" y="0.0270">CDCL (α = 0.95, mVISDS, ExpRestart(100, 2))</text></g><g stroke-width="0" stroke="rgb(2%, 29%, 48%)" stroke-opacity="1.0" fill="rgb(62%, 0%, 31%)" fill-opacity="1.0"><rect width="0.0278" height="0.0219" x="0.6644" y="0.0128"/></g><g stroke-width="0.0" stroke="none" fill="rgb(5%, 5%, 5%)" fill-opacity="1.0" font-size="0.0167" text-anchor="start"><text x="0.3163" y="-0.0021">CDCL (α = 0.95, mVISDS)</text></g><g stroke-width="0" stroke="rgb(2%, 29%, 48%)" stroke-opacity="1.0" fill="rgb(91%, 47%, 0%)" fill-opacity="1.0"><rect width="0.0278" height="0.0219" x="0.6644" y="-0.0163"/></g><g stroke-width="0.0" stroke="none" fill="rgb(5%, 5%, 5%)" fill-opacity="1.0" font-size="0.0167" text-anchor="start"><text x="0.3163" y="-0.0312">CDCL (α = 0.95)</text></g><g stroke-width="0" stroke="rgb(2%, 29%, 48%)" stroke-opacity="1.0" fill="rgb(0%, 64%, 70%)" fill-opacity="1.0"><rect width="0.0278" height="0.0219" x="0.6644" y="-0.0455"/></g><g stroke-width="0.0" stroke="none" fill="rgb(5%, 5%, 5%)" fill-opacity="1.0" font-size="0.0167" text-anchor="start"><text x="0.3163" y="-0.0604">CDCL (α = 0.75, mVISDS, LubyRestart(100, 2))</text></g><g stroke-width="0" stroke="rgb(2%, 29%, 48%)" stroke-opacity="1.0" fill="rgb(91%, 19%, 0%)" fill-opacity="1.0"><rect width="0.0278" height="0.0219" x="0.6644" y="-0.0746"/></g><g stroke-width="0.0" stroke="none" fill="rgb(5%, 5%, 5%)" fill-opacity="1.0" font-size="0.0167" text-anchor="start"><text x="0.3163" y="-0.0895">CDCL (α = 0.75, mVISDS, ExpRestart(100, 2))</text></g><g stroke-width="0" stroke="rgb(2%, 29%, 48%)" stroke-opacity="1.0" fill="rgb(38%, 23%, 0%)" fill-opacity="1.0"><rect width="0.0278" height="0.0219" x="0.6644" y="-0.1037"/></g><g stroke-width="0.0" stroke="none" fill="rgb(5%, 5%, 5%)" fill-opacity="1.0" font-size="0.0167" text-anchor="start"><text x="0.3163" y="-0.1187">CDCL (α = 0.75, mVISDS)</text></g><g stroke-width="0" stroke="rgb(2%, 29%, 48%)" stroke-opacity="1.0" fill="rgb(90%, 37%, 58%)" fill-opacity="1.0"><rect width="0.0278" height="0.0219" x="0.6644" y="-0.1329"/></g><g stroke-width="0.0" stroke="none" fill="rgb(5%, 5%, 5%)" fill-opacity="1.0" font-size="0.0167" text-anchor="start"><text x="0.3163" y="-0.1478">CDCL (α = 0.75)</text></g><g stroke-width="0" stroke="rgb(2%, 29%, 48%)" stroke-opacity="1.0" fill="rgb(0%, 72%, 98%)" fill-opacity="1.0"><rect width="0.0278" height="0.0219" x="0.6644" y="-0.1620"/></g><g stroke-width="0.0" stroke="none" fill="rgb(5%, 5%, 5%)" fill-opacity="1.0" font-size="0.0167" text-anchor="start"><text x="0.3163" y="-0.1769">CDCL (adaptive, mVSIDS)</text></g><g stroke-width="0" stroke="rgb(2%, 29%, 48%)" stroke-opacity="1.0" fill="rgb(1%, 28%, 43%)" fill-opacity="1.0"><rect width="0.0278" height="0.0219" x="0.6644" y="-0.1911"/></g><g stroke-width="0.0" stroke="none" fill="rgb(5%, 5%, 5%)" fill-opacity="1.0" font-size="0.0167" text-anchor="start"><text x="0.3163" y="-0.2061">CDCL (adaptive)</text></g><g stroke-width="0" stroke="rgb(2%, 29%, 48%)" stroke-opacity="1.0" fill="rgb(0%, 30%, 12%)" fill-opacity="1.0"><rect width="0.0278" height="0.0219" x="0.6644" y="-0.2203"/></g></g></g><g class="frame"><g stroke-width="0" stroke="rgb(0%, 0%, 0%)" stroke-opacity="0" fill="rgb(100%, 100%, 100%)" fill-opacity="0.02"><rect width="1.6180" height="1.0" x="-0.8090" y="-0.5"/></g></g><g class="title"><g stroke-width="0.0" stroke="none" fill="rgb(5%, 5%, 5%)" fill-opacity="1.0" font-size="0.0317" text-anchor="middle"><text x="-0.7340" y="0" transform="rotate(-90.0, -0.7340, 0)">Time [s]</text></g></g></g></svg>