<svg xmlns="http://www.w3.org/2000/svg" xmlns:xlink="http://www.w3.org/1999/xlink" width="485" height="300" viewBox="-0.8090 -0.5 1.6180 1.0"><style>svg {
  color-scheme: light dark;
}
{
  .canvas g, .title g, .axisbar g, .ticktext g, .tickglyph g, .ticklines g, .legendContent g text {
    fill: rgb(5%, 5%, 5%);
  }
  .ticklines g, .tickglyph g, .legendBorder g {
    stroke: rgb(5%, 5%, 5%);
  }
  .legendBorder g {
    fill: rgb(94%, 94%, 94%);
  }
}
@media (prefers-color-scheme:dark) {
  .canvas g, .title g, .axisbar g, .ticktext g, .tickglyph g, .ticklines g, .legendContent g text {
    fill: rgb(94%, 94%, 94%);
  }
  .ticklines g, .tickglyph g, .legendBorder g {
    stroke: rgb(94%, 94%, 94%);
  }
  .legendBorder g {
    fill: rgb(5%, 5%, 5%);
  }
}</style><g class="chart"><g class="barchart"><g stroke-width="0" stroke="rgb(2%, 29%, 48%)" stroke-opacity="1.0" fill="rgb(0%, 30%, 12%)" fill-opacity="1.0"><rect width="0.0493" height="0.0913" x="-0.4508" y="-0.0093"/></g><g stroke-width="0" stroke="rgb(2%, 29%, 48%)" stroke-opacity="1.0" fill="rgb(0%, 25%, 37%)" fill-opacity="1.0"><rect width="0.0493" height="0.0909" x="-0.4016" y="-0.0088"/></g><g stroke-width="0" stroke="rgb(2%, 29%, 48%)" stroke-opacity="1.0" fill="rgb(26%, 54%, 57%)" fill-opacity="1.0"><rect width="0.0493" height="0.0915" x="-0.3523" y="-0.0095"/></g><g stroke-width="0" stroke="rgb(2%, 29%, 48%)" stroke-opacity="1.0" fill="rgb(1%, 28%, 43%)" fill-opacity="1.0"><rect width="0.0493" height="0.0938" x="-0.3030" y="-0.0117"/></g><g stroke-width="0" stroke="rgb(2%, 29%, 48%)" stroke-opacity="1.0" fill="rgb(0%, 72%, 98%)" fill-opacity="1.0"><rect width="0.0493" height="0.0887" x="-0.2538" y="-0.0067"/></g><g stroke-width="0" stroke="rgb(2%, 29%, 48%)" stroke-opacity="1.0" fill="rgb(90%, 37%, 58%)" fill-opacity="1.0"><rect width="0.0493" height="0.0910" x="-0.2045" y="-0.0090"/></g><g stroke-width="0" stroke="rgb(2%, 29%, 48%)" stroke-opacity="1.0" fill="rgb(38%, 23%, 0%)" fill-opacity="1.0"><rect width="0.0493" height="0.0905" x="-0.1553" y="-0.0085"/></g><g stroke-width="0" stroke="rgb(2%, 29%, 48%)" stroke-opacity="1.0" fill="rgb(91%, 19%, 0%)" fill-opacity="1.0"><rect width="0.0493" height="0.0891" x="-0.1060" y="-0.0070"/></g><g stroke-width="0" stroke="rgb(2%, 29%, 48%)" stroke-opacity="1.0" fill="rgb(0%, 64%, 70%)" fill-opacity="1.0"><rect width="0.0493" height="0.0893" x="-0.0567" y="-0.0073"/></g><g stroke-width="0" stroke="rgb(2%, 29%, 48%)" stroke-opacity="1.0" fill="rgb(91%, 47%, 0%)" fill-opacity="1.0"><rect width="0.0493" height="0.0928" x="-0.0075" y="-0.0108"/></g><g stroke-width="0" stroke="rgb(2%, 29%, 48%)" stroke-opacity="1.0" fill="rgb(62%, 0%, 31%)" fill-opacity="1.0"><rect width="0.0493" height="0.0906" x="0.0418" y="-0.0086"/></g><g stroke-width="0" stroke="rgb(2%, 29%, 48%)" stroke-opacity="1.0" fill="rgb(17%, 40%, 67%)" fill-opacity="1.0"><rect width="0.0493" height="0.0932" x="0.0910" y="-0.0112"/></g><g stroke-width="0" stroke="rgb(2%, 29%, 48%)" stroke-opacity="1.0" fill="rgb(0%, 52%, 40%)" fill-opacity="1.0"><rect width="0.0493" height="0.0260" x="0.1403" y="0.0560"/></g><g stroke-width="0" stroke="rgb(2%, 29%, 48%)" stroke-opacity="1.0" fill="rgb(46%, 22%, 3%)" fill-opacity="1.0"><rect width="0.0493" height="0.3902" x="0.1895" y="-0.3082"/></g></g><g class="errors"><g stroke-width="0.0015" stroke="rgb(5%, 5%, 5%)" stroke-opacity="1.0" fill="none"><polyline points="-0.4311,-0.0067 -0.4213,-0.0067"/><polyline points="-0.4262,-0.0067 -0.4262,-0.0118"/><polyline points="-0.4311,-0.0118 -0.4213,-0.0118"/></g><g stroke-width="0.0015" stroke="rgb(5%, 5%, 5%)" stroke-opacity="1.0" fill="none"><polyline points="-0.3819,-0.0059 -0.3720,-0.0059"/><polyline points="-0.3769,-0.0059 -0.3769,-0.0118"/><polyline points="-0.3819,-0.0118 -0.3720,-0.0118"/></g><g stroke-width="0.0015" stroke="rgb(5%, 5%, 5%)" stroke-opacity="1.0" fill="none"><polyline points="-0.3326,-0.0050 -0.3227,-0.0050"/><polyline points="-0.3277,-0.0050 -0.3277,-0.0140"/><polyline points="-0.3326,-0.0140 -0.3227,-0.0140"/></g><g stroke-width="0.0015" stroke="rgb(5%, 5%, 5%)" stroke-opacity="1.0" fill="none"><polyline points="-0.2833,-0.0091 -0.2735,-0.0091"/><polyline points="-0.2784,-0.0091 -0.2784,-0.0143"/><polyline points="-0.2833,-0.0143 -0.2735,-0.0143"/></g><g stroke-width="0.0015" stroke="rgb(5%, 5%, 5%)" stroke-opacity="1.0" fill="none"><polyline points="-0.2341,-0.0037 -0.2242,-0.0037"/><polyline points="-0.2292,-0.0037 -0.2292,-0.0097"/><polyline points="-0.2341,-0.0097 -0.2242,-0.0097"/></g><g stroke-width="0.0015" stroke="rgb(5%, 5%, 5%)" stroke-opacity="1.0" fill="none"><polyline points="-0.1848,-0.0051 -0.1750,-0.0051"/><polyline points="-0.1799,-0.0051 -0.1799,-0.0130"/><polyline points="-0.1848,-0.0130 -0.1750,-0.0130"/></g><g stroke-width="0.0015" stroke="rgb(5%, 5%, 5%)" stroke-opacity="1.0" fill="none"><polyline points="-0.1356,-0.0061 -0.1257,-0.0061"/><polyline points="-0.1306,-0.0061 -0.1306,-0.0109"/><polyline points="-0.1356,-0.0109 -0.1257,-0.0109"/></g><g stroke-width="0.0015" stroke="rgb(5%, 5%, 5%)" stroke-opacity="1.0" fill="none"><polyline points="-0.0863,-0.0042 -0.0765,-0.0042"/><polyline points="-0.0814,-0.0042 -0.0814,-0.0098"/><polyline points="-0.0863,-0.0098 -0.0765,-0.0098"/></g><g stroke-width="0.0015" stroke="rgb(5%, 5%, 5%)" stroke-opacity="1.0" fill="none"><polyline points="-0.0370,-0.0033 -0.0272,-0.0033"/><polyline points="-0.0321,-0.0033 -0.0321,-0.0113"/><polyline points="-0.0370,-0.0113 -0.0272,-0.0113"/></g><g stroke-width="0.0015" stroke="rgb(5%, 5%, 5%)" stroke-opacity="1.0" fill="none"><polyline points="0.0122,-0.0078 0.0221,-0.0078"/><polyline points="0.0171,-0.0078 0.0171,-0.0138"/><polyline points="0.0122,-0.0138 0.0221,-0.0138"/></g><g stroke-width="0.0015" stroke="rgb(5%, 5%, 5%)" stroke-opacity="1.0" fill="none"><polyline points="0.0615,-0.0043 0.0713,-0.0043"/><polyline points="0.0664,-0.0043 0.0664,-0.0129"/><polyline points="0.0615,-0.0129 0.0713,-0.0129"/></g><g stroke-width="0.0015" stroke="rgb(5%, 5%, 5%)" stroke-opacity="1.0" fill="none"><polyline points="0.1107,-0.0079 0.1206,-0.0079"/><polyline points="0.1157,-0.0079 0.1157,-0.0145"/><polyline points="0.1107,-0.0145 0.1206,-0.0145"/></g><g stroke-width="0.0015" stroke="rgb(5%, 5%, 5%)" stroke-opacity="1.0" fill="none"><polyline points="0.1600,0.0567 0.1698,0.0567"/><polyline points="0.1649,0.0567 0.1649,0.0553"/><polyline points="0.1600,0.0553 0.1698,0.0553"/></g><g stroke-width="0.0015" stroke="rgb(5%, 5%, 5%)" stroke-opacity="1.0" fill="none"><polyline points="0.2092,-0.2972 0.2191,-0.2972"/><polyline points="0.2142,-0.2972 0.2142,-0.3192"/><polyline points="0.2092,-0.3192 0.2191,-0.3192"/></g></g></g><g class="hud"><g class="axis"><g class="ticks"><g class="tickglyph"><g stroke-width="0.0040" stroke="rgb(5%, 5%, 5%)" stroke-opacity="0.4" fill="rgb(5%, 5%, 5%)" fill-opacity="0.4"><g transform="rotate(-90.0, -0.5033, 0.0820)"><polyline points="-0.5033,0.0970
-0.5033,0.0670"/></g><g transform="rotate(-90.0, -0.5033, 0.0226)"><polyline points="-0.5033,0.0376
-0.5033,0.0076"/></g><g transform="rotate(-90.0, -0.5033, -0.0369)"><polyline points="-0.5033,-0.0219
-0.5033,-0.0519"/></g><g transform="rotate(-90.0, -0.5033, -0.0964)"><polyline points="-0.5033,-0.0814
-0.5033,-0.1114"/></g><g transform="rotate(-90.0, -0.5033, -0.1558)"><polyline points="-0.5033,-0.1408
-0.5033,-0.1708"/></g><g transform="rotate(-90.0, -0.5033, -0.2153)"><polyline points="-0.5033,-0.2003
-0.5033,-0.2303"/></g><g transform="rotate(-90.0, -0.5033, -0.2748)"><polyline points="-0.5033,-0.2598
-0.5033,-0.2898"/></g><g transform="rotate(-90.0, -0.5033, -0.3342)"><polyline points="-0.5033,-0.3192
-0.5033,-0.3492"/></g></g></g><g class="ticktext"><g stroke-width="0.0" stroke="none" fill="rgb(5%, 5%, 5%)" fill-opacity="1.0" font-size="0.0237" text-anchor="end"><text x="-0.5204" y="0.0877">0</text><text x="-0.5204" y="0.0283">1</text><text x="-0.5204" y="-0.0312">2</text><text x="-0.5204" y="-0.0906">3</text><text x="-0.5204" y="-0.1501">4</text><text x="-0.5204" y="-0.2096">5</text><text x="-0.5204" y="-0.2690">6</text><text x="-0.5204" y="-0.3285">7</text></g></g><g class="ticklines"><g stroke-width="0.0050" stroke="rgb(5%, 5%, 5%)" stroke-opacity="0.05" fill="none"><polyline points="-0.4891,0.0820 0.2771,0.0820"/><polyline points="-0.4891,0.0226 0.2771,0.0226"/><polyline points="-0.4891,-0.0369 0.2771,-0.0369"/><polyline points="-0.4891,-0.0964 0.2771,-0.0964"/><polyline points="-0.4891,-0.1558 0.2771,-0.1558"/><polyline points="-0.4891,-0.2153 0.2771,-0.2153"/><polyline points="-0.4891,-0.2748 0.2771,-0.2748"/><polyline points="-0.4891,-0.3342 0.2771,-0.3342"/></g></g></g><g class="axisbar"><g stroke-width="0" stroke="rgb(0%, 0%, 0%)" stroke-opacity="0" fill="rgb(5%, 5%, 5%)" fill-opacity="0.4"><rect width="0.0019" height="0.4179" x="-0.4958" y="-0.3351"/></g></g></g><g class="axis"><g class="ticks"><g class="tickglyph"><g stroke-width="0.0040" stroke="rgb(5%, 5%, 5%)" stroke-opacity="0.4" fill="rgb(5%, 5%, 5%)" fill-opacity="0.4"><polyline points="-0.4262,0.1095
-0.4262,0.0795"/><polyline points="-0.3769,0.1095
-0.3769,0.0795"/><polyline points="-0.3277,0.1095
-0.3277,0.0795"/><polyline points="-0.2784,0.1095
-0.2784,0.0795"/><polyline points="-0.2292,0.1095
-0.2292,0.0795"/><polyline points="-0.1799,0.1095
-0.1799,0.0795"/><polyline points="-0.1306,0.1095
-0.1306,0.0795"/><polyline points="-0.0814,0.1095
-0.0814,0.0795"/><polyline points="-0.0321,0.1095
-0.0321,0.0795"/><polyline points="0.0171,0.1095
0.0171,0.0795"/><polyline points="0.0664,0.1095
0.0664,0.0795"/><polyline points="0.1157,0.1095
0.1157,0.0795"/><polyline points="0.1649,0.1095
0.1649,0.0795"/><polyline points="0.2142,0.1095
0.2142,0.0795"/></g></g><g class="ticktext"><g stroke-width="0.0" stroke="none" fill="rgb(5%, 5%, 5%)" fill-opacity="1.0" font-size="0.0237" text-anchor="end"><text x="-0.4262" y="0.1209" transform="rotate(-45.0, -0.4262, 0.1209)">CDCL (adaptive)</text><text x="-0.3769" y="0.1209" transform="rotate(-45.0, -0.3769, 0.1209)">CDCL (adaptive, mVISDS, ExpRestart(100, 2))</text><text x="-0.3277" y="0.1209" transform="rotate(-45.0, -0.3277, 0.1209)">CDCL (adaptive, mVISDS, LubyRestart(100, 2))</text><text x="-0.2784" y="0.1209" transform="rotate(-45.0, -0.2784, 0.1209)">CDCL (adaptive, mVSIDS)</text><text x="-0.2292" y="0.1209" transform="rotate(-45.0, -0.2292, 0.1209)">CDCL (α = 0.75)</text><text x="-0.1799" y="0.1209" transform="rotate(-45.0, -0.1799, 0.1209)">CDCL (α = 0.75, mVISDS)</text><text x="-0.1306" y="0.1209" transform="rotate(-45.0, -0.1306, 0.1209)">CDCL (α = 0.75, mVISDS, ExpRestart(100, 2))</text><text x="-0.0814" y="0.1209" transform="rotate(-45.0, -0.0814, 0.1209)">CDCL (α = 0.75, mVISDS, LubyRestart(100, 2))</text><text x="-0.0321" y="0.1209" transform="rotate(-45.0, -0.0321, 0.1209)">CDCL (α = 0.95)</text><text x="0.0171" y="0.1209" transform="rotate(-45.0, 0.0171, 0.1209)">CDCL (α = 0.95, mVISDS)</text><text x="0.0664" y="0.1209" transform="rotate(-45.0, 0.0664, 0.1209)">CDCL (α = 0.95, mVISDS, ExpRestart(100, 2))</text><text x="0.1157" y="0.1209" transform="rotate(-45.0, 0.1157, 0.1209)">CDCL (α = 0.95, mVISDS, LubyRestart(100, 2))</text><text x="0.1649" y="0.1209" transform="rotate(-45.0, 0.1649, 0.1209)">DPLL</text><text x="0.2142" y="0.1209" transform="rotate(-45.0, 0.2142, 0.1209)">tableaux</text></g></g></g><g class="axisbar"><g stroke-width="0" stroke="rgb(0%, 0%, 0%)" stroke-opacity="0" fill="rgb(5%, 5%, 5%)" fill-opacity="0.4"><rect width="0.7681" height="0.0017" x="-0.4901" y="0.0862"/></g></g></g><g class="title"><g stroke-width="0.0" stroke="none" fill="rgb(5%, 5%, 5%)" fill-opacity="1.0" font-size="0.0568" text-anchor="middle"><text x="-0.2180" y="-0.3768">Time: huge/0/cnf</text></g></g><g class="legend"><g class="legendBorder"><g stroke-width="0.0017" stroke="rgb(5%, 5%, 5%)" stroke-opacity="1.0" fill="rgb(5%, 5%, 5%)" fill-opacity="0"><rect width="0.3534" height="0.4152" x="0.3593" y="-0.3150"/></g></g><g class="legendContent"><g stroke-width="0.0" stroke="none" fill="rgb(5%, 5%, 5%)" fill-opacity="1.0" font-size="0.0149" text-anchor="start"><text x="0.3676" y="0.0853">tableaux</text></g><g stroke-width="0" stroke="rgb(2%, 29%, 48%)" stroke-opacity="1.0" fill="rgb(46%, 22%, 3%)" fill-opacity="1.0"><rect width="0.0249" height="0.0219" x="0.6795" y="0.0711"/></g><g stroke-width="0.0" stroke="none" fill="rgb(5%, 5%, 5%)" fill-opacity="1.0" font-size="0.0149" text-anchor="start"><text x="0.3676" y="0.0562">DPLL</text></g><g stroke-width="0" stroke="rgb(2%, 29%, 48%)" stroke-opacity="1.0" fill="rgb(0%, 52%, 40%)" fill-opacity="1.0"><rect width="0.0249" height="0.0219" x="0.6795" y="0.0420"/></g><g stroke-width="0.0" stroke="none" fill="rgb(5%, 5%, 5%)" fill-opacity="1.0" font-size="0.0149" text-anchor="start"><text x="0.3676" y="0.0270">CDCL (α = 0.95, mVISDS, LubyRestart(100, 2))</text></g><g stroke-width="0" stroke="rgb(2%, 29%, 48%)" stroke-opacity="1.0" fill="rgb(17%, 40%, 67%)" fill-opacity="1.0"><rect width="0.0249" height="0.0219" x="0.6795" y="0.0128"/></g><g stroke-width="0.0" stroke="none" fill="rgb(5%, 5%, 5%)" fill-opacity="1.0" font-size="0.0149" text-anchor="start"><text x="0.3676" y="-0.0021">CDCL (α = 0.95, mVISDS, ExpRestart(100, 2))</text></g><g stroke-width="0" stroke="rgb(2%, 29%, 48%)" stroke-opacity="1.0" fill="rgb(62%, 0%, 31%)" fill-opacity="1.0"><rect width="0.0249" height="0.0219" x="0.6795" y="-0.0163"/></g><g stroke-width="0.0" stroke="none" fill="rgb(5%, 5%, 5%)" fill-opacity="1.0" font-size="0.0149" text-anchor="start"><text x="0.3676" y="-0.0312">CDCL (α = 0.95, mVISDS)</text></g><g stroke-width="0" stroke="rgb(2%, 29%, 48%)" stroke-opacity="1.0" fill="rgb(91%, 47%, 0%)" fill-opacity="1.0"><rect width="0.0249" height="0.0219" x="0.6795" y="-0.0455"/></g><g stroke-width="0.0" stroke="none" fill="rgb(5%, 5%, 5%)" fill-opacity="1.0" font-size="0.0149" text-anchor="start"><text x="0.3676" y="-0.0604">CDCL (α = 0.95)</text></g><g stroke-width="0" stroke="rgb(2%, 29%, 48%)" stroke-opacity="1.0" fill="rgb(0%, 64%, 70%)" fill-opacity="1.0"><rect width="0.0249" height="0.0219" x="0.6795" y="-0.0746"/></g><g stroke-width="0.0" stroke="none" fill="rgb(5%, 5%, 5%)" fill-opacity="1.0" font-size="0.0149" text-anchor="start"><text x="0.3676" y="-0.0895">CDCL (α = 0.75, mVISDS, LubyRestart(100, 2))</text></g><g stroke-width="0" stroke="rgb(2%, 29%, 48%)" stroke-opacity="1.0" fill="rgb(91%, 19%, 0%)" fill-opacity="1.0"><rect width="0.0249" height="0.0219" x="0.6795" y="-0.1037"/></g><g stroke-width="0.0" stroke="none" fill="rgb(5%, 5%, 5%)" fill-opacity="1.0" font-size="0.0149" text-anchor="start"><text x="0.3676" y="-0.1187">CDCL (α = 0.75, mVISDS, ExpRestart(100, 2))</text></g><g stroke-width="0" stroke="rgb(2%, 29%, 48%)" stroke-opacity="1.0" fill="rgb(38%, 23%, 0%)" fill-opacity="1.0"><rect width="0.0249" height="0.0219" x="0.6795" y="-0.1329"/></g><g stroke-width="0.0" stroke="none" fill="rgb(5%, 5%, 5%)" fill-opacity="1.0" font-size="0.0149" text-anchor="start"><text x="0.3676" y="-0.1478">CDCL (α = 0.75, mVISDS)</text></g><g stroke-width="0" stroke="rgb(2%, 29%, 48%)" stroke-opacity="1.0" fill="rgb(90%, 37%, 58%)" fill-opacity="1.0"><rect width="0.0249" height="0.0219" x="0.6795" y="-0.1620"/></g><g stroke-width="0.0" stroke="none" fill="rgb(5%, 5%, 5%)" fill-opacity="1.0" font-size="0.0149" text-anchor="start"><text x="0.3676" y="-0.1769">CDCL (α = 0.75)</text></g><g stroke-width="0" stroke="rgb(2%, 29%, 48%)" stroke-opacity="1.0" fill="rgb(0%, 72%, 98%)" fill-opacity="1.0"><rect width="0.0249" height="0.0219" x="0.6795" y="-0.1911"/></g><g stroke-width="0.0" stroke="none" fill="rgb(5%, 5%, 5%)" fill-opacity="1.0" font-size="0.0149" text-anchor="start"><text x="0.3676" y="-0.2061">CDCL (adaptive, mVSIDS)</text></g><g stroke-width="0" stroke="rgb(2%, 29%, 48%)" stroke-opacity="1.0" fill="rgb(1%, 28%, 43%)" fill-opacity="1.0"><rect width="0.0249" height="0.0219" x="0.6795" y="-0.2203"/></g><g stroke-width="0.0" stroke="none" fill="rgb(5%, 5%, 5%)" fill-opacity="1.0" font-size="0.0149" text-anchor="start"><text x="0.3676" y="-0.2352">CDCL (adaptive, mVISDS, LubyRestart(100, 2))</text></g><g stroke-width="0" stroke="rgb(2%, 29%, 48%)" stroke-opacity="1.0" fill="rgb(26%, 54%, 57%)" fill-opacity="1.0"><rect width="0.0249" height="0.0219" x="0.6795" y="-0.2494"/></g><g stroke-width="0.0" stroke="none" fill="rgb(5%, 5%, 5%)" fill-opacity="1.0" font-size="0.0149" text-anchor="start"><text x="0.3676" y="-0.2643">CDCL (adaptive, mVISDS, ExpRestart(100, 2))</text></g><g stroke-width="0" stroke="rgb(2%, 29%, 48%)" stroke-opacity="1.0" fill="rgb(0%, 25%, 37%)" fill-opacity="1.0"><rect width="0.0249" height="0.0219" x="0.6795" y="-0.2786"/></g><g stroke-width="0.0" stroke="none" fill="rgb(5%, 5%, 5%)" fill-opacity="1.0" font-size="0.0149" text-anchor="start"><text x="0.3676" y="-0.2935">CDCL (adaptive)</text></g><g stroke-width="0" stroke="rgb(2%, 29%, 48%)" stroke-opacity="1.0" fill="rgb(0%, 30%, 12%)" fill-opacity="1.0"><rect width="0.0249" height="0.0219" x="0.6795" y="-0.3077"/></g></g></g><g class="frame"><g stroke-width="0" stroke="rgb(0%, 0%, 0%)" stroke-opacity="0" fill="rgb(100%, 100%, 100%)" fill-opacity="0.02"><rect width="1.6180" height="1.0" x="-0.8090" y="-0.5"/></g></g><g class="title"><g stroke-width="0.0" stroke="none" fill="rgb(5%, 5%, 5%)" fill-opacity="1.0" font-size="0.0284" text-anchor="middle"><text x="-0.7418" y="0" transform="rotate(-90.0, -0.7418, 0)">Time [ms]</text></g></g></g></svg>