<svg xmlns="http://www.w3.org/2000/svg" xmlns:xlink="http://www.w3.org/1999/xlink" width="467" height="300" viewBox="-0.8090 -0.5000 1.6180 1.0375"><style>svg {
  color-scheme: light dark;
}
{
  .canvas g, .title g, .axisbar g, .ticktext g, .tickglyph g, .ticklines g, .legendContent g text {
    fill: rgb(5%, 5%, 5%);
  }
  .ticklines g, .tickglyph g, .legendBorder g {
    stroke: rgb(5%, 5%, 5%);
  }
  .legendBorder g {
    fill: rgb(94%, 94%, 94%);
  }
}
@media (prefers-color-scheme:dark) {
  .canvas g, .title g, .axisbar g, .ticktext g, .tickglyph g, .ticklines g, .legendContent g text {
    fill: rgb(94%, 94%, 94%);
  }
  .ticklines g, .tickglyph g, .legendBorder g {
    stroke: rgb(94%, 94%, 94%);
  }
  .legendBorder g {
    fill: rgb(5%, 5%, 5%);
  }
}</style><g class="chart"><g class="barchart"><g stroke-width="0" stroke="rgb(2%, 29%, 48%)" stroke-opacity="1.0" fill="rgb(0%, 30%, 12%)" fill-opacity="1.0"><rect width="0.0257" height="0.0072" x="-0.4265" y="0.1164"/></g><g stroke-width="0.0010" stroke="rgb(0%, 30%, 12%)" stroke-opacity="1.0" fill="rgb(0%, 30%, 12%)" fill-opacity="0.25"><rect width="0.0257" height="0.0094" x="-0.4008" y="0.1142"/></g><g stroke-width="0" stroke="rgb(2%, 29%, 48%)" stroke-opacity="1.0" fill="rgb(0%, 25%, 37%)" fill-opacity="1.0"><rect width="0.0257" height="0.0348" x="-0.3751" y="0.0888"/></g><g stroke-width="0.0010" stroke="rgb(0%, 25%, 37%)" stroke-opacity="1.0" fill="rgb(0%, 25%, 37%)" fill-opacity="0.25"><rect width="0.0257" height="0.0469" x="-0.3494" y="0.0767"/></g><g stroke-width="0" stroke="rgb(2%, 29%, 48%)" stroke-opacity="1.0" fill="rgb(26%, 54%, 57%)" fill-opacity="1.0"><rect width="0.0257" height="0.0348" x="-0.3237" y="0.0888"/></g><g stroke-width="0.0010" stroke="rgb(26%, 54%, 57%)" stroke-opacity="1.0" fill="rgb(26%, 54%, 57%)" fill-opacity="0.25"><rect width="0.0257" height="0.0468" x="-0.2981" y="0.0768"/></g><g stroke-width="0" stroke="rgb(2%, 29%, 48%)" stroke-opacity="1.0" fill="rgb(1%, 28%, 43%)" fill-opacity="1.0"><rect width="0.0257" height="0.0302" x="-0.2724" y="0.0934"/></g><g stroke-width="0.0010" stroke="rgb(1%, 28%, 43%)" stroke-opacity="1.0" fill="rgb(1%, 28%, 43%)" fill-opacity="0.25"><rect width="0.0257" height="0.0403" x="-0.2467" y="0.0833"/></g><g stroke-width="0" stroke="rgb(2%, 29%, 48%)" stroke-opacity="1.0" fill="rgb(0%, 72%, 98%)" fill-opacity="1.0"><rect width="0.0257" height="0.0198" x="-0.2210" y="0.1038"/></g><g stroke-width="0.0010" stroke="rgb(0%, 72%, 98%)" stroke-opacity="1.0" fill="rgb(0%, 72%, 98%)" fill-opacity="0.25"><rect width="0.0257" height="0.0266" x="-0.1953" y="0.0970"/></g><g stroke-width="0" stroke="rgb(2%, 29%, 48%)" stroke-opacity="1.0" fill="rgb(90%, 37%, 58%)" fill-opacity="1.0"><rect width="0.0257" height="0.0140" x="-0.1696" y="0.1096"/></g><g stroke-width="0.0010" stroke="rgb(90%, 37%, 58%)" stroke-opacity="1.0" fill="rgb(90%, 37%, 58%)" fill-opacity="0.25"><rect width="0.0257" height="0.0186" x="-0.1440" y="0.1050"/></g><g stroke-width="0" stroke="rgb(2%, 29%, 48%)" stroke-opacity="1.0" fill="rgb(38%, 23%, 0%)" fill-opacity="1.0"><rect width="0.0257" height="0.0206" x="-0.1183" y="0.1030"/></g><g stroke-width="0.0010" stroke="rgb(38%, 23%, 0%)" stroke-opacity="1.0" fill="rgb(38%, 23%, 0%)" fill-opacity="0.25"><rect width="0.0257" height="0.0268" x="-0.0926" y="0.0969"/></g><g stroke-width="0" stroke="rgb(2%, 29%, 48%)" stroke-opacity="1.0" fill="rgb(91%, 19%, 0%)" fill-opacity="1.0"><rect width="0.0257" height="0.0207" x="-0.0669" y="0.1030"/></g><g stroke-width="0.0010" stroke="rgb(91%, 19%, 0%)" stroke-opacity="1.0" fill="rgb(91%, 19%, 0%)" fill-opacity="0.25"><rect width="0.0257" height="0.0268" x="-0.0412" y="0.0969"/></g><g stroke-width="0" stroke="rgb(2%, 29%, 48%)" stroke-opacity="1.0" fill="rgb(0%, 64%, 70%)" fill-opacity="1.0"><rect width="0.0257" height="0.0097" x="-0.0156" y="0.1140"/></g><g stroke-width="0.0010" stroke="rgb(0%, 64%, 70%)" stroke-opacity="1.0" fill="rgb(0%, 64%, 70%)" fill-opacity="0.25"><rect width="0.0257" height="0.0124" x="0.0101" y="0.1112"/></g><g stroke-width="0" stroke="rgb(2%, 29%, 48%)" stroke-opacity="1.0" fill="rgb(91%, 47%, 0%)" fill-opacity="1.0"><rect width="0.0257" height="0.0185" x="0.0358" y="0.1051"/></g><g stroke-width="0.0010" stroke="rgb(91%, 47%, 0%)" stroke-opacity="1.0" fill="rgb(91%, 47%, 0%)" fill-opacity="0.25"><rect width="0.0257" height="0.0249" x="0.0615" y="0.0987"/></g><g stroke-width="0" stroke="rgb(2%, 29%, 48%)" stroke-opacity="1.0" fill="rgb(62%, 0%, 31%)" fill-opacity="1.0"><rect width="0.0257" height="0.0204" x="0.0872" y="0.1032"/></g><g stroke-width="0.0010" stroke="rgb(62%, 0%, 31%)" stroke-opacity="1.0" fill="rgb(62%, 0%, 31%)" fill-opacity="0.25"><rect width="0.0257" height="0.0269" x="0.1129" y="0.0967"/></g><g stroke-width="0" stroke="rgb(2%, 29%, 48%)" stroke-opacity="1.0" fill="rgb(17%, 40%, 67%)" fill-opacity="1.0"><rect width="0.0257" height="0.0205" x="0.1385" y="0.1032"/></g><g stroke-width="0.0010" stroke="rgb(17%, 40%, 67%)" stroke-opacity="1.0" fill="rgb(17%, 40%, 67%)" fill-opacity="0.25"><rect width="0.0257" height="0.0269" x="0.1642" y="0.0967"/></g><g stroke-width="0" stroke="rgb(2%, 29%, 48%)" stroke-opacity="1.0" fill="rgb(0%, 52%, 40%)" fill-opacity="1.0"><rect width="0.0257" height="0.2885" x="0.1899" y="-0.1649"/></g></g><g class="errors"></g></g><g class="hud"><g class="axis"><g class="ticks"><g class="tickglyph"><g stroke-width="0.0040" stroke="rgb(5%, 5%, 5%)" stroke-opacity="0.4" fill="rgb(5%, 5%, 5%)" fill-opacity="0.4"><g transform="rotate(-90.0, -0.4754, 0.1236)"><polyline points="-0.4754,0.1386
-0.4754,0.1086"/></g><g transform="rotate(-90.0, -0.4754, 0.0877)"><polyline points="-0.4754,0.1027
-0.4754,0.0727"/></g><g transform="rotate(-90.0, -0.4754, 0.0518)"><polyline points="-0.4754,0.0668
-0.4754,0.0368"/></g><g transform="rotate(-90.0, -0.4754, 0.0158)"><polyline points="-0.4754,0.0308
-0.4754,0.0008"/></g><g transform="rotate(-90.0, -0.4754, -0.0201)"><polyline points="-0.4754,-0.0051
-0.4754,-0.0351"/></g><g transform="rotate(-90.0, -0.4754, -0.0560)"><polyline points="-0.4754,-0.0410
-0.4754,-0.0710"/></g><g transform="rotate(-90.0, -0.4754, -0.0920)"><polyline points="-0.4754,-0.0770
-0.4754,-0.1070"/></g><g transform="rotate(-90.0, -0.4754, -0.1279)"><polyline points="-0.4754,-0.1129
-0.4754,-0.1429"/></g><g transform="rotate(-90.0, -0.4754, -0.1638)"><polyline points="-0.4754,-0.1488
-0.4754,-0.1788"/></g><g transform="rotate(-90.0, -0.4754, -0.1998)"><polyline points="-0.4754,-0.1848
-0.4754,-0.2148"/></g></g></g><g class="ticktext"><g stroke-width="0.0" stroke="none" fill="rgb(5%, 5%, 5%)" fill-opacity="1.0" font-size="0.0220" text-anchor="end"><text x="-0.4912" y="0.1281"> 0</text><text x="-0.4912" y="0.0921"> 5</text><text x="-0.4912" y="0.0562">10</text><text x="-0.4912" y="0.0203">15</text><text x="-0.4912" y="-0.0157">20</text><text x="-0.4912" y="-0.0516">25</text><text x="-0.4912" y="-0.0875">30</text><text x="-0.4912" y="-0.1235">35</text><text x="-0.4912" y="-0.1594">40</text><text x="-0.4912" y="-0.1953">45</text></g></g><g class="ticklines"><g stroke-width="0.0050" stroke="rgb(5%, 5%, 5%)" stroke-opacity="0.05" fill="none"><polyline points="-0.4621,0.1236 0.2513,0.1236"/><polyline points="-0.4621,0.0877 0.2513,0.0877"/><polyline points="-0.4621,0.0518 0.2513,0.0518"/><polyline points="-0.4621,0.0158 0.2513,0.0158"/><polyline points="-0.4621,-0.0201 0.2513,-0.0201"/><polyline points="-0.4621,-0.0560 0.2513,-0.0560"/><polyline points="-0.4621,-0.0920 0.2513,-0.0920"/><polyline points="-0.4621,-0.1279 0.2513,-0.1279"/><polyline points="-0.4621,-0.1638 0.2513,-0.1638"/><polyline points="-0.4621,-0.1998 0.2513,-0.1998"/></g></g></g><g class="axisbar"><g stroke-width="0" stroke="rgb(0%, 0%, 0%)" stroke-opacity="0" fill="rgb(5%, 5%, 5%)" fill-opacity="0.4"><rect width="0.0018" height="0.3247" x="-0.4683" y="-0.2004"/></g></g></g><g class="axis"><g class="ticks"><g class="tickglyph"><g stroke-width="0.0040" stroke="rgb(5%, 5%, 5%)" stroke-opacity="0.4" fill="rgb(5%, 5%, 5%)" fill-opacity="0.4"><polyline points="-0.4136,0.1485
-0.4136,0.1185"/><polyline points="-0.3879,0.1485
-0.3879,0.1185"/><polyline points="-0.3623,0.1485
-0.3623,0.1185"/><polyline points="-0.3366,0.1485
-0.3366,0.1185"/><polyline points="-0.3109,0.1485
-0.3109,0.1185"/><polyline points="-0.2852,0.1485
-0.2852,0.1185"/><polyline points="-0.2595,0.1485
-0.2595,0.1185"/><polyline points="-0.2339,0.1485
-0.2339,0.1185"/><polyline points="-0.2082,0.1485
-0.2082,0.1185"/><polyline points="-0.1825,0.1485
-0.1825,0.1185"/><polyline points="-0.1568,0.1485
-0.1568,0.1185"/><polyline points="-0.1311,0.1485
-0.1311,0.1185"/><polyline points="-0.1054,0.1485
-0.1054,0.1185"/><polyline points="-0.0798,0.1485
-0.0798,0.1185"/><polyline points="-0.0541,0.1485
-0.0541,0.1185"/><polyline points="-0.0284,0.1485
-0.0284,0.1185"/><polyline points="-0.0027,0.1485
-0.0027,0.1185"/><polyline points="0.0230,0.1485
0.0230,0.1185"/><polyline points="0.0487,0.1485
0.0487,0.1185"/><polyline points="0.0743,0.1485
0.0743,0.1185"/><polyline points="0.1000,0.1485
0.1000,0.1185"/><polyline points="0.1257,0.1485
0.1257,0.1185"/><polyline points="0.1514,0.1485
0.1514,0.1185"/><polyline points="0.1771,0.1485
0.1771,0.1185"/><polyline points="0.2027,0.1485
0.2027,0.1185"/></g></g><g class="ticktext"><g stroke-width="0.0" stroke="none" fill="rgb(5%, 5%, 5%)" fill-opacity="1.0" font-size="0.0220" text-anchor="end"><text x="-0.4136" y="0.1540" transform="rotate(-45.0, -0.4136, 0.1540)">CDCL (adaptive)</text><text x="-0.3879" y="0.1540" transform="rotate(-45.0, -0.3879, 0.1540)">CDCL (adaptive), Baseline</text><text x="-0.3623" y="0.1540" transform="rotate(-45.0, -0.3623, 0.1540)">CDCL (adaptive, mVISDS, ExpRestart(100, 2))</text><text x="-0.3366" y="0.1540" transform="rotate(-45.0, -0.3366, 0.1540)">CDCL (adaptive, mVISDS, ExpRestart(100, 2)), Baseline</text><text x="-0.3109" y="0.1540" transform="rotate(-45.0, -0.3109, 0.1540)">CDCL (adaptive, mVISDS, LubyRestart(100, 2))</text><text x="-0.2852" y="0.1540" transform="rotate(-45.0, -0.2852, 0.1540)">CDCL (adaptive, mVISDS, LubyRestart(100, 2)), Baseline</text><text x="-0.2595" y="0.1540" transform="rotate(-45.0, -0.2595, 0.1540)">CDCL (adaptive, mVSIDS)</text><text x="-0.2339" y="0.1540" transform="rotate(-45.0, -0.2339, 0.1540)">CDCL (adaptive, mVSIDS), Baseline</text><text x="-0.2082" y="0.1540" transform="rotate(-45.0, -0.2082, 0.1540)">CDCL (α = 0.75)</text><text x="-0.1825" y="0.1540" transform="rotate(-45.0, -0.1825, 0.1540)">CDCL (α = 0.75), Baseline</text><text x="-0.1568" y="0.1540" transform="rotate(-45.0, -0.1568, 0.1540)">CDCL (α = 0.75, mVISDS)</text><text x="-0.1311" y="0.1540" transform="rotate(-45.0, -0.1311, 0.1540)">CDCL (α = 0.75, mVISDS), Baseline</text><text x="-0.1054" y="0.1540" transform="rotate(-45.0, -0.1054, 0.1540)">CDCL (α = 0.75, mVISDS, ExpRestart(100, 2))</text><text x="-0.0798" y="0.1540" transform="rotate(-45.0, -0.0798, 0.1540)">CDCL (α = 0.75, mVISDS, ExpRestart(100, 2)), Baseline</text><text x="-0.0541" y="0.1540" transform="rotate(-45.0, -0.0541, 0.1540)">CDCL (α = 0.75, mVISDS, LubyRestart(100, 2))</text><text x="-0.0284" y="0.1540" transform="rotate(-45.0, -0.0284, 0.1540)">CDCL (α = 0.75, mVISDS, LubyRestart(100, 2)), Baseline</text><text x="-0.0027" y="0.1540" transform="rotate(-45.0, -0.0027, 0.1540)">CDCL (α = 0.95)</text><text x="0.0230" y="0.1540" transform="rotate(-45.0, 0.0230, 0.1540)">CDCL (α = 0.95), Baseline</text><text x="0.0487" y="0.1540" transform="rotate(-45.0, 0.0487, 0.1540)">CDCL (α = 0.95, mVISDS)</text><text x="0.0743" y="0.1540" transform="rotate(-45.0, 0.0743, 0.1540)">CDCL (α = 0.95, mVISDS), Baseline</text><text x="0.1000" y="0.1540" transform="rotate(-45.0, 0.1000, 0.1540)">CDCL (α = 0.95, mVISDS, ExpRestart(100, 2))</text><text x="0.1257" y="0.1540" transform="rotate(-45.0, 0.1257, 0.1540)">CDCL (α = 0.95, mVISDS, ExpRestart(100, 2)), Baseline</text><text x="0.1514" y="0.1540" transform="rotate(-45.0, 0.1514, 0.1540)">CDCL (α = 0.95, mVISDS, LubyRestart(100, 2))</text><text x="0.1771" y="0.1540" transform="rotate(-45.0, 0.1771, 0.1540)">CDCL (α = 0.95, mVISDS, LubyRestart(100, 2)), Baseline</text><text x="0.2027" y="0.1540" transform="rotate(-45.0, 0.2027, 0.1540)">DPLL</text></g></g></g><g class="axisbar"><g stroke-width="0" stroke="rgb(0%, 0%, 0%)" stroke-opacity="0" fill="rgb(5%, 5%, 5%)" fill-opacity="0.4"><rect width="0.7152" height="0.0013" x="-0.4630" y="0.1270"/></g></g></g><g class="title"><g stroke-width="0.0" stroke="none" fill="rgb(5%, 5%, 5%)" fill-opacity="1.0" font-size="0.0529" text-anchor="middle"><text x="-0.2342" y="-0.2328">Alloc: Sudoku/9x9/2/cnf</text></g></g><g class="legend"><g class="legendBorder"><g stroke-width="0.0017" stroke="rgb(5%, 5%, 5%)" stroke-opacity="1.0" fill="rgb(5%, 5%, 5%)" fill-opacity="0"><rect width="0.3915" height="0.5720" x="0.3278" y="-0.4342"/></g></g><g class="legendContent"><g stroke-width="0.0" stroke="none" fill="rgb(5%, 5%, 5%)" fill-opacity="1.0" font-size="0.0139" text-anchor="start"><text x="0.3355" y="0.1262">DPLL</text></g><g stroke-width="0" stroke="rgb(2%, 29%, 48%)" stroke-opacity="1.0" fill="rgb(0%, 52%, 40%)" fill-opacity="1.0"><rect width="0.0231" height="0.0170" x="0.6884" y="0.1151"/></g><g stroke-width="0.0" stroke="none" fill="rgb(5%, 5%, 5%)" fill-opacity="1.0" font-size="0.0139" text-anchor="start"><text x="0.3355" y="0.1035">CDCL (α = 0.95, mVISDS, LubyRestart(100, 2)), Baseline</text></g><g stroke-width="0.0002" stroke="rgb(17%, 40%, 67%)" stroke-opacity="1.0" fill="rgb(17%, 40%, 67%)" fill-opacity="0.25"><rect width="0.0231" height="0.0170" x="0.6884" y="0.0925"/></g><g stroke-width="0.0" stroke="none" fill="rgb(5%, 5%, 5%)" fill-opacity="1.0" font-size="0.0139" text-anchor="start"><text x="0.3355" y="0.0809">CDCL (α = 0.95, mVISDS, LubyRestart(100, 2))</text></g><g stroke-width="0" stroke="rgb(2%, 29%, 48%)" stroke-opacity="1.0" fill="rgb(17%, 40%, 67%)" fill-opacity="1.0"><rect width="0.0231" height="0.0170" x="0.6884" y="0.0698"/></g><g stroke-width="0.0" stroke="none" fill="rgb(5%, 5%, 5%)" fill-opacity="1.0" font-size="0.0139" text-anchor="start"><text x="0.3355" y="0.0582">CDCL (α = 0.95, mVISDS, ExpRestart(100, 2)), Baseline</text></g><g stroke-width="0.0002" stroke="rgb(62%, 0%, 31%)" stroke-opacity="1.0" fill="rgb(62%, 0%, 31%)" fill-opacity="0.25"><rect width="0.0231" height="0.0170" x="0.6884" y="0.0472"/></g><g stroke-width="0.0" stroke="none" fill="rgb(5%, 5%, 5%)" fill-opacity="1.0" font-size="0.0139" text-anchor="start"><text x="0.3355" y="0.0356">CDCL (α = 0.95, mVISDS, ExpRestart(100, 2))</text></g><g stroke-width="0" stroke="rgb(2%, 29%, 48%)" stroke-opacity="1.0" fill="rgb(62%, 0%, 31%)" fill-opacity="1.0"><rect width="0.0231" height="0.0170" x="0.6884" y="0.0245"/></g><g stroke-width="0.0" stroke="none" fill="rgb(5%, 5%, 5%)" fill-opacity="1.0" font-size="0.0139" text-anchor="start"><text x="0.3355" y="0.0129">CDCL (α = 0.95, mVISDS), Baseline</text></g><g stroke-width="0.0002" stroke="rgb(91%, 47%, 0%)" stroke-opacity="1.0" fill="rgb(91%, 47%, 0%)" fill-opacity="0.25"><rect width="0.0231" height="0.0170" x="0.6884" y="0.0019"/></g><g stroke-width="0.0" stroke="none" fill="rgb(5%, 5%, 5%)" fill-opacity="1.0" font-size="0.0139" text-anchor="start"><text x="0.3355" y="-0.0097">CDCL (α = 0.95, mVISDS)</text></g><g stroke-width="0" stroke="rgb(2%, 29%, 48%)" stroke-opacity="1.0" fill="rgb(91%, 47%, 0%)" fill-opacity="1.0"><rect width="0.0231" height="0.0170" x="0.6884" y="-0.0208"/></g><g stroke-width="0.0" stroke="none" fill="rgb(5%, 5%, 5%)" fill-opacity="1.0" font-size="0.0139" text-anchor="start"><text x="0.3355" y="-0.0324">CDCL (α = 0.95), Baseline</text></g><g stroke-width="0.0002" stroke="rgb(0%, 64%, 70%)" stroke-opacity="1.0" fill="rgb(0%, 64%, 70%)" fill-opacity="0.25"><rect width="0.0231" height="0.0170" x="0.6884" y="-0.0434"/></g><g stroke-width="0.0" stroke="none" fill="rgb(5%, 5%, 5%)" fill-opacity="1.0" font-size="0.0139" text-anchor="start"><text x="0.3355" y="-0.0550">CDCL (α = 0.95)</text></g><g stroke-width="0" stroke="rgb(2%, 29%, 48%)" stroke-opacity="1.0" fill="rgb(0%, 64%, 70%)" fill-opacity="1.0"><rect width="0.0231" height="0.0170" x="0.6884" y="-0.0661"/></g><g stroke-width="0.0" stroke="none" fill="rgb(5%, 5%, 5%)" fill-opacity="1.0" font-size="0.0139" text-anchor="start"><text x="0.3355" y="-0.0777">CDCL (α = 0.75, mVISDS, LubyRestart(100, 2)), Baseline</text></g><g stroke-width="0.0002" stroke="rgb(91%, 19%, 0%)" stroke-opacity="1.0" fill="rgb(91%, 19%, 0%)" fill-opacity="0.25"><rect width="0.0231" height="0.0170" x="0.6884" y="-0.0887"/></g><g stroke-width="0.0" stroke="none" fill="rgb(5%, 5%, 5%)" fill-opacity="1.0" font-size="0.0139" text-anchor="start"><text x="0.3355" y="-0.1003">CDCL (α = 0.75, mVISDS, LubyRestart(100, 2))</text></g><g stroke-width="0" stroke="rgb(2%, 29%, 48%)" stroke-opacity="1.0" fill="rgb(91%, 19%, 0%)" fill-opacity="1.0"><rect width="0.0231" height="0.0170" x="0.6884" y="-0.1114"/></g><g stroke-width="0.0" stroke="none" fill="rgb(5%, 5%, 5%)" fill-opacity="1.0" font-size="0.0139" text-anchor="start"><text x="0.3355" y="-0.1230">CDCL (α = 0.75, mVISDS, ExpRestart(100, 2)), Baseline</text></g><g stroke-width="0.0002" stroke="rgb(38%, 23%, 0%)" stroke-opacity="1.0" fill="rgb(38%, 23%, 0%)" fill-opacity="0.25"><rect width="0.0231" height="0.0170" x="0.6884" y="-0.1340"/></g><g stroke-width="0.0" stroke="none" fill="rgb(5%, 5%, 5%)" fill-opacity="1.0" font-size="0.0139" text-anchor="start"><text x="0.3355" y="-0.1457">CDCL (α = 0.75, mVISDS, ExpRestart(100, 2))</text></g><g stroke-width="0" stroke="rgb(2%, 29%, 48%)" stroke-opacity="1.0" fill="rgb(38%, 23%, 0%)" fill-opacity="1.0"><rect width="0.0231" height="0.0170" x="0.6884" y="-0.1567"/></g><g stroke-width="0.0" stroke="none" fill="rgb(5%, 5%, 5%)" fill-opacity="1.0" font-size="0.0139" text-anchor="start"><text x="0.3355" y="-0.1683">CDCL (α = 0.75, mVISDS), Baseline</text></g><g stroke-width="0.0002" stroke="rgb(90%, 37%, 58%)" stroke-opacity="1.0" fill="rgb(90%, 37%, 58%)" fill-opacity="0.25"><rect width="0.0231" height="0.0170" x="0.6884" y="-0.1793"/></g><g stroke-width="0.0" stroke="none" fill="rgb(5%, 5%, 5%)" fill-opacity="1.0" font-size="0.0139" text-anchor="start"><text x="0.3355" y="-0.1910">CDCL (α = 0.75, mVISDS)</text></g><g stroke-width="0" stroke="rgb(2%, 29%, 48%)" stroke-opacity="1.0" fill="rgb(90%, 37%, 58%)" fill-opacity="1.0"><rect width="0.0231" height="0.0170" x="0.6884" y="-0.2020"/></g><g stroke-width="0.0" stroke="none" fill="rgb(5%, 5%, 5%)" fill-opacity="1.0" font-size="0.0139" text-anchor="start"><text x="0.3355" y="-0.2136">CDCL (α = 0.75), Baseline</text></g><g stroke-width="0.0002" stroke="rgb(0%, 72%, 98%)" stroke-opacity="1.0" fill="rgb(0%, 72%, 98%)" fill-opacity="0.25"><rect width="0.0231" height="0.0170" x="0.6884" y="-0.2246"/></g><g stroke-width="0.0" stroke="none" fill="rgb(5%, 5%, 5%)" fill-opacity="1.0" font-size="0.0139" text-anchor="start"><text x="0.3355" y="-0.2363">CDCL (α = 0.75)</text></g><g stroke-width="0" stroke="rgb(2%, 29%, 48%)" stroke-opacity="1.0" fill="rgb(0%, 72%, 98%)" fill-opacity="1.0"><rect width="0.0231" height="0.0170" x="0.6884" y="-0.2473"/></g><g stroke-width="0.0" stroke="none" fill="rgb(5%, 5%, 5%)" fill-opacity="1.0" font-size="0.0139" text-anchor="start"><text x="0.3355" y="-0.2589">CDCL (adaptive, mVSIDS), Baseline</text></g><g stroke-width="0.0002" stroke="rgb(1%, 28%, 43%)" stroke-opacity="1.0" fill="rgb(1%, 28%, 43%)" fill-opacity="0.25"><rect width="0.0231" height="0.0170" x="0.6884" y="-0.2699"/></g><g stroke-width="0.0" stroke="none" fill="rgb(5%, 5%, 5%)" fill-opacity="1.0" font-size="0.0139" text-anchor="start"><text x="0.3355" y="-0.2816">CDCL (adaptive, mVSIDS)</text></g><g stroke-width="0" stroke="rgb(2%, 29%, 48%)" stroke-opacity="1.0" fill="rgb(1%, 28%, 43%)" fill-opacity="1.0"><rect width="0.0231" height="0.0170" x="0.6884" y="-0.2926"/></g><g stroke-width="0.0" stroke="none" fill="rgb(5%, 5%, 5%)" fill-opacity="1.0" font-size="0.0139" text-anchor="start"><text x="0.3355" y="-0.3042">CDCL (adaptive, mVISDS, LubyRestart(100, 2)), Baseline</text></g><g stroke-width="0.0002" stroke="rgb(26%, 54%, 57%)" stroke-opacity="1.0" fill="rgb(26%, 54%, 57%)" fill-opacity="0.25"><rect width="0.0231" height="0.0170" x="0.6884" y="-0.3152"/></g><g stroke-width="0.0" stroke="none" fill="rgb(5%, 5%, 5%)" fill-opacity="1.0" font-size="0.0139" text-anchor="start"><text x="0.3355" y="-0.3269">CDCL (adaptive, mVISDS, LubyRestart(100, 2))</text></g><g stroke-width="0" stroke="rgb(2%, 29%, 48%)" stroke-opacity="1.0" fill="rgb(26%, 54%, 57%)" fill-opacity="1.0"><rect width="0.0231" height="0.0170" x="0.6884" y="-0.3379"/></g><g stroke-width="0.0" stroke="none" fill="rgb(5%, 5%, 5%)" fill-opacity="1.0" font-size="0.0139" text-anchor="start"><text x="0.3355" y="-0.3495">CDCL (adaptive, mVISDS, ExpRestart(100, 2)), Baseline</text></g><g stroke-width="0.0002" stroke="rgb(0%, 25%, 37%)" stroke-opacity="1.0" fill="rgb(0%, 25%, 37%)" fill-opacity="0.25"><rect width="0.0231" height="0.0170" x="0.6884" y="-0.3606"/></g><g stroke-width="0.0" stroke="none" fill="rgb(5%, 5%, 5%)" fill-opacity="1.0" font-size="0.0139" text-anchor="start"><text x="0.3355" y="-0.3722">CDCL (adaptive, mVISDS, ExpRestart(100, 2))</text></g><g stroke-width="0" stroke="rgb(2%, 29%, 48%)" stroke-opacity="1.0" fill="rgb(0%, 25%, 37%)" fill-opacity="1.0"><rect width="0.0231" height="0.0170" x="0.6884" y="-0.3832"/></g><g stroke-width="0.0" stroke="none" fill="rgb(5%, 5%, 5%)" fill-opacity="1.0" font-size="0.0139" text-anchor="start"><text x="0.3355" y="-0.3948">CDCL (adaptive), Baseline</text></g><g stroke-width="0.0002" stroke="rgb(0%, 30%, 12%)" stroke-opacity="1.0" fill="rgb(0%, 30%, 12%)" fill-opacity="0.25"><rect width="0.0231" height="0.0170" x="0.6884" y="-0.4059"/></g><g stroke-width="0.0" stroke="none" fill="rgb(5%, 5%, 5%)" fill-opacity="1.0" font-size="0.0139" text-anchor="start"><text x="0.3355" y="-0.4175">CDCL (adaptive)</text></g><g stroke-width="0" stroke="rgb(2%, 29%, 48%)" stroke-opacity="1.0" fill="rgb(0%, 30%, 12%)" fill-opacity="1.0"><rect width="0.0231" height="0.0170" x="0.6884" y="-0.4285"/></g></g></g><g class="frame"><g stroke-width="0" stroke="rgb(0%, 0%, 0%)" stroke-opacity="0" fill="rgb(100%, 100%, 100%)" fill-opacity="0.02"><rect width="1.6180" height="1.0000" x="-0.8090" y="-0.5000"/></g></g><g class="title"><g stroke-width="0.0" stroke="none" fill="rgb(5%, 5%, 5%)" fill-opacity="1.0" font-size="0.0265" text-anchor="middle"><text x="-0.7464" y="0" transform="rotate(-90.0, -0.7464, 0)">Alloc [GiB]</text></g></g></g></svg>