<svg xmlns="http://www.w3.org/2000/svg" xmlns:xlink="http://www.w3.org/1999/xlink" width="467" height="300" viewBox="-0.8090 -0.5000 1.6180 1.0375"><style>svg {
  color-scheme: light dark;
}
{
  .canvas g, .title g, .axisbar g, .ticktext g, .tickglyph g, .ticklines g, .legendContent g text {
    fill: rgb(5%, 5%, 5%);
  }
  .ticklines g, .tickglyph g, .legendBorder g {
    stroke: rgb(5%, 5%, 5%);
  }
  .legendBorder g {
    fill: rgb(94%, 94%, 94%);
  }
}
@media (prefers-color-scheme:dark) {
  .canvas g, .title g, .axisbar g, .ticktext g, .tickglyph g, .ticklines g, .legendContent g text {
    fill: rgb(94%, 94%, 94%);
  }
  .ticklines g, .tickglyph g, .legendBorder g {
    stroke: rgb(94%, 94%, 94%);
  }
  .legendBorder g {
    fill: rgb(5%, 5%, 5%);
  }
}</style><g class="chart"><g class="barchart"><g stroke-width="0" stroke="rgb(2%, 29%, 48%)" stroke-opacity="1.0" fill="rgb(0%, 30%, 12%)" fill-opacity="1.0"><rect width="0.0257" height="0.0051" x="-0.4265" y="0.1185"/></g><g stroke-width="0.0010" stroke="rgb(0%, 30%, 12%)" stroke-opacity="1.0" fill="rgb(0%, 30%, 12%)" fill-opacity="0.25"><rect width="0.0257" height="0.0057" x="-0.4008" y="0.1179"/></g><g stroke-width="0" stroke="rgb(2%, 29%, 48%)" stroke-opacity="1.0" fill="rgb(0%, 25%, 37%)" fill-opacity="1.0"><rect width="0.0257" height="0.0235" x="-0.3751" y="0.1002"/></g><g stroke-width="0.0010" stroke="rgb(0%, 25%, 37%)" stroke-opacity="1.0" fill="rgb(0%, 25%, 37%)" fill-opacity="0.25"><rect width="0.0257" height="0.0275" x="-0.3494" y="0.0962"/></g><g stroke-width="0" stroke="rgb(2%, 29%, 48%)" stroke-opacity="1.0" fill="rgb(26%, 54%, 57%)" fill-opacity="1.0"><rect width="0.0257" height="0.0234" x="-0.3237" y="0.1002"/></g><g stroke-width="0.0010" stroke="rgb(26%, 54%, 57%)" stroke-opacity="1.0" fill="rgb(26%, 54%, 57%)" fill-opacity="0.25"><rect width="0.0257" height="0.0270" x="-0.2981" y="0.0966"/></g><g stroke-width="0" stroke="rgb(2%, 29%, 48%)" stroke-opacity="1.0" fill="rgb(1%, 28%, 43%)" fill-opacity="1.0"><rect width="0.0257" height="0.0200" x="-0.2724" y="0.1037"/></g><g stroke-width="0.0010" stroke="rgb(1%, 28%, 43%)" stroke-opacity="1.0" fill="rgb(1%, 28%, 43%)" fill-opacity="0.25"><rect width="0.0257" height="0.0242" x="-0.2467" y="0.0995"/></g><g stroke-width="0" stroke="rgb(2%, 29%, 48%)" stroke-opacity="1.0" fill="rgb(0%, 72%, 98%)" fill-opacity="1.0"><rect width="0.0257" height="0.0126" x="-0.2210" y="0.1111"/></g><g stroke-width="0.0010" stroke="rgb(0%, 72%, 98%)" stroke-opacity="1.0" fill="rgb(0%, 72%, 98%)" fill-opacity="0.25"><rect width="0.0257" height="0.0146" x="-0.1953" y="0.1090"/></g><g stroke-width="0" stroke="rgb(2%, 29%, 48%)" stroke-opacity="1.0" fill="rgb(90%, 37%, 58%)" fill-opacity="1.0"><rect width="0.0257" height="0.0092" x="-0.1696" y="0.1145"/></g><g stroke-width="0.0010" stroke="rgb(90%, 37%, 58%)" stroke-opacity="1.0" fill="rgb(90%, 37%, 58%)" fill-opacity="0.25"><rect width="0.0257" height="0.0102" x="-0.1440" y="0.1134"/></g><g stroke-width="0" stroke="rgb(2%, 29%, 48%)" stroke-opacity="1.0" fill="rgb(38%, 23%, 0%)" fill-opacity="1.0"><rect width="0.0257" height="0.0131" x="-0.1183" y="0.1105"/></g><g stroke-width="0.0010" stroke="rgb(38%, 23%, 0%)" stroke-opacity="1.0" fill="rgb(38%, 23%, 0%)" fill-opacity="0.25"><rect width="0.0257" height="0.0154" x="-0.0926" y="0.1082"/></g><g stroke-width="0" stroke="rgb(2%, 29%, 48%)" stroke-opacity="1.0" fill="rgb(91%, 19%, 0%)" fill-opacity="1.0"><rect width="0.0257" height="0.0136" x="-0.0669" y="0.1100"/></g><g stroke-width="0.0010" stroke="rgb(91%, 19%, 0%)" stroke-opacity="1.0" fill="rgb(91%, 19%, 0%)" fill-opacity="0.25"><rect width="0.0257" height="0.0153" x="-0.0412" y="0.1083"/></g><g stroke-width="0" stroke="rgb(2%, 29%, 48%)" stroke-opacity="1.0" fill="rgb(0%, 64%, 70%)" fill-opacity="1.0"><rect width="0.0257" height="0.0065" x="-0.0156" y="0.1171"/></g><g stroke-width="0.0010" stroke="rgb(0%, 64%, 70%)" stroke-opacity="1.0" fill="rgb(0%, 64%, 70%)" fill-opacity="0.25"><rect width="0.0257" height="0.0070" x="0.0101" y="0.1166"/></g><g stroke-width="0" stroke="rgb(2%, 29%, 48%)" stroke-opacity="1.0" fill="rgb(91%, 47%, 0%)" fill-opacity="1.0"><rect width="0.0257" height="0.0120" x="0.0358" y="0.1116"/></g><g stroke-width="0.0010" stroke="rgb(91%, 47%, 0%)" stroke-opacity="1.0" fill="rgb(91%, 47%, 0%)" fill-opacity="0.25"><rect width="0.0257" height="0.0142" x="0.0615" y="0.1095"/></g><g stroke-width="0" stroke="rgb(2%, 29%, 48%)" stroke-opacity="1.0" fill="rgb(62%, 0%, 31%)" fill-opacity="1.0"><rect width="0.0257" height="0.0133" x="0.0872" y="0.1103"/></g><g stroke-width="0.0010" stroke="rgb(62%, 0%, 31%)" stroke-opacity="1.0" fill="rgb(62%, 0%, 31%)" fill-opacity="0.25"><rect width="0.0257" height="0.0155" x="0.1129" y="0.1082"/></g><g stroke-width="0" stroke="rgb(2%, 29%, 48%)" stroke-opacity="1.0" fill="rgb(17%, 40%, 67%)" fill-opacity="1.0"><rect width="0.0257" height="0.0137" x="0.1385" y="0.1099"/></g><g stroke-width="0.0010" stroke="rgb(17%, 40%, 67%)" stroke-opacity="1.0" fill="rgb(17%, 40%, 67%)" fill-opacity="0.25"><rect width="0.0257" height="0.0154" x="0.1642" y="0.1083"/></g><g stroke-width="0" stroke="rgb(2%, 29%, 48%)" stroke-opacity="1.0" fill="rgb(0%, 52%, 40%)" fill-opacity="1.0"><rect width="0.0257" height="0.2977" x="0.1899" y="-0.1740"/></g></g><g class="errors"></g></g><g class="hud"><g class="axis"><g class="ticks"><g class="tickglyph"><g stroke-width="0.0040" stroke="rgb(5%, 5%, 5%)" stroke-opacity="0.4" fill="rgb(5%, 5%, 5%)" fill-opacity="0.4"><g transform="rotate(-90.0, -0.4754, 0.1236)"><polyline points="-0.4754,0.1386
-0.4754,0.1086"/></g><g transform="rotate(-90.0, -0.4754, 0.0832)"><polyline points="-0.4754,0.0982
-0.4754,0.0682"/></g><g transform="rotate(-90.0, -0.4754, 0.0428)"><polyline points="-0.4754,0.0578
-0.4754,0.0278"/></g><g transform="rotate(-90.0, -0.4754, 0.0024)"><polyline points="-0.4754,0.0174
-0.4754,-0.0126"/></g><g transform="rotate(-90.0, -0.4754, -0.0381)"><polyline points="-0.4754,-0.0231
-0.4754,-0.0531"/></g><g transform="rotate(-90.0, -0.4754, -0.0785)"><polyline points="-0.4754,-0.0635
-0.4754,-0.0935"/></g><g transform="rotate(-90.0, -0.4754, -0.1189)"><polyline points="-0.4754,-0.1039
-0.4754,-0.1339"/></g><g transform="rotate(-90.0, -0.4754, -0.1594)"><polyline points="-0.4754,-0.1444
-0.4754,-0.1744"/></g><g transform="rotate(-90.0, -0.4754, -0.1998)"><polyline points="-0.4754,-0.1848
-0.4754,-0.2148"/></g></g></g><g class="ticktext"><g stroke-width="0.0" stroke="none" fill="rgb(5%, 5%, 5%)" fill-opacity="1.0" font-size="0.0220" text-anchor="end"><text x="-0.4912" y="0.1281">  0</text><text x="-0.4912" y="0.0877"> 50</text><text x="-0.4912" y="0.0472">100</text><text x="-0.4912" y="0.0068">150</text><text x="-0.4912" y="-0.0336">200</text><text x="-0.4912" y="-0.0741">250</text><text x="-0.4912" y="-0.1145">300</text><text x="-0.4912" y="-0.1549">350</text><text x="-0.4912" y="-0.1953">400</text></g></g><g class="ticklines"><g stroke-width="0.0050" stroke="rgb(5%, 5%, 5%)" stroke-opacity="0.05" fill="none"><polyline points="-0.4621,0.1236 0.2513,0.1236"/><polyline points="-0.4621,0.0832 0.2513,0.0832"/><polyline points="-0.4621,0.0428 0.2513,0.0428"/><polyline points="-0.4621,0.0024 0.2513,0.0024"/><polyline points="-0.4621,-0.0381 0.2513,-0.0381"/><polyline points="-0.4621,-0.0785 0.2513,-0.0785"/><polyline points="-0.4621,-0.1189 0.2513,-0.1189"/><polyline points="-0.4621,-0.1594 0.2513,-0.1594"/><polyline points="-0.4621,-0.1998 0.2513,-0.1998"/></g></g></g><g class="axisbar"><g stroke-width="0" stroke="rgb(0%, 0%, 0%)" stroke-opacity="0" fill="rgb(5%, 5%, 5%)" fill-opacity="0.4"><rect width="0.0018" height="0.3247" x="-0.4683" y="-0.2004"/></g></g></g><g class="axis"><g class="ticks"><g class="tickglyph"><g stroke-width="0.0040" stroke="rgb(5%, 5%, 5%)" stroke-opacity="0.4" fill="rgb(5%, 5%, 5%)" fill-opacity="0.4"><polyline points="-0.4136,0.1485
-0.4136,0.1185"/><polyline points="-0.3879,0.1485
-0.3879,0.1185"/><polyline points="-0.3623,0.1485
-0.3623,0.1185"/><polyline points="-0.3366,0.1485
-0.3366,0.1185"/><polyline points="-0.3109,0.1485
-0.3109,0.1185"/><polyline points="-0.2852,0.1485
-0.2852,0.1185"/><polyline points="-0.2595,0.1485
-0.2595,0.1185"/><polyline points="-0.2339,0.1485
-0.2339,0.1185"/><polyline points="-0.2082,0.1485
-0.2082,0.1185"/><polyline points="-0.1825,0.1485
-0.1825,0.1185"/><polyline points="-0.1568,0.1485
-0.1568,0.1185"/><polyline points="-0.1311,0.1485
-0.1311,0.1185"/><polyline points="-0.1054,0.1485
-0.1054,0.1185"/><polyline points="-0.0798,0.1485
-0.0798,0.1185"/><polyline points="-0.0541,0.1485
-0.0541,0.1185"/><polyline points="-0.0284,0.1485
-0.0284,0.1185"/><polyline points="-0.0027,0.1485
-0.0027,0.1185"/><polyline points="0.0230,0.1485
0.0230,0.1185"/><polyline points="0.0487,0.1485
0.0487,0.1185"/><polyline points="0.0743,0.1485
0.0743,0.1185"/><polyline points="0.1000,0.1485
0.1000,0.1185"/><polyline points="0.1257,0.1485
0.1257,0.1185"/><polyline points="0.1514,0.1485
0.1514,0.1185"/><polyline points="0.1771,0.1485
0.1771,0.1185"/><polyline points="0.2027,0.1485
0.2027,0.1185"/></g></g><g class="ticktext"><g stroke-width="0.0" stroke="none" fill="rgb(5%, 5%, 5%)" fill-opacity="1.0" font-size="0.0220" text-anchor="end"><text x="-0.4136" y="0.1540" transform="rotate(-45.0, -0.4136, 0.1540)">CDCL (adaptive)</text><text x="-0.3879" y="0.1540" transform="rotate(-45.0, -0.3879, 0.1540)">CDCL (adaptive), Baseline</text><text x="-0.3623" y="0.1540" transform="rotate(-45.0, -0.3623, 0.1540)">CDCL (adaptive, mVISDS, ExpRestart(100, 2))</text><text x="-0.3366" y="0.1540" transform="rotate(-45.0, -0.3366, 0.1540)">CDCL (adaptive, mVISDS, ExpRestart(100, 2)), Baseline</text><text x="-0.3109" y="0.1540" transform="rotate(-45.0, -0.3109, 0.1540)">CDCL (adaptive, mVISDS, LubyRestart(100, 2))</text><text x="-0.2852" y="0.1540" transform="rotate(-45.0, -0.2852, 0.1540)">CDCL (adaptive, mVISDS, LubyRestart(100, 2)), Baseline</text><text x="-0.2595" y="0.1540" transform="rotate(-45.0, -0.2595, 0.1540)">CDCL (adaptive, mVSIDS)</text><text x="-0.2339" y="0.1540" transform="rotate(-45.0, -0.2339, 0.1540)">CDCL (adaptive, mVSIDS), Baseline</text><text x="-0.2082" y="0.1540" transform="rotate(-45.0, -0.2082, 0.1540)">CDCL (α = 0.75)</text><text x="-0.1825" y="0.1540" transform="rotate(-45.0, -0.1825, 0.1540)">CDCL (α = 0.75), Baseline</text><text x="-0.1568" y="0.1540" transform="rotate(-45.0, -0.1568, 0.1540)">CDCL (α = 0.75, mVISDS)</text><text x="-0.1311" y="0.1540" transform="rotate(-45.0, -0.1311, 0.1540)">CDCL (α = 0.75, mVISDS), Baseline</text><text x="-0.1054" y="0.1540" transform="rotate(-45.0, -0.1054, 0.1540)">CDCL (α = 0.75, mVISDS, ExpRestart(100, 2))</text><text x="-0.0798" y="0.1540" transform="rotate(-45.0, -0.0798, 0.1540)">CDCL (α = 0.75, mVISDS, ExpRestart(100, 2)), Baseline</text><text x="-0.0541" y="0.1540" transform="rotate(-45.0, -0.0541, 0.1540)">CDCL (α = 0.75, mVISDS, LubyRestart(100, 2))</text><text x="-0.0284" y="0.1540" transform="rotate(-45.0, -0.0284, 0.1540)">CDCL (α = 0.75, mVISDS, LubyRestart(100, 2)), Baseline</text><text x="-0.0027" y="0.1540" transform="rotate(-45.0, -0.0027, 0.1540)">CDCL (α = 0.95)</text><text x="0.0230" y="0.1540" transform="rotate(-45.0, 0.0230, 0.1540)">CDCL (α = 0.95), Baseline</text><text x="0.0487" y="0.1540" transform="rotate(-45.0, 0.0487, 0.1540)">CDCL (α = 0.95, mVISDS)</text><text x="0.0743" y="0.1540" transform="rotate(-45.0, 0.0743, 0.1540)">CDCL (α = 0.95, mVISDS), Baseline</text><text x="0.1000" y="0.1540" transform="rotate(-45.0, 0.1000, 0.1540)">CDCL (α = 0.95, mVISDS, ExpRestart(100, 2))</text><text x="0.1257" y="0.1540" transform="rotate(-45.0, 0.1257, 0.1540)">CDCL (α = 0.95, mVISDS, ExpRestart(100, 2)), Baseline</text><text x="0.1514" y="0.1540" transform="rotate(-45.0, 0.1514, 0.1540)">CDCL (α = 0.95, mVISDS, LubyRestart(100, 2))</text><text x="0.1771" y="0.1540" transform="rotate(-45.0, 0.1771, 0.1540)">CDCL (α = 0.95, mVISDS, LubyRestart(100, 2)), Baseline</text><text x="0.2027" y="0.1540" transform="rotate(-45.0, 0.2027, 0.1540)">DPLL</text></g></g></g><g class="axisbar"><g stroke-width="0" stroke="rgb(0%, 0%, 0%)" stroke-opacity="0" fill="rgb(5%, 5%, 5%)" fill-opacity="0.4"><rect width="0.7152" height="0.0013" x="-0.4630" y="0.1270"/></g></g></g><g class="title"><g stroke-width="0.0" stroke="none" fill="rgb(5%, 5%, 5%)" fill-opacity="1.0" font-size="0.0529" text-anchor="middle"><text x="-0.2342" y="-0.2328">Copied: Sudoku/9x9/2/cnf</text></g></g><g class="legend"><g class="legendBorder"><g stroke-width="0.0017" stroke="rgb(5%, 5%, 5%)" stroke-opacity="1.0" fill="rgb(5%, 5%, 5%)" fill-opacity="0"><rect width="0.3915" height="0.5720" x="0.3278" y="-0.4342"/></g></g><g class="legendContent"><g stroke-width="0.0" stroke="none" fill="rgb(5%, 5%, 5%)" fill-opacity="1.0" font-size="0.0139" text-anchor="start"><text x="0.3355" y="0.1262">DPLL</text></g><g stroke-width="0" stroke="rgb(2%, 29%, 48%)" stroke-opacity="1.0" fill="rgb(0%, 52%, 40%)" fill-opacity="1.0"><rect width="0.0231" height="0.0170" x="0.6884" y="0.1151"/></g><g stroke-width="0.0" stroke="none" fill="rgb(5%, 5%, 5%)" fill-opacity="1.0" font-size="0.0139" text-anchor="start"><text x="0.3355" y="0.1035">CDCL (α = 0.95, mVISDS, LubyRestart(100, 2)), Baseline</text></g><g stroke-width="0.0002" stroke="rgb(17%, 40%, 67%)" stroke-opacity="1.0" fill="rgb(17%, 40%, 67%)" fill-opacity="0.25"><rect width="0.0231" height="0.0170" x="0.6884" y="0.0925"/></g><g stroke-width="0.0" stroke="none" fill="rgb(5%, 5%, 5%)" fill-opacity="1.0" font-size="0.0139" text-anchor="start"><text x="0.3355" y="0.0809">CDCL (α = 0.95, mVISDS, LubyRestart(100, 2))</text></g><g stroke-width="0" stroke="rgb(2%, 29%, 48%)" stroke-opacity="1.0" fill="rgb(17%, 40%, 67%)" fill-opacity="1.0"><rect width="0.0231" height="0.0170" x="0.6884" y="0.0698"/></g><g stroke-width="0.0" stroke="none" fill="rgb(5%, 5%, 5%)" fill-opacity="1.0" font-size="0.0139" text-anchor="start"><text x="0.3355" y="0.0582">CDCL (α = 0.95, mVISDS, ExpRestart(100, 2)), Baseline</text></g><g stroke-width="0.0002" stroke="rgb(62%, 0%, 31%)" stroke-opacity="1.0" fill="rgb(62%, 0%, 31%)" fill-opacity="0.25"><rect width="0.0231" height="0.0170" x="0.6884" y="0.0472"/></g><g stroke-width="0.0" stroke="none" fill="rgb(5%, 5%, 5%)" fill-opacity="1.0" font-size="0.0139" text-anchor="start"><text x="0.3355" y="0.0356">CDCL (α = 0.95, mVISDS, ExpRestart(100, 2))</text></g><g stroke-width="0" stroke="rgb(2%, 29%, 48%)" stroke-opacity="1.0" fill="rgb(62%, 0%, 31%)" fill-opacity="1.0"><rect width="0.0231" height="0.0170" x="0.6884" y="0.0245"/></g><g stroke-width="0.0" stroke="none" fill="rgb(5%, 5%, 5%)" fill-opacity="1.0" font-size="0.0139" text-anchor="start"><text x="0.3355" y="0.0129">CDCL (α = 0.95, mVISDS), Baseline</text></g><g stroke-width="0.0002" stroke="rgb(91%, 47%, 0%)" stroke-opacity="1.0" fill="rgb(91%, 47%, 0%)" fill-opacity="0.25"><rect width="0.0231" height="0.0170" x="0.6884" y="0.0019"/></g><g stroke-width="0.0" stroke="none" fill="rgb(5%, 5%, 5%)" fill-opacity="1.0" font-size="0.0139" text-anchor="start"><text x="0.3355" y="-0.0097">CDCL (α = 0.95, mVISDS)</text></g><g stroke-width="0" stroke="rgb(2%, 29%, 48%)" stroke-opacity="1.0" fill="rgb(91%, 47%, 0%)" fill-opacity="1.0"><rect width="0.0231" height="0.0170" x="0.6884" y="-0.0208"/></g><g stroke-width="0.0" stroke="none" fill="rgb(5%, 5%, 5%)" fill-opacity="1.0" font-size="0.0139" text-anchor="start"><text x="0.3355" y="-0.0324">CDCL (α = 0.95), Baseline</text></g><g stroke-width="0.0002" stroke="rgb(0%, 64%, 70%)" stroke-opacity="1.0" fill="rgb(0%, 64%, 70%)" fill-opacity="0.25"><rect width="0.0231" height="0.0170" x="0.6884" y="-0.0434"/></g><g stroke-width="0.0" stroke="none" fill="rgb(5%, 5%, 5%)" fill-opacity="1.0" font-size="0.0139" text-anchor="start"><text x="0.3355" y="-0.0550">CDCL (α = 0.95)</text></g><g stroke-width="0" stroke="rgb(2%, 29%, 48%)" stroke-opacity="1.0" fill="rgb(0%, 64%, 70%)" fill-opacity="1.0"><rect width="0.0231" height="0.0170" x="0.6884" y="-0.0661"/></g><g stroke-width="0.0" stroke="none" fill="rgb(5%, 5%, 5%)" fill-opacity="1.0" font-size="0.0139" text-anchor="start"><text x="0.3355" y="-0.0777">CDCL (α = 0.75, mVISDS, LubyRestart(100, 2)), Baseline</text></g><g stroke-width="0.0002" stroke="rgb(91%, 19%, 0%)" stroke-opacity="1.0" fill="rgb(91%, 19%, 0%)" fill-opacity="0.25"><rect width="0.0231" height="0.0170" x="0.6884" y="-0.0887"/></g><g stroke-width="0.0" stroke="none" fill="rgb(5%, 5%, 5%)" fill-opacity="1.0" font-size="0.0139" text-anchor="start"><text x="0.3355" y="-0.1003">CDCL (α = 0.75, mVISDS, LubyRestart(100, 2))</text></g><g stroke-width="0" stroke="rgb(2%, 29%, 48%)" stroke-opacity="1.0" fill="rgb(91%, 19%, 0%)" fill-opacity="1.0"><rect width="0.0231" height="0.0170" x="0.6884" y="-0.1114"/></g><g stroke-width="0.0" stroke="none" fill="rgb(5%, 5%, 5%)" fill-opacity="1.0" font-size="0.0139" text-anchor="start"><text x="0.3355" y="-0.1230">CDCL (α = 0.75, mVISDS, ExpRestart(100, 2)), Baseline</text></g><g stroke-width="0.0002" stroke="rgb(38%, 23%, 0%)" stroke-opacity="1.0" fill="rgb(38%, 23%, 0%)" fill-opacity="0.25"><rect width="0.0231" height="0.0170" x="0.6884" y="-0.1340"/></g><g stroke-width="0.0" stroke="none" fill="rgb(5%, 5%, 5%)" fill-opacity="1.0" font-size="0.0139" text-anchor="start"><text x="0.3355" y="-0.1457">CDCL (α = 0.75, mVISDS, ExpRestart(100, 2))</text></g><g stroke-width="0" stroke="rgb(2%, 29%, 48%)" stroke-opacity="1.0" fill="rgb(38%, 23%, 0%)" fill-opacity="1.0"><rect width="0.0231" height="0.0170" x="0.6884" y="-0.1567"/></g><g stroke-width="0.0" stroke="none" fill="rgb(5%, 5%, 5%)" fill-opacity="1.0" font-size="0.0139" text-anchor="start"><text x="0.3355" y="-0.1683">CDCL (α = 0.75, mVISDS), Baseline</text></g><g stroke-width="0.0002" stroke="rgb(90%, 37%, 58%)" stroke-opacity="1.0" fill="rgb(90%, 37%, 58%)" fill-opacity="0.25"><rect width="0.0231" height="0.0170" x="0.6884" y="-0.1793"/></g><g stroke-width="0.0" stroke="none" fill="rgb(5%, 5%, 5%)" fill-opacity="1.0" font-size="0.0139" text-anchor="start"><text x="0.3355" y="-0.1910">CDCL (α = 0.75, mVISDS)</text></g><g stroke-width="0" stroke="rgb(2%, 29%, 48%)" stroke-opacity="1.0" fill="rgb(90%, 37%, 58%)" fill-opacity="1.0"><rect width="0.0231" height="0.0170" x="0.6884" y="-0.2020"/></g><g stroke-width="0.0" stroke="none" fill="rgb(5%, 5%, 5%)" fill-opacity="1.0" font-size="0.0139" text-anchor="start"><text x="0.3355" y="-0.2136">CDCL (α = 0.75), Baseline</text></g><g stroke-width="0.0002" stroke="rgb(0%, 72%, 98%)" stroke-opacity="1.0" fill="rgb(0%, 72%, 98%)" fill-opacity="0.25"><rect width="0.0231" height="0.0170" x="0.6884" y="-0.2246"/></g><g stroke-width="0.0" stroke="none" fill="rgb(5%, 5%, 5%)" fill-opacity="1.0" font-size="0.0139" text-anchor="start"><text x="0.3355" y="-0.2363">CDCL (α = 0.75)</text></g><g stroke-width="0" stroke="rgb(2%, 29%, 48%)" stroke-opacity="1.0" fill="rgb(0%, 72%, 98%)" fill-opacity="1.0"><rect width="0.0231" height="0.0170" x="0.6884" y="-0.2473"/></g><g stroke-width="0.0" stroke="none" fill="rgb(5%, 5%, 5%)" fill-opacity="1.0" font-size="0.0139" text-anchor="start"><text x="0.3355" y="-0.2589">CDCL (adaptive, mVSIDS), Baseline</text></g><g stroke-width="0.0002" stroke="rgb(1%, 28%, 43%)" stroke-opacity="1.0" fill="rgb(1%, 28%, 43%)" fill-opacity="0.25"><rect width="0.0231" height="0.0170" x="0.6884" y="-0.2699"/></g><g stroke-width="0.0" stroke="none" fill="rgb(5%, 5%, 5%)" fill-opacity="1.0" font-size="0.0139" text-anchor="start"><text x="0.3355" y="-0.2816">CDCL (adaptive, mVSIDS)</text></g><g stroke-width="0" stroke="rgb(2%, 29%, 48%)" stroke-opacity="1.0" fill="rgb(1%, 28%, 43%)" fill-opacity="1.0"><rect width="0.0231" height="0.0170" x="0.6884" y="-0.2926"/></g><g stroke-width="0.0" stroke="none" fill="rgb(5%, 5%, 5%)" fill-opacity="1.0" font-size="0.0139" text-anchor="start"><text x="0.3355" y="-0.3042">CDCL (adaptive, mVISDS, LubyRestart(100, 2)), Baseline</text></g><g stroke-width="0.0002" stroke="rgb(26%, 54%, 57%)" stroke-opacity="1.0" fill="rgb(26%, 54%, 57%)" fill-opacity="0.25"><rect width="0.0231" height="0.0170" x="0.6884" y="-0.3152"/></g><g stroke-width="0.0" stroke="none" fill="rgb(5%, 5%, 5%)" fill-opacity="1.0" font-size="0.0139" text-anchor="start"><text x="0.3355" y="-0.3269">CDCL (adaptive, mVISDS, LubyRestart(100, 2))</text></g><g stroke-width="0" stroke="rgb(2%, 29%, 48%)" stroke-opacity="1.0" fill="rgb(26%, 54%, 57%)" fill-opacity="1.0"><rect width="0.0231" height="0.0170" x="0.6884" y="-0.3379"/></g><g stroke-width="0.0" stroke="none" fill="rgb(5%, 5%, 5%)" fill-opacity="1.0" font-size="0.0139" text-anchor="start"><text x="0.3355" y="-0.3495">CDCL (adaptive, mVISDS, ExpRestart(100, 2)), Baseline</text></g><g stroke-width="0.0002" stroke="rgb(0%, 25%, 37%)" stroke-opacity="1.0" fill="rgb(0%, 25%, 37%)" fill-opacity="0.25"><rect width="0.0231" height="0.0170" x="0.6884" y="-0.3606"/></g><g stroke-width="0.0" stroke="none" fill="rgb(5%, 5%, 5%)" fill-opacity="1.0" font-size="0.0139" text-anchor="start"><text x="0.3355" y="-0.3722">CDCL (adaptive, mVISDS, ExpRestart(100, 2))</text></g><g stroke-width="0" stroke="rgb(2%, 29%, 48%)" stroke-opacity="1.0" fill="rgb(0%, 25%, 37%)" fill-opacity="1.0"><rect width="0.0231" height="0.0170" x="0.6884" y="-0.3832"/></g><g stroke-width="0.0" stroke="none" fill="rgb(5%, 5%, 5%)" fill-opacity="1.0" font-size="0.0139" text-anchor="start"><text x="0.3355" y="-0.3948">CDCL (adaptive), Baseline</text></g><g stroke-width="0.0002" stroke="rgb(0%, 30%, 12%)" stroke-opacity="1.0" fill="rgb(0%, 30%, 12%)" fill-opacity="0.25"><rect width="0.0231" height="0.0170" x="0.6884" y="-0.4059"/></g><g stroke-width="0.0" stroke="none" fill="rgb(5%, 5%, 5%)" fill-opacity="1.0" font-size="0.0139" text-anchor="start"><text x="0.3355" y="-0.4175">CDCL (adaptive)</text></g><g stroke-width="0" stroke="rgb(2%, 29%, 48%)" stroke-opacity="1.0" fill="rgb(0%, 30%, 12%)" fill-opacity="1.0"><rect width="0.0231" height="0.0170" x="0.6884" y="-0.4285"/></g></g></g><g class="frame"><g stroke-width="0" stroke="rgb(0%, 0%, 0%)" stroke-opacity="0" fill="rgb(100%, 100%, 100%)" fill-opacity="0.02"><rect width="1.6180" height="1.0000" x="-0.8090" y="-0.5000"/></g></g><g class="title"><g stroke-width="0.0" stroke="none" fill="rgb(5%, 5%, 5%)" fill-opacity="1.0" font-size="0.0265" text-anchor="middle"><text x="-0.7464" y="0" transform="rotate(-90.0, -0.7464, 0)">Copied [MiB]</text></g></g></g></svg>