<svg xmlns="http://www.w3.org/2000/svg" xmlns:xlink="http://www.w3.org/1999/xlink" width="467" height="300" viewBox="-0.8090 -0.5000 1.6180 1.0375"><style>svg {
  color-scheme: light dark;
}
{
  .canvas g, .title g, .axisbar g, .ticktext g, .tickglyph g, .ticklines g, .legendContent g text {
    fill: rgb(5%, 5%, 5%);
  }
  .ticklines g, .tickglyph g, .legendBorder g {
    stroke: rgb(5%, 5%, 5%);
  }
  .legendBorder g {
    fill: rgb(94%, 94%, 94%);
  }
}
@media (prefers-color-scheme:dark) {
  .canvas g, .title g, .axisbar g, .ticktext g, .tickglyph g, .ticklines g, .legendContent g text {
    fill: rgb(94%, 94%, 94%);
  }
  .ticklines g, .tickglyph g, .legendBorder g {
    stroke: rgb(94%, 94%, 94%);
  }
  .legendBorder g {
    fill: rgb(5%, 5%, 5%);
  }
}</style><g class="chart"><g class="barchart"><g stroke-width="0" stroke="rgb(2%, 29%, 48%)" stroke-opacity="1.0" fill="rgb(0%, 30%, 12%)" fill-opacity="1.0"><rect width="0.0257" height="0.0058" x="-0.4265" y="0.1178"/></g><g stroke-width="0.0010" stroke="rgb(0%, 30%, 12%)" stroke-opacity="1.0" fill="rgb(0%, 30%, 12%)" fill-opacity="0.25"><rect width="0.0257" height="0.0070" x="-0.4008" y="0.1166"/></g><g stroke-width="0" stroke="rgb(2%, 29%, 48%)" stroke-opacity="1.0" fill="rgb(0%, 25%, 37%)" fill-opacity="1.0"><rect width="0.0257" height="0.0285" x="-0.3751" y="0.0951"/></g><g stroke-width="0.0010" stroke="rgb(0%, 25%, 37%)" stroke-opacity="1.0" fill="rgb(0%, 25%, 37%)" fill-opacity="0.25"><rect width="0.0257" height="0.0326" x="-0.3494" y="0.0910"/></g><g stroke-width="0" stroke="rgb(2%, 29%, 48%)" stroke-opacity="1.0" fill="rgb(26%, 54%, 57%)" fill-opacity="1.0"><rect width="0.0257" height="0.0288" x="-0.3237" y="0.0949"/></g><g stroke-width="0.0010" stroke="rgb(26%, 54%, 57%)" stroke-opacity="1.0" fill="rgb(26%, 54%, 57%)" fill-opacity="0.25"><rect width="0.0257" height="0.0327" x="-0.2981" y="0.0909"/></g><g stroke-width="0" stroke="rgb(2%, 29%, 48%)" stroke-opacity="1.0" fill="rgb(1%, 28%, 43%)" fill-opacity="1.0"><rect width="0.0257" height="0.0251" x="-0.2724" y="0.0986"/></g><g stroke-width="0.0010" stroke="rgb(1%, 28%, 43%)" stroke-opacity="1.0" fill="rgb(1%, 28%, 43%)" fill-opacity="0.25"><rect width="0.0257" height="0.0308" x="-0.2467" y="0.0928"/></g><g stroke-width="0" stroke="rgb(2%, 29%, 48%)" stroke-opacity="1.0" fill="rgb(0%, 72%, 98%)" fill-opacity="1.0"><rect width="0.0257" height="0.0142" x="-0.2210" y="0.1094"/></g><g stroke-width="0.0010" stroke="rgb(0%, 72%, 98%)" stroke-opacity="1.0" fill="rgb(0%, 72%, 98%)" fill-opacity="0.25"><rect width="0.0257" height="0.0187" x="-0.1953" y="0.1049"/></g><g stroke-width="0" stroke="rgb(2%, 29%, 48%)" stroke-opacity="1.0" fill="rgb(90%, 37%, 58%)" fill-opacity="1.0"><rect width="0.0257" height="0.0108" x="-0.1696" y="0.1128"/></g><g stroke-width="0.0010" stroke="rgb(90%, 37%, 58%)" stroke-opacity="1.0" fill="rgb(90%, 37%, 58%)" fill-opacity="0.25"><rect width="0.0257" height="0.0133" x="-0.1440" y="0.1103"/></g><g stroke-width="0" stroke="rgb(2%, 29%, 48%)" stroke-opacity="1.0" fill="rgb(38%, 23%, 0%)" fill-opacity="1.0"><rect width="0.0257" height="0.0149" x="-0.1183" y="0.1087"/></g><g stroke-width="0.0010" stroke="rgb(38%, 23%, 0%)" stroke-opacity="1.0" fill="rgb(38%, 23%, 0%)" fill-opacity="0.25"><rect width="0.0257" height="0.0186" x="-0.0926" y="0.1051"/></g><g stroke-width="0" stroke="rgb(2%, 29%, 48%)" stroke-opacity="1.0" fill="rgb(91%, 19%, 0%)" fill-opacity="1.0"><rect width="0.0257" height="0.0153" x="-0.0669" y="0.1083"/></g><g stroke-width="0.0010" stroke="rgb(91%, 19%, 0%)" stroke-opacity="1.0" fill="rgb(91%, 19%, 0%)" fill-opacity="0.25"><rect width="0.0257" height="0.0186" x="-0.0412" y="0.1050"/></g><g stroke-width="0" stroke="rgb(2%, 29%, 48%)" stroke-opacity="1.0" fill="rgb(0%, 64%, 70%)" fill-opacity="1.0"><rect width="0.0257" height="0.0066" x="-0.0156" y="0.1170"/></g><g stroke-width="0.0010" stroke="rgb(0%, 64%, 70%)" stroke-opacity="1.0" fill="rgb(0%, 64%, 70%)" fill-opacity="0.25"><rect width="0.0257" height="0.0088" x="0.0101" y="0.1148"/></g><g stroke-width="0" stroke="rgb(2%, 29%, 48%)" stroke-opacity="1.0" fill="rgb(91%, 47%, 0%)" fill-opacity="1.0"><rect width="0.0257" height="0.0141" x="0.0358" y="0.1095"/></g><g stroke-width="0.0010" stroke="rgb(91%, 47%, 0%)" stroke-opacity="1.0" fill="rgb(91%, 47%, 0%)" fill-opacity="0.25"><rect width="0.0257" height="0.0181" x="0.0615" y="0.1055"/></g><g stroke-width="0" stroke="rgb(2%, 29%, 48%)" stroke-opacity="1.0" fill="rgb(62%, 0%, 31%)" fill-opacity="1.0"><rect width="0.0257" height="0.0149" x="0.0872" y="0.1087"/></g><g stroke-width="0.0010" stroke="rgb(62%, 0%, 31%)" stroke-opacity="1.0" fill="rgb(62%, 0%, 31%)" fill-opacity="0.25"><rect width="0.0257" height="0.0203" x="0.1129" y="0.1033"/></g><g stroke-width="0" stroke="rgb(2%, 29%, 48%)" stroke-opacity="1.0" fill="rgb(17%, 40%, 67%)" fill-opacity="1.0"><rect width="0.0257" height="0.0161" x="0.1385" y="0.1075"/></g><g stroke-width="0.0010" stroke="rgb(17%, 40%, 67%)" stroke-opacity="1.0" fill="rgb(17%, 40%, 67%)" fill-opacity="0.25"><rect width="0.0257" height="0.0203" x="0.1642" y="0.1033"/></g><g stroke-width="0" stroke="rgb(2%, 29%, 48%)" stroke-opacity="1.0" fill="rgb(0%, 52%, 40%)" fill-opacity="1.0"><rect width="0.0257" height="0.3132" x="0.1899" y="-0.1895"/></g></g><g class="errors"><g stroke-width="0.0015" stroke="rgb(5%, 5%, 5%)" stroke-opacity="1.0" fill="none"><polyline points="-0.4162,0.1179 -0.4111,0.1179"/><polyline points="-0.4136,0.1179 -0.4136,0.1177"/><polyline points="-0.4162,0.1177 -0.4111,0.1177"/></g><g stroke-width="0.0015" stroke="rgb(5%, 5%, 5%)" stroke-opacity="1.0" fill="none"><polyline points="-0.3905,0.1167 -0.3854,0.1167"/><polyline points="-0.3879,0.1167 -0.3879,0.1166"/><polyline points="-0.3905,0.1166 -0.3854,0.1166"/></g><g stroke-width="0.0015" stroke="rgb(5%, 5%, 5%)" stroke-opacity="1.0" fill="none"><polyline points="-0.3648,0.0957 -0.3597,0.0957"/><polyline points="-0.3623,0.0957 -0.3623,0.0945"/><polyline points="-0.3648,0.0945 -0.3597,0.0945"/></g><g stroke-width="0.0015" stroke="rgb(5%, 5%, 5%)" stroke-opacity="1.0" fill="none"><polyline points="-0.3391,0.0918 -0.3340,0.0918"/><polyline points="-0.3366,0.0918 -0.3366,0.0901"/><polyline points="-0.3391,0.0901 -0.3340,0.0901"/></g><g stroke-width="0.0015" stroke="rgb(5%, 5%, 5%)" stroke-opacity="1.0" fill="none"><polyline points="-0.3135,0.0950 -0.3083,0.0950"/><polyline points="-0.3109,0.0950 -0.3109,0.0947"/><polyline points="-0.3135,0.0947 -0.3083,0.0947"/></g><g stroke-width="0.0015" stroke="rgb(5%, 5%, 5%)" stroke-opacity="1.0" fill="none"><polyline points="-0.2878,0.0917 -0.2826,0.0917"/><polyline points="-0.2852,0.0917 -0.2852,0.0901"/><polyline points="-0.2878,0.0901 -0.2826,0.0901"/></g><g stroke-width="0.0015" stroke="rgb(5%, 5%, 5%)" stroke-opacity="1.0" fill="none"><polyline points="-0.2621,0.0990 -0.2570,0.0990"/><polyline points="-0.2595,0.0990 -0.2595,0.0981"/><polyline points="-0.2621,0.0981 -0.2570,0.0981"/></g><g stroke-width="0.0015" stroke="rgb(5%, 5%, 5%)" stroke-opacity="1.0" fill="none"><polyline points="-0.2364,0.0934 -0.2313,0.0934"/><polyline points="-0.2339,0.0934 -0.2339,0.0922"/><polyline points="-0.2364,0.0922 -0.2313,0.0922"/></g><g stroke-width="0.0015" stroke="rgb(5%, 5%, 5%)" stroke-opacity="1.0" fill="none"><polyline points="-0.2107,0.1095 -0.2056,0.1095"/><polyline points="-0.2082,0.1095 -0.2082,0.1093"/><polyline points="-0.2107,0.1093 -0.2056,0.1093"/></g><g stroke-width="0.0015" stroke="rgb(5%, 5%, 5%)" stroke-opacity="1.0" fill="none"><polyline points="-0.1851,0.1054 -0.1799,0.1054"/><polyline points="-0.1825,0.1054 -0.1825,0.1045"/><polyline points="-0.1851,0.1045 -0.1799,0.1045"/></g><g stroke-width="0.0015" stroke="rgb(5%, 5%, 5%)" stroke-opacity="1.0" fill="none"><polyline points="-0.1594,0.1129 -0.1542,0.1129"/><polyline points="-0.1568,0.1129 -0.1568,0.1127"/><polyline points="-0.1594,0.1127 -0.1542,0.1127"/></g><g stroke-width="0.0015" stroke="rgb(5%, 5%, 5%)" stroke-opacity="1.0" fill="none"><polyline points="-0.1337,0.1105 -0.1286,0.1105"/><polyline points="-0.1311,0.1105 -0.1311,0.1102"/><polyline points="-0.1337,0.1102 -0.1286,0.1102"/></g><g stroke-width="0.0015" stroke="rgb(5%, 5%, 5%)" stroke-opacity="1.0" fill="none"><polyline points="-0.1080,0.1089 -0.1029,0.1089"/><polyline points="-0.1054,0.1089 -0.1054,0.1086"/><polyline points="-0.1080,0.1086 -0.1029,0.1086"/></g><g stroke-width="0.0015" stroke="rgb(5%, 5%, 5%)" stroke-opacity="1.0" fill="none"><polyline points="-0.0823,0.1054 -0.0772,0.1054"/><polyline points="-0.0798,0.1054 -0.0798,0.1047"/><polyline points="-0.0823,0.1047 -0.0772,0.1047"/></g><g stroke-width="0.0015" stroke="rgb(5%, 5%, 5%)" stroke-opacity="1.0" fill="none"><polyline points="-0.0566,0.1084 -0.0515,0.1084"/><polyline points="-0.0541,0.1084 -0.0541,0.1082"/><polyline points="-0.0566,0.1082 -0.0515,0.1082"/></g><g stroke-width="0.0015" stroke="rgb(5%, 5%, 5%)" stroke-opacity="1.0" fill="none"><polyline points="-0.0310,0.1053 -0.0258,0.1053"/><polyline points="-0.0284,0.1053 -0.0284,0.1047"/><polyline points="-0.0310,0.1047 -0.0258,0.1047"/></g><g stroke-width="0.0015" stroke="rgb(5%, 5%, 5%)" stroke-opacity="1.0" fill="none"><polyline points="-0.0053,0.1173 -0.0001,0.1173"/><polyline points="-0.0027,0.1173 -0.0027,0.1167"/><polyline points="-0.0053,0.1167 -0.0001,0.1167"/></g><g stroke-width="0.0015" stroke="rgb(5%, 5%, 5%)" stroke-opacity="1.0" fill="none"><polyline points="0.0204,0.1152 0.0255,0.1152"/><polyline points="0.0230,0.1152 0.0230,0.1145"/><polyline points="0.0204,0.1145 0.0255,0.1145"/></g><g stroke-width="0.0015" stroke="rgb(5%, 5%, 5%)" stroke-opacity="1.0" fill="none"><polyline points="0.0461,0.1098 0.0512,0.1098"/><polyline points="0.0487,0.1098 0.0487,0.1093"/><polyline points="0.0461,0.1093 0.0512,0.1093"/></g><g stroke-width="0.0015" stroke="rgb(5%, 5%, 5%)" stroke-opacity="1.0" fill="none"><polyline points="0.0718,0.1061 0.0769,0.1061"/><polyline points="0.0743,0.1061 0.0743,0.1049"/><polyline points="0.0718,0.1049 0.0769,0.1049"/></g><g stroke-width="0.0015" stroke="rgb(5%, 5%, 5%)" stroke-opacity="1.0" fill="none"><polyline points="0.0975,0.1094 0.1026,0.1094"/><polyline points="0.1000,0.1094 0.1000,0.1080"/><polyline points="0.0975,0.1080 0.1026,0.1080"/></g><g stroke-width="0.0015" stroke="rgb(5%, 5%, 5%)" stroke-opacity="1.0" fill="none"><polyline points="0.1231,0.1036 0.1283,0.1036"/><polyline points="0.1257,0.1036 0.1257,0.1031"/><polyline points="0.1231,0.1031 0.1283,0.1031"/></g><g stroke-width="0.0015" stroke="rgb(5%, 5%, 5%)" stroke-opacity="1.0" fill="none"><polyline points="0.1488,0.1078 0.1540,0.1078"/><polyline points="0.1514,0.1078 0.1514,0.1072"/><polyline points="0.1488,0.1072 0.1540,0.1072"/></g><g stroke-width="0.0015" stroke="rgb(5%, 5%, 5%)" stroke-opacity="1.0" fill="none"><polyline points="0.1745,0.1034 0.1796,0.1034"/><polyline points="0.1771,0.1034 0.1771,0.1032"/><polyline points="0.1745,0.1032 0.1796,0.1032"/></g><g stroke-width="0.0015" stroke="rgb(5%, 5%, 5%)" stroke-opacity="1.0" fill="none"><polyline points="0.2002,-0.1890 0.2053,-0.1890"/><polyline points="0.2027,-0.1890 0.2027,-0.1901"/><polyline points="0.2002,-0.1901 0.2053,-0.1901"/></g></g></g><g class="hud"><g class="axis"><g class="ticks"><g class="tickglyph"><g stroke-width="0.0040" stroke="rgb(5%, 5%, 5%)" stroke-opacity="0.4" fill="rgb(5%, 5%, 5%)" fill-opacity="0.4"><g transform="rotate(-90.0, -0.4754, 0.1236)"><polyline points="-0.4754,0.1386
-0.4754,0.1086"/></g><g transform="rotate(-90.0, -0.4754, 0.0942)"><polyline points="-0.4754,0.1092
-0.4754,0.0792"/></g><g transform="rotate(-90.0, -0.4754, 0.0648)"><polyline points="-0.4754,0.0798
-0.4754,0.0498"/></g><g transform="rotate(-90.0, -0.4754, 0.0354)"><polyline points="-0.4754,0.0504
-0.4754,0.0204"/></g><g transform="rotate(-90.0, -0.4754, 0.0060)"><polyline points="-0.4754,0.0210
-0.4754,-0.0090"/></g><g transform="rotate(-90.0, -0.4754, -0.0234)"><polyline points="-0.4754,-0.0084
-0.4754,-0.0384"/></g><g transform="rotate(-90.0, -0.4754, -0.0528)"><polyline points="-0.4754,-0.0378
-0.4754,-0.0678"/></g><g transform="rotate(-90.0, -0.4754, -0.0822)"><polyline points="-0.4754,-0.0672
-0.4754,-0.0972"/></g><g transform="rotate(-90.0, -0.4754, -0.1116)"><polyline points="-0.4754,-0.0966
-0.4754,-0.1266"/></g><g transform="rotate(-90.0, -0.4754, -0.1410)"><polyline points="-0.4754,-0.1260
-0.4754,-0.1560"/></g><g transform="rotate(-90.0, -0.4754, -0.1704)"><polyline points="-0.4754,-0.1554
-0.4754,-0.1854"/></g><g transform="rotate(-90.0, -0.4754, -0.1998)"><polyline points="-0.4754,-0.1848
-0.4754,-0.2148"/></g></g></g><g class="ticktext"><g stroke-width="0.0" stroke="none" fill="rgb(5%, 5%, 5%)" fill-opacity="1.0" font-size="0.0220" text-anchor="end"><text x="-0.4912" y="0.1281"> 0</text><text x="-0.4912" y="0.0987"> 2</text><text x="-0.4912" y="0.0693"> 4</text><text x="-0.4912" y="0.0399"> 6</text><text x="-0.4912" y="0.0105"> 8</text><text x="-0.4912" y="-0.0189">10</text><text x="-0.4912" y="-0.0483">12</text><text x="-0.4912" y="-0.0777">14</text><text x="-0.4912" y="-0.1071">16</text><text x="-0.4912" y="-0.1365">18</text><text x="-0.4912" y="-0.1659">20</text><text x="-0.4912" y="-0.1953">22</text></g></g><g class="ticklines"><g stroke-width="0.0050" stroke="rgb(5%, 5%, 5%)" stroke-opacity="0.05" fill="none"><polyline points="-0.4621,0.1236 0.2513,0.1236"/><polyline points="-0.4621,0.0942 0.2513,0.0942"/><polyline points="-0.4621,0.0648 0.2513,0.0648"/><polyline points="-0.4621,0.0354 0.2513,0.0354"/><polyline points="-0.4621,0.0060 0.2513,0.0060"/><polyline points="-0.4621,-0.0234 0.2513,-0.0234"/><polyline points="-0.4621,-0.0528 0.2513,-0.0528"/><polyline points="-0.4621,-0.0822 0.2513,-0.0822"/><polyline points="-0.4621,-0.1116 0.2513,-0.1116"/><polyline points="-0.4621,-0.1410 0.2513,-0.1410"/><polyline points="-0.4621,-0.1704 0.2513,-0.1704"/><polyline points="-0.4621,-0.1998 0.2513,-0.1998"/></g></g></g><g class="axisbar"><g stroke-width="0" stroke="rgb(0%, 0%, 0%)" stroke-opacity="0" fill="rgb(5%, 5%, 5%)" fill-opacity="0.4"><rect width="0.0018" height="0.3247" x="-0.4683" y="-0.2004"/></g></g></g><g class="axis"><g class="ticks"><g class="tickglyph"><g stroke-width="0.0040" stroke="rgb(5%, 5%, 5%)" stroke-opacity="0.4" fill="rgb(5%, 5%, 5%)" fill-opacity="0.4"><polyline points="-0.4136,0.1485
-0.4136,0.1185"/><polyline points="-0.3879,0.1485
-0.3879,0.1185"/><polyline points="-0.3623,0.1485
-0.3623,0.1185"/><polyline points="-0.3366,0.1485
-0.3366,0.1185"/><polyline points="-0.3109,0.1485
-0.3109,0.1185"/><polyline points="-0.2852,0.1485
-0.2852,0.1185"/><polyline points="-0.2595,0.1485
-0.2595,0.1185"/><polyline points="-0.2339,0.1485
-0.2339,0.1185"/><polyline points="-0.2082,0.1485
-0.2082,0.1185"/><polyline points="-0.1825,0.1485
-0.1825,0.1185"/><polyline points="-0.1568,0.1485
-0.1568,0.1185"/><polyline points="-0.1311,0.1485
-0.1311,0.1185"/><polyline points="-0.1054,0.1485
-0.1054,0.1185"/><polyline points="-0.0798,0.1485
-0.0798,0.1185"/><polyline points="-0.0541,0.1485
-0.0541,0.1185"/><polyline points="-0.0284,0.1485
-0.0284,0.1185"/><polyline points="-0.0027,0.1485
-0.0027,0.1185"/><polyline points="0.0230,0.1485
0.0230,0.1185"/><polyline points="0.0487,0.1485
0.0487,0.1185"/><polyline points="0.0743,0.1485
0.0743,0.1185"/><polyline points="0.1000,0.1485
0.1000,0.1185"/><polyline points="0.1257,0.1485
0.1257,0.1185"/><polyline points="0.1514,0.1485
0.1514,0.1185"/><polyline points="0.1771,0.1485
0.1771,0.1185"/><polyline points="0.2027,0.1485
0.2027,0.1185"/></g></g><g class="ticktext"><g stroke-width="0.0" stroke="none" fill="rgb(5%, 5%, 5%)" fill-opacity="1.0" font-size="0.0220" text-anchor="end"><text x="-0.4136" y="0.1540" transform="rotate(-45.0, -0.4136, 0.1540)">CDCL (adaptive)</text><text x="-0.3879" y="0.1540" transform="rotate(-45.0, -0.3879, 0.1540)">CDCL (adaptive), Baseline</text><text x="-0.3623" y="0.1540" transform="rotate(-45.0, -0.3623, 0.1540)">CDCL (adaptive, mVISDS, ExpRestart(100, 2))</text><text x="-0.3366" y="0.1540" transform="rotate(-45.0, -0.3366, 0.1540)">CDCL (adaptive, mVISDS, ExpRestart(100, 2)), Baseline</text><text x="-0.3109" y="0.1540" transform="rotate(-45.0, -0.3109, 0.1540)">CDCL (adaptive, mVISDS, LubyRestart(100, 2))</text><text x="-0.2852" y="0.1540" transform="rotate(-45.0, -0.2852, 0.1540)">CDCL (adaptive, mVISDS, LubyRestart(100, 2)), Baseline</text><text x="-0.2595" y="0.1540" transform="rotate(-45.0, -0.2595, 0.1540)">CDCL (adaptive, mVSIDS)</text><text x="-0.2339" y="0.1540" transform="rotate(-45.0, -0.2339, 0.1540)">CDCL (adaptive, mVSIDS), Baseline</text><text x="-0.2082" y="0.1540" transform="rotate(-45.0, -0.2082, 0.1540)">CDCL (α = 0.75)</text><text x="-0.1825" y="0.1540" transform="rotate(-45.0, -0.1825, 0.1540)">CDCL (α = 0.75), Baseline</text><text x="-0.1568" y="0.1540" transform="rotate(-45.0, -0.1568, 0.1540)">CDCL (α = 0.75, mVISDS)</text><text x="-0.1311" y="0.1540" transform="rotate(-45.0, -0.1311, 0.1540)">CDCL (α = 0.75, mVISDS), Baseline</text><text x="-0.1054" y="0.1540" transform="rotate(-45.0, -0.1054, 0.1540)">CDCL (α = 0.75, mVISDS, ExpRestart(100, 2))</text><text x="-0.0798" y="0.1540" transform="rotate(-45.0, -0.0798, 0.1540)">CDCL (α = 0.75, mVISDS, ExpRestart(100, 2)), Baseline</text><text x="-0.0541" y="0.1540" transform="rotate(-45.0, -0.0541, 0.1540)">CDCL (α = 0.75, mVISDS, LubyRestart(100, 2))</text><text x="-0.0284" y="0.1540" transform="rotate(-45.0, -0.0284, 0.1540)">CDCL (α = 0.75, mVISDS, LubyRestart(100, 2)), Baseline</text><text x="-0.0027" y="0.1540" transform="rotate(-45.0, -0.0027, 0.1540)">CDCL (α = 0.95)</text><text x="0.0230" y="0.1540" transform="rotate(-45.0, 0.0230, 0.1540)">CDCL (α = 0.95), Baseline</text><text x="0.0487" y="0.1540" transform="rotate(-45.0, 0.0487, 0.1540)">CDCL (α = 0.95, mVISDS)</text><text x="0.0743" y="0.1540" transform="rotate(-45.0, 0.0743, 0.1540)">CDCL (α = 0.95, mVISDS), Baseline</text><text x="0.1000" y="0.1540" transform="rotate(-45.0, 0.1000, 0.1540)">CDCL (α = 0.95, mVISDS, ExpRestart(100, 2))</text><text x="0.1257" y="0.1540" transform="rotate(-45.0, 0.1257, 0.1540)">CDCL (α = 0.95, mVISDS, ExpRestart(100, 2)), Baseline</text><text x="0.1514" y="0.1540" transform="rotate(-45.0, 0.1514, 0.1540)">CDCL (α = 0.95, mVISDS, LubyRestart(100, 2))</text><text x="0.1771" y="0.1540" transform="rotate(-45.0, 0.1771, 0.1540)">CDCL (α = 0.95, mVISDS, LubyRestart(100, 2)), Baseline</text><text x="0.2027" y="0.1540" transform="rotate(-45.0, 0.2027, 0.1540)">DPLL</text></g></g></g><g class="axisbar"><g stroke-width="0" stroke="rgb(0%, 0%, 0%)" stroke-opacity="0" fill="rgb(5%, 5%, 5%)" fill-opacity="0.4"><rect width="0.7152" height="0.0013" x="-0.4630" y="0.1270"/></g></g></g><g class="title"><g stroke-width="0.0" stroke="none" fill="rgb(5%, 5%, 5%)" fill-opacity="1.0" font-size="0.0529" text-anchor="middle"><text x="-0.2342" y="-0.2328">Time: Sudoku/9x9/2/cnf</text></g></g><g class="legend"><g class="legendBorder"><g stroke-width="0.0017" stroke="rgb(5%, 5%, 5%)" stroke-opacity="1.0" fill="rgb(5%, 5%, 5%)" fill-opacity="0"><rect width="0.3915" height="0.5720" x="0.3278" y="-0.4342"/></g></g><g class="legendContent"><g stroke-width="0.0" stroke="none" fill="rgb(5%, 5%, 5%)" fill-opacity="1.0" font-size="0.0139" text-anchor="start"><text x="0.3355" y="0.1262">DPLL</text></g><g stroke-width="0" stroke="rgb(2%, 29%, 48%)" stroke-opacity="1.0" fill="rgb(0%, 52%, 40%)" fill-opacity="1.0"><rect width="0.0231" height="0.0170" x="0.6884" y="0.1151"/></g><g stroke-width="0.0" stroke="none" fill="rgb(5%, 5%, 5%)" fill-opacity="1.0" font-size="0.0139" text-anchor="start"><text x="0.3355" y="0.1035">CDCL (α = 0.95, mVISDS, LubyRestart(100, 2)), Baseline</text></g><g stroke-width="0.0002" stroke="rgb(17%, 40%, 67%)" stroke-opacity="1.0" fill="rgb(17%, 40%, 67%)" fill-opacity="0.25"><rect width="0.0231" height="0.0170" x="0.6884" y="0.0925"/></g><g stroke-width="0.0" stroke="none" fill="rgb(5%, 5%, 5%)" fill-opacity="1.0" font-size="0.0139" text-anchor="start"><text x="0.3355" y="0.0809">CDCL (α = 0.95, mVISDS, LubyRestart(100, 2))</text></g><g stroke-width="0" stroke="rgb(2%, 29%, 48%)" stroke-opacity="1.0" fill="rgb(17%, 40%, 67%)" fill-opacity="1.0"><rect width="0.0231" height="0.0170" x="0.6884" y="0.0698"/></g><g stroke-width="0.0" stroke="none" fill="rgb(5%, 5%, 5%)" fill-opacity="1.0" font-size="0.0139" text-anchor="start"><text x="0.3355" y="0.0582">CDCL (α = 0.95, mVISDS, ExpRestart(100, 2)), Baseline</text></g><g stroke-width="0.0002" stroke="rgb(62%, 0%, 31%)" stroke-opacity="1.0" fill="rgb(62%, 0%, 31%)" fill-opacity="0.25"><rect width="0.0231" height="0.0170" x="0.6884" y="0.0472"/></g><g stroke-width="0.0" stroke="none" fill="rgb(5%, 5%, 5%)" fill-opacity="1.0" font-size="0.0139" text-anchor="start"><text x="0.3355" y="0.0356">CDCL (α = 0.95, mVISDS, ExpRestart(100, 2))</text></g><g stroke-width="0" stroke="rgb(2%, 29%, 48%)" stroke-opacity="1.0" fill="rgb(62%, 0%, 31%)" fill-opacity="1.0"><rect width="0.0231" height="0.0170" x="0.6884" y="0.0245"/></g><g stroke-width="0.0" stroke="none" fill="rgb(5%, 5%, 5%)" fill-opacity="1.0" font-size="0.0139" text-anchor="start"><text x="0.3355" y="0.0129">CDCL (α = 0.95, mVISDS), Baseline</text></g><g stroke-width="0.0002" stroke="rgb(91%, 47%, 0%)" stroke-opacity="1.0" fill="rgb(91%, 47%, 0%)" fill-opacity="0.25"><rect width="0.0231" height="0.0170" x="0.6884" y="0.0019"/></g><g stroke-width="0.0" stroke="none" fill="rgb(5%, 5%, 5%)" fill-opacity="1.0" font-size="0.0139" text-anchor="start"><text x="0.3355" y="-0.0097">CDCL (α = 0.95, mVISDS)</text></g><g stroke-width="0" stroke="rgb(2%, 29%, 48%)" stroke-opacity="1.0" fill="rgb(91%, 47%, 0%)" fill-opacity="1.0"><rect width="0.0231" height="0.0170" x="0.6884" y="-0.0208"/></g><g stroke-width="0.0" stroke="none" fill="rgb(5%, 5%, 5%)" fill-opacity="1.0" font-size="0.0139" text-anchor="start"><text x="0.3355" y="-0.0324">CDCL (α = 0.95), Baseline</text></g><g stroke-width="0.0002" stroke="rgb(0%, 64%, 70%)" stroke-opacity="1.0" fill="rgb(0%, 64%, 70%)" fill-opacity="0.25"><rect width="0.0231" height="0.0170" x="0.6884" y="-0.0434"/></g><g stroke-width="0.0" stroke="none" fill="rgb(5%, 5%, 5%)" fill-opacity="1.0" font-size="0.0139" text-anchor="start"><text x="0.3355" y="-0.0550">CDCL (α = 0.95)</text></g><g stroke-width="0" stroke="rgb(2%, 29%, 48%)" stroke-opacity="1.0" fill="rgb(0%, 64%, 70%)" fill-opacity="1.0"><rect width="0.0231" height="0.0170" x="0.6884" y="-0.0661"/></g><g stroke-width="0.0" stroke="none" fill="rgb(5%, 5%, 5%)" fill-opacity="1.0" font-size="0.0139" text-anchor="start"><text x="0.3355" y="-0.0777">CDCL (α = 0.75, mVISDS, LubyRestart(100, 2)), Baseline</text></g><g stroke-width="0.0002" stroke="rgb(91%, 19%, 0%)" stroke-opacity="1.0" fill="rgb(91%, 19%, 0%)" fill-opacity="0.25"><rect width="0.0231" height="0.0170" x="0.6884" y="-0.0887"/></g><g stroke-width="0.0" stroke="none" fill="rgb(5%, 5%, 5%)" fill-opacity="1.0" font-size="0.0139" text-anchor="start"><text x="0.3355" y="-0.1003">CDCL (α = 0.75, mVISDS, LubyRestart(100, 2))</text></g><g stroke-width="0" stroke="rgb(2%, 29%, 48%)" stroke-opacity="1.0" fill="rgb(91%, 19%, 0%)" fill-opacity="1.0"><rect width="0.0231" height="0.0170" x="0.6884" y="-0.1114"/></g><g stroke-width="0.0" stroke="none" fill="rgb(5%, 5%, 5%)" fill-opacity="1.0" font-size="0.0139" text-anchor="start"><text x="0.3355" y="-0.1230">CDCL (α = 0.75, mVISDS, ExpRestart(100, 2)), Baseline</text></g><g stroke-width="0.0002" stroke="rgb(38%, 23%, 0%)" stroke-opacity="1.0" fill="rgb(38%, 23%, 0%)" fill-opacity="0.25"><rect width="0.0231" height="0.0170" x="0.6884" y="-0.1340"/></g><g stroke-width="0.0" stroke="none" fill="rgb(5%, 5%, 5%)" fill-opacity="1.0" font-size="0.0139" text-anchor="start"><text x="0.3355" y="-0.1457">CDCL (α = 0.75, mVISDS, ExpRestart(100, 2))</text></g><g stroke-width="0" stroke="rgb(2%, 29%, 48%)" stroke-opacity="1.0" fill="rgb(38%, 23%, 0%)" fill-opacity="1.0"><rect width="0.0231" height="0.0170" x="0.6884" y="-0.1567"/></g><g stroke-width="0.0" stroke="none" fill="rgb(5%, 5%, 5%)" fill-opacity="1.0" font-size="0.0139" text-anchor="start"><text x="0.3355" y="-0.1683">CDCL (α = 0.75, mVISDS), Baseline</text></g><g stroke-width="0.0002" stroke="rgb(90%, 37%, 58%)" stroke-opacity="1.0" fill="rgb(90%, 37%, 58%)" fill-opacity="0.25"><rect width="0.0231" height="0.0170" x="0.6884" y="-0.1793"/></g><g stroke-width="0.0" stroke="none" fill="rgb(5%, 5%, 5%)" fill-opacity="1.0" font-size="0.0139" text-anchor="start"><text x="0.3355" y="-0.1910">CDCL (α = 0.75, mVISDS)</text></g><g stroke-width="0" stroke="rgb(2%, 29%, 48%)" stroke-opacity="1.0" fill="rgb(90%, 37%, 58%)" fill-opacity="1.0"><rect width="0.0231" height="0.0170" x="0.6884" y="-0.2020"/></g><g stroke-width="0.0" stroke="none" fill="rgb(5%, 5%, 5%)" fill-opacity="1.0" font-size="0.0139" text-anchor="start"><text x="0.3355" y="-0.2136">CDCL (α = 0.75), Baseline</text></g><g stroke-width="0.0002" stroke="rgb(0%, 72%, 98%)" stroke-opacity="1.0" fill="rgb(0%, 72%, 98%)" fill-opacity="0.25"><rect width="0.0231" height="0.0170" x="0.6884" y="-0.2246"/></g><g stroke-width="0.0" stroke="none" fill="rgb(5%, 5%, 5%)" fill-opacity="1.0" font-size="0.0139" text-anchor="start"><text x="0.3355" y="-0.2363">CDCL (α = 0.75)</text></g><g stroke-width="0" stroke="rgb(2%, 29%, 48%)" stroke-opacity="1.0" fill="rgb(0%, 72%, 98%)" fill-opacity="1.0"><rect width="0.0231" height="0.0170" x="0.6884" y="-0.2473"/></g><g stroke-width="0.0" stroke="none" fill="rgb(5%, 5%, 5%)" fill-opacity="1.0" font-size="0.0139" text-anchor="start"><text x="0.3355" y="-0.2589">CDCL (adaptive, mVSIDS), Baseline</text></g><g stroke-width="0.0002" stroke="rgb(1%, 28%, 43%)" stroke-opacity="1.0" fill="rgb(1%, 28%, 43%)" fill-opacity="0.25"><rect width="0.0231" height="0.0170" x="0.6884" y="-0.2699"/></g><g stroke-width="0.0" stroke="none" fill="rgb(5%, 5%, 5%)" fill-opacity="1.0" font-size="0.0139" text-anchor="start"><text x="0.3355" y="-0.2816">CDCL (adaptive, mVSIDS)</text></g><g stroke-width="0" stroke="rgb(2%, 29%, 48%)" stroke-opacity="1.0" fill="rgb(1%, 28%, 43%)" fill-opacity="1.0"><rect width="0.0231" height="0.0170" x="0.6884" y="-0.2926"/></g><g stroke-width="0.0" stroke="none" fill="rgb(5%, 5%, 5%)" fill-opacity="1.0" font-size="0.0139" text-anchor="start"><text x="0.3355" y="-0.3042">CDCL (adaptive, mVISDS, LubyRestart(100, 2)), Baseline</text></g><g stroke-width="0.0002" stroke="rgb(26%, 54%, 57%)" stroke-opacity="1.0" fill="rgb(26%, 54%, 57%)" fill-opacity="0.25"><rect width="0.0231" height="0.0170" x="0.6884" y="-0.3152"/></g><g stroke-width="0.0" stroke="none" fill="rgb(5%, 5%, 5%)" fill-opacity="1.0" font-size="0.0139" text-anchor="start"><text x="0.3355" y="-0.3269">CDCL (adaptive, mVISDS, LubyRestart(100, 2))</text></g><g stroke-width="0" stroke="rgb(2%, 29%, 48%)" stroke-opacity="1.0" fill="rgb(26%, 54%, 57%)" fill-opacity="1.0"><rect width="0.0231" height="0.0170" x="0.6884" y="-0.3379"/></g><g stroke-width="0.0" stroke="none" fill="rgb(5%, 5%, 5%)" fill-opacity="1.0" font-size="0.0139" text-anchor="start"><text x="0.3355" y="-0.3495">CDCL (adaptive, mVISDS, ExpRestart(100, 2)), Baseline</text></g><g stroke-width="0.0002" stroke="rgb(0%, 25%, 37%)" stroke-opacity="1.0" fill="rgb(0%, 25%, 37%)" fill-opacity="0.25"><rect width="0.0231" height="0.0170" x="0.6884" y="-0.3606"/></g><g stroke-width="0.0" stroke="none" fill="rgb(5%, 5%, 5%)" fill-opacity="1.0" font-size="0.0139" text-anchor="start"><text x="0.3355" y="-0.3722">CDCL (adaptive, mVISDS, ExpRestart(100, 2))</text></g><g stroke-width="0" stroke="rgb(2%, 29%, 48%)" stroke-opacity="1.0" fill="rgb(0%, 25%, 37%)" fill-opacity="1.0"><rect width="0.0231" height="0.0170" x="0.6884" y="-0.3832"/></g><g stroke-width="0.0" stroke="none" fill="rgb(5%, 5%, 5%)" fill-opacity="1.0" font-size="0.0139" text-anchor="start"><text x="0.3355" y="-0.3948">CDCL (adaptive), Baseline</text></g><g stroke-width="0.0002" stroke="rgb(0%, 30%, 12%)" stroke-opacity="1.0" fill="rgb(0%, 30%, 12%)" fill-opacity="0.25"><rect width="0.0231" height="0.0170" x="0.6884" y="-0.4059"/></g><g stroke-width="0.0" stroke="none" fill="rgb(5%, 5%, 5%)" fill-opacity="1.0" font-size="0.0139" text-anchor="start"><text x="0.3355" y="-0.4175">CDCL (adaptive)</text></g><g stroke-width="0" stroke="rgb(2%, 29%, 48%)" stroke-opacity="1.0" fill="rgb(0%, 30%, 12%)" fill-opacity="1.0"><rect width="0.0231" height="0.0170" x="0.6884" y="-0.4285"/></g></g></g><g class="frame"><g stroke-width="0" stroke="rgb(0%, 0%, 0%)" stroke-opacity="0" fill="rgb(100%, 100%, 100%)" fill-opacity="0.02"><rect width="1.6180" height="1.0000" x="-0.8090" y="-0.5000"/></g></g><g class="title"><g stroke-width="0.0" stroke="none" fill="rgb(5%, 5%, 5%)" fill-opacity="1.0" font-size="0.0265" text-anchor="middle"><text x="-0.7464" y="0" transform="rotate(-90.0, -0.7464, 0)">Time [s]</text></g></g></g></svg>