<svg xmlns="http://www.w3.org/2000/svg" xmlns:xlink="http://www.w3.org/1999/xlink" width="434" height="300" viewBox="-0.8090 -0.5 1.6180 1.1163"><style>svg {
  color-scheme: light dark;
}
{
  .canvas g, .title g, .axisbar g, .ticktext g, .tickglyph g, .ticklines g, .legendContent g text {
    fill: rgb(5%, 5%, 5%);
  }
  .ticklines g, .tickglyph g, .legendBorder g {
    stroke: rgb(5%, 5%, 5%);
  }
  .legendBorder g {
    fill: rgb(94%, 94%, 94%);
  }
}
@media (prefers-color-scheme:dark) {
  .canvas g, .title g, .axisbar g, .ticktext g, .tickglyph g, .ticklines g, .legendContent g text {
    fill: rgb(94%, 94%, 94%);
  }
  .ticklines g, .tickglyph g, .legendBorder g {
    stroke: rgb(94%, 94%, 94%);
  }
  .legendBorder g {
    fill: rgb(5%, 5%, 5%);
  }
}</style><g class="chart"><g class="barchart"><g stroke-width="0" stroke="rgb(2%, 29%, 48%)" stroke-opacity="1.0" fill="rgb(57%, 0%, 21%)" fill-opacity="1.0"><rect width="0.0159" height="0.1821" x="-0.3826" y="-0.0052"/></g><g stroke-width="0.0010" stroke="rgb(57%, 0%, 21%)" stroke-opacity="1.0" fill="rgb(57%, 0%, 21%)" fill-opacity="0.25"><rect width="0.0159" height="0.1531" x="-0.3667" y="0.0238"/></g><g stroke-width="0" stroke="rgb(2%, 29%, 48%)" stroke-opacity="1.0" fill="rgb(47%, 34%, 0%)" fill-opacity="1.0"><rect width="0.0159" height="0.1853" x="-0.3507" y="-0.0083"/></g><g stroke-width="0.0010" stroke="rgb(47%, 34%, 0%)" stroke-opacity="1.0" fill="rgb(47%, 34%, 0%)" fill-opacity="0.25"><rect width="0.0159" height="0.1480" x="-0.3348" y="0.0289"/></g><g stroke-width="0" stroke="rgb(2%, 29%, 48%)" stroke-opacity="1.0" fill="rgb(70%, 21%, 0%)" fill-opacity="1.0"><rect width="0.0159" height="0.1763" x="-0.3189" y="0.0006"/></g><g stroke-width="0" stroke="rgb(2%, 29%, 48%)" stroke-opacity="1.0" fill="rgb(0%, 36%, 0%)" fill-opacity="1.0"><rect width="0.0159" height="0.1726" x="-0.3029" y="0.0043"/></g><g stroke-width="0.0010" stroke="rgb(0%, 36%, 0%)" stroke-opacity="1.0" fill="rgb(0%, 36%, 0%)" fill-opacity="0.25"><rect width="0.0159" height="0.1459" x="-0.2870" y="0.0310"/></g><g stroke-width="0" stroke="rgb(2%, 29%, 48%)" stroke-opacity="1.0" fill="rgb(0%, 21%, 55%)" fill-opacity="1.0"><rect width="0.0159" height="0.1731" x="-0.2711" y="0.0038"/></g><g stroke-width="0" stroke="rgb(2%, 29%, 48%)" stroke-opacity="1.0" fill="rgb(72%, 66%, 0%)" fill-opacity="1.0"><rect width="0.0159" height="0.1770" x="-0.2551" y="-0.0000"/></g><g stroke-width="0.0010" stroke="rgb(72%, 66%, 0%)" stroke-opacity="1.0" fill="rgb(72%, 66%, 0%)" fill-opacity="0.25"><rect width="0.0159" height="0.1485" x="-0.2392" y="0.0284"/></g><g stroke-width="0" stroke="rgb(2%, 29%, 48%)" stroke-opacity="1.0" fill="rgb(37%, 17%, 0%)" fill-opacity="1.0"><rect width="0.0159" height="0.1761" x="-0.2233" y="0.0008"/></g><g stroke-width="0" stroke="rgb(2%, 29%, 48%)" stroke-opacity="1.0" fill="rgb(20%, 15%, 40%)" fill-opacity="1.0"><rect width="0.0159" height="0.1794" x="-0.2074" y="-0.0025"/></g><g stroke-width="0.0010" stroke="rgb(20%, 15%, 40%)" stroke-opacity="1.0" fill="rgb(20%, 15%, 40%)" fill-opacity="0.25"><rect width="0.0159" height="0.1470" x="-0.1914" y="0.0299"/></g><g stroke-width="0" stroke="rgb(2%, 29%, 48%)" stroke-opacity="1.0" fill="rgb(48%, 65%, 0%)" fill-opacity="1.0"><rect width="0.0159" height="0.1809" x="-0.1755" y="-0.0040"/></g><g stroke-width="0.0010" stroke="rgb(48%, 65%, 0%)" stroke-opacity="1.0" fill="rgb(48%, 65%, 0%)" fill-opacity="0.25"><rect width="0.0159" height="0.1553" x="-0.1596" y="0.0216"/></g><g stroke-width="0" stroke="rgb(2%, 29%, 48%)" stroke-opacity="1.0" fill="rgb(35%, 24%, 0%)" fill-opacity="1.0"><rect width="0.0159" height="0.1910" x="-0.1436" y="-0.0141"/></g><g stroke-width="0" stroke="rgb(2%, 29%, 48%)" stroke-opacity="1.0" fill="rgb(0%, 72%, 67%)" fill-opacity="1.0"><rect width="0.0159" height="0.1772" x="-0.1277" y="-0.0003"/></g><g stroke-width="0.0010" stroke="rgb(0%, 72%, 67%)" stroke-opacity="1.0" fill="rgb(0%, 72%, 67%)" fill-opacity="0.25"><rect width="0.0159" height="0.1564" x="-0.1118" y="0.0205"/></g><g stroke-width="0" stroke="rgb(2%, 29%, 48%)" stroke-opacity="1.0" fill="rgb(98%, 15%, 25%)" fill-opacity="1.0"><rect width="0.0159" height="0.1782" x="-0.0958" y="-0.0012"/></g><g stroke-width="0" stroke="rgb(2%, 29%, 48%)" stroke-opacity="1.0" fill="rgb(57%, 62%, 78%)" fill-opacity="1.0"><rect width="0.0159" height="0.1806" x="-0.0799" y="-0.0036"/></g><g stroke-width="0.0010" stroke="rgb(57%, 62%, 78%)" stroke-opacity="1.0" fill="rgb(57%, 62%, 78%)" fill-opacity="0.25"><rect width="0.0159" height="0.1470" x="-0.0640" y="0.0300"/></g><g stroke-width="0" stroke="rgb(2%, 29%, 48%)" stroke-opacity="1.0" fill="rgb(53%, 24%, 0%)" fill-opacity="1.0"><rect width="0.0159" height="0.1751" x="-0.0480" y="0.0018"/></g><g stroke-width="0" stroke="rgb(2%, 29%, 48%)" stroke-opacity="1.0" fill="rgb(69%, 17%, 0%)" fill-opacity="1.0"><rect width="0.0159" height="0.1786" x="-0.0321" y="-0.0017"/></g><g stroke-width="0.0010" stroke="rgb(69%, 17%, 0%)" stroke-opacity="1.0" fill="rgb(69%, 17%, 0%)" fill-opacity="0.25"><rect width="0.0159" height="0.1476" x="-0.0162" y="0.0293"/></g><g stroke-width="0" stroke="rgb(2%, 29%, 48%)" stroke-opacity="1.0" fill="rgb(0%, 42%, 48%)" fill-opacity="1.0"><rect width="0.0159" height="0.1813" x="-0.0003" y="-0.0043"/></g><g stroke-width="0.0010" stroke="rgb(0%, 42%, 48%)" stroke-opacity="1.0" fill="rgb(0%, 42%, 48%)" fill-opacity="0.25"><rect width="0.0159" height="0.1487" x="0.0157" y="0.0282"/></g><g stroke-width="0" stroke="rgb(2%, 29%, 48%)" stroke-opacity="1.0" fill="rgb(18%, 22%, 10%)" fill-opacity="1.0"><rect width="0.0159" height="0.1824" x="0.0316" y="-0.0055"/></g><g stroke-width="0" stroke="rgb(2%, 29%, 48%)" stroke-opacity="1.0" fill="rgb(42%, 44%, 14%)" fill-opacity="1.0"><rect width="0.0159" height="0.1782" x="0.0475" y="-0.0012"/></g><g stroke-width="0.0010" stroke="rgb(42%, 44%, 14%)" stroke-opacity="1.0" fill="rgb(42%, 44%, 14%)" fill-opacity="0.25"><rect width="0.0159" height="0.1584" x="0.0635" y="0.0186"/></g><g stroke-width="0" stroke="rgb(2%, 29%, 48%)" stroke-opacity="1.0" fill="rgb(54%, 0%, 0%)" fill-opacity="1.0"><rect width="0.0159" height="0.1777" x="0.0794" y="-0.0008"/></g><g stroke-width="0" stroke="rgb(2%, 29%, 48%)" stroke-opacity="1.0" fill="rgb(100%, 37%, 0%)" fill-opacity="1.0"><rect width="0.0159" height="0.1757" x="0.0953" y="0.0012"/></g><g stroke-width="0.0010" stroke="rgb(100%, 37%, 0%)" stroke-opacity="1.0" fill="rgb(100%, 37%, 0%)" fill-opacity="0.25"><rect width="0.0159" height="0.1554" x="0.1113" y="0.0215"/></g><g stroke-width="0" stroke="rgb(2%, 29%, 48%)" stroke-opacity="1.0" fill="rgb(0%, 38%, 61%)" fill-opacity="1.0"><rect width="0.0159" height="0.1749" x="0.1272" y="0.0020"/></g><g stroke-width="0" stroke="rgb(2%, 29%, 48%)" stroke-opacity="1.0" fill="rgb(0%, 49%, 30%)" fill-opacity="1.0"><rect width="0.0159" height="0.0402" x="0.1431" y="0.1368"/></g><g stroke-width="0.0010" stroke="rgb(0%, 49%, 30%)" stroke-opacity="1.0" fill="rgb(0%, 49%, 30%)" fill-opacity="0.25"><rect width="0.0159" height="0.0376" x="0.1591" y="0.1393"/></g><g stroke-width="0" stroke="rgb(2%, 29%, 48%)" stroke-opacity="1.0" fill="rgb(69%, 16%, 76%)" fill-opacity="1.0"><rect width="0.0159" height="0.2315" x="0.1750" y="-0.0546"/></g><g stroke-width="0.0010" stroke="rgb(69%, 16%, 76%)" stroke-opacity="1.0" fill="rgb(69%, 16%, 76%)" fill-opacity="0.25"><rect width="0.0159" height="0.2156" x="0.1909" y="-0.0387"/></g></g><g class="errors"><g stroke-width="0.0015" stroke="rgb(5%, 5%, 5%)" stroke-opacity="1.0" fill="none"><polyline points="-0.3762,-0.0006 -0.3730,-0.0006"/><polyline points="-0.3746,-0.0006 -0.3746,-0.0099"/><polyline points="-0.3762,-0.0099 -0.3730,-0.0099"/></g><g stroke-width="0.0015" stroke="rgb(5%, 5%, 5%)" stroke-opacity="1.0" fill="none"><polyline points="-0.3603,0.0301 -0.3571,0.0301"/><polyline points="-0.3587,0.0301 -0.3587,0.0176"/><polyline points="-0.3603,0.0176 -0.3571,0.0176"/></g><g stroke-width="0.0015" stroke="rgb(5%, 5%, 5%)" stroke-opacity="1.0" fill="none"><polyline points="-0.3444,-0.0014 -0.3412,-0.0014"/><polyline points="-0.3428,-0.0014 -0.3428,-0.0153"/><polyline points="-0.3444,-0.0153 -0.3412,-0.0153"/></g><g stroke-width="0.0015" stroke="rgb(5%, 5%, 5%)" stroke-opacity="1.0" fill="none"><polyline points="-0.3284,0.0319 -0.3252,0.0319"/><polyline points="-0.3268,0.0319 -0.3268,0.0259"/><polyline points="-0.3284,0.0259 -0.3252,0.0259"/></g><g stroke-width="0.0015" stroke="rgb(5%, 5%, 5%)" stroke-opacity="1.0" fill="none"><polyline points="-0.3125,0.0041 -0.3093,0.0041"/><polyline points="-0.3109,0.0041 -0.3109,-0.0030"/><polyline points="-0.3125,-0.0030 -0.3093,-0.0030"/></g><g stroke-width="0.0015" stroke="rgb(5%, 5%, 5%)" stroke-opacity="1.0" fill="none"><polyline points="-0.2966,0.0119 -0.2934,0.0119"/><polyline points="-0.2950,0.0119 -0.2950,-0.0033"/><polyline points="-0.2966,-0.0033 -0.2934,-0.0033"/></g><g stroke-width="0.0015" stroke="rgb(5%, 5%, 5%)" stroke-opacity="1.0" fill="none"><polyline points="-0.2806,0.0382 -0.2774,0.0382"/><polyline points="-0.2790,0.0382 -0.2790,0.0238"/><polyline points="-0.2806,0.0238 -0.2774,0.0238"/></g><g stroke-width="0.0015" stroke="rgb(5%, 5%, 5%)" stroke-opacity="1.0" fill="none"><polyline points="-0.2647,0.0116 -0.2615,0.0116"/><polyline points="-0.2631,0.0116 -0.2631,-0.0040"/><polyline points="-0.2647,-0.0040 -0.2615,-0.0040"/></g><g stroke-width="0.0015" stroke="rgb(5%, 5%, 5%)" stroke-opacity="1.0" fill="none"><polyline points="-0.2488,0.0036 -0.2456,0.0036"/><polyline points="-0.2472,0.0036 -0.2472,-0.0037"/><polyline points="-0.2488,-0.0037 -0.2456,-0.0037"/></g><g stroke-width="0.0015" stroke="rgb(5%, 5%, 5%)" stroke-opacity="1.0" fill="none"><polyline points="-0.2328,0.0343 -0.2297,0.0343"/><polyline points="-0.2312,0.0343 -0.2312,0.0225"/><polyline points="-0.2328,0.0225 -0.2297,0.0225"/></g><g stroke-width="0.0015" stroke="rgb(5%, 5%, 5%)" stroke-opacity="1.0" fill="none"><polyline points="-0.2169,0.0076 -0.2137,0.0076"/><polyline points="-0.2153,0.0076 -0.2153,-0.0059"/><polyline points="-0.2169,-0.0059 -0.2137,-0.0059"/></g><g stroke-width="0.0015" stroke="rgb(5%, 5%, 5%)" stroke-opacity="1.0" fill="none"><polyline points="-0.2010,0.0032 -0.1978,0.0032"/><polyline points="-0.1994,0.0032 -0.1994,-0.0081"/><polyline points="-0.2010,-0.0081 -0.1978,-0.0081"/></g><g stroke-width="0.0015" stroke="rgb(5%, 5%, 5%)" stroke-opacity="1.0" fill="none"><polyline points="-0.1850,0.0365 -0.1819,0.0365"/><polyline points="-0.1835,0.0365 -0.1835,0.0234"/><polyline points="-0.1850,0.0234 -0.1819,0.0234"/></g><g stroke-width="0.0015" stroke="rgb(5%, 5%, 5%)" stroke-opacity="1.0" fill="none"><polyline points="-0.1691,0.0045 -0.1659,0.0045"/><polyline points="-0.1675,0.0045 -0.1675,-0.0125"/><polyline points="-0.1691,-0.0125 -0.1659,-0.0125"/></g><g stroke-width="0.0015" stroke="rgb(5%, 5%, 5%)" stroke-opacity="1.0" fill="none"><polyline points="-0.1532,0.0242 -0.1500,0.0242"/><polyline points="-0.1516,0.0242 -0.1516,0.0190"/><polyline points="-0.1532,0.0190 -0.1500,0.0190"/></g><g stroke-width="0.0015" stroke="rgb(5%, 5%, 5%)" stroke-opacity="1.0" fill="none"><polyline points="-0.1373,-0.0064 -0.1341,-0.0064"/><polyline points="-0.1357,-0.0064 -0.1357,-0.0219"/><polyline points="-0.1373,-0.0219 -0.1341,-0.0219"/></g><g stroke-width="0.0015" stroke="rgb(5%, 5%, 5%)" stroke-opacity="1.0" fill="none"><polyline points="-0.1213,0.0083 -0.1181,0.0083"/><polyline points="-0.1197,0.0083 -0.1197,-0.0089"/><polyline points="-0.1213,-0.0089 -0.1181,-0.0089"/></g><g stroke-width="0.0015" stroke="rgb(5%, 5%, 5%)" stroke-opacity="1.0" fill="none"><polyline points="-0.1054,0.0272 -0.1022,0.0272"/><polyline points="-0.1038,0.0272 -0.1038,0.0138"/><polyline points="-0.1054,0.0138 -0.1022,0.0138"/></g><g stroke-width="0.0015" stroke="rgb(5%, 5%, 5%)" stroke-opacity="1.0" fill="none"><polyline points="-0.0895,0.0033 -0.0863,0.0033"/><polyline points="-0.0879,0.0033 -0.0879,-0.0058"/><polyline points="-0.0895,-0.0058 -0.0863,-0.0058"/></g><g stroke-width="0.0015" stroke="rgb(5%, 5%, 5%)" stroke-opacity="1.0" fill="none"><polyline points="-0.0735,0.0052 -0.0703,0.0052"/><polyline points="-0.0719,0.0052 -0.0719,-0.0125"/><polyline points="-0.0735,-0.0125 -0.0703,-0.0125"/></g><g stroke-width="0.0015" stroke="rgb(5%, 5%, 5%)" stroke-opacity="1.0" fill="none"><polyline points="-0.0576,0.0370 -0.0544,0.0370"/><polyline points="-0.0560,0.0370 -0.0560,0.0229"/><polyline points="-0.0576,0.0229 -0.0544,0.0229"/></g><g stroke-width="0.0015" stroke="rgb(5%, 5%, 5%)" stroke-opacity="1.0" fill="none"><polyline points="-0.0417,0.0087 -0.0385,0.0087"/><polyline points="-0.0401,0.0087 -0.0401,-0.0050"/><polyline points="-0.0417,-0.0050 -0.0385,-0.0050"/></g><g stroke-width="0.0015" stroke="rgb(5%, 5%, 5%)" stroke-opacity="1.0" fill="none"><polyline points="-0.0257,0.0064 -0.0226,0.0064"/><polyline points="-0.0241,0.0064 -0.0241,-0.0097"/><polyline points="-0.0257,-0.0097 -0.0226,-0.0097"/></g><g stroke-width="0.0015" stroke="rgb(5%, 5%, 5%)" stroke-opacity="1.0" fill="none"><polyline points="-0.0098,0.0338 -0.0066,0.0338"/><polyline points="-0.0082,0.0338 -0.0082,0.0248"/><polyline points="-0.0098,0.0248 -0.0066,0.0248"/></g><g stroke-width="0.0015" stroke="rgb(5%, 5%, 5%)" stroke-opacity="1.0" fill="none"><polyline points="0.0061,0.0028 0.0093,0.0028"/><polyline points="0.0077,0.0028 0.0077,-0.0115"/><polyline points="0.0061,-0.0115 0.0093,-0.0115"/></g><g stroke-width="0.0015" stroke="rgb(5%, 5%, 5%)" stroke-opacity="1.0" fill="none"><polyline points="0.0221,0.0347 0.0252,0.0347"/><polyline points="0.0236,0.0347 0.0236,0.0218"/><polyline points="0.0221,0.0218 0.0252,0.0218"/></g><g stroke-width="0.0015" stroke="rgb(5%, 5%, 5%)" stroke-opacity="1.0" fill="none"><polyline points="0.0380,0.0013 0.0412,0.0013"/><polyline points="0.0396,0.0013 0.0396,-0.0123"/><polyline points="0.0380,-0.0123 0.0412,-0.0123"/></g><g stroke-width="0.0015" stroke="rgb(5%, 5%, 5%)" stroke-opacity="1.0" fill="none"><polyline points="0.0539,0.0052 0.0571,0.0052"/><polyline points="0.0555,0.0052 0.0555,-0.0076"/><polyline points="0.0539,-0.0076 0.0571,-0.0076"/></g><g stroke-width="0.0015" stroke="rgb(5%, 5%, 5%)" stroke-opacity="1.0" fill="none"><polyline points="0.0698,0.0238 0.0730,0.0238"/><polyline points="0.0714,0.0238 0.0714,0.0133"/><polyline points="0.0698,0.0133 0.0730,0.0133"/></g><g stroke-width="0.0015" stroke="rgb(5%, 5%, 5%)" stroke-opacity="1.0" fill="none"><polyline points="0.0858,0.0059 0.0890,0.0059"/><polyline points="0.0874,0.0059 0.0874,-0.0075"/><polyline points="0.0858,-0.0075 0.0890,-0.0075"/></g><g stroke-width="0.0015" stroke="rgb(5%, 5%, 5%)" stroke-opacity="1.0" fill="none"><polyline points="0.1017,0.0086 0.1049,0.0086"/><polyline points="0.1033,0.0086 0.1033,-0.0062"/><polyline points="0.1017,-0.0062 0.1049,-0.0062"/></g><g stroke-width="0.0015" stroke="rgb(5%, 5%, 5%)" stroke-opacity="1.0" fill="none"><polyline points="0.1176,0.0257 0.1208,0.0257"/><polyline points="0.1192,0.0257 0.1192,0.0174"/><polyline points="0.1176,0.0174 0.1208,0.0174"/></g><g stroke-width="0.0015" stroke="rgb(5%, 5%, 5%)" stroke-opacity="1.0" fill="none"><polyline points="0.1336,0.0075 0.1368,0.0075"/><polyline points="0.1352,0.0075 0.1352,-0.0035"/><polyline points="0.1336,-0.0035 0.1368,-0.0035"/></g><g stroke-width="0.0015" stroke="rgb(5%, 5%, 5%)" stroke-opacity="1.0" fill="none"><polyline points="0.1495,0.1378 0.1527,0.1378"/><polyline points="0.1511,0.1378 0.1511,0.1357"/><polyline points="0.1495,0.1357 0.1527,0.1357"/></g><g stroke-width="0.0015" stroke="rgb(5%, 5%, 5%)" stroke-opacity="1.0" fill="none"><polyline points="0.1654,0.1409 0.1686,0.1409"/><polyline points="0.1670,0.1409 0.1670,0.1377"/><polyline points="0.1654,0.1377 0.1686,0.1377"/></g><g stroke-width="0.0015" stroke="rgb(5%, 5%, 5%)" stroke-opacity="1.0" fill="none"><polyline points="0.1814,-0.0478 0.1845,-0.0478"/><polyline points="0.1830,-0.0478 0.1830,-0.0614"/><polyline points="0.1814,-0.0614 0.1845,-0.0614"/></g><g stroke-width="0.0015" stroke="rgb(5%, 5%, 5%)" stroke-opacity="1.0" fill="none"><polyline points="0.1973,-0.0321 0.2005,-0.0321"/><polyline points="0.1989,-0.0321 0.1989,-0.0452"/><polyline points="0.1973,-0.0452 0.2005,-0.0452"/></g></g></g><g class="hud"><g class="axis"><g class="ticks"><g class="tickglyph"><g stroke-width="0.0040" stroke="rgb(5%, 5%, 5%)" stroke-opacity="0.4" fill="rgb(5%, 5%, 5%)" fill-opacity="0.4"><g transform="rotate(-90.0, -0.4275, 0.1769)"><polyline points="-0.4275,0.1919
-0.4275,0.1619"/></g><g transform="rotate(-90.0, -0.4275, 0.1464)"><polyline points="-0.4275,0.1614
-0.4275,0.1314"/></g><g transform="rotate(-90.0, -0.4275, 0.1159)"><polyline points="-0.4275,0.1309
-0.4275,0.1009"/></g><g transform="rotate(-90.0, -0.4275, 0.0853)"><polyline points="-0.4275,0.1003
-0.4275,0.0703"/></g><g transform="rotate(-90.0, -0.4275, 0.0548)"><polyline points="-0.4275,0.0698
-0.4275,0.0398"/></g><g transform="rotate(-90.0, -0.4275, 0.0243)"><polyline points="-0.4275,0.0393
-0.4275,0.0093"/></g><g transform="rotate(-90.0, -0.4275, -0.0063)"><polyline points="-0.4275,0.0087
-0.4275,-0.0213"/></g><g transform="rotate(-90.0, -0.4275, -0.0368)"><polyline points="-0.4275,-0.0218
-0.4275,-0.0518"/></g><g transform="rotate(-90.0, -0.4275, -0.0673)"><polyline points="-0.4275,-0.0523
-0.4275,-0.0823"/></g></g></g><g class="ticktext"><g stroke-width="0.0" stroke="none" fill="rgb(5%, 5%, 5%)" fill-opacity="1.0" font-size="0.0202" text-anchor="end"><text x="-0.4421" y="0.1803">0.0</text><text x="-0.4421" y="0.1497">0.2</text><text x="-0.4421" y="0.1192">0.4</text><text x="-0.4421" y="0.0887">0.6</text><text x="-0.4421" y="0.0582">0.8</text><text x="-0.4421" y="0.0276">1.0</text><text x="-0.4421" y="-0.0029">1.2</text><text x="-0.4421" y="-0.0334">1.4</text><text x="-0.4421" y="-0.0640">1.6</text></g></g><g class="ticklines"><g stroke-width="0.0050" stroke="rgb(5%, 5%, 5%)" stroke-opacity="0.05" fill="none"><polyline points="-0.4153,0.1769 0.2396,0.1769"/><polyline points="-0.4153,0.1464 0.2396,0.1464"/><polyline points="-0.4153,0.1159 0.2396,0.1159"/><polyline points="-0.4153,0.0853 0.2396,0.0853"/><polyline points="-0.4153,0.0548 0.2396,0.0548"/><polyline points="-0.4153,0.0243 0.2396,0.0243"/><polyline points="-0.4153,-0.0063 0.2396,-0.0063"/><polyline points="-0.4153,-0.0368 0.2396,-0.0368"/><polyline points="-0.4153,-0.0673 0.2396,-0.0673"/></g></g></g><g class="axisbar"><g stroke-width="0" stroke="rgb(0%, 0%, 0%)" stroke-opacity="0" fill="rgb(5%, 5%, 5%)" fill-opacity="0.4"><rect width="0.0016" height="0.2452" x="-0.4210" y="-0.0678"/></g></g></g><g class="axis"><g class="ticks"><g class="tickglyph"><g stroke-width="0.0040" stroke="rgb(5%, 5%, 5%)" stroke-opacity="0.4" fill="rgb(5%, 5%, 5%)" fill-opacity="0.4"><polyline points="-0.3746,0.1994
-0.3746,0.1694"/><polyline points="-0.3587,0.1994
-0.3587,0.1694"/><polyline points="-0.3428,0.1994
-0.3428,0.1694"/><polyline points="-0.3268,0.1994
-0.3268,0.1694"/><polyline points="-0.3109,0.1994
-0.3109,0.1694"/><polyline points="-0.2950,0.1994
-0.2950,0.1694"/><polyline points="-0.2790,0.1994
-0.2790,0.1694"/><polyline points="-0.2631,0.1994
-0.2631,0.1694"/><polyline points="-0.2472,0.1994
-0.2472,0.1694"/><polyline points="-0.2312,0.1994
-0.2312,0.1694"/><polyline points="-0.2153,0.1994
-0.2153,0.1694"/><polyline points="-0.1994,0.1994
-0.1994,0.1694"/><polyline points="-0.1835,0.1994
-0.1835,0.1694"/><polyline points="-0.1675,0.1994
-0.1675,0.1694"/><polyline points="-0.1516,0.1994
-0.1516,0.1694"/><polyline points="-0.1357,0.1994
-0.1357,0.1694"/><polyline points="-0.1197,0.1994
-0.1197,0.1694"/><polyline points="-0.1038,0.1994
-0.1038,0.1694"/><polyline points="-0.0879,0.1994
-0.0879,0.1694"/><polyline points="-0.0719,0.1994
-0.0719,0.1694"/><polyline points="-0.0560,0.1994
-0.0560,0.1694"/><polyline points="-0.0401,0.1994
-0.0401,0.1694"/><polyline points="-0.0241,0.1994
-0.0241,0.1694"/><polyline points="-0.0082,0.1994
-0.0082,0.1694"/><polyline points="0.0077,0.1994
0.0077,0.1694"/><polyline points="0.0236,0.1994
0.0236,0.1694"/><polyline points="0.0396,0.1994
0.0396,0.1694"/><polyline points="0.0555,0.1994
0.0555,0.1694"/><polyline points="0.0714,0.1994
0.0714,0.1694"/><polyline points="0.0874,0.1994
0.0874,0.1694"/><polyline points="0.1033,0.1994
0.1033,0.1694"/><polyline points="0.1192,0.1994
0.1192,0.1694"/><polyline points="0.1352,0.1994
0.1352,0.1694"/><polyline points="0.1511,0.1994
0.1511,0.1694"/><polyline points="0.1670,0.1994
0.1670,0.1694"/><polyline points="0.1830,0.1994
0.1830,0.1694"/><polyline points="0.1989,0.1994
0.1989,0.1694"/></g></g><g class="ticktext"><g stroke-width="0.0" stroke="none" fill="rgb(5%, 5%, 5%)" fill-opacity="1.0" font-size="0.0202" text-anchor="end"><text x="-0.3746" y="0.1999" transform="rotate(-45.0, -0.3746, 0.1999)">CDCL (adaptive)</text><text x="-0.3587" y="0.1999" transform="rotate(-45.0, -0.3587, 0.1999)">CDCL (adaptive), Baseline</text><text x="-0.3428" y="0.1999" transform="rotate(-45.0, -0.3428, 0.1999)">CDCL (adaptive, mVISDS, ExpRestart(100, 2))</text><text x="-0.3268" y="0.1999" transform="rotate(-45.0, -0.3268, 0.1999)">CDCL (adaptive, mVISDS, ExpRestart(100, 2)), Baseline</text><text x="-0.3109" y="0.1999" transform="rotate(-45.0, -0.3109, 0.1999)">CDCL (adaptive, mVISDS, ExpRestart(100, 2), Clause Decay 0.999)</text><text x="-0.2950" y="0.1999" transform="rotate(-45.0, -0.2950, 0.1999)">CDCL (adaptive, mVISDS, LubyRestart(100, 2))</text><text x="-0.2790" y="0.1999" transform="rotate(-45.0, -0.2790, 0.1999)">CDCL (adaptive, mVISDS, LubyRestart(100, 2)), Baseline</text><text x="-0.2631" y="0.1999" transform="rotate(-45.0, -0.2631, 0.1999)">CDCL (adaptive, mVISDS, LubyRestart(100, 2), Clause Decay)</text><text x="-0.2472" y="0.1999" transform="rotate(-45.0, -0.2472, 0.1999)">CDCL (adaptive, mVSIDS)</text><text x="-0.2312" y="0.1999" transform="rotate(-45.0, -0.2312, 0.1999)">CDCL (adaptive, mVSIDS), Baseline</text><text x="-0.2153" y="0.1999" transform="rotate(-45.0, -0.2153, 0.1999)">CDCL (adaptive, mVSIDS, Clause Decay 0.999)</text><text x="-0.1994" y="0.1999" transform="rotate(-45.0, -0.1994, 0.1999)">CDCL (α = 0.75)</text><text x="-0.1835" y="0.1999" transform="rotate(-45.0, -0.1835, 0.1999)">CDCL (α = 0.75), Baseline</text><text x="-0.1675" y="0.1999" transform="rotate(-45.0, -0.1675, 0.1999)">CDCL (α = 0.75, mVISDS)</text><text x="-0.1516" y="0.1999" transform="rotate(-45.0, -0.1516, 0.1999)">CDCL (α = 0.75, mVISDS), Baseline</text><text x="-0.1357" y="0.1999" transform="rotate(-45.0, -0.1357, 0.1999)">CDCL (α = 0.75, mVISDS, Clause Decay 0.999)</text><text x="-0.1197" y="0.1999" transform="rotate(-45.0, -0.1197, 0.1999)">CDCL (α = 0.75, mVISDS, ExpRestart(100, 2))</text><text x="-0.1038" y="0.1999" transform="rotate(-45.0, -0.1038, 0.1999)">CDCL (α = 0.75, mVISDS, ExpRestart(100, 2)), Baseline</text><text x="-0.0879" y="0.1999" transform="rotate(-45.0, -0.0879, 0.1999)">CDCL (α = 0.75, mVISDS, ExpRestart(100, 2), Clause Decay 0.999)</text><text x="-0.0719" y="0.1999" transform="rotate(-45.0, -0.0719, 0.1999)">CDCL (α = 0.75, mVISDS, LubyRestart(100, 2))</text><text x="-0.0560" y="0.1999" transform="rotate(-45.0, -0.0560, 0.1999)">CDCL (α = 0.75, mVISDS, LubyRestart(100, 2)), Baseline</text><text x="-0.0401" y="0.1999" transform="rotate(-45.0, -0.0401, 0.1999)">CDCL (α = 0.75, mVISDS, LubyRestart(100, 2), Clause Decay 0.999)</text><text x="-0.0241" y="0.1999" transform="rotate(-45.0, -0.0241, 0.1999)">CDCL (α = 0.95)</text><text x="-0.0082" y="0.1999" transform="rotate(-45.0, -0.0082, 0.1999)">CDCL (α = 0.95), Baseline</text><text x="0.0077" y="0.1999" transform="rotate(-45.0, 0.0077, 0.1999)">CDCL (α = 0.95, mVISDS)</text><text x="0.0236" y="0.1999" transform="rotate(-45.0, 0.0236, 0.1999)">CDCL (α = 0.95, mVISDS), Baseline</text><text x="0.0396" y="0.1999" transform="rotate(-45.0, 0.0396, 0.1999)">CDCL (α = 0.95, mVISDS, Clause Decay 0.999)</text><text x="0.0555" y="0.1999" transform="rotate(-45.0, 0.0555, 0.1999)">CDCL (α = 0.95, mVISDS, ExpRestart(100, 2))</text><text x="0.0714" y="0.1999" transform="rotate(-45.0, 0.0714, 0.1999)">CDCL (α = 0.95, mVISDS, ExpRestart(100, 2)), Baseline</text><text x="0.0874" y="0.1999" transform="rotate(-45.0, 0.0874, 0.1999)">CDCL (α = 0.95, mVISDS, ExpRestart(100, 2), Clause Decay 0.999)</text><text x="0.1033" y="0.1999" transform="rotate(-45.0, 0.1033, 0.1999)">CDCL (α = 0.95, mVISDS, LubyRestart(100, 2))</text><text x="0.1192" y="0.1999" transform="rotate(-45.0, 0.1192, 0.1999)">CDCL (α = 0.95, mVISDS, LubyRestart(100, 2)), Baseline</text><text x="0.1352" y="0.1999" transform="rotate(-45.0, 0.1352, 0.1999)">CDCL (α = 0.95, mVISDS, LubyRestart(100, 2), Clause Decay 0.999)</text><text x="0.1511" y="0.1999" transform="rotate(-45.0, 0.1511, 0.1999)">DPLL</text><text x="0.1670" y="0.1999" transform="rotate(-45.0, 0.1670, 0.1999)">DPLL, Baseline</text><text x="0.1830" y="0.1999" transform="rotate(-45.0, 0.1830, 0.1999)">tableaux</text><text x="0.1989" y="0.1999" transform="rotate(-45.0, 0.1989, 0.1999)">tableaux, Baseline</text></g></g></g><g class="axisbar"><g stroke-width="0" stroke="rgb(0%, 0%, 0%)" stroke-opacity="0" fill="rgb(5%, 5%, 5%)" fill-opacity="0.4"><rect width="0.6566" height="0.0010" x="-0.4161" y="0.1795"/></g></g></g><g class="title"><g stroke-width="0.0" stroke="none" fill="rgb(5%, 5%, 5%)" fill-opacity="1.0" font-size="0.0486" text-anchor="middle"><text x="-0.2437" y="-0.0923">Time: huge/8/cnf</text></g></g><g class="legend"><g class="legendBorder"><g stroke-width="0.0017" stroke="rgb(5%, 5%, 5%)" stroke-opacity="1.0" fill="rgb(5%, 5%, 5%)" fill-opacity="0"><rect width="0.4168" height="0.6379" x="0.3098" y="-0.4503"/></g></g><g class="legendContent"><g stroke-width="0.0" stroke="none" fill="rgb(5%, 5%, 5%)" fill-opacity="1.0" font-size="0.0128" text-anchor="start"><text x="0.3169" y="0.1788">tableaux, Baseline</text></g><g stroke-width="0.0002" stroke="rgb(69%, 16%, 76%)" stroke-opacity="1.0" fill="rgb(69%, 16%, 76%)" fill-opacity="0.25"><rect width="0.0213" height="0.0128" x="0.6983" y="0.1705"/></g><g stroke-width="0.0" stroke="none" fill="rgb(5%, 5%, 5%)" fill-opacity="1.0" font-size="0.0128" text-anchor="start"><text x="0.3169" y="0.1617">tableaux</text></g><g stroke-width="0" stroke="rgb(2%, 29%, 48%)" stroke-opacity="1.0" fill="rgb(69%, 16%, 76%)" fill-opacity="1.0"><rect width="0.0213" height="0.0128" x="0.6983" y="0.1534"/></g><g stroke-width="0.0" stroke="none" fill="rgb(5%, 5%, 5%)" fill-opacity="1.0" font-size="0.0128" text-anchor="start"><text x="0.3169" y="0.1446">DPLL, Baseline</text></g><g stroke-width="0.0002" stroke="rgb(0%, 49%, 30%)" stroke-opacity="1.0" fill="rgb(0%, 49%, 30%)" fill-opacity="0.25"><rect width="0.0213" height="0.0128" x="0.6983" y="0.1363"/></g><g stroke-width="0.0" stroke="none" fill="rgb(5%, 5%, 5%)" fill-opacity="1.0" font-size="0.0128" text-anchor="start"><text x="0.3169" y="0.1274">DPLL</text></g><g stroke-width="0" stroke="rgb(2%, 29%, 48%)" stroke-opacity="1.0" fill="rgb(0%, 49%, 30%)" fill-opacity="1.0"><rect width="0.0213" height="0.0128" x="0.6983" y="0.1191"/></g><g stroke-width="0.0" stroke="none" fill="rgb(5%, 5%, 5%)" fill-opacity="1.0" font-size="0.0128" text-anchor="start"><text x="0.3169" y="0.1103">CDCL (α = 0.95, mVISDS, LubyRestart(100, 2), Clause Decay 0.999)</text></g><g stroke-width="0" stroke="rgb(2%, 29%, 48%)" stroke-opacity="1.0" fill="rgb(0%, 38%, 61%)" fill-opacity="1.0"><rect width="0.0213" height="0.0128" x="0.6983" y="0.1020"/></g><g stroke-width="0.0" stroke="none" fill="rgb(5%, 5%, 5%)" fill-opacity="1.0" font-size="0.0128" text-anchor="start"><text x="0.3169" y="0.0932">CDCL (α = 0.95, mVISDS, LubyRestart(100, 2)), Baseline</text></g><g stroke-width="0.0002" stroke="rgb(100%, 37%, 0%)" stroke-opacity="1.0" fill="rgb(100%, 37%, 0%)" fill-opacity="0.25"><rect width="0.0213" height="0.0128" x="0.6983" y="0.0849"/></g><g stroke-width="0.0" stroke="none" fill="rgb(5%, 5%, 5%)" fill-opacity="1.0" font-size="0.0128" text-anchor="start"><text x="0.3169" y="0.0761">CDCL (α = 0.95, mVISDS, LubyRestart(100, 2))</text></g><g stroke-width="0" stroke="rgb(2%, 29%, 48%)" stroke-opacity="1.0" fill="rgb(100%, 37%, 0%)" fill-opacity="1.0"><rect width="0.0213" height="0.0128" x="0.6983" y="0.0677"/></g><g stroke-width="0.0" stroke="none" fill="rgb(5%, 5%, 5%)" fill-opacity="1.0" font-size="0.0128" text-anchor="start"><text x="0.3169" y="0.0590">CDCL (α = 0.95, mVISDS, ExpRestart(100, 2), Clause Decay 0.999)</text></g><g stroke-width="0" stroke="rgb(2%, 29%, 48%)" stroke-opacity="1.0" fill="rgb(54%, 0%, 0%)" fill-opacity="1.0"><rect width="0.0213" height="0.0128" x="0.6983" y="0.0506"/></g><g stroke-width="0.0" stroke="none" fill="rgb(5%, 5%, 5%)" fill-opacity="1.0" font-size="0.0128" text-anchor="start"><text x="0.3169" y="0.0418">CDCL (α = 0.95, mVISDS, ExpRestart(100, 2)), Baseline</text></g><g stroke-width="0.0002" stroke="rgb(42%, 44%, 14%)" stroke-opacity="1.0" fill="rgb(42%, 44%, 14%)" fill-opacity="0.25"><rect width="0.0213" height="0.0128" x="0.6983" y="0.0335"/></g><g stroke-width="0.0" stroke="none" fill="rgb(5%, 5%, 5%)" fill-opacity="1.0" font-size="0.0128" text-anchor="start"><text x="0.3169" y="0.0247">CDCL (α = 0.95, mVISDS, ExpRestart(100, 2))</text></g><g stroke-width="0" stroke="rgb(2%, 29%, 48%)" stroke-opacity="1.0" fill="rgb(42%, 44%, 14%)" fill-opacity="1.0"><rect width="0.0213" height="0.0128" x="0.6983" y="0.0164"/></g><g stroke-width="0.0" stroke="none" fill="rgb(5%, 5%, 5%)" fill-opacity="1.0" font-size="0.0128" text-anchor="start"><text x="0.3169" y="0.0076">CDCL (α = 0.95, mVISDS, Clause Decay 0.999)</text></g><g stroke-width="0" stroke="rgb(2%, 29%, 48%)" stroke-opacity="1.0" fill="rgb(18%, 22%, 10%)" fill-opacity="1.0"><rect width="0.0213" height="0.0128" x="0.6983" y="-0.0008"/></g><g stroke-width="0.0" stroke="none" fill="rgb(5%, 5%, 5%)" fill-opacity="1.0" font-size="0.0128" text-anchor="start"><text x="0.3169" y="-0.0095">CDCL (α = 0.95, mVISDS), Baseline</text></g><g stroke-width="0.0002" stroke="rgb(0%, 42%, 48%)" stroke-opacity="1.0" fill="rgb(0%, 42%, 48%)" fill-opacity="0.25"><rect width="0.0213" height="0.0128" x="0.6983" y="-0.0179"/></g><g stroke-width="0.0" stroke="none" fill="rgb(5%, 5%, 5%)" fill-opacity="1.0" font-size="0.0128" text-anchor="start"><text x="0.3169" y="-0.0267">CDCL (α = 0.95, mVISDS)</text></g><g stroke-width="0" stroke="rgb(2%, 29%, 48%)" stroke-opacity="1.0" fill="rgb(0%, 42%, 48%)" fill-opacity="1.0"><rect width="0.0213" height="0.0128" x="0.6983" y="-0.0350"/></g><g stroke-width="0.0" stroke="none" fill="rgb(5%, 5%, 5%)" fill-opacity="1.0" font-size="0.0128" text-anchor="start"><text x="0.3169" y="-0.0438">CDCL (α = 0.95), Baseline</text></g><g stroke-width="0.0002" stroke="rgb(69%, 17%, 0%)" stroke-opacity="1.0" fill="rgb(69%, 17%, 0%)" fill-opacity="0.25"><rect width="0.0213" height="0.0128" x="0.6983" y="-0.0521"/></g><g stroke-width="0.0" stroke="none" fill="rgb(5%, 5%, 5%)" fill-opacity="1.0" font-size="0.0128" text-anchor="start"><text x="0.3169" y="-0.0609">CDCL (α = 0.95)</text></g><g stroke-width="0" stroke="rgb(2%, 29%, 48%)" stroke-opacity="1.0" fill="rgb(69%, 17%, 0%)" fill-opacity="1.0"><rect width="0.0213" height="0.0128" x="0.6983" y="-0.0693"/></g><g stroke-width="0.0" stroke="none" fill="rgb(5%, 5%, 5%)" fill-opacity="1.0" font-size="0.0128" text-anchor="start"><text x="0.3169" y="-0.0780">CDCL (α = 0.75, mVISDS, LubyRestart(100, 2), Clause Decay 0.999)</text></g><g stroke-width="0" stroke="rgb(2%, 29%, 48%)" stroke-opacity="1.0" fill="rgb(53%, 24%, 0%)" fill-opacity="1.0"><rect width="0.0213" height="0.0128" x="0.6983" y="-0.0864"/></g><g stroke-width="0.0" stroke="none" fill="rgb(5%, 5%, 5%)" fill-opacity="1.0" font-size="0.0128" text-anchor="start"><text x="0.3169" y="-0.0952">CDCL (α = 0.75, mVISDS, LubyRestart(100, 2)), Baseline</text></g><g stroke-width="0.0002" stroke="rgb(57%, 62%, 78%)" stroke-opacity="1.0" fill="rgb(57%, 62%, 78%)" fill-opacity="0.25"><rect width="0.0213" height="0.0128" x="0.6983" y="-0.1035"/></g><g stroke-width="0.0" stroke="none" fill="rgb(5%, 5%, 5%)" fill-opacity="1.0" font-size="0.0128" text-anchor="start"><text x="0.3169" y="-0.1123">CDCL (α = 0.75, mVISDS, LubyRestart(100, 2))</text></g><g stroke-width="0" stroke="rgb(2%, 29%, 48%)" stroke-opacity="1.0" fill="rgb(57%, 62%, 78%)" fill-opacity="1.0"><rect width="0.0213" height="0.0128" x="0.6983" y="-0.1206"/></g><g stroke-width="0.0" stroke="none" fill="rgb(5%, 5%, 5%)" fill-opacity="1.0" font-size="0.0128" text-anchor="start"><text x="0.3169" y="-0.1294">CDCL (α = 0.75, mVISDS, ExpRestart(100, 2), Clause Decay 0.999)</text></g><g stroke-width="0" stroke="rgb(2%, 29%, 48%)" stroke-opacity="1.0" fill="rgb(98%, 15%, 25%)" fill-opacity="1.0"><rect width="0.0213" height="0.0128" x="0.6983" y="-0.1378"/></g><g stroke-width="0.0" stroke="none" fill="rgb(5%, 5%, 5%)" fill-opacity="1.0" font-size="0.0128" text-anchor="start"><text x="0.3169" y="-0.1465">CDCL (α = 0.75, mVISDS, ExpRestart(100, 2)), Baseline</text></g><g stroke-width="0.0002" stroke="rgb(0%, 72%, 67%)" stroke-opacity="1.0" fill="rgb(0%, 72%, 67%)" fill-opacity="0.25"><rect width="0.0213" height="0.0128" x="0.6983" y="-0.1549"/></g><g stroke-width="0.0" stroke="none" fill="rgb(5%, 5%, 5%)" fill-opacity="1.0" font-size="0.0128" text-anchor="start"><text x="0.3169" y="-0.1637">CDCL (α = 0.75, mVISDS, ExpRestart(100, 2))</text></g><g stroke-width="0" stroke="rgb(2%, 29%, 48%)" stroke-opacity="1.0" fill="rgb(0%, 72%, 67%)" fill-opacity="1.0"><rect width="0.0213" height="0.0128" x="0.6983" y="-0.1720"/></g><g stroke-width="0.0" stroke="none" fill="rgb(5%, 5%, 5%)" fill-opacity="1.0" font-size="0.0128" text-anchor="start"><text x="0.3169" y="-0.1808">CDCL (α = 0.75, mVISDS, Clause Decay 0.999)</text></g><g stroke-width="0" stroke="rgb(2%, 29%, 48%)" stroke-opacity="1.0" fill="rgb(35%, 24%, 0%)" fill-opacity="1.0"><rect width="0.0213" height="0.0128" x="0.6983" y="-0.1891"/></g><g stroke-width="0.0" stroke="none" fill="rgb(5%, 5%, 5%)" fill-opacity="1.0" font-size="0.0128" text-anchor="start"><text x="0.3169" y="-0.1979">CDCL (α = 0.75, mVISDS), Baseline</text></g><g stroke-width="0.0002" stroke="rgb(48%, 65%, 0%)" stroke-opacity="1.0" fill="rgb(48%, 65%, 0%)" fill-opacity="0.25"><rect width="0.0213" height="0.0128" x="0.6983" y="-0.2062"/></g><g stroke-width="0.0" stroke="none" fill="rgb(5%, 5%, 5%)" fill-opacity="1.0" font-size="0.0128" text-anchor="start"><text x="0.3169" y="-0.2151">CDCL (α = 0.75, mVISDS)</text></g><g stroke-width="0" stroke="rgb(2%, 29%, 48%)" stroke-opacity="1.0" fill="rgb(48%, 65%, 0%)" fill-opacity="1.0"><rect width="0.0213" height="0.0128" x="0.6983" y="-0.2234"/></g><g stroke-width="0.0" stroke="none" fill="rgb(5%, 5%, 5%)" fill-opacity="1.0" font-size="0.0128" text-anchor="start"><text x="0.3169" y="-0.2322">CDCL (α = 0.75), Baseline</text></g><g stroke-width="0.0002" stroke="rgb(20%, 15%, 40%)" stroke-opacity="1.0" fill="rgb(20%, 15%, 40%)" fill-opacity="0.25"><rect width="0.0213" height="0.0128" x="0.6983" y="-0.2405"/></g><g stroke-width="0.0" stroke="none" fill="rgb(5%, 5%, 5%)" fill-opacity="1.0" font-size="0.0128" text-anchor="start"><text x="0.3169" y="-0.2493">CDCL (α = 0.75)</text></g><g stroke-width="0" stroke="rgb(2%, 29%, 48%)" stroke-opacity="1.0" fill="rgb(20%, 15%, 40%)" fill-opacity="1.0"><rect width="0.0213" height="0.0128" x="0.6983" y="-0.2576"/></g><g stroke-width="0.0" stroke="none" fill="rgb(5%, 5%, 5%)" fill-opacity="1.0" font-size="0.0128" text-anchor="start"><text x="0.3169" y="-0.2664">CDCL (adaptive, mVSIDS, Clause Decay 0.999)</text></g><g stroke-width="0" stroke="rgb(2%, 29%, 48%)" stroke-opacity="1.0" fill="rgb(37%, 17%, 0%)" fill-opacity="1.0"><rect width="0.0213" height="0.0128" x="0.6983" y="-0.2748"/></g><g stroke-width="0.0" stroke="none" fill="rgb(5%, 5%, 5%)" fill-opacity="1.0" font-size="0.0128" text-anchor="start"><text x="0.3169" y="-0.2835">CDCL (adaptive, mVSIDS), Baseline</text></g><g stroke-width="0.0002" stroke="rgb(72%, 66%, 0%)" stroke-opacity="1.0" fill="rgb(72%, 66%, 0%)" fill-opacity="0.25"><rect width="0.0213" height="0.0128" x="0.6983" y="-0.2919"/></g><g stroke-width="0.0" stroke="none" fill="rgb(5%, 5%, 5%)" fill-opacity="1.0" font-size="0.0128" text-anchor="start"><text x="0.3169" y="-0.3007">CDCL (adaptive, mVSIDS)</text></g><g stroke-width="0" stroke="rgb(2%, 29%, 48%)" stroke-opacity="1.0" fill="rgb(72%, 66%, 0%)" fill-opacity="1.0"><rect width="0.0213" height="0.0128" x="0.6983" y="-0.3090"/></g><g stroke-width="0.0" stroke="none" fill="rgb(5%, 5%, 5%)" fill-opacity="1.0" font-size="0.0128" text-anchor="start"><text x="0.3169" y="-0.3178">CDCL (adaptive, mVISDS, LubyRestart(100, 2), Clause Decay)</text></g><g stroke-width="0" stroke="rgb(2%, 29%, 48%)" stroke-opacity="1.0" fill="rgb(0%, 21%, 55%)" fill-opacity="1.0"><rect width="0.0213" height="0.0128" x="0.6983" y="-0.3261"/></g><g stroke-width="0.0" stroke="none" fill="rgb(5%, 5%, 5%)" fill-opacity="1.0" font-size="0.0128" text-anchor="start"><text x="0.3169" y="-0.3349">CDCL (adaptive, mVISDS, LubyRestart(100, 2)), Baseline</text></g><g stroke-width="0.0002" stroke="rgb(0%, 36%, 0%)" stroke-opacity="1.0" fill="rgb(0%, 36%, 0%)" fill-opacity="0.25"><rect width="0.0213" height="0.0128" x="0.6983" y="-0.3433"/></g><g stroke-width="0.0" stroke="none" fill="rgb(5%, 5%, 5%)" fill-opacity="1.0" font-size="0.0128" text-anchor="start"><text x="0.3169" y="-0.3521">CDCL (adaptive, mVISDS, LubyRestart(100, 2))</text></g><g stroke-width="0" stroke="rgb(2%, 29%, 48%)" stroke-opacity="1.0" fill="rgb(0%, 36%, 0%)" fill-opacity="1.0"><rect width="0.0213" height="0.0128" x="0.6983" y="-0.3604"/></g><g stroke-width="0.0" stroke="none" fill="rgb(5%, 5%, 5%)" fill-opacity="1.0" font-size="0.0128" text-anchor="start"><text x="0.3169" y="-0.3692">CDCL (adaptive, mVISDS, ExpRestart(100, 2), Clause Decay 0.999)</text></g><g stroke-width="0" stroke="rgb(2%, 29%, 48%)" stroke-opacity="1.0" fill="rgb(70%, 21%, 0%)" fill-opacity="1.0"><rect width="0.0213" height="0.0128" x="0.6983" y="-0.3775"/></g><g stroke-width="0.0" stroke="none" fill="rgb(5%, 5%, 5%)" fill-opacity="1.0" font-size="0.0128" text-anchor="start"><text x="0.3169" y="-0.3863">CDCL (adaptive, mVISDS, ExpRestart(100, 2)), Baseline</text></g><g stroke-width="0.0002" stroke="rgb(47%, 34%, 0%)" stroke-opacity="1.0" fill="rgb(47%, 34%, 0%)" fill-opacity="0.25"><rect width="0.0213" height="0.0128" x="0.6983" y="-0.3946"/></g><g stroke-width="0.0" stroke="none" fill="rgb(5%, 5%, 5%)" fill-opacity="1.0" font-size="0.0128" text-anchor="start"><text x="0.3169" y="-0.4034">CDCL (adaptive, mVISDS, ExpRestart(100, 2))</text></g><g stroke-width="0" stroke="rgb(2%, 29%, 48%)" stroke-opacity="1.0" fill="rgb(47%, 34%, 0%)" fill-opacity="1.0"><rect width="0.0213" height="0.0128" x="0.6983" y="-0.4118"/></g><g stroke-width="0.0" stroke="none" fill="rgb(5%, 5%, 5%)" fill-opacity="1.0" font-size="0.0128" text-anchor="start"><text x="0.3169" y="-0.4206">CDCL (adaptive), Baseline</text></g><g stroke-width="0.0002" stroke="rgb(57%, 0%, 21%)" stroke-opacity="1.0" fill="rgb(57%, 0%, 21%)" fill-opacity="0.25"><rect width="0.0213" height="0.0128" x="0.6983" y="-0.4289"/></g><g stroke-width="0.0" stroke="none" fill="rgb(5%, 5%, 5%)" fill-opacity="1.0" font-size="0.0128" text-anchor="start"><text x="0.3169" y="-0.4377">CDCL (adaptive)</text></g><g stroke-width="0" stroke="rgb(2%, 29%, 48%)" stroke-opacity="1.0" fill="rgb(57%, 0%, 21%)" fill-opacity="1.0"><rect width="0.0213" height="0.0128" x="0.6983" y="-0.4460"/></g></g></g><g class="frame"><g stroke-width="0" stroke="rgb(0%, 0%, 0%)" stroke-opacity="0" fill="rgb(100%, 100%, 100%)" fill-opacity="0.02"><rect width="1.6180" height="1.0" x="-0.8090" y="-0.5"/></g></g><g class="title"><g stroke-width="0.0" stroke="none" fill="rgb(5%, 5%, 5%)" fill-opacity="1.0" font-size="0.0243" text-anchor="middle"><text x="-0.7515" y="0" transform="rotate(-90.0, -0.7515, 0)">Time [ms]</text></g></g></g></svg>