<svg xmlns="http://www.w3.org/2000/svg" xmlns:xlink="http://www.w3.org/1999/xlink" width="485" height="300" viewBox="-0.8090 -0.5 1.6180 1.0"><style>svg {
  color-scheme: light dark;
}
{
  .canvas g, .title g, .axisbar g, .ticktext g, .tickglyph g, .ticklines g, .legendContent g text {
    fill: rgb(5%, 5%, 5%);
  }
  .ticklines g, .tickglyph g, .legendBorder g {
    stroke: rgb(5%, 5%, 5%);
  }
  .legendBorder g {
    fill: rgb(94%, 94%, 94%);
  }
}
@media (prefers-color-scheme:dark) {
  .canvas g, .title g, .axisbar g, .ticktext g, .tickglyph g, .ticklines g, .legendContent g text {
    fill: rgb(94%, 94%, 94%);
  }
  .ticklines g, .tickglyph g, .legendBorder g {
    stroke: rgb(94%, 94%, 94%);
  }
  .legendBorder g {
    fill: rgb(5%, 5%, 5%);
  }
}</style><g class="chart"><g class="barchart"><g stroke-width="0" stroke="rgb(2%, 29%, 48%)" stroke-opacity="1.0" fill="rgb(0%, 30%, 12%)" fill-opacity="1.0"><rect width="0.0526" height="0.0179" x="-0.4413" y="0.0641"/></g><g stroke-width="0" stroke="rgb(2%, 29%, 48%)" stroke-opacity="1.0" fill="rgb(0%, 25%, 37%)" fill-opacity="1.0"><rect width="0.0526" height="0.0175" x="-0.3887" y="0.0645"/></g><g stroke-width="0" stroke="rgb(2%, 29%, 48%)" stroke-opacity="1.0" fill="rgb(26%, 54%, 57%)" fill-opacity="1.0"><rect width="0.0526" height="0.0175" x="-0.3360" y="0.0645"/></g><g stroke-width="0" stroke="rgb(2%, 29%, 48%)" stroke-opacity="1.0" fill="rgb(1%, 28%, 43%)" fill-opacity="1.0"><rect width="0.0526" height="0.0167" x="-0.2834" y="0.0653"/></g><g stroke-width="0" stroke="rgb(2%, 29%, 48%)" stroke-opacity="1.0" fill="rgb(0%, 72%, 98%)" fill-opacity="1.0"><rect width="0.0526" height="0.0219" x="-0.2307" y="0.0602"/></g><g stroke-width="0" stroke="rgb(2%, 29%, 48%)" stroke-opacity="1.0" fill="rgb(90%, 37%, 58%)" fill-opacity="1.0"><rect width="0.0526" height="0.0244" x="-0.1781" y="0.0576"/></g><g stroke-width="0" stroke="rgb(2%, 29%, 48%)" stroke-opacity="1.0" fill="rgb(38%, 23%, 0%)" fill-opacity="1.0"><rect width="0.0526" height="0.0610" x="-0.1254" y="0.0210"/></g><g stroke-width="0" stroke="rgb(2%, 29%, 48%)" stroke-opacity="1.0" fill="rgb(91%, 19%, 0%)" fill-opacity="1.0"><rect width="0.0526" height="0.0609" x="-0.0728" y="0.0211"/></g><g stroke-width="0" stroke="rgb(2%, 29%, 48%)" stroke-opacity="1.0" fill="rgb(0%, 64%, 70%)" fill-opacity="1.0"><rect width="0.0526" height="0.0475" x="-0.0201" y="0.0345"/></g><g stroke-width="0" stroke="rgb(2%, 29%, 48%)" stroke-opacity="1.0" fill="rgb(91%, 47%, 0%)" fill-opacity="1.0"><rect width="0.0526" height="0.0173" x="0.0325" y="0.0647"/></g><g stroke-width="0" stroke="rgb(2%, 29%, 48%)" stroke-opacity="1.0" fill="rgb(62%, 0%, 31%)" fill-opacity="1.0"><rect width="0.0526" height="0.0177" x="0.0852" y="0.0643"/></g><g stroke-width="0" stroke="rgb(2%, 29%, 48%)" stroke-opacity="1.0" fill="rgb(17%, 40%, 67%)" fill-opacity="1.0"><rect width="0.0526" height="0.0171" x="0.1378" y="0.0650"/></g><g stroke-width="0" stroke="rgb(2%, 29%, 48%)" stroke-opacity="1.0" fill="rgb(0%, 52%, 40%)" fill-opacity="1.0"><rect width="0.0526" height="0.3942" x="0.1905" y="-0.3121"/></g></g><g class="errors"></g></g><g class="hud"><g class="axis"><g class="ticks"><g class="tickglyph"><g stroke-width="0.0040" stroke="rgb(5%, 5%, 5%)" stroke-opacity="0.4" fill="rgb(5%, 5%, 5%)" fill-opacity="0.4"><g transform="rotate(-90.0, -0.4934, 0.0820)"><polyline points="-0.4934,0.0970
-0.4934,0.0670"/></g><g transform="rotate(-90.0, -0.4934, 0.0300)"><polyline points="-0.4934,0.0450
-0.4934,0.0150"/></g><g transform="rotate(-90.0, -0.4934, -0.0220)"><polyline points="-0.4934,-0.0070
-0.4934,-0.0370"/></g><g transform="rotate(-90.0, -0.4934, -0.0741)"><polyline points="-0.4934,-0.0591
-0.4934,-0.0891"/></g><g transform="rotate(-90.0, -0.4934, -0.1261)"><polyline points="-0.4934,-0.1111
-0.4934,-0.1411"/></g><g transform="rotate(-90.0, -0.4934, -0.1781)"><polyline points="-0.4934,-0.1631
-0.4934,-0.1931"/></g><g transform="rotate(-90.0, -0.4934, -0.2302)"><polyline points="-0.4934,-0.2152
-0.4934,-0.2452"/></g><g transform="rotate(-90.0, -0.4934, -0.2822)"><polyline points="-0.4934,-0.2672
-0.4934,-0.2972"/></g><g transform="rotate(-90.0, -0.4934, -0.3342)"><polyline points="-0.4934,-0.3192
-0.4934,-0.3492"/></g></g></g><g class="ticktext"><g stroke-width="0.0" stroke="none" fill="rgb(5%, 5%, 5%)" fill-opacity="1.0" font-size="0.0235" text-anchor="end"><text x="-0.5103" y="0.0877"> 0</text><text x="-0.5103" y="0.0357"> 2</text><text x="-0.5103" y="-0.0163"> 4</text><text x="-0.5103" y="-0.0683"> 6</text><text x="-0.5103" y="-0.1204"> 8</text><text x="-0.5103" y="-0.1724">10</text><text x="-0.5103" y="-0.2244">12</text><text x="-0.5103" y="-0.2765">14</text><text x="-0.5103" y="-0.3285">16</text></g></g><g class="ticklines"><g stroke-width="0.0050" stroke="rgb(5%, 5%, 5%)" stroke-opacity="0.05" fill="none"><polyline points="-0.4793,0.0820 0.2811,0.0820"/><polyline points="-0.4793,0.0300 0.2811,0.0300"/><polyline points="-0.4793,-0.0220 0.2811,-0.0220"/><polyline points="-0.4793,-0.0741 0.2811,-0.0741"/><polyline points="-0.4793,-0.1261 0.2811,-0.1261"/><polyline points="-0.4793,-0.1781 0.2811,-0.1781"/><polyline points="-0.4793,-0.2302 0.2811,-0.2302"/><polyline points="-0.4793,-0.2822 0.2811,-0.2822"/><polyline points="-0.4793,-0.3342 0.2811,-0.3342"/></g></g></g><g class="axisbar"><g stroke-width="0" stroke="rgb(0%, 0%, 0%)" stroke-opacity="0" fill="rgb(5%, 5%, 5%)" fill-opacity="0.4"><rect width="0.0019" height="0.4179" x="-0.4859" y="-0.3351"/></g></g></g><g class="axis"><g class="ticks"><g class="tickglyph"><g stroke-width="0.0040" stroke="rgb(5%, 5%, 5%)" stroke-opacity="0.4" fill="rgb(5%, 5%, 5%)" fill-opacity="0.4"><polyline points="-0.4150,0.1095
-0.4150,0.0795"/><polyline points="-0.3623,0.1095
-0.3623,0.0795"/><polyline points="-0.3097,0.1095
-0.3097,0.0795"/><polyline points="-0.2570,0.1095
-0.2570,0.0795"/><polyline points="-0.2044,0.1095
-0.2044,0.0795"/><polyline points="-0.1517,0.1095
-0.1517,0.0795"/><polyline points="-0.0991,0.1095
-0.0991,0.0795"/><polyline points="-0.0465,0.1095
-0.0465,0.0795"/><polyline points="0.0062,0.1095
0.0062,0.0795"/><polyline points="0.0588,0.1095
0.0588,0.0795"/><polyline points="0.1115,0.1095
0.1115,0.0795"/><polyline points="0.1641,0.1095
0.1641,0.0795"/><polyline points="0.2168,0.1095
0.2168,0.0795"/></g></g><g class="ticktext"><g stroke-width="0.0" stroke="none" fill="rgb(5%, 5%, 5%)" fill-opacity="1.0" font-size="0.0235" text-anchor="end"><text x="-0.4150" y="0.1209" transform="rotate(-45.0, -0.4150, 0.1209)">CDCL (adaptive)</text><text x="-0.3623" y="0.1209" transform="rotate(-45.0, -0.3623, 0.1209)">CDCL (adaptive, mVISDS, ExpRestart(100, 2))</text><text x="-0.3097" y="0.1209" transform="rotate(-45.0, -0.3097, 0.1209)">CDCL (adaptive, mVISDS, LubyRestart(100, 2))</text><text x="-0.2570" y="0.1209" transform="rotate(-45.0, -0.2570, 0.1209)">CDCL (adaptive, mVSIDS)</text><text x="-0.2044" y="0.1209" transform="rotate(-45.0, -0.2044, 0.1209)">CDCL (α = 0.75)</text><text x="-0.1517" y="0.1209" transform="rotate(-45.0, -0.1517, 0.1209)">CDCL (α = 0.75, mVISDS)</text><text x="-0.0991" y="0.1209" transform="rotate(-45.0, -0.0991, 0.1209)">CDCL (α = 0.75, mVISDS, ExpRestart(100, 2))</text><text x="-0.0465" y="0.1209" transform="rotate(-45.0, -0.0465, 0.1209)">CDCL (α = 0.75, mVISDS, LubyRestart(100, 2))</text><text x="0.0062" y="0.1209" transform="rotate(-45.0, 0.0062, 0.1209)">CDCL (α = 0.95)</text><text x="0.0588" y="0.1209" transform="rotate(-45.0, 0.0588, 0.1209)">CDCL (α = 0.95, mVISDS)</text><text x="0.1115" y="0.1209" transform="rotate(-45.0, 0.1115, 0.1209)">CDCL (α = 0.95, mVISDS, ExpRestart(100, 2))</text><text x="0.1641" y="0.1209" transform="rotate(-45.0, 0.1641, 0.1209)">CDCL (α = 0.95, mVISDS, LubyRestart(100, 2))</text><text x="0.2168" y="0.1209" transform="rotate(-45.0, 0.2168, 0.1209)">DPLL</text></g></g></g><g class="axisbar"><g stroke-width="0" stroke="rgb(0%, 0%, 0%)" stroke-opacity="0" fill="rgb(5%, 5%, 5%)" fill-opacity="0.4"><rect width="0.7623" height="0.0017" x="-0.4803" y="0.0862"/></g></g></g><g class="title"><g stroke-width="0.0" stroke="none" fill="rgb(5%, 5%, 5%)" fill-opacity="1.0" font-size="0.0564" text-anchor="middle"><text x="-0.2074" y="-0.3768">Copied: SATLIB/uf100-430/uf100-01000/cnf</text></g></g><g class="legend"><g class="legendBorder"><g stroke-width="0.0017" stroke="rgb(5%, 5%, 5%)" stroke-opacity="1.0" fill="rgb(5%, 5%, 5%)" fill-opacity="0"><rect width="0.3507" height="0.3861" x="0.3627" y="-0.2858"/></g></g><g class="legendContent"><g stroke-width="0.0" stroke="none" fill="rgb(5%, 5%, 5%)" fill-opacity="1.0" font-size="0.0148" text-anchor="start"><text x="0.3709" y="0.0853">DPLL</text></g><g stroke-width="0" stroke="rgb(2%, 29%, 48%)" stroke-opacity="1.0" fill="rgb(0%, 52%, 40%)" fill-opacity="1.0"><rect width="0.0247" height="0.0219" x="0.6805" y="0.0711"/></g><g stroke-width="0.0" stroke="none" fill="rgb(5%, 5%, 5%)" fill-opacity="1.0" font-size="0.0148" text-anchor="start"><text x="0.3709" y="0.0562">CDCL (α = 0.95, mVISDS, LubyRestart(100, 2))</text></g><g stroke-width="0" stroke="rgb(2%, 29%, 48%)" stroke-opacity="1.0" fill="rgb(17%, 40%, 67%)" fill-opacity="1.0"><rect width="0.0247" height="0.0219" x="0.6805" y="0.0420"/></g><g stroke-width="0.0" stroke="none" fill="rgb(5%, 5%, 5%)" fill-opacity="1.0" font-size="0.0148" text-anchor="start"><text x="0.3709" y="0.0270">CDCL (α = 0.95, mVISDS, ExpRestart(100, 2))</text></g><g stroke-width="0" stroke="rgb(2%, 29%, 48%)" stroke-opacity="1.0" fill="rgb(62%, 0%, 31%)" fill-opacity="1.0"><rect width="0.0247" height="0.0219" x="0.6805" y="0.0128"/></g><g stroke-width="0.0" stroke="none" fill="rgb(5%, 5%, 5%)" fill-opacity="1.0" font-size="0.0148" text-anchor="start"><text x="0.3709" y="-0.0021">CDCL (α = 0.95, mVISDS)</text></g><g stroke-width="0" stroke="rgb(2%, 29%, 48%)" stroke-opacity="1.0" fill="rgb(91%, 47%, 0%)" fill-opacity="1.0"><rect width="0.0247" height="0.0219" x="0.6805" y="-0.0163"/></g><g stroke-width="0.0" stroke="none" fill="rgb(5%, 5%, 5%)" fill-opacity="1.0" font-size="0.0148" text-anchor="start"><text x="0.3709" y="-0.0312">CDCL (α = 0.95)</text></g><g stroke-width="0" stroke="rgb(2%, 29%, 48%)" stroke-opacity="1.0" fill="rgb(0%, 64%, 70%)" fill-opacity="1.0"><rect width="0.0247" height="0.0219" x="0.6805" y="-0.0455"/></g><g stroke-width="0.0" stroke="none" fill="rgb(5%, 5%, 5%)" fill-opacity="1.0" font-size="0.0148" text-anchor="start"><text x="0.3709" y="-0.0604">CDCL (α = 0.75, mVISDS, LubyRestart(100, 2))</text></g><g stroke-width="0" stroke="rgb(2%, 29%, 48%)" stroke-opacity="1.0" fill="rgb(91%, 19%, 0%)" fill-opacity="1.0"><rect width="0.0247" height="0.0219" x="0.6805" y="-0.0746"/></g><g stroke-width="0.0" stroke="none" fill="rgb(5%, 5%, 5%)" fill-opacity="1.0" font-size="0.0148" text-anchor="start"><text x="0.3709" y="-0.0895">CDCL (α = 0.75, mVISDS, ExpRestart(100, 2))</text></g><g stroke-width="0" stroke="rgb(2%, 29%, 48%)" stroke-opacity="1.0" fill="rgb(38%, 23%, 0%)" fill-opacity="1.0"><rect width="0.0247" height="0.0219" x="0.6805" y="-0.1037"/></g><g stroke-width="0.0" stroke="none" fill="rgb(5%, 5%, 5%)" fill-opacity="1.0" font-size="0.0148" text-anchor="start"><text x="0.3709" y="-0.1187">CDCL (α = 0.75, mVISDS)</text></g><g stroke-width="0" stroke="rgb(2%, 29%, 48%)" stroke-opacity="1.0" fill="rgb(90%, 37%, 58%)" fill-opacity="1.0"><rect width="0.0247" height="0.0219" x="0.6805" y="-0.1329"/></g><g stroke-width="0.0" stroke="none" fill="rgb(5%, 5%, 5%)" fill-opacity="1.0" font-size="0.0148" text-anchor="start"><text x="0.3709" y="-0.1478">CDCL (α = 0.75)</text></g><g stroke-width="0" stroke="rgb(2%, 29%, 48%)" stroke-opacity="1.0" fill="rgb(0%, 72%, 98%)" fill-opacity="1.0"><rect width="0.0247" height="0.0219" x="0.6805" y="-0.1620"/></g><g stroke-width="0.0" stroke="none" fill="rgb(5%, 5%, 5%)" fill-opacity="1.0" font-size="0.0148" text-anchor="start"><text x="0.3709" y="-0.1769">CDCL (adaptive, mVSIDS)</text></g><g stroke-width="0" stroke="rgb(2%, 29%, 48%)" stroke-opacity="1.0" fill="rgb(1%, 28%, 43%)" fill-opacity="1.0"><rect width="0.0247" height="0.0219" x="0.6805" y="-0.1911"/></g><g stroke-width="0.0" stroke="none" fill="rgb(5%, 5%, 5%)" fill-opacity="1.0" font-size="0.0148" text-anchor="start"><text x="0.3709" y="-0.2061">CDCL (adaptive, mVISDS, LubyRestart(100, 2))</text></g><g stroke-width="0" stroke="rgb(2%, 29%, 48%)" stroke-opacity="1.0" fill="rgb(26%, 54%, 57%)" fill-opacity="1.0"><rect width="0.0247" height="0.0219" x="0.6805" y="-0.2203"/></g><g stroke-width="0.0" stroke="none" fill="rgb(5%, 5%, 5%)" fill-opacity="1.0" font-size="0.0148" text-anchor="start"><text x="0.3709" y="-0.2352">CDCL (adaptive, mVISDS, ExpRestart(100, 2))</text></g><g stroke-width="0" stroke="rgb(2%, 29%, 48%)" stroke-opacity="1.0" fill="rgb(0%, 25%, 37%)" fill-opacity="1.0"><rect width="0.0247" height="0.0219" x="0.6805" y="-0.2494"/></g><g stroke-width="0.0" stroke="none" fill="rgb(5%, 5%, 5%)" fill-opacity="1.0" font-size="0.0148" text-anchor="start"><text x="0.3709" y="-0.2643">CDCL (adaptive)</text></g><g stroke-width="0" stroke="rgb(2%, 29%, 48%)" stroke-opacity="1.0" fill="rgb(0%, 30%, 12%)" fill-opacity="1.0"><rect width="0.0247" height="0.0219" x="0.6805" y="-0.2786"/></g></g></g><g class="frame"><g stroke-width="0" stroke="rgb(0%, 0%, 0%)" stroke-opacity="0" fill="rgb(100%, 100%, 100%)" fill-opacity="0.02"><rect width="1.6180" height="1.0" x="-0.8090" y="-0.5"/></g></g><g class="title"><g stroke-width="0.0" stroke="none" fill="rgb(5%, 5%, 5%)" fill-opacity="1.0" font-size="0.0282" text-anchor="middle"><text x="-0.7423" y="0" transform="rotate(-90.0, -0.7423, 0)">Copied [MiB]</text></g></g></g></svg>