<svg xmlns="http://www.w3.org/2000/svg" xmlns:xlink="http://www.w3.org/1999/xlink" width="485" height="300" viewBox="-0.8090 -0.5 1.6180 1.0"><style>svg {
  color-scheme: light dark;
}
{
  .canvas g, .title g, .axisbar g, .ticktext g, .tickglyph g, .ticklines g, .legendContent g text {
    fill: rgb(5%, 5%, 5%);
  }
  .ticklines g, .tickglyph g, .legendBorder g {
    stroke: rgb(5%, 5%, 5%);
  }
  .legendBorder g {
    fill: rgb(94%, 94%, 94%);
  }
}
@media (prefers-color-scheme:dark) {
  .canvas g, .title g, .axisbar g, .ticktext g, .tickglyph g, .ticklines g, .legendContent g text {
    fill: rgb(94%, 94%, 94%);
  }
  .ticklines g, .tickglyph g, .legendBorder g {
    stroke: rgb(94%, 94%, 94%);
  }
  .legendBorder g {
    fill: rgb(5%, 5%, 5%);
  }
}</style><g class="chart"><g class="barchart"><g stroke-width="0" stroke="rgb(2%, 29%, 48%)" stroke-opacity="1.0" fill="rgb(0%, 30%, 12%)" fill-opacity="1.0"><rect width="0.0532" height="0.0165" x="-0.4553" y="0.0655"/></g><g stroke-width="0" stroke="rgb(2%, 29%, 48%)" stroke-opacity="1.0" fill="rgb(0%, 25%, 37%)" fill-opacity="1.0"><rect width="0.0532" height="0.0140" x="-0.4020" y="0.0681"/></g><g stroke-width="0" stroke="rgb(2%, 29%, 48%)" stroke-opacity="1.0" fill="rgb(26%, 54%, 57%)" fill-opacity="1.0"><rect width="0.0532" height="0.0133" x="-0.3488" y="0.0687"/></g><g stroke-width="0" stroke="rgb(2%, 29%, 48%)" stroke-opacity="1.0" fill="rgb(1%, 28%, 43%)" fill-opacity="1.0"><rect width="0.0532" height="0.0160" x="-0.2956" y="0.0661"/></g><g stroke-width="0" stroke="rgb(2%, 29%, 48%)" stroke-opacity="1.0" fill="rgb(0%, 72%, 98%)" fill-opacity="1.0"><rect width="0.0532" height="0.0192" x="-0.2423" y="0.0628"/></g><g stroke-width="0" stroke="rgb(2%, 29%, 48%)" stroke-opacity="1.0" fill="rgb(90%, 37%, 58%)" fill-opacity="1.0"><rect width="0.0532" height="0.0201" x="-0.1891" y="0.0619"/></g><g stroke-width="0" stroke="rgb(2%, 29%, 48%)" stroke-opacity="1.0" fill="rgb(38%, 23%, 0%)" fill-opacity="1.0"><rect width="0.0532" height="0.0580" x="-0.1359" y="0.0240"/></g><g stroke-width="0" stroke="rgb(2%, 29%, 48%)" stroke-opacity="1.0" fill="rgb(91%, 19%, 0%)" fill-opacity="1.0"><rect width="0.0532" height="0.0575" x="-0.0826" y="0.0245"/></g><g stroke-width="0" stroke="rgb(2%, 29%, 48%)" stroke-opacity="1.0" fill="rgb(0%, 64%, 70%)" fill-opacity="1.0"><rect width="0.0532" height="0.0428" x="-0.0294" y="0.0392"/></g><g stroke-width="0" stroke="rgb(2%, 29%, 48%)" stroke-opacity="1.0" fill="rgb(91%, 47%, 0%)" fill-opacity="1.0"><rect width="0.0532" height="0.0137" x="0.0239" y="0.0684"/></g><g stroke-width="0" stroke="rgb(2%, 29%, 48%)" stroke-opacity="1.0" fill="rgb(62%, 0%, 31%)" fill-opacity="1.0"><rect width="0.0532" height="0.0142" x="0.0771" y="0.0678"/></g><g stroke-width="0" stroke="rgb(2%, 29%, 48%)" stroke-opacity="1.0" fill="rgb(17%, 40%, 67%)" fill-opacity="1.0"><rect width="0.0532" height="0.0143" x="0.1303" y="0.0678"/></g><g stroke-width="0" stroke="rgb(2%, 29%, 48%)" stroke-opacity="1.0" fill="rgb(0%, 52%, 40%)" fill-opacity="1.0"><rect width="0.0532" height="0.3715" x="0.1836" y="-0.2895"/></g></g><g class="errors"><g stroke-width="0.0015" stroke="rgb(5%, 5%, 5%)" stroke-opacity="1.0" fill="none"><polyline points="-0.4340,0.0662 -0.4233,0.0662"/><polyline points="-0.4286,0.0662 -0.4286,0.0649"/><polyline points="-0.4340,0.0649 -0.4233,0.0649"/></g><g stroke-width="0.0015" stroke="rgb(5%, 5%, 5%)" stroke-opacity="1.0" fill="none"><polyline points="-0.3807,0.0687 -0.3701,0.0687"/><polyline points="-0.3754,0.0687 -0.3754,0.0674"/><polyline points="-0.3807,0.0674 -0.3701,0.0674"/></g><g stroke-width="0.0015" stroke="rgb(5%, 5%, 5%)" stroke-opacity="1.0" fill="none"><polyline points="-0.3275,0.0693 -0.3168,0.0693"/><polyline points="-0.3222,0.0693 -0.3222,0.0680"/><polyline points="-0.3275,0.0680 -0.3168,0.0680"/></g><g stroke-width="0.0015" stroke="rgb(5%, 5%, 5%)" stroke-opacity="1.0" fill="none"><polyline points="-0.2743,0.0667 -0.2636,0.0667"/><polyline points="-0.2689,0.0667 -0.2689,0.0654"/><polyline points="-0.2743,0.0654 -0.2636,0.0654"/></g><g stroke-width="0.0015" stroke="rgb(5%, 5%, 5%)" stroke-opacity="1.0" fill="none"><polyline points="-0.2210,0.0634 -0.2104,0.0634"/><polyline points="-0.2157,0.0634 -0.2157,0.0622"/><polyline points="-0.2210,0.0622 -0.2104,0.0622"/></g><g stroke-width="0.0015" stroke="rgb(5%, 5%, 5%)" stroke-opacity="1.0" fill="none"><polyline points="-0.1678,0.0621 -0.1571,0.0621"/><polyline points="-0.1625,0.0621 -0.1625,0.0616"/><polyline points="-0.1678,0.0616 -0.1571,0.0616"/></g><g stroke-width="0.0015" stroke="rgb(5%, 5%, 5%)" stroke-opacity="1.0" fill="none"><polyline points="-0.1146,0.0248 -0.1039,0.0248"/><polyline points="-0.1092,0.0248 -0.1092,0.0232"/><polyline points="-0.1146,0.0232 -0.1039,0.0232"/></g><g stroke-width="0.0015" stroke="rgb(5%, 5%, 5%)" stroke-opacity="1.0" fill="none"><polyline points="-0.0613,0.0270 -0.0507,0.0270"/><polyline points="-0.0560,0.0270 -0.0560,0.0221"/><polyline points="-0.0613,0.0221 -0.0507,0.0221"/></g><g stroke-width="0.0015" stroke="rgb(5%, 5%, 5%)" stroke-opacity="1.0" fill="none"><polyline points="-0.0081,0.0399 0.0026,0.0399"/><polyline points="-0.0028,0.0399 -0.0028,0.0384"/><polyline points="-0.0081,0.0384 0.0026,0.0384"/></g><g stroke-width="0.0015" stroke="rgb(5%, 5%, 5%)" stroke-opacity="1.0" fill="none"><polyline points="0.0451,0.0688 0.0558,0.0688"/><polyline points="0.0505,0.0688 0.0505,0.0680"/><polyline points="0.0451,0.0680 0.0558,0.0680"/></g><g stroke-width="0.0015" stroke="rgb(5%, 5%, 5%)" stroke-opacity="1.0" fill="none"><polyline points="0.0984,0.0681 0.1090,0.0681"/><polyline points="0.1037,0.0681 0.1037,0.0674"/><polyline points="0.0984,0.0674 0.1090,0.0674"/></g><g stroke-width="0.0015" stroke="rgb(5%, 5%, 5%)" stroke-opacity="1.0" fill="none"><polyline points="0.1516,0.0680 0.1623,0.0680"/><polyline points="0.1569,0.0680 0.1569,0.0675"/><polyline points="0.1516,0.0675 0.1623,0.0675"/></g><g stroke-width="0.0015" stroke="rgb(5%, 5%, 5%)" stroke-opacity="1.0" fill="none"><polyline points="0.2049,-0.2827 0.2155,-0.2827"/><polyline points="0.2102,-0.2827 0.2102,-0.2963"/><polyline points="0.2049,-0.2963 0.2155,-0.2963"/></g></g></g><g class="hud"><g class="axis"><g class="ticks"><g class="tickglyph"><g stroke-width="0.0040" stroke="rgb(5%, 5%, 5%)" stroke-opacity="0.4" fill="rgb(5%, 5%, 5%)" fill-opacity="0.4"><g transform="rotate(-90.0, -0.5080, 0.0820)"><polyline points="-0.5080,0.0970
-0.5080,0.0670"/></g><g transform="rotate(-90.0, -0.5080, 0.0300)"><polyline points="-0.5080,0.0450
-0.5080,0.0150"/></g><g transform="rotate(-90.0, -0.5080, -0.0220)"><polyline points="-0.5080,-0.0070
-0.5080,-0.0370"/></g><g transform="rotate(-90.0, -0.5080, -0.0741)"><polyline points="-0.5080,-0.0591
-0.5080,-0.0891"/></g><g transform="rotate(-90.0, -0.5080, -0.1261)"><polyline points="-0.5080,-0.1111
-0.5080,-0.1411"/></g><g transform="rotate(-90.0, -0.5080, -0.1781)"><polyline points="-0.5080,-0.1631
-0.5080,-0.1931"/></g><g transform="rotate(-90.0, -0.5080, -0.2302)"><polyline points="-0.5080,-0.2152
-0.5080,-0.2452"/></g><g transform="rotate(-90.0, -0.5080, -0.2822)"><polyline points="-0.5080,-0.2672
-0.5080,-0.2972"/></g><g transform="rotate(-90.0, -0.5080, -0.3342)"><polyline points="-0.5080,-0.3192
-0.5080,-0.3492"/></g></g></g><g class="ticktext"><g stroke-width="0.0" stroke="none" fill="rgb(5%, 5%, 5%)" fill-opacity="1.0" font-size="0.0238" text-anchor="end"><text x="-0.5251" y="0.0877">0.0</text><text x="-0.5251" y="0.0357">0.2</text><text x="-0.5251" y="-0.0163">0.4</text><text x="-0.5251" y="-0.0683">0.6</text><text x="-0.5251" y="-0.1204">0.8</text><text x="-0.5251" y="-0.1724">1.0</text><text x="-0.5251" y="-0.2244">1.2</text><text x="-0.5251" y="-0.2765">1.4</text><text x="-0.5251" y="-0.3285">1.6</text></g></g><g class="ticklines"><g stroke-width="0.0050" stroke="rgb(5%, 5%, 5%)" stroke-opacity="0.05" fill="none"><polyline points="-0.4937,0.0820 0.2752,0.0820"/><polyline points="-0.4937,0.0300 0.2752,0.0300"/><polyline points="-0.4937,-0.0220 0.2752,-0.0220"/><polyline points="-0.4937,-0.0741 0.2752,-0.0741"/><polyline points="-0.4937,-0.1261 0.2752,-0.1261"/><polyline points="-0.4937,-0.1781 0.2752,-0.1781"/><polyline points="-0.4937,-0.2302 0.2752,-0.2302"/><polyline points="-0.4937,-0.2822 0.2752,-0.2822"/><polyline points="-0.4937,-0.3342 0.2752,-0.3342"/></g></g></g><g class="axisbar"><g stroke-width="0" stroke="rgb(0%, 0%, 0%)" stroke-opacity="0" fill="rgb(5%, 5%, 5%)" fill-opacity="0.4"><rect width="0.0019" height="0.4179" x="-0.5004" y="-0.3351"/></g></g></g><g class="axis"><g class="ticks"><g class="tickglyph"><g stroke-width="0.0040" stroke="rgb(5%, 5%, 5%)" stroke-opacity="0.4" fill="rgb(5%, 5%, 5%)" fill-opacity="0.4"><polyline points="-0.4286,0.1095
-0.4286,0.0795"/><polyline points="-0.3754,0.1095
-0.3754,0.0795"/><polyline points="-0.3222,0.1095
-0.3222,0.0795"/><polyline points="-0.2689,0.1095
-0.2689,0.0795"/><polyline points="-0.2157,0.1095
-0.2157,0.0795"/><polyline points="-0.1625,0.1095
-0.1625,0.0795"/><polyline points="-0.1092,0.1095
-0.1092,0.0795"/><polyline points="-0.0560,0.1095
-0.0560,0.0795"/><polyline points="-0.0028,0.1095
-0.0028,0.0795"/><polyline points="0.0505,0.1095
0.0505,0.0795"/><polyline points="0.1037,0.1095
0.1037,0.0795"/><polyline points="0.1569,0.1095
0.1569,0.0795"/><polyline points="0.2102,0.1095
0.2102,0.0795"/></g></g><g class="ticktext"><g stroke-width="0.0" stroke="none" fill="rgb(5%, 5%, 5%)" fill-opacity="1.0" font-size="0.0238" text-anchor="end"><text x="-0.4286" y="0.1209" transform="rotate(-45.0, -0.4286, 0.1209)">CDCL (adaptive)</text><text x="-0.3754" y="0.1209" transform="rotate(-45.0, -0.3754, 0.1209)">CDCL (adaptive, mVISDS, ExpRestart(100, 2))</text><text x="-0.3222" y="0.1209" transform="rotate(-45.0, -0.3222, 0.1209)">CDCL (adaptive, mVISDS, LubyRestart(100, 2))</text><text x="-0.2689" y="0.1209" transform="rotate(-45.0, -0.2689, 0.1209)">CDCL (adaptive, mVSIDS)</text><text x="-0.2157" y="0.1209" transform="rotate(-45.0, -0.2157, 0.1209)">CDCL (α = 0.75)</text><text x="-0.1625" y="0.1209" transform="rotate(-45.0, -0.1625, 0.1209)">CDCL (α = 0.75, mVISDS)</text><text x="-0.1092" y="0.1209" transform="rotate(-45.0, -0.1092, 0.1209)">CDCL (α = 0.75, mVISDS, ExpRestart(100, 2))</text><text x="-0.0560" y="0.1209" transform="rotate(-45.0, -0.0560, 0.1209)">CDCL (α = 0.75, mVISDS, LubyRestart(100, 2))</text><text x="-0.0028" y="0.1209" transform="rotate(-45.0, -0.0028, 0.1209)">CDCL (α = 0.95)</text><text x="0.0505" y="0.1209" transform="rotate(-45.0, 0.0505, 0.1209)">CDCL (α = 0.95, mVISDS)</text><text x="0.1037" y="0.1209" transform="rotate(-45.0, 0.1037, 0.1209)">CDCL (α = 0.95, mVISDS, ExpRestart(100, 2))</text><text x="0.1569" y="0.1209" transform="rotate(-45.0, 0.1569, 0.1209)">CDCL (α = 0.95, mVISDS, LubyRestart(100, 2))</text><text x="0.2102" y="0.1209" transform="rotate(-45.0, 0.2102, 0.1209)">DPLL</text></g></g></g><g class="axisbar"><g stroke-width="0" stroke="rgb(0%, 0%, 0%)" stroke-opacity="0" fill="rgb(5%, 5%, 5%)" fill-opacity="0.4"><rect width="0.7708" height="0.0017" x="-0.4947" y="0.0862"/></g></g></g><g class="title"><g stroke-width="0.0" stroke="none" fill="rgb(5%, 5%, 5%)" fill-opacity="1.0" font-size="0.0570" text-anchor="middle"><text x="-0.2188" y="-0.3768">Time: SATLIB/uf100-430/uf100-01000/cnf</text></g></g><g class="legend"><g class="legendBorder"><g stroke-width="0.0017" stroke="rgb(5%, 5%, 5%)" stroke-opacity="1.0" fill="rgb(5%, 5%, 5%)" fill-opacity="0"><rect width="0.3546" height="0.3861" x="0.3577" y="-0.2858"/></g></g><g class="legendContent"><g stroke-width="0.0" stroke="none" fill="rgb(5%, 5%, 5%)" fill-opacity="1.0" font-size="0.0150" text-anchor="start"><text x="0.3660" y="0.0853">DPLL</text></g><g stroke-width="0" stroke="rgb(2%, 29%, 48%)" stroke-opacity="1.0" fill="rgb(0%, 52%, 40%)" fill-opacity="1.0"><rect width="0.0249" height="0.0219" x="0.6790" y="0.0711"/></g><g stroke-width="0.0" stroke="none" fill="rgb(5%, 5%, 5%)" fill-opacity="1.0" font-size="0.0150" text-anchor="start"><text x="0.3660" y="0.0562">CDCL (α = 0.95, mVISDS, LubyRestart(100, 2))</text></g><g stroke-width="0" stroke="rgb(2%, 29%, 48%)" stroke-opacity="1.0" fill="rgb(17%, 40%, 67%)" fill-opacity="1.0"><rect width="0.0249" height="0.0219" x="0.6790" y="0.0420"/></g><g stroke-width="0.0" stroke="none" fill="rgb(5%, 5%, 5%)" fill-opacity="1.0" font-size="0.0150" text-anchor="start"><text x="0.3660" y="0.0270">CDCL (α = 0.95, mVISDS, ExpRestart(100, 2))</text></g><g stroke-width="0" stroke="rgb(2%, 29%, 48%)" stroke-opacity="1.0" fill="rgb(62%, 0%, 31%)" fill-opacity="1.0"><rect width="0.0249" height="0.0219" x="0.6790" y="0.0128"/></g><g stroke-width="0.0" stroke="none" fill="rgb(5%, 5%, 5%)" fill-opacity="1.0" font-size="0.0150" text-anchor="start"><text x="0.3660" y="-0.0021">CDCL (α = 0.95, mVISDS)</text></g><g stroke-width="0" stroke="rgb(2%, 29%, 48%)" stroke-opacity="1.0" fill="rgb(91%, 47%, 0%)" fill-opacity="1.0"><rect width="0.0249" height="0.0219" x="0.6790" y="-0.0163"/></g><g stroke-width="0.0" stroke="none" fill="rgb(5%, 5%, 5%)" fill-opacity="1.0" font-size="0.0150" text-anchor="start"><text x="0.3660" y="-0.0312">CDCL (α = 0.95)</text></g><g stroke-width="0" stroke="rgb(2%, 29%, 48%)" stroke-opacity="1.0" fill="rgb(0%, 64%, 70%)" fill-opacity="1.0"><rect width="0.0249" height="0.0219" x="0.6790" y="-0.0455"/></g><g stroke-width="0.0" stroke="none" fill="rgb(5%, 5%, 5%)" fill-opacity="1.0" font-size="0.0150" text-anchor="start"><text x="0.3660" y="-0.0604">CDCL (α = 0.75, mVISDS, LubyRestart(100, 2))</text></g><g stroke-width="0" stroke="rgb(2%, 29%, 48%)" stroke-opacity="1.0" fill="rgb(91%, 19%, 0%)" fill-opacity="1.0"><rect width="0.0249" height="0.0219" x="0.6790" y="-0.0746"/></g><g stroke-width="0.0" stroke="none" fill="rgb(5%, 5%, 5%)" fill-opacity="1.0" font-size="0.0150" text-anchor="start"><text x="0.3660" y="-0.0895">CDCL (α = 0.75, mVISDS, ExpRestart(100, 2))</text></g><g stroke-width="0" stroke="rgb(2%, 29%, 48%)" stroke-opacity="1.0" fill="rgb(38%, 23%, 0%)" fill-opacity="1.0"><rect width="0.0249" height="0.0219" x="0.6790" y="-0.1037"/></g><g stroke-width="0.0" stroke="none" fill="rgb(5%, 5%, 5%)" fill-opacity="1.0" font-size="0.0150" text-anchor="start"><text x="0.3660" y="-0.1187">CDCL (α = 0.75, mVISDS)</text></g><g stroke-width="0" stroke="rgb(2%, 29%, 48%)" stroke-opacity="1.0" fill="rgb(90%, 37%, 58%)" fill-opacity="1.0"><rect width="0.0249" height="0.0219" x="0.6790" y="-0.1329"/></g><g stroke-width="0.0" stroke="none" fill="rgb(5%, 5%, 5%)" fill-opacity="1.0" font-size="0.0150" text-anchor="start"><text x="0.3660" y="-0.1478">CDCL (α = 0.75)</text></g><g stroke-width="0" stroke="rgb(2%, 29%, 48%)" stroke-opacity="1.0" fill="rgb(0%, 72%, 98%)" fill-opacity="1.0"><rect width="0.0249" height="0.0219" x="0.6790" y="-0.1620"/></g><g stroke-width="0.0" stroke="none" fill="rgb(5%, 5%, 5%)" fill-opacity="1.0" font-size="0.0150" text-anchor="start"><text x="0.3660" y="-0.1769">CDCL (adaptive, mVSIDS)</text></g><g stroke-width="0" stroke="rgb(2%, 29%, 48%)" stroke-opacity="1.0" fill="rgb(1%, 28%, 43%)" fill-opacity="1.0"><rect width="0.0249" height="0.0219" x="0.6790" y="-0.1911"/></g><g stroke-width="0.0" stroke="none" fill="rgb(5%, 5%, 5%)" fill-opacity="1.0" font-size="0.0150" text-anchor="start"><text x="0.3660" y="-0.2061">CDCL (adaptive, mVISDS, LubyRestart(100, 2))</text></g><g stroke-width="0" stroke="rgb(2%, 29%, 48%)" stroke-opacity="1.0" fill="rgb(26%, 54%, 57%)" fill-opacity="1.0"><rect width="0.0249" height="0.0219" x="0.6790" y="-0.2203"/></g><g stroke-width="0.0" stroke="none" fill="rgb(5%, 5%, 5%)" fill-opacity="1.0" font-size="0.0150" text-anchor="start"><text x="0.3660" y="-0.2352">CDCL (adaptive, mVISDS, ExpRestart(100, 2))</text></g><g stroke-width="0" stroke="rgb(2%, 29%, 48%)" stroke-opacity="1.0" fill="rgb(0%, 25%, 37%)" fill-opacity="1.0"><rect width="0.0249" height="0.0219" x="0.6790" y="-0.2494"/></g><g stroke-width="0.0" stroke="none" fill="rgb(5%, 5%, 5%)" fill-opacity="1.0" font-size="0.0150" text-anchor="start"><text x="0.3660" y="-0.2643">CDCL (adaptive)</text></g><g stroke-width="0" stroke="rgb(2%, 29%, 48%)" stroke-opacity="1.0" fill="rgb(0%, 30%, 12%)" fill-opacity="1.0"><rect width="0.0249" height="0.0219" x="0.6790" y="-0.2786"/></g></g></g><g class="frame"><g stroke-width="0" stroke="rgb(0%, 0%, 0%)" stroke-opacity="0" fill="rgb(100%, 100%, 100%)" fill-opacity="0.02"><rect width="1.6180" height="1.0" x="-0.8090" y="-0.5"/></g></g><g class="title"><g stroke-width="0.0" stroke="none" fill="rgb(5%, 5%, 5%)" fill-opacity="1.0" font-size="0.0285" text-anchor="middle"><text x="-0.7415" y="0" transform="rotate(-90.0, -0.7415, 0)">Time [s]</text></g></g></g></svg>