<svg xmlns="http://www.w3.org/2000/svg" xmlns:xlink="http://www.w3.org/1999/xlink" width="471" height="300" viewBox="-0.8090 -0.5 1.6180 1.0298"><style>svg {
  color-scheme: light dark;
}
{
  .canvas g, .title g, .axisbar g, .ticktext g, .tickglyph g, .ticklines g, .legendContent g text {
    fill: rgb(5%, 5%, 5%);
  }
  .ticklines g, .tickglyph g, .legendBorder g {
    stroke: rgb(5%, 5%, 5%);
  }
  .legendBorder g {
    fill: rgb(94%, 94%, 94%);
  }
}
@media (prefers-color-scheme:dark) {
  .canvas g, .title g, .axisbar g, .ticktext g, .tickglyph g, .ticklines g, .legendContent g text {
    fill: rgb(94%, 94%, 94%);
  }
  .ticklines g, .tickglyph g, .legendBorder g {
    stroke: rgb(94%, 94%, 94%);
  }
  .legendBorder g {
    fill: rgb(5%, 5%, 5%);
  }
}</style><g class="chart"><g class="barchart"><g stroke-width="0" stroke="rgb(2%, 29%, 48%)" stroke-opacity="1.0" fill="rgb(0%, 30%, 12%)" fill-opacity="1.0"><rect width="0.0268" height="0.0200" x="-0.4268" y="0.0952"/></g><g stroke-width="0.0010" stroke="rgb(0%, 30%, 12%)" stroke-opacity="1.0" fill="rgb(0%, 30%, 12%)" fill-opacity="0.25"><rect width="0.0268" height="0.0233" x="-0.4000" y="0.0919"/></g><g stroke-width="0" stroke="rgb(2%, 29%, 48%)" stroke-opacity="1.0" fill="rgb(0%, 25%, 37%)" fill-opacity="1.0"><rect width="0.0268" height="0.1018" x="-0.3732" y="0.0134"/></g><g stroke-width="0.0010" stroke="rgb(0%, 25%, 37%)" stroke-opacity="1.0" fill="rgb(0%, 25%, 37%)" fill-opacity="0.25"><rect width="0.0268" height="0.1208" x="-0.3465" y="-0.0056"/></g><g stroke-width="0" stroke="rgb(2%, 29%, 48%)" stroke-opacity="1.0" fill="rgb(26%, 54%, 57%)" fill-opacity="1.0"><rect width="0.0268" height="0.1008" x="-0.3197" y="0.0143"/></g><g stroke-width="0.0010" stroke="rgb(26%, 54%, 57%)" stroke-opacity="1.0" fill="rgb(26%, 54%, 57%)" fill-opacity="0.25"><rect width="0.0268" height="0.1199" x="-0.2930" y="-0.0047"/></g><g stroke-width="0" stroke="rgb(2%, 29%, 48%)" stroke-opacity="1.0" fill="rgb(1%, 28%, 43%)" fill-opacity="1.0"><rect width="0.0268" height="0.0286" x="-0.2662" y="0.0866"/></g><g stroke-width="0.0010" stroke="rgb(1%, 28%, 43%)" stroke-opacity="1.0" fill="rgb(1%, 28%, 43%)" fill-opacity="0.25"><rect width="0.0268" height="0.0329" x="-0.2395" y="0.0822"/></g><g stroke-width="0" stroke="rgb(2%, 29%, 48%)" stroke-opacity="1.0" fill="rgb(0%, 72%, 98%)" fill-opacity="1.0"><rect width="0.0268" height="0.0422" x="-0.2127" y="0.0730"/></g><g stroke-width="0.0010" stroke="rgb(0%, 72%, 98%)" stroke-opacity="1.0" fill="rgb(0%, 72%, 98%)" fill-opacity="0.25"><rect width="0.0268" height="0.0495" x="-0.1859" y="0.0657"/></g><g stroke-width="0" stroke="rgb(2%, 29%, 48%)" stroke-opacity="1.0" fill="rgb(90%, 37%, 58%)" fill-opacity="1.0"><rect width="0.0268" height="0.0372" x="-0.1592" y="0.0779"/></g><g stroke-width="0.0010" stroke="rgb(90%, 37%, 58%)" stroke-opacity="1.0" fill="rgb(90%, 37%, 58%)" fill-opacity="0.25"><rect width="0.0268" height="0.0437" x="-0.1324" y="0.0715"/></g><g stroke-width="0" stroke="rgb(2%, 29%, 48%)" stroke-opacity="1.0" fill="rgb(38%, 23%, 0%)" fill-opacity="1.0"><rect width="0.0268" height="0.2415" x="-0.1057" y="-0.1263"/></g><g stroke-width="0.0010" stroke="rgb(38%, 23%, 0%)" stroke-opacity="1.0" fill="rgb(38%, 23%, 0%)" fill-opacity="0.25"><rect width="0.0268" height="0.2928" x="-0.0789" y="-0.1776"/></g><g stroke-width="0" stroke="rgb(2%, 29%, 48%)" stroke-opacity="1.0" fill="rgb(91%, 19%, 0%)" fill-opacity="1.0"><rect width="0.0268" height="0.2368" x="-0.0521" y="-0.1217"/></g><g stroke-width="0.0010" stroke="rgb(91%, 19%, 0%)" stroke-opacity="1.0" fill="rgb(91%, 19%, 0%)" fill-opacity="0.25"><rect width="0.0268" height="0.2852" x="-0.0254" y="-0.1701"/></g><g stroke-width="0" stroke="rgb(2%, 29%, 48%)" stroke-opacity="1.0" fill="rgb(0%, 64%, 70%)" fill-opacity="1.0"><rect width="0.0268" height="0.0215" x="0.0014" y="0.0937"/></g><g stroke-width="0.0010" stroke="rgb(0%, 64%, 70%)" stroke-opacity="1.0" fill="rgb(0%, 64%, 70%)" fill-opacity="0.25"><rect width="0.0268" height="0.0240" x="0.0281" y="0.0912"/></g><g stroke-width="0" stroke="rgb(2%, 29%, 48%)" stroke-opacity="1.0" fill="rgb(91%, 47%, 0%)" fill-opacity="1.0"><rect width="0.0268" height="0.0389" x="0.0549" y="0.0763"/></g><g stroke-width="0.0010" stroke="rgb(91%, 47%, 0%)" stroke-opacity="1.0" fill="rgb(91%, 47%, 0%)" fill-opacity="0.25"><rect width="0.0268" height="0.0451" x="0.0817" y="0.0701"/></g><g stroke-width="0" stroke="rgb(2%, 29%, 48%)" stroke-opacity="1.0" fill="rgb(62%, 0%, 31%)" fill-opacity="1.0"><rect width="0.0268" height="0.0515" x="0.1084" y="0.0637"/></g><g stroke-width="0.0010" stroke="rgb(62%, 0%, 31%)" stroke-opacity="1.0" fill="rgb(62%, 0%, 31%)" fill-opacity="0.25"><rect width="0.0268" height="0.0598" x="0.1352" y="0.0554"/></g><g stroke-width="0" stroke="rgb(2%, 29%, 48%)" stroke-opacity="1.0" fill="rgb(17%, 40%, 67%)" fill-opacity="1.0"><rect width="0.0268" height="0.0513" x="0.1619" y="0.0639"/></g><g stroke-width="0.0010" stroke="rgb(17%, 40%, 67%)" stroke-opacity="1.0" fill="rgb(17%, 40%, 67%)" fill-opacity="0.25"><rect width="0.0268" height="0.0612" x="0.1887" y="0.0540"/></g></g><g class="errors"></g></g><g class="hud"><g class="axis"><g class="ticks"><g class="tickglyph"><g stroke-width="0.0040" stroke="rgb(5%, 5%, 5%)" stroke-opacity="0.4" fill="rgb(5%, 5%, 5%)" fill-opacity="0.4"><g transform="rotate(-90.0, -0.4757, 0.1152)"><polyline points="-0.4757,0.1302
-0.4757,0.1002"/></g><g transform="rotate(-90.0, -0.4757, 0.0601)"><polyline points="-0.4757,0.0751
-0.4757,0.0451"/></g><g transform="rotate(-90.0, -0.4757, 0.0049)"><polyline points="-0.4757,0.0199
-0.4757,-0.0101"/></g><g transform="rotate(-90.0, -0.4757, -0.0502)"><polyline points="-0.4757,-0.0352
-0.4757,-0.0652"/></g><g transform="rotate(-90.0, -0.4757, -0.1053)"><polyline points="-0.4757,-0.0903
-0.4757,-0.1203"/></g><g transform="rotate(-90.0, -0.4757, -0.1604)"><polyline points="-0.4757,-0.1454
-0.4757,-0.1754"/></g><g transform="rotate(-90.0, -0.4757, -0.2155)"><polyline points="-0.4757,-0.2005
-0.4757,-0.2305"/></g></g></g><g class="ticktext"><g stroke-width="0.0" stroke="none" fill="rgb(5%, 5%, 5%)" fill-opacity="1.0" font-size="0.0221" text-anchor="end"><text x="-0.4916" y="0.1197">  0</text><text x="-0.4916" y="0.0646"> 50</text><text x="-0.4916" y="0.0095">100</text><text x="-0.4916" y="-0.0456">150</text><text x="-0.4916" y="-0.1007">200</text><text x="-0.4916" y="-0.1558">250</text><text x="-0.4916" y="-0.2110">300</text></g></g><g class="ticklines"><g stroke-width="0.0050" stroke="rgb(5%, 5%, 5%)" stroke-opacity="0.05" fill="none"><polyline points="-0.4624,0.1152 0.2511,0.1152"/><polyline points="-0.4624,0.0601 0.2511,0.0601"/><polyline points="-0.4624,0.0049 0.2511,0.0049"/><polyline points="-0.4624,-0.0502 0.2511,-0.0502"/><polyline points="-0.4624,-0.1053 0.2511,-0.1053"/><polyline points="-0.4624,-0.1604 0.2511,-0.1604"/><polyline points="-0.4624,-0.2155 0.2511,-0.2155"/></g></g></g><g class="axisbar"><g stroke-width="0" stroke="rgb(0%, 0%, 0%)" stroke-opacity="0" fill="rgb(5%, 5%, 5%)" fill-opacity="0.4"><rect width="0.0018" height="0.3320" x="-0.4686" y="-0.2162"/></g></g></g><g class="axis"><g class="ticks"><g class="tickglyph"><g stroke-width="0.0040" stroke="rgb(5%, 5%, 5%)" stroke-opacity="0.4" fill="rgb(5%, 5%, 5%)" fill-opacity="0.4"><polyline points="-0.4134,0.1403
-0.4134,0.1103"/><polyline points="-0.3866,0.1403
-0.3866,0.1103"/><polyline points="-0.3599,0.1403
-0.3599,0.1103"/><polyline points="-0.3331,0.1403
-0.3331,0.1103"/><polyline points="-0.3064,0.1403
-0.3064,0.1103"/><polyline points="-0.2796,0.1403
-0.2796,0.1103"/><polyline points="-0.2528,0.1403
-0.2528,0.1103"/><polyline points="-0.2261,0.1403
-0.2261,0.1103"/><polyline points="-0.1993,0.1403
-0.1993,0.1103"/><polyline points="-0.1726,0.1403
-0.1726,0.1103"/><polyline points="-0.1458,0.1403
-0.1458,0.1103"/><polyline points="-0.1190,0.1403
-0.1190,0.1103"/><polyline points="-0.0923,0.1403
-0.0923,0.1103"/><polyline points="-0.0655,0.1403
-0.0655,0.1103"/><polyline points="-0.0388,0.1403
-0.0388,0.1103"/><polyline points="-0.0120,0.1403
-0.0120,0.1103"/><polyline points="0.0148,0.1403
0.0148,0.1103"/><polyline points="0.0415,0.1403
0.0415,0.1103"/><polyline points="0.0683,0.1403
0.0683,0.1103"/><polyline points="0.0950,0.1403
0.0950,0.1103"/><polyline points="0.1218,0.1403
0.1218,0.1103"/><polyline points="0.1486,0.1403
0.1486,0.1103"/><polyline points="0.1753,0.1403
0.1753,0.1103"/><polyline points="0.2021,0.1403
0.2021,0.1103"/></g></g><g class="ticktext"><g stroke-width="0.0" stroke="none" fill="rgb(5%, 5%, 5%)" fill-opacity="1.0" font-size="0.0221" text-anchor="end"><text x="-0.4134" y="0.1463" transform="rotate(-45.0, -0.4134, 0.1463)">CDCL (adaptive)</text><text x="-0.3866" y="0.1463" transform="rotate(-45.0, -0.3866, 0.1463)">CDCL (adaptive), Baseline</text><text x="-0.3599" y="0.1463" transform="rotate(-45.0, -0.3599, 0.1463)">CDCL (adaptive, mVISDS, ExpRestart(100, 2))</text><text x="-0.3331" y="0.1463" transform="rotate(-45.0, -0.3331, 0.1463)">CDCL (adaptive, mVISDS, ExpRestart(100, 2)), Baseline</text><text x="-0.3064" y="0.1463" transform="rotate(-45.0, -0.3064, 0.1463)">CDCL (adaptive, mVISDS, LubyRestart(100, 2))</text><text x="-0.2796" y="0.1463" transform="rotate(-45.0, -0.2796, 0.1463)">CDCL (adaptive, mVISDS, LubyRestart(100, 2)), Baseline</text><text x="-0.2528" y="0.1463" transform="rotate(-45.0, -0.2528, 0.1463)">CDCL (adaptive, mVSIDS)</text><text x="-0.2261" y="0.1463" transform="rotate(-45.0, -0.2261, 0.1463)">CDCL (adaptive, mVSIDS), Baseline</text><text x="-0.1993" y="0.1463" transform="rotate(-45.0, -0.1993, 0.1463)">CDCL (α = 0.75)</text><text x="-0.1726" y="0.1463" transform="rotate(-45.0, -0.1726, 0.1463)">CDCL (α = 0.75), Baseline</text><text x="-0.1458" y="0.1463" transform="rotate(-45.0, -0.1458, 0.1463)">CDCL (α = 0.75, mVISDS)</text><text x="-0.1190" y="0.1463" transform="rotate(-45.0, -0.1190, 0.1463)">CDCL (α = 0.75, mVISDS), Baseline</text><text x="-0.0923" y="0.1463" transform="rotate(-45.0, -0.0923, 0.1463)">CDCL (α = 0.75, mVISDS, ExpRestart(100, 2))</text><text x="-0.0655" y="0.1463" transform="rotate(-45.0, -0.0655, 0.1463)">CDCL (α = 0.75, mVISDS, ExpRestart(100, 2)), Baseline</text><text x="-0.0388" y="0.1463" transform="rotate(-45.0, -0.0388, 0.1463)">CDCL (α = 0.75, mVISDS, LubyRestart(100, 2))</text><text x="-0.0120" y="0.1463" transform="rotate(-45.0, -0.0120, 0.1463)">CDCL (α = 0.75, mVISDS, LubyRestart(100, 2)), Baseline</text><text x="0.0148" y="0.1463" transform="rotate(-45.0, 0.0148, 0.1463)">CDCL (α = 0.95)</text><text x="0.0415" y="0.1463" transform="rotate(-45.0, 0.0415, 0.1463)">CDCL (α = 0.95), Baseline</text><text x="0.0683" y="0.1463" transform="rotate(-45.0, 0.0683, 0.1463)">CDCL (α = 0.95, mVISDS)</text><text x="0.0950" y="0.1463" transform="rotate(-45.0, 0.0950, 0.1463)">CDCL (α = 0.95, mVISDS), Baseline</text><text x="0.1218" y="0.1463" transform="rotate(-45.0, 0.1218, 0.1463)">CDCL (α = 0.95, mVISDS, ExpRestart(100, 2))</text><text x="0.1486" y="0.1463" transform="rotate(-45.0, 0.1486, 0.1463)">CDCL (α = 0.95, mVISDS, ExpRestart(100, 2)), Baseline</text><text x="0.1753" y="0.1463" transform="rotate(-45.0, 0.1753, 0.1463)">CDCL (α = 0.95, mVISDS, LubyRestart(100, 2))</text><text x="0.2021" y="0.1463" transform="rotate(-45.0, 0.2021, 0.1463)">CDCL (α = 0.95, mVISDS, LubyRestart(100, 2)), Baseline</text></g></g></g><g class="axisbar"><g stroke-width="0" stroke="rgb(0%, 0%, 0%)" stroke-opacity="0" fill="rgb(5%, 5%, 5%)" fill-opacity="0.4"><rect width="0.7153" height="0.0013" x="-0.4633" y="0.1186"/></g></g></g><g class="title"><g stroke-width="0.0" stroke="none" fill="rgb(5%, 5%, 5%)" fill-opacity="1.0" font-size="0.0529" text-anchor="middle"><text x="-0.2326" y="-0.2493">Copied: SATLIB/flat200-479/flat200-10/cnf</text></g></g><g class="legend"><g class="legendBorder"><g stroke-width="0.0017" stroke="rgb(5%, 5%, 5%)" stroke-opacity="1.0" fill="rgb(5%, 5%, 5%)" fill-opacity="0"><rect width="0.3916" height="0.5624" x="0.3276" y="-0.4327"/></g></g><g class="legendContent"><g stroke-width="0.0" stroke="none" fill="rgb(5%, 5%, 5%)" fill-opacity="1.0" font-size="0.0139" text-anchor="start"><text x="0.3354" y="0.1178">CDCL (α = 0.95, mVISDS, LubyRestart(100, 2)), Baseline</text></g><g stroke-width="0.0002" stroke="rgb(17%, 40%, 67%)" stroke-opacity="1.0" fill="rgb(17%, 40%, 67%)" fill-opacity="0.25"><rect width="0.0232" height="0.0174" x="0.6884" y="0.1065"/></g><g stroke-width="0.0" stroke="none" fill="rgb(5%, 5%, 5%)" fill-opacity="1.0" font-size="0.0139" text-anchor="start"><text x="0.3354" y="0.0946">CDCL (α = 0.95, mVISDS, LubyRestart(100, 2))</text></g><g stroke-width="0" stroke="rgb(2%, 29%, 48%)" stroke-opacity="1.0" fill="rgb(17%, 40%, 67%)" fill-opacity="1.0"><rect width="0.0232" height="0.0174" x="0.6884" y="0.0833"/></g><g stroke-width="0.0" stroke="none" fill="rgb(5%, 5%, 5%)" fill-opacity="1.0" font-size="0.0139" text-anchor="start"><text x="0.3354" y="0.0714">CDCL (α = 0.95, mVISDS, ExpRestart(100, 2)), Baseline</text></g><g stroke-width="0.0002" stroke="rgb(62%, 0%, 31%)" stroke-opacity="1.0" fill="rgb(62%, 0%, 31%)" fill-opacity="0.25"><rect width="0.0232" height="0.0174" x="0.6884" y="0.0601"/></g><g stroke-width="0.0" stroke="none" fill="rgb(5%, 5%, 5%)" fill-opacity="1.0" font-size="0.0139" text-anchor="start"><text x="0.3354" y="0.0482">CDCL (α = 0.95, mVISDS, ExpRestart(100, 2))</text></g><g stroke-width="0" stroke="rgb(2%, 29%, 48%)" stroke-opacity="1.0" fill="rgb(62%, 0%, 31%)" fill-opacity="1.0"><rect width="0.0232" height="0.0174" x="0.6884" y="0.0369"/></g><g stroke-width="0.0" stroke="none" fill="rgb(5%, 5%, 5%)" fill-opacity="1.0" font-size="0.0139" text-anchor="start"><text x="0.3354" y="0.0250">CDCL (α = 0.95, mVISDS), Baseline</text></g><g stroke-width="0.0002" stroke="rgb(91%, 47%, 0%)" stroke-opacity="1.0" fill="rgb(91%, 47%, 0%)" fill-opacity="0.25"><rect width="0.0232" height="0.0174" x="0.6884" y="0.0137"/></g><g stroke-width="0.0" stroke="none" fill="rgb(5%, 5%, 5%)" fill-opacity="1.0" font-size="0.0139" text-anchor="start"><text x="0.3354" y="0.0018">CDCL (α = 0.95, mVISDS)</text></g><g stroke-width="0" stroke="rgb(2%, 29%, 48%)" stroke-opacity="1.0" fill="rgb(91%, 47%, 0%)" fill-opacity="1.0"><rect width="0.0232" height="0.0174" x="0.6884" y="-0.0095"/></g><g stroke-width="0.0" stroke="none" fill="rgb(5%, 5%, 5%)" fill-opacity="1.0" font-size="0.0139" text-anchor="start"><text x="0.3354" y="-0.0214">CDCL (α = 0.95), Baseline</text></g><g stroke-width="0.0002" stroke="rgb(0%, 64%, 70%)" stroke-opacity="1.0" fill="rgb(0%, 64%, 70%)" fill-opacity="0.25"><rect width="0.0232" height="0.0174" x="0.6884" y="-0.0327"/></g><g stroke-width="0.0" stroke="none" fill="rgb(5%, 5%, 5%)" fill-opacity="1.0" font-size="0.0139" text-anchor="start"><text x="0.3354" y="-0.0446">CDCL (α = 0.95)</text></g><g stroke-width="0" stroke="rgb(2%, 29%, 48%)" stroke-opacity="1.0" fill="rgb(0%, 64%, 70%)" fill-opacity="1.0"><rect width="0.0232" height="0.0174" x="0.6884" y="-0.0559"/></g><g stroke-width="0.0" stroke="none" fill="rgb(5%, 5%, 5%)" fill-opacity="1.0" font-size="0.0139" text-anchor="start"><text x="0.3354" y="-0.0678">CDCL (α = 0.75, mVISDS, LubyRestart(100, 2)), Baseline</text></g><g stroke-width="0.0002" stroke="rgb(91%, 19%, 0%)" stroke-opacity="1.0" fill="rgb(91%, 19%, 0%)" fill-opacity="0.25"><rect width="0.0232" height="0.0174" x="0.6884" y="-0.0790"/></g><g stroke-width="0.0" stroke="none" fill="rgb(5%, 5%, 5%)" fill-opacity="1.0" font-size="0.0139" text-anchor="start"><text x="0.3354" y="-0.0910">CDCL (α = 0.75, mVISDS, LubyRestart(100, 2))</text></g><g stroke-width="0" stroke="rgb(2%, 29%, 48%)" stroke-opacity="1.0" fill="rgb(91%, 19%, 0%)" fill-opacity="1.0"><rect width="0.0232" height="0.0174" x="0.6884" y="-0.1022"/></g><g stroke-width="0.0" stroke="none" fill="rgb(5%, 5%, 5%)" fill-opacity="1.0" font-size="0.0139" text-anchor="start"><text x="0.3354" y="-0.1141">CDCL (α = 0.75, mVISDS, ExpRestart(100, 2)), Baseline</text></g><g stroke-width="0.0002" stroke="rgb(38%, 23%, 0%)" stroke-opacity="1.0" fill="rgb(38%, 23%, 0%)" fill-opacity="0.25"><rect width="0.0232" height="0.0174" x="0.6884" y="-0.1254"/></g><g stroke-width="0.0" stroke="none" fill="rgb(5%, 5%, 5%)" fill-opacity="1.0" font-size="0.0139" text-anchor="start"><text x="0.3354" y="-0.1373">CDCL (α = 0.75, mVISDS, ExpRestart(100, 2))</text></g><g stroke-width="0" stroke="rgb(2%, 29%, 48%)" stroke-opacity="1.0" fill="rgb(38%, 23%, 0%)" fill-opacity="1.0"><rect width="0.0232" height="0.0174" x="0.6884" y="-0.1486"/></g><g stroke-width="0.0" stroke="none" fill="rgb(5%, 5%, 5%)" fill-opacity="1.0" font-size="0.0139" text-anchor="start"><text x="0.3354" y="-0.1605">CDCL (α = 0.75, mVISDS), Baseline</text></g><g stroke-width="0.0002" stroke="rgb(90%, 37%, 58%)" stroke-opacity="1.0" fill="rgb(90%, 37%, 58%)" fill-opacity="0.25"><rect width="0.0232" height="0.0174" x="0.6884" y="-0.1718"/></g><g stroke-width="0.0" stroke="none" fill="rgb(5%, 5%, 5%)" fill-opacity="1.0" font-size="0.0139" text-anchor="start"><text x="0.3354" y="-0.1837">CDCL (α = 0.75, mVISDS)</text></g><g stroke-width="0" stroke="rgb(2%, 29%, 48%)" stroke-opacity="1.0" fill="rgb(90%, 37%, 58%)" fill-opacity="1.0"><rect width="0.0232" height="0.0174" x="0.6884" y="-0.1950"/></g><g stroke-width="0.0" stroke="none" fill="rgb(5%, 5%, 5%)" fill-opacity="1.0" font-size="0.0139" text-anchor="start"><text x="0.3354" y="-0.2069">CDCL (α = 0.75), Baseline</text></g><g stroke-width="0.0002" stroke="rgb(0%, 72%, 98%)" stroke-opacity="1.0" fill="rgb(0%, 72%, 98%)" fill-opacity="0.25"><rect width="0.0232" height="0.0174" x="0.6884" y="-0.2182"/></g><g stroke-width="0.0" stroke="none" fill="rgb(5%, 5%, 5%)" fill-opacity="1.0" font-size="0.0139" text-anchor="start"><text x="0.3354" y="-0.2301">CDCL (α = 0.75)</text></g><g stroke-width="0" stroke="rgb(2%, 29%, 48%)" stroke-opacity="1.0" fill="rgb(0%, 72%, 98%)" fill-opacity="1.0"><rect width="0.0232" height="0.0174" x="0.6884" y="-0.2414"/></g><g stroke-width="0.0" stroke="none" fill="rgb(5%, 5%, 5%)" fill-opacity="1.0" font-size="0.0139" text-anchor="start"><text x="0.3354" y="-0.2533">CDCL (adaptive, mVSIDS), Baseline</text></g><g stroke-width="0.0002" stroke="rgb(1%, 28%, 43%)" stroke-opacity="1.0" fill="rgb(1%, 28%, 43%)" fill-opacity="0.25"><rect width="0.0232" height="0.0174" x="0.6884" y="-0.2646"/></g><g stroke-width="0.0" stroke="none" fill="rgb(5%, 5%, 5%)" fill-opacity="1.0" font-size="0.0139" text-anchor="start"><text x="0.3354" y="-0.2765">CDCL (adaptive, mVSIDS)</text></g><g stroke-width="0" stroke="rgb(2%, 29%, 48%)" stroke-opacity="1.0" fill="rgb(1%, 28%, 43%)" fill-opacity="1.0"><rect width="0.0232" height="0.0174" x="0.6884" y="-0.2878"/></g><g stroke-width="0.0" stroke="none" fill="rgb(5%, 5%, 5%)" fill-opacity="1.0" font-size="0.0139" text-anchor="start"><text x="0.3354" y="-0.2997">CDCL (adaptive, mVISDS, LubyRestart(100, 2)), Baseline</text></g><g stroke-width="0.0002" stroke="rgb(26%, 54%, 57%)" stroke-opacity="1.0" fill="rgb(26%, 54%, 57%)" fill-opacity="0.25"><rect width="0.0232" height="0.0174" x="0.6884" y="-0.3109"/></g><g stroke-width="0.0" stroke="none" fill="rgb(5%, 5%, 5%)" fill-opacity="1.0" font-size="0.0139" text-anchor="start"><text x="0.3354" y="-0.3229">CDCL (adaptive, mVISDS, LubyRestart(100, 2))</text></g><g stroke-width="0" stroke="rgb(2%, 29%, 48%)" stroke-opacity="1.0" fill="rgb(26%, 54%, 57%)" fill-opacity="1.0"><rect width="0.0232" height="0.0174" x="0.6884" y="-0.3342"/></g><g stroke-width="0.0" stroke="none" fill="rgb(5%, 5%, 5%)" fill-opacity="1.0" font-size="0.0139" text-anchor="start"><text x="0.3354" y="-0.3460">CDCL (adaptive, mVISDS, ExpRestart(100, 2)), Baseline</text></g><g stroke-width="0.0002" stroke="rgb(0%, 25%, 37%)" stroke-opacity="1.0" fill="rgb(0%, 25%, 37%)" fill-opacity="0.25"><rect width="0.0232" height="0.0174" x="0.6884" y="-0.3573"/></g><g stroke-width="0.0" stroke="none" fill="rgb(5%, 5%, 5%)" fill-opacity="1.0" font-size="0.0139" text-anchor="start"><text x="0.3354" y="-0.3693">CDCL (adaptive, mVISDS, ExpRestart(100, 2))</text></g><g stroke-width="0" stroke="rgb(2%, 29%, 48%)" stroke-opacity="1.0" fill="rgb(0%, 25%, 37%)" fill-opacity="1.0"><rect width="0.0232" height="0.0174" x="0.6884" y="-0.3805"/></g><g stroke-width="0.0" stroke="none" fill="rgb(5%, 5%, 5%)" fill-opacity="1.0" font-size="0.0139" text-anchor="start"><text x="0.3354" y="-0.3924">CDCL (adaptive), Baseline</text></g><g stroke-width="0.0002" stroke="rgb(0%, 30%, 12%)" stroke-opacity="1.0" fill="rgb(0%, 30%, 12%)" fill-opacity="0.25"><rect width="0.0232" height="0.0174" x="0.6884" y="-0.4037"/></g><g stroke-width="0.0" stroke="none" fill="rgb(5%, 5%, 5%)" fill-opacity="1.0" font-size="0.0139" text-anchor="start"><text x="0.3354" y="-0.4156">CDCL (adaptive)</text></g><g stroke-width="0" stroke="rgb(2%, 29%, 48%)" stroke-opacity="1.0" fill="rgb(0%, 30%, 12%)" fill-opacity="1.0"><rect width="0.0232" height="0.0174" x="0.6884" y="-0.4269"/></g></g></g><g class="frame"><g stroke-width="0" stroke="rgb(0%, 0%, 0%)" stroke-opacity="0" fill="rgb(100%, 100%, 100%)" fill-opacity="0.02"><rect width="1.6180" height="1.0" x="-0.8090" y="-0.5"/></g></g><g class="title"><g stroke-width="0.0" stroke="none" fill="rgb(5%, 5%, 5%)" fill-opacity="1.0" font-size="0.0265" text-anchor="middle"><text x="-0.7464" y="0" transform="rotate(-90.0, -0.7464, 0)">Copied [MiB]</text></g></g></g></svg>