<svg xmlns="http://www.w3.org/2000/svg" xmlns:xlink="http://www.w3.org/1999/xlink" width="461" height="300" viewBox="-0.8090 -0.5 1.6180 1.0518"><style>svg {
  color-scheme: light dark;
}
{
  .canvas g, .title g, .axisbar g, .ticktext g, .tickglyph g, .ticklines g, .legendContent g text {
    fill: rgb(5%, 5%, 5%);
  }
  .ticklines g, .tickglyph g, .legendBorder g {
    stroke: rgb(5%, 5%, 5%);
  }
  .legendBorder g {
    fill: rgb(94%, 94%, 94%);
  }
}
@media (prefers-color-scheme:dark) {
  .canvas g, .title g, .axisbar g, .ticktext g, .tickglyph g, .ticklines g, .legendContent g text {
    fill: rgb(94%, 94%, 94%);
  }
  .ticklines g, .tickglyph g, .legendBorder g {
    stroke: rgb(94%, 94%, 94%);
  }
  .legendBorder g {
    fill: rgb(5%, 5%, 5%);
  }
}</style><g class="chart"><g class="barchart"><g stroke-width="0" stroke="rgb(2%, 29%, 48%)" stroke-opacity="1.0" fill="rgb(0%, 30%, 12%)" fill-opacity="1.0"><rect width="0.0322" height="0.0060" x="-0.5530" y="0.0905"/></g><g stroke-width="0.0010" stroke="rgb(0%, 30%, 12%)" stroke-opacity="1.0" fill="rgb(0%, 30%, 12%)" fill-opacity="0.25"><rect width="0.0322" height="0.0058" x="-0.5208" y="0.0907"/></g><g stroke-width="0" stroke="rgb(2%, 29%, 48%)" stroke-opacity="1.0" fill="rgb(1%, 28%, 43%)" fill-opacity="1.0"><rect width="0.0322" height="0.0676" x="-0.4886" y="0.0289"/></g><g stroke-width="0.0010" stroke="rgb(1%, 28%, 43%)" stroke-opacity="1.0" fill="rgb(1%, 28%, 43%)" fill-opacity="0.25"><rect width="0.0322" height="0.0650" x="-0.4565" y="0.0315"/></g><g stroke-width="0" stroke="rgb(2%, 29%, 48%)" stroke-opacity="1.0" fill="rgb(0%, 72%, 98%)" fill-opacity="1.0"><rect width="0.0322" height="0.0201" x="-0.4243" y="0.0763"/></g><g stroke-width="0.0010" stroke="rgb(0%, 72%, 98%)" stroke-opacity="1.0" fill="rgb(0%, 72%, 98%)" fill-opacity="0.25"><rect width="0.0322" height="0.0195" x="-0.3921" y="0.0769"/></g><g stroke-width="0" stroke="rgb(2%, 29%, 48%)" stroke-opacity="1.0" fill="rgb(90%, 37%, 58%)" fill-opacity="1.0"><rect width="0.0322" height="0.0160" x="-0.3600" y="0.0805"/></g><g stroke-width="0.0010" stroke="rgb(90%, 37%, 58%)" stroke-opacity="1.0" fill="rgb(90%, 37%, 58%)" fill-opacity="0.25"><rect width="0.0322" height="0.0154" x="-0.3278" y="0.0810"/></g><g stroke-width="0" stroke="rgb(2%, 29%, 48%)" stroke-opacity="1.0" fill="rgb(38%, 23%, 0%)" fill-opacity="1.0"><rect width="0.0322" height="0.0397" x="-0.2956" y="0.0567"/></g><g stroke-width="0.0010" stroke="rgb(38%, 23%, 0%)" stroke-opacity="1.0" fill="rgb(38%, 23%, 0%)" fill-opacity="0.25"><rect width="0.0322" height="0.0391" x="-0.2634" y="0.0573"/></g><g stroke-width="0" stroke="rgb(2%, 29%, 48%)" stroke-opacity="1.0" fill="rgb(91%, 19%, 0%)" fill-opacity="1.0"><rect width="0.0322" height="0.0395" x="-0.2313" y="0.0569"/></g><g stroke-width="0.0010" stroke="rgb(91%, 19%, 0%)" stroke-opacity="1.0" fill="rgb(91%, 19%, 0%)" fill-opacity="0.25"><rect width="0.0322" height="0.0391" x="-0.1991" y="0.0574"/></g><g stroke-width="0" stroke="rgb(2%, 29%, 48%)" stroke-opacity="1.0" fill="rgb(0%, 64%, 70%)" fill-opacity="1.0"><rect width="0.0322" height="0.0061" x="-0.1669" y="0.0904"/></g><g stroke-width="0.0010" stroke="rgb(0%, 64%, 70%)" stroke-opacity="1.0" fill="rgb(0%, 64%, 70%)" fill-opacity="0.25"><rect width="0.0322" height="0.0059" x="-0.1347" y="0.0905"/></g><g stroke-width="0" stroke="rgb(2%, 29%, 48%)" stroke-opacity="1.0" fill="rgb(91%, 47%, 0%)" fill-opacity="1.0"><rect width="0.0322" height="0.0254" x="-0.1026" y="0.0710"/></g><g stroke-width="0.0010" stroke="rgb(91%, 47%, 0%)" stroke-opacity="1.0" fill="rgb(91%, 47%, 0%)" fill-opacity="0.25"><rect width="0.0322" height="0.0246" x="-0.0704" y="0.0718"/></g><g stroke-width="0" stroke="rgb(2%, 29%, 48%)" stroke-opacity="1.0" fill="rgb(62%, 0%, 31%)" fill-opacity="1.0"><rect width="0.0322" height="0.0169" x="-0.0382" y="0.0796"/></g><g stroke-width="0.0010" stroke="rgb(62%, 0%, 31%)" stroke-opacity="1.0" fill="rgb(62%, 0%, 31%)" fill-opacity="0.25"><rect width="0.0322" height="0.0161" x="-0.0060" y="0.0804"/></g><g stroke-width="0" stroke="rgb(2%, 29%, 48%)" stroke-opacity="1.0" fill="rgb(17%, 40%, 67%)" fill-opacity="1.0"><rect width="0.0322" height="0.0165" x="0.0261" y="0.0799"/></g><g stroke-width="0.0010" stroke="rgb(17%, 40%, 67%)" stroke-opacity="1.0" fill="rgb(17%, 40%, 67%)" fill-opacity="0.25"><rect width="0.0322" height="0.0164" x="0.0583" y="0.0800"/></g><g stroke-width="0" stroke="rgb(2%, 29%, 48%)" stroke-opacity="1.0" fill="rgb(0%, 52%, 40%)" fill-opacity="1.0"><rect width="0.0322" height="0.3344" x="0.0905" y="-0.2379"/></g><g stroke-width="0.0010" stroke="rgb(0%, 52%, 40%)" stroke-opacity="1.0" fill="rgb(0%, 52%, 40%)" fill-opacity="0.25"><rect width="0.0322" height="0.3329" x="0.1226" y="-0.2364"/></g></g><g class="errors"><g stroke-width="0.0015" stroke="rgb(5%, 5%, 5%)" stroke-opacity="1.0" fill="none"><polyline points="-0.5401,0.0907 -0.5337,0.0907"/><polyline points="-0.5369,0.0907 -0.5369,0.0903"/><polyline points="-0.5401,0.0903 -0.5337,0.0903"/></g><g stroke-width="0.0015" stroke="rgb(5%, 5%, 5%)" stroke-opacity="1.0" fill="none"><polyline points="-0.5079,0.0907 -0.5015,0.0907"/><polyline points="-0.5047,0.0907 -0.5047,0.0906"/><polyline points="-0.5079,0.0906 -0.5015,0.0906"/></g><g stroke-width="0.0015" stroke="rgb(5%, 5%, 5%)" stroke-opacity="1.0" fill="none"><polyline points="-0.4758,0.0292 -0.4693,0.0292"/><polyline points="-0.4726,0.0292 -0.4726,0.0286"/><polyline points="-0.4758,0.0286 -0.4693,0.0286"/></g><g stroke-width="0.0015" stroke="rgb(5%, 5%, 5%)" stroke-opacity="1.0" fill="none"><polyline points="-0.4436,0.0318 -0.4372,0.0318"/><polyline points="-0.4404,0.0318 -0.4404,0.0312"/><polyline points="-0.4436,0.0312 -0.4372,0.0312"/></g><g stroke-width="0.0015" stroke="rgb(5%, 5%, 5%)" stroke-opacity="1.0" fill="none"><polyline points="-0.4114,0.0765 -0.4050,0.0765"/><polyline points="-0.4082,0.0765 -0.4082,0.0761"/><polyline points="-0.4114,0.0761 -0.4050,0.0761"/></g><g stroke-width="0.0015" stroke="rgb(5%, 5%, 5%)" stroke-opacity="1.0" fill="none"><polyline points="-0.3793,0.0772 -0.3728,0.0772"/><polyline points="-0.3760,0.0772 -0.3760,0.0767"/><polyline points="-0.3793,0.0767 -0.3728,0.0767"/></g><g stroke-width="0.0015" stroke="rgb(5%, 5%, 5%)" stroke-opacity="1.0" fill="none"><polyline points="-0.3471,0.0808 -0.3406,0.0808"/><polyline points="-0.3439,0.0808 -0.3439,0.0802"/><polyline points="-0.3471,0.0802 -0.3406,0.0802"/></g><g stroke-width="0.0015" stroke="rgb(5%, 5%, 5%)" stroke-opacity="1.0" fill="none"><polyline points="-0.3149,0.0812 -0.3085,0.0812"/><polyline points="-0.3117,0.0812 -0.3117,0.0808"/><polyline points="-0.3149,0.0808 -0.3085,0.0808"/></g><g stroke-width="0.0015" stroke="rgb(5%, 5%, 5%)" stroke-opacity="1.0" fill="none"><polyline points="-0.2827,0.0572 -0.2763,0.0572"/><polyline points="-0.2795,0.0572 -0.2795,0.0562"/><polyline points="-0.2827,0.0562 -0.2763,0.0562"/></g><g stroke-width="0.0015" stroke="rgb(5%, 5%, 5%)" stroke-opacity="1.0" fill="none"><polyline points="-0.2506,0.0577 -0.2441,0.0577"/><polyline points="-0.2473,0.0577 -0.2473,0.0570"/><polyline points="-0.2506,0.0570 -0.2441,0.0570"/></g><g stroke-width="0.0015" stroke="rgb(5%, 5%, 5%)" stroke-opacity="1.0" fill="none"><polyline points="-0.2184,0.0575 -0.2120,0.0575"/><polyline points="-0.2152,0.0575 -0.2152,0.0563"/><polyline points="-0.2184,0.0563 -0.2120,0.0563"/></g><g stroke-width="0.0015" stroke="rgb(5%, 5%, 5%)" stroke-opacity="1.0" fill="none"><polyline points="-0.1862,0.0579 -0.1798,0.0579"/><polyline points="-0.1830,0.0579 -0.1830,0.0569"/><polyline points="-0.1862,0.0569 -0.1798,0.0569"/></g><g stroke-width="0.0015" stroke="rgb(5%, 5%, 5%)" stroke-opacity="1.0" fill="none"><polyline points="-0.1540,0.0904 -0.1476,0.0904"/><polyline points="-0.1508,0.0904 -0.1508,0.0903"/><polyline points="-0.1540,0.0903 -0.1476,0.0903"/></g><g stroke-width="0.0015" stroke="rgb(5%, 5%, 5%)" stroke-opacity="1.0" fill="none"><polyline points="-0.1219,0.0906 -0.1154,0.0906"/><polyline points="-0.1187,0.0906 -0.1187,0.0905"/><polyline points="-0.1219,0.0905 -0.1154,0.0905"/></g><g stroke-width="0.0015" stroke="rgb(5%, 5%, 5%)" stroke-opacity="1.0" fill="none"><polyline points="-0.0897,0.0713 -0.0833,0.0713"/><polyline points="-0.0865,0.0713 -0.0865,0.0708"/><polyline points="-0.0897,0.0708 -0.0833,0.0708"/></g><g stroke-width="0.0015" stroke="rgb(5%, 5%, 5%)" stroke-opacity="1.0" fill="none"><polyline points="-0.0575,0.0719 -0.0511,0.0719"/><polyline points="-0.0543,0.0719 -0.0543,0.0718"/><polyline points="-0.0575,0.0718 -0.0511,0.0718"/></g><g stroke-width="0.0015" stroke="rgb(5%, 5%, 5%)" stroke-opacity="1.0" fill="none"><polyline points="-0.0253,0.0797 -0.0189,0.0797"/><polyline points="-0.0221,0.0797 -0.0221,0.0794"/><polyline points="-0.0253,0.0794 -0.0189,0.0794"/></g><g stroke-width="0.0015" stroke="rgb(5%, 5%, 5%)" stroke-opacity="1.0" fill="none"><polyline points="0.0068,0.0805 0.0133,0.0805"/><polyline points="0.0100,0.0805 0.0100,0.0802"/><polyline points="0.0068,0.0802 0.0133,0.0802"/></g><g stroke-width="0.0015" stroke="rgb(5%, 5%, 5%)" stroke-opacity="1.0" fill="none"><polyline points="0.0390,0.0801 0.0454,0.0801"/><polyline points="0.0422,0.0801 0.0422,0.0798"/><polyline points="0.0390,0.0798 0.0454,0.0798"/></g><g stroke-width="0.0015" stroke="rgb(5%, 5%, 5%)" stroke-opacity="1.0" fill="none"><polyline points="0.0712,0.0802 0.0776,0.0802"/><polyline points="0.0744,0.0802 0.0744,0.0798"/><polyline points="0.0712,0.0798 0.0776,0.0798"/></g><g stroke-width="0.0015" stroke="rgb(5%, 5%, 5%)" stroke-opacity="1.0" fill="none"><polyline points="0.1033,-0.2361 0.1098,-0.2361"/><polyline points="0.1066,-0.2361 0.1066,-0.2397"/><polyline points="0.1033,-0.2397 0.1098,-0.2397"/></g><g stroke-width="0.0015" stroke="rgb(5%, 5%, 5%)" stroke-opacity="1.0" fill="none"><polyline points="0.1355,-0.2318 0.1420,-0.2318"/><polyline points="0.1387,-0.2318 0.1387,-0.2411"/><polyline points="0.1355,-0.2411 0.1420,-0.2411"/></g></g></g><g class="hud"><g class="axis"><g class="ticks"><g class="tickglyph"><g stroke-width="0.0040" stroke="rgb(5%, 5%, 5%)" stroke-opacity="0.4" fill="rgb(5%, 5%, 5%)" fill-opacity="0.4"><g transform="rotate(-90.0, -0.6069, 0.0965)"><polyline points="-0.6069,0.1115
-0.6069,0.0815"/></g><g transform="rotate(-90.0, -0.6069, 0.0531)"><polyline points="-0.6069,0.0681
-0.6069,0.0381"/></g><g transform="rotate(-90.0, -0.6069, 0.0098)"><polyline points="-0.6069,0.0248
-0.6069,-0.0052"/></g><g transform="rotate(-90.0, -0.6069, -0.0336)"><polyline points="-0.6069,-0.0186
-0.6069,-0.0486"/></g><g transform="rotate(-90.0, -0.6069, -0.0769)"><polyline points="-0.6069,-0.0619
-0.6069,-0.0919"/></g><g transform="rotate(-90.0, -0.6069, -0.1203)"><polyline points="-0.6069,-0.1053
-0.6069,-0.1353"/></g><g transform="rotate(-90.0, -0.6069, -0.1636)"><polyline points="-0.6069,-0.1486
-0.6069,-0.1786"/></g><g transform="rotate(-90.0, -0.6069, -0.2070)"><polyline points="-0.6069,-0.1920
-0.6069,-0.2220"/></g><g transform="rotate(-90.0, -0.6069, -0.2503)"><polyline points="-0.6069,-0.2353
-0.6069,-0.2653"/></g></g></g><g class="ticktext"><g stroke-width="0.0" stroke="none" fill="rgb(5%, 5%, 5%)" fill-opacity="1.0" font-size="0.0243" text-anchor="end"><text x="-0.6244" y="0.1012"> 0</text><text x="-0.6244" y="0.0579"> 5</text><text x="-0.6244" y="0.0145">10</text><text x="-0.6244" y="-0.0288">15</text><text x="-0.6244" y="-0.0722">20</text><text x="-0.6244" y="-0.1155">25</text><text x="-0.6244" y="-0.1589">30</text><text x="-0.6244" y="-0.2022">35</text><text x="-0.6244" y="-0.2455">40</text></g></g><g class="ticklines"><g stroke-width="0.0050" stroke="rgb(5%, 5%, 5%)" stroke-opacity="0.05" fill="none"><polyline points="-0.5923,0.0965 0.1941,0.0965"/><polyline points="-0.5923,0.0531 0.1941,0.0531"/><polyline points="-0.5923,0.0098 0.1941,0.0098"/><polyline points="-0.5923,-0.0336 0.1941,-0.0336"/><polyline points="-0.5923,-0.0769 0.1941,-0.0769"/><polyline points="-0.5923,-0.1203 0.1941,-0.1203"/><polyline points="-0.5923,-0.1636 0.1941,-0.1636"/><polyline points="-0.5923,-0.2070 0.1941,-0.2070"/><polyline points="-0.5923,-0.2503 0.1941,-0.2503"/></g></g></g><g class="axisbar"><g stroke-width="0" stroke="rgb(0%, 0%, 0%)" stroke-opacity="0" fill="rgb(5%, 5%, 5%)" fill-opacity="0.4"><rect width="0.0019" height="0.3482" x="-0.5991" y="-0.2510"/></g></g></g><g class="axis"><g class="ticks"><g class="tickglyph"><g stroke-width="0.0040" stroke="rgb(5%, 5%, 5%)" stroke-opacity="0.4" fill="rgb(5%, 5%, 5%)" fill-opacity="0.4"><polyline points="-0.5369,0.1220
-0.5369,0.0920"/><polyline points="-0.5047,0.1220
-0.5047,0.0920"/><polyline points="-0.4726,0.1220
-0.4726,0.0920"/><polyline points="-0.4404,0.1220
-0.4404,0.0920"/><polyline points="-0.4082,0.1220
-0.4082,0.0920"/><polyline points="-0.3760,0.1220
-0.3760,0.0920"/><polyline points="-0.3439,0.1220
-0.3439,0.0920"/><polyline points="-0.3117,0.1220
-0.3117,0.0920"/><polyline points="-0.2795,0.1220
-0.2795,0.0920"/><polyline points="-0.2473,0.1220
-0.2473,0.0920"/><polyline points="-0.2152,0.1220
-0.2152,0.0920"/><polyline points="-0.1830,0.1220
-0.1830,0.0920"/><polyline points="-0.1508,0.1220
-0.1508,0.0920"/><polyline points="-0.1187,0.1220
-0.1187,0.0920"/><polyline points="-0.0865,0.1220
-0.0865,0.0920"/><polyline points="-0.0543,0.1220
-0.0543,0.0920"/><polyline points="-0.0221,0.1220
-0.0221,0.0920"/><polyline points="0.0100,0.1220
0.0100,0.0920"/><polyline points="0.0422,0.1220
0.0422,0.0920"/><polyline points="0.0744,0.1220
0.0744,0.0920"/><polyline points="0.1066,0.1220
0.1066,0.0920"/><polyline points="0.1387,0.1220
0.1387,0.0920"/></g></g><g class="ticktext"><g stroke-width="0.0" stroke="none" fill="rgb(5%, 5%, 5%)" fill-opacity="1.0" font-size="0.0243" text-anchor="end"><text x="-0.5369" y="0.1291" transform="rotate(-45.0, -0.5369, 0.1291)">CDCL (adaptive)</text><text x="-0.5047" y="0.1291" transform="rotate(-45.0, -0.5047, 0.1291)">CDCL (adaptive), Baseline</text><text x="-0.4726" y="0.1291" transform="rotate(-45.0, -0.4726, 0.1291)">CDCL (adaptive, mVSIDS)</text><text x="-0.4404" y="0.1291" transform="rotate(-45.0, -0.4404, 0.1291)">CDCL (adaptive, mVSIDS), Baseline</text><text x="-0.4082" y="0.1291" transform="rotate(-45.0, -0.4082, 0.1291)">CDCL (α = 0.75)</text><text x="-0.3760" y="0.1291" transform="rotate(-45.0, -0.3760, 0.1291)">CDCL (α = 0.75), Baseline</text><text x="-0.3439" y="0.1291" transform="rotate(-45.0, -0.3439, 0.1291)">CDCL (α = 0.75, mVISDS)</text><text x="-0.3117" y="0.1291" transform="rotate(-45.0, -0.3117, 0.1291)">CDCL (α = 0.75, mVISDS), Baseline</text><text x="-0.2795" y="0.1291" transform="rotate(-45.0, -0.2795, 0.1291)">CDCL (α = 0.75, mVISDS, ExpRestart(100, 2))</text><text x="-0.2473" y="0.1291" transform="rotate(-45.0, -0.2473, 0.1291)">CDCL (α = 0.75, mVISDS, ExpRestart(100, 2)), Baseline</text><text x="-0.2152" y="0.1291" transform="rotate(-45.0, -0.2152, 0.1291)">CDCL (α = 0.75, mVISDS, LubyRestart(100, 2))</text><text x="-0.1830" y="0.1291" transform="rotate(-45.0, -0.1830, 0.1291)">CDCL (α = 0.75, mVISDS, LubyRestart(100, 2)), Baseline</text><text x="-0.1508" y="0.1291" transform="rotate(-45.0, -0.1508, 0.1291)">CDCL (α = 0.95)</text><text x="-0.1187" y="0.1291" transform="rotate(-45.0, -0.1187, 0.1291)">CDCL (α = 0.95), Baseline</text><text x="-0.0865" y="0.1291" transform="rotate(-45.0, -0.0865, 0.1291)">CDCL (α = 0.95, mVISDS)</text><text x="-0.0543" y="0.1291" transform="rotate(-45.0, -0.0543, 0.1291)">CDCL (α = 0.95, mVISDS), Baseline</text><text x="-0.0221" y="0.1291" transform="rotate(-45.0, -0.0221, 0.1291)">CDCL (α = 0.95, mVISDS, ExpRestart(100, 2))</text><text x="0.0100" y="0.1291" transform="rotate(-45.0, 0.0100, 0.1291)">CDCL (α = 0.95, mVISDS, ExpRestart(100, 2)), Baseline</text><text x="0.0422" y="0.1291" transform="rotate(-45.0, 0.0422, 0.1291)">CDCL (α = 0.95, mVISDS, LubyRestart(100, 2))</text><text x="0.0744" y="0.1291" transform="rotate(-45.0, 0.0744, 0.1291)">CDCL (α = 0.95, mVISDS, LubyRestart(100, 2)), Baseline</text><text x="0.1066" y="0.1291" transform="rotate(-45.0, 0.1066, 0.1291)">DPLL</text><text x="0.1387" y="0.1291" transform="rotate(-45.0, 0.1387, 0.1291)">DPLL, Baseline</text></g></g></g><g class="axisbar"><g stroke-width="0" stroke="rgb(0%, 0%, 0%)" stroke-opacity="0" fill="rgb(5%, 5%, 5%)" fill-opacity="0.4"><rect width="0.7884" height="0.0014" x="-0.5933" y="0.1001"/></g></g></g><g class="title"><g stroke-width="0.0" stroke="none" fill="rgb(5%, 5%, 5%)" fill-opacity="1.0" font-size="0.0583" text-anchor="middle"><text x="-0.2582" y="-0.2858">Time: SATLIB/Bejing/3blocks/cnf</text></g></g><g class="legend"><g class="legendBorder"><g stroke-width="0.0017" stroke="rgb(5%, 5%, 5%)" stroke-opacity="1.0" fill="rgb(5%, 5%, 5%)" fill-opacity="0"><rect width="0.4316" height="0.5411" x="0.2785" y="-0.4294"/></g></g><g class="legendContent"><g stroke-width="0.0" stroke="none" fill="rgb(5%, 5%, 5%)" fill-opacity="1.0" font-size="0.0153" text-anchor="start"><text x="0.2870" y="0.0992">DPLL, Baseline</text></g><g stroke-width="0.0002" stroke="rgb(0%, 52%, 40%)" stroke-opacity="1.0" fill="rgb(0%, 52%, 40%)" fill-opacity="0.25"><rect width="0.0255" height="0.0182" x="0.6760" y="0.0874"/></g><g stroke-width="0.0" stroke="none" fill="rgb(5%, 5%, 5%)" fill-opacity="1.0" font-size="0.0153" text-anchor="start"><text x="0.2870" y="0.0749">DPLL</text></g><g stroke-width="0" stroke="rgb(2%, 29%, 48%)" stroke-opacity="1.0" fill="rgb(0%, 52%, 40%)" fill-opacity="1.0"><rect width="0.0255" height="0.0182" x="0.6760" y="0.0630"/></g><g stroke-width="0.0" stroke="none" fill="rgb(5%, 5%, 5%)" fill-opacity="1.0" font-size="0.0153" text-anchor="start"><text x="0.2870" y="0.0505">CDCL (α = 0.95, mVISDS, LubyRestart(100, 2)), Baseline</text></g><g stroke-width="0.0002" stroke="rgb(17%, 40%, 67%)" stroke-opacity="1.0" fill="rgb(17%, 40%, 67%)" fill-opacity="0.25"><rect width="0.0255" height="0.0182" x="0.6760" y="0.0387"/></g><g stroke-width="0.0" stroke="none" fill="rgb(5%, 5%, 5%)" fill-opacity="1.0" font-size="0.0153" text-anchor="start"><text x="0.2870" y="0.0262">CDCL (α = 0.95, mVISDS, LubyRestart(100, 2))</text></g><g stroke-width="0" stroke="rgb(2%, 29%, 48%)" stroke-opacity="1.0" fill="rgb(17%, 40%, 67%)" fill-opacity="1.0"><rect width="0.0255" height="0.0182" x="0.6760" y="0.0144"/></g><g stroke-width="0.0" stroke="none" fill="rgb(5%, 5%, 5%)" fill-opacity="1.0" font-size="0.0153" text-anchor="start"><text x="0.2870" y="0.0019">CDCL (α = 0.95, mVISDS, ExpRestart(100, 2)), Baseline</text></g><g stroke-width="0.0002" stroke="rgb(62%, 0%, 31%)" stroke-opacity="1.0" fill="rgb(62%, 0%, 31%)" fill-opacity="0.25"><rect width="0.0255" height="0.0182" x="0.6760" y="-0.0099"/></g><g stroke-width="0.0" stroke="none" fill="rgb(5%, 5%, 5%)" fill-opacity="1.0" font-size="0.0153" text-anchor="start"><text x="0.2870" y="-0.0224">CDCL (α = 0.95, mVISDS, ExpRestart(100, 2))</text></g><g stroke-width="0" stroke="rgb(2%, 29%, 48%)" stroke-opacity="1.0" fill="rgb(62%, 0%, 31%)" fill-opacity="1.0"><rect width="0.0255" height="0.0182" x="0.6760" y="-0.0343"/></g><g stroke-width="0.0" stroke="none" fill="rgb(5%, 5%, 5%)" fill-opacity="1.0" font-size="0.0153" text-anchor="start"><text x="0.2870" y="-0.0467">CDCL (α = 0.95, mVISDS), Baseline</text></g><g stroke-width="0.0002" stroke="rgb(91%, 47%, 0%)" stroke-opacity="1.0" fill="rgb(91%, 47%, 0%)" fill-opacity="0.25"><rect width="0.0255" height="0.0182" x="0.6760" y="-0.0586"/></g><g stroke-width="0.0" stroke="none" fill="rgb(5%, 5%, 5%)" fill-opacity="1.0" font-size="0.0153" text-anchor="start"><text x="0.2870" y="-0.0711">CDCL (α = 0.95, mVISDS)</text></g><g stroke-width="0" stroke="rgb(2%, 29%, 48%)" stroke-opacity="1.0" fill="rgb(91%, 47%, 0%)" fill-opacity="1.0"><rect width="0.0255" height="0.0182" x="0.6760" y="-0.0829"/></g><g stroke-width="0.0" stroke="none" fill="rgb(5%, 5%, 5%)" fill-opacity="1.0" font-size="0.0153" text-anchor="start"><text x="0.2870" y="-0.0954">CDCL (α = 0.95), Baseline</text></g><g stroke-width="0.0002" stroke="rgb(0%, 64%, 70%)" stroke-opacity="1.0" fill="rgb(0%, 64%, 70%)" fill-opacity="0.25"><rect width="0.0255" height="0.0182" x="0.6760" y="-0.1072"/></g><g stroke-width="0.0" stroke="none" fill="rgb(5%, 5%, 5%)" fill-opacity="1.0" font-size="0.0153" text-anchor="start"><text x="0.2870" y="-0.1197">CDCL (α = 0.95)</text></g><g stroke-width="0" stroke="rgb(2%, 29%, 48%)" stroke-opacity="1.0" fill="rgb(0%, 64%, 70%)" fill-opacity="1.0"><rect width="0.0255" height="0.0182" x="0.6760" y="-0.1315"/></g><g stroke-width="0.0" stroke="none" fill="rgb(5%, 5%, 5%)" fill-opacity="1.0" font-size="0.0153" text-anchor="start"><text x="0.2870" y="-0.1440">CDCL (α = 0.75, mVISDS, LubyRestart(100, 2)), Baseline</text></g><g stroke-width="0.0002" stroke="rgb(91%, 19%, 0%)" stroke-opacity="1.0" fill="rgb(91%, 19%, 0%)" fill-opacity="0.25"><rect width="0.0255" height="0.0182" x="0.6760" y="-0.1558"/></g><g stroke-width="0.0" stroke="none" fill="rgb(5%, 5%, 5%)" fill-opacity="1.0" font-size="0.0153" text-anchor="start"><text x="0.2870" y="-0.1683">CDCL (α = 0.75, mVISDS, LubyRestart(100, 2))</text></g><g stroke-width="0" stroke="rgb(2%, 29%, 48%)" stroke-opacity="1.0" fill="rgb(91%, 19%, 0%)" fill-opacity="1.0"><rect width="0.0255" height="0.0182" x="0.6760" y="-0.1802"/></g><g stroke-width="0.0" stroke="none" fill="rgb(5%, 5%, 5%)" fill-opacity="1.0" font-size="0.0153" text-anchor="start"><text x="0.2870" y="-0.1926">CDCL (α = 0.75, mVISDS, ExpRestart(100, 2)), Baseline</text></g><g stroke-width="0.0002" stroke="rgb(38%, 23%, 0%)" stroke-opacity="1.0" fill="rgb(38%, 23%, 0%)" fill-opacity="0.25"><rect width="0.0255" height="0.0182" x="0.6760" y="-0.2045"/></g><g stroke-width="0.0" stroke="none" fill="rgb(5%, 5%, 5%)" fill-opacity="1.0" font-size="0.0153" text-anchor="start"><text x="0.2870" y="-0.2170">CDCL (α = 0.75, mVISDS, ExpRestart(100, 2))</text></g><g stroke-width="0" stroke="rgb(2%, 29%, 48%)" stroke-opacity="1.0" fill="rgb(38%, 23%, 0%)" fill-opacity="1.0"><rect width="0.0255" height="0.0182" x="0.6760" y="-0.2288"/></g><g stroke-width="0.0" stroke="none" fill="rgb(5%, 5%, 5%)" fill-opacity="1.0" font-size="0.0153" text-anchor="start"><text x="0.2870" y="-0.2413">CDCL (α = 0.75, mVISDS), Baseline</text></g><g stroke-width="0.0002" stroke="rgb(90%, 37%, 58%)" stroke-opacity="1.0" fill="rgb(90%, 37%, 58%)" fill-opacity="0.25"><rect width="0.0255" height="0.0182" x="0.6760" y="-0.2531"/></g><g stroke-width="0.0" stroke="none" fill="rgb(5%, 5%, 5%)" fill-opacity="1.0" font-size="0.0153" text-anchor="start"><text x="0.2870" y="-0.2656">CDCL (α = 0.75, mVISDS)</text></g><g stroke-width="0" stroke="rgb(2%, 29%, 48%)" stroke-opacity="1.0" fill="rgb(90%, 37%, 58%)" fill-opacity="1.0"><rect width="0.0255" height="0.0182" x="0.6760" y="-0.2775"/></g><g stroke-width="0.0" stroke="none" fill="rgb(5%, 5%, 5%)" fill-opacity="1.0" font-size="0.0153" text-anchor="start"><text x="0.2870" y="-0.2899">CDCL (α = 0.75), Baseline</text></g><g stroke-width="0.0002" stroke="rgb(0%, 72%, 98%)" stroke-opacity="1.0" fill="rgb(0%, 72%, 98%)" fill-opacity="0.25"><rect width="0.0255" height="0.0182" x="0.6760" y="-0.3018"/></g><g stroke-width="0.0" stroke="none" fill="rgb(5%, 5%, 5%)" fill-opacity="1.0" font-size="0.0153" text-anchor="start"><text x="0.2870" y="-0.3143">CDCL (α = 0.75)</text></g><g stroke-width="0" stroke="rgb(2%, 29%, 48%)" stroke-opacity="1.0" fill="rgb(0%, 72%, 98%)" fill-opacity="1.0"><rect width="0.0255" height="0.0182" x="0.6760" y="-0.3261"/></g><g stroke-width="0.0" stroke="none" fill="rgb(5%, 5%, 5%)" fill-opacity="1.0" font-size="0.0153" text-anchor="start"><text x="0.2870" y="-0.3386">CDCL (adaptive, mVSIDS), Baseline</text></g><g stroke-width="0.0002" stroke="rgb(1%, 28%, 43%)" stroke-opacity="1.0" fill="rgb(1%, 28%, 43%)" fill-opacity="0.25"><rect width="0.0255" height="0.0182" x="0.6760" y="-0.3504"/></g><g stroke-width="0.0" stroke="none" fill="rgb(5%, 5%, 5%)" fill-opacity="1.0" font-size="0.0153" text-anchor="start"><text x="0.2870" y="-0.3629">CDCL (adaptive, mVSIDS)</text></g><g stroke-width="0" stroke="rgb(2%, 29%, 48%)" stroke-opacity="1.0" fill="rgb(1%, 28%, 43%)" fill-opacity="1.0"><rect width="0.0255" height="0.0182" x="0.6760" y="-0.3747"/></g><g stroke-width="0.0" stroke="none" fill="rgb(5%, 5%, 5%)" fill-opacity="1.0" font-size="0.0153" text-anchor="start"><text x="0.2870" y="-0.3872">CDCL (adaptive), Baseline</text></g><g stroke-width="0.0002" stroke="rgb(0%, 30%, 12%)" stroke-opacity="1.0" fill="rgb(0%, 30%, 12%)" fill-opacity="0.25"><rect width="0.0255" height="0.0182" x="0.6760" y="-0.3990"/></g><g stroke-width="0.0" stroke="none" fill="rgb(5%, 5%, 5%)" fill-opacity="1.0" font-size="0.0153" text-anchor="start"><text x="0.2870" y="-0.4115">CDCL (adaptive)</text></g><g stroke-width="0" stroke="rgb(2%, 29%, 48%)" stroke-opacity="1.0" fill="rgb(0%, 30%, 12%)" fill-opacity="1.0"><rect width="0.0255" height="0.0182" x="0.6760" y="-0.4234"/></g></g></g><g class="frame"><g stroke-width="0" stroke="rgb(0%, 0%, 0%)" stroke-opacity="0" fill="rgb(100%, 100%, 100%)" fill-opacity="0.02"><rect width="1.6180" height="1.0" x="-0.8090" y="-0.5"/></g></g><g class="title"><g stroke-width="0.0" stroke="none" fill="rgb(5%, 5%, 5%)" fill-opacity="1.0" font-size="0.0292" text-anchor="middle"><text x="-0.7400" y="0" transform="rotate(-90.0, -0.7400, 0)">Time [s]</text></g></g></g></svg>