<svg xmlns="http://www.w3.org/2000/svg" xmlns:xlink="http://www.w3.org/1999/xlink" width="470" height="300" viewBox="-0.8090 -0.5 1.6180 1.0306"><style>svg {
  color-scheme: light dark;
}
{
  .canvas g, .title g, .axisbar g, .ticktext g, .tickglyph g, .ticklines g, .legendContent g text {
    fill: rgb(5%, 5%, 5%);
  }
  .ticklines g, .tickglyph g, .legendBorder g {
    stroke: rgb(5%, 5%, 5%);
  }
  .legendBorder g {
    fill: rgb(94%, 94%, 94%);
  }
}
@media (prefers-color-scheme:dark) {
  .canvas g, .title g, .axisbar g, .ticktext g, .tickglyph g, .ticklines g, .legendContent g text {
    fill: rgb(94%, 94%, 94%);
  }
  .ticklines g, .tickglyph g, .legendBorder g {
    stroke: rgb(94%, 94%, 94%);
  }
  .legendBorder g {
    fill: rgb(5%, 5%, 5%);
  }
}</style><g class="chart"><g class="barchart"><g stroke-width="0" stroke="rgb(2%, 29%, 48%)" stroke-opacity="1.0" fill="rgb(0%, 30%, 12%)" fill-opacity="1.0"><rect width="0.0268" height="0.2396" x="-0.4293" y="-0.1244"/></g><g stroke-width="0.0010" stroke="rgb(0%, 30%, 12%)" stroke-opacity="1.0" fill="rgb(0%, 30%, 12%)" fill-opacity="0.25"><rect width="0.0268" height="0.2724" x="-0.4025" y="-0.1573"/></g><g stroke-width="0" stroke="rgb(2%, 29%, 48%)" stroke-opacity="1.0" fill="rgb(0%, 25%, 37%)" fill-opacity="1.0"><rect width="0.0268" height="0.0746" x="-0.3757" y="0.0406"/></g><g stroke-width="0.0010" stroke="rgb(0%, 25%, 37%)" stroke-opacity="1.0" fill="rgb(0%, 25%, 37%)" fill-opacity="0.25"><rect width="0.0268" height="0.0862" x="-0.3489" y="0.0290"/></g><g stroke-width="0" stroke="rgb(2%, 29%, 48%)" stroke-opacity="1.0" fill="rgb(26%, 54%, 57%)" fill-opacity="1.0"><rect width="0.0268" height="0.0749" x="-0.3221" y="0.0403"/></g><g stroke-width="0.0010" stroke="rgb(26%, 54%, 57%)" stroke-opacity="1.0" fill="rgb(26%, 54%, 57%)" fill-opacity="0.25"><rect width="0.0268" height="0.0886" x="-0.2953" y="0.0265"/></g><g stroke-width="0" stroke="rgb(2%, 29%, 48%)" stroke-opacity="1.0" fill="rgb(1%, 28%, 43%)" fill-opacity="1.0"><rect width="0.0268" height="0.0730" x="-0.2684" y="0.0422"/></g><g stroke-width="0.0010" stroke="rgb(1%, 28%, 43%)" stroke-opacity="1.0" fill="rgb(1%, 28%, 43%)" fill-opacity="0.25"><rect width="0.0268" height="0.0882" x="-0.2416" y="0.0270"/></g><g stroke-width="0" stroke="rgb(2%, 29%, 48%)" stroke-opacity="1.0" fill="rgb(0%, 72%, 98%)" fill-opacity="1.0"><rect width="0.0268" height="0.2731" x="-0.2148" y="-0.1579"/></g><g stroke-width="0.0010" stroke="rgb(0%, 72%, 98%)" stroke-opacity="1.0" fill="rgb(0%, 72%, 98%)" fill-opacity="0.25"><rect width="0.0268" height="0.3070" x="-0.1880" y="-0.1919"/></g><g stroke-width="0" stroke="rgb(2%, 29%, 48%)" stroke-opacity="1.0" fill="rgb(90%, 37%, 58%)" fill-opacity="1.0"><rect width="0.0268" height="0.1265" x="-0.1612" y="-0.0113"/></g><g stroke-width="0.0010" stroke="rgb(90%, 37%, 58%)" stroke-opacity="1.0" fill="rgb(90%, 37%, 58%)" fill-opacity="0.25"><rect width="0.0268" height="0.1525" x="-0.1344" y="-0.0374"/></g><g stroke-width="0" stroke="rgb(2%, 29%, 48%)" stroke-opacity="1.0" fill="rgb(38%, 23%, 0%)" fill-opacity="1.0"><rect width="0.0268" height="0.1146" x="-0.1076" y="0.0006"/></g><g stroke-width="0.0010" stroke="rgb(38%, 23%, 0%)" stroke-opacity="1.0" fill="rgb(38%, 23%, 0%)" fill-opacity="0.25"><rect width="0.0268" height="0.1432" x="-0.0807" y="-0.0281"/></g><g stroke-width="0" stroke="rgb(2%, 29%, 48%)" stroke-opacity="1.0" fill="rgb(91%, 19%, 0%)" fill-opacity="1.0"><rect width="0.0268" height="0.1186" x="-0.0539" y="-0.0034"/></g><g stroke-width="0.0010" stroke="rgb(91%, 19%, 0%)" stroke-opacity="1.0" fill="rgb(91%, 19%, 0%)" fill-opacity="0.25"><rect width="0.0268" height="0.1423" x="-0.0271" y="-0.0271"/></g><g stroke-width="0" stroke="rgb(2%, 29%, 48%)" stroke-opacity="1.0" fill="rgb(0%, 64%, 70%)" fill-opacity="1.0"><rect width="0.0268" height="0.2175" x="-0.0003" y="-0.1023"/></g><g stroke-width="0.0010" stroke="rgb(0%, 64%, 70%)" stroke-opacity="1.0" fill="rgb(0%, 64%, 70%)" fill-opacity="0.25"><rect width="0.0268" height="0.2557" x="0.0265" y="-0.1405"/></g><g stroke-width="0" stroke="rgb(2%, 29%, 48%)" stroke-opacity="1.0" fill="rgb(91%, 47%, 0%)" fill-opacity="1.0"><rect width="0.0268" height="0.0977" x="0.0533" y="0.0175"/></g><g stroke-width="0.0010" stroke="rgb(91%, 47%, 0%)" stroke-opacity="1.0" fill="rgb(91%, 47%, 0%)" fill-opacity="0.25"><rect width="0.0268" height="0.1161" x="0.0801" y="-0.0009"/></g><g stroke-width="0" stroke="rgb(2%, 29%, 48%)" stroke-opacity="1.0" fill="rgb(62%, 0%, 31%)" fill-opacity="1.0"><rect width="0.0268" height="0.1217" x="0.1070" y="-0.0065"/></g><g stroke-width="0.0010" stroke="rgb(62%, 0%, 31%)" stroke-opacity="1.0" fill="rgb(62%, 0%, 31%)" fill-opacity="0.25"><rect width="0.0268" height="0.1380" x="0.1338" y="-0.0228"/></g><g stroke-width="0" stroke="rgb(2%, 29%, 48%)" stroke-opacity="1.0" fill="rgb(17%, 40%, 67%)" fill-opacity="1.0"><rect width="0.0268" height="0.1218" x="0.1606" y="-0.0067"/></g><g stroke-width="0.0010" stroke="rgb(17%, 40%, 67%)" stroke-opacity="1.0" fill="rgb(17%, 40%, 67%)" fill-opacity="0.25"><rect width="0.0268" height="0.1418" x="0.1874" y="-0.0266"/></g></g><g class="errors"><g stroke-width="0.0015" stroke="rgb(5%, 5%, 5%)" stroke-opacity="1.0" fill="none"><polyline points="-0.4186,-0.1191 -0.4132,-0.1191"/><polyline points="-0.4159,-0.1191 -0.4159,-0.1298"/><polyline points="-0.4186,-0.1298 -0.4132,-0.1298"/></g><g stroke-width="0.0015" stroke="rgb(5%, 5%, 5%)" stroke-opacity="1.0" fill="none"><polyline points="-0.3918,-0.1487 -0.3864,-0.1487"/><polyline points="-0.3891,-0.1487 -0.3891,-0.1658"/><polyline points="-0.3918,-0.1658 -0.3864,-0.1658"/></g><g stroke-width="0.0015" stroke="rgb(5%, 5%, 5%)" stroke-opacity="1.0" fill="none"><polyline points="-0.3650,0.0411 -0.3596,0.0411"/><polyline points="-0.3623,0.0411 -0.3623,0.0400"/><polyline points="-0.3650,0.0400 -0.3596,0.0400"/></g><g stroke-width="0.0015" stroke="rgb(5%, 5%, 5%)" stroke-opacity="1.0" fill="none"><polyline points="-0.3382,0.0307 -0.3328,0.0307"/><polyline points="-0.3355,0.0307 -0.3355,0.0273"/><polyline points="-0.3382,0.0273 -0.3328,0.0273"/></g><g stroke-width="0.0015" stroke="rgb(5%, 5%, 5%)" stroke-opacity="1.0" fill="none"><polyline points="-0.3114,0.0410 -0.3060,0.0410"/><polyline points="-0.3087,0.0410 -0.3087,0.0395"/><polyline points="-0.3114,0.0395 -0.3060,0.0395"/></g><g stroke-width="0.0015" stroke="rgb(5%, 5%, 5%)" stroke-opacity="1.0" fill="none"><polyline points="-0.2845,0.0280 -0.2792,0.0280"/><polyline points="-0.2819,0.0280 -0.2819,0.0251"/><polyline points="-0.2845,0.0251 -0.2792,0.0251"/></g><g stroke-width="0.0015" stroke="rgb(5%, 5%, 5%)" stroke-opacity="1.0" fill="none"><polyline points="-0.2577,0.0432 -0.2524,0.0432"/><polyline points="-0.2550,0.0432 -0.2550,0.0412"/><polyline points="-0.2577,0.0412 -0.2524,0.0412"/></g><g stroke-width="0.0015" stroke="rgb(5%, 5%, 5%)" stroke-opacity="1.0" fill="none"><polyline points="-0.2309,0.0275 -0.2255,0.0275"/><polyline points="-0.2282,0.0275 -0.2282,0.0265"/><polyline points="-0.2309,0.0265 -0.2255,0.0265"/></g><g stroke-width="0.0015" stroke="rgb(5%, 5%, 5%)" stroke-opacity="1.0" fill="none"><polyline points="-0.2041,-0.1486 -0.1987,-0.1486"/><polyline points="-0.2014,-0.1486 -0.2014,-0.1672"/><polyline points="-0.2041,-0.1672 -0.1987,-0.1672"/></g><g stroke-width="0.0015" stroke="rgb(5%, 5%, 5%)" stroke-opacity="1.0" fill="none"><polyline points="-0.1773,-0.1844 -0.1719,-0.1844"/><polyline points="-0.1746,-0.1844 -0.1746,-0.1993"/><polyline points="-0.1773,-0.1993 -0.1719,-0.1993"/></g><g stroke-width="0.0015" stroke="rgb(5%, 5%, 5%)" stroke-opacity="1.0" fill="none"><polyline points="-0.1505,-0.0108 -0.1451,-0.0108"/><polyline points="-0.1478,-0.0108 -0.1478,-0.0118"/><polyline points="-0.1505,-0.0118 -0.1451,-0.0118"/></g><g stroke-width="0.0015" stroke="rgb(5%, 5%, 5%)" stroke-opacity="1.0" fill="none"><polyline points="-0.1236,-0.0368 -0.1183,-0.0368"/><polyline points="-0.1210,-0.0368 -0.1210,-0.0380"/><polyline points="-0.1236,-0.0380 -0.1183,-0.0380"/></g><g stroke-width="0.0015" stroke="rgb(5%, 5%, 5%)" stroke-opacity="1.0" fill="none"><polyline points="-0.0968,0.0015 -0.0915,0.0015"/><polyline points="-0.0942,0.0015 -0.0942,-0.0004"/><polyline points="-0.0968,-0.0004 -0.0915,-0.0004"/></g><g stroke-width="0.0015" stroke="rgb(5%, 5%, 5%)" stroke-opacity="1.0" fill="none"><polyline points="-0.0700,-0.0235 -0.0647,-0.0235"/><polyline points="-0.0673,-0.0235 -0.0673,-0.0327"/><polyline points="-0.0700,-0.0327 -0.0647,-0.0327"/></g><g stroke-width="0.0015" stroke="rgb(5%, 5%, 5%)" stroke-opacity="1.0" fill="none"><polyline points="-0.0432,0.0019 -0.0378,0.0019"/><polyline points="-0.0405,0.0019 -0.0405,-0.0087"/><polyline points="-0.0432,-0.0087 -0.0378,-0.0087"/></g><g stroke-width="0.0015" stroke="rgb(5%, 5%, 5%)" stroke-opacity="1.0" fill="none"><polyline points="-0.0164,-0.0263 -0.0110,-0.0263"/><polyline points="-0.0137,-0.0263 -0.0137,-0.0280"/><polyline points="-0.0164,-0.0280 -0.0110,-0.0280"/></g><g stroke-width="0.0015" stroke="rgb(5%, 5%, 5%)" stroke-opacity="1.0" fill="none"><polyline points="0.0104,-0.0968 0.0158,-0.0968"/><polyline points="0.0131,-0.0968 0.0131,-0.1079"/><polyline points="0.0104,-0.1079 0.0158,-0.1079"/></g><g stroke-width="0.0015" stroke="rgb(5%, 5%, 5%)" stroke-opacity="1.0" fill="none"><polyline points="0.0372,-0.1380 0.0426,-0.1380"/><polyline points="0.0399,-0.1380 0.0399,-0.1431"/><polyline points="0.0372,-0.1431 0.0426,-0.1431"/></g><g stroke-width="0.0015" stroke="rgb(5%, 5%, 5%)" stroke-opacity="1.0" fill="none"><polyline points="0.0641,0.0202 0.0694,0.0202"/><polyline points="0.0667,0.0202 0.0667,0.0147"/><polyline points="0.0641,0.0147 0.0694,0.0147"/></g><g stroke-width="0.0015" stroke="rgb(5%, 5%, 5%)" stroke-opacity="1.0" fill="none"><polyline points="0.0909,0.0017 0.0962,0.0017"/><polyline points="0.0935,0.0017 0.0935,-0.0035"/><polyline points="0.0909,-0.0035 0.0962,-0.0035"/></g><g stroke-width="0.0015" stroke="rgb(5%, 5%, 5%)" stroke-opacity="1.0" fill="none"><polyline points="0.1177,-0.0050 0.1230,-0.0050"/><polyline points="0.1204,-0.0050 0.1204,-0.0081"/><polyline points="0.1177,-0.0081 0.1230,-0.0081"/></g><g stroke-width="0.0015" stroke="rgb(5%, 5%, 5%)" stroke-opacity="1.0" fill="none"><polyline points="0.1445,-0.0213 0.1499,-0.0213"/><polyline points="0.1472,-0.0213 0.1472,-0.0243"/><polyline points="0.1445,-0.0243 0.1499,-0.0243"/></g><g stroke-width="0.0015" stroke="rgb(5%, 5%, 5%)" stroke-opacity="1.0" fill="none"><polyline points="0.1713,-0.0035 0.1767,-0.0035"/><polyline points="0.1740,-0.0035 0.1740,-0.0098"/><polyline points="0.1713,-0.0098 0.1767,-0.0098"/></g><g stroke-width="0.0015" stroke="rgb(5%, 5%, 5%)" stroke-opacity="1.0" fill="none"><polyline points="0.1981,-0.0238 0.2035,-0.0238"/><polyline points="0.2008,-0.0238 0.2008,-0.0294"/><polyline points="0.1981,-0.0294 0.2035,-0.0294"/></g></g></g><g class="hud"><g class="axis"><g class="ticks"><g class="tickglyph"><g stroke-width="0.0040" stroke="rgb(5%, 5%, 5%)" stroke-opacity="0.4" fill="rgb(5%, 5%, 5%)" fill-opacity="0.4"><g transform="rotate(-90.0, -0.4783, 0.1152)"><polyline points="-0.4783,0.1302
-0.4783,0.1002"/></g><g transform="rotate(-90.0, -0.4783, 0.0851)"><polyline points="-0.4783,0.1001
-0.4783,0.0701"/></g><g transform="rotate(-90.0, -0.4783, 0.0550)"><polyline points="-0.4783,0.0700
-0.4783,0.0400"/></g><g transform="rotate(-90.0, -0.4783, 0.0250)"><polyline points="-0.4783,0.0400
-0.4783,0.0100"/></g><g transform="rotate(-90.0, -0.4783, -0.0051)"><polyline points="-0.4783,0.0099
-0.4783,-0.0201"/></g><g transform="rotate(-90.0, -0.4783, -0.0351)"><polyline points="-0.4783,-0.0201
-0.4783,-0.0501"/></g><g transform="rotate(-90.0, -0.4783, -0.0652)"><polyline points="-0.4783,-0.0502
-0.4783,-0.0802"/></g><g transform="rotate(-90.0, -0.4783, -0.0953)"><polyline points="-0.4783,-0.0803
-0.4783,-0.1103"/></g><g transform="rotate(-90.0, -0.4783, -0.1253)"><polyline points="-0.4783,-0.1103
-0.4783,-0.1403"/></g><g transform="rotate(-90.0, -0.4783, -0.1554)"><polyline points="-0.4783,-0.1404
-0.4783,-0.1704"/></g><g transform="rotate(-90.0, -0.4783, -0.1854)"><polyline points="-0.4783,-0.1704
-0.4783,-0.2004"/></g><g transform="rotate(-90.0, -0.4783, -0.2155)"><polyline points="-0.4783,-0.2005
-0.4783,-0.2305"/></g></g></g><g class="ticktext"><g stroke-width="0.0" stroke="none" fill="rgb(5%, 5%, 5%)" fill-opacity="1.0" font-size="0.0221" text-anchor="end"><text x="-0.4943" y="0.1197">    0</text><text x="-0.4943" y="0.0897">  100</text><text x="-0.4943" y="0.0596">  200</text><text x="-0.4943" y="0.0295">  300</text><text x="-0.4943" y="-0.0005">  400</text><text x="-0.4943" y="-0.0306">  500</text><text x="-0.4943" y="-0.0607">  600</text><text x="-0.4943" y="-0.0907">  700</text><text x="-0.4943" y="-0.1208">  800</text><text x="-0.4943" y="-0.1508">  900</text><text x="-0.4943" y="-0.1809">1,000</text><text x="-0.4943" y="-0.2110">1,100</text></g></g><g class="ticklines"><g stroke-width="0.0050" stroke="rgb(5%, 5%, 5%)" stroke-opacity="0.05" fill="none"><polyline points="-0.4651,0.1152 0.2500,0.1152"/><polyline points="-0.4651,0.0851 0.2500,0.0851"/><polyline points="-0.4651,0.0550 0.2500,0.0550"/><polyline points="-0.4651,0.0250 0.2500,0.0250"/><polyline points="-0.4651,-0.0051 0.2500,-0.0051"/><polyline points="-0.4651,-0.0351 0.2500,-0.0351"/><polyline points="-0.4651,-0.0652 0.2500,-0.0652"/><polyline points="-0.4651,-0.0953 0.2500,-0.0953"/><polyline points="-0.4651,-0.1253 0.2500,-0.1253"/><polyline points="-0.4651,-0.1554 0.2500,-0.1554"/><polyline points="-0.4651,-0.1854 0.2500,-0.1854"/><polyline points="-0.4651,-0.2155 0.2500,-0.2155"/></g></g></g><g class="axisbar"><g stroke-width="0" stroke="rgb(0%, 0%, 0%)" stroke-opacity="0" fill="rgb(5%, 5%, 5%)" fill-opacity="0.4"><rect width="0.0018" height="0.3320" x="-0.4713" y="-0.2162"/></g></g></g><g class="axis"><g class="ticks"><g class="tickglyph"><g stroke-width="0.0040" stroke="rgb(5%, 5%, 5%)" stroke-opacity="0.4" fill="rgb(5%, 5%, 5%)" fill-opacity="0.4"><polyline points="-0.4159,0.1403
-0.4159,0.1103"/><polyline points="-0.3891,0.1403
-0.3891,0.1103"/><polyline points="-0.3623,0.1403
-0.3623,0.1103"/><polyline points="-0.3355,0.1403
-0.3355,0.1103"/><polyline points="-0.3087,0.1403
-0.3087,0.1103"/><polyline points="-0.2819,0.1403
-0.2819,0.1103"/><polyline points="-0.2550,0.1403
-0.2550,0.1103"/><polyline points="-0.2282,0.1403
-0.2282,0.1103"/><polyline points="-0.2014,0.1403
-0.2014,0.1103"/><polyline points="-0.1746,0.1403
-0.1746,0.1103"/><polyline points="-0.1478,0.1403
-0.1478,0.1103"/><polyline points="-0.1210,0.1403
-0.1210,0.1103"/><polyline points="-0.0942,0.1403
-0.0942,0.1103"/><polyline points="-0.0673,0.1403
-0.0673,0.1103"/><polyline points="-0.0405,0.1403
-0.0405,0.1103"/><polyline points="-0.0137,0.1403
-0.0137,0.1103"/><polyline points="0.0131,0.1403
0.0131,0.1103"/><polyline points="0.0399,0.1403
0.0399,0.1103"/><polyline points="0.0667,0.1403
0.0667,0.1103"/><polyline points="0.0935,0.1403
0.0935,0.1103"/><polyline points="0.1204,0.1403
0.1204,0.1103"/><polyline points="0.1472,0.1403
0.1472,0.1103"/><polyline points="0.1740,0.1403
0.1740,0.1103"/><polyline points="0.2008,0.1403
0.2008,0.1103"/></g></g><g class="ticktext"><g stroke-width="0.0" stroke="none" fill="rgb(5%, 5%, 5%)" fill-opacity="1.0" font-size="0.0221" text-anchor="end"><text x="-0.4159" y="0.1463" transform="rotate(-45.0, -0.4159, 0.1463)">CDCL (adaptive)</text><text x="-0.3891" y="0.1463" transform="rotate(-45.0, -0.3891, 0.1463)">CDCL (adaptive), Baseline</text><text x="-0.3623" y="0.1463" transform="rotate(-45.0, -0.3623, 0.1463)">CDCL (adaptive, mVISDS, ExpRestart(100, 2))</text><text x="-0.3355" y="0.1463" transform="rotate(-45.0, -0.3355, 0.1463)">CDCL (adaptive, mVISDS, ExpRestart(100, 2)), Baseline</text><text x="-0.3087" y="0.1463" transform="rotate(-45.0, -0.3087, 0.1463)">CDCL (adaptive, mVISDS, LubyRestart(100, 2))</text><text x="-0.2819" y="0.1463" transform="rotate(-45.0, -0.2819, 0.1463)">CDCL (adaptive, mVISDS, LubyRestart(100, 2)), Baseline</text><text x="-0.2550" y="0.1463" transform="rotate(-45.0, -0.2550, 0.1463)">CDCL (adaptive, mVSIDS)</text><text x="-0.2282" y="0.1463" transform="rotate(-45.0, -0.2282, 0.1463)">CDCL (adaptive, mVSIDS), Baseline</text><text x="-0.2014" y="0.1463" transform="rotate(-45.0, -0.2014, 0.1463)">CDCL (α = 0.75)</text><text x="-0.1746" y="0.1463" transform="rotate(-45.0, -0.1746, 0.1463)">CDCL (α = 0.75), Baseline</text><text x="-0.1478" y="0.1463" transform="rotate(-45.0, -0.1478, 0.1463)">CDCL (α = 0.75, mVISDS)</text><text x="-0.1210" y="0.1463" transform="rotate(-45.0, -0.1210, 0.1463)">CDCL (α = 0.75, mVISDS), Baseline</text><text x="-0.0942" y="0.1463" transform="rotate(-45.0, -0.0942, 0.1463)">CDCL (α = 0.75, mVISDS, ExpRestart(100, 2))</text><text x="-0.0673" y="0.1463" transform="rotate(-45.0, -0.0673, 0.1463)">CDCL (α = 0.75, mVISDS, ExpRestart(100, 2)), Baseline</text><text x="-0.0405" y="0.1463" transform="rotate(-45.0, -0.0405, 0.1463)">CDCL (α = 0.75, mVISDS, LubyRestart(100, 2))</text><text x="-0.0137" y="0.1463" transform="rotate(-45.0, -0.0137, 0.1463)">CDCL (α = 0.75, mVISDS, LubyRestart(100, 2)), Baseline</text><text x="0.0131" y="0.1463" transform="rotate(-45.0, 0.0131, 0.1463)">CDCL (α = 0.95)</text><text x="0.0399" y="0.1463" transform="rotate(-45.0, 0.0399, 0.1463)">CDCL (α = 0.95), Baseline</text><text x="0.0667" y="0.1463" transform="rotate(-45.0, 0.0667, 0.1463)">CDCL (α = 0.95, mVISDS)</text><text x="0.0935" y="0.1463" transform="rotate(-45.0, 0.0935, 0.1463)">CDCL (α = 0.95, mVISDS), Baseline</text><text x="0.1204" y="0.1463" transform="rotate(-45.0, 0.1204, 0.1463)">CDCL (α = 0.95, mVISDS, ExpRestart(100, 2))</text><text x="0.1472" y="0.1463" transform="rotate(-45.0, 0.1472, 0.1463)">CDCL (α = 0.95, mVISDS, ExpRestart(100, 2)), Baseline</text><text x="0.1740" y="0.1463" transform="rotate(-45.0, 0.1740, 0.1463)">CDCL (α = 0.95, mVISDS, LubyRestart(100, 2))</text><text x="0.2008" y="0.1463" transform="rotate(-45.0, 0.2008, 0.1463)">CDCL (α = 0.95, mVISDS, LubyRestart(100, 2)), Baseline</text></g></g></g><g class="axisbar"><g stroke-width="0" stroke="rgb(0%, 0%, 0%)" stroke-opacity="0" fill="rgb(5%, 5%, 5%)" fill-opacity="0.4"><rect width="0.7168" height="0.0013" x="-0.4660" y="0.1186"/></g></g></g><g class="title"><g stroke-width="0.0" stroke="none" fill="rgb(5%, 5%, 5%)" fill-opacity="1.0" font-size="0.0530" text-anchor="middle"><text x="-0.2348" y="-0.2493">Time: SATLIB/flat200-479/flat200-1/cnf</text></g></g><g class="legend"><g class="legendBorder"><g stroke-width="0.0017" stroke="rgb(5%, 5%, 5%)" stroke-opacity="1.0" fill="rgb(5%, 5%, 5%)" fill-opacity="0"><rect width="0.3924" height="0.5624" x="0.3266" y="-0.4327"/></g></g><g class="legendContent"><g stroke-width="0.0" stroke="none" fill="rgb(5%, 5%, 5%)" fill-opacity="1.0" font-size="0.0139" text-anchor="start"><text x="0.3344" y="0.1178">CDCL (α = 0.95, mVISDS, LubyRestart(100, 2)), Baseline</text></g><g stroke-width="0.0002" stroke="rgb(17%, 40%, 67%)" stroke-opacity="1.0" fill="rgb(17%, 40%, 67%)" fill-opacity="0.25"><rect width="0.0232" height="0.0174" x="0.6881" y="0.1065"/></g><g stroke-width="0.0" stroke="none" fill="rgb(5%, 5%, 5%)" fill-opacity="1.0" font-size="0.0139" text-anchor="start"><text x="0.3344" y="0.0946">CDCL (α = 0.95, mVISDS, LubyRestart(100, 2))</text></g><g stroke-width="0" stroke="rgb(2%, 29%, 48%)" stroke-opacity="1.0" fill="rgb(17%, 40%, 67%)" fill-opacity="1.0"><rect width="0.0232" height="0.0174" x="0.6881" y="0.0833"/></g><g stroke-width="0.0" stroke="none" fill="rgb(5%, 5%, 5%)" fill-opacity="1.0" font-size="0.0139" text-anchor="start"><text x="0.3344" y="0.0714">CDCL (α = 0.95, mVISDS, ExpRestart(100, 2)), Baseline</text></g><g stroke-width="0.0002" stroke="rgb(62%, 0%, 31%)" stroke-opacity="1.0" fill="rgb(62%, 0%, 31%)" fill-opacity="0.25"><rect width="0.0232" height="0.0174" x="0.6881" y="0.0601"/></g><g stroke-width="0.0" stroke="none" fill="rgb(5%, 5%, 5%)" fill-opacity="1.0" font-size="0.0139" text-anchor="start"><text x="0.3344" y="0.0482">CDCL (α = 0.95, mVISDS, ExpRestart(100, 2))</text></g><g stroke-width="0" stroke="rgb(2%, 29%, 48%)" stroke-opacity="1.0" fill="rgb(62%, 0%, 31%)" fill-opacity="1.0"><rect width="0.0232" height="0.0174" x="0.6881" y="0.0369"/></g><g stroke-width="0.0" stroke="none" fill="rgb(5%, 5%, 5%)" fill-opacity="1.0" font-size="0.0139" text-anchor="start"><text x="0.3344" y="0.0250">CDCL (α = 0.95, mVISDS), Baseline</text></g><g stroke-width="0.0002" stroke="rgb(91%, 47%, 0%)" stroke-opacity="1.0" fill="rgb(91%, 47%, 0%)" fill-opacity="0.25"><rect width="0.0232" height="0.0174" x="0.6881" y="0.0137"/></g><g stroke-width="0.0" stroke="none" fill="rgb(5%, 5%, 5%)" fill-opacity="1.0" font-size="0.0139" text-anchor="start"><text x="0.3344" y="0.0018">CDCL (α = 0.95, mVISDS)</text></g><g stroke-width="0" stroke="rgb(2%, 29%, 48%)" stroke-opacity="1.0" fill="rgb(91%, 47%, 0%)" fill-opacity="1.0"><rect width="0.0232" height="0.0174" x="0.6881" y="-0.0095"/></g><g stroke-width="0.0" stroke="none" fill="rgb(5%, 5%, 5%)" fill-opacity="1.0" font-size="0.0139" text-anchor="start"><text x="0.3344" y="-0.0214">CDCL (α = 0.95), Baseline</text></g><g stroke-width="0.0002" stroke="rgb(0%, 64%, 70%)" stroke-opacity="1.0" fill="rgb(0%, 64%, 70%)" fill-opacity="0.25"><rect width="0.0232" height="0.0174" x="0.6881" y="-0.0327"/></g><g stroke-width="0.0" stroke="none" fill="rgb(5%, 5%, 5%)" fill-opacity="1.0" font-size="0.0139" text-anchor="start"><text x="0.3344" y="-0.0446">CDCL (α = 0.95)</text></g><g stroke-width="0" stroke="rgb(2%, 29%, 48%)" stroke-opacity="1.0" fill="rgb(0%, 64%, 70%)" fill-opacity="1.0"><rect width="0.0232" height="0.0174" x="0.6881" y="-0.0559"/></g><g stroke-width="0.0" stroke="none" fill="rgb(5%, 5%, 5%)" fill-opacity="1.0" font-size="0.0139" text-anchor="start"><text x="0.3344" y="-0.0678">CDCL (α = 0.75, mVISDS, LubyRestart(100, 2)), Baseline</text></g><g stroke-width="0.0002" stroke="rgb(91%, 19%, 0%)" stroke-opacity="1.0" fill="rgb(91%, 19%, 0%)" fill-opacity="0.25"><rect width="0.0232" height="0.0174" x="0.6881" y="-0.0790"/></g><g stroke-width="0.0" stroke="none" fill="rgb(5%, 5%, 5%)" fill-opacity="1.0" font-size="0.0139" text-anchor="start"><text x="0.3344" y="-0.0910">CDCL (α = 0.75, mVISDS, LubyRestart(100, 2))</text></g><g stroke-width="0" stroke="rgb(2%, 29%, 48%)" stroke-opacity="1.0" fill="rgb(91%, 19%, 0%)" fill-opacity="1.0"><rect width="0.0232" height="0.0174" x="0.6881" y="-0.1022"/></g><g stroke-width="0.0" stroke="none" fill="rgb(5%, 5%, 5%)" fill-opacity="1.0" font-size="0.0139" text-anchor="start"><text x="0.3344" y="-0.1141">CDCL (α = 0.75, mVISDS, ExpRestart(100, 2)), Baseline</text></g><g stroke-width="0.0002" stroke="rgb(38%, 23%, 0%)" stroke-opacity="1.0" fill="rgb(38%, 23%, 0%)" fill-opacity="0.25"><rect width="0.0232" height="0.0174" x="0.6881" y="-0.1254"/></g><g stroke-width="0.0" stroke="none" fill="rgb(5%, 5%, 5%)" fill-opacity="1.0" font-size="0.0139" text-anchor="start"><text x="0.3344" y="-0.1373">CDCL (α = 0.75, mVISDS, ExpRestart(100, 2))</text></g><g stroke-width="0" stroke="rgb(2%, 29%, 48%)" stroke-opacity="1.0" fill="rgb(38%, 23%, 0%)" fill-opacity="1.0"><rect width="0.0232" height="0.0174" x="0.6881" y="-0.1486"/></g><g stroke-width="0.0" stroke="none" fill="rgb(5%, 5%, 5%)" fill-opacity="1.0" font-size="0.0139" text-anchor="start"><text x="0.3344" y="-0.1605">CDCL (α = 0.75, mVISDS), Baseline</text></g><g stroke-width="0.0002" stroke="rgb(90%, 37%, 58%)" stroke-opacity="1.0" fill="rgb(90%, 37%, 58%)" fill-opacity="0.25"><rect width="0.0232" height="0.0174" x="0.6881" y="-0.1718"/></g><g stroke-width="0.0" stroke="none" fill="rgb(5%, 5%, 5%)" fill-opacity="1.0" font-size="0.0139" text-anchor="start"><text x="0.3344" y="-0.1837">CDCL (α = 0.75, mVISDS)</text></g><g stroke-width="0" stroke="rgb(2%, 29%, 48%)" stroke-opacity="1.0" fill="rgb(90%, 37%, 58%)" fill-opacity="1.0"><rect width="0.0232" height="0.0174" x="0.6881" y="-0.1950"/></g><g stroke-width="0.0" stroke="none" fill="rgb(5%, 5%, 5%)" fill-opacity="1.0" font-size="0.0139" text-anchor="start"><text x="0.3344" y="-0.2069">CDCL (α = 0.75), Baseline</text></g><g stroke-width="0.0002" stroke="rgb(0%, 72%, 98%)" stroke-opacity="1.0" fill="rgb(0%, 72%, 98%)" fill-opacity="0.25"><rect width="0.0232" height="0.0174" x="0.6881" y="-0.2182"/></g><g stroke-width="0.0" stroke="none" fill="rgb(5%, 5%, 5%)" fill-opacity="1.0" font-size="0.0139" text-anchor="start"><text x="0.3344" y="-0.2301">CDCL (α = 0.75)</text></g><g stroke-width="0" stroke="rgb(2%, 29%, 48%)" stroke-opacity="1.0" fill="rgb(0%, 72%, 98%)" fill-opacity="1.0"><rect width="0.0232" height="0.0174" x="0.6881" y="-0.2414"/></g><g stroke-width="0.0" stroke="none" fill="rgb(5%, 5%, 5%)" fill-opacity="1.0" font-size="0.0139" text-anchor="start"><text x="0.3344" y="-0.2533">CDCL (adaptive, mVSIDS), Baseline</text></g><g stroke-width="0.0002" stroke="rgb(1%, 28%, 43%)" stroke-opacity="1.0" fill="rgb(1%, 28%, 43%)" fill-opacity="0.25"><rect width="0.0232" height="0.0174" x="0.6881" y="-0.2646"/></g><g stroke-width="0.0" stroke="none" fill="rgb(5%, 5%, 5%)" fill-opacity="1.0" font-size="0.0139" text-anchor="start"><text x="0.3344" y="-0.2765">CDCL (adaptive, mVSIDS)</text></g><g stroke-width="0" stroke="rgb(2%, 29%, 48%)" stroke-opacity="1.0" fill="rgb(1%, 28%, 43%)" fill-opacity="1.0"><rect width="0.0232" height="0.0174" x="0.6881" y="-0.2878"/></g><g stroke-width="0.0" stroke="none" fill="rgb(5%, 5%, 5%)" fill-opacity="1.0" font-size="0.0139" text-anchor="start"><text x="0.3344" y="-0.2997">CDCL (adaptive, mVISDS, LubyRestart(100, 2)), Baseline</text></g><g stroke-width="0.0002" stroke="rgb(26%, 54%, 57%)" stroke-opacity="1.0" fill="rgb(26%, 54%, 57%)" fill-opacity="0.25"><rect width="0.0232" height="0.0174" x="0.6881" y="-0.3109"/></g><g stroke-width="0.0" stroke="none" fill="rgb(5%, 5%, 5%)" fill-opacity="1.0" font-size="0.0139" text-anchor="start"><text x="0.3344" y="-0.3229">CDCL (adaptive, mVISDS, LubyRestart(100, 2))</text></g><g stroke-width="0" stroke="rgb(2%, 29%, 48%)" stroke-opacity="1.0" fill="rgb(26%, 54%, 57%)" fill-opacity="1.0"><rect width="0.0232" height="0.0174" x="0.6881" y="-0.3342"/></g><g stroke-width="0.0" stroke="none" fill="rgb(5%, 5%, 5%)" fill-opacity="1.0" font-size="0.0139" text-anchor="start"><text x="0.3344" y="-0.3460">CDCL (adaptive, mVISDS, ExpRestart(100, 2)), Baseline</text></g><g stroke-width="0.0002" stroke="rgb(0%, 25%, 37%)" stroke-opacity="1.0" fill="rgb(0%, 25%, 37%)" fill-opacity="0.25"><rect width="0.0232" height="0.0174" x="0.6881" y="-0.3573"/></g><g stroke-width="0.0" stroke="none" fill="rgb(5%, 5%, 5%)" fill-opacity="1.0" font-size="0.0139" text-anchor="start"><text x="0.3344" y="-0.3693">CDCL (adaptive, mVISDS, ExpRestart(100, 2))</text></g><g stroke-width="0" stroke="rgb(2%, 29%, 48%)" stroke-opacity="1.0" fill="rgb(0%, 25%, 37%)" fill-opacity="1.0"><rect width="0.0232" height="0.0174" x="0.6881" y="-0.3805"/></g><g stroke-width="0.0" stroke="none" fill="rgb(5%, 5%, 5%)" fill-opacity="1.0" font-size="0.0139" text-anchor="start"><text x="0.3344" y="-0.3924">CDCL (adaptive), Baseline</text></g><g stroke-width="0.0002" stroke="rgb(0%, 30%, 12%)" stroke-opacity="1.0" fill="rgb(0%, 30%, 12%)" fill-opacity="0.25"><rect width="0.0232" height="0.0174" x="0.6881" y="-0.4037"/></g><g stroke-width="0.0" stroke="none" fill="rgb(5%, 5%, 5%)" fill-opacity="1.0" font-size="0.0139" text-anchor="start"><text x="0.3344" y="-0.4156">CDCL (adaptive)</text></g><g stroke-width="0" stroke="rgb(2%, 29%, 48%)" stroke-opacity="1.0" fill="rgb(0%, 30%, 12%)" fill-opacity="1.0"><rect width="0.0232" height="0.0174" x="0.6881" y="-0.4269"/></g></g></g><g class="frame"><g stroke-width="0" stroke="rgb(0%, 0%, 0%)" stroke-opacity="0" fill="rgb(100%, 100%, 100%)" fill-opacity="0.02"><rect width="1.6180" height="1.0" x="-0.8090" y="-0.5"/></g></g><g class="title"><g stroke-width="0.0" stroke="none" fill="rgb(5%, 5%, 5%)" fill-opacity="1.0" font-size="0.0265" text-anchor="middle"><text x="-0.7463" y="0" transform="rotate(-90.0, -0.7463, 0)">Time [ms]</text></g></g></g></svg>