<svg xmlns="http://www.w3.org/2000/svg" xmlns:xlink="http://www.w3.org/1999/xlink" width="485" height="300" viewBox="-0.8090 -0.5 1.6180 1.0"><style>svg {
  color-scheme: light dark;
}
{
  .canvas g, .title g, .axisbar g, .ticktext g, .tickglyph g, .ticklines g, .legendContent g text {
    fill: rgb(5%, 5%, 5%);
  }
  .ticklines g, .tickglyph g, .legendBorder g {
    stroke: rgb(5%, 5%, 5%);
  }
  .legendBorder g {
    fill: rgb(94%, 94%, 94%);
  }
}
@media (prefers-color-scheme:dark) {
  .canvas g, .title g, .axisbar g, .ticktext g, .tickglyph g, .ticklines g, .legendContent g text {
    fill: rgb(94%, 94%, 94%);
  }
  .ticklines g, .tickglyph g, .legendBorder g {
    stroke: rgb(94%, 94%, 94%);
  }
  .legendBorder g {
    fill: rgb(5%, 5%, 5%);
  }
}</style><g class="chart"><g class="barchart"><g stroke-width="0" stroke="rgb(2%, 29%, 48%)" stroke-opacity="1.0" fill="rgb(0%, 30%, 12%)" fill-opacity="1.0"><rect width="0.0579" height="0.3502" x="-0.4605" y="-0.2682"/></g><g stroke-width="0" stroke="rgb(2%, 29%, 48%)" stroke-opacity="1.0" fill="rgb(0%, 25%, 37%)" fill-opacity="1.0"><rect width="0.0579" height="0.1082" x="-0.4026" y="-0.0261"/></g><g stroke-width="0" stroke="rgb(2%, 29%, 48%)" stroke-opacity="1.0" fill="rgb(26%, 54%, 57%)" fill-opacity="1.0"><rect width="0.0579" height="0.1078" x="-0.3447" y="-0.0258"/></g><g stroke-width="0" stroke="rgb(2%, 29%, 48%)" stroke-opacity="1.0" fill="rgb(1%, 28%, 43%)" fill-opacity="1.0"><rect width="0.0579" height="0.1075" x="-0.2868" y="-0.0255"/></g><g stroke-width="0" stroke="rgb(2%, 29%, 48%)" stroke-opacity="1.0" fill="rgb(0%, 72%, 98%)" fill-opacity="1.0"><rect width="0.0579" height="0.3752" x="-0.2288" y="-0.2932"/></g><g stroke-width="0" stroke="rgb(2%, 29%, 48%)" stroke-opacity="1.0" fill="rgb(90%, 37%, 58%)" fill-opacity="1.0"><rect width="0.0579" height="0.1859" x="-0.1709" y="-0.1039"/></g><g stroke-width="0" stroke="rgb(2%, 29%, 48%)" stroke-opacity="1.0" fill="rgb(38%, 23%, 0%)" fill-opacity="1.0"><rect width="0.0579" height="0.1697" x="-0.1130" y="-0.0877"/></g><g stroke-width="0" stroke="rgb(2%, 29%, 48%)" stroke-opacity="1.0" fill="rgb(91%, 19%, 0%)" fill-opacity="1.0"><rect width="0.0579" height="0.1688" x="-0.0551" y="-0.0868"/></g><g stroke-width="0" stroke="rgb(2%, 29%, 48%)" stroke-opacity="1.0" fill="rgb(0%, 64%, 70%)" fill-opacity="1.0"><rect width="0.0579" height="0.3131" x="0.0028" y="-0.2311"/></g><g stroke-width="0" stroke="rgb(2%, 29%, 48%)" stroke-opacity="1.0" fill="rgb(91%, 47%, 0%)" fill-opacity="1.0"><rect width="0.0579" height="0.1492" x="0.0607" y="-0.0672"/></g><g stroke-width="0" stroke="rgb(2%, 29%, 48%)" stroke-opacity="1.0" fill="rgb(62%, 0%, 31%)" fill-opacity="1.0"><rect width="0.0579" height="0.1824" x="0.1186" y="-0.1004"/></g><g stroke-width="0" stroke="rgb(2%, 29%, 48%)" stroke-opacity="1.0" fill="rgb(17%, 40%, 67%)" fill-opacity="1.0"><rect width="0.0579" height="0.1807" x="0.1765" y="-0.0987"/></g></g><g class="errors"><g stroke-width="0.0015" stroke="rgb(5%, 5%, 5%)" stroke-opacity="1.0" fill="none"><polyline points="-0.4373,-0.2654 -0.4257,-0.2654"/><polyline points="-0.4315,-0.2654 -0.4315,-0.2711"/><polyline points="-0.4373,-0.2711 -0.4257,-0.2711"/></g><g stroke-width="0.0015" stroke="rgb(5%, 5%, 5%)" stroke-opacity="1.0" fill="none"><polyline points="-0.3794,-0.0254 -0.3678,-0.0254"/><polyline points="-0.3736,-0.0254 -0.3736,-0.0269"/><polyline points="-0.3794,-0.0269 -0.3678,-0.0269"/></g><g stroke-width="0.0015" stroke="rgb(5%, 5%, 5%)" stroke-opacity="1.0" fill="none"><polyline points="-0.3215,-0.0245 -0.3099,-0.0245"/><polyline points="-0.3157,-0.0245 -0.3157,-0.0271"/><polyline points="-0.3215,-0.0271 -0.3099,-0.0271"/></g><g stroke-width="0.0015" stroke="rgb(5%, 5%, 5%)" stroke-opacity="1.0" fill="none"><polyline points="-0.2636,-0.0245 -0.2520,-0.0245"/><polyline points="-0.2578,-0.0245 -0.2578,-0.0264"/><polyline points="-0.2636,-0.0264 -0.2520,-0.0264"/></g><g stroke-width="0.0015" stroke="rgb(5%, 5%, 5%)" stroke-opacity="1.0" fill="none"><polyline points="-0.2057,-0.2898 -0.1941,-0.2898"/><polyline points="-0.1999,-0.2898 -0.1999,-0.2967"/><polyline points="-0.2057,-0.2967 -0.1941,-0.2967"/></g><g stroke-width="0.0015" stroke="rgb(5%, 5%, 5%)" stroke-opacity="1.0" fill="none"><polyline points="-0.1478,-0.1015 -0.1362,-0.1015"/><polyline points="-0.1420,-0.1015 -0.1420,-0.1063"/><polyline points="-0.1478,-0.1063 -0.1362,-0.1063"/></g><g stroke-width="0.0015" stroke="rgb(5%, 5%, 5%)" stroke-opacity="1.0" fill="none"><polyline points="-0.0899,-0.0841 -0.0783,-0.0841"/><polyline points="-0.0841,-0.0841 -0.0841,-0.0913"/><polyline points="-0.0899,-0.0913 -0.0783,-0.0913"/></g><g stroke-width="0.0015" stroke="rgb(5%, 5%, 5%)" stroke-opacity="1.0" fill="none"><polyline points="-0.0320,-0.0833 -0.0204,-0.0833"/><polyline points="-0.0262,-0.0833 -0.0262,-0.0902"/><polyline points="-0.0320,-0.0902 -0.0204,-0.0902"/></g><g stroke-width="0.0015" stroke="rgb(5%, 5%, 5%)" stroke-opacity="1.0" fill="none"><polyline points="0.0260,-0.2266 0.0375,-0.2266"/><polyline points="0.0317,-0.2266 0.0317,-0.2356"/><polyline points="0.0260,-0.2356 0.0375,-0.2356"/></g><g stroke-width="0.0015" stroke="rgb(5%, 5%, 5%)" stroke-opacity="1.0" fill="none"><polyline points="0.0839,-0.0598 0.0954,-0.0598"/><polyline points="0.0897,-0.0598 0.0897,-0.0747"/><polyline points="0.0839,-0.0747 0.0954,-0.0747"/></g><g stroke-width="0.0015" stroke="rgb(5%, 5%, 5%)" stroke-opacity="1.0" fill="none"><polyline points="0.1418,-0.0958 0.1534,-0.0958"/><polyline points="0.1476,-0.0958 0.1476,-0.1050"/><polyline points="0.1418,-0.1050 0.1534,-0.1050"/></g><g stroke-width="0.0015" stroke="rgb(5%, 5%, 5%)" stroke-opacity="1.0" fill="none"><polyline points="0.1997,-0.0981 0.2113,-0.0981"/><polyline points="0.2055,-0.0981 0.2055,-0.0993"/><polyline points="0.1997,-0.0993 0.2113,-0.0993"/></g></g></g><g class="hud"><g class="axis"><g class="ticks"><g class="tickglyph"><g stroke-width="0.0040" stroke="rgb(5%, 5%, 5%)" stroke-opacity="0.4" fill="rgb(5%, 5%, 5%)" fill-opacity="0.4"><g transform="rotate(-90.0, -0.5134, 0.0820)"><polyline points="-0.5134,0.0970
-0.5134,0.0670"/></g><g transform="rotate(-90.0, -0.5134, 0.0442)"><polyline points="-0.5134,0.0592
-0.5134,0.0292"/></g><g transform="rotate(-90.0, -0.5134, 0.0063)"><polyline points="-0.5134,0.0213
-0.5134,-0.0087"/></g><g transform="rotate(-90.0, -0.5134, -0.0315)"><polyline points="-0.5134,-0.0165
-0.5134,-0.0465"/></g><g transform="rotate(-90.0, -0.5134, -0.0693)"><polyline points="-0.5134,-0.0543
-0.5134,-0.0843"/></g><g transform="rotate(-90.0, -0.5134, -0.1072)"><polyline points="-0.5134,-0.0922
-0.5134,-0.1222"/></g><g transform="rotate(-90.0, -0.5134, -0.1450)"><polyline points="-0.5134,-0.1300
-0.5134,-0.1600"/></g><g transform="rotate(-90.0, -0.5134, -0.1829)"><polyline points="-0.5134,-0.1679
-0.5134,-0.1979"/></g><g transform="rotate(-90.0, -0.5134, -0.2207)"><polyline points="-0.5134,-0.2057
-0.5134,-0.2357"/></g><g transform="rotate(-90.0, -0.5134, -0.2585)"><polyline points="-0.5134,-0.2435
-0.5134,-0.2735"/></g><g transform="rotate(-90.0, -0.5134, -0.2964)"><polyline points="-0.5134,-0.2814
-0.5134,-0.3114"/></g><g transform="rotate(-90.0, -0.5134, -0.3342)"><polyline points="-0.5134,-0.3192
-0.5134,-0.3492"/></g></g></g><g class="ticktext"><g stroke-width="0.0" stroke="none" fill="rgb(5%, 5%, 5%)" fill-opacity="1.0" font-size="0.0239" text-anchor="end"><text x="-0.5306" y="0.0877">    0</text><text x="-0.5306" y="0.0499">  100</text><text x="-0.5306" y="0.0121">  200</text><text x="-0.5306" y="-0.0258">  300</text><text x="-0.5306" y="-0.0636">  400</text><text x="-0.5306" y="-0.1015">  500</text><text x="-0.5306" y="-0.1393">  600</text><text x="-0.5306" y="-0.1771">  700</text><text x="-0.5306" y="-0.2150">  800</text><text x="-0.5306" y="-0.2528">  900</text><text x="-0.5306" y="-0.2907">1,000</text><text x="-0.5306" y="-0.3285">1,100</text></g></g><g class="ticklines"><g stroke-width="0.0050" stroke="rgb(5%, 5%, 5%)" stroke-opacity="0.05" fill="none"><polyline points="-0.4991,0.0820 0.2730,0.0820"/><polyline points="-0.4991,0.0442 0.2730,0.0442"/><polyline points="-0.4991,0.0063 0.2730,0.0063"/><polyline points="-0.4991,-0.0315 0.2730,-0.0315"/><polyline points="-0.4991,-0.0693 0.2730,-0.0693"/><polyline points="-0.4991,-0.1072 0.2730,-0.1072"/><polyline points="-0.4991,-0.1450 0.2730,-0.1450"/><polyline points="-0.4991,-0.1829 0.2730,-0.1829"/><polyline points="-0.4991,-0.2207 0.2730,-0.2207"/><polyline points="-0.4991,-0.2585 0.2730,-0.2585"/><polyline points="-0.4991,-0.2964 0.2730,-0.2964"/><polyline points="-0.4991,-0.3342 0.2730,-0.3342"/></g></g></g><g class="axisbar"><g stroke-width="0" stroke="rgb(0%, 0%, 0%)" stroke-opacity="0" fill="rgb(5%, 5%, 5%)" fill-opacity="0.4"><rect width="0.0019" height="0.4179" x="-0.5058" y="-0.3351"/></g></g></g><g class="axis"><g class="ticks"><g class="tickglyph"><g stroke-width="0.0040" stroke="rgb(5%, 5%, 5%)" stroke-opacity="0.4" fill="rgb(5%, 5%, 5%)" fill-opacity="0.4"><polyline points="-0.4315,0.1095
-0.4315,0.0795"/><polyline points="-0.3736,0.1095
-0.3736,0.0795"/><polyline points="-0.3157,0.1095
-0.3157,0.0795"/><polyline points="-0.2578,0.1095
-0.2578,0.0795"/><polyline points="-0.1999,0.1095
-0.1999,0.0795"/><polyline points="-0.1420,0.1095
-0.1420,0.0795"/><polyline points="-0.0841,0.1095
-0.0841,0.0795"/><polyline points="-0.0262,0.1095
-0.0262,0.0795"/><polyline points="0.0317,0.1095
0.0317,0.0795"/><polyline points="0.0897,0.1095
0.0897,0.0795"/><polyline points="0.1476,0.1095
0.1476,0.0795"/><polyline points="0.2055,0.1095
0.2055,0.0795"/></g></g><g class="ticktext"><g stroke-width="0.0" stroke="none" fill="rgb(5%, 5%, 5%)" fill-opacity="1.0" font-size="0.0239" text-anchor="end"><text x="-0.4315" y="0.1209" transform="rotate(-45.0, -0.4315, 0.1209)">CDCL (adaptive)</text><text x="-0.3736" y="0.1209" transform="rotate(-45.0, -0.3736, 0.1209)">CDCL (adaptive, mVISDS, ExpRestart(100, 2))</text><text x="-0.3157" y="0.1209" transform="rotate(-45.0, -0.3157, 0.1209)">CDCL (adaptive, mVISDS, LubyRestart(100, 2))</text><text x="-0.2578" y="0.1209" transform="rotate(-45.0, -0.2578, 0.1209)">CDCL (adaptive, mVSIDS)</text><text x="-0.1999" y="0.1209" transform="rotate(-45.0, -0.1999, 0.1209)">CDCL (α = 0.75)</text><text x="-0.1420" y="0.1209" transform="rotate(-45.0, -0.1420, 0.1209)">CDCL (α = 0.75, mVISDS)</text><text x="-0.0841" y="0.1209" transform="rotate(-45.0, -0.0841, 0.1209)">CDCL (α = 0.75, mVISDS, ExpRestart(100, 2))</text><text x="-0.0262" y="0.1209" transform="rotate(-45.0, -0.0262, 0.1209)">CDCL (α = 0.75, mVISDS, LubyRestart(100, 2))</text><text x="0.0317" y="0.1209" transform="rotate(-45.0, 0.0317, 0.1209)">CDCL (α = 0.95)</text><text x="0.0897" y="0.1209" transform="rotate(-45.0, 0.0897, 0.1209)">CDCL (α = 0.95, mVISDS)</text><text x="0.1476" y="0.1209" transform="rotate(-45.0, 0.1476, 0.1209)">CDCL (α = 0.95, mVISDS, ExpRestart(100, 2))</text><text x="0.2055" y="0.1209" transform="rotate(-45.0, 0.2055, 0.1209)">CDCL (α = 0.95, mVISDS, LubyRestart(100, 2))</text></g></g></g><g class="axisbar"><g stroke-width="0" stroke="rgb(0%, 0%, 0%)" stroke-opacity="0" fill="rgb(5%, 5%, 5%)" fill-opacity="0.4"><rect width="0.7740" height="0.0017" x="-0.5000" y="0.0862"/></g></g></g><g class="title"><g stroke-width="0.0" stroke="none" fill="rgb(5%, 5%, 5%)" fill-opacity="1.0" font-size="0.0573" text-anchor="middle"><text x="-0.2197" y="-0.3768">Time: SATLIB/flat200-479/flat200-1/cnf</text></g></g><g class="legend"><g class="legendBorder"><g stroke-width="0.0017" stroke="rgb(5%, 5%, 5%)" stroke-opacity="1.0" fill="rgb(5%, 5%, 5%)" fill-opacity="0"><rect width="0.3561" height="0.3569" x="0.3558" y="-0.2567"/></g></g><g class="legendContent"><g stroke-width="0.0" stroke="none" fill="rgb(5%, 5%, 5%)" fill-opacity="1.0" font-size="0.0150" text-anchor="start"><text x="0.3642" y="0.0853">CDCL (α = 0.95, mVISDS, LubyRestart(100, 2))</text></g><g stroke-width="0" stroke="rgb(2%, 29%, 48%)" stroke-opacity="1.0" fill="rgb(17%, 40%, 67%)" fill-opacity="1.0"><rect width="0.0251" height="0.0219" x="0.6785" y="0.0711"/></g><g stroke-width="0.0" stroke="none" fill="rgb(5%, 5%, 5%)" fill-opacity="1.0" font-size="0.0150" text-anchor="start"><text x="0.3642" y="0.0562">CDCL (α = 0.95, mVISDS, ExpRestart(100, 2))</text></g><g stroke-width="0" stroke="rgb(2%, 29%, 48%)" stroke-opacity="1.0" fill="rgb(62%, 0%, 31%)" fill-opacity="1.0"><rect width="0.0251" height="0.0219" x="0.6785" y="0.0420"/></g><g stroke-width="0.0" stroke="none" fill="rgb(5%, 5%, 5%)" fill-opacity="1.0" font-size="0.0150" text-anchor="start"><text x="0.3642" y="0.0270">CDCL (α = 0.95, mVISDS)</text></g><g stroke-width="0" stroke="rgb(2%, 29%, 48%)" stroke-opacity="1.0" fill="rgb(91%, 47%, 0%)" fill-opacity="1.0"><rect width="0.0251" height="0.0219" x="0.6785" y="0.0128"/></g><g stroke-width="0.0" stroke="none" fill="rgb(5%, 5%, 5%)" fill-opacity="1.0" font-size="0.0150" text-anchor="start"><text x="0.3642" y="-0.0021">CDCL (α = 0.95)</text></g><g stroke-width="0" stroke="rgb(2%, 29%, 48%)" stroke-opacity="1.0" fill="rgb(0%, 64%, 70%)" fill-opacity="1.0"><rect width="0.0251" height="0.0219" x="0.6785" y="-0.0163"/></g><g stroke-width="0.0" stroke="none" fill="rgb(5%, 5%, 5%)" fill-opacity="1.0" font-size="0.0150" text-anchor="start"><text x="0.3642" y="-0.0312">CDCL (α = 0.75, mVISDS, LubyRestart(100, 2))</text></g><g stroke-width="0" stroke="rgb(2%, 29%, 48%)" stroke-opacity="1.0" fill="rgb(91%, 19%, 0%)" fill-opacity="1.0"><rect width="0.0251" height="0.0219" x="0.6785" y="-0.0455"/></g><g stroke-width="0.0" stroke="none" fill="rgb(5%, 5%, 5%)" fill-opacity="1.0" font-size="0.0150" text-anchor="start"><text x="0.3642" y="-0.0604">CDCL (α = 0.75, mVISDS, ExpRestart(100, 2))</text></g><g stroke-width="0" stroke="rgb(2%, 29%, 48%)" stroke-opacity="1.0" fill="rgb(38%, 23%, 0%)" fill-opacity="1.0"><rect width="0.0251" height="0.0219" x="0.6785" y="-0.0746"/></g><g stroke-width="0.0" stroke="none" fill="rgb(5%, 5%, 5%)" fill-opacity="1.0" font-size="0.0150" text-anchor="start"><text x="0.3642" y="-0.0895">CDCL (α = 0.75, mVISDS)</text></g><g stroke-width="0" stroke="rgb(2%, 29%, 48%)" stroke-opacity="1.0" fill="rgb(90%, 37%, 58%)" fill-opacity="1.0"><rect width="0.0251" height="0.0219" x="0.6785" y="-0.1037"/></g><g stroke-width="0.0" stroke="none" fill="rgb(5%, 5%, 5%)" fill-opacity="1.0" font-size="0.0150" text-anchor="start"><text x="0.3642" y="-0.1187">CDCL (α = 0.75)</text></g><g stroke-width="0" stroke="rgb(2%, 29%, 48%)" stroke-opacity="1.0" fill="rgb(0%, 72%, 98%)" fill-opacity="1.0"><rect width="0.0251" height="0.0219" x="0.6785" y="-0.1329"/></g><g stroke-width="0.0" stroke="none" fill="rgb(5%, 5%, 5%)" fill-opacity="1.0" font-size="0.0150" text-anchor="start"><text x="0.3642" y="-0.1478">CDCL (adaptive, mVSIDS)</text></g><g stroke-width="0" stroke="rgb(2%, 29%, 48%)" stroke-opacity="1.0" fill="rgb(1%, 28%, 43%)" fill-opacity="1.0"><rect width="0.0251" height="0.0219" x="0.6785" y="-0.1620"/></g><g stroke-width="0.0" stroke="none" fill="rgb(5%, 5%, 5%)" fill-opacity="1.0" font-size="0.0150" text-anchor="start"><text x="0.3642" y="-0.1769">CDCL (adaptive, mVISDS, LubyRestart(100, 2))</text></g><g stroke-width="0" stroke="rgb(2%, 29%, 48%)" stroke-opacity="1.0" fill="rgb(26%, 54%, 57%)" fill-opacity="1.0"><rect width="0.0251" height="0.0219" x="0.6785" y="-0.1911"/></g><g stroke-width="0.0" stroke="none" fill="rgb(5%, 5%, 5%)" fill-opacity="1.0" font-size="0.0150" text-anchor="start"><text x="0.3642" y="-0.2061">CDCL (adaptive, mVISDS, ExpRestart(100, 2))</text></g><g stroke-width="0" stroke="rgb(2%, 29%, 48%)" stroke-opacity="1.0" fill="rgb(0%, 25%, 37%)" fill-opacity="1.0"><rect width="0.0251" height="0.0219" x="0.6785" y="-0.2203"/></g><g stroke-width="0.0" stroke="none" fill="rgb(5%, 5%, 5%)" fill-opacity="1.0" font-size="0.0150" text-anchor="start"><text x="0.3642" y="-0.2352">CDCL (adaptive)</text></g><g stroke-width="0" stroke="rgb(2%, 29%, 48%)" stroke-opacity="1.0" fill="rgb(0%, 30%, 12%)" fill-opacity="1.0"><rect width="0.0251" height="0.0219" x="0.6785" y="-0.2494"/></g></g></g><g class="frame"><g stroke-width="0" stroke="rgb(0%, 0%, 0%)" stroke-opacity="0" fill="rgb(100%, 100%, 100%)" fill-opacity="0.02"><rect width="1.6180" height="1.0" x="-0.8090" y="-0.5"/></g></g><g class="title"><g stroke-width="0.0" stroke="none" fill="rgb(5%, 5%, 5%)" fill-opacity="1.0" font-size="0.0286" text-anchor="middle"><text x="-0.7413" y="0" transform="rotate(-90.0, -0.7413, 0)">Time [ms]</text></g></g></g></svg>