<svg xmlns="http://www.w3.org/2000/svg" xmlns:xlink="http://www.w3.org/1999/xlink" width="442" height="300" viewBox="-0.8090 -0.5 1.6180 1.0965"><style>svg {
  color-scheme: light dark;
}
{
  .canvas g, .title g, .axisbar g, .ticktext g, .tickglyph g, .ticklines g, .legendContent g text {
    fill: rgb(5%, 5%, 5%);
  }
  .ticklines g, .tickglyph g, .legendBorder g {
    stroke: rgb(5%, 5%, 5%);
  }
  .legendBorder g {
    fill: rgb(94%, 94%, 94%);
  }
}
@media (prefers-color-scheme:dark) {
  .canvas g, .title g, .axisbar g, .ticktext g, .tickglyph g, .ticklines g, .legendContent g text {
    fill: rgb(94%, 94%, 94%);
  }
  .ticklines g, .tickglyph g, .legendBorder g {
    stroke: rgb(94%, 94%, 94%);
  }
  .legendBorder g {
    fill: rgb(5%, 5%, 5%);
  }
}</style><g class="chart"><g class="barchart"><g stroke-width="0" stroke="rgb(2%, 29%, 48%)" stroke-opacity="1.0" fill="rgb(57%, 0%, 21%)" fill-opacity="1.0"><rect width="0.0180" height="0.0014" x="-0.3890" y="0.1518"/></g><g stroke-width="0.0010" stroke="rgb(57%, 0%, 21%)" stroke-opacity="1.0" fill="rgb(57%, 0%, 21%)" fill-opacity="0.25"><rect width="0.0180" height="0.0011" x="-0.3711" y="0.1521"/></g><g stroke-width="0" stroke="rgb(2%, 29%, 48%)" stroke-opacity="1.0" fill="rgb(47%, 34%, 0%)" fill-opacity="1.0"><rect width="0.0180" height="0.0012" x="-0.3531" y="0.1520"/></g><g stroke-width="0.0010" stroke="rgb(47%, 34%, 0%)" stroke-opacity="1.0" fill="rgb(47%, 34%, 0%)" fill-opacity="0.25"><rect width="0.0180" height="0.0010" x="-0.3351" y="0.1522"/></g><g stroke-width="0" stroke="rgb(2%, 29%, 48%)" stroke-opacity="1.0" fill="rgb(70%, 21%, 0%)" fill-opacity="1.0"><rect width="0.0180" height="0.0012" x="-0.3172" y="0.1519"/></g><g stroke-width="0" stroke="rgb(2%, 29%, 48%)" stroke-opacity="1.0" fill="rgb(0%, 36%, 0%)" fill-opacity="1.0"><rect width="0.0180" height="0.0012" x="-0.2992" y="0.1520"/></g><g stroke-width="0.0010" stroke="rgb(0%, 36%, 0%)" stroke-opacity="1.0" fill="rgb(0%, 36%, 0%)" fill-opacity="0.25"><rect width="0.0180" height="0.0010" x="-0.2813" y="0.1522"/></g><g stroke-width="0" stroke="rgb(2%, 29%, 48%)" stroke-opacity="1.0" fill="rgb(0%, 21%, 55%)" fill-opacity="1.0"><rect width="0.0180" height="0.0012" x="-0.2633" y="0.1520"/></g><g stroke-width="0" stroke="rgb(2%, 29%, 48%)" stroke-opacity="1.0" fill="rgb(72%, 66%, 0%)" fill-opacity="1.0"><rect width="0.0180" height="0.0008" x="-0.2454" y="0.1524"/></g><g stroke-width="0.0010" stroke="rgb(72%, 66%, 0%)" stroke-opacity="1.0" fill="rgb(72%, 66%, 0%)" fill-opacity="0.25"><rect width="0.0180" height="0.0006" x="-0.2274" y="0.1526"/></g><g stroke-width="0" stroke="rgb(2%, 29%, 48%)" stroke-opacity="1.0" fill="rgb(37%, 17%, 0%)" fill-opacity="1.0"><rect width="0.0180" height="0.0008" x="-0.2094" y="0.1524"/></g><g stroke-width="0" stroke="rgb(2%, 29%, 48%)" stroke-opacity="1.0" fill="rgb(20%, 15%, 40%)" fill-opacity="1.0"><rect width="0.0180" height="0.0016" x="-0.1915" y="0.1516"/></g><g stroke-width="0.0010" stroke="rgb(20%, 15%, 40%)" stroke-opacity="1.0" fill="rgb(20%, 15%, 40%)" fill-opacity="0.25"><rect width="0.0180" height="0.0013" x="-0.1735" y="0.1519"/></g><g stroke-width="0" stroke="rgb(2%, 29%, 48%)" stroke-opacity="1.0" fill="rgb(48%, 65%, 0%)" fill-opacity="1.0"><rect width="0.0180" height="0.0010" x="-0.1556" y="0.1521"/></g><g stroke-width="0.0010" stroke="rgb(48%, 65%, 0%)" stroke-opacity="1.0" fill="rgb(48%, 65%, 0%)" fill-opacity="0.25"><rect width="0.0180" height="0.0008" x="-0.1376" y="0.1523"/></g><g stroke-width="0" stroke="rgb(2%, 29%, 48%)" stroke-opacity="1.0" fill="rgb(0%, 72%, 67%)" fill-opacity="1.0"><rect width="0.0180" height="0.0015" x="-0.1197" y="0.1517"/></g><g stroke-width="0.0010" stroke="rgb(0%, 72%, 67%)" stroke-opacity="1.0" fill="rgb(0%, 72%, 67%)" fill-opacity="0.25"><rect width="0.0180" height="0.0012" x="-0.1017" y="0.1520"/></g><g stroke-width="0" stroke="rgb(2%, 29%, 48%)" stroke-opacity="1.0" fill="rgb(98%, 15%, 25%)" fill-opacity="1.0"><rect width="0.0180" height="0.0015" x="-0.0837" y="0.1517"/></g><g stroke-width="0" stroke="rgb(2%, 29%, 48%)" stroke-opacity="1.0" fill="rgb(57%, 62%, 78%)" fill-opacity="1.0"><rect width="0.0180" height="0.0015" x="-0.0658" y="0.1517"/></g><g stroke-width="0.0010" stroke="rgb(57%, 62%, 78%)" stroke-opacity="1.0" fill="rgb(57%, 62%, 78%)" fill-opacity="0.25"><rect width="0.0180" height="0.0012" x="-0.0478" y="0.1520"/></g><g stroke-width="0" stroke="rgb(2%, 29%, 48%)" stroke-opacity="1.0" fill="rgb(53%, 24%, 0%)" fill-opacity="1.0"><rect width="0.0180" height="0.0016" x="-0.0299" y="0.1516"/></g><g stroke-width="0" stroke="rgb(2%, 29%, 48%)" stroke-opacity="1.0" fill="rgb(69%, 17%, 0%)" fill-opacity="1.0"><rect width="0.0180" height="0.0022" x="-0.0119" y="0.1510"/></g><g stroke-width="0.0010" stroke="rgb(69%, 17%, 0%)" stroke-opacity="1.0" fill="rgb(69%, 17%, 0%)" fill-opacity="0.25"><rect width="0.0180" height="0.0018" x="0.0061" y="0.1514"/></g><g stroke-width="0" stroke="rgb(2%, 29%, 48%)" stroke-opacity="1.0" fill="rgb(0%, 42%, 48%)" fill-opacity="1.0"><rect width="0.0180" height="0.0009" x="0.0240" y="0.1523"/></g><g stroke-width="0.0010" stroke="rgb(0%, 42%, 48%)" stroke-opacity="1.0" fill="rgb(0%, 42%, 48%)" fill-opacity="0.25"><rect width="0.0180" height="0.0007" x="0.0420" y="0.1525"/></g><g stroke-width="0" stroke="rgb(2%, 29%, 48%)" stroke-opacity="1.0" fill="rgb(42%, 44%, 14%)" fill-opacity="1.0"><rect width="0.0180" height="0.0011" x="0.0599" y="0.1521"/></g><g stroke-width="0.0010" stroke="rgb(42%, 44%, 14%)" stroke-opacity="1.0" fill="rgb(42%, 44%, 14%)" fill-opacity="0.25"><rect width="0.0180" height="0.0008" x="0.0779" y="0.1523"/></g><g stroke-width="0" stroke="rgb(2%, 29%, 48%)" stroke-opacity="1.0" fill="rgb(54%, 0%, 0%)" fill-opacity="1.0"><rect width="0.0180" height="0.0011" x="0.0958" y="0.1521"/></g><g stroke-width="0" stroke="rgb(2%, 29%, 48%)" stroke-opacity="1.0" fill="rgb(100%, 37%, 0%)" fill-opacity="1.0"><rect width="0.0180" height="0.0010" x="0.1138" y="0.1521"/></g><g stroke-width="0.0010" stroke="rgb(100%, 37%, 0%)" stroke-opacity="1.0" fill="rgb(100%, 37%, 0%)" fill-opacity="0.25"><rect width="0.0180" height="0.0008" x="0.1318" y="0.1524"/></g><g stroke-width="0" stroke="rgb(2%, 29%, 48%)" stroke-opacity="1.0" fill="rgb(0%, 38%, 61%)" fill-opacity="1.0"><rect width="0.0180" height="0.0011" x="0.1497" y="0.1521"/></g><g stroke-width="0" stroke="rgb(2%, 29%, 48%)" stroke-opacity="1.0" fill="rgb(0%, 49%, 30%)" fill-opacity="1.0"><rect width="0.0180" height="0.2573" x="0.1677" y="-0.1041"/></g><g stroke-width="0.0010" stroke="rgb(0%, 49%, 30%)" stroke-opacity="1.0" fill="rgb(0%, 49%, 30%)" fill-opacity="0.25"><rect width="0.0180" height="0.2279" x="0.1856" y="-0.0747"/></g></g><g class="errors"><g stroke-width="0.0015" stroke="rgb(5%, 5%, 5%)" stroke-opacity="1.0" fill="none"><polyline points="-0.3818,0.1518 -0.3782,0.1518"/><polyline points="-0.3800,0.1518 -0.3800,0.1517"/><polyline points="-0.3818,0.1517 -0.3782,0.1517"/></g><g stroke-width="0.0015" stroke="rgb(5%, 5%, 5%)" stroke-opacity="1.0" fill="none"><polyline points="-0.3639,0.1521 -0.3603,0.1521"/><polyline points="-0.3621,0.1521 -0.3621,0.1521"/><polyline points="-0.3639,0.1521 -0.3603,0.1521"/></g><g stroke-width="0.0015" stroke="rgb(5%, 5%, 5%)" stroke-opacity="1.0" fill="none"><polyline points="-0.3459,0.1520 -0.3423,0.1520"/><polyline points="-0.3441,0.1520 -0.3441,0.1520"/><polyline points="-0.3459,0.1520 -0.3423,0.1520"/></g><g stroke-width="0.0015" stroke="rgb(5%, 5%, 5%)" stroke-opacity="1.0" fill="none"><polyline points="-0.3280,0.1522 -0.3244,0.1522"/><polyline points="-0.3262,0.1522 -0.3262,0.1522"/><polyline points="-0.3280,0.1522 -0.3244,0.1522"/></g><g stroke-width="0.0015" stroke="rgb(5%, 5%, 5%)" stroke-opacity="1.0" fill="none"><polyline points="-0.3100,0.1520 -0.3064,0.1520"/><polyline points="-0.3082,0.1520 -0.3082,0.1519"/><polyline points="-0.3100,0.1519 -0.3064,0.1519"/></g><g stroke-width="0.0015" stroke="rgb(5%, 5%, 5%)" stroke-opacity="1.0" fill="none"><polyline points="-0.2921,0.1520 -0.2885,0.1520"/><polyline points="-0.2903,0.1520 -0.2903,0.1520"/><polyline points="-0.2921,0.1520 -0.2885,0.1520"/></g><g stroke-width="0.0015" stroke="rgb(5%, 5%, 5%)" stroke-opacity="1.0" fill="none"><polyline points="-0.2741,0.1522 -0.2705,0.1522"/><polyline points="-0.2723,0.1522 -0.2723,0.1521"/><polyline points="-0.2741,0.1521 -0.2705,0.1521"/></g><g stroke-width="0.0015" stroke="rgb(5%, 5%, 5%)" stroke-opacity="1.0" fill="none"><polyline points="-0.2561,0.1520 -0.2525,0.1520"/><polyline points="-0.2543,0.1520 -0.2543,0.1519"/><polyline points="-0.2561,0.1519 -0.2525,0.1519"/></g><g stroke-width="0.0015" stroke="rgb(5%, 5%, 5%)" stroke-opacity="1.0" fill="none"><polyline points="-0.2382,0.1524 -0.2346,0.1524"/><polyline points="-0.2364,0.1524 -0.2364,0.1524"/><polyline points="-0.2382,0.1524 -0.2346,0.1524"/></g><g stroke-width="0.0015" stroke="rgb(5%, 5%, 5%)" stroke-opacity="1.0" fill="none"><polyline points="-0.2202,0.1526 -0.2166,0.1526"/><polyline points="-0.2184,0.1526 -0.2184,0.1526"/><polyline points="-0.2202,0.1526 -0.2166,0.1526"/></g><g stroke-width="0.0015" stroke="rgb(5%, 5%, 5%)" stroke-opacity="1.0" fill="none"><polyline points="-0.2023,0.1524 -0.1987,0.1524"/><polyline points="-0.2005,0.1524 -0.2005,0.1524"/><polyline points="-0.2023,0.1524 -0.1987,0.1524"/></g><g stroke-width="0.0015" stroke="rgb(5%, 5%, 5%)" stroke-opacity="1.0" fill="none"><polyline points="-0.1843,0.1516 -0.1807,0.1516"/><polyline points="-0.1825,0.1516 -0.1825,0.1515"/><polyline points="-0.1843,0.1515 -0.1807,0.1515"/></g><g stroke-width="0.0015" stroke="rgb(5%, 5%, 5%)" stroke-opacity="1.0" fill="none"><polyline points="-0.1663,0.1519 -0.1628,0.1519"/><polyline points="-0.1645,0.1519 -0.1645,0.1518"/><polyline points="-0.1663,0.1518 -0.1628,0.1518"/></g><g stroke-width="0.0015" stroke="rgb(5%, 5%, 5%)" stroke-opacity="1.0" fill="none"><polyline points="-0.1484,0.1521 -0.1448,0.1521"/><polyline points="-0.1466,0.1521 -0.1466,0.1521"/><polyline points="-0.1484,0.1521 -0.1448,0.1521"/></g><g stroke-width="0.0015" stroke="rgb(5%, 5%, 5%)" stroke-opacity="1.0" fill="none"><polyline points="-0.1304,0.1523 -0.1268,0.1523"/><polyline points="-0.1286,0.1523 -0.1286,0.1523"/><polyline points="-0.1304,0.1523 -0.1268,0.1523"/></g><g stroke-width="0.0015" stroke="rgb(5%, 5%, 5%)" stroke-opacity="1.0" fill="none"><polyline points="-0.1125,0.1517 -0.1089,0.1517"/><polyline points="-0.1107,0.1517 -0.1107,0.1516"/><polyline points="-0.1125,0.1516 -0.1089,0.1516"/></g><g stroke-width="0.0015" stroke="rgb(5%, 5%, 5%)" stroke-opacity="1.0" fill="none"><polyline points="-0.0945,0.1520 -0.0909,0.1520"/><polyline points="-0.0927,0.1520 -0.0927,0.1520"/><polyline points="-0.0945,0.1520 -0.0909,0.1520"/></g><g stroke-width="0.0015" stroke="rgb(5%, 5%, 5%)" stroke-opacity="1.0" fill="none"><polyline points="-0.0766,0.1517 -0.0730,0.1517"/><polyline points="-0.0748,0.1517 -0.0748,0.1516"/><polyline points="-0.0766,0.1516 -0.0730,0.1516"/></g><g stroke-width="0.0015" stroke="rgb(5%, 5%, 5%)" stroke-opacity="1.0" fill="none"><polyline points="-0.0586,0.1517 -0.0550,0.1517"/><polyline points="-0.0568,0.1517 -0.0568,0.1516"/><polyline points="-0.0586,0.1516 -0.0550,0.1516"/></g><g stroke-width="0.0015" stroke="rgb(5%, 5%, 5%)" stroke-opacity="1.0" fill="none"><polyline points="-0.0406,0.1520 -0.0370,0.1520"/><polyline points="-0.0388,0.1520 -0.0388,0.1520"/><polyline points="-0.0406,0.1520 -0.0370,0.1520"/></g><g stroke-width="0.0015" stroke="rgb(5%, 5%, 5%)" stroke-opacity="1.0" fill="none"><polyline points="-0.0227,0.1516 -0.0191,0.1516"/><polyline points="-0.0209,0.1516 -0.0209,0.1516"/><polyline points="-0.0227,0.1516 -0.0191,0.1516"/></g><g stroke-width="0.0015" stroke="rgb(5%, 5%, 5%)" stroke-opacity="1.0" fill="none"><polyline points="-0.0047,0.1510 -0.0011,0.1510"/><polyline points="-0.0029,0.1510 -0.0029,0.1509"/><polyline points="-0.0047,0.1509 -0.0011,0.1509"/></g><g stroke-width="0.0015" stroke="rgb(5%, 5%, 5%)" stroke-opacity="1.0" fill="none"><polyline points="0.0132,0.1514 0.0168,0.1514"/><polyline points="0.0150,0.1514 0.0150,0.1514"/><polyline points="0.0132,0.1514 0.0168,0.1514"/></g><g stroke-width="0.0015" stroke="rgb(5%, 5%, 5%)" stroke-opacity="1.0" fill="none"><polyline points="0.0312,0.1523 0.0348,0.1523"/><polyline points="0.0330,0.1523 0.0330,0.1523"/><polyline points="0.0312,0.1523 0.0348,0.1523"/></g><g stroke-width="0.0015" stroke="rgb(5%, 5%, 5%)" stroke-opacity="1.0" fill="none"><polyline points="0.0492,0.1525 0.0527,0.1525"/><polyline points="0.0510,0.1525 0.0510,0.1524"/><polyline points="0.0492,0.1524 0.0527,0.1524"/></g><g stroke-width="0.0015" stroke="rgb(5%, 5%, 5%)" stroke-opacity="1.0" fill="none"><polyline points="0.0671,0.1521 0.0707,0.1521"/><polyline points="0.0689,0.1521 0.0689,0.1521"/><polyline points="0.0671,0.1521 0.0707,0.1521"/></g><g stroke-width="0.0015" stroke="rgb(5%, 5%, 5%)" stroke-opacity="1.0" fill="none"><polyline points="0.0851,0.1524 0.0887,0.1524"/><polyline points="0.0869,0.1524 0.0869,0.1523"/><polyline points="0.0851,0.1523 0.0887,0.1523"/></g><g stroke-width="0.0015" stroke="rgb(5%, 5%, 5%)" stroke-opacity="1.0" fill="none"><polyline points="0.1030,0.1521 0.1066,0.1521"/><polyline points="0.1048,0.1521 0.1048,0.1521"/><polyline points="0.1030,0.1521 0.1066,0.1521"/></g><g stroke-width="0.0015" stroke="rgb(5%, 5%, 5%)" stroke-opacity="1.0" fill="none"><polyline points="0.1210,0.1522 0.1246,0.1522"/><polyline points="0.1228,0.1522 0.1228,0.1521"/><polyline points="0.1210,0.1521 0.1246,0.1521"/></g><g stroke-width="0.0015" stroke="rgb(5%, 5%, 5%)" stroke-opacity="1.0" fill="none"><polyline points="0.1389,0.1524 0.1425,0.1524"/><polyline points="0.1407,0.1524 0.1407,0.1523"/><polyline points="0.1389,0.1523 0.1425,0.1523"/></g><g stroke-width="0.0015" stroke="rgb(5%, 5%, 5%)" stroke-opacity="1.0" fill="none"><polyline points="0.1569,0.1521 0.1605,0.1521"/><polyline points="0.1587,0.1521 0.1587,0.1520"/><polyline points="0.1569,0.1520 0.1605,0.1520"/></g><g stroke-width="0.0015" stroke="rgb(5%, 5%, 5%)" stroke-opacity="1.0" fill="none"><polyline points="0.1749,-0.1039 0.1785,-0.1039"/><polyline points="0.1767,-0.1039 0.1767,-0.1043"/><polyline points="0.1749,-0.1043 0.1785,-0.1043"/></g><g stroke-width="0.0015" stroke="rgb(5%, 5%, 5%)" stroke-opacity="1.0" fill="none"><polyline points="0.1928,-0.0744 0.1964,-0.0744"/><polyline points="0.1946,-0.0744 0.1946,-0.0751"/><polyline points="0.1928,-0.0751 0.1964,-0.0751"/></g></g></g><g class="hud"><g class="axis"><g class="ticks"><g class="tickglyph"><g stroke-width="0.0040" stroke="rgb(5%, 5%, 5%)" stroke-opacity="0.4" fill="rgb(5%, 5%, 5%)" fill-opacity="0.4"><g transform="rotate(-90.0, -0.4342, 0.1532)"><polyline points="-0.4342,0.1682
-0.4342,0.1382"/></g><g transform="rotate(-90.0, -0.4342, 0.1157)"><polyline points="-0.4342,0.1307
-0.4342,0.1007"/></g><g transform="rotate(-90.0, -0.4342, 0.0783)"><polyline points="-0.4342,0.0933
-0.4342,0.0633"/></g><g transform="rotate(-90.0, -0.4342, 0.0408)"><polyline points="-0.4342,0.0558
-0.4342,0.0258"/></g><g transform="rotate(-90.0, -0.4342, 0.0033)"><polyline points="-0.4342,0.0183
-0.4342,-0.0117"/></g><g transform="rotate(-90.0, -0.4342, -0.0341)"><polyline points="-0.4342,-0.0191
-0.4342,-0.0491"/></g><g transform="rotate(-90.0, -0.4342, -0.0716)"><polyline points="-0.4342,-0.0566
-0.4342,-0.0866"/></g><g transform="rotate(-90.0, -0.4342, -0.1090)"><polyline points="-0.4342,-0.0940
-0.4342,-0.1240"/></g></g></g><g class="ticktext"><g stroke-width="0.0" stroke="none" fill="rgb(5%, 5%, 5%)" fill-opacity="1.0" font-size="0.0203" text-anchor="end"><text x="-0.4488" y="0.1568"> 0</text><text x="-0.4488" y="0.1193"> 5</text><text x="-0.4488" y="0.0819">10</text><text x="-0.4488" y="0.0444">15</text><text x="-0.4488" y="0.0069">20</text><text x="-0.4488" y="-0.0305">25</text><text x="-0.4488" y="-0.0680">30</text><text x="-0.4488" y="-0.1054">35</text></g></g><g class="ticklines"><g stroke-width="0.0050" stroke="rgb(5%, 5%, 5%)" stroke-opacity="0.05" fill="none"><polyline points="-0.4219,0.1532 0.2365,0.1532"/><polyline points="-0.4219,0.1157 0.2365,0.1157"/><polyline points="-0.4219,0.0783 0.2365,0.0783"/><polyline points="-0.4219,0.0408 0.2365,0.0408"/><polyline points="-0.4219,0.0033 0.2365,0.0033"/><polyline points="-0.4219,-0.0341 0.2365,-0.0341"/><polyline points="-0.4219,-0.0716 0.2365,-0.0716"/><polyline points="-0.4219,-0.1090 0.2365,-0.1090"/></g></g></g><g class="axisbar"><g stroke-width="0" stroke="rgb(0%, 0%, 0%)" stroke-opacity="0" fill="rgb(5%, 5%, 5%)" fill-opacity="0.4"><rect width="0.0016" height="0.2632" x="-0.4276" y="-0.1095"/></g></g></g><g class="axis"><g class="ticks"><g class="tickglyph"><g stroke-width="0.0040" stroke="rgb(5%, 5%, 5%)" stroke-opacity="0.4" fill="rgb(5%, 5%, 5%)" fill-opacity="0.4"><polyline points="-0.3800,0.1762
-0.3800,0.1462"/><polyline points="-0.3621,0.1762
-0.3621,0.1462"/><polyline points="-0.3441,0.1762
-0.3441,0.1462"/><polyline points="-0.3262,0.1762
-0.3262,0.1462"/><polyline points="-0.3082,0.1762
-0.3082,0.1462"/><polyline points="-0.2903,0.1762
-0.2903,0.1462"/><polyline points="-0.2723,0.1762
-0.2723,0.1462"/><polyline points="-0.2543,0.1762
-0.2543,0.1462"/><polyline points="-0.2364,0.1762
-0.2364,0.1462"/><polyline points="-0.2184,0.1762
-0.2184,0.1462"/><polyline points="-0.2005,0.1762
-0.2005,0.1462"/><polyline points="-0.1825,0.1762
-0.1825,0.1462"/><polyline points="-0.1645,0.1762
-0.1645,0.1462"/><polyline points="-0.1466,0.1762
-0.1466,0.1462"/><polyline points="-0.1286,0.1762
-0.1286,0.1462"/><polyline points="-0.1107,0.1762
-0.1107,0.1462"/><polyline points="-0.0927,0.1762
-0.0927,0.1462"/><polyline points="-0.0748,0.1762
-0.0748,0.1462"/><polyline points="-0.0568,0.1762
-0.0568,0.1462"/><polyline points="-0.0388,0.1762
-0.0388,0.1462"/><polyline points="-0.0209,0.1762
-0.0209,0.1462"/><polyline points="-0.0029,0.1762
-0.0029,0.1462"/><polyline points="0.0150,0.1762
0.0150,0.1462"/><polyline points="0.0330,0.1762
0.0330,0.1462"/><polyline points="0.0510,0.1762
0.0510,0.1462"/><polyline points="0.0689,0.1762
0.0689,0.1462"/><polyline points="0.0869,0.1762
0.0869,0.1462"/><polyline points="0.1048,0.1762
0.1048,0.1462"/><polyline points="0.1228,0.1762
0.1228,0.1462"/><polyline points="0.1407,0.1762
0.1407,0.1462"/><polyline points="0.1587,0.1762
0.1587,0.1462"/><polyline points="0.1767,0.1762
0.1767,0.1462"/><polyline points="0.1946,0.1762
0.1946,0.1462"/></g></g><g class="ticktext"><g stroke-width="0.0" stroke="none" fill="rgb(5%, 5%, 5%)" fill-opacity="1.0" font-size="0.0203" text-anchor="end"><text x="-0.3800" y="0.1778" transform="rotate(-45.0, -0.3800, 0.1778)">CDCL (adaptive)</text><text x="-0.3621" y="0.1778" transform="rotate(-45.0, -0.3621, 0.1778)">CDCL (adaptive), Baseline</text><text x="-0.3441" y="0.1778" transform="rotate(-45.0, -0.3441, 0.1778)">CDCL (adaptive, mVISDS, ExpRestart(100, 2))</text><text x="-0.3262" y="0.1778" transform="rotate(-45.0, -0.3262, 0.1778)">CDCL (adaptive, mVISDS, ExpRestart(100, 2)), Baseline</text><text x="-0.3082" y="0.1778" transform="rotate(-45.0, -0.3082, 0.1778)">CDCL (adaptive, mVISDS, ExpRestart(100, 2), Clause Decay 0.999)</text><text x="-0.2903" y="0.1778" transform="rotate(-45.0, -0.2903, 0.1778)">CDCL (adaptive, mVISDS, LubyRestart(100, 2))</text><text x="-0.2723" y="0.1778" transform="rotate(-45.0, -0.2723, 0.1778)">CDCL (adaptive, mVISDS, LubyRestart(100, 2)), Baseline</text><text x="-0.2543" y="0.1778" transform="rotate(-45.0, -0.2543, 0.1778)">CDCL (adaptive, mVISDS, LubyRestart(100, 2), Clause Decay)</text><text x="-0.2364" y="0.1778" transform="rotate(-45.0, -0.2364, 0.1778)">CDCL (adaptive, mVSIDS)</text><text x="-0.2184" y="0.1778" transform="rotate(-45.0, -0.2184, 0.1778)">CDCL (adaptive, mVSIDS), Baseline</text><text x="-0.2005" y="0.1778" transform="rotate(-45.0, -0.2005, 0.1778)">CDCL (adaptive, mVSIDS, Clause Decay 0.999)</text><text x="-0.1825" y="0.1778" transform="rotate(-45.0, -0.1825, 0.1778)">CDCL (α = 0.75)</text><text x="-0.1645" y="0.1778" transform="rotate(-45.0, -0.1645, 0.1778)">CDCL (α = 0.75), Baseline</text><text x="-0.1466" y="0.1778" transform="rotate(-45.0, -0.1466, 0.1778)">CDCL (α = 0.75, mVISDS)</text><text x="-0.1286" y="0.1778" transform="rotate(-45.0, -0.1286, 0.1778)">CDCL (α = 0.75, mVISDS), Baseline</text><text x="-0.1107" y="0.1778" transform="rotate(-45.0, -0.1107, 0.1778)">CDCL (α = 0.75, mVISDS, ExpRestart(100, 2))</text><text x="-0.0927" y="0.1778" transform="rotate(-45.0, -0.0927, 0.1778)">CDCL (α = 0.75, mVISDS, ExpRestart(100, 2)), Baseline</text><text x="-0.0748" y="0.1778" transform="rotate(-45.0, -0.0748, 0.1778)">CDCL (α = 0.75, mVISDS, ExpRestart(100, 2), Clause Decay 0.999)</text><text x="-0.0568" y="0.1778" transform="rotate(-45.0, -0.0568, 0.1778)">CDCL (α = 0.75, mVISDS, LubyRestart(100, 2))</text><text x="-0.0388" y="0.1778" transform="rotate(-45.0, -0.0388, 0.1778)">CDCL (α = 0.75, mVISDS, LubyRestart(100, 2)), Baseline</text><text x="-0.0209" y="0.1778" transform="rotate(-45.0, -0.0209, 0.1778)">CDCL (α = 0.75, mVISDS, LubyRestart(100, 2), Clause Decay 0.999)</text><text x="-0.0029" y="0.1778" transform="rotate(-45.0, -0.0029, 0.1778)">CDCL (α = 0.95)</text><text x="0.0150" y="0.1778" transform="rotate(-45.0, 0.0150, 0.1778)">CDCL (α = 0.95), Baseline</text><text x="0.0330" y="0.1778" transform="rotate(-45.0, 0.0330, 0.1778)">CDCL (α = 0.95, mVISDS)</text><text x="0.0510" y="0.1778" transform="rotate(-45.0, 0.0510, 0.1778)">CDCL (α = 0.95, mVISDS), Baseline</text><text x="0.0689" y="0.1778" transform="rotate(-45.0, 0.0689, 0.1778)">CDCL (α = 0.95, mVISDS, ExpRestart(100, 2))</text><text x="0.0869" y="0.1778" transform="rotate(-45.0, 0.0869, 0.1778)">CDCL (α = 0.95, mVISDS, ExpRestart(100, 2)), Baseline</text><text x="0.1048" y="0.1778" transform="rotate(-45.0, 0.1048, 0.1778)">CDCL (α = 0.95, mVISDS, ExpRestart(100, 2), Clause Decay 0.999)</text><text x="0.1228" y="0.1778" transform="rotate(-45.0, 0.1228, 0.1778)">CDCL (α = 0.95, mVISDS, LubyRestart(100, 2))</text><text x="0.1407" y="0.1778" transform="rotate(-45.0, 0.1407, 0.1778)">CDCL (α = 0.95, mVISDS, LubyRestart(100, 2)), Baseline</text><text x="0.1587" y="0.1778" transform="rotate(-45.0, 0.1587, 0.1778)">CDCL (α = 0.95, mVISDS, LubyRestart(100, 2), Clause Decay 0.999)</text><text x="0.1767" y="0.1778" transform="rotate(-45.0, 0.1767, 0.1778)">DPLL</text><text x="0.1946" y="0.1778" transform="rotate(-45.0, 0.1946, 0.1778)">DPLL, Baseline</text></g></g></g><g class="axisbar"><g stroke-width="0" stroke="rgb(0%, 0%, 0%)" stroke-opacity="0" fill="rgb(5%, 5%, 5%)" fill-opacity="0.4"><rect width="0.6601" height="0.0010" x="-0.4228" y="0.1559"/></g></g></g><g class="title"><g stroke-width="0.0" stroke="none" fill="rgb(5%, 5%, 5%)" fill-opacity="1.0" font-size="0.0488" text-anchor="middle"><text x="-0.2450" y="-0.1358">Time: SATLIB/uf100-430/uf100-0250/cnf</text></g></g><g class="legend"><g class="legendBorder"><g stroke-width="0.0017" stroke="rgb(5%, 5%, 5%)" stroke-opacity="1.0" fill="rgb(5%, 5%, 5%)" fill-opacity="0"><rect width="0.4191" height="0.6113" x="0.3071" y="-0.4466"/></g></g><g class="legendContent"><g stroke-width="0.0" stroke="none" fill="rgb(5%, 5%, 5%)" fill-opacity="1.0" font-size="0.0128" text-anchor="start"><text x="0.3142" y="0.1552">DPLL, Baseline</text></g><g stroke-width="0.0002" stroke="rgb(0%, 49%, 30%)" stroke-opacity="1.0" fill="rgb(0%, 49%, 30%)" fill-opacity="0.25"><rect width="0.0214" height="0.0138" x="0.6977" y="0.1463"/></g><g stroke-width="0.0" stroke="none" fill="rgb(5%, 5%, 5%)" fill-opacity="1.0" font-size="0.0128" text-anchor="start"><text x="0.3142" y="0.1368">DPLL</text></g><g stroke-width="0" stroke="rgb(2%, 29%, 48%)" stroke-opacity="1.0" fill="rgb(0%, 49%, 30%)" fill-opacity="1.0"><rect width="0.0214" height="0.0138" x="0.6977" y="0.1279"/></g><g stroke-width="0.0" stroke="none" fill="rgb(5%, 5%, 5%)" fill-opacity="1.0" font-size="0.0128" text-anchor="start"><text x="0.3142" y="0.1185">CDCL (α = 0.95, mVISDS, LubyRestart(100, 2), Clause Decay 0.999)</text></g><g stroke-width="0" stroke="rgb(2%, 29%, 48%)" stroke-opacity="1.0" fill="rgb(0%, 38%, 61%)" fill-opacity="1.0"><rect width="0.0214" height="0.0138" x="0.6977" y="0.1095"/></g><g stroke-width="0.0" stroke="none" fill="rgb(5%, 5%, 5%)" fill-opacity="1.0" font-size="0.0128" text-anchor="start"><text x="0.3142" y="0.1001">CDCL (α = 0.95, mVISDS, LubyRestart(100, 2)), Baseline</text></g><g stroke-width="0.0002" stroke="rgb(100%, 37%, 0%)" stroke-opacity="1.0" fill="rgb(100%, 37%, 0%)" fill-opacity="0.25"><rect width="0.0214" height="0.0138" x="0.6977" y="0.0911"/></g><g stroke-width="0.0" stroke="none" fill="rgb(5%, 5%, 5%)" fill-opacity="1.0" font-size="0.0128" text-anchor="start"><text x="0.3142" y="0.0817">CDCL (α = 0.95, mVISDS, LubyRestart(100, 2))</text></g><g stroke-width="0" stroke="rgb(2%, 29%, 48%)" stroke-opacity="1.0" fill="rgb(100%, 37%, 0%)" fill-opacity="1.0"><rect width="0.0214" height="0.0138" x="0.6977" y="0.0727"/></g><g stroke-width="0.0" stroke="none" fill="rgb(5%, 5%, 5%)" fill-opacity="1.0" font-size="0.0128" text-anchor="start"><text x="0.3142" y="0.0633">CDCL (α = 0.95, mVISDS, ExpRestart(100, 2), Clause Decay 0.999)</text></g><g stroke-width="0" stroke="rgb(2%, 29%, 48%)" stroke-opacity="1.0" fill="rgb(54%, 0%, 0%)" fill-opacity="1.0"><rect width="0.0214" height="0.0138" x="0.6977" y="0.0544"/></g><g stroke-width="0.0" stroke="none" fill="rgb(5%, 5%, 5%)" fill-opacity="1.0" font-size="0.0128" text-anchor="start"><text x="0.3142" y="0.0449">CDCL (α = 0.95, mVISDS, ExpRestart(100, 2)), Baseline</text></g><g stroke-width="0.0002" stroke="rgb(42%, 44%, 14%)" stroke-opacity="1.0" fill="rgb(42%, 44%, 14%)" fill-opacity="0.25"><rect width="0.0214" height="0.0138" x="0.6977" y="0.0360"/></g><g stroke-width="0.0" stroke="none" fill="rgb(5%, 5%, 5%)" fill-opacity="1.0" font-size="0.0128" text-anchor="start"><text x="0.3142" y="0.0265">CDCL (α = 0.95, mVISDS, ExpRestart(100, 2))</text></g><g stroke-width="0" stroke="rgb(2%, 29%, 48%)" stroke-opacity="1.0" fill="rgb(42%, 44%, 14%)" fill-opacity="1.0"><rect width="0.0214" height="0.0138" x="0.6977" y="0.0176"/></g><g stroke-width="0.0" stroke="none" fill="rgb(5%, 5%, 5%)" fill-opacity="1.0" font-size="0.0128" text-anchor="start"><text x="0.3142" y="0.0082">CDCL (α = 0.95, mVISDS), Baseline</text></g><g stroke-width="0.0002" stroke="rgb(0%, 42%, 48%)" stroke-opacity="1.0" fill="rgb(0%, 42%, 48%)" fill-opacity="0.25"><rect width="0.0214" height="0.0138" x="0.6977" y="-0.0008"/></g><g stroke-width="0.0" stroke="none" fill="rgb(5%, 5%, 5%)" fill-opacity="1.0" font-size="0.0128" text-anchor="start"><text x="0.3142" y="-0.0102">CDCL (α = 0.95, mVISDS)</text></g><g stroke-width="0" stroke="rgb(2%, 29%, 48%)" stroke-opacity="1.0" fill="rgb(0%, 42%, 48%)" fill-opacity="1.0"><rect width="0.0214" height="0.0138" x="0.6977" y="-0.0192"/></g><g stroke-width="0.0" stroke="none" fill="rgb(5%, 5%, 5%)" fill-opacity="1.0" font-size="0.0128" text-anchor="start"><text x="0.3142" y="-0.0286">CDCL (α = 0.95), Baseline</text></g><g stroke-width="0.0002" stroke="rgb(69%, 17%, 0%)" stroke-opacity="1.0" fill="rgb(69%, 17%, 0%)" fill-opacity="0.25"><rect width="0.0214" height="0.0138" x="0.6977" y="-0.0376"/></g><g stroke-width="0.0" stroke="none" fill="rgb(5%, 5%, 5%)" fill-opacity="1.0" font-size="0.0128" text-anchor="start"><text x="0.3142" y="-0.0470">CDCL (α = 0.95)</text></g><g stroke-width="0" stroke="rgb(2%, 29%, 48%)" stroke-opacity="1.0" fill="rgb(69%, 17%, 0%)" fill-opacity="1.0"><rect width="0.0214" height="0.0138" x="0.6977" y="-0.0560"/></g><g stroke-width="0.0" stroke="none" fill="rgb(5%, 5%, 5%)" fill-opacity="1.0" font-size="0.0128" text-anchor="start"><text x="0.3142" y="-0.0654">CDCL (α = 0.75, mVISDS, LubyRestart(100, 2), Clause Decay 0.999)</text></g><g stroke-width="0" stroke="rgb(2%, 29%, 48%)" stroke-opacity="1.0" fill="rgb(53%, 24%, 0%)" fill-opacity="1.0"><rect width="0.0214" height="0.0138" x="0.6977" y="-0.0743"/></g><g stroke-width="0.0" stroke="none" fill="rgb(5%, 5%, 5%)" fill-opacity="1.0" font-size="0.0128" text-anchor="start"><text x="0.3142" y="-0.0838">CDCL (α = 0.75, mVISDS, LubyRestart(100, 2)), Baseline</text></g><g stroke-width="0.0002" stroke="rgb(57%, 62%, 78%)" stroke-opacity="1.0" fill="rgb(57%, 62%, 78%)" fill-opacity="0.25"><rect width="0.0214" height="0.0138" x="0.6977" y="-0.0927"/></g><g stroke-width="0.0" stroke="none" fill="rgb(5%, 5%, 5%)" fill-opacity="1.0" font-size="0.0128" text-anchor="start"><text x="0.3142" y="-0.1022">CDCL (α = 0.75, mVISDS, LubyRestart(100, 2))</text></g><g stroke-width="0" stroke="rgb(2%, 29%, 48%)" stroke-opacity="1.0" fill="rgb(57%, 62%, 78%)" fill-opacity="1.0"><rect width="0.0214" height="0.0138" x="0.6977" y="-0.1111"/></g><g stroke-width="0.0" stroke="none" fill="rgb(5%, 5%, 5%)" fill-opacity="1.0" font-size="0.0128" text-anchor="start"><text x="0.3142" y="-0.1206">CDCL (α = 0.75, mVISDS, ExpRestart(100, 2), Clause Decay 0.999)</text></g><g stroke-width="0" stroke="rgb(2%, 29%, 48%)" stroke-opacity="1.0" fill="rgb(98%, 15%, 25%)" fill-opacity="1.0"><rect width="0.0214" height="0.0138" x="0.6977" y="-0.1295"/></g><g stroke-width="0.0" stroke="none" fill="rgb(5%, 5%, 5%)" fill-opacity="1.0" font-size="0.0128" text-anchor="start"><text x="0.3142" y="-0.1389">CDCL (α = 0.75, mVISDS, ExpRestart(100, 2)), Baseline</text></g><g stroke-width="0.0002" stroke="rgb(0%, 72%, 67%)" stroke-opacity="1.0" fill="rgb(0%, 72%, 67%)" fill-opacity="0.25"><rect width="0.0214" height="0.0138" x="0.6977" y="-0.1479"/></g><g stroke-width="0.0" stroke="none" fill="rgb(5%, 5%, 5%)" fill-opacity="1.0" font-size="0.0128" text-anchor="start"><text x="0.3142" y="-0.1573">CDCL (α = 0.75, mVISDS, ExpRestart(100, 2))</text></g><g stroke-width="0" stroke="rgb(2%, 29%, 48%)" stroke-opacity="1.0" fill="rgb(0%, 72%, 67%)" fill-opacity="1.0"><rect width="0.0214" height="0.0138" x="0.6977" y="-0.1663"/></g><g stroke-width="0.0" stroke="none" fill="rgb(5%, 5%, 5%)" fill-opacity="1.0" font-size="0.0128" text-anchor="start"><text x="0.3142" y="-0.1757">CDCL (α = 0.75, mVISDS), Baseline</text></g><g stroke-width="0.0002" stroke="rgb(48%, 65%, 0%)" stroke-opacity="1.0" fill="rgb(48%, 65%, 0%)" fill-opacity="0.25"><rect width="0.0214" height="0.0138" x="0.6977" y="-0.1847"/></g><g stroke-width="0.0" stroke="none" fill="rgb(5%, 5%, 5%)" fill-opacity="1.0" font-size="0.0128" text-anchor="start"><text x="0.3142" y="-0.1941">CDCL (α = 0.75, mVISDS)</text></g><g stroke-width="0" stroke="rgb(2%, 29%, 48%)" stroke-opacity="1.0" fill="rgb(48%, 65%, 0%)" fill-opacity="1.0"><rect width="0.0214" height="0.0138" x="0.6977" y="-0.2031"/></g><g stroke-width="0.0" stroke="none" fill="rgb(5%, 5%, 5%)" fill-opacity="1.0" font-size="0.0128" text-anchor="start"><text x="0.3142" y="-0.2125">CDCL (α = 0.75), Baseline</text></g><g stroke-width="0.0002" stroke="rgb(20%, 15%, 40%)" stroke-opacity="1.0" fill="rgb(20%, 15%, 40%)" fill-opacity="0.25"><rect width="0.0214" height="0.0138" x="0.6977" y="-0.2214"/></g><g stroke-width="0.0" stroke="none" fill="rgb(5%, 5%, 5%)" fill-opacity="1.0" font-size="0.0128" text-anchor="start"><text x="0.3142" y="-0.2309">CDCL (α = 0.75)</text></g><g stroke-width="0" stroke="rgb(2%, 29%, 48%)" stroke-opacity="1.0" fill="rgb(20%, 15%, 40%)" fill-opacity="1.0"><rect width="0.0214" height="0.0138" x="0.6977" y="-0.2398"/></g><g stroke-width="0.0" stroke="none" fill="rgb(5%, 5%, 5%)" fill-opacity="1.0" font-size="0.0128" text-anchor="start"><text x="0.3142" y="-0.2493">CDCL (adaptive, mVSIDS, Clause Decay 0.999)</text></g><g stroke-width="0" stroke="rgb(2%, 29%, 48%)" stroke-opacity="1.0" fill="rgb(37%, 17%, 0%)" fill-opacity="1.0"><rect width="0.0214" height="0.0138" x="0.6977" y="-0.2582"/></g><g stroke-width="0.0" stroke="none" fill="rgb(5%, 5%, 5%)" fill-opacity="1.0" font-size="0.0128" text-anchor="start"><text x="0.3142" y="-0.2676">CDCL (adaptive, mVSIDS), Baseline</text></g><g stroke-width="0.0002" stroke="rgb(72%, 66%, 0%)" stroke-opacity="1.0" fill="rgb(72%, 66%, 0%)" fill-opacity="0.25"><rect width="0.0214" height="0.0138" x="0.6977" y="-0.2766"/></g><g stroke-width="0.0" stroke="none" fill="rgb(5%, 5%, 5%)" fill-opacity="1.0" font-size="0.0128" text-anchor="start"><text x="0.3142" y="-0.2860">CDCL (adaptive, mVSIDS)</text></g><g stroke-width="0" stroke="rgb(2%, 29%, 48%)" stroke-opacity="1.0" fill="rgb(72%, 66%, 0%)" fill-opacity="1.0"><rect width="0.0214" height="0.0138" x="0.6977" y="-0.2950"/></g><g stroke-width="0.0" stroke="none" fill="rgb(5%, 5%, 5%)" fill-opacity="1.0" font-size="0.0128" text-anchor="start"><text x="0.3142" y="-0.3044">CDCL (adaptive, mVISDS, LubyRestart(100, 2), Clause Decay)</text></g><g stroke-width="0" stroke="rgb(2%, 29%, 48%)" stroke-opacity="1.0" fill="rgb(0%, 21%, 55%)" fill-opacity="1.0"><rect width="0.0214" height="0.0138" x="0.6977" y="-0.3134"/></g><g stroke-width="0.0" stroke="none" fill="rgb(5%, 5%, 5%)" fill-opacity="1.0" font-size="0.0128" text-anchor="start"><text x="0.3142" y="-0.3228">CDCL (adaptive, mVISDS, LubyRestart(100, 2)), Baseline</text></g><g stroke-width="0.0002" stroke="rgb(0%, 36%, 0%)" stroke-opacity="1.0" fill="rgb(0%, 36%, 0%)" fill-opacity="0.25"><rect width="0.0214" height="0.0138" x="0.6977" y="-0.3317"/></g><g stroke-width="0.0" stroke="none" fill="rgb(5%, 5%, 5%)" fill-opacity="1.0" font-size="0.0128" text-anchor="start"><text x="0.3142" y="-0.3412">CDCL (adaptive, mVISDS, LubyRestart(100, 2))</text></g><g stroke-width="0" stroke="rgb(2%, 29%, 48%)" stroke-opacity="1.0" fill="rgb(0%, 36%, 0%)" fill-opacity="1.0"><rect width="0.0214" height="0.0138" x="0.6977" y="-0.3501"/></g><g stroke-width="0.0" stroke="none" fill="rgb(5%, 5%, 5%)" fill-opacity="1.0" font-size="0.0128" text-anchor="start"><text x="0.3142" y="-0.3596">CDCL (adaptive, mVISDS, ExpRestart(100, 2), Clause Decay 0.999)</text></g><g stroke-width="0" stroke="rgb(2%, 29%, 48%)" stroke-opacity="1.0" fill="rgb(70%, 21%, 0%)" fill-opacity="1.0"><rect width="0.0214" height="0.0138" x="0.6977" y="-0.3685"/></g><g stroke-width="0.0" stroke="none" fill="rgb(5%, 5%, 5%)" fill-opacity="1.0" font-size="0.0128" text-anchor="start"><text x="0.3142" y="-0.3779">CDCL (adaptive, mVISDS, ExpRestart(100, 2)), Baseline</text></g><g stroke-width="0.0002" stroke="rgb(47%, 34%, 0%)" stroke-opacity="1.0" fill="rgb(47%, 34%, 0%)" fill-opacity="0.25"><rect width="0.0214" height="0.0138" x="0.6977" y="-0.3869"/></g><g stroke-width="0.0" stroke="none" fill="rgb(5%, 5%, 5%)" fill-opacity="1.0" font-size="0.0128" text-anchor="start"><text x="0.3142" y="-0.3963">CDCL (adaptive, mVISDS, ExpRestart(100, 2))</text></g><g stroke-width="0" stroke="rgb(2%, 29%, 48%)" stroke-opacity="1.0" fill="rgb(47%, 34%, 0%)" fill-opacity="1.0"><rect width="0.0214" height="0.0138" x="0.6977" y="-0.4053"/></g><g stroke-width="0.0" stroke="none" fill="rgb(5%, 5%, 5%)" fill-opacity="1.0" font-size="0.0128" text-anchor="start"><text x="0.3142" y="-0.4147">CDCL (adaptive), Baseline</text></g><g stroke-width="0.0002" stroke="rgb(57%, 0%, 21%)" stroke-opacity="1.0" fill="rgb(57%, 0%, 21%)" fill-opacity="0.25"><rect width="0.0214" height="0.0138" x="0.6977" y="-0.4237"/></g><g stroke-width="0.0" stroke="none" fill="rgb(5%, 5%, 5%)" fill-opacity="1.0" font-size="0.0128" text-anchor="start"><text x="0.3142" y="-0.4331">CDCL (adaptive)</text></g><g stroke-width="0" stroke="rgb(2%, 29%, 48%)" stroke-opacity="1.0" fill="rgb(57%, 0%, 21%)" fill-opacity="1.0"><rect width="0.0214" height="0.0138" x="0.6977" y="-0.4421"/></g></g></g><g class="frame"><g stroke-width="0" stroke="rgb(0%, 0%, 0%)" stroke-opacity="0" fill="rgb(100%, 100%, 100%)" fill-opacity="0.02"><rect width="1.6180" height="1.0" x="-0.8090" y="-0.5"/></g></g><g class="title"><g stroke-width="0.0" stroke="none" fill="rgb(5%, 5%, 5%)" fill-opacity="1.0" font-size="0.0244" text-anchor="middle"><text x="-0.7512" y="0" transform="rotate(-90.0, -0.7512, 0)">Time [s]</text></g></g></g></svg>