<svg xmlns="http://www.w3.org/2000/svg" xmlns:xlink="http://www.w3.org/1999/xlink" width="434" height="300" viewBox="-0.8090 -0.5 1.6180 1.1163"><style>svg {
  color-scheme: light dark;
}
{
  .canvas g, .title g, .axisbar g, .ticktext g, .tickglyph g, .ticklines g, .legendContent g text {
    fill: rgb(5%, 5%, 5%);
  }
  .ticklines g, .tickglyph g, .legendBorder g {
    stroke: rgb(5%, 5%, 5%);
  }
  .legendBorder g {
    fill: rgb(94%, 94%, 94%);
  }
}
@media (prefers-color-scheme:dark) {
  .canvas g, .title g, .axisbar g, .ticktext g, .tickglyph g, .ticklines g, .legendContent g text {
    fill: rgb(94%, 94%, 94%);
  }
  .ticklines g, .tickglyph g, .legendBorder g {
    stroke: rgb(94%, 94%, 94%);
  }
  .legendBorder g {
    fill: rgb(5%, 5%, 5%);
  }
}</style><g class="chart"><g class="barchart"><g stroke-width="0" stroke="rgb(2%, 29%, 48%)" stroke-opacity="1.0" fill="rgb(57%, 0%, 21%)" fill-opacity="1.0"><rect width="0.0159" height="0.1619" x="-0.3826" y="0.0150"/></g><g stroke-width="0.0010" stroke="rgb(57%, 0%, 21%)" stroke-opacity="1.0" fill="rgb(57%, 0%, 21%)" fill-opacity="0.25"><rect width="0.0159" height="0.1404" x="-0.3667" y="0.0366"/></g><g stroke-width="0" stroke="rgb(2%, 29%, 48%)" stroke-opacity="1.0" fill="rgb(47%, 34%, 0%)" fill-opacity="1.0"><rect width="0.0159" height="0.1574" x="-0.3507" y="0.0195"/></g><g stroke-width="0.0010" stroke="rgb(47%, 34%, 0%)" stroke-opacity="1.0" fill="rgb(47%, 34%, 0%)" fill-opacity="0.25"><rect width="0.0159" height="0.1410" x="-0.3348" y="0.0359"/></g><g stroke-width="0" stroke="rgb(2%, 29%, 48%)" stroke-opacity="1.0" fill="rgb(70%, 21%, 0%)" fill-opacity="1.0"><rect width="0.0159" height="0.1545" x="-0.3189" y="0.0224"/></g><g stroke-width="0" stroke="rgb(2%, 29%, 48%)" stroke-opacity="1.0" fill="rgb(0%, 36%, 0%)" fill-opacity="1.0"><rect width="0.0159" height="0.1551" x="-0.3029" y="0.0218"/></g><g stroke-width="0.0010" stroke="rgb(0%, 36%, 0%)" stroke-opacity="1.0" fill="rgb(0%, 36%, 0%)" fill-opacity="0.25"><rect width="0.0159" height="0.1367" x="-0.2870" y="0.0402"/></g><g stroke-width="0" stroke="rgb(2%, 29%, 48%)" stroke-opacity="1.0" fill="rgb(0%, 21%, 55%)" fill-opacity="1.0"><rect width="0.0159" height="0.1544" x="-0.2711" y="0.0225"/></g><g stroke-width="0" stroke="rgb(2%, 29%, 48%)" stroke-opacity="1.0" fill="rgb(72%, 66%, 0%)" fill-opacity="1.0"><rect width="0.0159" height="0.1533" x="-0.2551" y="0.0236"/></g><g stroke-width="0.0010" stroke="rgb(72%, 66%, 0%)" stroke-opacity="1.0" fill="rgb(72%, 66%, 0%)" fill-opacity="0.25"><rect width="0.0159" height="0.1372" x="-0.2392" y="0.0397"/></g><g stroke-width="0" stroke="rgb(2%, 29%, 48%)" stroke-opacity="1.0" fill="rgb(37%, 17%, 0%)" fill-opacity="1.0"><rect width="0.0159" height="0.1566" x="-0.2233" y="0.0203"/></g><g stroke-width="0" stroke="rgb(2%, 29%, 48%)" stroke-opacity="1.0" fill="rgb(20%, 15%, 40%)" fill-opacity="1.0"><rect width="0.0159" height="0.1537" x="-0.2074" y="0.0232"/></g><g stroke-width="0.0010" stroke="rgb(20%, 15%, 40%)" stroke-opacity="1.0" fill="rgb(20%, 15%, 40%)" fill-opacity="0.25"><rect width="0.0159" height="0.1369" x="-0.1914" y="0.0401"/></g><g stroke-width="0" stroke="rgb(2%, 29%, 48%)" stroke-opacity="1.0" fill="rgb(48%, 65%, 0%)" fill-opacity="1.0"><rect width="0.0159" height="0.1498" x="-0.1755" y="0.0272"/></g><g stroke-width="0.0010" stroke="rgb(48%, 65%, 0%)" stroke-opacity="1.0" fill="rgb(48%, 65%, 0%)" fill-opacity="0.25"><rect width="0.0159" height="0.1336" x="-0.1596" y="0.0433"/></g><g stroke-width="0" stroke="rgb(2%, 29%, 48%)" stroke-opacity="1.0" fill="rgb(35%, 24%, 0%)" fill-opacity="1.0"><rect width="0.0159" height="0.1529" x="-0.1436" y="0.0241"/></g><g stroke-width="0" stroke="rgb(2%, 29%, 48%)" stroke-opacity="1.0" fill="rgb(0%, 72%, 67%)" fill-opacity="1.0"><rect width="0.0159" height="0.1491" x="-0.1277" y="0.0278"/></g><g stroke-width="0.0010" stroke="rgb(0%, 72%, 67%)" stroke-opacity="1.0" fill="rgb(0%, 72%, 67%)" fill-opacity="0.25"><rect width="0.0159" height="0.1371" x="-0.1118" y="0.0398"/></g><g stroke-width="0" stroke="rgb(2%, 29%, 48%)" stroke-opacity="1.0" fill="rgb(98%, 15%, 25%)" fill-opacity="1.0"><rect width="0.0159" height="0.1582" x="-0.0958" y="0.0187"/></g><g stroke-width="0" stroke="rgb(2%, 29%, 48%)" stroke-opacity="1.0" fill="rgb(57%, 62%, 78%)" fill-opacity="1.0"><rect width="0.0159" height="0.1577" x="-0.0799" y="0.0192"/></g><g stroke-width="0.0010" stroke="rgb(57%, 62%, 78%)" stroke-opacity="1.0" fill="rgb(57%, 62%, 78%)" fill-opacity="0.25"><rect width="0.0159" height="0.1383" x="-0.0640" y="0.0386"/></g><g stroke-width="0" stroke="rgb(2%, 29%, 48%)" stroke-opacity="1.0" fill="rgb(53%, 24%, 0%)" fill-opacity="1.0"><rect width="0.0159" height="0.1513" x="-0.0480" y="0.0256"/></g><g stroke-width="0" stroke="rgb(2%, 29%, 48%)" stroke-opacity="1.0" fill="rgb(69%, 17%, 0%)" fill-opacity="1.0"><rect width="0.0159" height="0.1512" x="-0.0321" y="0.0258"/></g><g stroke-width="0.0010" stroke="rgb(69%, 17%, 0%)" stroke-opacity="1.0" fill="rgb(69%, 17%, 0%)" fill-opacity="0.25"><rect width="0.0159" height="0.1380" x="-0.0162" y="0.0389"/></g><g stroke-width="0" stroke="rgb(2%, 29%, 48%)" stroke-opacity="1.0" fill="rgb(0%, 42%, 48%)" fill-opacity="1.0"><rect width="0.0159" height="0.1511" x="-0.0003" y="0.0258"/></g><g stroke-width="0.0010" stroke="rgb(0%, 42%, 48%)" stroke-opacity="1.0" fill="rgb(0%, 42%, 48%)" fill-opacity="0.25"><rect width="0.0159" height="0.1380" x="0.0157" y="0.0389"/></g><g stroke-width="0" stroke="rgb(2%, 29%, 48%)" stroke-opacity="1.0" fill="rgb(18%, 22%, 10%)" fill-opacity="1.0"><rect width="0.0159" height="0.1542" x="0.0316" y="0.0227"/></g><g stroke-width="0" stroke="rgb(2%, 29%, 48%)" stroke-opacity="1.0" fill="rgb(42%, 44%, 14%)" fill-opacity="1.0"><rect width="0.0159" height="0.1557" x="0.0475" y="0.0212"/></g><g stroke-width="0.0010" stroke="rgb(42%, 44%, 14%)" stroke-opacity="1.0" fill="rgb(42%, 44%, 14%)" fill-opacity="0.25"><rect width="0.0159" height="0.1426" x="0.0635" y="0.0343"/></g><g stroke-width="0" stroke="rgb(2%, 29%, 48%)" stroke-opacity="1.0" fill="rgb(54%, 0%, 0%)" fill-opacity="1.0"><rect width="0.0159" height="0.1544" x="0.0794" y="0.0225"/></g><g stroke-width="0" stroke="rgb(2%, 29%, 48%)" stroke-opacity="1.0" fill="rgb(100%, 37%, 0%)" fill-opacity="1.0"><rect width="0.0159" height="0.1533" x="0.0953" y="0.0236"/></g><g stroke-width="0.0010" stroke="rgb(100%, 37%, 0%)" stroke-opacity="1.0" fill="rgb(100%, 37%, 0%)" fill-opacity="0.25"><rect width="0.0159" height="0.1378" x="0.1113" y="0.0391"/></g><g stroke-width="0" stroke="rgb(2%, 29%, 48%)" stroke-opacity="1.0" fill="rgb(0%, 38%, 61%)" fill-opacity="1.0"><rect width="0.0159" height="0.1580" x="0.1272" y="0.0190"/></g><g stroke-width="0" stroke="rgb(2%, 29%, 48%)" stroke-opacity="1.0" fill="rgb(0%, 49%, 30%)" fill-opacity="1.0"><rect width="0.0159" height="0.0309" x="0.1431" y="0.1461"/></g><g stroke-width="0.0010" stroke="rgb(0%, 49%, 30%)" stroke-opacity="1.0" fill="rgb(0%, 49%, 30%)" fill-opacity="0.25"><rect width="0.0159" height="0.0299" x="0.1591" y="0.1470"/></g><g stroke-width="0" stroke="rgb(2%, 29%, 48%)" stroke-opacity="1.0" fill="rgb(69%, 16%, 76%)" fill-opacity="1.0"><rect width="0.0159" height="0.2314" x="0.1750" y="-0.0544"/></g><g stroke-width="0.0010" stroke="rgb(69%, 16%, 76%)" stroke-opacity="1.0" fill="rgb(69%, 16%, 76%)" fill-opacity="0.25"><rect width="0.0159" height="0.2157" x="0.1909" y="-0.0388"/></g></g><g class="errors"><g stroke-width="0.0015" stroke="rgb(5%, 5%, 5%)" stroke-opacity="1.0" fill="none"><polyline points="-0.3762,0.0201 -0.3730,0.0201"/><polyline points="-0.3746,0.0201 -0.3746,0.0098"/><polyline points="-0.3762,0.0098 -0.3730,0.0098"/></g><g stroke-width="0.0015" stroke="rgb(5%, 5%, 5%)" stroke-opacity="1.0" fill="none"><polyline points="-0.3603,0.0422 -0.3571,0.0422"/><polyline points="-0.3587,0.0422 -0.3587,0.0309"/><polyline points="-0.3603,0.0309 -0.3571,0.0309"/></g><g stroke-width="0.0015" stroke="rgb(5%, 5%, 5%)" stroke-opacity="1.0" fill="none"><polyline points="-0.3444,0.0243 -0.3412,0.0243"/><polyline points="-0.3428,0.0243 -0.3428,0.0147"/><polyline points="-0.3444,0.0147 -0.3412,0.0147"/></g><g stroke-width="0.0015" stroke="rgb(5%, 5%, 5%)" stroke-opacity="1.0" fill="none"><polyline points="-0.3284,0.0405 -0.3252,0.0405"/><polyline points="-0.3268,0.0405 -0.3268,0.0313"/><polyline points="-0.3284,0.0313 -0.3252,0.0313"/></g><g stroke-width="0.0015" stroke="rgb(5%, 5%, 5%)" stroke-opacity="1.0" fill="none"><polyline points="-0.3125,0.0300 -0.3093,0.0300"/><polyline points="-0.3109,0.0300 -0.3109,0.0148"/><polyline points="-0.3125,0.0148 -0.3093,0.0148"/></g><g stroke-width="0.0015" stroke="rgb(5%, 5%, 5%)" stroke-opacity="1.0" fill="none"><polyline points="-0.2966,0.0275 -0.2934,0.0275"/><polyline points="-0.2950,0.0275 -0.2950,0.0160"/><polyline points="-0.2966,0.0160 -0.2934,0.0160"/></g><g stroke-width="0.0015" stroke="rgb(5%, 5%, 5%)" stroke-opacity="1.0" fill="none"><polyline points="-0.2806,0.0465 -0.2774,0.0465"/><polyline points="-0.2790,0.0465 -0.2790,0.0340"/><polyline points="-0.2806,0.0340 -0.2774,0.0340"/></g><g stroke-width="0.0015" stroke="rgb(5%, 5%, 5%)" stroke-opacity="1.0" fill="none"><polyline points="-0.2647,0.0263 -0.2615,0.0263"/><polyline points="-0.2631,0.0263 -0.2631,0.0187"/><polyline points="-0.2647,0.0187 -0.2615,0.0187"/></g><g stroke-width="0.0015" stroke="rgb(5%, 5%, 5%)" stroke-opacity="1.0" fill="none"><polyline points="-0.2488,0.0292 -0.2456,0.0292"/><polyline points="-0.2472,0.0292 -0.2472,0.0179"/><polyline points="-0.2488,0.0179 -0.2456,0.0179"/></g><g stroke-width="0.0015" stroke="rgb(5%, 5%, 5%)" stroke-opacity="1.0" fill="none"><polyline points="-0.2328,0.0456 -0.2297,0.0456"/><polyline points="-0.2312,0.0456 -0.2312,0.0338"/><polyline points="-0.2328,0.0338 -0.2297,0.0338"/></g><g stroke-width="0.0015" stroke="rgb(5%, 5%, 5%)" stroke-opacity="1.0" fill="none"><polyline points="-0.2169,0.0258 -0.2137,0.0258"/><polyline points="-0.2153,0.0258 -0.2153,0.0148"/><polyline points="-0.2169,0.0148 -0.2137,0.0148"/></g><g stroke-width="0.0015" stroke="rgb(5%, 5%, 5%)" stroke-opacity="1.0" fill="none"><polyline points="-0.2010,0.0299 -0.1978,0.0299"/><polyline points="-0.1994,0.0299 -0.1994,0.0165"/><polyline points="-0.2010,0.0165 -0.1978,0.0165"/></g><g stroke-width="0.0015" stroke="rgb(5%, 5%, 5%)" stroke-opacity="1.0" fill="none"><polyline points="-0.1850,0.0439 -0.1819,0.0439"/><polyline points="-0.1835,0.0439 -0.1835,0.0363"/><polyline points="-0.1850,0.0363 -0.1819,0.0363"/></g><g stroke-width="0.0015" stroke="rgb(5%, 5%, 5%)" stroke-opacity="1.0" fill="none"><polyline points="-0.1691,0.0324 -0.1659,0.0324"/><polyline points="-0.1675,0.0324 -0.1675,0.0219"/><polyline points="-0.1691,0.0219 -0.1659,0.0219"/></g><g stroke-width="0.0015" stroke="rgb(5%, 5%, 5%)" stroke-opacity="1.0" fill="none"><polyline points="-0.1532,0.0485 -0.1500,0.0485"/><polyline points="-0.1516,0.0485 -0.1516,0.0382"/><polyline points="-0.1532,0.0382 -0.1500,0.0382"/></g><g stroke-width="0.0015" stroke="rgb(5%, 5%, 5%)" stroke-opacity="1.0" fill="none"><polyline points="-0.1373,0.0294 -0.1341,0.0294"/><polyline points="-0.1357,0.0294 -0.1357,0.0187"/><polyline points="-0.1373,0.0187 -0.1341,0.0187"/></g><g stroke-width="0.0015" stroke="rgb(5%, 5%, 5%)" stroke-opacity="1.0" fill="none"><polyline points="-0.1213,0.0330 -0.1181,0.0330"/><polyline points="-0.1197,0.0330 -0.1197,0.0227"/><polyline points="-0.1213,0.0227 -0.1181,0.0227"/></g><g stroke-width="0.0015" stroke="rgb(5%, 5%, 5%)" stroke-opacity="1.0" fill="none"><polyline points="-0.1054,0.0436 -0.1022,0.0436"/><polyline points="-0.1038,0.0436 -0.1038,0.0360"/><polyline points="-0.1054,0.0360 -0.1022,0.0360"/></g><g stroke-width="0.0015" stroke="rgb(5%, 5%, 5%)" stroke-opacity="1.0" fill="none"><polyline points="-0.0895,0.0244 -0.0863,0.0244"/><polyline points="-0.0879,0.0244 -0.0879,0.0130"/><polyline points="-0.0895,0.0130 -0.0863,0.0130"/></g><g stroke-width="0.0015" stroke="rgb(5%, 5%, 5%)" stroke-opacity="1.0" fill="none"><polyline points="-0.0735,0.0258 -0.0703,0.0258"/><polyline points="-0.0719,0.0258 -0.0719,0.0126"/><polyline points="-0.0735,0.0126 -0.0703,0.0126"/></g><g stroke-width="0.0015" stroke="rgb(5%, 5%, 5%)" stroke-opacity="1.0" fill="none"><polyline points="-0.0576,0.0444 -0.0544,0.0444"/><polyline points="-0.0560,0.0444 -0.0560,0.0328"/><polyline points="-0.0576,0.0328 -0.0544,0.0328"/></g><g stroke-width="0.0015" stroke="rgb(5%, 5%, 5%)" stroke-opacity="1.0" fill="none"><polyline points="-0.0417,0.0312 -0.0385,0.0312"/><polyline points="-0.0401,0.0312 -0.0401,0.0200"/><polyline points="-0.0417,0.0200 -0.0385,0.0200"/></g><g stroke-width="0.0015" stroke="rgb(5%, 5%, 5%)" stroke-opacity="1.0" fill="none"><polyline points="-0.0257,0.0306 -0.0226,0.0306"/><polyline points="-0.0241,0.0306 -0.0241,0.0209"/><polyline points="-0.0257,0.0209 -0.0226,0.0209"/></g><g stroke-width="0.0015" stroke="rgb(5%, 5%, 5%)" stroke-opacity="1.0" fill="none"><polyline points="-0.0098,0.0435 -0.0066,0.0435"/><polyline points="-0.0082,0.0435 -0.0082,0.0343"/><polyline points="-0.0098,0.0343 -0.0066,0.0343"/></g><g stroke-width="0.0015" stroke="rgb(5%, 5%, 5%)" stroke-opacity="1.0" fill="none"><polyline points="0.0061,0.0317 0.0093,0.0317"/><polyline points="0.0077,0.0317 0.0077,0.0199"/><polyline points="0.0061,0.0199 0.0093,0.0199"/></g><g stroke-width="0.0015" stroke="rgb(5%, 5%, 5%)" stroke-opacity="1.0" fill="none"><polyline points="0.0221,0.0439 0.0252,0.0439"/><polyline points="0.0236,0.0439 0.0236,0.0340"/><polyline points="0.0221,0.0340 0.0252,0.0340"/></g><g stroke-width="0.0015" stroke="rgb(5%, 5%, 5%)" stroke-opacity="1.0" fill="none"><polyline points="0.0380,0.0274 0.0412,0.0274"/><polyline points="0.0396,0.0274 0.0396,0.0180"/><polyline points="0.0380,0.0180 0.0412,0.0180"/></g><g stroke-width="0.0015" stroke="rgb(5%, 5%, 5%)" stroke-opacity="1.0" fill="none"><polyline points="0.0539,0.0259 0.0571,0.0259"/><polyline points="0.0555,0.0259 0.0555,0.0164"/><polyline points="0.0539,0.0164 0.0571,0.0164"/></g><g stroke-width="0.0015" stroke="rgb(5%, 5%, 5%)" stroke-opacity="1.0" fill="none"><polyline points="0.0698,0.0396 0.0730,0.0396"/><polyline points="0.0714,0.0396 0.0714,0.0289"/><polyline points="0.0698,0.0289 0.0730,0.0289"/></g><g stroke-width="0.0015" stroke="rgb(5%, 5%, 5%)" stroke-opacity="1.0" fill="none"><polyline points="0.0858,0.0259 0.0890,0.0259"/><polyline points="0.0874,0.0259 0.0874,0.0192"/><polyline points="0.0858,0.0192 0.0890,0.0192"/></g><g stroke-width="0.0015" stroke="rgb(5%, 5%, 5%)" stroke-opacity="1.0" fill="none"><polyline points="0.1017,0.0264 0.1049,0.0264"/><polyline points="0.1033,0.0264 0.1033,0.0208"/><polyline points="0.1017,0.0208 0.1049,0.0208"/></g><g stroke-width="0.0015" stroke="rgb(5%, 5%, 5%)" stroke-opacity="1.0" fill="none"><polyline points="0.1176,0.0439 0.1208,0.0439"/><polyline points="0.1192,0.0439 0.1192,0.0344"/><polyline points="0.1176,0.0344 0.1208,0.0344"/></g><g stroke-width="0.0015" stroke="rgb(5%, 5%, 5%)" stroke-opacity="1.0" fill="none"><polyline points="0.1336,0.0267 0.1368,0.0267"/><polyline points="0.1352,0.0267 0.1352,0.0112"/><polyline points="0.1336,0.0112 0.1368,0.0112"/></g><g stroke-width="0.0015" stroke="rgb(5%, 5%, 5%)" stroke-opacity="1.0" fill="none"><polyline points="0.1495,0.1474 0.1527,0.1474"/><polyline points="0.1511,0.1474 0.1511,0.1448"/><polyline points="0.1495,0.1448 0.1527,0.1448"/></g><g stroke-width="0.0015" stroke="rgb(5%, 5%, 5%)" stroke-opacity="1.0" fill="none"><polyline points="0.1654,0.1483 0.1686,0.1483"/><polyline points="0.1670,0.1483 0.1670,0.1457"/><polyline points="0.1654,0.1457 0.1686,0.1457"/></g><g stroke-width="0.0015" stroke="rgb(5%, 5%, 5%)" stroke-opacity="1.0" fill="none"><polyline points="0.1814,-0.0449 0.1845,-0.0449"/><polyline points="0.1830,-0.0449 0.1830,-0.0640"/><polyline points="0.1814,-0.0640 0.1845,-0.0640"/></g><g stroke-width="0.0015" stroke="rgb(5%, 5%, 5%)" stroke-opacity="1.0" fill="none"><polyline points="0.1973,-0.0295 0.2005,-0.0295"/><polyline points="0.1989,-0.0295 0.1989,-0.0481"/><polyline points="0.1973,-0.0481 0.2005,-0.0481"/></g></g></g><g class="hud"><g class="axis"><g class="ticks"><g class="tickglyph"><g stroke-width="0.0040" stroke="rgb(5%, 5%, 5%)" stroke-opacity="0.4" fill="rgb(5%, 5%, 5%)" fill-opacity="0.4"><g transform="rotate(-90.0, -0.4275, 0.1769)"><polyline points="-0.4275,0.1919
-0.4275,0.1619"/></g><g transform="rotate(-90.0, -0.4275, 0.1547)"><polyline points="-0.4275,0.1697
-0.4275,0.1397"/></g><g transform="rotate(-90.0, -0.4275, 0.1325)"><polyline points="-0.4275,0.1475
-0.4275,0.1175"/></g><g transform="rotate(-90.0, -0.4275, 0.1103)"><polyline points="-0.4275,0.1253
-0.4275,0.0953"/></g><g transform="rotate(-90.0, -0.4275, 0.0881)"><polyline points="-0.4275,0.1031
-0.4275,0.0731"/></g><g transform="rotate(-90.0, -0.4275, 0.0659)"><polyline points="-0.4275,0.0809
-0.4275,0.0509"/></g><g transform="rotate(-90.0, -0.4275, 0.0437)"><polyline points="-0.4275,0.0587
-0.4275,0.0287"/></g><g transform="rotate(-90.0, -0.4275, 0.0215)"><polyline points="-0.4275,0.0365
-0.4275,0.0065"/></g><g transform="rotate(-90.0, -0.4275, -0.0007)"><polyline points="-0.4275,0.0143
-0.4275,-0.0157"/></g><g transform="rotate(-90.0, -0.4275, -0.0229)"><polyline points="-0.4275,-0.0079
-0.4275,-0.0379"/></g><g transform="rotate(-90.0, -0.4275, -0.0451)"><polyline points="-0.4275,-0.0301
-0.4275,-0.0601"/></g><g transform="rotate(-90.0, -0.4275, -0.0673)"><polyline points="-0.4275,-0.0523
-0.4275,-0.0823"/></g></g></g><g class="ticktext"><g stroke-width="0.0" stroke="none" fill="rgb(5%, 5%, 5%)" fill-opacity="1.0" font-size="0.0202" text-anchor="end"><text x="-0.4421" y="0.1803">0.0</text><text x="-0.4421" y="0.1581">0.2</text><text x="-0.4421" y="0.1359">0.4</text><text x="-0.4421" y="0.1137">0.6</text><text x="-0.4421" y="0.0915">0.8</text><text x="-0.4421" y="0.0693">1.0</text><text x="-0.4421" y="0.0471">1.2</text><text x="-0.4421" y="0.0249">1.4</text><text x="-0.4421" y="0.0027">1.6</text><text x="-0.4421" y="-0.0195">1.8</text><text x="-0.4421" y="-0.0418">2.0</text><text x="-0.4421" y="-0.0640">2.2</text></g></g><g class="ticklines"><g stroke-width="0.0050" stroke="rgb(5%, 5%, 5%)" stroke-opacity="0.05" fill="none"><polyline points="-0.4153,0.1769 0.2396,0.1769"/><polyline points="-0.4153,0.1547 0.2396,0.1547"/><polyline points="-0.4153,0.1325 0.2396,0.1325"/><polyline points="-0.4153,0.1103 0.2396,0.1103"/><polyline points="-0.4153,0.0881 0.2396,0.0881"/><polyline points="-0.4153,0.0659 0.2396,0.0659"/><polyline points="-0.4153,0.0437 0.2396,0.0437"/><polyline points="-0.4153,0.0215 0.2396,0.0215"/><polyline points="-0.4153,-0.0007 0.2396,-0.0007"/><polyline points="-0.4153,-0.0229 0.2396,-0.0229"/><polyline points="-0.4153,-0.0451 0.2396,-0.0451"/><polyline points="-0.4153,-0.0673 0.2396,-0.0673"/></g></g></g><g class="axisbar"><g stroke-width="0" stroke="rgb(0%, 0%, 0%)" stroke-opacity="0" fill="rgb(5%, 5%, 5%)" fill-opacity="0.4"><rect width="0.0016" height="0.2452" x="-0.4210" y="-0.0678"/></g></g></g><g class="axis"><g class="ticks"><g class="tickglyph"><g stroke-width="0.0040" stroke="rgb(5%, 5%, 5%)" stroke-opacity="0.4" fill="rgb(5%, 5%, 5%)" fill-opacity="0.4"><polyline points="-0.3746,0.1994
-0.3746,0.1694"/><polyline points="-0.3587,0.1994
-0.3587,0.1694"/><polyline points="-0.3428,0.1994
-0.3428,0.1694"/><polyline points="-0.3268,0.1994
-0.3268,0.1694"/><polyline points="-0.3109,0.1994
-0.3109,0.1694"/><polyline points="-0.2950,0.1994
-0.2950,0.1694"/><polyline points="-0.2790,0.1994
-0.2790,0.1694"/><polyline points="-0.2631,0.1994
-0.2631,0.1694"/><polyline points="-0.2472,0.1994
-0.2472,0.1694"/><polyline points="-0.2312,0.1994
-0.2312,0.1694"/><polyline points="-0.2153,0.1994
-0.2153,0.1694"/><polyline points="-0.1994,0.1994
-0.1994,0.1694"/><polyline points="-0.1835,0.1994
-0.1835,0.1694"/><polyline points="-0.1675,0.1994
-0.1675,0.1694"/><polyline points="-0.1516,0.1994
-0.1516,0.1694"/><polyline points="-0.1357,0.1994
-0.1357,0.1694"/><polyline points="-0.1197,0.1994
-0.1197,0.1694"/><polyline points="-0.1038,0.1994
-0.1038,0.1694"/><polyline points="-0.0879,0.1994
-0.0879,0.1694"/><polyline points="-0.0719,0.1994
-0.0719,0.1694"/><polyline points="-0.0560,0.1994
-0.0560,0.1694"/><polyline points="-0.0401,0.1994
-0.0401,0.1694"/><polyline points="-0.0241,0.1994
-0.0241,0.1694"/><polyline points="-0.0082,0.1994
-0.0082,0.1694"/><polyline points="0.0077,0.1994
0.0077,0.1694"/><polyline points="0.0236,0.1994
0.0236,0.1694"/><polyline points="0.0396,0.1994
0.0396,0.1694"/><polyline points="0.0555,0.1994
0.0555,0.1694"/><polyline points="0.0714,0.1994
0.0714,0.1694"/><polyline points="0.0874,0.1994
0.0874,0.1694"/><polyline points="0.1033,0.1994
0.1033,0.1694"/><polyline points="0.1192,0.1994
0.1192,0.1694"/><polyline points="0.1352,0.1994
0.1352,0.1694"/><polyline points="0.1511,0.1994
0.1511,0.1694"/><polyline points="0.1670,0.1994
0.1670,0.1694"/><polyline points="0.1830,0.1994
0.1830,0.1694"/><polyline points="0.1989,0.1994
0.1989,0.1694"/></g></g><g class="ticktext"><g stroke-width="0.0" stroke="none" fill="rgb(5%, 5%, 5%)" fill-opacity="1.0" font-size="0.0202" text-anchor="end"><text x="-0.3746" y="0.1999" transform="rotate(-45.0, -0.3746, 0.1999)">CDCL (adaptive)</text><text x="-0.3587" y="0.1999" transform="rotate(-45.0, -0.3587, 0.1999)">CDCL (adaptive), Baseline</text><text x="-0.3428" y="0.1999" transform="rotate(-45.0, -0.3428, 0.1999)">CDCL (adaptive, mVISDS, ExpRestart(100, 2))</text><text x="-0.3268" y="0.1999" transform="rotate(-45.0, -0.3268, 0.1999)">CDCL (adaptive, mVISDS, ExpRestart(100, 2)), Baseline</text><text x="-0.3109" y="0.1999" transform="rotate(-45.0, -0.3109, 0.1999)">CDCL (adaptive, mVISDS, ExpRestart(100, 2), Clause Decay 0.999)</text><text x="-0.2950" y="0.1999" transform="rotate(-45.0, -0.2950, 0.1999)">CDCL (adaptive, mVISDS, LubyRestart(100, 2))</text><text x="-0.2790" y="0.1999" transform="rotate(-45.0, -0.2790, 0.1999)">CDCL (adaptive, mVISDS, LubyRestart(100, 2)), Baseline</text><text x="-0.2631" y="0.1999" transform="rotate(-45.0, -0.2631, 0.1999)">CDCL (adaptive, mVISDS, LubyRestart(100, 2), Clause Decay)</text><text x="-0.2472" y="0.1999" transform="rotate(-45.0, -0.2472, 0.1999)">CDCL (adaptive, mVSIDS)</text><text x="-0.2312" y="0.1999" transform="rotate(-45.0, -0.2312, 0.1999)">CDCL (adaptive, mVSIDS), Baseline</text><text x="-0.2153" y="0.1999" transform="rotate(-45.0, -0.2153, 0.1999)">CDCL (adaptive, mVSIDS, Clause Decay 0.999)</text><text x="-0.1994" y="0.1999" transform="rotate(-45.0, -0.1994, 0.1999)">CDCL (α = 0.75)</text><text x="-0.1835" y="0.1999" transform="rotate(-45.0, -0.1835, 0.1999)">CDCL (α = 0.75), Baseline</text><text x="-0.1675" y="0.1999" transform="rotate(-45.0, -0.1675, 0.1999)">CDCL (α = 0.75, mVISDS)</text><text x="-0.1516" y="0.1999" transform="rotate(-45.0, -0.1516, 0.1999)">CDCL (α = 0.75, mVISDS), Baseline</text><text x="-0.1357" y="0.1999" transform="rotate(-45.0, -0.1357, 0.1999)">CDCL (α = 0.75, mVISDS, Clause Decay 0.999)</text><text x="-0.1197" y="0.1999" transform="rotate(-45.0, -0.1197, 0.1999)">CDCL (α = 0.75, mVISDS, ExpRestart(100, 2))</text><text x="-0.1038" y="0.1999" transform="rotate(-45.0, -0.1038, 0.1999)">CDCL (α = 0.75, mVISDS, ExpRestart(100, 2)), Baseline</text><text x="-0.0879" y="0.1999" transform="rotate(-45.0, -0.0879, 0.1999)">CDCL (α = 0.75, mVISDS, ExpRestart(100, 2), Clause Decay 0.999)</text><text x="-0.0719" y="0.1999" transform="rotate(-45.0, -0.0719, 0.1999)">CDCL (α = 0.75, mVISDS, LubyRestart(100, 2))</text><text x="-0.0560" y="0.1999" transform="rotate(-45.0, -0.0560, 0.1999)">CDCL (α = 0.75, mVISDS, LubyRestart(100, 2)), Baseline</text><text x="-0.0401" y="0.1999" transform="rotate(-45.0, -0.0401, 0.1999)">CDCL (α = 0.75, mVISDS, LubyRestart(100, 2), Clause Decay 0.999)</text><text x="-0.0241" y="0.1999" transform="rotate(-45.0, -0.0241, 0.1999)">CDCL (α = 0.95)</text><text x="-0.0082" y="0.1999" transform="rotate(-45.0, -0.0082, 0.1999)">CDCL (α = 0.95), Baseline</text><text x="0.0077" y="0.1999" transform="rotate(-45.0, 0.0077, 0.1999)">CDCL (α = 0.95, mVISDS)</text><text x="0.0236" y="0.1999" transform="rotate(-45.0, 0.0236, 0.1999)">CDCL (α = 0.95, mVISDS), Baseline</text><text x="0.0396" y="0.1999" transform="rotate(-45.0, 0.0396, 0.1999)">CDCL (α = 0.95, mVISDS, Clause Decay 0.999)</text><text x="0.0555" y="0.1999" transform="rotate(-45.0, 0.0555, 0.1999)">CDCL (α = 0.95, mVISDS, ExpRestart(100, 2))</text><text x="0.0714" y="0.1999" transform="rotate(-45.0, 0.0714, 0.1999)">CDCL (α = 0.95, mVISDS, ExpRestart(100, 2)), Baseline</text><text x="0.0874" y="0.1999" transform="rotate(-45.0, 0.0874, 0.1999)">CDCL (α = 0.95, mVISDS, ExpRestart(100, 2), Clause Decay 0.999)</text><text x="0.1033" y="0.1999" transform="rotate(-45.0, 0.1033, 0.1999)">CDCL (α = 0.95, mVISDS, LubyRestart(100, 2))</text><text x="0.1192" y="0.1999" transform="rotate(-45.0, 0.1192, 0.1999)">CDCL (α = 0.95, mVISDS, LubyRestart(100, 2)), Baseline</text><text x="0.1352" y="0.1999" transform="rotate(-45.0, 0.1352, 0.1999)">CDCL (α = 0.95, mVISDS, LubyRestart(100, 2), Clause Decay 0.999)</text><text x="0.1511" y="0.1999" transform="rotate(-45.0, 0.1511, 0.1999)">DPLL</text><text x="0.1670" y="0.1999" transform="rotate(-45.0, 0.1670, 0.1999)">DPLL, Baseline</text><text x="0.1830" y="0.1999" transform="rotate(-45.0, 0.1830, 0.1999)">tableaux</text><text x="0.1989" y="0.1999" transform="rotate(-45.0, 0.1989, 0.1999)">tableaux, Baseline</text></g></g></g><g class="axisbar"><g stroke-width="0" stroke="rgb(0%, 0%, 0%)" stroke-opacity="0" fill="rgb(5%, 5%, 5%)" fill-opacity="0.4"><rect width="0.6566" height="0.0010" x="-0.4161" y="0.1795"/></g></g></g><g class="title"><g stroke-width="0.0" stroke="none" fill="rgb(5%, 5%, 5%)" fill-opacity="1.0" font-size="0.0486" text-anchor="middle"><text x="-0.2437" y="-0.0923">Time: huge/1/cnf</text></g></g><g class="legend"><g class="legendBorder"><g stroke-width="0.0017" stroke="rgb(5%, 5%, 5%)" stroke-opacity="1.0" fill="rgb(5%, 5%, 5%)" fill-opacity="0"><rect width="0.4168" height="0.6379" x="0.3098" y="-0.4503"/></g></g><g class="legendContent"><g stroke-width="0.0" stroke="none" fill="rgb(5%, 5%, 5%)" fill-opacity="1.0" font-size="0.0128" text-anchor="start"><text x="0.3169" y="0.1788">tableaux, Baseline</text></g><g stroke-width="0.0002" stroke="rgb(69%, 16%, 76%)" stroke-opacity="1.0" fill="rgb(69%, 16%, 76%)" fill-opacity="0.25"><rect width="0.0213" height="0.0128" x="0.6983" y="0.1705"/></g><g stroke-width="0.0" stroke="none" fill="rgb(5%, 5%, 5%)" fill-opacity="1.0" font-size="0.0128" text-anchor="start"><text x="0.3169" y="0.1617">tableaux</text></g><g stroke-width="0" stroke="rgb(2%, 29%, 48%)" stroke-opacity="1.0" fill="rgb(69%, 16%, 76%)" fill-opacity="1.0"><rect width="0.0213" height="0.0128" x="0.6983" y="0.1534"/></g><g stroke-width="0.0" stroke="none" fill="rgb(5%, 5%, 5%)" fill-opacity="1.0" font-size="0.0128" text-anchor="start"><text x="0.3169" y="0.1446">DPLL, Baseline</text></g><g stroke-width="0.0002" stroke="rgb(0%, 49%, 30%)" stroke-opacity="1.0" fill="rgb(0%, 49%, 30%)" fill-opacity="0.25"><rect width="0.0213" height="0.0128" x="0.6983" y="0.1363"/></g><g stroke-width="0.0" stroke="none" fill="rgb(5%, 5%, 5%)" fill-opacity="1.0" font-size="0.0128" text-anchor="start"><text x="0.3169" y="0.1274">DPLL</text></g><g stroke-width="0" stroke="rgb(2%, 29%, 48%)" stroke-opacity="1.0" fill="rgb(0%, 49%, 30%)" fill-opacity="1.0"><rect width="0.0213" height="0.0128" x="0.6983" y="0.1191"/></g><g stroke-width="0.0" stroke="none" fill="rgb(5%, 5%, 5%)" fill-opacity="1.0" font-size="0.0128" text-anchor="start"><text x="0.3169" y="0.1103">CDCL (α = 0.95, mVISDS, LubyRestart(100, 2), Clause Decay 0.999)</text></g><g stroke-width="0" stroke="rgb(2%, 29%, 48%)" stroke-opacity="1.0" fill="rgb(0%, 38%, 61%)" fill-opacity="1.0"><rect width="0.0213" height="0.0128" x="0.6983" y="0.1020"/></g><g stroke-width="0.0" stroke="none" fill="rgb(5%, 5%, 5%)" fill-opacity="1.0" font-size="0.0128" text-anchor="start"><text x="0.3169" y="0.0932">CDCL (α = 0.95, mVISDS, LubyRestart(100, 2)), Baseline</text></g><g stroke-width="0.0002" stroke="rgb(100%, 37%, 0%)" stroke-opacity="1.0" fill="rgb(100%, 37%, 0%)" fill-opacity="0.25"><rect width="0.0213" height="0.0128" x="0.6983" y="0.0849"/></g><g stroke-width="0.0" stroke="none" fill="rgb(5%, 5%, 5%)" fill-opacity="1.0" font-size="0.0128" text-anchor="start"><text x="0.3169" y="0.0761">CDCL (α = 0.95, mVISDS, LubyRestart(100, 2))</text></g><g stroke-width="0" stroke="rgb(2%, 29%, 48%)" stroke-opacity="1.0" fill="rgb(100%, 37%, 0%)" fill-opacity="1.0"><rect width="0.0213" height="0.0128" x="0.6983" y="0.0677"/></g><g stroke-width="0.0" stroke="none" fill="rgb(5%, 5%, 5%)" fill-opacity="1.0" font-size="0.0128" text-anchor="start"><text x="0.3169" y="0.0590">CDCL (α = 0.95, mVISDS, ExpRestart(100, 2), Clause Decay 0.999)</text></g><g stroke-width="0" stroke="rgb(2%, 29%, 48%)" stroke-opacity="1.0" fill="rgb(54%, 0%, 0%)" fill-opacity="1.0"><rect width="0.0213" height="0.0128" x="0.6983" y="0.0506"/></g><g stroke-width="0.0" stroke="none" fill="rgb(5%, 5%, 5%)" fill-opacity="1.0" font-size="0.0128" text-anchor="start"><text x="0.3169" y="0.0418">CDCL (α = 0.95, mVISDS, ExpRestart(100, 2)), Baseline</text></g><g stroke-width="0.0002" stroke="rgb(42%, 44%, 14%)" stroke-opacity="1.0" fill="rgb(42%, 44%, 14%)" fill-opacity="0.25"><rect width="0.0213" height="0.0128" x="0.6983" y="0.0335"/></g><g stroke-width="0.0" stroke="none" fill="rgb(5%, 5%, 5%)" fill-opacity="1.0" font-size="0.0128" text-anchor="start"><text x="0.3169" y="0.0247">CDCL (α = 0.95, mVISDS, ExpRestart(100, 2))</text></g><g stroke-width="0" stroke="rgb(2%, 29%, 48%)" stroke-opacity="1.0" fill="rgb(42%, 44%, 14%)" fill-opacity="1.0"><rect width="0.0213" height="0.0128" x="0.6983" y="0.0164"/></g><g stroke-width="0.0" stroke="none" fill="rgb(5%, 5%, 5%)" fill-opacity="1.0" font-size="0.0128" text-anchor="start"><text x="0.3169" y="0.0076">CDCL (α = 0.95, mVISDS, Clause Decay 0.999)</text></g><g stroke-width="0" stroke="rgb(2%, 29%, 48%)" stroke-opacity="1.0" fill="rgb(18%, 22%, 10%)" fill-opacity="1.0"><rect width="0.0213" height="0.0128" x="0.6983" y="-0.0008"/></g><g stroke-width="0.0" stroke="none" fill="rgb(5%, 5%, 5%)" fill-opacity="1.0" font-size="0.0128" text-anchor="start"><text x="0.3169" y="-0.0095">CDCL (α = 0.95, mVISDS), Baseline</text></g><g stroke-width="0.0002" stroke="rgb(0%, 42%, 48%)" stroke-opacity="1.0" fill="rgb(0%, 42%, 48%)" fill-opacity="0.25"><rect width="0.0213" height="0.0128" x="0.6983" y="-0.0179"/></g><g stroke-width="0.0" stroke="none" fill="rgb(5%, 5%, 5%)" fill-opacity="1.0" font-size="0.0128" text-anchor="start"><text x="0.3169" y="-0.0267">CDCL (α = 0.95, mVISDS)</text></g><g stroke-width="0" stroke="rgb(2%, 29%, 48%)" stroke-opacity="1.0" fill="rgb(0%, 42%, 48%)" fill-opacity="1.0"><rect width="0.0213" height="0.0128" x="0.6983" y="-0.0350"/></g><g stroke-width="0.0" stroke="none" fill="rgb(5%, 5%, 5%)" fill-opacity="1.0" font-size="0.0128" text-anchor="start"><text x="0.3169" y="-0.0438">CDCL (α = 0.95), Baseline</text></g><g stroke-width="0.0002" stroke="rgb(69%, 17%, 0%)" stroke-opacity="1.0" fill="rgb(69%, 17%, 0%)" fill-opacity="0.25"><rect width="0.0213" height="0.0128" x="0.6983" y="-0.0521"/></g><g stroke-width="0.0" stroke="none" fill="rgb(5%, 5%, 5%)" fill-opacity="1.0" font-size="0.0128" text-anchor="start"><text x="0.3169" y="-0.0609">CDCL (α = 0.95)</text></g><g stroke-width="0" stroke="rgb(2%, 29%, 48%)" stroke-opacity="1.0" fill="rgb(69%, 17%, 0%)" fill-opacity="1.0"><rect width="0.0213" height="0.0128" x="0.6983" y="-0.0693"/></g><g stroke-width="0.0" stroke="none" fill="rgb(5%, 5%, 5%)" fill-opacity="1.0" font-size="0.0128" text-anchor="start"><text x="0.3169" y="-0.0780">CDCL (α = 0.75, mVISDS, LubyRestart(100, 2), Clause Decay 0.999)</text></g><g stroke-width="0" stroke="rgb(2%, 29%, 48%)" stroke-opacity="1.0" fill="rgb(53%, 24%, 0%)" fill-opacity="1.0"><rect width="0.0213" height="0.0128" x="0.6983" y="-0.0864"/></g><g stroke-width="0.0" stroke="none" fill="rgb(5%, 5%, 5%)" fill-opacity="1.0" font-size="0.0128" text-anchor="start"><text x="0.3169" y="-0.0952">CDCL (α = 0.75, mVISDS, LubyRestart(100, 2)), Baseline</text></g><g stroke-width="0.0002" stroke="rgb(57%, 62%, 78%)" stroke-opacity="1.0" fill="rgb(57%, 62%, 78%)" fill-opacity="0.25"><rect width="0.0213" height="0.0128" x="0.6983" y="-0.1035"/></g><g stroke-width="0.0" stroke="none" fill="rgb(5%, 5%, 5%)" fill-opacity="1.0" font-size="0.0128" text-anchor="start"><text x="0.3169" y="-0.1123">CDCL (α = 0.75, mVISDS, LubyRestart(100, 2))</text></g><g stroke-width="0" stroke="rgb(2%, 29%, 48%)" stroke-opacity="1.0" fill="rgb(57%, 62%, 78%)" fill-opacity="1.0"><rect width="0.0213" height="0.0128" x="0.6983" y="-0.1206"/></g><g stroke-width="0.0" stroke="none" fill="rgb(5%, 5%, 5%)" fill-opacity="1.0" font-size="0.0128" text-anchor="start"><text x="0.3169" y="-0.1294">CDCL (α = 0.75, mVISDS, ExpRestart(100, 2), Clause Decay 0.999)</text></g><g stroke-width="0" stroke="rgb(2%, 29%, 48%)" stroke-opacity="1.0" fill="rgb(98%, 15%, 25%)" fill-opacity="1.0"><rect width="0.0213" height="0.0128" x="0.6983" y="-0.1378"/></g><g stroke-width="0.0" stroke="none" fill="rgb(5%, 5%, 5%)" fill-opacity="1.0" font-size="0.0128" text-anchor="start"><text x="0.3169" y="-0.1465">CDCL (α = 0.75, mVISDS, ExpRestart(100, 2)), Baseline</text></g><g stroke-width="0.0002" stroke="rgb(0%, 72%, 67%)" stroke-opacity="1.0" fill="rgb(0%, 72%, 67%)" fill-opacity="0.25"><rect width="0.0213" height="0.0128" x="0.6983" y="-0.1549"/></g><g stroke-width="0.0" stroke="none" fill="rgb(5%, 5%, 5%)" fill-opacity="1.0" font-size="0.0128" text-anchor="start"><text x="0.3169" y="-0.1637">CDCL (α = 0.75, mVISDS, ExpRestart(100, 2))</text></g><g stroke-width="0" stroke="rgb(2%, 29%, 48%)" stroke-opacity="1.0" fill="rgb(0%, 72%, 67%)" fill-opacity="1.0"><rect width="0.0213" height="0.0128" x="0.6983" y="-0.1720"/></g><g stroke-width="0.0" stroke="none" fill="rgb(5%, 5%, 5%)" fill-opacity="1.0" font-size="0.0128" text-anchor="start"><text x="0.3169" y="-0.1808">CDCL (α = 0.75, mVISDS, Clause Decay 0.999)</text></g><g stroke-width="0" stroke="rgb(2%, 29%, 48%)" stroke-opacity="1.0" fill="rgb(35%, 24%, 0%)" fill-opacity="1.0"><rect width="0.0213" height="0.0128" x="0.6983" y="-0.1891"/></g><g stroke-width="0.0" stroke="none" fill="rgb(5%, 5%, 5%)" fill-opacity="1.0" font-size="0.0128" text-anchor="start"><text x="0.3169" y="-0.1979">CDCL (α = 0.75, mVISDS), Baseline</text></g><g stroke-width="0.0002" stroke="rgb(48%, 65%, 0%)" stroke-opacity="1.0" fill="rgb(48%, 65%, 0%)" fill-opacity="0.25"><rect width="0.0213" height="0.0128" x="0.6983" y="-0.2062"/></g><g stroke-width="0.0" stroke="none" fill="rgb(5%, 5%, 5%)" fill-opacity="1.0" font-size="0.0128" text-anchor="start"><text x="0.3169" y="-0.2151">CDCL (α = 0.75, mVISDS)</text></g><g stroke-width="0" stroke="rgb(2%, 29%, 48%)" stroke-opacity="1.0" fill="rgb(48%, 65%, 0%)" fill-opacity="1.0"><rect width="0.0213" height="0.0128" x="0.6983" y="-0.2234"/></g><g stroke-width="0.0" stroke="none" fill="rgb(5%, 5%, 5%)" fill-opacity="1.0" font-size="0.0128" text-anchor="start"><text x="0.3169" y="-0.2322">CDCL (α = 0.75), Baseline</text></g><g stroke-width="0.0002" stroke="rgb(20%, 15%, 40%)" stroke-opacity="1.0" fill="rgb(20%, 15%, 40%)" fill-opacity="0.25"><rect width="0.0213" height="0.0128" x="0.6983" y="-0.2405"/></g><g stroke-width="0.0" stroke="none" fill="rgb(5%, 5%, 5%)" fill-opacity="1.0" font-size="0.0128" text-anchor="start"><text x="0.3169" y="-0.2493">CDCL (α = 0.75)</text></g><g stroke-width="0" stroke="rgb(2%, 29%, 48%)" stroke-opacity="1.0" fill="rgb(20%, 15%, 40%)" fill-opacity="1.0"><rect width="0.0213" height="0.0128" x="0.6983" y="-0.2576"/></g><g stroke-width="0.0" stroke="none" fill="rgb(5%, 5%, 5%)" fill-opacity="1.0" font-size="0.0128" text-anchor="start"><text x="0.3169" y="-0.2664">CDCL (adaptive, mVSIDS, Clause Decay 0.999)</text></g><g stroke-width="0" stroke="rgb(2%, 29%, 48%)" stroke-opacity="1.0" fill="rgb(37%, 17%, 0%)" fill-opacity="1.0"><rect width="0.0213" height="0.0128" x="0.6983" y="-0.2748"/></g><g stroke-width="0.0" stroke="none" fill="rgb(5%, 5%, 5%)" fill-opacity="1.0" font-size="0.0128" text-anchor="start"><text x="0.3169" y="-0.2835">CDCL (adaptive, mVSIDS), Baseline</text></g><g stroke-width="0.0002" stroke="rgb(72%, 66%, 0%)" stroke-opacity="1.0" fill="rgb(72%, 66%, 0%)" fill-opacity="0.25"><rect width="0.0213" height="0.0128" x="0.6983" y="-0.2919"/></g><g stroke-width="0.0" stroke="none" fill="rgb(5%, 5%, 5%)" fill-opacity="1.0" font-size="0.0128" text-anchor="start"><text x="0.3169" y="-0.3007">CDCL (adaptive, mVSIDS)</text></g><g stroke-width="0" stroke="rgb(2%, 29%, 48%)" stroke-opacity="1.0" fill="rgb(72%, 66%, 0%)" fill-opacity="1.0"><rect width="0.0213" height="0.0128" x="0.6983" y="-0.3090"/></g><g stroke-width="0.0" stroke="none" fill="rgb(5%, 5%, 5%)" fill-opacity="1.0" font-size="0.0128" text-anchor="start"><text x="0.3169" y="-0.3178">CDCL (adaptive, mVISDS, LubyRestart(100, 2), Clause Decay)</text></g><g stroke-width="0" stroke="rgb(2%, 29%, 48%)" stroke-opacity="1.0" fill="rgb(0%, 21%, 55%)" fill-opacity="1.0"><rect width="0.0213" height="0.0128" x="0.6983" y="-0.3261"/></g><g stroke-width="0.0" stroke="none" fill="rgb(5%, 5%, 5%)" fill-opacity="1.0" font-size="0.0128" text-anchor="start"><text x="0.3169" y="-0.3349">CDCL (adaptive, mVISDS, LubyRestart(100, 2)), Baseline</text></g><g stroke-width="0.0002" stroke="rgb(0%, 36%, 0%)" stroke-opacity="1.0" fill="rgb(0%, 36%, 0%)" fill-opacity="0.25"><rect width="0.0213" height="0.0128" x="0.6983" y="-0.3433"/></g><g stroke-width="0.0" stroke="none" fill="rgb(5%, 5%, 5%)" fill-opacity="1.0" font-size="0.0128" text-anchor="start"><text x="0.3169" y="-0.3521">CDCL (adaptive, mVISDS, LubyRestart(100, 2))</text></g><g stroke-width="0" stroke="rgb(2%, 29%, 48%)" stroke-opacity="1.0" fill="rgb(0%, 36%, 0%)" fill-opacity="1.0"><rect width="0.0213" height="0.0128" x="0.6983" y="-0.3604"/></g><g stroke-width="0.0" stroke="none" fill="rgb(5%, 5%, 5%)" fill-opacity="1.0" font-size="0.0128" text-anchor="start"><text x="0.3169" y="-0.3692">CDCL (adaptive, mVISDS, ExpRestart(100, 2), Clause Decay 0.999)</text></g><g stroke-width="0" stroke="rgb(2%, 29%, 48%)" stroke-opacity="1.0" fill="rgb(70%, 21%, 0%)" fill-opacity="1.0"><rect width="0.0213" height="0.0128" x="0.6983" y="-0.3775"/></g><g stroke-width="0.0" stroke="none" fill="rgb(5%, 5%, 5%)" fill-opacity="1.0" font-size="0.0128" text-anchor="start"><text x="0.3169" y="-0.3863">CDCL (adaptive, mVISDS, ExpRestart(100, 2)), Baseline</text></g><g stroke-width="0.0002" stroke="rgb(47%, 34%, 0%)" stroke-opacity="1.0" fill="rgb(47%, 34%, 0%)" fill-opacity="0.25"><rect width="0.0213" height="0.0128" x="0.6983" y="-0.3946"/></g><g stroke-width="0.0" stroke="none" fill="rgb(5%, 5%, 5%)" fill-opacity="1.0" font-size="0.0128" text-anchor="start"><text x="0.3169" y="-0.4034">CDCL (adaptive, mVISDS, ExpRestart(100, 2))</text></g><g stroke-width="0" stroke="rgb(2%, 29%, 48%)" stroke-opacity="1.0" fill="rgb(47%, 34%, 0%)" fill-opacity="1.0"><rect width="0.0213" height="0.0128" x="0.6983" y="-0.4118"/></g><g stroke-width="0.0" stroke="none" fill="rgb(5%, 5%, 5%)" fill-opacity="1.0" font-size="0.0128" text-anchor="start"><text x="0.3169" y="-0.4206">CDCL (adaptive), Baseline</text></g><g stroke-width="0.0002" stroke="rgb(57%, 0%, 21%)" stroke-opacity="1.0" fill="rgb(57%, 0%, 21%)" fill-opacity="0.25"><rect width="0.0213" height="0.0128" x="0.6983" y="-0.4289"/></g><g stroke-width="0.0" stroke="none" fill="rgb(5%, 5%, 5%)" fill-opacity="1.0" font-size="0.0128" text-anchor="start"><text x="0.3169" y="-0.4377">CDCL (adaptive)</text></g><g stroke-width="0" stroke="rgb(2%, 29%, 48%)" stroke-opacity="1.0" fill="rgb(57%, 0%, 21%)" fill-opacity="1.0"><rect width="0.0213" height="0.0128" x="0.6983" y="-0.4460"/></g></g></g><g class="frame"><g stroke-width="0" stroke="rgb(0%, 0%, 0%)" stroke-opacity="0" fill="rgb(100%, 100%, 100%)" fill-opacity="0.02"><rect width="1.6180" height="1.0" x="-0.8090" y="-0.5"/></g></g><g class="title"><g stroke-width="0.0" stroke="none" fill="rgb(5%, 5%, 5%)" fill-opacity="1.0" font-size="0.0243" text-anchor="middle"><text x="-0.7515" y="0" transform="rotate(-90.0, -0.7515, 0)">Time [ms]</text></g></g></g></svg>