<svg xmlns="http://www.w3.org/2000/svg" xmlns:xlink="http://www.w3.org/1999/xlink" width="404" height="300" viewBox="-1.2044 -0.5 2.0134 1.4947"><style>svg {color-scheme: light dark;} {.canvas g, .title g, .axisbar g, .ticktext g, .tickglyph g, .ticklines g, .legendContent g text {fill: rgb(5%, 5%, 5%);} .ticklines g, .tickglyph g, .legendBorder g {stroke: rgb(5%, 5%, 5%);} .legendBorder g {fill: rgb(94%, 94%, 94%);}} @media (prefers-color-scheme:dark) {.canvas g, .title g, .axisbar g, .ticktext g, .tickglyph g, .ticklines g, .legendContent g text {fill: rgb(94%, 94%, 94%);} .ticklines g, .tickglyph g, .legendBorder g {stroke: rgb(94%, 94%, 94%);} .legendBorder g {fill: rgb(5%, 5%, 5%);}}
svg { font-family: system-ui,-apple-system,"Segoe UI",Roboto,"Helvetica Neue",Arial,"Noto Sans","Liberation Sans",sans-serif,"Apple Color Emoji","Segoe UI Emoji","Segoe UI Symbol","Noto Color Emoji";
}

ticktext { font-family: SFMono-Regular,Menlo,Monaco,Consolas,"Liberation Mono","Courier New",monospace;}</style><g class="chart"><g class="barchart"><g stroke-width="0" stroke="rgb(2%, 29%, 48%)" stroke-opacity="1.0" fill="rgb(73%, 1%, 28%)" fill-opacity="1.0"><rect width="0.0271" height="0.0356" x="-0.3772" y="-0.0029"/></g><g stroke-width="0.0010" stroke="rgb(73%, 1%, 28%)" stroke-opacity="1.0" fill="rgb(73%, 1%, 28%)" fill-opacity="0.25"><rect width="0.0271" height="0.0352" x="-0.3501" y="-0.0026"/></g><g stroke-width="0" stroke="rgb(2%, 29%, 48%)" stroke-opacity="1.0" fill="rgb(0%, 39%, 58%)" fill-opacity="1.0"><rect width="0.0271" height="0.0363" x="-0.3230" y="-0.0036"/></g><g stroke-width="0.0010" stroke="rgb(0%, 39%, 58%)" stroke-opacity="1.0" fill="rgb(0%, 39%, 58%)" fill-opacity="0.25"><rect width="0.0271" height="0.0351" x="-0.2959" y="-0.0024"/></g><g stroke-width="0" stroke="rgb(2%, 29%, 48%)" stroke-opacity="1.0" fill="rgb(0%, 57%, 62%)" fill-opacity="1.0"><rect width="0.0271" height="0.0366" x="-0.2688" y="-0.0039"/></g><g stroke-width="0.0010" stroke="rgb(0%, 57%, 62%)" stroke-opacity="1.0" fill="rgb(0%, 57%, 62%)" fill-opacity="0.25"><rect width="0.0271" height="0.0352" x="-0.2417" y="-0.0025"/></g><g stroke-width="0" stroke="rgb(2%, 29%, 48%)" stroke-opacity="1.0" fill="rgb(0%, 35%, 53%)" fill-opacity="1.0"><rect width="0.0271" height="0.0359" x="-0.2146" y="-0.0033"/></g><g stroke-width="0.0010" stroke="rgb(0%, 35%, 53%)" stroke-opacity="1.0" fill="rgb(0%, 35%, 53%)" fill-opacity="0.25"><rect width="0.0271" height="0.0351" x="-0.1875" y="-0.0024"/></g><g stroke-width="0" stroke="rgb(2%, 29%, 48%)" stroke-opacity="1.0" fill="rgb(0%, 72%, 98%)" fill-opacity="1.0"><rect width="0.0271" height="0.0352" x="-0.1604" y="-0.0025"/></g><g stroke-width="0.0010" stroke="rgb(0%, 72%, 98%)" stroke-opacity="1.0" fill="rgb(0%, 72%, 98%)" fill-opacity="0.25"><rect width="0.0271" height="0.0353" x="-0.1332" y="-0.0026"/></g><g stroke-width="0" stroke="rgb(2%, 29%, 48%)" stroke-opacity="1.0" fill="rgb(90%, 37%, 58%)" fill-opacity="1.0"><rect width="0.0271" height="0.0360" x="-0.1061" y="-0.0034"/></g><g stroke-width="0.0010" stroke="rgb(90%, 37%, 58%)" stroke-opacity="1.0" fill="rgb(90%, 37%, 58%)" fill-opacity="0.25"><rect width="0.0271" height="0.0348" x="-0.0790" y="-0.0021"/></g><g stroke-width="0" stroke="rgb(2%, 29%, 48%)" stroke-opacity="1.0" fill="rgb(34%, 34%, 0%)" fill-opacity="1.0"><rect width="0.0271" height="0.0363" x="-0.0519" y="-0.0036"/></g><g stroke-width="0.0010" stroke="rgb(34%, 34%, 0%)" stroke-opacity="1.0" fill="rgb(34%, 34%, 0%)" fill-opacity="0.25"><rect width="0.0271" height="0.0348" x="-0.0248" y="-0.0021"/></g><g stroke-width="0" stroke="rgb(2%, 29%, 48%)" stroke-opacity="1.0" fill="rgb(16%, 61%, 0%)" fill-opacity="1.0"><rect width="0.0271" height="0.0359" x="0.0023" y="-0.0032"/></g><g stroke-width="0.0010" stroke="rgb(16%, 61%, 0%)" stroke-opacity="1.0" fill="rgb(16%, 61%, 0%)" fill-opacity="0.25"><rect width="0.0271" height="0.0346" x="0.0294" y="-0.0020"/></g><g stroke-width="0" stroke="rgb(2%, 29%, 48%)" stroke-opacity="1.0" fill="rgb(0%, 64%, 70%)" fill-opacity="1.0"><rect width="0.0271" height="0.0358" x="0.0565" y="-0.0031"/></g><g stroke-width="0.0010" stroke="rgb(0%, 64%, 70%)" stroke-opacity="1.0" fill="rgb(0%, 64%, 70%)" fill-opacity="0.25"><rect width="0.0271" height="0.0352" x="0.0836" y="-0.0025"/></g><g stroke-width="0" stroke="rgb(2%, 29%, 48%)" stroke-opacity="1.0" fill="rgb(67%, 62%, 0%)" fill-opacity="1.0"><rect width="0.0271" height="0.0359" x="0.1107" y="-0.0033"/></g><g stroke-width="0.0010" stroke="rgb(67%, 62%, 0%)" stroke-opacity="1.0" fill="rgb(67%, 62%, 0%)" fill-opacity="0.25"><rect width="0.0271" height="0.0346" x="0.1379" y="-0.0019"/></g><g stroke-width="0" stroke="rgb(2%, 29%, 48%)" stroke-opacity="1.0" fill="rgb(0%, 37%, 27%)" fill-opacity="1.0"><rect width="0.0271" height="0.0362" x="0.1650" y="-0.0035"/></g><g stroke-width="0.0010" stroke="rgb(0%, 37%, 27%)" stroke-opacity="1.0" fill="rgb(0%, 37%, 27%)" fill-opacity="0.25"><rect width="0.0271" height="0.0352" x="0.1921" y="-0.0026"/></g><g stroke-width="0" stroke="rgb(2%, 29%, 48%)" stroke-opacity="1.0" fill="rgb(9%, 20%, 33%)" fill-opacity="1.0"><rect width="0.0271" height="0.0358" x="0.2192" y="-0.0031"/></g><g stroke-width="0.0010" stroke="rgb(9%, 20%, 33%)" stroke-opacity="1.0" fill="rgb(9%, 20%, 33%)" fill-opacity="0.25"><rect width="0.0271" height="0.0351" x="0.2463" y="-0.0025"/></g><g stroke-width="0" stroke="rgb(2%, 29%, 48%)" stroke-opacity="1.0" fill="rgb(50%, 0%, 19%)" fill-opacity="1.0"><rect width="0.0271" height="0.0061" x="0.2734" y="0.0266"/></g><g stroke-width="0.0010" stroke="rgb(50%, 0%, 19%)" stroke-opacity="1.0" fill="rgb(50%, 0%, 19%)" fill-opacity="0.25"><rect width="0.0271" height="0.0060" x="0.3005" y="0.0266"/></g><g stroke-width="0" stroke="rgb(2%, 29%, 48%)" stroke-opacity="1.0" fill="rgb(24%, 33%, 6%)" fill-opacity="1.0"><rect width="0.0271" height="0.1852" x="0.3276" y="-0.1525"/></g><g stroke-width="0.0010" stroke="rgb(24%, 33%, 6%)" stroke-opacity="1.0" fill="rgb(24%, 33%, 6%)" fill-opacity="0.25"><rect width="0.0271" height="0.1912" x="0.3547" y="-0.1585"/></g></g><g class="errors"><g stroke-width="0.0015" stroke="rgb(5%, 5%, 5%)" stroke-opacity="1.0" fill="none"><polyline points="-0.3664,0.0146 -0.3610,0.0146"/><polyline points="-0.3637,0.0146 -0.3637,-0.0203"/><polyline points="-0.3664,-0.0203 -0.3610,-0.0203"/></g><g stroke-width="0.0015" stroke="rgb(5%, 5%, 5%)" stroke-opacity="1.0" fill="none"><polyline points="-0.3393,0.0148 -0.3339,0.0148"/><polyline points="-0.3366,0.0148 -0.3366,-0.0199"/><polyline points="-0.3393,-0.0199 -0.3339,-0.0199"/></g><g stroke-width="0.0015" stroke="rgb(5%, 5%, 5%)" stroke-opacity="1.0" fill="none"><polyline points="-0.3122,0.0139 -0.3067,0.0139"/><polyline points="-0.3095,0.0139 -0.3095,-0.0211"/><polyline points="-0.3122,-0.0211 -0.3067,-0.0211"/></g><g stroke-width="0.0015" stroke="rgb(5%, 5%, 5%)" stroke-opacity="1.0" fill="none"><polyline points="-0.2851,0.0143 -0.2796,0.0143"/><polyline points="-0.2823,0.0143 -0.2823,-0.0191"/><polyline points="-0.2851,-0.0191 -0.2796,-0.0191"/></g><g stroke-width="0.0015" stroke="rgb(5%, 5%, 5%)" stroke-opacity="1.0" fill="none"><polyline points="-0.2579,0.0074 -0.2525,0.0074"/><polyline points="-0.2552,0.0074 -0.2552,-0.0151"/><polyline points="-0.2579,-0.0151 -0.2525,-0.0151"/></g><g stroke-width="0.0015" stroke="rgb(5%, 5%, 5%)" stroke-opacity="1.0" fill="none"><polyline points="-0.2308,0.0161 -0.2254,0.0161"/><polyline points="-0.2281,0.0161 -0.2281,-0.0211"/><polyline points="-0.2308,-0.0211 -0.2254,-0.0211"/></g><g stroke-width="0.0015" stroke="rgb(5%, 5%, 5%)" stroke-opacity="1.0" fill="none"><polyline points="-0.2037,0.0057 -0.1983,0.0057"/><polyline points="-0.2010,0.0057 -0.2010,-0.0122"/><polyline points="-0.2037,-0.0122 -0.1983,-0.0122"/></g><g stroke-width="0.0015" stroke="rgb(5%, 5%, 5%)" stroke-opacity="1.0" fill="none"><polyline points="-0.1766,0.0159 -0.1712,0.0159"/><polyline points="-0.1739,0.0159 -0.1739,-0.0207"/><polyline points="-0.1766,-0.0207 -0.1712,-0.0207"/></g><g stroke-width="0.0015" stroke="rgb(5%, 5%, 5%)" stroke-opacity="1.0" fill="none"><polyline points="-0.1495,0.0178 -0.1441,0.0178"/><polyline points="-0.1468,0.0178 -0.1468,-0.0228"/><polyline points="-0.1495,-0.0228 -0.1441,-0.0228"/></g><g stroke-width="0.0015" stroke="rgb(5%, 5%, 5%)" stroke-opacity="1.0" fill="none"><polyline points="-0.1224,0.0057 -0.1170,0.0057"/><polyline points="-0.1197,0.0057 -0.1197,-0.0109"/><polyline points="-0.1224,-0.0109 -0.1170,-0.0109"/></g><g stroke-width="0.0015" stroke="rgb(5%, 5%, 5%)" stroke-opacity="1.0" fill="none"><polyline points="-0.0953,0.0138 -0.0899,0.0138"/><polyline points="-0.0926,0.0138 -0.0926,-0.0205"/><polyline points="-0.0953,-0.0205 -0.0899,-0.0205"/></g><g stroke-width="0.0015" stroke="rgb(5%, 5%, 5%)" stroke-opacity="1.0" fill="none"><polyline points="-0.0682,0.0087 -0.0628,0.0087"/><polyline points="-0.0655,0.0087 -0.0655,-0.0129"/><polyline points="-0.0682,-0.0129 -0.0628,-0.0129"/></g><g stroke-width="0.0015" stroke="rgb(5%, 5%, 5%)" stroke-opacity="1.0" fill="none"><polyline points="-0.0411,0.0018 -0.0356,0.0018"/><polyline points="-0.0384,0.0018 -0.0384,-0.0090"/><polyline points="-0.0411,-0.0090 -0.0356,-0.0090"/></g><g stroke-width="0.0015" stroke="rgb(5%, 5%, 5%)" stroke-opacity="1.0" fill="none"><polyline points="-0.0140,0.0119 -0.0085,0.0119"/><polyline points="-0.0112,0.0119 -0.0112,-0.0160"/><polyline points="-0.0140,-0.0160 -0.0085,-0.0160"/></g><g stroke-width="0.0015" stroke="rgb(5%, 5%, 5%)" stroke-opacity="1.0" fill="none"><polyline points="0.0132,0.0139 0.0186,0.0139"/><polyline points="0.0159,0.0139 0.0159,-0.0202"/><polyline points="0.0132,-0.0202 0.0186,-0.0202"/></g><g stroke-width="0.0015" stroke="rgb(5%, 5%, 5%)" stroke-opacity="1.0" fill="none"><polyline points="0.0403,0.0144 0.0457,0.0144"/><polyline points="0.0430,0.0144 0.0430,-0.0183"/><polyline points="0.0403,-0.0183 0.0457,-0.0183"/></g><g stroke-width="0.0015" stroke="rgb(5%, 5%, 5%)" stroke-opacity="1.0" fill="none"><polyline points="0.0674,0.0082 0.0728,0.0082"/><polyline points="0.0701,0.0082 0.0701,-0.0145"/><polyline points="0.0674,-0.0145 0.0728,-0.0145"/></g><g stroke-width="0.0015" stroke="rgb(5%, 5%, 5%)" stroke-opacity="1.0" fill="none"><polyline points="0.0945,0.0041 0.0999,0.0041"/><polyline points="0.0972,0.0041 0.0972,-0.0091"/><polyline points="0.0945,-0.0091 0.0999,-0.0091"/></g><g stroke-width="0.0015" stroke="rgb(5%, 5%, 5%)" stroke-opacity="1.0" fill="none"><polyline points="0.1216,0.0008 0.1270,0.0008"/><polyline points="0.1243,0.0008 0.1243,-0.0073"/><polyline points="0.1216,-0.0073 0.1270,-0.0073"/></g><g stroke-width="0.0015" stroke="rgb(5%, 5%, 5%)" stroke-opacity="1.0" fill="none"><polyline points="0.1487,0.0164 0.1541,0.0164"/><polyline points="0.1514,0.0164 0.1514,-0.0203"/><polyline points="0.1487,-0.0203 0.1541,-0.0203"/></g><g stroke-width="0.0015" stroke="rgb(5%, 5%, 5%)" stroke-opacity="1.0" fill="none"><polyline points="0.1758,0.0065 0.1812,0.0065"/><polyline points="0.1785,0.0065 0.1785,-0.0135"/><polyline points="0.1758,-0.0135 0.1812,-0.0135"/></g><g stroke-width="0.0015" stroke="rgb(5%, 5%, 5%)" stroke-opacity="1.0" fill="none"><polyline points="0.2029,0.0086 0.2083,0.0086"/><polyline points="0.2056,0.0086 0.2056,-0.0137"/><polyline points="0.2029,-0.0137 0.2083,-0.0137"/></g><g stroke-width="0.0015" stroke="rgb(5%, 5%, 5%)" stroke-opacity="1.0" fill="none"><polyline points="0.2300,0.0125 0.2355,0.0125"/><polyline points="0.2327,0.0125 0.2327,-0.0187"/><polyline points="0.2300,-0.0187 0.2355,-0.0187"/></g><g stroke-width="0.0015" stroke="rgb(5%, 5%, 5%)" stroke-opacity="1.0" fill="none"><polyline points="0.2571,0.0109 0.2626,0.0109"/><polyline points="0.2599,0.0109 0.2599,-0.0158"/><polyline points="0.2571,-0.0158 0.2626,-0.0158"/></g><g stroke-width="0.0015" stroke="rgb(5%, 5%, 5%)" stroke-opacity="1.0" fill="none"><polyline points="0.2843,0.0289 0.2897,0.0289"/><polyline points="0.2870,0.0289 0.2870,0.0243"/><polyline points="0.2843,0.0243 0.2897,0.0243"/></g><g stroke-width="0.0015" stroke="rgb(5%, 5%, 5%)" stroke-opacity="1.0" fill="none"><polyline points="0.3114,0.0301 0.3168,0.0301"/><polyline points="0.3141,0.0301 0.3141,0.0232"/><polyline points="0.3114,0.0232 0.3168,0.0232"/></g><g stroke-width="0.0015" stroke="rgb(5%, 5%, 5%)" stroke-opacity="1.0" fill="none"><polyline points="0.3385,-0.0742 0.3439,-0.0742"/><polyline points="0.3412,-0.0742 0.3412,-0.2309"/><polyline points="0.3385,-0.2309 0.3439,-0.2309"/></g><g stroke-width="0.0015" stroke="rgb(5%, 5%, 5%)" stroke-opacity="1.0" fill="none"><polyline points="0.3656,-0.0550 0.3710,-0.0550"/><polyline points="0.3683,-0.0550 0.3683,-0.2620"/><polyline points="0.3656,-0.2620 0.3710,-0.2620"/></g></g><g class="datapadding"></g></g><g class="hud"><g class="axis"><g class="axisbar"><g stroke-width="0" stroke="rgb(0%, 0%, 0%)" stroke-opacity="0" fill="rgb(5%, 5%, 5%)" fill-opacity="0.4"><rect width="0.7610" height="0.0015" x="-0.3782" y="0.0365"/></g></g><g class="ticks"><g class="tickglyph"><g stroke-width="0.0015" stroke="rgb(5%, 5%, 5%)" stroke-opacity="0.4" fill="rgb(5%, 5%, 5%)" fill-opacity="0.4"><polyline points="-0.3637,0.0487
-0.3637,0.0373"/><polyline points="-0.3366,0.0487
-0.3366,0.0373"/><polyline points="-0.3095,0.0487
-0.3095,0.0373"/><polyline points="-0.2823,0.0487
-0.2823,0.0373"/><polyline points="-0.2552,0.0487
-0.2552,0.0373"/><polyline points="-0.2281,0.0487
-0.2281,0.0373"/><polyline points="-0.2010,0.0487
-0.2010,0.0373"/><polyline points="-0.1739,0.0487
-0.1739,0.0373"/><polyline points="-0.1468,0.0487
-0.1468,0.0373"/><polyline points="-0.1197,0.0487
-0.1197,0.0373"/><polyline points="-0.0926,0.0487
-0.0926,0.0373"/><polyline points="-0.0655,0.0487
-0.0655,0.0373"/><polyline points="-0.0384,0.0487
-0.0384,0.0373"/><polyline points="-0.0112,0.0487
-0.0112,0.0373"/><polyline points="0.0159,0.0487
0.0159,0.0373"/><polyline points="0.0430,0.0487
0.0430,0.0373"/><polyline points="0.0701,0.0487
0.0701,0.0373"/><polyline points="0.0972,0.0487
0.0972,0.0373"/><polyline points="0.1243,0.0487
0.1243,0.0373"/><polyline points="0.1514,0.0487
0.1514,0.0373"/><polyline points="0.1785,0.0487
0.1785,0.0373"/><polyline points="0.2056,0.0487
0.2056,0.0373"/><polyline points="0.2327,0.0487
0.2327,0.0373"/><polyline points="0.2599,0.0487
0.2599,0.0373"/><polyline points="0.2870,0.0487
0.2870,0.0373"/><polyline points="0.3141,0.0487
0.3141,0.0373"/><polyline points="0.3412,0.0487
0.3412,0.0373"/><polyline points="0.3683,0.0487
0.3683,0.0373"/></g></g><g class="ticktext"><g stroke-width="0.0" stroke="none" fill="rgb(5%, 5%, 5%)" fill-opacity="1.0" font-size="0.0400" text-anchor="end"><text x="-0.3637" y="0.0698" transform="rotate(-45.0, -0.3637, 0.0698)">CDCL (adaptive)</text><text x="-0.3366" y="0.0698" transform="rotate(-45.0, -0.3366, 0.0698)">CDCL (adaptive), Baseline</text><text x="-0.3095" y="0.0698" transform="rotate(-45.0, -0.3095, 0.0698)">CDCL (adaptive, mVISDS, ExpRestart(100, 2))</text><text x="-0.2823" y="0.0698" transform="rotate(-45.0, -0.2823, 0.0698)">CDCL (adaptive, mVISDS, ExpRestart(100, 2)), Baseline</text><text x="-0.2552" y="0.0698" transform="rotate(-45.0, -0.2552, 0.0698)">CDCL (adaptive, mVISDS, LubyRestart(100, 2))</text><text x="-0.2281" y="0.0698" transform="rotate(-45.0, -0.2281, 0.0698)">CDCL (adaptive, mVISDS, LubyRestart(100, 2)), Baseline</text><text x="-0.2010" y="0.0698" transform="rotate(-45.0, -0.2010, 0.0698)">CDCL (adaptive, mVSIDS)</text><text x="-0.1739" y="0.0698" transform="rotate(-45.0, -0.1739, 0.0698)">CDCL (adaptive, mVSIDS), Baseline</text><text x="-0.1468" y="0.0698" transform="rotate(-45.0, -0.1468, 0.0698)">CDCL (α = 0.75)</text><text x="-0.1197" y="0.0698" transform="rotate(-45.0, -0.1197, 0.0698)">CDCL (α = 0.75), Baseline</text><text x="-0.0926" y="0.0698" transform="rotate(-45.0, -0.0926, 0.0698)">CDCL (α = 0.75, mVISDS)</text><text x="-0.0655" y="0.0698" transform="rotate(-45.0, -0.0655, 0.0698)">CDCL (α = 0.75, mVISDS), Baseline</text><text x="-0.0384" y="0.0698" transform="rotate(-45.0, -0.0384, 0.0698)">CDCL (α = 0.75, mVISDS, ExpRestart(100, 2))</text><text x="-0.0112" y="0.0698" transform="rotate(-45.0, -0.0112, 0.0698)">CDCL (α = 0.75, mVISDS, ExpRestart(100, 2)), Baseline</text><text x="0.0159" y="0.0698" transform="rotate(-45.0, 0.0159, 0.0698)">CDCL (α = 0.75, mVISDS, LubyRestart(100, 2))</text><text x="0.0430" y="0.0698" transform="rotate(-45.0, 0.0430, 0.0698)">CDCL (α = 0.75, mVISDS, LubyRestart(100, 2)), Baseline</text><text x="0.0701" y="0.0698" transform="rotate(-45.0, 0.0701, 0.0698)">CDCL (α = 0.95)</text><text x="0.0972" y="0.0698" transform="rotate(-45.0, 0.0972, 0.0698)">CDCL (α = 0.95), Baseline</text><text x="0.1243" y="0.0698" transform="rotate(-45.0, 0.1243, 0.0698)">CDCL (α = 0.95, mVISDS)</text><text x="0.1514" y="0.0698" transform="rotate(-45.0, 0.1514, 0.0698)">CDCL (α = 0.95, mVISDS), Baseline</text><text x="0.1785" y="0.0698" transform="rotate(-45.0, 0.1785, 0.0698)">CDCL (α = 0.95, mVISDS, ExpRestart(100, 2))</text><text x="0.2056" y="0.0698" transform="rotate(-45.0, 0.2056, 0.0698)">CDCL (α = 0.95, mVISDS, ExpRestart(100, 2)), Baseline</text><text x="0.2327" y="0.0698" transform="rotate(-45.0, 0.2327, 0.0698)">CDCL (α = 0.95, mVISDS, LubyRestart(100, 2))</text><text x="0.2599" y="0.0698" transform="rotate(-45.0, 0.2599, 0.0698)">CDCL (α = 0.95, mVISDS, LubyRestart(100, 2)), Baseline</text><text x="0.2870" y="0.0698" transform="rotate(-45.0, 0.2870, 0.0698)">DPLL</text><text x="0.3141" y="0.0698" transform="rotate(-45.0, 0.3141, 0.0698)">DPLL, Baseline</text><text x="0.3412" y="0.0698" transform="rotate(-45.0, 0.3412, 0.0698)">tableaux</text><text x="0.3683" y="0.0698" transform="rotate(-45.0, 0.3683, 0.0698)">tableaux, Baseline</text></g></g></g></g><g class="axis"><g class="axisbar"><g stroke-width="0" stroke="rgb(0%, 0%, 0%)" stroke-opacity="0" fill="rgb(5%, 5%, 5%)" fill-opacity="0.4"><rect width="0.0019" height="0.3839" x="-0.3838" y="-0.3505"/></g></g><g class="ticks"><g class="ticklines"><g stroke-width="0.0050" stroke="rgb(5%, 5%, 5%)" stroke-opacity="0.05" fill="none"><polyline points="-0.3772,0.0327 0.3819,0.0327"/><polyline points="-0.3772,-0.0629 0.3819,-0.0629"/><polyline points="-0.3772,-0.1585 0.3819,-0.1585"/><polyline points="-0.3772,-0.2541 0.3819,-0.2541"/><polyline points="-0.3772,-0.3497 0.3819,-0.3497"/></g></g><g class="tickglyph"><g stroke-width="0.0019" stroke="rgb(5%, 5%, 5%)" stroke-opacity="0.4" fill="rgb(5%, 5%, 5%)" fill-opacity="0.4"><polyline points="-0.3969,0.0327
-0.3829,0.0327"/><polyline points="-0.3969,-0.0629
-0.3829,-0.0629"/><polyline points="-0.3969,-0.1585
-0.3829,-0.1585"/><polyline points="-0.3969,-0.2541
-0.3829,-0.2541"/><polyline points="-0.3969,-0.3497
-0.3829,-0.3497"/></g></g><g class="ticktext"><g stroke-width="0.0" stroke="none" fill="rgb(5%, 5%, 5%)" fill-opacity="1.0" font-size="0.0400" text-anchor="end"><text x="-0.4073" y="0.0369">-0.5</text><text x="-0.4073" y="-0.0587"> 0.0</text><text x="-0.4073" y="-0.1543"> 0.5</text><text x="-0.4073" y="-0.2499"> 1.0</text><text x="-0.4073" y="-0.3455"> 2.0</text></g></g></g></g><g class="title"><g stroke-width="0.0" stroke="none" fill="rgb(5%, 5%, 5%)" fill-opacity="1.0" font-size="0.12" text-anchor="middle"><text x="-0.1661" y="-0.3868">Time: huge/4/cnf</text></g></g><g class="legend"><g class="padding"></g><g class="padding"></g><g class="frame"><g stroke-width="0.0004" stroke="rgb(5%, 5%, 5%)" stroke-opacity="1.0" fill="rgb(5%, 5%, 5%)" fill-opacity="0"><rect width="0.4834" height="0.7573" x="0.2301" y="-0.3458"/></g></g><g class="legendContent"><g stroke-width="0.0001" stroke="rgb(24%, 33%, 6%)" stroke-opacity="1.0" fill="rgb(24%, 33%, 6%)" fill-opacity="0.25"><rect width="0.0246" height="0.0201" x="0.6806" y="0.3846"/></g><g stroke-width="0.0" stroke="none" fill="rgb(5%, 5%, 5%)" fill-opacity="1.0" font-size="0.0131" text-anchor="start"><text x="0.2383" y="0.3974">tableaux, Baseline</text></g><g stroke-width="0" stroke="rgb(2%, 29%, 48%)" stroke-opacity="1.0" fill="rgb(24%, 33%, 6%)" fill-opacity="1.0"><rect width="0.0246" height="0.0201" x="0.6806" y="0.3578"/></g><g stroke-width="0.0" stroke="none" fill="rgb(5%, 5%, 5%)" fill-opacity="1.0" font-size="0.0131" text-anchor="start"><text x="0.2383" y="0.3705">tableaux</text></g><g stroke-width="0.0001" stroke="rgb(50%, 0%, 19%)" stroke-opacity="1.0" fill="rgb(50%, 0%, 19%)" fill-opacity="0.25"><rect width="0.0246" height="0.0201" x="0.6806" y="0.3310"/></g><g stroke-width="0.0" stroke="none" fill="rgb(5%, 5%, 5%)" fill-opacity="1.0" font-size="0.0131" text-anchor="start"><text x="0.2383" y="0.3437">DPLL, Baseline</text></g><g stroke-width="0" stroke="rgb(2%, 29%, 48%)" stroke-opacity="1.0" fill="rgb(50%, 0%, 19%)" fill-opacity="1.0"><rect width="0.0246" height="0.0201" x="0.6806" y="0.3042"/></g><g stroke-width="0.0" stroke="none" fill="rgb(5%, 5%, 5%)" fill-opacity="1.0" font-size="0.0131" text-anchor="start"><text x="0.2383" y="0.3169">DPLL</text></g><g stroke-width="0.0001" stroke="rgb(9%, 20%, 33%)" stroke-opacity="1.0" fill="rgb(9%, 20%, 33%)" fill-opacity="0.25"><rect width="0.0246" height="0.0201" x="0.6806" y="0.2774"/></g><g stroke-width="0.0" stroke="none" fill="rgb(5%, 5%, 5%)" fill-opacity="1.0" font-size="0.0131" text-anchor="start"><text x="0.2383" y="0.2901">CDCL (α = 0.95, mVISDS, LubyRestart(100, 2)), Baseline</text></g><g stroke-width="0" stroke="rgb(2%, 29%, 48%)" stroke-opacity="1.0" fill="rgb(9%, 20%, 33%)" fill-opacity="1.0"><rect width="0.0246" height="0.0201" x="0.6806" y="0.2506"/></g><g stroke-width="0.0" stroke="none" fill="rgb(5%, 5%, 5%)" fill-opacity="1.0" font-size="0.0131" text-anchor="start"><text x="0.2383" y="0.2633">CDCL (α = 0.95, mVISDS, LubyRestart(100, 2))</text></g><g stroke-width="0.0001" stroke="rgb(0%, 37%, 27%)" stroke-opacity="1.0" fill="rgb(0%, 37%, 27%)" fill-opacity="0.25"><rect width="0.0246" height="0.0201" x="0.6806" y="0.2238"/></g><g stroke-width="0.0" stroke="none" fill="rgb(5%, 5%, 5%)" fill-opacity="1.0" font-size="0.0131" text-anchor="start"><text x="0.2383" y="0.2365">CDCL (α = 0.95, mVISDS, ExpRestart(100, 2)), Baseline</text></g><g stroke-width="0" stroke="rgb(2%, 29%, 48%)" stroke-opacity="1.0" fill="rgb(0%, 37%, 27%)" fill-opacity="1.0"><rect width="0.0246" height="0.0201" x="0.6806" y="0.1970"/></g><g stroke-width="0.0" stroke="none" fill="rgb(5%, 5%, 5%)" fill-opacity="1.0" font-size="0.0131" text-anchor="start"><text x="0.2383" y="0.2097">CDCL (α = 0.95, mVISDS, ExpRestart(100, 2))</text></g><g stroke-width="0.0001" stroke="rgb(67%, 62%, 0%)" stroke-opacity="1.0" fill="rgb(67%, 62%, 0%)" fill-opacity="0.25"><rect width="0.0246" height="0.0201" x="0.6806" y="0.1702"/></g><g stroke-width="0.0" stroke="none" fill="rgb(5%, 5%, 5%)" fill-opacity="1.0" font-size="0.0131" text-anchor="start"><text x="0.2383" y="0.1829">CDCL (α = 0.95, mVISDS), Baseline</text></g><g stroke-width="0" stroke="rgb(2%, 29%, 48%)" stroke-opacity="1.0" fill="rgb(67%, 62%, 0%)" fill-opacity="1.0"><rect width="0.0246" height="0.0201" x="0.6806" y="0.1434"/></g><g stroke-width="0.0" stroke="none" fill="rgb(5%, 5%, 5%)" fill-opacity="1.0" font-size="0.0131" text-anchor="start"><text x="0.2383" y="0.1561">CDCL (α = 0.95, mVISDS)</text></g><g stroke-width="0.0001" stroke="rgb(0%, 64%, 70%)" stroke-opacity="1.0" fill="rgb(0%, 64%, 70%)" fill-opacity="0.25"><rect width="0.0246" height="0.0201" x="0.6806" y="0.1166"/></g><g stroke-width="0.0" stroke="none" fill="rgb(5%, 5%, 5%)" fill-opacity="1.0" font-size="0.0131" text-anchor="start"><text x="0.2383" y="0.1293">CDCL (α = 0.95), Baseline</text></g><g stroke-width="0" stroke="rgb(2%, 29%, 48%)" stroke-opacity="1.0" fill="rgb(0%, 64%, 70%)" fill-opacity="1.0"><rect width="0.0246" height="0.0201" x="0.6806" y="0.0898"/></g><g stroke-width="0.0" stroke="none" fill="rgb(5%, 5%, 5%)" fill-opacity="1.0" font-size="0.0131" text-anchor="start"><text x="0.2383" y="0.1025">CDCL (α = 0.95)</text></g><g stroke-width="0.0001" stroke="rgb(16%, 61%, 0%)" stroke-opacity="1.0" fill="rgb(16%, 61%, 0%)" fill-opacity="0.25"><rect width="0.0246" height="0.0201" x="0.6806" y="0.0630"/></g><g stroke-width="0.0" stroke="none" fill="rgb(5%, 5%, 5%)" fill-opacity="1.0" font-size="0.0131" text-anchor="start"><text x="0.2383" y="0.0757">CDCL (α = 0.75, mVISDS, LubyRestart(100, 2)), Baseline</text></g><g stroke-width="0" stroke="rgb(2%, 29%, 48%)" stroke-opacity="1.0" fill="rgb(16%, 61%, 0%)" fill-opacity="1.0"><rect width="0.0246" height="0.0201" x="0.6806" y="0.0362"/></g><g stroke-width="0.0" stroke="none" fill="rgb(5%, 5%, 5%)" fill-opacity="1.0" font-size="0.0131" text-anchor="start"><text x="0.2383" y="0.0489">CDCL (α = 0.75, mVISDS, LubyRestart(100, 2))</text></g><g stroke-width="0.0001" stroke="rgb(34%, 34%, 0%)" stroke-opacity="1.0" fill="rgb(34%, 34%, 0%)" fill-opacity="0.25"><rect width="0.0246" height="0.0201" x="0.6806" y="0.0094"/></g><g stroke-width="0.0" stroke="none" fill="rgb(5%, 5%, 5%)" fill-opacity="1.0" font-size="0.0131" text-anchor="start"><text x="0.2383" y="0.0221">CDCL (α = 0.75, mVISDS, ExpRestart(100, 2)), Baseline</text></g><g stroke-width="0" stroke="rgb(2%, 29%, 48%)" stroke-opacity="1.0" fill="rgb(34%, 34%, 0%)" fill-opacity="1.0"><rect width="0.0246" height="0.0201" x="0.6806" y="-0.0174"/></g><g stroke-width="0.0" stroke="none" fill="rgb(5%, 5%, 5%)" fill-opacity="1.0" font-size="0.0131" text-anchor="start"><text x="0.2383" y="-0.0047">CDCL (α = 0.75, mVISDS, ExpRestart(100, 2))</text></g><g stroke-width="0.0001" stroke="rgb(90%, 37%, 58%)" stroke-opacity="1.0" fill="rgb(90%, 37%, 58%)" fill-opacity="0.25"><rect width="0.0246" height="0.0201" x="0.6806" y="-0.0443"/></g><g stroke-width="0.0" stroke="none" fill="rgb(5%, 5%, 5%)" fill-opacity="1.0" font-size="0.0131" text-anchor="start"><text x="0.2383" y="-0.0315">CDCL (α = 0.75, mVISDS), Baseline</text></g><g stroke-width="0" stroke="rgb(2%, 29%, 48%)" stroke-opacity="1.0" fill="rgb(90%, 37%, 58%)" fill-opacity="1.0"><rect width="0.0246" height="0.0201" x="0.6806" y="-0.0711"/></g><g stroke-width="0.0" stroke="none" fill="rgb(5%, 5%, 5%)" fill-opacity="1.0" font-size="0.0131" text-anchor="start"><text x="0.2383" y="-0.0583">CDCL (α = 0.75, mVISDS)</text></g><g stroke-width="0.0001" stroke="rgb(0%, 72%, 98%)" stroke-opacity="1.0" fill="rgb(0%, 72%, 98%)" fill-opacity="0.25"><rect width="0.0246" height="0.0201" x="0.6806" y="-0.0979"/></g><g stroke-width="0.0" stroke="none" fill="rgb(5%, 5%, 5%)" fill-opacity="1.0" font-size="0.0131" text-anchor="start"><text x="0.2383" y="-0.0851">CDCL (α = 0.75), Baseline</text></g><g stroke-width="0" stroke="rgb(2%, 29%, 48%)" stroke-opacity="1.0" fill="rgb(0%, 72%, 98%)" fill-opacity="1.0"><rect width="0.0246" height="0.0201" x="0.6806" y="-0.1247"/></g><g stroke-width="0.0" stroke="none" fill="rgb(5%, 5%, 5%)" fill-opacity="1.0" font-size="0.0131" text-anchor="start"><text x="0.2383" y="-0.1120">CDCL (α = 0.75)</text></g><g stroke-width="0.0001" stroke="rgb(0%, 35%, 53%)" stroke-opacity="1.0" fill="rgb(0%, 35%, 53%)" fill-opacity="0.25"><rect width="0.0246" height="0.0201" x="0.6806" y="-0.1515"/></g><g stroke-width="0.0" stroke="none" fill="rgb(5%, 5%, 5%)" fill-opacity="1.0" font-size="0.0131" text-anchor="start"><text x="0.2383" y="-0.1388">CDCL (adaptive, mVSIDS), Baseline</text></g><g stroke-width="0" stroke="rgb(2%, 29%, 48%)" stroke-opacity="1.0" fill="rgb(0%, 35%, 53%)" fill-opacity="1.0"><rect width="0.0246" height="0.0201" x="0.6806" y="-0.1783"/></g><g stroke-width="0.0" stroke="none" fill="rgb(5%, 5%, 5%)" fill-opacity="1.0" font-size="0.0131" text-anchor="start"><text x="0.2383" y="-0.1656">CDCL (adaptive, mVSIDS)</text></g><g stroke-width="0.0001" stroke="rgb(0%, 57%, 62%)" stroke-opacity="1.0" fill="rgb(0%, 57%, 62%)" fill-opacity="0.25"><rect width="0.0246" height="0.0201" x="0.6806" y="-0.2051"/></g><g stroke-width="0.0" stroke="none" fill="rgb(5%, 5%, 5%)" fill-opacity="1.0" font-size="0.0131" text-anchor="start"><text x="0.2383" y="-0.1924">CDCL (adaptive, mVISDS, LubyRestart(100, 2)), Baseline</text></g><g stroke-width="0" stroke="rgb(2%, 29%, 48%)" stroke-opacity="1.0" fill="rgb(0%, 57%, 62%)" fill-opacity="1.0"><rect width="0.0246" height="0.0201" x="0.6806" y="-0.2319"/></g><g stroke-width="0.0" stroke="none" fill="rgb(5%, 5%, 5%)" fill-opacity="1.0" font-size="0.0131" text-anchor="start"><text x="0.2383" y="-0.2192">CDCL (adaptive, mVISDS, LubyRestart(100, 2))</text></g><g stroke-width="0.0001" stroke="rgb(0%, 39%, 58%)" stroke-opacity="1.0" fill="rgb(0%, 39%, 58%)" fill-opacity="0.25"><rect width="0.0246" height="0.0201" x="0.6806" y="-0.2587"/></g><g stroke-width="0.0" stroke="none" fill="rgb(5%, 5%, 5%)" fill-opacity="1.0" font-size="0.0131" text-anchor="start"><text x="0.2383" y="-0.2460">CDCL (adaptive, mVISDS, ExpRestart(100, 2)), Baseline</text></g><g stroke-width="0" stroke="rgb(2%, 29%, 48%)" stroke-opacity="1.0" fill="rgb(0%, 39%, 58%)" fill-opacity="1.0"><rect width="0.0246" height="0.0201" x="0.6806" y="-0.2855"/></g><g stroke-width="0.0" stroke="none" fill="rgb(5%, 5%, 5%)" fill-opacity="1.0" font-size="0.0131" text-anchor="start"><text x="0.2383" y="-0.2728">CDCL (adaptive, mVISDS, ExpRestart(100, 2))</text></g><g stroke-width="0.0001" stroke="rgb(73%, 1%, 28%)" stroke-opacity="1.0" fill="rgb(73%, 1%, 28%)" fill-opacity="0.25"><rect width="0.0246" height="0.0201" x="0.6806" y="-0.3123"/></g><g stroke-width="0.0" stroke="none" fill="rgb(5%, 5%, 5%)" fill-opacity="1.0" font-size="0.0131" text-anchor="start"><text x="0.2383" y="-0.2996">CDCL (adaptive), Baseline</text></g><g stroke-width="0" stroke="rgb(2%, 29%, 48%)" stroke-opacity="1.0" fill="rgb(73%, 1%, 28%)" fill-opacity="1.0"><rect width="0.0246" height="0.0201" x="0.6806" y="-0.3391"/></g><g stroke-width="0.0" stroke="none" fill="rgb(5%, 5%, 5%)" fill-opacity="1.0" font-size="0.0131" text-anchor="start"><text x="0.2383" y="-0.3264">CDCL (adaptive)</text></g></g></g><g class="frame"><g stroke-width="0" stroke="rgb(0%, 0%, 0%)" stroke-opacity="0" fill="rgb(100%, 100%, 100%)" fill-opacity="0.02"><rect width="1.6180" height="1.0" x="-0.8090" y="-0.5"/></g></g><g class="title"><g stroke-width="0.0" stroke="none" fill="rgb(5%, 5%, 5%)" fill-opacity="1.0" font-size="0.0600" text-anchor="middle"><text x="-0.7424" y="0" transform="rotate(-90.0, -0.7424, 0)">Time [ms]</text></g></g></g></svg>