<svg xmlns="http://www.w3.org/2000/svg" xmlns:xlink="http://www.w3.org/1999/xlink" width="506" height="300" viewBox="-1.2900 -0.5 2.304 1.3645"><style>svg {color-scheme: light dark;} {.canvas g, .title g, .axisbar g, .ticktext g, .tickglyph g, .ticklines g, .legendContent g text {fill: rgb(5%, 5%, 5%);} .ticklines g, .tickglyph g, .legendBorder g {stroke: rgb(5%, 5%, 5%);} .legendBorder g {fill: rgb(94%, 94%, 94%);}} @media (prefers-color-scheme:dark) {.canvas g, .title g, .axisbar g, .ticktext g, .tickglyph g, .ticklines g, .legendContent g text {fill: rgb(94%, 94%, 94%);} .ticklines g, .tickglyph g, .legendBorder g {stroke: rgb(94%, 94%, 94%);} .legendBorder g {fill: rgb(5%, 5%, 5%);}}
svg { font-family: system-ui,-apple-system,"Segoe UI",Roboto,"Helvetica Neue",Arial,"Noto Sans","Liberation Sans",sans-serif,"Apple Color Emoji","Segoe UI Emoji","Segoe UI Symbol","Noto Color Emoji";
}

ticktext { font-family: SFMono-Regular,Menlo,Monaco,Consolas,"Liberation Mono","Courier New",monospace;}</style><g class="chart"><g class="barchart"><g stroke-width="0" stroke="rgb(2%, 29%, 48%)" stroke-opacity="1.0" fill="rgb(0%, 39%, 55%)" fill-opacity="1.0"><rect width="0.0669" height="0.0097" x="-0.4036" y="-0.1394"/></g><g stroke-width="0" stroke="rgb(2%, 29%, 48%)" stroke-opacity="1.0" fill="rgb(37%, 26%, 0%)" fill-opacity="1.0"><rect width="0.0669" height="0.0098" x="-0.3367" y="-0.1394"/></g><g stroke-width="0" stroke="rgb(2%, 29%, 48%)" stroke-opacity="1.0" fill="rgb(14%, 22%, 0%)" fill-opacity="1.0"><rect width="0.0669" height="0.0096" x="-0.2698" y="-0.1393"/></g><g stroke-width="0" stroke="rgb(2%, 29%, 48%)" stroke-opacity="1.0" fill="rgb(40%, 59%, 56%)" fill-opacity="1.0"><rect width="0.0669" height="0.0096" x="-0.2029" y="-0.1393"/></g><g stroke-width="0" stroke="rgb(2%, 29%, 48%)" stroke-opacity="1.0" fill="rgb(16%, 49%, 26%)" fill-opacity="1.0"><rect width="0.0669" height="0.0099" x="-0.1360" y="-0.1396"/></g><g stroke-width="0" stroke="rgb(2%, 29%, 48%)" stroke-opacity="1.0" fill="rgb(12%, 10%, 48%)" fill-opacity="1.0"><rect width="0.0669" height="0.0100" x="-0.0690" y="-0.1396"/></g><g stroke-width="0" stroke="rgb(2%, 29%, 48%)" stroke-opacity="1.0" fill="rgb(13%, 47%, 60%)" fill-opacity="1.0"><rect width="0.0669" height="0.0100" x="-0.0021" y="-0.1396"/></g><g stroke-width="0" stroke="rgb(2%, 29%, 48%)" stroke-opacity="1.0" fill="rgb(39%, 19%, 0%)" fill-opacity="1.0"><rect width="0.0669" height="0.0098" x="0.0648" y="-0.1395"/></g><g stroke-width="0" stroke="rgb(2%, 29%, 48%)" stroke-opacity="1.0" fill="rgb(33%, 71%, 69%)" fill-opacity="1.0"><rect width="0.0669" height="0.0102" x="0.1317" y="-0.1399"/></g><g stroke-width="0" stroke="rgb(2%, 29%, 48%)" stroke-opacity="1.0" fill="rgb(100%, 34%, 60%)" fill-opacity="1.0"><rect width="0.0669" height="0.0100" x="0.1986" y="-0.1397"/></g><g stroke-width="0" stroke="rgb(2%, 29%, 48%)" stroke-opacity="1.0" fill="rgb(0%, 46%, 80%)" fill-opacity="1.0"><rect width="0.0669" height="0.0100" x="0.2656" y="-0.1397"/></g><g stroke-width="0" stroke="rgb(2%, 29%, 48%)" stroke-opacity="1.0" fill="rgb(50%, 35%, 74%)" fill-opacity="1.0"><rect width="0.0669" height="0.0097" x="0.3325" y="-0.1394"/></g></g><g class="errors"><g stroke-width="0.0015" stroke="rgb(5%, 5%, 5%)" stroke-opacity="1.0" fill="none"><polyline points="-0.3769,-0.0212 -0.3635,-0.0212"/><polyline points="-0.3702,-0.0212 -0.3702,-0.2576"/><polyline points="-0.3769,-0.2576 -0.3635,-0.2576"/></g><g stroke-width="0.0015" stroke="rgb(5%, 5%, 5%)" stroke-opacity="1.0" fill="none"><polyline points="-0.3100,0.0362 -0.2966,0.0362"/><polyline points="-0.3033,0.0362 -0.3033,-0.3150"/><polyline points="-0.3100,-0.3150 -0.2966,-0.3150"/></g><g stroke-width="0.0015" stroke="rgb(5%, 5%, 5%)" stroke-opacity="1.0" fill="none"><polyline points="-0.2430,0.0182 -0.2296,0.0182"/><polyline points="-0.2363,0.0182 -0.2363,-0.2967"/><polyline points="-0.2430,-0.2967 -0.2296,-0.2967"/></g><g stroke-width="0.0015" stroke="rgb(5%, 5%, 5%)" stroke-opacity="1.0" fill="none"><polyline points="-0.1761,0.0087 -0.1627,0.0087"/><polyline points="-0.1694,0.0087 -0.1694,-0.2874"/><polyline points="-0.1761,-0.2874 -0.1627,-0.2874"/></g><g stroke-width="0.0015" stroke="rgb(5%, 5%, 5%)" stroke-opacity="1.0" fill="none"><polyline points="-0.1092,0.0168 -0.0958,0.0168"/><polyline points="-0.1025,0.0168 -0.1025,-0.2959"/><polyline points="-0.1092,-0.2959 -0.0958,-0.2959"/></g><g stroke-width="0.0015" stroke="rgb(5%, 5%, 5%)" stroke-opacity="1.0" fill="none"><polyline points="-0.0423,-0.0138 -0.0289,-0.0138"/><polyline points="-0.0356,-0.0138 -0.0356,-0.2655"/><polyline points="-0.0423,-0.2655 -0.0289,-0.2655"/></g><g stroke-width="0.0015" stroke="rgb(5%, 5%, 5%)" stroke-opacity="1.0" fill="none"><polyline points="0.0246,-0.0261 0.0380,-0.0261"/><polyline points="0.0313,-0.0261 0.0313,-0.2531"/><polyline points="0.0246,-0.2531 0.0380,-0.2531"/></g><g stroke-width="0.0015" stroke="rgb(5%, 5%, 5%)" stroke-opacity="1.0" fill="none"><polyline points="0.0916,-0.0617 0.1050,-0.0617"/><polyline points="0.0983,-0.0617 0.0983,-0.2173"/><polyline points="0.0916,-0.2173 0.1050,-0.2173"/></g><g stroke-width="0.0015" stroke="rgb(5%, 5%, 5%)" stroke-opacity="1.0" fill="none"><polyline points="0.1585,-0.0794 0.1719,-0.0794"/><polyline points="0.1652,-0.0794 0.1652,-0.2005"/><polyline points="0.1585,-0.2005 0.1719,-0.2005"/></g><g stroke-width="0.0015" stroke="rgb(5%, 5%, 5%)" stroke-opacity="1.0" fill="none"><polyline points="0.2254,-0.0321 0.2388,-0.0321"/><polyline points="0.2321,-0.0321 0.2321,-0.2472"/><polyline points="0.2254,-0.2472 0.2388,-0.2472"/></g><g stroke-width="0.0015" stroke="rgb(5%, 5%, 5%)" stroke-opacity="1.0" fill="none"><polyline points="0.2923,-0.0133 0.3057,-0.0133"/><polyline points="0.2990,-0.0133 0.2990,-0.2662"/><polyline points="0.2923,-0.2662 0.3057,-0.2662"/></g><g stroke-width="0.0015" stroke="rgb(5%, 5%, 5%)" stroke-opacity="1.0" fill="none"><polyline points="0.3592,-0.0025 0.3726,-0.0025"/><polyline points="0.3659,-0.0025 0.3659,-0.2763"/><polyline points="0.3592,-0.2763 0.3726,-0.2763"/></g></g><g class="datapadding"></g></g><g class="hud"><g class="axis"><g class="axisbar"><g stroke-width="0" stroke="rgb(0%, 0%, 0%)" stroke-opacity="0" fill="rgb(5%, 5%, 5%)" fill-opacity="0.4"><rect width="0.8050" height="0.0016" x="-0.4046" y="0.0738"/></g></g><g class="ticks"><g class="tickglyph"><g stroke-width="0.0016" stroke="rgb(5%, 5%, 5%)" stroke-opacity="0.4" fill="rgb(5%, 5%, 5%)" fill-opacity="0.4"><polyline points="-0.3702,0.0869
-0.3702,0.0746"/><polyline points="-0.3033,0.0869
-0.3033,0.0746"/><polyline points="-0.2363,0.0869
-0.2363,0.0746"/><polyline points="-0.1694,0.0869
-0.1694,0.0746"/><polyline points="-0.1025,0.0869
-0.1025,0.0746"/><polyline points="-0.0356,0.0869
-0.0356,0.0746"/><polyline points="0.0313,0.0869
0.0313,0.0746"/><polyline points="0.0983,0.0869
0.0983,0.0746"/><polyline points="0.1652,0.0869
0.1652,0.0746"/><polyline points="0.2321,0.0869
0.2321,0.0746"/><polyline points="0.2990,0.0869
0.2990,0.0746"/><polyline points="0.3659,0.0869
0.3659,0.0746"/></g></g><g class="ticktext"><g stroke-width="0.0" stroke="none" fill="rgb(5%, 5%, 5%)" fill-opacity="1.0" font-size="0.0400" text-anchor="end"><text x="-0.3702" y="0.1094" transform="rotate(-45.0, -0.3702, 0.1094)">CDCL (adaptive)</text><text x="-0.3033" y="0.1094" transform="rotate(-45.0, -0.3033, 0.1094)">CDCL (adaptive, mVISDS, ExpRestart(100, 2))</text><text x="-0.2363" y="0.1094" transform="rotate(-45.0, -0.2363, 0.1094)">CDCL (adaptive, mVISDS, LubyRestart(100, 2))</text><text x="-0.1694" y="0.1094" transform="rotate(-45.0, -0.1694, 0.1094)">CDCL (adaptive, mVSIDS)</text><text x="-0.1025" y="0.1094" transform="rotate(-45.0, -0.1025, 0.1094)">CDCL (α = 0.75)</text><text x="-0.0356" y="0.1094" transform="rotate(-45.0, -0.0356, 0.1094)">CDCL (α = 0.75, mVISDS)</text><text x="0.0313" y="0.1094" transform="rotate(-45.0, 0.0313, 0.1094)">CDCL (α = 0.75, mVISDS, ExpRestart(100, 2))</text><text x="0.0983" y="0.1094" transform="rotate(-45.0, 0.0983, 0.1094)">CDCL (α = 0.75, mVISDS, LubyRestart(100, 2))</text><text x="0.1652" y="0.1094" transform="rotate(-45.0, 0.1652, 0.1094)">CDCL (α = 0.95)</text><text x="0.2321" y="0.1094" transform="rotate(-45.0, 0.2321, 0.1094)">CDCL (α = 0.95, mVISDS)</text><text x="0.2990" y="0.1094" transform="rotate(-45.0, 0.2990, 0.1094)">CDCL (α = 0.95, mVISDS, ExpRestart(100, 2))</text><text x="0.3659" y="0.1094" transform="rotate(-45.0, 0.3659, 0.1094)">CDCL (α = 0.95, mVISDS, LubyRestart(100, 2))</text></g></g></g></g><g class="axis"><g class="axisbar"><g stroke-width="0" stroke="rgb(0%, 0%, 0%)" stroke-opacity="0" fill="rgb(5%, 5%, 5%)" fill-opacity="0.4"><rect width="0.0020" height="0.4106" x="-0.4106" y="-0.3401"/></g></g><g class="ticks"><g class="ticklines"><g stroke-width="0.0050" stroke="rgb(5%, 5%, 5%)" stroke-opacity="0.05" fill="none"><polyline points="-0.4036,0.0697 0.3994,0.0697"/><polyline points="-0.4036,-0.0326 0.3994,-0.0326"/><polyline points="-0.4036,-0.1348 0.3994,-0.1348"/><polyline points="-0.4036,-0.2370 0.3994,-0.2370"/><polyline points="-0.4036,-0.3393 0.3994,-0.3393"/></g></g><g class="tickglyph"><g stroke-width="0.0020" stroke="rgb(5%, 5%, 5%)" stroke-opacity="0.4" fill="rgb(5%, 5%, 5%)" fill-opacity="0.4"><polyline points="-0.4245,0.0697
-0.4096,0.0697"/><polyline points="-0.4245,-0.0326
-0.4096,-0.0326"/><polyline points="-0.4245,-0.1348
-0.4096,-0.1348"/><polyline points="-0.4245,-0.2370
-0.4096,-0.2370"/><polyline points="-0.4245,-0.3393
-0.4096,-0.3393"/></g></g><g class="ticktext"><g stroke-width="0.0" stroke="none" fill="rgb(5%, 5%, 5%)" fill-opacity="1.0" font-size="0.0400" text-anchor="end"><text x="-0.4354" y="0.0742">-20</text><text x="-0.4354" y="-0.0281">-10</text><text x="-0.4354" y="-0.1303">  0</text><text x="-0.4354" y="-0.2325"> 10</text><text x="-0.4354" y="-0.3348"> 20</text></g></g></g></g><g class="title"><g stroke-width="0.0" stroke="none" fill="rgb(5%, 5%, 5%)" fill-opacity="1.0" font-size="0.12" text-anchor="middle"><text x="-0.1380" y="-0.3789">Time: SATLIB/uf20-91/uf20-01/cnf</text></g></g><g class="legend"><g class="padding"></g><g class="padding"></g><g class="frame"><g stroke-width="0.0004" stroke="rgb(5%, 5%, 5%)" stroke-opacity="1.0" fill="rgb(5%, 5%, 5%)" fill-opacity="0"><rect width="0.4277" height="0.3507" x="0.2804" y="-0.1057"/></g></g><g class="legendContent"><g stroke-width="0" stroke="rgb(2%, 29%, 48%)" stroke-opacity="1.0" fill="rgb(50%, 35%, 74%)" fill-opacity="1.0"><rect width="0.0261" height="0.0215" x="0.6733" y="0.2164"/></g><g stroke-width="0.0" stroke="none" fill="rgb(5%, 5%, 5%)" fill-opacity="1.0" font-size="0.0139" text-anchor="start"><text x="0.2890" y="0.2300">CDCL (α = 0.95, mVISDS, LubyRestart(100, 2))</text></g><g stroke-width="0" stroke="rgb(2%, 29%, 48%)" stroke-opacity="1.0" fill="rgb(0%, 46%, 80%)" fill-opacity="1.0"><rect width="0.0261" height="0.0215" x="0.6733" y="0.1878"/></g><g stroke-width="0.0" stroke="none" fill="rgb(5%, 5%, 5%)" fill-opacity="1.0" font-size="0.0139" text-anchor="start"><text x="0.2890" y="0.2014">CDCL (α = 0.95, mVISDS, ExpRestart(100, 2))</text></g><g stroke-width="0" stroke="rgb(2%, 29%, 48%)" stroke-opacity="1.0" fill="rgb(100%, 34%, 60%)" fill-opacity="1.0"><rect width="0.0261" height="0.0215" x="0.6733" y="0.1592"/></g><g stroke-width="0.0" stroke="none" fill="rgb(5%, 5%, 5%)" fill-opacity="1.0" font-size="0.0139" text-anchor="start"><text x="0.2890" y="0.1727">CDCL (α = 0.95, mVISDS)</text></g><g stroke-width="0" stroke="rgb(2%, 29%, 48%)" stroke-opacity="1.0" fill="rgb(33%, 71%, 69%)" fill-opacity="1.0"><rect width="0.0261" height="0.0215" x="0.6733" y="0.1305"/></g><g stroke-width="0.0" stroke="none" fill="rgb(5%, 5%, 5%)" fill-opacity="1.0" font-size="0.0139" text-anchor="start"><text x="0.2890" y="0.1441">CDCL (α = 0.95)</text></g><g stroke-width="0" stroke="rgb(2%, 29%, 48%)" stroke-opacity="1.0" fill="rgb(39%, 19%, 0%)" fill-opacity="1.0"><rect width="0.0261" height="0.0215" x="0.6733" y="0.1019"/></g><g stroke-width="0.0" stroke="none" fill="rgb(5%, 5%, 5%)" fill-opacity="1.0" font-size="0.0139" text-anchor="start"><text x="0.2890" y="0.1155">CDCL (α = 0.75, mVISDS, LubyRestart(100, 2))</text></g><g stroke-width="0" stroke="rgb(2%, 29%, 48%)" stroke-opacity="1.0" fill="rgb(13%, 47%, 60%)" fill-opacity="1.0"><rect width="0.0261" height="0.0215" x="0.6733" y="0.0733"/></g><g stroke-width="0.0" stroke="none" fill="rgb(5%, 5%, 5%)" fill-opacity="1.0" font-size="0.0139" text-anchor="start"><text x="0.2890" y="0.0869">CDCL (α = 0.75, mVISDS, ExpRestart(100, 2))</text></g><g stroke-width="0" stroke="rgb(2%, 29%, 48%)" stroke-opacity="1.0" fill="rgb(12%, 10%, 48%)" fill-opacity="1.0"><rect width="0.0261" height="0.0215" x="0.6733" y="0.0446"/></g><g stroke-width="0.0" stroke="none" fill="rgb(5%, 5%, 5%)" fill-opacity="1.0" font-size="0.0139" text-anchor="start"><text x="0.2890" y="0.0582">CDCL (α = 0.75, mVISDS)</text></g><g stroke-width="0" stroke="rgb(2%, 29%, 48%)" stroke-opacity="1.0" fill="rgb(16%, 49%, 26%)" fill-opacity="1.0"><rect width="0.0261" height="0.0215" x="0.6733" y="0.0160"/></g><g stroke-width="0.0" stroke="none" fill="rgb(5%, 5%, 5%)" fill-opacity="1.0" font-size="0.0139" text-anchor="start"><text x="0.2890" y="0.0296">CDCL (α = 0.75)</text></g><g stroke-width="0" stroke="rgb(2%, 29%, 48%)" stroke-opacity="1.0" fill="rgb(40%, 59%, 56%)" fill-opacity="1.0"><rect width="0.0261" height="0.0215" x="0.6733" y="-0.0126"/></g><g stroke-width="0.0" stroke="none" fill="rgb(5%, 5%, 5%)" fill-opacity="1.0" font-size="0.0139" text-anchor="start"><text x="0.2890" y="0.0010">CDCL (adaptive, mVSIDS)</text></g><g stroke-width="0" stroke="rgb(2%, 29%, 48%)" stroke-opacity="1.0" fill="rgb(14%, 22%, 0%)" fill-opacity="1.0"><rect width="0.0261" height="0.0215" x="0.6733" y="-0.0412"/></g><g stroke-width="0.0" stroke="none" fill="rgb(5%, 5%, 5%)" fill-opacity="1.0" font-size="0.0139" text-anchor="start"><text x="0.2890" y="-0.0276">CDCL (adaptive, mVISDS, LubyRestart(100, 2))</text></g><g stroke-width="0" stroke="rgb(2%, 29%, 48%)" stroke-opacity="1.0" fill="rgb(37%, 26%, 0%)" fill-opacity="1.0"><rect width="0.0261" height="0.0215" x="0.6733" y="-0.0699"/></g><g stroke-width="0.0" stroke="none" fill="rgb(5%, 5%, 5%)" fill-opacity="1.0" font-size="0.0139" text-anchor="start"><text x="0.2890" y="-0.0563">CDCL (adaptive, mVISDS, ExpRestart(100, 2))</text></g><g stroke-width="0" stroke="rgb(2%, 29%, 48%)" stroke-opacity="1.0" fill="rgb(0%, 39%, 55%)" fill-opacity="1.0"><rect width="0.0261" height="0.0215" x="0.6733" y="-0.0985"/></g><g stroke-width="0.0" stroke="none" fill="rgb(5%, 5%, 5%)" fill-opacity="1.0" font-size="0.0139" text-anchor="start"><text x="0.2890" y="-0.0849">CDCL (adaptive)</text></g></g></g><g class="frame"><g stroke-width="0" stroke="rgb(0%, 0%, 0%)" stroke-opacity="0" fill="rgb(100%, 100%, 100%)" fill-opacity="0.02"><rect width="1.6180" height="1.0" x="-0.8090" y="-0.5"/></g></g><g class="title"><g stroke-width="0.0" stroke="none" fill="rgb(5%, 5%, 5%)" fill-opacity="1.0" font-size="0.0600" text-anchor="middle"><text x="-0.7385" y="0" transform="rotate(-90.0, -0.7385, 0)">Time [us]</text></g></g></g></svg>