<svg xmlns="http://www.w3.org/2000/svg" xmlns:xlink="http://www.w3.org/1999/xlink" width="461" height="300" viewBox="-0.8090 -0.5 1.6180 1.0518"><style>svg {
  color-scheme: light dark;
}
{
  .canvas g, .title g, .axisbar g, .ticktext g, .tickglyph g, .ticklines g, .legendContent g text {
    fill: rgb(5%, 5%, 5%);
  }
  .ticklines g, .tickglyph g, .legendBorder g {
    stroke: rgb(5%, 5%, 5%);
  }
  .legendBorder g {
    fill: rgb(94%, 94%, 94%);
  }
}
@media (prefers-color-scheme:dark) {
  .canvas g, .title g, .axisbar g, .ticktext g, .tickglyph g, .ticklines g, .legendContent g text {
    fill: rgb(94%, 94%, 94%);
  }
  .ticklines g, .tickglyph g, .legendBorder g {
    stroke: rgb(94%, 94%, 94%);
  }
  .legendBorder g {
    fill: rgb(5%, 5%, 5%);
  }
}</style><g class="chart"><g class="barchart"><g stroke-width="0" stroke="rgb(2%, 29%, 48%)" stroke-opacity="1.0" fill="rgb(0%, 30%, 12%)" fill-opacity="1.0"><rect width="0.0322" height="0.0050" x="-0.5530" y="0.0915"/></g><g stroke-width="0.0010" stroke="rgb(0%, 30%, 12%)" stroke-opacity="1.0" fill="rgb(0%, 30%, 12%)" fill-opacity="0.25"><rect width="0.0322" height="0.0049" x="-0.5208" y="0.0915"/></g><g stroke-width="0" stroke="rgb(2%, 29%, 48%)" stroke-opacity="1.0" fill="rgb(1%, 28%, 43%)" fill-opacity="1.0"><rect width="0.0322" height="0.0551" x="-0.4886" y="0.0414"/></g><g stroke-width="0.0010" stroke="rgb(1%, 28%, 43%)" stroke-opacity="1.0" fill="rgb(1%, 28%, 43%)" fill-opacity="0.25"><rect width="0.0322" height="0.0548" x="-0.4565" y="0.0416"/></g><g stroke-width="0" stroke="rgb(2%, 29%, 48%)" stroke-opacity="1.0" fill="rgb(0%, 72%, 98%)" fill-opacity="1.0"><rect width="0.0322" height="0.0158" x="-0.4243" y="0.0807"/></g><g stroke-width="0.0010" stroke="rgb(0%, 72%, 98%)" stroke-opacity="1.0" fill="rgb(0%, 72%, 98%)" fill-opacity="0.25"><rect width="0.0322" height="0.0159" x="-0.3921" y="0.0806"/></g><g stroke-width="0" stroke="rgb(2%, 29%, 48%)" stroke-opacity="1.0" fill="rgb(90%, 37%, 58%)" fill-opacity="1.0"><rect width="0.0322" height="0.0129" x="-0.3600" y="0.0836"/></g><g stroke-width="0.0010" stroke="rgb(90%, 37%, 58%)" stroke-opacity="1.0" fill="rgb(90%, 37%, 58%)" fill-opacity="0.25"><rect width="0.0322" height="0.0127" x="-0.3278" y="0.0837"/></g><g stroke-width="0" stroke="rgb(2%, 29%, 48%)" stroke-opacity="1.0" fill="rgb(38%, 23%, 0%)" fill-opacity="1.0"><rect width="0.0322" height="0.0318" x="-0.2956" y="0.0646"/></g><g stroke-width="0.0010" stroke="rgb(38%, 23%, 0%)" stroke-opacity="1.0" fill="rgb(38%, 23%, 0%)" fill-opacity="0.25"><rect width="0.0322" height="0.0331" x="-0.2634" y="0.0634"/></g><g stroke-width="0" stroke="rgb(2%, 29%, 48%)" stroke-opacity="1.0" fill="rgb(91%, 19%, 0%)" fill-opacity="1.0"><rect width="0.0322" height="0.0318" x="-0.2313" y="0.0646"/></g><g stroke-width="0.0010" stroke="rgb(91%, 19%, 0%)" stroke-opacity="1.0" fill="rgb(91%, 19%, 0%)" fill-opacity="0.25"><rect width="0.0322" height="0.0325" x="-0.1991" y="0.0639"/></g><g stroke-width="0" stroke="rgb(2%, 29%, 48%)" stroke-opacity="1.0" fill="rgb(0%, 64%, 70%)" fill-opacity="1.0"><rect width="0.0322" height="0.0049" x="-0.1669" y="0.0916"/></g><g stroke-width="0.0010" stroke="rgb(0%, 64%, 70%)" stroke-opacity="1.0" fill="rgb(0%, 64%, 70%)" fill-opacity="0.25"><rect width="0.0322" height="0.0050" x="-0.1347" y="0.0915"/></g><g stroke-width="0" stroke="rgb(2%, 29%, 48%)" stroke-opacity="1.0" fill="rgb(91%, 47%, 0%)" fill-opacity="1.0"><rect width="0.0322" height="0.0205" x="-0.1026" y="0.0760"/></g><g stroke-width="0.0010" stroke="rgb(91%, 47%, 0%)" stroke-opacity="1.0" fill="rgb(91%, 47%, 0%)" fill-opacity="0.25"><rect width="0.0322" height="0.0202" x="-0.0704" y="0.0763"/></g><g stroke-width="0" stroke="rgb(2%, 29%, 48%)" stroke-opacity="1.0" fill="rgb(62%, 0%, 31%)" fill-opacity="1.0"><rect width="0.0322" height="0.0135" x="-0.0382" y="0.0829"/></g><g stroke-width="0.0010" stroke="rgb(62%, 0%, 31%)" stroke-opacity="1.0" fill="rgb(62%, 0%, 31%)" fill-opacity="0.25"><rect width="0.0322" height="0.0136" x="-0.0060" y="0.0829"/></g><g stroke-width="0" stroke="rgb(2%, 29%, 48%)" stroke-opacity="1.0" fill="rgb(17%, 40%, 67%)" fill-opacity="1.0"><rect width="0.0322" height="0.0134" x="0.0261" y="0.0830"/></g><g stroke-width="0.0010" stroke="rgb(17%, 40%, 67%)" stroke-opacity="1.0" fill="rgb(17%, 40%, 67%)" fill-opacity="0.25"><rect width="0.0322" height="0.0136" x="0.0583" y="0.0829"/></g><g stroke-width="0" stroke="rgb(2%, 29%, 48%)" stroke-opacity="1.0" fill="rgb(0%, 52%, 40%)" fill-opacity="1.0"><rect width="0.0322" height="0.3248" x="0.0905" y="-0.2283"/></g><g stroke-width="0.0010" stroke="rgb(0%, 52%, 40%)" stroke-opacity="1.0" fill="rgb(0%, 52%, 40%)" fill-opacity="0.25"><rect width="0.0322" height="0.3346" x="0.1226" y="-0.2381"/></g></g><g class="errors"><g stroke-width="0.0015" stroke="rgb(5%, 5%, 5%)" stroke-opacity="1.0" fill="none"><polyline points="-0.5401,0.0916 -0.5337,0.0916"/><polyline points="-0.5369,0.0916 -0.5369,0.0914"/><polyline points="-0.5401,0.0914 -0.5337,0.0914"/></g><g stroke-width="0.0015" stroke="rgb(5%, 5%, 5%)" stroke-opacity="1.0" fill="none"><polyline points="-0.5079,0.0917 -0.5015,0.0917"/><polyline points="-0.5047,0.0917 -0.5047,0.0914"/><polyline points="-0.5079,0.0914 -0.5015,0.0914"/></g><g stroke-width="0.0015" stroke="rgb(5%, 5%, 5%)" stroke-opacity="1.0" fill="none"><polyline points="-0.4758,0.0415 -0.4693,0.0415"/><polyline points="-0.4726,0.0415 -0.4726,0.0413"/><polyline points="-0.4758,0.0413 -0.4693,0.0413"/></g><g stroke-width="0.0015" stroke="rgb(5%, 5%, 5%)" stroke-opacity="1.0" fill="none"><polyline points="-0.4436,0.0423 -0.4372,0.0423"/><polyline points="-0.4404,0.0423 -0.4404,0.0409"/><polyline points="-0.4436,0.0409 -0.4372,0.0409"/></g><g stroke-width="0.0015" stroke="rgb(5%, 5%, 5%)" stroke-opacity="1.0" fill="none"><polyline points="-0.4114,0.0807 -0.4050,0.0807"/><polyline points="-0.4082,0.0807 -0.4082,0.0806"/><polyline points="-0.4114,0.0806 -0.4050,0.0806"/></g><g stroke-width="0.0015" stroke="rgb(5%, 5%, 5%)" stroke-opacity="1.0" fill="none"><polyline points="-0.3793,0.0806 -0.3728,0.0806"/><polyline points="-0.3760,0.0806 -0.3760,0.0805"/><polyline points="-0.3793,0.0805 -0.3728,0.0805"/></g><g stroke-width="0.0015" stroke="rgb(5%, 5%, 5%)" stroke-opacity="1.0" fill="none"><polyline points="-0.3471,0.0839 -0.3406,0.0839"/><polyline points="-0.3439,0.0839 -0.3439,0.0833"/><polyline points="-0.3471,0.0833 -0.3406,0.0833"/></g><g stroke-width="0.0015" stroke="rgb(5%, 5%, 5%)" stroke-opacity="1.0" fill="none"><polyline points="-0.3149,0.0840 -0.3085,0.0840"/><polyline points="-0.3117,0.0840 -0.3117,0.0834"/><polyline points="-0.3149,0.0834 -0.3085,0.0834"/></g><g stroke-width="0.0015" stroke="rgb(5%, 5%, 5%)" stroke-opacity="1.0" fill="none"><polyline points="-0.2827,0.0651 -0.2763,0.0651"/><polyline points="-0.2795,0.0651 -0.2795,0.0641"/><polyline points="-0.2827,0.0641 -0.2763,0.0641"/></g><g stroke-width="0.0015" stroke="rgb(5%, 5%, 5%)" stroke-opacity="1.0" fill="none"><polyline points="-0.2506,0.0643 -0.2441,0.0643"/><polyline points="-0.2473,0.0643 -0.2473,0.0625"/><polyline points="-0.2506,0.0625 -0.2441,0.0625"/></g><g stroke-width="0.0015" stroke="rgb(5%, 5%, 5%)" stroke-opacity="1.0" fill="none"><polyline points="-0.2184,0.0647 -0.2120,0.0647"/><polyline points="-0.2152,0.0647 -0.2152,0.0645"/><polyline points="-0.2184,0.0645 -0.2120,0.0645"/></g><g stroke-width="0.0015" stroke="rgb(5%, 5%, 5%)" stroke-opacity="1.0" fill="none"><polyline points="-0.1862,0.0649 -0.1798,0.0649"/><polyline points="-0.1830,0.0649 -0.1830,0.0629"/><polyline points="-0.1862,0.0629 -0.1798,0.0629"/></g><g stroke-width="0.0015" stroke="rgb(5%, 5%, 5%)" stroke-opacity="1.0" fill="none"><polyline points="-0.1540,0.0916 -0.1476,0.0916"/><polyline points="-0.1508,0.0916 -0.1508,0.0915"/><polyline points="-0.1540,0.0915 -0.1476,0.0915"/></g><g stroke-width="0.0015" stroke="rgb(5%, 5%, 5%)" stroke-opacity="1.0" fill="none"><polyline points="-0.1219,0.0916 -0.1154,0.0916"/><polyline points="-0.1187,0.0916 -0.1187,0.0914"/><polyline points="-0.1219,0.0914 -0.1154,0.0914"/></g><g stroke-width="0.0015" stroke="rgb(5%, 5%, 5%)" stroke-opacity="1.0" fill="none"><polyline points="-0.0897,0.0761 -0.0833,0.0761"/><polyline points="-0.0865,0.0761 -0.0865,0.0759"/><polyline points="-0.0897,0.0759 -0.0833,0.0759"/></g><g stroke-width="0.0015" stroke="rgb(5%, 5%, 5%)" stroke-opacity="1.0" fill="none"><polyline points="-0.0575,0.0763 -0.0511,0.0763"/><polyline points="-0.0543,0.0763 -0.0543,0.0763"/><polyline points="-0.0575,0.0763 -0.0511,0.0763"/></g><g stroke-width="0.0015" stroke="rgb(5%, 5%, 5%)" stroke-opacity="1.0" fill="none"><polyline points="-0.0253,0.0830 -0.0189,0.0830"/><polyline points="-0.0221,0.0830 -0.0221,0.0829"/><polyline points="-0.0253,0.0829 -0.0189,0.0829"/></g><g stroke-width="0.0015" stroke="rgb(5%, 5%, 5%)" stroke-opacity="1.0" fill="none"><polyline points="0.0068,0.0830 0.0133,0.0830"/><polyline points="0.0100,0.0830 0.0100,0.0827"/><polyline points="0.0068,0.0827 0.0133,0.0827"/></g><g stroke-width="0.0015" stroke="rgb(5%, 5%, 5%)" stroke-opacity="1.0" fill="none"><polyline points="0.0390,0.0832 0.0454,0.0832"/><polyline points="0.0422,0.0832 0.0422,0.0828"/><polyline points="0.0390,0.0828 0.0454,0.0828"/></g><g stroke-width="0.0015" stroke="rgb(5%, 5%, 5%)" stroke-opacity="1.0" fill="none"><polyline points="0.0712,0.0832 0.0776,0.0832"/><polyline points="0.0744,0.0832 0.0744,0.0826"/><polyline points="0.0712,0.0826 0.0776,0.0826"/></g><g stroke-width="0.0015" stroke="rgb(5%, 5%, 5%)" stroke-opacity="1.0" fill="none"><polyline points="0.1033,-0.2258 0.1098,-0.2258"/><polyline points="0.1066,-0.2258 0.1066,-0.2308"/><polyline points="0.1033,-0.2308 0.1098,-0.2308"/></g><g stroke-width="0.0015" stroke="rgb(5%, 5%, 5%)" stroke-opacity="1.0" fill="none"><polyline points="0.1355,-0.2371 0.1420,-0.2371"/><polyline points="0.1387,-0.2371 0.1387,-0.2392"/><polyline points="0.1355,-0.2392 0.1420,-0.2392"/></g></g></g><g class="hud"><g class="axis"><g class="ticks"><g class="tickglyph"><g stroke-width="0.0040" stroke="rgb(5%, 5%, 5%)" stroke-opacity="0.4" fill="rgb(5%, 5%, 5%)" fill-opacity="0.4"><g transform="rotate(-90.0, -0.6069, 0.0965)"><polyline points="-0.6069,0.1115
-0.6069,0.0815"/></g><g transform="rotate(-90.0, -0.6069, 0.0469)"><polyline points="-0.6069,0.0619
-0.6069,0.0319"/></g><g transform="rotate(-90.0, -0.6069, -0.0026)"><polyline points="-0.6069,0.0124
-0.6069,-0.0176"/></g><g transform="rotate(-90.0, -0.6069, -0.0522)"><polyline points="-0.6069,-0.0372
-0.6069,-0.0672"/></g><g transform="rotate(-90.0, -0.6069, -0.1017)"><polyline points="-0.6069,-0.0867
-0.6069,-0.1167"/></g><g transform="rotate(-90.0, -0.6069, -0.1512)"><polyline points="-0.6069,-0.1362
-0.6069,-0.1662"/></g><g transform="rotate(-90.0, -0.6069, -0.2008)"><polyline points="-0.6069,-0.1858
-0.6069,-0.2158"/></g><g transform="rotate(-90.0, -0.6069, -0.2503)"><polyline points="-0.6069,-0.2353
-0.6069,-0.2653"/></g></g></g><g class="ticktext"><g stroke-width="0.0" stroke="none" fill="rgb(5%, 5%, 5%)" fill-opacity="1.0" font-size="0.0243" text-anchor="end"><text x="-0.6244" y="0.1012"> 0</text><text x="-0.6244" y="0.0517"> 5</text><text x="-0.6244" y="0.0021">10</text><text x="-0.6244" y="-0.0474">15</text><text x="-0.6244" y="-0.0969">20</text><text x="-0.6244" y="-0.1465">25</text><text x="-0.6244" y="-0.1960">30</text><text x="-0.6244" y="-0.2455">35</text></g></g><g class="ticklines"><g stroke-width="0.0050" stroke="rgb(5%, 5%, 5%)" stroke-opacity="0.05" fill="none"><polyline points="-0.5923,0.0965 0.1941,0.0965"/><polyline points="-0.5923,0.0469 0.1941,0.0469"/><polyline points="-0.5923,-0.0026 0.1941,-0.0026"/><polyline points="-0.5923,-0.0522 0.1941,-0.0522"/><polyline points="-0.5923,-0.1017 0.1941,-0.1017"/><polyline points="-0.5923,-0.1512 0.1941,-0.1512"/><polyline points="-0.5923,-0.2008 0.1941,-0.2008"/><polyline points="-0.5923,-0.2503 0.1941,-0.2503"/></g></g></g><g class="axisbar"><g stroke-width="0" stroke="rgb(0%, 0%, 0%)" stroke-opacity="0" fill="rgb(5%, 5%, 5%)" fill-opacity="0.4"><rect width="0.0019" height="0.3482" x="-0.5991" y="-0.2510"/></g></g></g><g class="axis"><g class="ticks"><g class="tickglyph"><g stroke-width="0.0040" stroke="rgb(5%, 5%, 5%)" stroke-opacity="0.4" fill="rgb(5%, 5%, 5%)" fill-opacity="0.4"><polyline points="-0.5369,0.1220
-0.5369,0.0920"/><polyline points="-0.5047,0.1220
-0.5047,0.0920"/><polyline points="-0.4726,0.1220
-0.4726,0.0920"/><polyline points="-0.4404,0.1220
-0.4404,0.0920"/><polyline points="-0.4082,0.1220
-0.4082,0.0920"/><polyline points="-0.3760,0.1220
-0.3760,0.0920"/><polyline points="-0.3439,0.1220
-0.3439,0.0920"/><polyline points="-0.3117,0.1220
-0.3117,0.0920"/><polyline points="-0.2795,0.1220
-0.2795,0.0920"/><polyline points="-0.2473,0.1220
-0.2473,0.0920"/><polyline points="-0.2152,0.1220
-0.2152,0.0920"/><polyline points="-0.1830,0.1220
-0.1830,0.0920"/><polyline points="-0.1508,0.1220
-0.1508,0.0920"/><polyline points="-0.1187,0.1220
-0.1187,0.0920"/><polyline points="-0.0865,0.1220
-0.0865,0.0920"/><polyline points="-0.0543,0.1220
-0.0543,0.0920"/><polyline points="-0.0221,0.1220
-0.0221,0.0920"/><polyline points="0.0100,0.1220
0.0100,0.0920"/><polyline points="0.0422,0.1220
0.0422,0.0920"/><polyline points="0.0744,0.1220
0.0744,0.0920"/><polyline points="0.1066,0.1220
0.1066,0.0920"/><polyline points="0.1387,0.1220
0.1387,0.0920"/></g></g><g class="ticktext"><g stroke-width="0.0" stroke="none" fill="rgb(5%, 5%, 5%)" fill-opacity="1.0" font-size="0.0243" text-anchor="end"><text x="-0.5369" y="0.1291" transform="rotate(-45.0, -0.5369, 0.1291)">CDCL (adaptive)</text><text x="-0.5047" y="0.1291" transform="rotate(-45.0, -0.5047, 0.1291)">CDCL (adaptive), Baseline</text><text x="-0.4726" y="0.1291" transform="rotate(-45.0, -0.4726, 0.1291)">CDCL (adaptive, mVSIDS)</text><text x="-0.4404" y="0.1291" transform="rotate(-45.0, -0.4404, 0.1291)">CDCL (adaptive, mVSIDS), Baseline</text><text x="-0.4082" y="0.1291" transform="rotate(-45.0, -0.4082, 0.1291)">CDCL (α = 0.75)</text><text x="-0.3760" y="0.1291" transform="rotate(-45.0, -0.3760, 0.1291)">CDCL (α = 0.75), Baseline</text><text x="-0.3439" y="0.1291" transform="rotate(-45.0, -0.3439, 0.1291)">CDCL (α = 0.75, mVISDS)</text><text x="-0.3117" y="0.1291" transform="rotate(-45.0, -0.3117, 0.1291)">CDCL (α = 0.75, mVISDS), Baseline</text><text x="-0.2795" y="0.1291" transform="rotate(-45.0, -0.2795, 0.1291)">CDCL (α = 0.75, mVISDS, ExpRestart(100, 2))</text><text x="-0.2473" y="0.1291" transform="rotate(-45.0, -0.2473, 0.1291)">CDCL (α = 0.75, mVISDS, ExpRestart(100, 2)), Baseline</text><text x="-0.2152" y="0.1291" transform="rotate(-45.0, -0.2152, 0.1291)">CDCL (α = 0.75, mVISDS, LubyRestart(100, 2))</text><text x="-0.1830" y="0.1291" transform="rotate(-45.0, -0.1830, 0.1291)">CDCL (α = 0.75, mVISDS, LubyRestart(100, 2)), Baseline</text><text x="-0.1508" y="0.1291" transform="rotate(-45.0, -0.1508, 0.1291)">CDCL (α = 0.95)</text><text x="-0.1187" y="0.1291" transform="rotate(-45.0, -0.1187, 0.1291)">CDCL (α = 0.95), Baseline</text><text x="-0.0865" y="0.1291" transform="rotate(-45.0, -0.0865, 0.1291)">CDCL (α = 0.95, mVISDS)</text><text x="-0.0543" y="0.1291" transform="rotate(-45.0, -0.0543, 0.1291)">CDCL (α = 0.95, mVISDS), Baseline</text><text x="-0.0221" y="0.1291" transform="rotate(-45.0, -0.0221, 0.1291)">CDCL (α = 0.95, mVISDS, ExpRestart(100, 2))</text><text x="0.0100" y="0.1291" transform="rotate(-45.0, 0.0100, 0.1291)">CDCL (α = 0.95, mVISDS, ExpRestart(100, 2)), Baseline</text><text x="0.0422" y="0.1291" transform="rotate(-45.0, 0.0422, 0.1291)">CDCL (α = 0.95, mVISDS, LubyRestart(100, 2))</text><text x="0.0744" y="0.1291" transform="rotate(-45.0, 0.0744, 0.1291)">CDCL (α = 0.95, mVISDS, LubyRestart(100, 2)), Baseline</text><text x="0.1066" y="0.1291" transform="rotate(-45.0, 0.1066, 0.1291)">DPLL</text><text x="0.1387" y="0.1291" transform="rotate(-45.0, 0.1387, 0.1291)">DPLL, Baseline</text></g></g></g><g class="axisbar"><g stroke-width="0" stroke="rgb(0%, 0%, 0%)" stroke-opacity="0" fill="rgb(5%, 5%, 5%)" fill-opacity="0.4"><rect width="0.7884" height="0.0014" x="-0.5933" y="0.1001"/></g></g></g><g class="title"><g stroke-width="0.0" stroke="none" fill="rgb(5%, 5%, 5%)" fill-opacity="1.0" font-size="0.0583" text-anchor="middle"><text x="-0.2582" y="-0.2858">Time: SATLIB/Bejing/3blocks/cnf</text></g></g><g class="legend"><g class="legendBorder"><g stroke-width="0.0017" stroke="rgb(5%, 5%, 5%)" stroke-opacity="1.0" fill="rgb(5%, 5%, 5%)" fill-opacity="0"><rect width="0.4316" height="0.5411" x="0.2785" y="-0.4294"/></g></g><g class="legendContent"><g stroke-width="0.0" stroke="none" fill="rgb(5%, 5%, 5%)" fill-opacity="1.0" font-size="0.0153" text-anchor="start"><text x="0.2870" y="0.0992">DPLL, Baseline</text></g><g stroke-width="0.0002" stroke="rgb(0%, 52%, 40%)" stroke-opacity="1.0" fill="rgb(0%, 52%, 40%)" fill-opacity="0.25"><rect width="0.0255" height="0.0182" x="0.6760" y="0.0874"/></g><g stroke-width="0.0" stroke="none" fill="rgb(5%, 5%, 5%)" fill-opacity="1.0" font-size="0.0153" text-anchor="start"><text x="0.2870" y="0.0749">DPLL</text></g><g stroke-width="0" stroke="rgb(2%, 29%, 48%)" stroke-opacity="1.0" fill="rgb(0%, 52%, 40%)" fill-opacity="1.0"><rect width="0.0255" height="0.0182" x="0.6760" y="0.0630"/></g><g stroke-width="0.0" stroke="none" fill="rgb(5%, 5%, 5%)" fill-opacity="1.0" font-size="0.0153" text-anchor="start"><text x="0.2870" y="0.0505">CDCL (α = 0.95, mVISDS, LubyRestart(100, 2)), Baseline</text></g><g stroke-width="0.0002" stroke="rgb(17%, 40%, 67%)" stroke-opacity="1.0" fill="rgb(17%, 40%, 67%)" fill-opacity="0.25"><rect width="0.0255" height="0.0182" x="0.6760" y="0.0387"/></g><g stroke-width="0.0" stroke="none" fill="rgb(5%, 5%, 5%)" fill-opacity="1.0" font-size="0.0153" text-anchor="start"><text x="0.2870" y="0.0262">CDCL (α = 0.95, mVISDS, LubyRestart(100, 2))</text></g><g stroke-width="0" stroke="rgb(2%, 29%, 48%)" stroke-opacity="1.0" fill="rgb(17%, 40%, 67%)" fill-opacity="1.0"><rect width="0.0255" height="0.0182" x="0.6760" y="0.0144"/></g><g stroke-width="0.0" stroke="none" fill="rgb(5%, 5%, 5%)" fill-opacity="1.0" font-size="0.0153" text-anchor="start"><text x="0.2870" y="0.0019">CDCL (α = 0.95, mVISDS, ExpRestart(100, 2)), Baseline</text></g><g stroke-width="0.0002" stroke="rgb(62%, 0%, 31%)" stroke-opacity="1.0" fill="rgb(62%, 0%, 31%)" fill-opacity="0.25"><rect width="0.0255" height="0.0182" x="0.6760" y="-0.0099"/></g><g stroke-width="0.0" stroke="none" fill="rgb(5%, 5%, 5%)" fill-opacity="1.0" font-size="0.0153" text-anchor="start"><text x="0.2870" y="-0.0224">CDCL (α = 0.95, mVISDS, ExpRestart(100, 2))</text></g><g stroke-width="0" stroke="rgb(2%, 29%, 48%)" stroke-opacity="1.0" fill="rgb(62%, 0%, 31%)" fill-opacity="1.0"><rect width="0.0255" height="0.0182" x="0.6760" y="-0.0343"/></g><g stroke-width="0.0" stroke="none" fill="rgb(5%, 5%, 5%)" fill-opacity="1.0" font-size="0.0153" text-anchor="start"><text x="0.2870" y="-0.0467">CDCL (α = 0.95, mVISDS), Baseline</text></g><g stroke-width="0.0002" stroke="rgb(91%, 47%, 0%)" stroke-opacity="1.0" fill="rgb(91%, 47%, 0%)" fill-opacity="0.25"><rect width="0.0255" height="0.0182" x="0.6760" y="-0.0586"/></g><g stroke-width="0.0" stroke="none" fill="rgb(5%, 5%, 5%)" fill-opacity="1.0" font-size="0.0153" text-anchor="start"><text x="0.2870" y="-0.0711">CDCL (α = 0.95, mVISDS)</text></g><g stroke-width="0" stroke="rgb(2%, 29%, 48%)" stroke-opacity="1.0" fill="rgb(91%, 47%, 0%)" fill-opacity="1.0"><rect width="0.0255" height="0.0182" x="0.6760" y="-0.0829"/></g><g stroke-width="0.0" stroke="none" fill="rgb(5%, 5%, 5%)" fill-opacity="1.0" font-size="0.0153" text-anchor="start"><text x="0.2870" y="-0.0954">CDCL (α = 0.95), Baseline</text></g><g stroke-width="0.0002" stroke="rgb(0%, 64%, 70%)" stroke-opacity="1.0" fill="rgb(0%, 64%, 70%)" fill-opacity="0.25"><rect width="0.0255" height="0.0182" x="0.6760" y="-0.1072"/></g><g stroke-width="0.0" stroke="none" fill="rgb(5%, 5%, 5%)" fill-opacity="1.0" font-size="0.0153" text-anchor="start"><text x="0.2870" y="-0.1197">CDCL (α = 0.95)</text></g><g stroke-width="0" stroke="rgb(2%, 29%, 48%)" stroke-opacity="1.0" fill="rgb(0%, 64%, 70%)" fill-opacity="1.0"><rect width="0.0255" height="0.0182" x="0.6760" y="-0.1315"/></g><g stroke-width="0.0" stroke="none" fill="rgb(5%, 5%, 5%)" fill-opacity="1.0" font-size="0.0153" text-anchor="start"><text x="0.2870" y="-0.1440">CDCL (α = 0.75, mVISDS, LubyRestart(100, 2)), Baseline</text></g><g stroke-width="0.0002" stroke="rgb(91%, 19%, 0%)" stroke-opacity="1.0" fill="rgb(91%, 19%, 0%)" fill-opacity="0.25"><rect width="0.0255" height="0.0182" x="0.6760" y="-0.1558"/></g><g stroke-width="0.0" stroke="none" fill="rgb(5%, 5%, 5%)" fill-opacity="1.0" font-size="0.0153" text-anchor="start"><text x="0.2870" y="-0.1683">CDCL (α = 0.75, mVISDS, LubyRestart(100, 2))</text></g><g stroke-width="0" stroke="rgb(2%, 29%, 48%)" stroke-opacity="1.0" fill="rgb(91%, 19%, 0%)" fill-opacity="1.0"><rect width="0.0255" height="0.0182" x="0.6760" y="-0.1802"/></g><g stroke-width="0.0" stroke="none" fill="rgb(5%, 5%, 5%)" fill-opacity="1.0" font-size="0.0153" text-anchor="start"><text x="0.2870" y="-0.1926">CDCL (α = 0.75, mVISDS, ExpRestart(100, 2)), Baseline</text></g><g stroke-width="0.0002" stroke="rgb(38%, 23%, 0%)" stroke-opacity="1.0" fill="rgb(38%, 23%, 0%)" fill-opacity="0.25"><rect width="0.0255" height="0.0182" x="0.6760" y="-0.2045"/></g><g stroke-width="0.0" stroke="none" fill="rgb(5%, 5%, 5%)" fill-opacity="1.0" font-size="0.0153" text-anchor="start"><text x="0.2870" y="-0.2170">CDCL (α = 0.75, mVISDS, ExpRestart(100, 2))</text></g><g stroke-width="0" stroke="rgb(2%, 29%, 48%)" stroke-opacity="1.0" fill="rgb(38%, 23%, 0%)" fill-opacity="1.0"><rect width="0.0255" height="0.0182" x="0.6760" y="-0.2288"/></g><g stroke-width="0.0" stroke="none" fill="rgb(5%, 5%, 5%)" fill-opacity="1.0" font-size="0.0153" text-anchor="start"><text x="0.2870" y="-0.2413">CDCL (α = 0.75, mVISDS), Baseline</text></g><g stroke-width="0.0002" stroke="rgb(90%, 37%, 58%)" stroke-opacity="1.0" fill="rgb(90%, 37%, 58%)" fill-opacity="0.25"><rect width="0.0255" height="0.0182" x="0.6760" y="-0.2531"/></g><g stroke-width="0.0" stroke="none" fill="rgb(5%, 5%, 5%)" fill-opacity="1.0" font-size="0.0153" text-anchor="start"><text x="0.2870" y="-0.2656">CDCL (α = 0.75, mVISDS)</text></g><g stroke-width="0" stroke="rgb(2%, 29%, 48%)" stroke-opacity="1.0" fill="rgb(90%, 37%, 58%)" fill-opacity="1.0"><rect width="0.0255" height="0.0182" x="0.6760" y="-0.2775"/></g><g stroke-width="0.0" stroke="none" fill="rgb(5%, 5%, 5%)" fill-opacity="1.0" font-size="0.0153" text-anchor="start"><text x="0.2870" y="-0.2899">CDCL (α = 0.75), Baseline</text></g><g stroke-width="0.0002" stroke="rgb(0%, 72%, 98%)" stroke-opacity="1.0" fill="rgb(0%, 72%, 98%)" fill-opacity="0.25"><rect width="0.0255" height="0.0182" x="0.6760" y="-0.3018"/></g><g stroke-width="0.0" stroke="none" fill="rgb(5%, 5%, 5%)" fill-opacity="1.0" font-size="0.0153" text-anchor="start"><text x="0.2870" y="-0.3143">CDCL (α = 0.75)</text></g><g stroke-width="0" stroke="rgb(2%, 29%, 48%)" stroke-opacity="1.0" fill="rgb(0%, 72%, 98%)" fill-opacity="1.0"><rect width="0.0255" height="0.0182" x="0.6760" y="-0.3261"/></g><g stroke-width="0.0" stroke="none" fill="rgb(5%, 5%, 5%)" fill-opacity="1.0" font-size="0.0153" text-anchor="start"><text x="0.2870" y="-0.3386">CDCL (adaptive, mVSIDS), Baseline</text></g><g stroke-width="0.0002" stroke="rgb(1%, 28%, 43%)" stroke-opacity="1.0" fill="rgb(1%, 28%, 43%)" fill-opacity="0.25"><rect width="0.0255" height="0.0182" x="0.6760" y="-0.3504"/></g><g stroke-width="0.0" stroke="none" fill="rgb(5%, 5%, 5%)" fill-opacity="1.0" font-size="0.0153" text-anchor="start"><text x="0.2870" y="-0.3629">CDCL (adaptive, mVSIDS)</text></g><g stroke-width="0" stroke="rgb(2%, 29%, 48%)" stroke-opacity="1.0" fill="rgb(1%, 28%, 43%)" fill-opacity="1.0"><rect width="0.0255" height="0.0182" x="0.6760" y="-0.3747"/></g><g stroke-width="0.0" stroke="none" fill="rgb(5%, 5%, 5%)" fill-opacity="1.0" font-size="0.0153" text-anchor="start"><text x="0.2870" y="-0.3872">CDCL (adaptive), Baseline</text></g><g stroke-width="0.0002" stroke="rgb(0%, 30%, 12%)" stroke-opacity="1.0" fill="rgb(0%, 30%, 12%)" fill-opacity="0.25"><rect width="0.0255" height="0.0182" x="0.6760" y="-0.3990"/></g><g stroke-width="0.0" stroke="none" fill="rgb(5%, 5%, 5%)" fill-opacity="1.0" font-size="0.0153" text-anchor="start"><text x="0.2870" y="-0.4115">CDCL (adaptive)</text></g><g stroke-width="0" stroke="rgb(2%, 29%, 48%)" stroke-opacity="1.0" fill="rgb(0%, 30%, 12%)" fill-opacity="1.0"><rect width="0.0255" height="0.0182" x="0.6760" y="-0.4234"/></g></g></g><g class="frame"><g stroke-width="0" stroke="rgb(0%, 0%, 0%)" stroke-opacity="0" fill="rgb(100%, 100%, 100%)" fill-opacity="0.02"><rect width="1.6180" height="1.0" x="-0.8090" y="-0.5"/></g></g><g class="title"><g stroke-width="0.0" stroke="none" fill="rgb(5%, 5%, 5%)" fill-opacity="1.0" font-size="0.0292" text-anchor="middle"><text x="-0.7400" y="0" transform="rotate(-90.0, -0.7400, 0)">Time [s]</text></g></g></g></svg>