<svg xmlns="http://www.w3.org/2000/svg" xmlns:xlink="http://www.w3.org/1999/xlink" width="470" height="300" viewBox="-0.8090 -0.5 1.6180 1.0306"><style>svg {
  color-scheme: light dark;
}
{
  .canvas g, .title g, .axisbar g, .ticktext g, .tickglyph g, .ticklines g, .legendContent g text {
    fill: rgb(5%, 5%, 5%);
  }
  .ticklines g, .tickglyph g, .legendBorder g {
    stroke: rgb(5%, 5%, 5%);
  }
  .legendBorder g {
    fill: rgb(94%, 94%, 94%);
  }
}
@media (prefers-color-scheme:dark) {
  .canvas g, .title g, .axisbar g, .ticktext g, .tickglyph g, .ticklines g, .legendContent g text {
    fill: rgb(94%, 94%, 94%);
  }
  .ticklines g, .tickglyph g, .legendBorder g {
    stroke: rgb(94%, 94%, 94%);
  }
  .legendBorder g {
    fill: rgb(5%, 5%, 5%);
  }
}</style><g class="chart"><g class="barchart"><g stroke-width="0" stroke="rgb(2%, 29%, 48%)" stroke-opacity="1.0" fill="rgb(0%, 30%, 12%)" fill-opacity="1.0"><rect width="0.0268" height="0.0220" x="-0.4293" y="0.0931"/></g><g stroke-width="0.0010" stroke="rgb(0%, 30%, 12%)" stroke-opacity="1.0" fill="rgb(0%, 30%, 12%)" fill-opacity="0.25"><rect width="0.0268" height="0.0277" x="-0.4025" y="0.0875"/></g><g stroke-width="0" stroke="rgb(2%, 29%, 48%)" stroke-opacity="1.0" fill="rgb(0%, 25%, 37%)" fill-opacity="1.0"><rect width="0.0268" height="0.1034" x="-0.3757" y="0.0118"/></g><g stroke-width="0.0010" stroke="rgb(0%, 25%, 37%)" stroke-opacity="1.0" fill="rgb(0%, 25%, 37%)" fill-opacity="0.25"><rect width="0.0268" height="0.1260" x="-0.3489" y="-0.0109"/></g><g stroke-width="0" stroke="rgb(2%, 29%, 48%)" stroke-opacity="1.0" fill="rgb(26%, 54%, 57%)" fill-opacity="1.0"><rect width="0.0268" height="0.1041" x="-0.3221" y="0.0111"/></g><g stroke-width="0.0010" stroke="rgb(26%, 54%, 57%)" stroke-opacity="1.0" fill="rgb(26%, 54%, 57%)" fill-opacity="0.25"><rect width="0.0268" height="0.1255" x="-0.2953" y="-0.0104"/></g><g stroke-width="0" stroke="rgb(2%, 29%, 48%)" stroke-opacity="1.0" fill="rgb(1%, 28%, 43%)" fill-opacity="1.0"><rect width="0.0268" height="0.0313" x="-0.2684" y="0.0839"/></g><g stroke-width="0.0010" stroke="rgb(1%, 28%, 43%)" stroke-opacity="1.0" fill="rgb(1%, 28%, 43%)" fill-opacity="0.25"><rect width="0.0268" height="0.0390" x="-0.2416" y="0.0762"/></g><g stroke-width="0" stroke="rgb(2%, 29%, 48%)" stroke-opacity="1.0" fill="rgb(0%, 72%, 98%)" fill-opacity="1.0"><rect width="0.0268" height="0.0450" x="-0.2148" y="0.0702"/></g><g stroke-width="0.0010" stroke="rgb(0%, 72%, 98%)" stroke-opacity="1.0" fill="rgb(0%, 72%, 98%)" fill-opacity="0.25"><rect width="0.0268" height="0.0598" x="-0.1880" y="0.0554"/></g><g stroke-width="0" stroke="rgb(2%, 29%, 48%)" stroke-opacity="1.0" fill="rgb(90%, 37%, 58%)" fill-opacity="1.0"><rect width="0.0268" height="0.0402" x="-0.1612" y="0.0750"/></g><g stroke-width="0.0010" stroke="rgb(90%, 37%, 58%)" stroke-opacity="1.0" fill="rgb(90%, 37%, 58%)" fill-opacity="0.25"><rect width="0.0268" height="0.0517" x="-0.1344" y="0.0635"/></g><g stroke-width="0" stroke="rgb(2%, 29%, 48%)" stroke-opacity="1.0" fill="rgb(38%, 23%, 0%)" fill-opacity="1.0"><rect width="0.0268" height="0.2260" x="-0.1076" y="-0.1108"/></g><g stroke-width="0.0010" stroke="rgb(38%, 23%, 0%)" stroke-opacity="1.0" fill="rgb(38%, 23%, 0%)" fill-opacity="0.25"><rect width="0.0268" height="0.2908" x="-0.0807" y="-0.1757"/></g><g stroke-width="0" stroke="rgb(2%, 29%, 48%)" stroke-opacity="1.0" fill="rgb(91%, 19%, 0%)" fill-opacity="1.0"><rect width="0.0268" height="0.2257" x="-0.0539" y="-0.1106"/></g><g stroke-width="0.0010" stroke="rgb(91%, 19%, 0%)" stroke-opacity="1.0" fill="rgb(91%, 19%, 0%)" fill-opacity="0.25"><rect width="0.0268" height="0.2879" x="-0.0271" y="-0.1727"/></g><g stroke-width="0" stroke="rgb(2%, 29%, 48%)" stroke-opacity="1.0" fill="rgb(0%, 64%, 70%)" fill-opacity="1.0"><rect width="0.0268" height="0.0232" x="-0.0003" y="0.0920"/></g><g stroke-width="0.0010" stroke="rgb(0%, 64%, 70%)" stroke-opacity="1.0" fill="rgb(0%, 64%, 70%)" fill-opacity="0.25"><rect width="0.0268" height="0.0306" x="0.0265" y="0.0845"/></g><g stroke-width="0" stroke="rgb(2%, 29%, 48%)" stroke-opacity="1.0" fill="rgb(91%, 47%, 0%)" fill-opacity="1.0"><rect width="0.0268" height="0.0428" x="0.0533" y="0.0724"/></g><g stroke-width="0.0010" stroke="rgb(91%, 47%, 0%)" stroke-opacity="1.0" fill="rgb(91%, 47%, 0%)" fill-opacity="0.25"><rect width="0.0268" height="0.0557" x="0.0801" y="0.0594"/></g><g stroke-width="0" stroke="rgb(2%, 29%, 48%)" stroke-opacity="1.0" fill="rgb(62%, 0%, 31%)" fill-opacity="1.0"><rect width="0.0268" height="0.0563" x="0.1070" y="0.0588"/></g><g stroke-width="0.0010" stroke="rgb(62%, 0%, 31%)" stroke-opacity="1.0" fill="rgb(62%, 0%, 31%)" fill-opacity="0.25"><rect width="0.0268" height="0.0719" x="0.1338" y="0.0432"/></g><g stroke-width="0" stroke="rgb(2%, 29%, 48%)" stroke-opacity="1.0" fill="rgb(17%, 40%, 67%)" fill-opacity="1.0"><rect width="0.0268" height="0.0567" x="0.1606" y="0.0585"/></g><g stroke-width="0.0010" stroke="rgb(17%, 40%, 67%)" stroke-opacity="1.0" fill="rgb(17%, 40%, 67%)" fill-opacity="0.25"><rect width="0.0268" height="0.0709" x="0.1874" y="0.0443"/></g></g><g class="errors"><g stroke-width="0.0015" stroke="rgb(5%, 5%, 5%)" stroke-opacity="1.0" fill="none"><polyline points="-0.4186,0.0935 -0.4132,0.0935"/><polyline points="-0.4159,0.0935 -0.4159,0.0927"/><polyline points="-0.4186,0.0927 -0.4132,0.0927"/></g><g stroke-width="0.0015" stroke="rgb(5%, 5%, 5%)" stroke-opacity="1.0" fill="none"><polyline points="-0.3918,0.0877 -0.3864,0.0877"/><polyline points="-0.3891,0.0877 -0.3891,0.0873"/><polyline points="-0.3918,0.0873 -0.3864,0.0873"/></g><g stroke-width="0.0015" stroke="rgb(5%, 5%, 5%)" stroke-opacity="1.0" fill="none"><polyline points="-0.3650,0.0124 -0.3596,0.0124"/><polyline points="-0.3623,0.0124 -0.3623,0.0111"/><polyline points="-0.3650,0.0111 -0.3596,0.0111"/></g><g stroke-width="0.0015" stroke="rgb(5%, 5%, 5%)" stroke-opacity="1.0" fill="none"><polyline points="-0.3382,-0.0104 -0.3328,-0.0104"/><polyline points="-0.3355,-0.0104 -0.3355,-0.0113"/><polyline points="-0.3382,-0.0113 -0.3328,-0.0113"/></g><g stroke-width="0.0015" stroke="rgb(5%, 5%, 5%)" stroke-opacity="1.0" fill="none"><polyline points="-0.3114,0.0122 -0.3060,0.0122"/><polyline points="-0.3087,0.0122 -0.3087,0.0100"/><polyline points="-0.3114,0.0100 -0.3060,0.0100"/></g><g stroke-width="0.0015" stroke="rgb(5%, 5%, 5%)" stroke-opacity="1.0" fill="none"><polyline points="-0.2845,-0.0100 -0.2792,-0.0100"/><polyline points="-0.2819,-0.0100 -0.2819,-0.0107"/><polyline points="-0.2845,-0.0107 -0.2792,-0.0107"/></g><g stroke-width="0.0015" stroke="rgb(5%, 5%, 5%)" stroke-opacity="1.0" fill="none"><polyline points="-0.2577,0.0840 -0.2524,0.0840"/><polyline points="-0.2550,0.0840 -0.2550,0.0838"/><polyline points="-0.2577,0.0838 -0.2524,0.0838"/></g><g stroke-width="0.0015" stroke="rgb(5%, 5%, 5%)" stroke-opacity="1.0" fill="none"><polyline points="-0.2309,0.0768 -0.2255,0.0768"/><polyline points="-0.2282,0.0768 -0.2282,0.0756"/><polyline points="-0.2309,0.0756 -0.2255,0.0756"/></g><g stroke-width="0.0015" stroke="rgb(5%, 5%, 5%)" stroke-opacity="1.0" fill="none"><polyline points="-0.2041,0.0704 -0.1987,0.0704"/><polyline points="-0.2014,0.0704 -0.2014,0.0700"/><polyline points="-0.2041,0.0700 -0.1987,0.0700"/></g><g stroke-width="0.0015" stroke="rgb(5%, 5%, 5%)" stroke-opacity="1.0" fill="none"><polyline points="-0.1773,0.0556 -0.1719,0.0556"/><polyline points="-0.1746,0.0556 -0.1746,0.0552"/><polyline points="-0.1773,0.0552 -0.1719,0.0552"/></g><g stroke-width="0.0015" stroke="rgb(5%, 5%, 5%)" stroke-opacity="1.0" fill="none"><polyline points="-0.1505,0.0757 -0.1451,0.0757"/><polyline points="-0.1478,0.0757 -0.1478,0.0744"/><polyline points="-0.1505,0.0744 -0.1451,0.0744"/></g><g stroke-width="0.0015" stroke="rgb(5%, 5%, 5%)" stroke-opacity="1.0" fill="none"><polyline points="-0.1236,0.0635 -0.1183,0.0635"/><polyline points="-0.1210,0.0635 -0.1210,0.0634"/><polyline points="-0.1236,0.0634 -0.1183,0.0634"/></g><g stroke-width="0.0015" stroke="rgb(5%, 5%, 5%)" stroke-opacity="1.0" fill="none"><polyline points="-0.0968,-0.1099 -0.0915,-0.1099"/><polyline points="-0.0942,-0.1099 -0.0942,-0.1117"/><polyline points="-0.0968,-0.1117 -0.0915,-0.1117"/></g><g stroke-width="0.0015" stroke="rgb(5%, 5%, 5%)" stroke-opacity="1.0" fill="none"><polyline points="-0.0700,-0.1740 -0.0647,-0.1740"/><polyline points="-0.0673,-0.1740 -0.0673,-0.1773"/><polyline points="-0.0700,-0.1773 -0.0647,-0.1773"/></g><g stroke-width="0.0015" stroke="rgb(5%, 5%, 5%)" stroke-opacity="1.0" fill="none"><polyline points="-0.0432,-0.1101 -0.0378,-0.1101"/><polyline points="-0.0405,-0.1101 -0.0405,-0.1110"/><polyline points="-0.0432,-0.1110 -0.0378,-0.1110"/></g><g stroke-width="0.0015" stroke="rgb(5%, 5%, 5%)" stroke-opacity="1.0" fill="none"><polyline points="-0.0164,-0.1710 -0.0110,-0.1710"/><polyline points="-0.0137,-0.1710 -0.0137,-0.1744"/><polyline points="-0.0164,-0.1744 -0.0110,-0.1744"/></g><g stroke-width="0.0015" stroke="rgb(5%, 5%, 5%)" stroke-opacity="1.0" fill="none"><polyline points="0.0104,0.0922 0.0158,0.0922"/><polyline points="0.0131,0.0922 0.0131,0.0917"/><polyline points="0.0104,0.0917 0.0158,0.0917"/></g><g stroke-width="0.0015" stroke="rgb(5%, 5%, 5%)" stroke-opacity="1.0" fill="none"><polyline points="0.0372,0.0847 0.0426,0.0847"/><polyline points="0.0399,0.0847 0.0399,0.0844"/><polyline points="0.0372,0.0844 0.0426,0.0844"/></g><g stroke-width="0.0015" stroke="rgb(5%, 5%, 5%)" stroke-opacity="1.0" fill="none"><polyline points="0.0641,0.0725 0.0694,0.0725"/><polyline points="0.0667,0.0725 0.0667,0.0723"/><polyline points="0.0641,0.0723 0.0694,0.0723"/></g><g stroke-width="0.0015" stroke="rgb(5%, 5%, 5%)" stroke-opacity="1.0" fill="none"><polyline points="0.0909,0.0597 0.0962,0.0597"/><polyline points="0.0935,0.0597 0.0935,0.0592"/><polyline points="0.0909,0.0592 0.0962,0.0592"/></g><g stroke-width="0.0015" stroke="rgb(5%, 5%, 5%)" stroke-opacity="1.0" fill="none"><polyline points="0.1177,0.0593 0.1230,0.0593"/><polyline points="0.1204,0.0593 0.1204,0.0583"/><polyline points="0.1177,0.0583 0.1230,0.0583"/></g><g stroke-width="0.0015" stroke="rgb(5%, 5%, 5%)" stroke-opacity="1.0" fill="none"><polyline points="0.1445,0.0433 0.1499,0.0433"/><polyline points="0.1472,0.0433 0.1472,0.0432"/><polyline points="0.1445,0.0432 0.1499,0.0432"/></g><g stroke-width="0.0015" stroke="rgb(5%, 5%, 5%)" stroke-opacity="1.0" fill="none"><polyline points="0.1713,0.0590 0.1767,0.0590"/><polyline points="0.1740,0.0590 0.1740,0.0580"/><polyline points="0.1713,0.0580 0.1767,0.0580"/></g><g stroke-width="0.0015" stroke="rgb(5%, 5%, 5%)" stroke-opacity="1.0" fill="none"><polyline points="0.1981,0.0444 0.2035,0.0444"/><polyline points="0.2008,0.0444 0.2008,0.0442"/><polyline points="0.1981,0.0442 0.2035,0.0442"/></g></g></g><g class="hud"><g class="axis"><g class="ticks"><g class="tickglyph"><g stroke-width="0.0040" stroke="rgb(5%, 5%, 5%)" stroke-opacity="0.4" fill="rgb(5%, 5%, 5%)" fill-opacity="0.4"><g transform="rotate(-90.0, -0.4783, 0.1152)"><polyline points="-0.4783,0.1302
-0.4783,0.1002"/></g><g transform="rotate(-90.0, -0.4783, 0.0679)"><polyline points="-0.4783,0.0829
-0.4783,0.0529"/></g><g transform="rotate(-90.0, -0.4783, 0.0207)"><polyline points="-0.4783,0.0357
-0.4783,0.0057"/></g><g transform="rotate(-90.0, -0.4783, -0.0265)"><polyline points="-0.4783,-0.0115
-0.4783,-0.0415"/></g><g transform="rotate(-90.0, -0.4783, -0.0738)"><polyline points="-0.4783,-0.0588
-0.4783,-0.0888"/></g><g transform="rotate(-90.0, -0.4783, -0.1210)"><polyline points="-0.4783,-0.1060
-0.4783,-0.1360"/></g><g transform="rotate(-90.0, -0.4783, -0.1683)"><polyline points="-0.4783,-0.1533
-0.4783,-0.1833"/></g><g transform="rotate(-90.0, -0.4783, -0.2155)"><polyline points="-0.4783,-0.2005
-0.4783,-0.2305"/></g></g></g><g class="ticktext"><g stroke-width="0.0" stroke="none" fill="rgb(5%, 5%, 5%)" fill-opacity="1.0" font-size="0.0221" text-anchor="end"><text x="-0.4943" y="0.1197"> 0</text><text x="-0.4943" y="0.0725"> 2</text><text x="-0.4943" y="0.0252"> 4</text><text x="-0.4943" y="-0.0220"> 6</text><text x="-0.4943" y="-0.0692"> 8</text><text x="-0.4943" y="-0.1165">10</text><text x="-0.4943" y="-0.1637">12</text><text x="-0.4943" y="-0.2110">14</text></g></g><g class="ticklines"><g stroke-width="0.0050" stroke="rgb(5%, 5%, 5%)" stroke-opacity="0.05" fill="none"><polyline points="-0.4651,0.1152 0.2500,0.1152"/><polyline points="-0.4651,0.0679 0.2500,0.0679"/><polyline points="-0.4651,0.0207 0.2500,0.0207"/><polyline points="-0.4651,-0.0265 0.2500,-0.0265"/><polyline points="-0.4651,-0.0738 0.2500,-0.0738"/><polyline points="-0.4651,-0.1210 0.2500,-0.1210"/><polyline points="-0.4651,-0.1683 0.2500,-0.1683"/><polyline points="-0.4651,-0.2155 0.2500,-0.2155"/></g></g></g><g class="axisbar"><g stroke-width="0" stroke="rgb(0%, 0%, 0%)" stroke-opacity="0" fill="rgb(5%, 5%, 5%)" fill-opacity="0.4"><rect width="0.0018" height="0.3320" x="-0.4713" y="-0.2162"/></g></g></g><g class="axis"><g class="ticks"><g class="tickglyph"><g stroke-width="0.0040" stroke="rgb(5%, 5%, 5%)" stroke-opacity="0.4" fill="rgb(5%, 5%, 5%)" fill-opacity="0.4"><polyline points="-0.4159,0.1403
-0.4159,0.1103"/><polyline points="-0.3891,0.1403
-0.3891,0.1103"/><polyline points="-0.3623,0.1403
-0.3623,0.1103"/><polyline points="-0.3355,0.1403
-0.3355,0.1103"/><polyline points="-0.3087,0.1403
-0.3087,0.1103"/><polyline points="-0.2819,0.1403
-0.2819,0.1103"/><polyline points="-0.2550,0.1403
-0.2550,0.1103"/><polyline points="-0.2282,0.1403
-0.2282,0.1103"/><polyline points="-0.2014,0.1403
-0.2014,0.1103"/><polyline points="-0.1746,0.1403
-0.1746,0.1103"/><polyline points="-0.1478,0.1403
-0.1478,0.1103"/><polyline points="-0.1210,0.1403
-0.1210,0.1103"/><polyline points="-0.0942,0.1403
-0.0942,0.1103"/><polyline points="-0.0673,0.1403
-0.0673,0.1103"/><polyline points="-0.0405,0.1403
-0.0405,0.1103"/><polyline points="-0.0137,0.1403
-0.0137,0.1103"/><polyline points="0.0131,0.1403
0.0131,0.1103"/><polyline points="0.0399,0.1403
0.0399,0.1103"/><polyline points="0.0667,0.1403
0.0667,0.1103"/><polyline points="0.0935,0.1403
0.0935,0.1103"/><polyline points="0.1204,0.1403
0.1204,0.1103"/><polyline points="0.1472,0.1403
0.1472,0.1103"/><polyline points="0.1740,0.1403
0.1740,0.1103"/><polyline points="0.2008,0.1403
0.2008,0.1103"/></g></g><g class="ticktext"><g stroke-width="0.0" stroke="none" fill="rgb(5%, 5%, 5%)" fill-opacity="1.0" font-size="0.0221" text-anchor="end"><text x="-0.4159" y="0.1463" transform="rotate(-45.0, -0.4159, 0.1463)">CDCL (adaptive)</text><text x="-0.3891" y="0.1463" transform="rotate(-45.0, -0.3891, 0.1463)">CDCL (adaptive), Baseline</text><text x="-0.3623" y="0.1463" transform="rotate(-45.0, -0.3623, 0.1463)">CDCL (adaptive, mVISDS, ExpRestart(100, 2))</text><text x="-0.3355" y="0.1463" transform="rotate(-45.0, -0.3355, 0.1463)">CDCL (adaptive, mVISDS, ExpRestart(100, 2)), Baseline</text><text x="-0.3087" y="0.1463" transform="rotate(-45.0, -0.3087, 0.1463)">CDCL (adaptive, mVISDS, LubyRestart(100, 2))</text><text x="-0.2819" y="0.1463" transform="rotate(-45.0, -0.2819, 0.1463)">CDCL (adaptive, mVISDS, LubyRestart(100, 2)), Baseline</text><text x="-0.2550" y="0.1463" transform="rotate(-45.0, -0.2550, 0.1463)">CDCL (adaptive, mVSIDS)</text><text x="-0.2282" y="0.1463" transform="rotate(-45.0, -0.2282, 0.1463)">CDCL (adaptive, mVSIDS), Baseline</text><text x="-0.2014" y="0.1463" transform="rotate(-45.0, -0.2014, 0.1463)">CDCL (α = 0.75)</text><text x="-0.1746" y="0.1463" transform="rotate(-45.0, -0.1746, 0.1463)">CDCL (α = 0.75), Baseline</text><text x="-0.1478" y="0.1463" transform="rotate(-45.0, -0.1478, 0.1463)">CDCL (α = 0.75, mVISDS)</text><text x="-0.1210" y="0.1463" transform="rotate(-45.0, -0.1210, 0.1463)">CDCL (α = 0.75, mVISDS), Baseline</text><text x="-0.0942" y="0.1463" transform="rotate(-45.0, -0.0942, 0.1463)">CDCL (α = 0.75, mVISDS, ExpRestart(100, 2))</text><text x="-0.0673" y="0.1463" transform="rotate(-45.0, -0.0673, 0.1463)">CDCL (α = 0.75, mVISDS, ExpRestart(100, 2)), Baseline</text><text x="-0.0405" y="0.1463" transform="rotate(-45.0, -0.0405, 0.1463)">CDCL (α = 0.75, mVISDS, LubyRestart(100, 2))</text><text x="-0.0137" y="0.1463" transform="rotate(-45.0, -0.0137, 0.1463)">CDCL (α = 0.75, mVISDS, LubyRestart(100, 2)), Baseline</text><text x="0.0131" y="0.1463" transform="rotate(-45.0, 0.0131, 0.1463)">CDCL (α = 0.95)</text><text x="0.0399" y="0.1463" transform="rotate(-45.0, 0.0399, 0.1463)">CDCL (α = 0.95), Baseline</text><text x="0.0667" y="0.1463" transform="rotate(-45.0, 0.0667, 0.1463)">CDCL (α = 0.95, mVISDS)</text><text x="0.0935" y="0.1463" transform="rotate(-45.0, 0.0935, 0.1463)">CDCL (α = 0.95, mVISDS), Baseline</text><text x="0.1204" y="0.1463" transform="rotate(-45.0, 0.1204, 0.1463)">CDCL (α = 0.95, mVISDS, ExpRestart(100, 2))</text><text x="0.1472" y="0.1463" transform="rotate(-45.0, 0.1472, 0.1463)">CDCL (α = 0.95, mVISDS, ExpRestart(100, 2)), Baseline</text><text x="0.1740" y="0.1463" transform="rotate(-45.0, 0.1740, 0.1463)">CDCL (α = 0.95, mVISDS, LubyRestart(100, 2))</text><text x="0.2008" y="0.1463" transform="rotate(-45.0, 0.2008, 0.1463)">CDCL (α = 0.95, mVISDS, LubyRestart(100, 2)), Baseline</text></g></g></g><g class="axisbar"><g stroke-width="0" stroke="rgb(0%, 0%, 0%)" stroke-opacity="0" fill="rgb(5%, 5%, 5%)" fill-opacity="0.4"><rect width="0.7168" height="0.0013" x="-0.4660" y="0.1186"/></g></g></g><g class="title"><g stroke-width="0.0" stroke="none" fill="rgb(5%, 5%, 5%)" fill-opacity="1.0" font-size="0.0530" text-anchor="middle"><text x="-0.2348" y="-0.2493">Time: SATLIB/flat200-479/flat200-10/cnf</text></g></g><g class="legend"><g class="legendBorder"><g stroke-width="0.0017" stroke="rgb(5%, 5%, 5%)" stroke-opacity="1.0" fill="rgb(5%, 5%, 5%)" fill-opacity="0"><rect width="0.3924" height="0.5624" x="0.3266" y="-0.4327"/></g></g><g class="legendContent"><g stroke-width="0.0" stroke="none" fill="rgb(5%, 5%, 5%)" fill-opacity="1.0" font-size="0.0139" text-anchor="start"><text x="0.3344" y="0.1178">CDCL (α = 0.95, mVISDS, LubyRestart(100, 2)), Baseline</text></g><g stroke-width="0.0002" stroke="rgb(17%, 40%, 67%)" stroke-opacity="1.0" fill="rgb(17%, 40%, 67%)" fill-opacity="0.25"><rect width="0.0232" height="0.0174" x="0.6881" y="0.1065"/></g><g stroke-width="0.0" stroke="none" fill="rgb(5%, 5%, 5%)" fill-opacity="1.0" font-size="0.0139" text-anchor="start"><text x="0.3344" y="0.0946">CDCL (α = 0.95, mVISDS, LubyRestart(100, 2))</text></g><g stroke-width="0" stroke="rgb(2%, 29%, 48%)" stroke-opacity="1.0" fill="rgb(17%, 40%, 67%)" fill-opacity="1.0"><rect width="0.0232" height="0.0174" x="0.6881" y="0.0833"/></g><g stroke-width="0.0" stroke="none" fill="rgb(5%, 5%, 5%)" fill-opacity="1.0" font-size="0.0139" text-anchor="start"><text x="0.3344" y="0.0714">CDCL (α = 0.95, mVISDS, ExpRestart(100, 2)), Baseline</text></g><g stroke-width="0.0002" stroke="rgb(62%, 0%, 31%)" stroke-opacity="1.0" fill="rgb(62%, 0%, 31%)" fill-opacity="0.25"><rect width="0.0232" height="0.0174" x="0.6881" y="0.0601"/></g><g stroke-width="0.0" stroke="none" fill="rgb(5%, 5%, 5%)" fill-opacity="1.0" font-size="0.0139" text-anchor="start"><text x="0.3344" y="0.0482">CDCL (α = 0.95, mVISDS, ExpRestart(100, 2))</text></g><g stroke-width="0" stroke="rgb(2%, 29%, 48%)" stroke-opacity="1.0" fill="rgb(62%, 0%, 31%)" fill-opacity="1.0"><rect width="0.0232" height="0.0174" x="0.6881" y="0.0369"/></g><g stroke-width="0.0" stroke="none" fill="rgb(5%, 5%, 5%)" fill-opacity="1.0" font-size="0.0139" text-anchor="start"><text x="0.3344" y="0.0250">CDCL (α = 0.95, mVISDS), Baseline</text></g><g stroke-width="0.0002" stroke="rgb(91%, 47%, 0%)" stroke-opacity="1.0" fill="rgb(91%, 47%, 0%)" fill-opacity="0.25"><rect width="0.0232" height="0.0174" x="0.6881" y="0.0137"/></g><g stroke-width="0.0" stroke="none" fill="rgb(5%, 5%, 5%)" fill-opacity="1.0" font-size="0.0139" text-anchor="start"><text x="0.3344" y="0.0018">CDCL (α = 0.95, mVISDS)</text></g><g stroke-width="0" stroke="rgb(2%, 29%, 48%)" stroke-opacity="1.0" fill="rgb(91%, 47%, 0%)" fill-opacity="1.0"><rect width="0.0232" height="0.0174" x="0.6881" y="-0.0095"/></g><g stroke-width="0.0" stroke="none" fill="rgb(5%, 5%, 5%)" fill-opacity="1.0" font-size="0.0139" text-anchor="start"><text x="0.3344" y="-0.0214">CDCL (α = 0.95), Baseline</text></g><g stroke-width="0.0002" stroke="rgb(0%, 64%, 70%)" stroke-opacity="1.0" fill="rgb(0%, 64%, 70%)" fill-opacity="0.25"><rect width="0.0232" height="0.0174" x="0.6881" y="-0.0327"/></g><g stroke-width="0.0" stroke="none" fill="rgb(5%, 5%, 5%)" fill-opacity="1.0" font-size="0.0139" text-anchor="start"><text x="0.3344" y="-0.0446">CDCL (α = 0.95)</text></g><g stroke-width="0" stroke="rgb(2%, 29%, 48%)" stroke-opacity="1.0" fill="rgb(0%, 64%, 70%)" fill-opacity="1.0"><rect width="0.0232" height="0.0174" x="0.6881" y="-0.0559"/></g><g stroke-width="0.0" stroke="none" fill="rgb(5%, 5%, 5%)" fill-opacity="1.0" font-size="0.0139" text-anchor="start"><text x="0.3344" y="-0.0678">CDCL (α = 0.75, mVISDS, LubyRestart(100, 2)), Baseline</text></g><g stroke-width="0.0002" stroke="rgb(91%, 19%, 0%)" stroke-opacity="1.0" fill="rgb(91%, 19%, 0%)" fill-opacity="0.25"><rect width="0.0232" height="0.0174" x="0.6881" y="-0.0790"/></g><g stroke-width="0.0" stroke="none" fill="rgb(5%, 5%, 5%)" fill-opacity="1.0" font-size="0.0139" text-anchor="start"><text x="0.3344" y="-0.0910">CDCL (α = 0.75, mVISDS, LubyRestart(100, 2))</text></g><g stroke-width="0" stroke="rgb(2%, 29%, 48%)" stroke-opacity="1.0" fill="rgb(91%, 19%, 0%)" fill-opacity="1.0"><rect width="0.0232" height="0.0174" x="0.6881" y="-0.1022"/></g><g stroke-width="0.0" stroke="none" fill="rgb(5%, 5%, 5%)" fill-opacity="1.0" font-size="0.0139" text-anchor="start"><text x="0.3344" y="-0.1141">CDCL (α = 0.75, mVISDS, ExpRestart(100, 2)), Baseline</text></g><g stroke-width="0.0002" stroke="rgb(38%, 23%, 0%)" stroke-opacity="1.0" fill="rgb(38%, 23%, 0%)" fill-opacity="0.25"><rect width="0.0232" height="0.0174" x="0.6881" y="-0.1254"/></g><g stroke-width="0.0" stroke="none" fill="rgb(5%, 5%, 5%)" fill-opacity="1.0" font-size="0.0139" text-anchor="start"><text x="0.3344" y="-0.1373">CDCL (α = 0.75, mVISDS, ExpRestart(100, 2))</text></g><g stroke-width="0" stroke="rgb(2%, 29%, 48%)" stroke-opacity="1.0" fill="rgb(38%, 23%, 0%)" fill-opacity="1.0"><rect width="0.0232" height="0.0174" x="0.6881" y="-0.1486"/></g><g stroke-width="0.0" stroke="none" fill="rgb(5%, 5%, 5%)" fill-opacity="1.0" font-size="0.0139" text-anchor="start"><text x="0.3344" y="-0.1605">CDCL (α = 0.75, mVISDS), Baseline</text></g><g stroke-width="0.0002" stroke="rgb(90%, 37%, 58%)" stroke-opacity="1.0" fill="rgb(90%, 37%, 58%)" fill-opacity="0.25"><rect width="0.0232" height="0.0174" x="0.6881" y="-0.1718"/></g><g stroke-width="0.0" stroke="none" fill="rgb(5%, 5%, 5%)" fill-opacity="1.0" font-size="0.0139" text-anchor="start"><text x="0.3344" y="-0.1837">CDCL (α = 0.75, mVISDS)</text></g><g stroke-width="0" stroke="rgb(2%, 29%, 48%)" stroke-opacity="1.0" fill="rgb(90%, 37%, 58%)" fill-opacity="1.0"><rect width="0.0232" height="0.0174" x="0.6881" y="-0.1950"/></g><g stroke-width="0.0" stroke="none" fill="rgb(5%, 5%, 5%)" fill-opacity="1.0" font-size="0.0139" text-anchor="start"><text x="0.3344" y="-0.2069">CDCL (α = 0.75), Baseline</text></g><g stroke-width="0.0002" stroke="rgb(0%, 72%, 98%)" stroke-opacity="1.0" fill="rgb(0%, 72%, 98%)" fill-opacity="0.25"><rect width="0.0232" height="0.0174" x="0.6881" y="-0.2182"/></g><g stroke-width="0.0" stroke="none" fill="rgb(5%, 5%, 5%)" fill-opacity="1.0" font-size="0.0139" text-anchor="start"><text x="0.3344" y="-0.2301">CDCL (α = 0.75)</text></g><g stroke-width="0" stroke="rgb(2%, 29%, 48%)" stroke-opacity="1.0" fill="rgb(0%, 72%, 98%)" fill-opacity="1.0"><rect width="0.0232" height="0.0174" x="0.6881" y="-0.2414"/></g><g stroke-width="0.0" stroke="none" fill="rgb(5%, 5%, 5%)" fill-opacity="1.0" font-size="0.0139" text-anchor="start"><text x="0.3344" y="-0.2533">CDCL (adaptive, mVSIDS), Baseline</text></g><g stroke-width="0.0002" stroke="rgb(1%, 28%, 43%)" stroke-opacity="1.0" fill="rgb(1%, 28%, 43%)" fill-opacity="0.25"><rect width="0.0232" height="0.0174" x="0.6881" y="-0.2646"/></g><g stroke-width="0.0" stroke="none" fill="rgb(5%, 5%, 5%)" fill-opacity="1.0" font-size="0.0139" text-anchor="start"><text x="0.3344" y="-0.2765">CDCL (adaptive, mVSIDS)</text></g><g stroke-width="0" stroke="rgb(2%, 29%, 48%)" stroke-opacity="1.0" fill="rgb(1%, 28%, 43%)" fill-opacity="1.0"><rect width="0.0232" height="0.0174" x="0.6881" y="-0.2878"/></g><g stroke-width="0.0" stroke="none" fill="rgb(5%, 5%, 5%)" fill-opacity="1.0" font-size="0.0139" text-anchor="start"><text x="0.3344" y="-0.2997">CDCL (adaptive, mVISDS, LubyRestart(100, 2)), Baseline</text></g><g stroke-width="0.0002" stroke="rgb(26%, 54%, 57%)" stroke-opacity="1.0" fill="rgb(26%, 54%, 57%)" fill-opacity="0.25"><rect width="0.0232" height="0.0174" x="0.6881" y="-0.3109"/></g><g stroke-width="0.0" stroke="none" fill="rgb(5%, 5%, 5%)" fill-opacity="1.0" font-size="0.0139" text-anchor="start"><text x="0.3344" y="-0.3229">CDCL (adaptive, mVISDS, LubyRestart(100, 2))</text></g><g stroke-width="0" stroke="rgb(2%, 29%, 48%)" stroke-opacity="1.0" fill="rgb(26%, 54%, 57%)" fill-opacity="1.0"><rect width="0.0232" height="0.0174" x="0.6881" y="-0.3342"/></g><g stroke-width="0.0" stroke="none" fill="rgb(5%, 5%, 5%)" fill-opacity="1.0" font-size="0.0139" text-anchor="start"><text x="0.3344" y="-0.3460">CDCL (adaptive, mVISDS, ExpRestart(100, 2)), Baseline</text></g><g stroke-width="0.0002" stroke="rgb(0%, 25%, 37%)" stroke-opacity="1.0" fill="rgb(0%, 25%, 37%)" fill-opacity="0.25"><rect width="0.0232" height="0.0174" x="0.6881" y="-0.3573"/></g><g stroke-width="0.0" stroke="none" fill="rgb(5%, 5%, 5%)" fill-opacity="1.0" font-size="0.0139" text-anchor="start"><text x="0.3344" y="-0.3693">CDCL (adaptive, mVISDS, ExpRestart(100, 2))</text></g><g stroke-width="0" stroke="rgb(2%, 29%, 48%)" stroke-opacity="1.0" fill="rgb(0%, 25%, 37%)" fill-opacity="1.0"><rect width="0.0232" height="0.0174" x="0.6881" y="-0.3805"/></g><g stroke-width="0.0" stroke="none" fill="rgb(5%, 5%, 5%)" fill-opacity="1.0" font-size="0.0139" text-anchor="start"><text x="0.3344" y="-0.3924">CDCL (adaptive), Baseline</text></g><g stroke-width="0.0002" stroke="rgb(0%, 30%, 12%)" stroke-opacity="1.0" fill="rgb(0%, 30%, 12%)" fill-opacity="0.25"><rect width="0.0232" height="0.0174" x="0.6881" y="-0.4037"/></g><g stroke-width="0.0" stroke="none" fill="rgb(5%, 5%, 5%)" fill-opacity="1.0" font-size="0.0139" text-anchor="start"><text x="0.3344" y="-0.4156">CDCL (adaptive)</text></g><g stroke-width="0" stroke="rgb(2%, 29%, 48%)" stroke-opacity="1.0" fill="rgb(0%, 30%, 12%)" fill-opacity="1.0"><rect width="0.0232" height="0.0174" x="0.6881" y="-0.4269"/></g></g></g><g class="frame"><g stroke-width="0" stroke="rgb(0%, 0%, 0%)" stroke-opacity="0" fill="rgb(100%, 100%, 100%)" fill-opacity="0.02"><rect width="1.6180" height="1.0" x="-0.8090" y="-0.5"/></g></g><g class="title"><g stroke-width="0.0" stroke="none" fill="rgb(5%, 5%, 5%)" fill-opacity="1.0" font-size="0.0265" text-anchor="middle"><text x="-0.7463" y="0" transform="rotate(-90.0, -0.7463, 0)">Time [s]</text></g></g></g></svg>