<svg xmlns="http://www.w3.org/2000/svg" xmlns:xlink="http://www.w3.org/1999/xlink" width="534" height="300" viewBox="-1.4510 -0.5 2.6640 1.4947"><style>svg {color-scheme: light dark;} {.canvas g, .title g, .axisbar g, .ticktext g, .tickglyph g, .ticklines g, .legendContent g text {fill: rgb(5%, 5%, 5%);} .ticklines g, .tickglyph g, .legendBorder g {stroke: rgb(5%, 5%, 5%);} .legendBorder g {fill: rgb(94%, 94%, 94%);}} @media (prefers-color-scheme:dark) {.canvas g, .title g, .axisbar g, .ticktext g, .tickglyph g, .ticklines g, .legendContent g text {fill: rgb(94%, 94%, 94%);} .ticklines g, .tickglyph g, .legendBorder g {stroke: rgb(94%, 94%, 94%);} .legendBorder g {fill: rgb(5%, 5%, 5%);}}
svg { font-family: system-ui,-apple-system,"Segoe UI",Roboto,"Helvetica Neue",Arial,"Noto Sans","Liberation Sans",sans-serif,"Apple Color Emoji","Segoe UI Emoji","Segoe UI Symbol","Noto Color Emoji";
}

ticktext { font-family: SFMono-Regular,Menlo,Monaco,Consolas,"Liberation Mono","Courier New",monospace;}</style><g class="chart"><g class="barchart"><g stroke-width="0" stroke="rgb(2%, 29%, 48%)" stroke-opacity="1.0" fill="rgb(0%, 68%, 84%)" fill-opacity="1.0"><rect width="0.0303" height="0.2617" x="-0.3292" y="-0.2563"/></g><g stroke-width="0.0010" stroke="rgb(0%, 68%, 84%)" stroke-opacity="1.0" fill="rgb(0%, 68%, 84%)" fill-opacity="0.25"><rect width="0.0303" height="0.2482" x="-0.2989" y="-0.2428"/></g><g stroke-width="0" stroke="rgb(2%, 29%, 48%)" stroke-opacity="1.0" fill="rgb(31%, 35%, 20%)" fill-opacity="1.0"><rect width="0.0303" height="0.1567" x="-0.2685" y="-0.1513"/></g><g stroke-width="0.0010" stroke="rgb(31%, 35%, 20%)" stroke-opacity="1.0" fill="rgb(31%, 35%, 20%)" fill-opacity="0.25"><rect width="0.0303" height="0.1486" x="-0.2382" y="-0.1432"/></g><g stroke-width="0" stroke="rgb(2%, 29%, 48%)" stroke-opacity="1.0" fill="rgb(82%, 47%, 0%)" fill-opacity="1.0"><rect width="0.0303" height="0.1594" x="-0.2078" y="-0.1540"/></g><g stroke-width="0.0010" stroke="rgb(82%, 47%, 0%)" stroke-opacity="1.0" fill="rgb(82%, 47%, 0%)" fill-opacity="0.25"><rect width="0.0303" height="0.1499" x="-0.1775" y="-0.1445"/></g><g stroke-width="0" stroke="rgb(2%, 29%, 48%)" stroke-opacity="1.0" fill="rgb(58%, 33%, 58%)" fill-opacity="1.0"><rect width="0.0303" height="0.1540" x="-0.1471" y="-0.1486"/></g><g stroke-width="0.0010" stroke="rgb(58%, 33%, 58%)" stroke-opacity="1.0" fill="rgb(58%, 33%, 58%)" fill-opacity="0.25"><rect width="0.0303" height="0.1486" x="-0.1168" y="-0.1432"/></g><g stroke-width="0" stroke="rgb(2%, 29%, 48%)" stroke-opacity="1.0" fill="rgb(69%, 48%, 50%)" fill-opacity="1.0"><rect width="0.0303" height="0.2527" x="-0.0865" y="-0.2473"/></g><g stroke-width="0.0010" stroke="rgb(69%, 48%, 50%)" stroke-opacity="1.0" fill="rgb(69%, 48%, 50%)" fill-opacity="0.25"><rect width="0.0303" height="0.2381" x="-0.0561" y="-0.2327"/></g><g stroke-width="0" stroke="rgb(2%, 29%, 48%)" stroke-opacity="1.0" fill="rgb(44%, 21%, 47%)" fill-opacity="1.0"><rect width="0.0303" height="0.1950" x="-0.0258" y="-0.1896"/></g><g stroke-width="0.0010" stroke="rgb(44%, 21%, 47%)" stroke-opacity="1.0" fill="rgb(44%, 21%, 47%)" fill-opacity="0.25"><rect width="0.0303" height="0.1947" x="0.0046" y="-0.1893"/></g><g stroke-width="0" stroke="rgb(2%, 29%, 48%)" stroke-opacity="1.0" fill="rgb(22%, 70%, 43%)" fill-opacity="1.0"><rect width="0.0303" height="0.1990" x="0.0349" y="-0.1936"/></g><g stroke-width="0.0010" stroke="rgb(22%, 70%, 43%)" stroke-opacity="1.0" fill="rgb(22%, 70%, 43%)" fill-opacity="0.25"><rect width="0.0303" height="0.1916" x="0.0653" y="-0.1862"/></g><g stroke-width="0" stroke="rgb(2%, 29%, 48%)" stroke-opacity="1.0" fill="rgb(13%, 40%, 0%)" fill-opacity="1.0"><rect width="0.0303" height="0.1980" x="0.0956" y="-0.1926"/></g><g stroke-width="0.0010" stroke="rgb(13%, 40%, 0%)" stroke-opacity="1.0" fill="rgb(13%, 40%, 0%)" fill-opacity="0.25"><rect width="0.0303" height="0.1936" x="0.1260" y="-0.1882"/></g><g stroke-width="0" stroke="rgb(2%, 29%, 48%)" stroke-opacity="1.0" fill="rgb(24%, 31%, 12%)" fill-opacity="1.0"><rect width="0.0303" height="0.2732" x="0.1563" y="-0.2678"/></g><g stroke-width="0.0010" stroke="rgb(24%, 31%, 12%)" stroke-opacity="1.0" fill="rgb(24%, 31%, 12%)" fill-opacity="0.25"><rect width="0.0303" height="0.2654" x="0.1867" y="-0.2600"/></g><g stroke-width="0" stroke="rgb(2%, 29%, 48%)" stroke-opacity="1.0" fill="rgb(73%, 50%, 48%)" fill-opacity="1.0"><rect width="0.0303" height="0.1523" x="0.2170" y="-0.1469"/></g><g stroke-width="0.0010" stroke="rgb(73%, 50%, 48%)" stroke-opacity="1.0" fill="rgb(73%, 50%, 48%)" fill-opacity="0.25"><rect width="0.0303" height="0.1432" x="0.2474" y="-0.1378"/></g><g stroke-width="0" stroke="rgb(2%, 29%, 48%)" stroke-opacity="1.0" fill="rgb(46%, 11%, 0%)" fill-opacity="1.0"><rect width="0.0303" height="0.1529" x="0.2777" y="-0.1475"/></g><g stroke-width="0.0010" stroke="rgb(46%, 11%, 0%)" stroke-opacity="1.0" fill="rgb(46%, 11%, 0%)" fill-opacity="0.25"><rect width="0.0303" height="0.1434" x="0.3081" y="-0.1380"/></g><g stroke-width="0" stroke="rgb(2%, 29%, 48%)" stroke-opacity="1.0" fill="rgb(39%, 42%, 73%)" fill-opacity="1.0"><rect width="0.0303" height="0.1532" x="0.3384" y="-0.1478"/></g><g stroke-width="0.0010" stroke="rgb(39%, 42%, 73%)" stroke-opacity="1.0" fill="rgb(39%, 42%, 73%)" fill-opacity="0.25"><rect width="0.0303" height="0.1452" x="0.3688" y="-0.1398"/></g></g><g class="errors"><g stroke-width="0.0015" stroke="rgb(5%, 5%, 5%)" stroke-opacity="1.0" fill="none"><polyline points="-0.3171,-0.1782 -0.3110,-0.1782"/><polyline points="-0.3141,-0.1782 -0.3141,-0.3344"/><polyline points="-0.3171,-0.3344 -0.3110,-0.3344"/></g><g stroke-width="0.0015" stroke="rgb(5%, 5%, 5%)" stroke-opacity="1.0" fill="none"><polyline points="-0.2868,-0.1777 -0.2807,-0.1777"/><polyline points="-0.2837,-0.1777 -0.2837,-0.3079"/><polyline points="-0.2868,-0.3079 -0.2807,-0.3079"/></g><g stroke-width="0.0015" stroke="rgb(5%, 5%, 5%)" stroke-opacity="1.0" fill="none"><polyline points="-0.2564,-0.1039 -0.2503,-0.1039"/><polyline points="-0.2534,-0.1039 -0.2534,-0.1988"/><polyline points="-0.2564,-0.1988 -0.2503,-0.1988"/></g><g stroke-width="0.0015" stroke="rgb(5%, 5%, 5%)" stroke-opacity="1.0" fill="none"><polyline points="-0.2261,-0.1159 -0.2200,-0.1159"/><polyline points="-0.2230,-0.1159 -0.2230,-0.1705"/><polyline points="-0.2261,-0.1705 -0.2200,-0.1705"/></g><g stroke-width="0.0015" stroke="rgb(5%, 5%, 5%)" stroke-opacity="1.0" fill="none"><polyline points="-0.1957,-0.1065 -0.1896,-0.1065"/><polyline points="-0.1927,-0.1065 -0.1927,-0.2014"/><polyline points="-0.1957,-0.2014 -0.1896,-0.2014"/></g><g stroke-width="0.0015" stroke="rgb(5%, 5%, 5%)" stroke-opacity="1.0" fill="none"><polyline points="-0.1654,-0.1188 -0.1593,-0.1188"/><polyline points="-0.1623,-0.1188 -0.1623,-0.1703"/><polyline points="-0.1654,-0.1703 -0.1593,-0.1703"/></g><g stroke-width="0.0015" stroke="rgb(5%, 5%, 5%)" stroke-opacity="1.0" fill="none"><polyline points="-0.1350,-0.0938 -0.1289,-0.0938"/><polyline points="-0.1320,-0.0938 -0.1320,-0.2034"/><polyline points="-0.1350,-0.2034 -0.1289,-0.2034"/></g><g stroke-width="0.0015" stroke="rgb(5%, 5%, 5%)" stroke-opacity="1.0" fill="none"><polyline points="-0.1047,-0.1152 -0.0986,-0.1152"/><polyline points="-0.1016,-0.1152 -0.1016,-0.1713"/><polyline points="-0.1047,-0.1713 -0.0986,-0.1713"/></g><g stroke-width="0.0015" stroke="rgb(5%, 5%, 5%)" stroke-opacity="1.0" fill="none"><polyline points="-0.0743,-0.1825 -0.0682,-0.1825"/><polyline points="-0.0713,-0.1825 -0.0713,-0.3121"/><polyline points="-0.0743,-0.3121 -0.0682,-0.3121"/></g><g stroke-width="0.0015" stroke="rgb(5%, 5%, 5%)" stroke-opacity="1.0" fill="none"><polyline points="-0.0440,-0.1819 -0.0379,-0.1819"/><polyline points="-0.0409,-0.1819 -0.0409,-0.2836"/><polyline points="-0.0440,-0.2836 -0.0379,-0.2836"/></g><g stroke-width="0.0015" stroke="rgb(5%, 5%, 5%)" stroke-opacity="1.0" fill="none"><polyline points="-0.0136,-0.1229 -0.0075,-0.1229"/><polyline points="-0.0106,-0.1229 -0.0106,-0.2563"/><polyline points="-0.0136,-0.2563 -0.0075,-0.2563"/></g><g stroke-width="0.0015" stroke="rgb(5%, 5%, 5%)" stroke-opacity="1.0" fill="none"><polyline points="0.0167,-0.1662 0.0228,-0.1662"/><polyline points="0.0198,-0.1662 0.0198,-0.2125"/><polyline points="0.0167,-0.2125 0.0228,-0.2125"/></g><g stroke-width="0.0015" stroke="rgb(5%, 5%, 5%)" stroke-opacity="1.0" fill="none"><polyline points="0.0471,-0.1484 0.0532,-0.1484"/><polyline points="0.0501,-0.1484 0.0501,-0.2388"/><polyline points="0.0471,-0.2388 0.0532,-0.2388"/></g><g stroke-width="0.0015" stroke="rgb(5%, 5%, 5%)" stroke-opacity="1.0" fill="none"><polyline points="0.0774,-0.1489 0.0835,-0.1489"/><polyline points="0.0805,-0.1489 0.0805,-0.2235"/><polyline points="0.0774,-0.2235 0.0835,-0.2235"/></g><g stroke-width="0.0015" stroke="rgb(5%, 5%, 5%)" stroke-opacity="1.0" fill="none"><polyline points="0.1078,-0.1636 0.1139,-0.1636"/><polyline points="0.1108,-0.1636 0.1108,-0.2216"/><polyline points="0.1078,-0.2216 0.1139,-0.2216"/></g><g stroke-width="0.0015" stroke="rgb(5%, 5%, 5%)" stroke-opacity="1.0" fill="none"><polyline points="0.1381,-0.1441 0.1442,-0.1441"/><polyline points="0.1412,-0.1441 0.1412,-0.2323"/><polyline points="0.1381,-0.2323 0.1442,-0.2323"/></g><g stroke-width="0.0015" stroke="rgb(5%, 5%, 5%)" stroke-opacity="1.0" fill="none"><polyline points="0.1685,-0.1967 0.1745,-0.1967"/><polyline points="0.1715,-0.1967 0.1715,-0.3389"/><polyline points="0.1685,-0.3389 0.1745,-0.3389"/></g><g stroke-width="0.0015" stroke="rgb(5%, 5%, 5%)" stroke-opacity="1.0" fill="none"><polyline points="0.1988,-0.1982 0.2049,-0.1982"/><polyline points="0.2019,-0.1982 0.2019,-0.3219"/><polyline points="0.1988,-0.3219 0.2049,-0.3219"/></g><g stroke-width="0.0015" stroke="rgb(5%, 5%, 5%)" stroke-opacity="1.0" fill="none"><polyline points="0.2292,-0.1224 0.2352,-0.1224"/><polyline points="0.2322,-0.1224 0.2322,-0.1714"/><polyline points="0.2292,-0.1714 0.2352,-0.1714"/></g><g stroke-width="0.0015" stroke="rgb(5%, 5%, 5%)" stroke-opacity="1.0" fill="none"><polyline points="0.2595,-0.1097 0.2656,-0.1097"/><polyline points="0.2626,-0.1097 0.2626,-0.1659"/><polyline points="0.2595,-0.1659 0.2656,-0.1659"/></g><g stroke-width="0.0015" stroke="rgb(5%, 5%, 5%)" stroke-opacity="1.0" fill="none"><polyline points="0.2899,-0.1199 0.2959,-0.1199"/><polyline points="0.2929,-0.1199 0.2929,-0.1751"/><polyline points="0.2899,-0.1751 0.2959,-0.1751"/></g><g stroke-width="0.0015" stroke="rgb(5%, 5%, 5%)" stroke-opacity="1.0" fill="none"><polyline points="0.3202,-0.1113 0.3263,-0.1113"/><polyline points="0.3233,-0.1113 0.3233,-0.1647"/><polyline points="0.3202,-0.1647 0.3263,-0.1647"/></g><g stroke-width="0.0015" stroke="rgb(5%, 5%, 5%)" stroke-opacity="1.0" fill="none"><polyline points="0.3506,-0.0971 0.3566,-0.0971"/><polyline points="0.3536,-0.0971 0.3536,-0.1985"/><polyline points="0.3506,-0.1985 0.3566,-0.1985"/></g><g stroke-width="0.0015" stroke="rgb(5%, 5%, 5%)" stroke-opacity="1.0" fill="none"><polyline points="0.3809,-0.1163 0.3870,-0.1163"/><polyline points="0.3840,-0.1163 0.3840,-0.1632"/><polyline points="0.3809,-0.1632 0.3870,-0.1632"/></g></g><g class="datapadding"></g></g><g class="hud"><g class="axis"><g class="axisbar"><g stroke-width="0" stroke="rgb(0%, 0%, 0%)" stroke-opacity="0" fill="rgb(5%, 5%, 5%)" fill-opacity="0.4"><rect width="0.7302" height="0.0015" x="-0.3301" y="0.0365"/></g></g><g class="ticks"><g class="tickglyph"><g stroke-width="0.0015" stroke="rgb(5%, 5%, 5%)" stroke-opacity="0.4" fill="rgb(5%, 5%, 5%)" fill-opacity="0.4"><polyline points="-0.3141,0.0488
-0.3141,0.0373"/><polyline points="-0.2837,0.0488
-0.2837,0.0373"/><polyline points="-0.2534,0.0488
-0.2534,0.0373"/><polyline points="-0.2230,0.0488
-0.2230,0.0373"/><polyline points="-0.1927,0.0488
-0.1927,0.0373"/><polyline points="-0.1623,0.0488
-0.1623,0.0373"/><polyline points="-0.1320,0.0488
-0.1320,0.0373"/><polyline points="-0.1016,0.0488
-0.1016,0.0373"/><polyline points="-0.0713,0.0488
-0.0713,0.0373"/><polyline points="-0.0409,0.0488
-0.0409,0.0373"/><polyline points="-0.0106,0.0488
-0.0106,0.0373"/><polyline points="0.0198,0.0488
0.0198,0.0373"/><polyline points="0.0501,0.0488
0.0501,0.0373"/><polyline points="0.0805,0.0488
0.0805,0.0373"/><polyline points="0.1108,0.0488
0.1108,0.0373"/><polyline points="0.1412,0.0488
0.1412,0.0373"/><polyline points="0.1715,0.0488
0.1715,0.0373"/><polyline points="0.2019,0.0488
0.2019,0.0373"/><polyline points="0.2322,0.0488
0.2322,0.0373"/><polyline points="0.2626,0.0488
0.2626,0.0373"/><polyline points="0.2929,0.0488
0.2929,0.0373"/><polyline points="0.3233,0.0488
0.3233,0.0373"/><polyline points="0.3536,0.0488
0.3536,0.0373"/><polyline points="0.3840,0.0488
0.3840,0.0373"/></g></g><g class="ticktext"><g stroke-width="0.0" stroke="none" fill="rgb(5%, 5%, 5%)" fill-opacity="1.0" font-size="0.0400" text-anchor="end"><text x="-0.3141" y="0.0698" transform="rotate(-45.0, -0.3141, 0.0698)">CDCL (adaptive)</text><text x="-0.2837" y="0.0698" transform="rotate(-45.0, -0.2837, 0.0698)">CDCL (adaptive), Baseline</text><text x="-0.2534" y="0.0698" transform="rotate(-45.0, -0.2534, 0.0698)">CDCL (adaptive, mVISDS, ExpRestart(100, 2))</text><text x="-0.2230" y="0.0698" transform="rotate(-45.0, -0.2230, 0.0698)">CDCL (adaptive, mVISDS, ExpRestart(100, 2)), Baseline</text><text x="-0.1927" y="0.0698" transform="rotate(-45.0, -0.1927, 0.0698)">CDCL (adaptive, mVISDS, LubyRestart(100, 2))</text><text x="-0.1623" y="0.0698" transform="rotate(-45.0, -0.1623, 0.0698)">CDCL (adaptive, mVISDS, LubyRestart(100, 2)), Baseline</text><text x="-0.1320" y="0.0698" transform="rotate(-45.0, -0.1320, 0.0698)">CDCL (adaptive, mVSIDS)</text><text x="-0.1016" y="0.0698" transform="rotate(-45.0, -0.1016, 0.0698)">CDCL (adaptive, mVSIDS), Baseline</text><text x="-0.0713" y="0.0698" transform="rotate(-45.0, -0.0713, 0.0698)">CDCL (α = 0.75)</text><text x="-0.0409" y="0.0698" transform="rotate(-45.0, -0.0409, 0.0698)">CDCL (α = 0.75), Baseline</text><text x="-0.0106" y="0.0698" transform="rotate(-45.0, -0.0106, 0.0698)">CDCL (α = 0.75, mVISDS)</text><text x="0.0198" y="0.0698" transform="rotate(-45.0, 0.0198, 0.0698)">CDCL (α = 0.75, mVISDS), Baseline</text><text x="0.0501" y="0.0698" transform="rotate(-45.0, 0.0501, 0.0698)">CDCL (α = 0.75, mVISDS, ExpRestart(100, 2))</text><text x="0.0805" y="0.0698" transform="rotate(-45.0, 0.0805, 0.0698)">CDCL (α = 0.75, mVISDS, ExpRestart(100, 2)), Baseline</text><text x="0.1108" y="0.0698" transform="rotate(-45.0, 0.1108, 0.0698)">CDCL (α = 0.75, mVISDS, LubyRestart(100, 2))</text><text x="0.1412" y="0.0698" transform="rotate(-45.0, 0.1412, 0.0698)">CDCL (α = 0.75, mVISDS, LubyRestart(100, 2)), Baseline</text><text x="0.1715" y="0.0698" transform="rotate(-45.0, 0.1715, 0.0698)">CDCL (α = 0.95)</text><text x="0.2019" y="0.0698" transform="rotate(-45.0, 0.2019, 0.0698)">CDCL (α = 0.95), Baseline</text><text x="0.2322" y="0.0698" transform="rotate(-45.0, 0.2322, 0.0698)">CDCL (α = 0.95, mVISDS)</text><text x="0.2626" y="0.0698" transform="rotate(-45.0, 0.2626, 0.0698)">CDCL (α = 0.95, mVISDS), Baseline</text><text x="0.2929" y="0.0698" transform="rotate(-45.0, 0.2929, 0.0698)">CDCL (α = 0.95, mVISDS, ExpRestart(100, 2))</text><text x="0.3233" y="0.0698" transform="rotate(-45.0, 0.3233, 0.0698)">CDCL (α = 0.95, mVISDS, ExpRestart(100, 2)), Baseline</text><text x="0.3536" y="0.0698" transform="rotate(-45.0, 0.3536, 0.0698)">CDCL (α = 0.95, mVISDS, LubyRestart(100, 2))</text><text x="0.3840" y="0.0698" transform="rotate(-45.0, 0.3840, 0.0698)">CDCL (α = 0.95, mVISDS, LubyRestart(100, 2)), Baseline</text></g></g></g></g><g class="axis"><g class="axisbar"><g stroke-width="0" stroke="rgb(0%, 0%, 0%)" stroke-opacity="0" fill="rgb(5%, 5%, 5%)" fill-opacity="0.4"><rect width="0.0018" height="0.3840" x="-0.3355" y="-0.3505"/></g></g><g class="ticks"><g class="ticklines"><g stroke-width="0.0050" stroke="rgb(5%, 5%, 5%)" stroke-opacity="0.05" fill="none"><polyline points="-0.3292,0.0327 0.3991,0.0327"/><polyline points="-0.3292,-0.0219 0.3991,-0.0219"/><polyline points="-0.3292,-0.0765 0.3991,-0.0765"/><polyline points="-0.3292,-0.1312 0.3991,-0.1312"/><polyline points="-0.3292,-0.1858 0.3991,-0.1858"/><polyline points="-0.3292,-0.2404 0.3991,-0.2404"/><polyline points="-0.3292,-0.2951 0.3991,-0.2951"/><polyline points="-0.3292,-0.3497 0.3991,-0.3497"/></g></g><g class="tickglyph"><g stroke-width="0.0018" stroke="rgb(5%, 5%, 5%)" stroke-opacity="0.4" fill="rgb(5%, 5%, 5%)" fill-opacity="0.4"><polyline points="-0.3482,0.0327
-0.3346,0.0327"/><polyline points="-0.3482,-0.0219
-0.3346,-0.0219"/><polyline points="-0.3482,-0.0765
-0.3346,-0.0765"/><polyline points="-0.3482,-0.1312
-0.3346,-0.1312"/><polyline points="-0.3482,-0.1858
-0.3346,-0.1858"/><polyline points="-0.3482,-0.2404
-0.3346,-0.2404"/><polyline points="-0.3482,-0.2951
-0.3346,-0.2951"/><polyline points="-0.3482,-0.3497
-0.3346,-0.3497"/></g></g><g class="ticktext"><g stroke-width="0.0" stroke="none" fill="rgb(5%, 5%, 5%)" fill-opacity="1.0" font-size="0.0400" text-anchor="end"><text x="-0.3581" y="0.0369">-0.6</text><text x="-0.3581" y="-0.0177">-0.4</text><text x="-0.3581" y="-0.0723">-0.2</text><text x="-0.3581" y="-0.1270"> 0.0</text><text x="-0.3581" y="-0.1816"> 0.2</text><text x="-0.3581" y="-0.2362"> 0.4</text><text x="-0.3581" y="-0.2909"> 0.6</text><text x="-0.3581" y="-0.3455"> 0.8</text></g></g></g></g><g class="title"><g stroke-width="0.0" stroke="none" fill="rgb(5%, 5%, 5%)" fill-opacity="1.0" font-size="0.12" text-anchor="middle"><text x="-0.1190" y="-0.3868">Time: SATLIB/uf100-430/uf100-0100/cnf</text></g></g><g class="legend"><g class="padding"></g><g class="padding"></g><g class="frame"><g stroke-width="0.0004" stroke="rgb(5%, 5%, 5%)" stroke-opacity="1.0" fill="rgb(5%, 5%, 5%)" fill-opacity="0"><rect width="0.4638" height="0.6500" x="0.2535" y="-0.2923"/></g></g><g class="legendContent"><g stroke-width="0.0001" stroke="rgb(39%, 42%, 73%)" stroke-opacity="1.0" fill="rgb(39%, 42%, 73%)" fill-opacity="0.25"><rect width="0.0236" height="0.0201" x="0.6858" y="0.3309"/></g><g stroke-width="0.0" stroke="none" fill="rgb(5%, 5%, 5%)" fill-opacity="1.0" font-size="0.0126" text-anchor="start"><text x="0.2614" y="0.3436">CDCL (α = 0.95, mVISDS, LubyRestart(100, 2)), Baseline</text></g><g stroke-width="0" stroke="rgb(2%, 29%, 48%)" stroke-opacity="1.0" fill="rgb(39%, 42%, 73%)" fill-opacity="1.0"><rect width="0.0236" height="0.0201" x="0.6858" y="0.3041"/></g><g stroke-width="0.0" stroke="none" fill="rgb(5%, 5%, 5%)" fill-opacity="1.0" font-size="0.0126" text-anchor="start"><text x="0.2614" y="0.3168">CDCL (α = 0.95, mVISDS, LubyRestart(100, 2))</text></g><g stroke-width="0.0001" stroke="rgb(46%, 11%, 0%)" stroke-opacity="1.0" fill="rgb(46%, 11%, 0%)" fill-opacity="0.25"><rect width="0.0236" height="0.0201" x="0.6858" y="0.2773"/></g><g stroke-width="0.0" stroke="none" fill="rgb(5%, 5%, 5%)" fill-opacity="1.0" font-size="0.0126" text-anchor="start"><text x="0.2614" y="0.2900">CDCL (α = 0.95, mVISDS, ExpRestart(100, 2)), Baseline</text></g><g stroke-width="0" stroke="rgb(2%, 29%, 48%)" stroke-opacity="1.0" fill="rgb(46%, 11%, 0%)" fill-opacity="1.0"><rect width="0.0236" height="0.0201" x="0.6858" y="0.2505"/></g><g stroke-width="0.0" stroke="none" fill="rgb(5%, 5%, 5%)" fill-opacity="1.0" font-size="0.0126" text-anchor="start"><text x="0.2614" y="0.2632">CDCL (α = 0.95, mVISDS, ExpRestart(100, 2))</text></g><g stroke-width="0.0001" stroke="rgb(73%, 50%, 48%)" stroke-opacity="1.0" fill="rgb(73%, 50%, 48%)" fill-opacity="0.25"><rect width="0.0236" height="0.0201" x="0.6858" y="0.2237"/></g><g stroke-width="0.0" stroke="none" fill="rgb(5%, 5%, 5%)" fill-opacity="1.0" font-size="0.0126" text-anchor="start"><text x="0.2614" y="0.2364">CDCL (α = 0.95, mVISDS), Baseline</text></g><g stroke-width="0" stroke="rgb(2%, 29%, 48%)" stroke-opacity="1.0" fill="rgb(73%, 50%, 48%)" fill-opacity="1.0"><rect width="0.0236" height="0.0201" x="0.6858" y="0.1969"/></g><g stroke-width="0.0" stroke="none" fill="rgb(5%, 5%, 5%)" fill-opacity="1.0" font-size="0.0126" text-anchor="start"><text x="0.2614" y="0.2096">CDCL (α = 0.95, mVISDS)</text></g><g stroke-width="0.0001" stroke="rgb(24%, 31%, 12%)" stroke-opacity="1.0" fill="rgb(24%, 31%, 12%)" fill-opacity="0.25"><rect width="0.0236" height="0.0201" x="0.6858" y="0.1701"/></g><g stroke-width="0.0" stroke="none" fill="rgb(5%, 5%, 5%)" fill-opacity="1.0" font-size="0.0126" text-anchor="start"><text x="0.2614" y="0.1828">CDCL (α = 0.95), Baseline</text></g><g stroke-width="0" stroke="rgb(2%, 29%, 48%)" stroke-opacity="1.0" fill="rgb(24%, 31%, 12%)" fill-opacity="1.0"><rect width="0.0236" height="0.0201" x="0.6858" y="0.1433"/></g><g stroke-width="0.0" stroke="none" fill="rgb(5%, 5%, 5%)" fill-opacity="1.0" font-size="0.0126" text-anchor="start"><text x="0.2614" y="0.1560">CDCL (α = 0.95)</text></g><g stroke-width="0.0001" stroke="rgb(13%, 40%, 0%)" stroke-opacity="1.0" fill="rgb(13%, 40%, 0%)" fill-opacity="0.25"><rect width="0.0236" height="0.0201" x="0.6858" y="0.1165"/></g><g stroke-width="0.0" stroke="none" fill="rgb(5%, 5%, 5%)" fill-opacity="1.0" font-size="0.0126" text-anchor="start"><text x="0.2614" y="0.1292">CDCL (α = 0.75, mVISDS, LubyRestart(100, 2)), Baseline</text></g><g stroke-width="0" stroke="rgb(2%, 29%, 48%)" stroke-opacity="1.0" fill="rgb(13%, 40%, 0%)" fill-opacity="1.0"><rect width="0.0236" height="0.0201" x="0.6858" y="0.0897"/></g><g stroke-width="0.0" stroke="none" fill="rgb(5%, 5%, 5%)" fill-opacity="1.0" font-size="0.0126" text-anchor="start"><text x="0.2614" y="0.1024">CDCL (α = 0.75, mVISDS, LubyRestart(100, 2))</text></g><g stroke-width="0.0001" stroke="rgb(22%, 70%, 43%)" stroke-opacity="1.0" fill="rgb(22%, 70%, 43%)" fill-opacity="0.25"><rect width="0.0236" height="0.0201" x="0.6858" y="0.0629"/></g><g stroke-width="0.0" stroke="none" fill="rgb(5%, 5%, 5%)" fill-opacity="1.0" font-size="0.0126" text-anchor="start"><text x="0.2614" y="0.0756">CDCL (α = 0.75, mVISDS, ExpRestart(100, 2)), Baseline</text></g><g stroke-width="0" stroke="rgb(2%, 29%, 48%)" stroke-opacity="1.0" fill="rgb(22%, 70%, 43%)" fill-opacity="1.0"><rect width="0.0236" height="0.0201" x="0.6858" y="0.0361"/></g><g stroke-width="0.0" stroke="none" fill="rgb(5%, 5%, 5%)" fill-opacity="1.0" font-size="0.0126" text-anchor="start"><text x="0.2614" y="0.0488">CDCL (α = 0.75, mVISDS, ExpRestart(100, 2))</text></g><g stroke-width="0.0001" stroke="rgb(44%, 21%, 47%)" stroke-opacity="1.0" fill="rgb(44%, 21%, 47%)" fill-opacity="0.25"><rect width="0.0236" height="0.0201" x="0.6858" y="0.0093"/></g><g stroke-width="0.0" stroke="none" fill="rgb(5%, 5%, 5%)" fill-opacity="1.0" font-size="0.0126" text-anchor="start"><text x="0.2614" y="0.0220">CDCL (α = 0.75, mVISDS), Baseline</text></g><g stroke-width="0" stroke="rgb(2%, 29%, 48%)" stroke-opacity="1.0" fill="rgb(44%, 21%, 47%)" fill-opacity="1.0"><rect width="0.0236" height="0.0201" x="0.6858" y="-0.0175"/></g><g stroke-width="0.0" stroke="none" fill="rgb(5%, 5%, 5%)" fill-opacity="1.0" font-size="0.0126" text-anchor="start"><text x="0.2614" y="-0.0048">CDCL (α = 0.75, mVISDS)</text></g><g stroke-width="0.0001" stroke="rgb(69%, 48%, 50%)" stroke-opacity="1.0" fill="rgb(69%, 48%, 50%)" fill-opacity="0.25"><rect width="0.0236" height="0.0201" x="0.6858" y="-0.0443"/></g><g stroke-width="0.0" stroke="none" fill="rgb(5%, 5%, 5%)" fill-opacity="1.0" font-size="0.0126" text-anchor="start"><text x="0.2614" y="-0.0316">CDCL (α = 0.75), Baseline</text></g><g stroke-width="0" stroke="rgb(2%, 29%, 48%)" stroke-opacity="1.0" fill="rgb(69%, 48%, 50%)" fill-opacity="1.0"><rect width="0.0236" height="0.0201" x="0.6858" y="-0.0711"/></g><g stroke-width="0.0" stroke="none" fill="rgb(5%, 5%, 5%)" fill-opacity="1.0" font-size="0.0126" text-anchor="start"><text x="0.2614" y="-0.0584">CDCL (α = 0.75)</text></g><g stroke-width="0.0001" stroke="rgb(58%, 33%, 58%)" stroke-opacity="1.0" fill="rgb(58%, 33%, 58%)" fill-opacity="0.25"><rect width="0.0236" height="0.0201" x="0.6858" y="-0.0980"/></g><g stroke-width="0.0" stroke="none" fill="rgb(5%, 5%, 5%)" fill-opacity="1.0" font-size="0.0126" text-anchor="start"><text x="0.2614" y="-0.0852">CDCL (adaptive, mVSIDS), Baseline</text></g><g stroke-width="0" stroke="rgb(2%, 29%, 48%)" stroke-opacity="1.0" fill="rgb(58%, 33%, 58%)" fill-opacity="1.0"><rect width="0.0236" height="0.0201" x="0.6858" y="-0.1248"/></g><g stroke-width="0.0" stroke="none" fill="rgb(5%, 5%, 5%)" fill-opacity="1.0" font-size="0.0126" text-anchor="start"><text x="0.2614" y="-0.1120">CDCL (adaptive, mVSIDS)</text></g><g stroke-width="0.0001" stroke="rgb(82%, 47%, 0%)" stroke-opacity="1.0" fill="rgb(82%, 47%, 0%)" fill-opacity="0.25"><rect width="0.0236" height="0.0201" x="0.6858" y="-0.1516"/></g><g stroke-width="0.0" stroke="none" fill="rgb(5%, 5%, 5%)" fill-opacity="1.0" font-size="0.0126" text-anchor="start"><text x="0.2614" y="-0.1388">CDCL (adaptive, mVISDS, LubyRestart(100, 2)), Baseline</text></g><g stroke-width="0" stroke="rgb(2%, 29%, 48%)" stroke-opacity="1.0" fill="rgb(82%, 47%, 0%)" fill-opacity="1.0"><rect width="0.0236" height="0.0201" x="0.6858" y="-0.1784"/></g><g stroke-width="0.0" stroke="none" fill="rgb(5%, 5%, 5%)" fill-opacity="1.0" font-size="0.0126" text-anchor="start"><text x="0.2614" y="-0.1656">CDCL (adaptive, mVISDS, LubyRestart(100, 2))</text></g><g stroke-width="0.0001" stroke="rgb(31%, 35%, 20%)" stroke-opacity="1.0" fill="rgb(31%, 35%, 20%)" fill-opacity="0.25"><rect width="0.0236" height="0.0201" x="0.6858" y="-0.2052"/></g><g stroke-width="0.0" stroke="none" fill="rgb(5%, 5%, 5%)" fill-opacity="1.0" font-size="0.0126" text-anchor="start"><text x="0.2614" y="-0.1924">CDCL (adaptive, mVISDS, ExpRestart(100, 2)), Baseline</text></g><g stroke-width="0" stroke="rgb(2%, 29%, 48%)" stroke-opacity="1.0" fill="rgb(31%, 35%, 20%)" fill-opacity="1.0"><rect width="0.0236" height="0.0201" x="0.6858" y="-0.2320"/></g><g stroke-width="0.0" stroke="none" fill="rgb(5%, 5%, 5%)" fill-opacity="1.0" font-size="0.0126" text-anchor="start"><text x="0.2614" y="-0.2193">CDCL (adaptive, mVISDS, ExpRestart(100, 2))</text></g><g stroke-width="0.0001" stroke="rgb(0%, 68%, 84%)" stroke-opacity="1.0" fill="rgb(0%, 68%, 84%)" fill-opacity="0.25"><rect width="0.0236" height="0.0201" x="0.6858" y="-0.2588"/></g><g stroke-width="0.0" stroke="none" fill="rgb(5%, 5%, 5%)" fill-opacity="1.0" font-size="0.0126" text-anchor="start"><text x="0.2614" y="-0.2461">CDCL (adaptive), Baseline</text></g><g stroke-width="0" stroke="rgb(2%, 29%, 48%)" stroke-opacity="1.0" fill="rgb(0%, 68%, 84%)" fill-opacity="1.0"><rect width="0.0236" height="0.0201" x="0.6858" y="-0.2856"/></g><g stroke-width="0.0" stroke="none" fill="rgb(5%, 5%, 5%)" fill-opacity="1.0" font-size="0.0126" text-anchor="start"><text x="0.2614" y="-0.2729">CDCL (adaptive)</text></g></g></g><g class="frame"><g stroke-width="0" stroke="rgb(0%, 0%, 0%)" stroke-opacity="0" fill="rgb(100%, 100%, 100%)" fill-opacity="0.02"><rect width="1.6180" height="1.0" x="-0.8090" y="-0.5"/></g></g><g class="title"><g stroke-width="0.0" stroke="none" fill="rgb(5%, 5%, 5%)" fill-opacity="1.0" font-size="0.0600" text-anchor="middle"><text x="-0.7451" y="0" transform="rotate(-90.0, -0.7451, 0)">Time [ms]</text></g></g></g></svg>