<svg xmlns="http://www.w3.org/2000/svg" xmlns:xlink="http://www.w3.org/1999/xlink" width="485" height="300" viewBox="-0.8090 -0.5 1.6180 1.0"><style>svg {
  color-scheme: light dark;
}
{
  .canvas g, .title g, .axisbar g, .ticktext g, .tickglyph g, .ticklines g, .legendContent g text {
    fill: rgb(5%, 5%, 5%);
  }
  .ticklines g, .tickglyph g, .legendBorder g {
    stroke: rgb(5%, 5%, 5%);
  }
  .legendBorder g {
    fill: rgb(94%, 94%, 94%);
  }
}
@media (prefers-color-scheme:dark) {
  .canvas g, .title g, .axisbar g, .ticktext g, .tickglyph g, .ticklines g, .legendContent g text {
    fill: rgb(94%, 94%, 94%);
  }
  .ticklines g, .tickglyph g, .legendBorder g {
    stroke: rgb(94%, 94%, 94%);
  }
  .legendBorder g {
    fill: rgb(5%, 5%, 5%);
  }
}</style><g class="chart"><g class="barchart"><g stroke-width="0" stroke="rgb(2%, 29%, 48%)" stroke-opacity="1.0" fill="rgb(0%, 30%, 12%)" fill-opacity="1.0"><rect width="0.0697" height="0.0097" x="-0.5909" y="0.0723"/></g><g stroke-width="0" stroke="rgb(2%, 29%, 48%)" stroke-opacity="1.0" fill="rgb(1%, 28%, 43%)" fill-opacity="1.0"><rect width="0.0697" height="0.1057" x="-0.5213" y="-0.0237"/></g><g stroke-width="0" stroke="rgb(2%, 29%, 48%)" stroke-opacity="1.0" fill="rgb(0%, 72%, 98%)" fill-opacity="1.0"><rect width="0.0697" height="0.0323" x="-0.4516" y="0.0497"/></g><g stroke-width="0" stroke="rgb(2%, 29%, 48%)" stroke-opacity="1.0" fill="rgb(90%, 37%, 58%)" fill-opacity="1.0"><rect width="0.0697" height="0.0257" x="-0.3819" y="0.0563"/></g><g stroke-width="0" stroke="rgb(2%, 29%, 48%)" stroke-opacity="1.0" fill="rgb(38%, 23%, 0%)" fill-opacity="1.0"><rect width="0.0697" height="0.0628" x="-0.3123" y="0.0192"/></g><g stroke-width="0" stroke="rgb(2%, 29%, 48%)" stroke-opacity="1.0" fill="rgb(91%, 19%, 0%)" fill-opacity="1.0"><rect width="0.0697" height="0.0628" x="-0.2426" y="0.0192"/></g><g stroke-width="0" stroke="rgb(2%, 29%, 48%)" stroke-opacity="1.0" fill="rgb(0%, 64%, 70%)" fill-opacity="1.0"><rect width="0.0697" height="0.0098" x="-0.1729" y="0.0722"/></g><g stroke-width="0" stroke="rgb(2%, 29%, 48%)" stroke-opacity="1.0" fill="rgb(91%, 47%, 0%)" fill-opacity="1.0"><rect width="0.0697" height="0.0403" x="-0.1033" y="0.0417"/></g><g stroke-width="0" stroke="rgb(2%, 29%, 48%)" stroke-opacity="1.0" fill="rgb(62%, 0%, 31%)" fill-opacity="1.0"><rect width="0.0697" height="0.0277" x="-0.0336" y="0.0544"/></g><g stroke-width="0" stroke="rgb(2%, 29%, 48%)" stroke-opacity="1.0" fill="rgb(17%, 40%, 67%)" fill-opacity="1.0"><rect width="0.0697" height="0.0276" x="0.0360" y="0.0544"/></g><g stroke-width="0" stroke="rgb(2%, 29%, 48%)" stroke-opacity="1.0" fill="rgb(0%, 52%, 40%)" fill-opacity="1.0"><rect width="0.0697" height="0.3945" x="0.1057" y="-0.3125"/></g></g><g class="errors"></g></g><g class="hud"><g class="axis"><g class="ticks"><g class="tickglyph"><g stroke-width="0.0040" stroke="rgb(5%, 5%, 5%)" stroke-opacity="0.4" fill="rgb(5%, 5%, 5%)" fill-opacity="0.4"><g transform="rotate(-90.0, -0.6493, 0.0820)"><polyline points="-0.6493,0.0970
-0.6493,0.0670"/></g><g transform="rotate(-90.0, -0.6493, 0.0404)"><polyline points="-0.6493,0.0554
-0.6493,0.0254"/></g><g transform="rotate(-90.0, -0.6493, -0.0012)"><polyline points="-0.6493,0.0138
-0.6493,-0.0162"/></g><g transform="rotate(-90.0, -0.6493, -0.0429)"><polyline points="-0.6493,-0.0279
-0.6493,-0.0579"/></g><g transform="rotate(-90.0, -0.6493, -0.0845)"><polyline points="-0.6493,-0.0695
-0.6493,-0.0995"/></g><g transform="rotate(-90.0, -0.6493, -0.1261)"><polyline points="-0.6493,-0.1111
-0.6493,-0.1411"/></g><g transform="rotate(-90.0, -0.6493, -0.1677)"><polyline points="-0.6493,-0.1527
-0.6493,-0.1827"/></g><g transform="rotate(-90.0, -0.6493, -0.2094)"><polyline points="-0.6493,-0.1944
-0.6493,-0.2244"/></g><g transform="rotate(-90.0, -0.6493, -0.2510)"><polyline points="-0.6493,-0.2360
-0.6493,-0.2660"/></g><g transform="rotate(-90.0, -0.6493, -0.2926)"><polyline points="-0.6493,-0.2776
-0.6493,-0.3076"/></g><g transform="rotate(-90.0, -0.6493, -0.3342)"><polyline points="-0.6493,-0.3192
-0.6493,-0.3492"/></g></g></g><g class="ticktext"><g stroke-width="0.0" stroke="none" fill="rgb(5%, 5%, 5%)" fill-opacity="1.0" font-size="0.0263" text-anchor="end"><text x="-0.6682" y="0.0877">  0</text><text x="-0.6682" y="0.0461"> 10</text><text x="-0.6682" y="0.0045"> 20</text><text x="-0.6682" y="-0.0371"> 30</text><text x="-0.6682" y="-0.0788"> 40</text><text x="-0.6682" y="-0.1204"> 50</text><text x="-0.6682" y="-0.1620"> 60</text><text x="-0.6682" y="-0.2036"> 70</text><text x="-0.6682" y="-0.2453"> 80</text><text x="-0.6682" y="-0.2869"> 90</text><text x="-0.6682" y="-0.3285">100</text></g></g><g class="ticklines"><g stroke-width="0.0050" stroke="rgb(5%, 5%, 5%)" stroke-opacity="0.05" fill="none"><polyline points="-0.6335,0.0820 0.2180,0.0820"/><polyline points="-0.6335,0.0404 0.2180,0.0404"/><polyline points="-0.6335,-0.0012 0.2180,-0.0012"/><polyline points="-0.6335,-0.0429 0.2180,-0.0429"/><polyline points="-0.6335,-0.0845 0.2180,-0.0845"/><polyline points="-0.6335,-0.1261 0.2180,-0.1261"/><polyline points="-0.6335,-0.1677 0.2180,-0.1677"/><polyline points="-0.6335,-0.2094 0.2180,-0.2094"/><polyline points="-0.6335,-0.2510 0.2180,-0.2510"/><polyline points="-0.6335,-0.2926 0.2180,-0.2926"/><polyline points="-0.6335,-0.3342 0.2180,-0.3342"/></g></g></g><g class="axisbar"><g stroke-width="0" stroke="rgb(0%, 0%, 0%)" stroke-opacity="0" fill="rgb(5%, 5%, 5%)" fill-opacity="0.4"><rect width="0.0021" height="0.4179" x="-0.6409" y="-0.3351"/></g></g></g><g class="axis"><g class="ticks"><g class="tickglyph"><g stroke-width="0.0040" stroke="rgb(5%, 5%, 5%)" stroke-opacity="0.4" fill="rgb(5%, 5%, 5%)" fill-opacity="0.4"><polyline points="-0.5561,0.1095
-0.5561,0.0795"/><polyline points="-0.4864,0.1095
-0.4864,0.0795"/><polyline points="-0.4168,0.1095
-0.4168,0.0795"/><polyline points="-0.3471,0.1095
-0.3471,0.0795"/><polyline points="-0.2774,0.1095
-0.2774,0.0795"/><polyline points="-0.2078,0.1095
-0.2078,0.0795"/><polyline points="-0.1381,0.1095
-0.1381,0.0795"/><polyline points="-0.0684,0.1095
-0.0684,0.0795"/><polyline points="0.0012,0.1095
0.0012,0.0795"/><polyline points="0.0709,0.1095
0.0709,0.0795"/><polyline points="0.1405,0.1095
0.1405,0.0795"/></g></g><g class="ticktext"><g stroke-width="0.0" stroke="none" fill="rgb(5%, 5%, 5%)" fill-opacity="1.0" font-size="0.0263" text-anchor="end"><text x="-0.5561" y="0.1209" transform="rotate(-45.0, -0.5561, 0.1209)">CDCL (adaptive)</text><text x="-0.4864" y="0.1209" transform="rotate(-45.0, -0.4864, 0.1209)">CDCL (adaptive, mVSIDS)</text><text x="-0.4168" y="0.1209" transform="rotate(-45.0, -0.4168, 0.1209)">CDCL (α = 0.75)</text><text x="-0.3471" y="0.1209" transform="rotate(-45.0, -0.3471, 0.1209)">CDCL (α = 0.75, mVISDS)</text><text x="-0.2774" y="0.1209" transform="rotate(-45.0, -0.2774, 0.1209)">CDCL (α = 0.75, mVISDS, ExpRestart(100, 2))</text><text x="-0.2078" y="0.1209" transform="rotate(-45.0, -0.2078, 0.1209)">CDCL (α = 0.75, mVISDS, LubyRestart(100, 2))</text><text x="-0.1381" y="0.1209" transform="rotate(-45.0, -0.1381, 0.1209)">CDCL (α = 0.95)</text><text x="-0.0684" y="0.1209" transform="rotate(-45.0, -0.0684, 0.1209)">CDCL (α = 0.95, mVISDS)</text><text x="0.0012" y="0.1209" transform="rotate(-45.0, 0.0012, 0.1209)">CDCL (α = 0.95, mVISDS, ExpRestart(100, 2))</text><text x="0.0709" y="0.1209" transform="rotate(-45.0, 0.0709, 0.1209)">CDCL (α = 0.95, mVISDS, LubyRestart(100, 2))</text><text x="0.1405" y="0.1209" transform="rotate(-45.0, 0.1405, 0.1209)">DPLL</text></g></g></g><g class="axisbar"><g stroke-width="0" stroke="rgb(0%, 0%, 0%)" stroke-opacity="0" fill="rgb(5%, 5%, 5%)" fill-opacity="0.4"><rect width="0.8536" height="0.0017" x="-0.6346" y="0.0862"/></g></g></g><g class="title"><g stroke-width="0.0" stroke="none" fill="rgb(5%, 5%, 5%)" fill-opacity="1.0" font-size="0.0631" text-anchor="middle"><text x="-0.2422" y="-0.3768">Alloc: SATLIB/Bejing/3blocks/cnf</text></g></g><g class="legend"><g class="legendBorder"><g stroke-width="0.0017" stroke="rgb(5%, 5%, 5%)" stroke-opacity="1.0" fill="rgb(5%, 5%, 5%)" fill-opacity="0"><rect width="0.3927" height="0.3278" x="0.3092" y="-0.2276"/></g></g><g class="legendContent"><g stroke-width="0.0" stroke="none" fill="rgb(5%, 5%, 5%)" fill-opacity="1.0" font-size="0.0166" text-anchor="start"><text x="0.3185" y="0.0853">DPLL</text></g><g stroke-width="0" stroke="rgb(2%, 29%, 48%)" stroke-opacity="1.0" fill="rgb(0%, 52%, 40%)" fill-opacity="1.0"><rect width="0.0276" height="0.0219" x="0.6651" y="0.0711"/></g><g stroke-width="0.0" stroke="none" fill="rgb(5%, 5%, 5%)" fill-opacity="1.0" font-size="0.0166" text-anchor="start"><text x="0.3185" y="0.0562">CDCL (α = 0.95, mVISDS, LubyRestart(100, 2))</text></g><g stroke-width="0" stroke="rgb(2%, 29%, 48%)" stroke-opacity="1.0" fill="rgb(17%, 40%, 67%)" fill-opacity="1.0"><rect width="0.0276" height="0.0219" x="0.6651" y="0.0420"/></g><g stroke-width="0.0" stroke="none" fill="rgb(5%, 5%, 5%)" fill-opacity="1.0" font-size="0.0166" text-anchor="start"><text x="0.3185" y="0.0270">CDCL (α = 0.95, mVISDS, ExpRestart(100, 2))</text></g><g stroke-width="0" stroke="rgb(2%, 29%, 48%)" stroke-opacity="1.0" fill="rgb(62%, 0%, 31%)" fill-opacity="1.0"><rect width="0.0276" height="0.0219" x="0.6651" y="0.0128"/></g><g stroke-width="0.0" stroke="none" fill="rgb(5%, 5%, 5%)" fill-opacity="1.0" font-size="0.0166" text-anchor="start"><text x="0.3185" y="-0.0021">CDCL (α = 0.95, mVISDS)</text></g><g stroke-width="0" stroke="rgb(2%, 29%, 48%)" stroke-opacity="1.0" fill="rgb(91%, 47%, 0%)" fill-opacity="1.0"><rect width="0.0276" height="0.0219" x="0.6651" y="-0.0163"/></g><g stroke-width="0.0" stroke="none" fill="rgb(5%, 5%, 5%)" fill-opacity="1.0" font-size="0.0166" text-anchor="start"><text x="0.3185" y="-0.0312">CDCL (α = 0.95)</text></g><g stroke-width="0" stroke="rgb(2%, 29%, 48%)" stroke-opacity="1.0" fill="rgb(0%, 64%, 70%)" fill-opacity="1.0"><rect width="0.0276" height="0.0219" x="0.6651" y="-0.0455"/></g><g stroke-width="0.0" stroke="none" fill="rgb(5%, 5%, 5%)" fill-opacity="1.0" font-size="0.0166" text-anchor="start"><text x="0.3185" y="-0.0604">CDCL (α = 0.75, mVISDS, LubyRestart(100, 2))</text></g><g stroke-width="0" stroke="rgb(2%, 29%, 48%)" stroke-opacity="1.0" fill="rgb(91%, 19%, 0%)" fill-opacity="1.0"><rect width="0.0276" height="0.0219" x="0.6651" y="-0.0746"/></g><g stroke-width="0.0" stroke="none" fill="rgb(5%, 5%, 5%)" fill-opacity="1.0" font-size="0.0166" text-anchor="start"><text x="0.3185" y="-0.0895">CDCL (α = 0.75, mVISDS, ExpRestart(100, 2))</text></g><g stroke-width="0" stroke="rgb(2%, 29%, 48%)" stroke-opacity="1.0" fill="rgb(38%, 23%, 0%)" fill-opacity="1.0"><rect width="0.0276" height="0.0219" x="0.6651" y="-0.1037"/></g><g stroke-width="0.0" stroke="none" fill="rgb(5%, 5%, 5%)" fill-opacity="1.0" font-size="0.0166" text-anchor="start"><text x="0.3185" y="-0.1187">CDCL (α = 0.75, mVISDS)</text></g><g stroke-width="0" stroke="rgb(2%, 29%, 48%)" stroke-opacity="1.0" fill="rgb(90%, 37%, 58%)" fill-opacity="1.0"><rect width="0.0276" height="0.0219" x="0.6651" y="-0.1329"/></g><g stroke-width="0.0" stroke="none" fill="rgb(5%, 5%, 5%)" fill-opacity="1.0" font-size="0.0166" text-anchor="start"><text x="0.3185" y="-0.1478">CDCL (α = 0.75)</text></g><g stroke-width="0" stroke="rgb(2%, 29%, 48%)" stroke-opacity="1.0" fill="rgb(0%, 72%, 98%)" fill-opacity="1.0"><rect width="0.0276" height="0.0219" x="0.6651" y="-0.1620"/></g><g stroke-width="0.0" stroke="none" fill="rgb(5%, 5%, 5%)" fill-opacity="1.0" font-size="0.0166" text-anchor="start"><text x="0.3185" y="-0.1769">CDCL (adaptive, mVSIDS)</text></g><g stroke-width="0" stroke="rgb(2%, 29%, 48%)" stroke-opacity="1.0" fill="rgb(1%, 28%, 43%)" fill-opacity="1.0"><rect width="0.0276" height="0.0219" x="0.6651" y="-0.1911"/></g><g stroke-width="0.0" stroke="none" fill="rgb(5%, 5%, 5%)" fill-opacity="1.0" font-size="0.0166" text-anchor="start"><text x="0.3185" y="-0.2061">CDCL (adaptive)</text></g><g stroke-width="0" stroke="rgb(2%, 29%, 48%)" stroke-opacity="1.0" fill="rgb(0%, 30%, 12%)" fill-opacity="1.0"><rect width="0.0276" height="0.0219" x="0.6651" y="-0.2203"/></g></g></g><g class="frame"><g stroke-width="0" stroke="rgb(0%, 0%, 0%)" stroke-opacity="0" fill="rgb(100%, 100%, 100%)" fill-opacity="0.02"><rect width="1.6180" height="1.0" x="-0.8090" y="-0.5"/></g></g><g class="title"><g stroke-width="0.0" stroke="none" fill="rgb(5%, 5%, 5%)" fill-opacity="1.0" font-size="0.0316" text-anchor="middle"><text x="-0.7343" y="0" transform="rotate(-90.0, -0.7343, 0)">Alloc [GiB]</text></g></g></g></svg>