<svg xmlns="http://www.w3.org/2000/svg" xmlns:xlink="http://www.w3.org/1999/xlink" width="485" height="300" viewBox="-0.8090 -0.5 1.6180 1.0"><style>svg {
  color-scheme: light dark;
}
{
  .canvas g, .title g, .axisbar g, .ticktext g, .tickglyph g, .ticklines g, .legendContent g text {
    fill: rgb(5%, 5%, 5%);
  }
  .ticklines g, .tickglyph g, .legendBorder g {
    stroke: rgb(5%, 5%, 5%);
  }
  .legendBorder g {
    fill: rgb(94%, 94%, 94%);
  }
}
@media (prefers-color-scheme:dark) {
  .canvas g, .title g, .axisbar g, .ticktext g, .tickglyph g, .ticklines g, .legendContent g text {
    fill: rgb(94%, 94%, 94%);
  }
  .ticklines g, .tickglyph g, .legendBorder g {
    stroke: rgb(94%, 94%, 94%);
  }
  .legendBorder g {
    fill: rgb(5%, 5%, 5%);
  }
}</style><g class="chart"><g class="barchart"><g stroke-width="0" stroke="rgb(2%, 29%, 48%)" stroke-opacity="1.0" fill="rgb(0%, 30%, 12%)" fill-opacity="1.0"><rect width="0.0493" height="0.0658" x="-0.4508" y="0.0163"/></g><g stroke-width="0" stroke="rgb(2%, 29%, 48%)" stroke-opacity="1.0" fill="rgb(0%, 25%, 37%)" fill-opacity="1.0"><rect width="0.0493" height="0.0628" x="-0.4016" y="0.0193"/></g><g stroke-width="0" stroke="rgb(2%, 29%, 48%)" stroke-opacity="1.0" fill="rgb(26%, 54%, 57%)" fill-opacity="1.0"><rect width="0.0493" height="0.0653" x="-0.3523" y="0.0167"/></g><g stroke-width="0" stroke="rgb(2%, 29%, 48%)" stroke-opacity="1.0" fill="rgb(1%, 28%, 43%)" fill-opacity="1.0"><rect width="0.0493" height="0.0654" x="-0.3030" y="0.0166"/></g><g stroke-width="0" stroke="rgb(2%, 29%, 48%)" stroke-opacity="1.0" fill="rgb(0%, 72%, 98%)" fill-opacity="1.0"><rect width="0.0493" height="0.0609" x="-0.2538" y="0.0212"/></g><g stroke-width="0" stroke="rgb(2%, 29%, 48%)" stroke-opacity="1.0" fill="rgb(90%, 37%, 58%)" fill-opacity="1.0"><rect width="0.0493" height="0.0608" x="-0.2045" y="0.0212"/></g><g stroke-width="0" stroke="rgb(2%, 29%, 48%)" stroke-opacity="1.0" fill="rgb(38%, 23%, 0%)" fill-opacity="1.0"><rect width="0.0493" height="0.0606" x="-0.1553" y="0.0215"/></g><g stroke-width="0" stroke="rgb(2%, 29%, 48%)" stroke-opacity="1.0" fill="rgb(91%, 19%, 0%)" fill-opacity="1.0"><rect width="0.0493" height="0.0631" x="-0.1060" y="0.0189"/></g><g stroke-width="0" stroke="rgb(2%, 29%, 48%)" stroke-opacity="1.0" fill="rgb(0%, 64%, 70%)" fill-opacity="1.0"><rect width="0.0493" height="0.0632" x="-0.0567" y="0.0188"/></g><g stroke-width="0" stroke="rgb(2%, 29%, 48%)" stroke-opacity="1.0" fill="rgb(91%, 47%, 0%)" fill-opacity="1.0"><rect width="0.0493" height="0.0649" x="-0.0075" y="0.0171"/></g><g stroke-width="0" stroke="rgb(2%, 29%, 48%)" stroke-opacity="1.0" fill="rgb(62%, 0%, 31%)" fill-opacity="1.0"><rect width="0.0493" height="0.0644" x="0.0418" y="0.0176"/></g><g stroke-width="0" stroke="rgb(2%, 29%, 48%)" stroke-opacity="1.0" fill="rgb(17%, 40%, 67%)" fill-opacity="1.0"><rect width="0.0493" height="0.0643" x="0.0910" y="0.0178"/></g><g stroke-width="0" stroke="rgb(2%, 29%, 48%)" stroke-opacity="1.0" fill="rgb(0%, 52%, 40%)" fill-opacity="1.0"><rect width="0.0493" height="0.0142" x="0.1403" y="0.0678"/></g><g stroke-width="0" stroke="rgb(2%, 29%, 48%)" stroke-opacity="1.0" fill="rgb(46%, 22%, 3%)" fill-opacity="1.0"><rect width="0.0493" height="0.3841" x="0.1895" y="-0.3020"/></g></g><g class="errors"><g stroke-width="0.0015" stroke="rgb(5%, 5%, 5%)" stroke-opacity="1.0" fill="none"><polyline points="-0.4311,0.0189 -0.4213,0.0189"/><polyline points="-0.4262,0.0189 -0.4262,0.0137"/><polyline points="-0.4311,0.0137 -0.4213,0.0137"/></g><g stroke-width="0.0015" stroke="rgb(5%, 5%, 5%)" stroke-opacity="1.0" fill="none"><polyline points="-0.3819,0.0222 -0.3720,0.0222"/><polyline points="-0.3769,0.0222 -0.3769,0.0163"/><polyline points="-0.3819,0.0163 -0.3720,0.0163"/></g><g stroke-width="0.0015" stroke="rgb(5%, 5%, 5%)" stroke-opacity="1.0" fill="none"><polyline points="-0.3326,0.0194 -0.3227,0.0194"/><polyline points="-0.3277,0.0194 -0.3277,0.0140"/><polyline points="-0.3326,0.0140 -0.3227,0.0140"/></g><g stroke-width="0.0015" stroke="rgb(5%, 5%, 5%)" stroke-opacity="1.0" fill="none"><polyline points="-0.2833,0.0188 -0.2735,0.0188"/><polyline points="-0.2784,0.0188 -0.2784,0.0144"/><polyline points="-0.2833,0.0144 -0.2735,0.0144"/></g><g stroke-width="0.0015" stroke="rgb(5%, 5%, 5%)" stroke-opacity="1.0" fill="none"><polyline points="-0.2341,0.0234 -0.2242,0.0234"/><polyline points="-0.2292,0.0234 -0.2292,0.0189"/><polyline points="-0.2341,0.0189 -0.2242,0.0189"/></g><g stroke-width="0.0015" stroke="rgb(5%, 5%, 5%)" stroke-opacity="1.0" fill="none"><polyline points="-0.1848,0.0240 -0.1750,0.0240"/><polyline points="-0.1799,0.0240 -0.1799,0.0185"/><polyline points="-0.1848,0.0185 -0.1750,0.0185"/></g><g stroke-width="0.0015" stroke="rgb(5%, 5%, 5%)" stroke-opacity="1.0" fill="none"><polyline points="-0.1356,0.0240 -0.1257,0.0240"/><polyline points="-0.1306,0.0240 -0.1306,0.0189"/><polyline points="-0.1356,0.0189 -0.1257,0.0189"/></g><g stroke-width="0.0015" stroke="rgb(5%, 5%, 5%)" stroke-opacity="1.0" fill="none"><polyline points="-0.0863,0.0202 -0.0765,0.0202"/><polyline points="-0.0814,0.0202 -0.0814,0.0176"/><polyline points="-0.0863,0.0176 -0.0765,0.0176"/></g><g stroke-width="0.0015" stroke="rgb(5%, 5%, 5%)" stroke-opacity="1.0" fill="none"><polyline points="-0.0370,0.0201 -0.0272,0.0201"/><polyline points="-0.0321,0.0201 -0.0321,0.0176"/><polyline points="-0.0370,0.0176 -0.0272,0.0176"/></g><g stroke-width="0.0015" stroke="rgb(5%, 5%, 5%)" stroke-opacity="1.0" fill="none"><polyline points="0.0122,0.0183 0.0221,0.0183"/><polyline points="0.0171,0.0183 0.0171,0.0160"/><polyline points="0.0122,0.0160 0.0221,0.0160"/></g><g stroke-width="0.0015" stroke="rgb(5%, 5%, 5%)" stroke-opacity="1.0" fill="none"><polyline points="0.0615,0.0194 0.0713,0.0194"/><polyline points="0.0664,0.0194 0.0664,0.0158"/><polyline points="0.0615,0.0158 0.0713,0.0158"/></g><g stroke-width="0.0015" stroke="rgb(5%, 5%, 5%)" stroke-opacity="1.0" fill="none"><polyline points="0.1107,0.0203 0.1206,0.0203"/><polyline points="0.1157,0.0203 0.1157,0.0152"/><polyline points="0.1107,0.0152 0.1206,0.0152"/></g><g stroke-width="0.0015" stroke="rgb(5%, 5%, 5%)" stroke-opacity="1.0" fill="none"><polyline points="0.1600,0.0684 0.1698,0.0684"/><polyline points="0.1649,0.0684 0.1649,0.0672"/><polyline points="0.1600,0.0672 0.1698,0.0672"/></g><g stroke-width="0.0015" stroke="rgb(5%, 5%, 5%)" stroke-opacity="1.0" fill="none"><polyline points="0.2092,-0.2878 0.2191,-0.2878"/><polyline points="0.2142,-0.2878 0.2142,-0.3163"/><polyline points="0.2092,-0.3163 0.2191,-0.3163"/></g></g></g><g class="hud"><g class="axis"><g class="ticks"><g class="tickglyph"><g stroke-width="0.0040" stroke="rgb(5%, 5%, 5%)" stroke-opacity="0.4" fill="rgb(5%, 5%, 5%)" fill-opacity="0.4"><g transform="rotate(-90.0, -0.5033, 0.0820)"><polyline points="-0.5033,0.0970
-0.5033,0.0670"/></g><g transform="rotate(-90.0, -0.5033, 0.0404)"><polyline points="-0.5033,0.0554
-0.5033,0.0254"/></g><g transform="rotate(-90.0, -0.5033, -0.0012)"><polyline points="-0.5033,0.0138
-0.5033,-0.0162"/></g><g transform="rotate(-90.0, -0.5033, -0.0429)"><polyline points="-0.5033,-0.0279
-0.5033,-0.0579"/></g><g transform="rotate(-90.0, -0.5033, -0.0845)"><polyline points="-0.5033,-0.0695
-0.5033,-0.0995"/></g><g transform="rotate(-90.0, -0.5033, -0.1261)"><polyline points="-0.5033,-0.1111
-0.5033,-0.1411"/></g><g transform="rotate(-90.0, -0.5033, -0.1677)"><polyline points="-0.5033,-0.1527
-0.5033,-0.1827"/></g><g transform="rotate(-90.0, -0.5033, -0.2094)"><polyline points="-0.5033,-0.1944
-0.5033,-0.2244"/></g><g transform="rotate(-90.0, -0.5033, -0.2510)"><polyline points="-0.5033,-0.2360
-0.5033,-0.2660"/></g><g transform="rotate(-90.0, -0.5033, -0.2926)"><polyline points="-0.5033,-0.2776
-0.5033,-0.3076"/></g><g transform="rotate(-90.0, -0.5033, -0.3342)"><polyline points="-0.5033,-0.3192
-0.5033,-0.3492"/></g></g></g><g class="ticktext"><g stroke-width="0.0" stroke="none" fill="rgb(5%, 5%, 5%)" fill-opacity="1.0" font-size="0.0237" text-anchor="end"><text x="-0.5204" y="0.0877"> 0</text><text x="-0.5204" y="0.0461"> 2</text><text x="-0.5204" y="0.0045"> 4</text><text x="-0.5204" y="-0.0371"> 6</text><text x="-0.5204" y="-0.0788"> 8</text><text x="-0.5204" y="-0.1204">10</text><text x="-0.5204" y="-0.1620">12</text><text x="-0.5204" y="-0.2036">14</text><text x="-0.5204" y="-0.2453">16</text><text x="-0.5204" y="-0.2869">18</text><text x="-0.5204" y="-0.3285">20</text></g></g><g class="ticklines"><g stroke-width="0.0050" stroke="rgb(5%, 5%, 5%)" stroke-opacity="0.05" fill="none"><polyline points="-0.4891,0.0820 0.2771,0.0820"/><polyline points="-0.4891,0.0404 0.2771,0.0404"/><polyline points="-0.4891,-0.0012 0.2771,-0.0012"/><polyline points="-0.4891,-0.0429 0.2771,-0.0429"/><polyline points="-0.4891,-0.0845 0.2771,-0.0845"/><polyline points="-0.4891,-0.1261 0.2771,-0.1261"/><polyline points="-0.4891,-0.1677 0.2771,-0.1677"/><polyline points="-0.4891,-0.2094 0.2771,-0.2094"/><polyline points="-0.4891,-0.2510 0.2771,-0.2510"/><polyline points="-0.4891,-0.2926 0.2771,-0.2926"/><polyline points="-0.4891,-0.3342 0.2771,-0.3342"/></g></g></g><g class="axisbar"><g stroke-width="0" stroke="rgb(0%, 0%, 0%)" stroke-opacity="0" fill="rgb(5%, 5%, 5%)" fill-opacity="0.4"><rect width="0.0019" height="0.4179" x="-0.4958" y="-0.3351"/></g></g></g><g class="axis"><g class="ticks"><g class="tickglyph"><g stroke-width="0.0040" stroke="rgb(5%, 5%, 5%)" stroke-opacity="0.4" fill="rgb(5%, 5%, 5%)" fill-opacity="0.4"><polyline points="-0.4262,0.1095
-0.4262,0.0795"/><polyline points="-0.3769,0.1095
-0.3769,0.0795"/><polyline points="-0.3277,0.1095
-0.3277,0.0795"/><polyline points="-0.2784,0.1095
-0.2784,0.0795"/><polyline points="-0.2292,0.1095
-0.2292,0.0795"/><polyline points="-0.1799,0.1095
-0.1799,0.0795"/><polyline points="-0.1306,0.1095
-0.1306,0.0795"/><polyline points="-0.0814,0.1095
-0.0814,0.0795"/><polyline points="-0.0321,0.1095
-0.0321,0.0795"/><polyline points="0.0171,0.1095
0.0171,0.0795"/><polyline points="0.0664,0.1095
0.0664,0.0795"/><polyline points="0.1157,0.1095
0.1157,0.0795"/><polyline points="0.1649,0.1095
0.1649,0.0795"/><polyline points="0.2142,0.1095
0.2142,0.0795"/></g></g><g class="ticktext"><g stroke-width="0.0" stroke="none" fill="rgb(5%, 5%, 5%)" fill-opacity="1.0" font-size="0.0237" text-anchor="end"><text x="-0.4262" y="0.1209" transform="rotate(-45.0, -0.4262, 0.1209)">CDCL (adaptive)</text><text x="-0.3769" y="0.1209" transform="rotate(-45.0, -0.3769, 0.1209)">CDCL (adaptive, mVISDS, ExpRestart(100, 2))</text><text x="-0.3277" y="0.1209" transform="rotate(-45.0, -0.3277, 0.1209)">CDCL (adaptive, mVISDS, LubyRestart(100, 2))</text><text x="-0.2784" y="0.1209" transform="rotate(-45.0, -0.2784, 0.1209)">CDCL (adaptive, mVSIDS)</text><text x="-0.2292" y="0.1209" transform="rotate(-45.0, -0.2292, 0.1209)">CDCL (α = 0.75)</text><text x="-0.1799" y="0.1209" transform="rotate(-45.0, -0.1799, 0.1209)">CDCL (α = 0.75, mVISDS)</text><text x="-0.1306" y="0.1209" transform="rotate(-45.0, -0.1306, 0.1209)">CDCL (α = 0.75, mVISDS, ExpRestart(100, 2))</text><text x="-0.0814" y="0.1209" transform="rotate(-45.0, -0.0814, 0.1209)">CDCL (α = 0.75, mVISDS, LubyRestart(100, 2))</text><text x="-0.0321" y="0.1209" transform="rotate(-45.0, -0.0321, 0.1209)">CDCL (α = 0.95)</text><text x="0.0171" y="0.1209" transform="rotate(-45.0, 0.0171, 0.1209)">CDCL (α = 0.95, mVISDS)</text><text x="0.0664" y="0.1209" transform="rotate(-45.0, 0.0664, 0.1209)">CDCL (α = 0.95, mVISDS, ExpRestart(100, 2))</text><text x="0.1157" y="0.1209" transform="rotate(-45.0, 0.1157, 0.1209)">CDCL (α = 0.95, mVISDS, LubyRestart(100, 2))</text><text x="0.1649" y="0.1209" transform="rotate(-45.0, 0.1649, 0.1209)">DPLL</text><text x="0.2142" y="0.1209" transform="rotate(-45.0, 0.2142, 0.1209)">tableaux</text></g></g></g><g class="axisbar"><g stroke-width="0" stroke="rgb(0%, 0%, 0%)" stroke-opacity="0" fill="rgb(5%, 5%, 5%)" fill-opacity="0.4"><rect width="0.7681" height="0.0017" x="-0.4901" y="0.0862"/></g></g></g><g class="title"><g stroke-width="0.0" stroke="none" fill="rgb(5%, 5%, 5%)" fill-opacity="1.0" font-size="0.0568" text-anchor="middle"><text x="-0.2180" y="-0.3768">Time: huge/6/cnf</text></g></g><g class="legend"><g class="legendBorder"><g stroke-width="0.0017" stroke="rgb(5%, 5%, 5%)" stroke-opacity="1.0" fill="rgb(5%, 5%, 5%)" fill-opacity="0"><rect width="0.3534" height="0.4152" x="0.3593" y="-0.3150"/></g></g><g class="legendContent"><g stroke-width="0.0" stroke="none" fill="rgb(5%, 5%, 5%)" fill-opacity="1.0" font-size="0.0149" text-anchor="start"><text x="0.3676" y="0.0853">tableaux</text></g><g stroke-width="0" stroke="rgb(2%, 29%, 48%)" stroke-opacity="1.0" fill="rgb(46%, 22%, 3%)" fill-opacity="1.0"><rect width="0.0249" height="0.0219" x="0.6795" y="0.0711"/></g><g stroke-width="0.0" stroke="none" fill="rgb(5%, 5%, 5%)" fill-opacity="1.0" font-size="0.0149" text-anchor="start"><text x="0.3676" y="0.0562">DPLL</text></g><g stroke-width="0" stroke="rgb(2%, 29%, 48%)" stroke-opacity="1.0" fill="rgb(0%, 52%, 40%)" fill-opacity="1.0"><rect width="0.0249" height="0.0219" x="0.6795" y="0.0420"/></g><g stroke-width="0.0" stroke="none" fill="rgb(5%, 5%, 5%)" fill-opacity="1.0" font-size="0.0149" text-anchor="start"><text x="0.3676" y="0.0270">CDCL (α = 0.95, mVISDS, LubyRestart(100, 2))</text></g><g stroke-width="0" stroke="rgb(2%, 29%, 48%)" stroke-opacity="1.0" fill="rgb(17%, 40%, 67%)" fill-opacity="1.0"><rect width="0.0249" height="0.0219" x="0.6795" y="0.0128"/></g><g stroke-width="0.0" stroke="none" fill="rgb(5%, 5%, 5%)" fill-opacity="1.0" font-size="0.0149" text-anchor="start"><text x="0.3676" y="-0.0021">CDCL (α = 0.95, mVISDS, ExpRestart(100, 2))</text></g><g stroke-width="0" stroke="rgb(2%, 29%, 48%)" stroke-opacity="1.0" fill="rgb(62%, 0%, 31%)" fill-opacity="1.0"><rect width="0.0249" height="0.0219" x="0.6795" y="-0.0163"/></g><g stroke-width="0.0" stroke="none" fill="rgb(5%, 5%, 5%)" fill-opacity="1.0" font-size="0.0149" text-anchor="start"><text x="0.3676" y="-0.0312">CDCL (α = 0.95, mVISDS)</text></g><g stroke-width="0" stroke="rgb(2%, 29%, 48%)" stroke-opacity="1.0" fill="rgb(91%, 47%, 0%)" fill-opacity="1.0"><rect width="0.0249" height="0.0219" x="0.6795" y="-0.0455"/></g><g stroke-width="0.0" stroke="none" fill="rgb(5%, 5%, 5%)" fill-opacity="1.0" font-size="0.0149" text-anchor="start"><text x="0.3676" y="-0.0604">CDCL (α = 0.95)</text></g><g stroke-width="0" stroke="rgb(2%, 29%, 48%)" stroke-opacity="1.0" fill="rgb(0%, 64%, 70%)" fill-opacity="1.0"><rect width="0.0249" height="0.0219" x="0.6795" y="-0.0746"/></g><g stroke-width="0.0" stroke="none" fill="rgb(5%, 5%, 5%)" fill-opacity="1.0" font-size="0.0149" text-anchor="start"><text x="0.3676" y="-0.0895">CDCL (α = 0.75, mVISDS, LubyRestart(100, 2))</text></g><g stroke-width="0" stroke="rgb(2%, 29%, 48%)" stroke-opacity="1.0" fill="rgb(91%, 19%, 0%)" fill-opacity="1.0"><rect width="0.0249" height="0.0219" x="0.6795" y="-0.1037"/></g><g stroke-width="0.0" stroke="none" fill="rgb(5%, 5%, 5%)" fill-opacity="1.0" font-size="0.0149" text-anchor="start"><text x="0.3676" y="-0.1187">CDCL (α = 0.75, mVISDS, ExpRestart(100, 2))</text></g><g stroke-width="0" stroke="rgb(2%, 29%, 48%)" stroke-opacity="1.0" fill="rgb(38%, 23%, 0%)" fill-opacity="1.0"><rect width="0.0249" height="0.0219" x="0.6795" y="-0.1329"/></g><g stroke-width="0.0" stroke="none" fill="rgb(5%, 5%, 5%)" fill-opacity="1.0" font-size="0.0149" text-anchor="start"><text x="0.3676" y="-0.1478">CDCL (α = 0.75, mVISDS)</text></g><g stroke-width="0" stroke="rgb(2%, 29%, 48%)" stroke-opacity="1.0" fill="rgb(90%, 37%, 58%)" fill-opacity="1.0"><rect width="0.0249" height="0.0219" x="0.6795" y="-0.1620"/></g><g stroke-width="0.0" stroke="none" fill="rgb(5%, 5%, 5%)" fill-opacity="1.0" font-size="0.0149" text-anchor="start"><text x="0.3676" y="-0.1769">CDCL (α = 0.75)</text></g><g stroke-width="0" stroke="rgb(2%, 29%, 48%)" stroke-opacity="1.0" fill="rgb(0%, 72%, 98%)" fill-opacity="1.0"><rect width="0.0249" height="0.0219" x="0.6795" y="-0.1911"/></g><g stroke-width="0.0" stroke="none" fill="rgb(5%, 5%, 5%)" fill-opacity="1.0" font-size="0.0149" text-anchor="start"><text x="0.3676" y="-0.2061">CDCL (adaptive, mVSIDS)</text></g><g stroke-width="0" stroke="rgb(2%, 29%, 48%)" stroke-opacity="1.0" fill="rgb(1%, 28%, 43%)" fill-opacity="1.0"><rect width="0.0249" height="0.0219" x="0.6795" y="-0.2203"/></g><g stroke-width="0.0" stroke="none" fill="rgb(5%, 5%, 5%)" fill-opacity="1.0" font-size="0.0149" text-anchor="start"><text x="0.3676" y="-0.2352">CDCL (adaptive, mVISDS, LubyRestart(100, 2))</text></g><g stroke-width="0" stroke="rgb(2%, 29%, 48%)" stroke-opacity="1.0" fill="rgb(26%, 54%, 57%)" fill-opacity="1.0"><rect width="0.0249" height="0.0219" x="0.6795" y="-0.2494"/></g><g stroke-width="0.0" stroke="none" fill="rgb(5%, 5%, 5%)" fill-opacity="1.0" font-size="0.0149" text-anchor="start"><text x="0.3676" y="-0.2643">CDCL (adaptive, mVISDS, ExpRestart(100, 2))</text></g><g stroke-width="0" stroke="rgb(2%, 29%, 48%)" stroke-opacity="1.0" fill="rgb(0%, 25%, 37%)" fill-opacity="1.0"><rect width="0.0249" height="0.0219" x="0.6795" y="-0.2786"/></g><g stroke-width="0.0" stroke="none" fill="rgb(5%, 5%, 5%)" fill-opacity="1.0" font-size="0.0149" text-anchor="start"><text x="0.3676" y="-0.2935">CDCL (adaptive)</text></g><g stroke-width="0" stroke="rgb(2%, 29%, 48%)" stroke-opacity="1.0" fill="rgb(0%, 30%, 12%)" fill-opacity="1.0"><rect width="0.0249" height="0.0219" x="0.6795" y="-0.3077"/></g></g></g><g class="frame"><g stroke-width="0" stroke="rgb(0%, 0%, 0%)" stroke-opacity="0" fill="rgb(100%, 100%, 100%)" fill-opacity="0.02"><rect width="1.6180" height="1.0" x="-0.8090" y="-0.5"/></g></g><g class="title"><g stroke-width="0.0" stroke="none" fill="rgb(5%, 5%, 5%)" fill-opacity="1.0" font-size="0.0284" text-anchor="middle"><text x="-0.7418" y="0" transform="rotate(-90.0, -0.7418, 0)">Time [ms]</text></g></g></g></svg>