<svg xmlns="http://www.w3.org/2000/svg" xmlns:xlink="http://www.w3.org/1999/xlink" width="464" height="300" viewBox="-0.8090 -0.5000 1.6180 1.0446"><style>svg {
  color-scheme: light dark;
}
{
  .canvas g, .title g, .axisbar g, .ticktext g, .tickglyph g, .ticklines g, .legendContent g text {
    fill: rgb(5%, 5%, 5%);
  }
  .ticklines g, .tickglyph g, .legendBorder g {
    stroke: rgb(5%, 5%, 5%);
  }
  .legendBorder g {
    fill: rgb(94%, 94%, 94%);
  }
}
@media (prefers-color-scheme:dark) {
  .canvas g, .title g, .axisbar g, .ticktext g, .tickglyph g, .ticklines g, .legendContent g text {
    fill: rgb(94%, 94%, 94%);
  }
  .ticklines g, .tickglyph g, .legendBorder g {
    stroke: rgb(94%, 94%, 94%);
  }
  .legendBorder g {
    fill: rgb(5%, 5%, 5%);
  }
}</style><g class="chart"><g class="barchart"><g stroke-width="0" stroke="rgb(2%, 29%, 48%)" stroke-opacity="1.0" fill="rgb(0%, 30%, 12%)" fill-opacity="1.0"><rect width="0.0246" height="0.1011" x="-0.4238" y="0.0312"/></g><g stroke-width="0.0010" stroke="rgb(0%, 30%, 12%)" stroke-opacity="1.0" fill="rgb(0%, 30%, 12%)" fill-opacity="0.25"><rect width="0.0246" height="0.1709" x="-0.3992" y="-0.0386"/></g><g stroke-width="0" stroke="rgb(2%, 29%, 48%)" stroke-opacity="1.0" fill="rgb(0%, 25%, 37%)" fill-opacity="1.0"><rect width="0.0246" height="0.1113" x="-0.3746" y="0.0210"/></g><g stroke-width="0.0010" stroke="rgb(0%, 25%, 37%)" stroke-opacity="1.0" fill="rgb(0%, 25%, 37%)" fill-opacity="0.25"><rect width="0.0246" height="0.1697" x="-0.3499" y="-0.0375"/></g><g stroke-width="0" stroke="rgb(2%, 29%, 48%)" stroke-opacity="1.0" fill="rgb(26%, 54%, 57%)" fill-opacity="1.0"><rect width="0.0246" height="0.0998" x="-0.3253" y="0.0325"/></g><g stroke-width="0.0010" stroke="rgb(26%, 54%, 57%)" stroke-opacity="1.0" fill="rgb(26%, 54%, 57%)" fill-opacity="0.25"><rect width="0.0246" height="0.1682" x="-0.3006" y="-0.0360"/></g><g stroke-width="0" stroke="rgb(2%, 29%, 48%)" stroke-opacity="1.0" fill="rgb(1%, 28%, 43%)" fill-opacity="1.0"><rect width="0.0246" height="0.1035" x="-0.2760" y="0.0287"/></g><g stroke-width="0.0010" stroke="rgb(1%, 28%, 43%)" stroke-opacity="1.0" fill="rgb(1%, 28%, 43%)" fill-opacity="0.25"><rect width="0.0246" height="0.1787" x="-0.2513" y="-0.0465"/></g><g stroke-width="0" stroke="rgb(2%, 29%, 48%)" stroke-opacity="1.0" fill="rgb(0%, 72%, 98%)" fill-opacity="1.0"><rect width="0.0246" height="0.1071" x="-0.2267" y="0.0251"/></g><g stroke-width="0.0010" stroke="rgb(0%, 72%, 98%)" stroke-opacity="1.0" fill="rgb(0%, 72%, 98%)" fill-opacity="0.25"><rect width="0.0246" height="0.1747" x="-0.2021" y="-0.0425"/></g><g stroke-width="0" stroke="rgb(2%, 29%, 48%)" stroke-opacity="1.0" fill="rgb(90%, 37%, 58%)" fill-opacity="1.0"><rect width="0.0246" height="0.1094" x="-0.1774" y="0.0229"/></g><g stroke-width="0.0010" stroke="rgb(90%, 37%, 58%)" stroke-opacity="1.0" fill="rgb(90%, 37%, 58%)" fill-opacity="0.25"><rect width="0.0246" height="0.1678" x="-0.1528" y="-0.0355"/></g><g stroke-width="0" stroke="rgb(2%, 29%, 48%)" stroke-opacity="1.0" fill="rgb(38%, 23%, 0%)" fill-opacity="1.0"><rect width="0.0246" height="0.1092" x="-0.1281" y="0.0230"/></g><g stroke-width="0.0010" stroke="rgb(38%, 23%, 0%)" stroke-opacity="1.0" fill="rgb(38%, 23%, 0%)" fill-opacity="0.25"><rect width="0.0246" height="0.1727" x="-0.1035" y="-0.0405"/></g><g stroke-width="0" stroke="rgb(2%, 29%, 48%)" stroke-opacity="1.0" fill="rgb(91%, 19%, 0%)" fill-opacity="1.0"><rect width="0.0246" height="0.1073" x="-0.0788" y="0.0250"/></g><g stroke-width="0.0010" stroke="rgb(91%, 19%, 0%)" stroke-opacity="1.0" fill="rgb(91%, 19%, 0%)" fill-opacity="0.25"><rect width="0.0246" height="0.1704" x="-0.0542" y="-0.0382"/></g><g stroke-width="0" stroke="rgb(2%, 29%, 48%)" stroke-opacity="1.0" fill="rgb(0%, 64%, 70%)" fill-opacity="1.0"><rect width="0.0246" height="0.1002" x="-0.0296" y="0.0321"/></g><g stroke-width="0.0010" stroke="rgb(0%, 64%, 70%)" stroke-opacity="1.0" fill="rgb(0%, 64%, 70%)" fill-opacity="0.25"><rect width="0.0246" height="0.1724" x="-0.0049" y="-0.0402"/></g><g stroke-width="0" stroke="rgb(2%, 29%, 48%)" stroke-opacity="1.0" fill="rgb(91%, 47%, 0%)" fill-opacity="1.0"><rect width="0.0246" height="0.1097" x="0.0197" y="0.0226"/></g><g stroke-width="0.0010" stroke="rgb(91%, 47%, 0%)" stroke-opacity="1.0" fill="rgb(91%, 47%, 0%)" fill-opacity="0.25"><rect width="0.0246" height="0.1655" x="0.0444" y="-0.0333"/></g><g stroke-width="0" stroke="rgb(2%, 29%, 48%)" stroke-opacity="1.0" fill="rgb(62%, 0%, 31%)" fill-opacity="1.0"><rect width="0.0246" height="0.0998" x="0.0690" y="0.0324"/></g><g stroke-width="0.0010" stroke="rgb(62%, 0%, 31%)" stroke-opacity="1.0" fill="rgb(62%, 0%, 31%)" fill-opacity="0.25"><rect width="0.0246" height="0.1706" x="0.0936" y="-0.0383"/></g><g stroke-width="0" stroke="rgb(2%, 29%, 48%)" stroke-opacity="1.0" fill="rgb(17%, 40%, 67%)" fill-opacity="1.0"><rect width="0.0246" height="0.1082" x="0.1183" y="0.0240"/></g><g stroke-width="0.0010" stroke="rgb(17%, 40%, 67%)" stroke-opacity="1.0" fill="rgb(17%, 40%, 67%)" fill-opacity="0.25"><rect width="0.0246" height="0.1685" x="0.1429" y="-0.0363"/></g><g stroke-width="0" stroke="rgb(2%, 29%, 48%)" stroke-opacity="1.0" fill="rgb(0%, 52%, 40%)" fill-opacity="1.0"><rect width="0.0246" height="0.1768" x="0.1676" y="-0.0446"/></g><g stroke-width="0.0010" stroke="rgb(0%, 52%, 40%)" stroke-opacity="1.0" fill="rgb(0%, 52%, 40%)" fill-opacity="0.25"><rect width="0.0246" height="0.3096" x="0.1922" y="-0.1773"/></g></g><g class="errors"></g></g><g class="hud"><g class="axis"><g class="ticks"><g class="tickglyph"><g stroke-width="0.0040" stroke="rgb(5%, 5%, 5%)" stroke-opacity="0.4" fill="rgb(5%, 5%, 5%)" fill-opacity="0.4"><g transform="rotate(-90.0, -0.4726, 0.1322)"><polyline points="-0.4726,0.1472
-0.4726,0.1172"/></g><g transform="rotate(-90.0, -0.4726, 0.1035)"><polyline points="-0.4726,0.1185
-0.4726,0.0885"/></g><g transform="rotate(-90.0, -0.4726, 0.0748)"><polyline points="-0.4726,0.0898
-0.4726,0.0598"/></g><g transform="rotate(-90.0, -0.4726, 0.0460)"><polyline points="-0.4726,0.0610
-0.4726,0.0310"/></g><g transform="rotate(-90.0, -0.4726, 0.0173)"><polyline points="-0.4726,0.0323
-0.4726,0.0023"/></g><g transform="rotate(-90.0, -0.4726, -0.0114)"><polyline points="-0.4726,0.0036
-0.4726,-0.0264"/></g><g transform="rotate(-90.0, -0.4726, -0.0401)"><polyline points="-0.4726,-0.0251
-0.4726,-0.0551"/></g><g transform="rotate(-90.0, -0.4726, -0.0689)"><polyline points="-0.4726,-0.0539
-0.4726,-0.0839"/></g><g transform="rotate(-90.0, -0.4726, -0.0976)"><polyline points="-0.4726,-0.0826
-0.4726,-0.1126"/></g><g transform="rotate(-90.0, -0.4726, -0.1263)"><polyline points="-0.4726,-0.1113
-0.4726,-0.1413"/></g><g transform="rotate(-90.0, -0.4726, -0.1551)"><polyline points="-0.4726,-0.1401
-0.4726,-0.1701"/></g><g transform="rotate(-90.0, -0.4726, -0.1838)"><polyline points="-0.4726,-0.1688
-0.4726,-0.1988"/></g></g></g><g class="ticktext"><g stroke-width="0.0" stroke="none" fill="rgb(5%, 5%, 5%)" fill-opacity="1.0" font-size="0.0220" text-anchor="end"><text x="-0.4885" y="0.1366"> 0</text><text x="-0.4885" y="0.1078"> 2</text><text x="-0.4885" y="0.0791"> 4</text><text x="-0.4885" y="0.0504"> 6</text><text x="-0.4885" y="0.0217"> 8</text><text x="-0.4885" y="-0.0071">10</text><text x="-0.4885" y="-0.0358">12</text><text x="-0.4885" y="-0.0645">14</text><text x="-0.4885" y="-0.0933">16</text><text x="-0.4885" y="-0.1220">18</text><text x="-0.4885" y="-0.1507">20</text><text x="-0.4885" y="-0.1794">22</text></g></g><g class="ticklines"><g stroke-width="0.0050" stroke="rgb(5%, 5%, 5%)" stroke-opacity="0.05" fill="none"><polyline points="-0.4594,0.1322 0.2525,0.1322"/><polyline points="-0.4594,0.1035 0.2525,0.1035"/><polyline points="-0.4594,0.0748 0.2525,0.0748"/><polyline points="-0.4594,0.0460 0.2525,0.0460"/><polyline points="-0.4594,0.0173 0.2525,0.0173"/><polyline points="-0.4594,-0.0114 0.2525,-0.0114"/><polyline points="-0.4594,-0.0401 0.2525,-0.0401"/><polyline points="-0.4594,-0.0689 0.2525,-0.0689"/><polyline points="-0.4594,-0.0976 0.2525,-0.0976"/><polyline points="-0.4594,-0.1263 0.2525,-0.1263"/><polyline points="-0.4594,-0.1551 0.2525,-0.1551"/><polyline points="-0.4594,-0.1838 0.2525,-0.1838"/></g></g></g><g class="axisbar"><g stroke-width="0" stroke="rgb(0%, 0%, 0%)" stroke-opacity="0" fill="rgb(5%, 5%, 5%)" fill-opacity="0.4"><rect width="0.0018" height="0.3173" x="-0.4656" y="-0.1844"/></g></g></g><g class="axis"><g class="ticks"><g class="tickglyph"><g stroke-width="0.0040" stroke="rgb(5%, 5%, 5%)" stroke-opacity="0.4" fill="rgb(5%, 5%, 5%)" fill-opacity="0.4"><polyline points="-0.4115,0.1569
-0.4115,0.1269"/><polyline points="-0.3869,0.1569
-0.3869,0.1269"/><polyline points="-0.3622,0.1569
-0.3622,0.1269"/><polyline points="-0.3376,0.1569
-0.3376,0.1269"/><polyline points="-0.3129,0.1569
-0.3129,0.1269"/><polyline points="-0.2883,0.1569
-0.2883,0.1269"/><polyline points="-0.2637,0.1569
-0.2637,0.1269"/><polyline points="-0.2390,0.1569
-0.2390,0.1269"/><polyline points="-0.2144,0.1569
-0.2144,0.1269"/><polyline points="-0.1897,0.1569
-0.1897,0.1269"/><polyline points="-0.1651,0.1569
-0.1651,0.1269"/><polyline points="-0.1405,0.1569
-0.1405,0.1269"/><polyline points="-0.1158,0.1569
-0.1158,0.1269"/><polyline points="-0.0912,0.1569
-0.0912,0.1269"/><polyline points="-0.0665,0.1569
-0.0665,0.1269"/><polyline points="-0.0419,0.1569
-0.0419,0.1269"/><polyline points="-0.0172,0.1569
-0.0172,0.1269"/><polyline points="0.0074,0.1569
0.0074,0.1269"/><polyline points="0.0320,0.1569
0.0320,0.1269"/><polyline points="0.0567,0.1569
0.0567,0.1269"/><polyline points="0.0813,0.1569
0.0813,0.1269"/><polyline points="0.1060,0.1569
0.1060,0.1269"/><polyline points="0.1306,0.1569
0.1306,0.1269"/><polyline points="0.1553,0.1569
0.1553,0.1269"/><polyline points="0.1799,0.1569
0.1799,0.1269"/><polyline points="0.2045,0.1569
0.2045,0.1269"/></g></g><g class="ticktext"><g stroke-width="0.0" stroke="none" fill="rgb(5%, 5%, 5%)" fill-opacity="1.0" font-size="0.0220" text-anchor="end"><text x="-0.4115" y="0.1619" transform="rotate(-45.0, -0.4115, 0.1619)">CDCL (adaptive)</text><text x="-0.3869" y="0.1619" transform="rotate(-45.0, -0.3869, 0.1619)">CDCL (adaptive), Baseline</text><text x="-0.3622" y="0.1619" transform="rotate(-45.0, -0.3622, 0.1619)">CDCL (adaptive, mVISDS, ExpRestart(100, 2))</text><text x="-0.3376" y="0.1619" transform="rotate(-45.0, -0.3376, 0.1619)">CDCL (adaptive, mVISDS, ExpRestart(100, 2)), Baseline</text><text x="-0.3129" y="0.1619" transform="rotate(-45.0, -0.3129, 0.1619)">CDCL (adaptive, mVISDS, LubyRestart(100, 2))</text><text x="-0.2883" y="0.1619" transform="rotate(-45.0, -0.2883, 0.1619)">CDCL (adaptive, mVISDS, LubyRestart(100, 2)), Baseline</text><text x="-0.2637" y="0.1619" transform="rotate(-45.0, -0.2637, 0.1619)">CDCL (adaptive, mVSIDS)</text><text x="-0.2390" y="0.1619" transform="rotate(-45.0, -0.2390, 0.1619)">CDCL (adaptive, mVSIDS), Baseline</text><text x="-0.2144" y="0.1619" transform="rotate(-45.0, -0.2144, 0.1619)">CDCL (α = 0.75)</text><text x="-0.1897" y="0.1619" transform="rotate(-45.0, -0.1897, 0.1619)">CDCL (α = 0.75), Baseline</text><text x="-0.1651" y="0.1619" transform="rotate(-45.0, -0.1651, 0.1619)">CDCL (α = 0.75, mVISDS)</text><text x="-0.1405" y="0.1619" transform="rotate(-45.0, -0.1405, 0.1619)">CDCL (α = 0.75, mVISDS), Baseline</text><text x="-0.1158" y="0.1619" transform="rotate(-45.0, -0.1158, 0.1619)">CDCL (α = 0.75, mVISDS, ExpRestart(100, 2))</text><text x="-0.0912" y="0.1619" transform="rotate(-45.0, -0.0912, 0.1619)">CDCL (α = 0.75, mVISDS, ExpRestart(100, 2)), Baseline</text><text x="-0.0665" y="0.1619" transform="rotate(-45.0, -0.0665, 0.1619)">CDCL (α = 0.75, mVISDS, LubyRestart(100, 2))</text><text x="-0.0419" y="0.1619" transform="rotate(-45.0, -0.0419, 0.1619)">CDCL (α = 0.75, mVISDS, LubyRestart(100, 2)), Baseline</text><text x="-0.0172" y="0.1619" transform="rotate(-45.0, -0.0172, 0.1619)">CDCL (α = 0.95)</text><text x="0.0074" y="0.1619" transform="rotate(-45.0, 0.0074, 0.1619)">CDCL (α = 0.95), Baseline</text><text x="0.0320" y="0.1619" transform="rotate(-45.0, 0.0320, 0.1619)">CDCL (α = 0.95, mVISDS)</text><text x="0.0567" y="0.1619" transform="rotate(-45.0, 0.0567, 0.1619)">CDCL (α = 0.95, mVISDS), Baseline</text><text x="0.0813" y="0.1619" transform="rotate(-45.0, 0.0813, 0.1619)">CDCL (α = 0.95, mVISDS, ExpRestart(100, 2))</text><text x="0.1060" y="0.1619" transform="rotate(-45.0, 0.1060, 0.1619)">CDCL (α = 0.95, mVISDS, ExpRestart(100, 2)), Baseline</text><text x="0.1306" y="0.1619" transform="rotate(-45.0, 0.1306, 0.1619)">CDCL (α = 0.95, mVISDS, LubyRestart(100, 2))</text><text x="0.1553" y="0.1619" transform="rotate(-45.0, 0.1553, 0.1619)">CDCL (α = 0.95, mVISDS, LubyRestart(100, 2)), Baseline</text><text x="0.1799" y="0.1619" transform="rotate(-45.0, 0.1799, 0.1619)">DPLL</text><text x="0.2045" y="0.1619" transform="rotate(-45.0, 0.2045, 0.1619)">DPLL, Baseline</text></g></g></g><g class="axisbar"><g stroke-width="0" stroke="rgb(0%, 0%, 0%)" stroke-opacity="0" fill="rgb(5%, 5%, 5%)" fill-opacity="0.4"><rect width="0.7136" height="0.0013" x="-0.4603" y="0.1355"/></g></g></g><g class="title"><g stroke-width="0.0" stroke="none" fill="rgb(5%, 5%, 5%)" fill-opacity="1.0" font-size="0.0528" text-anchor="middle"><text x="-0.2337" y="-0.2161">Copied: SATLIB/uf20-91/uf20-040/cnf</text></g></g><g class="legend"><g class="legendBorder"><g stroke-width="0.0017" stroke="rgb(5%, 5%, 5%)" stroke-opacity="1.0" fill="rgb(5%, 5%, 5%)" fill-opacity="0"><rect width="0.3907" height="0.5818" x="0.3288" y="-0.4357"/></g></g><g class="legendContent"><g stroke-width="0.0" stroke="none" fill="rgb(5%, 5%, 5%)" fill-opacity="1.0" font-size="0.0139" text-anchor="start"><text x="0.3365" y="0.1347">DPLL, Baseline</text></g><g stroke-width="0.0002" stroke="rgb(0%, 52%, 40%)" stroke-opacity="1.0" fill="rgb(0%, 52%, 40%)" fill-opacity="0.25"><rect width="0.0231" height="0.0166" x="0.6886" y="0.1239"/></g><g stroke-width="0.0" stroke="none" fill="rgb(5%, 5%, 5%)" fill-opacity="1.0" font-size="0.0139" text-anchor="start"><text x="0.3365" y="0.1125">DPLL</text></g><g stroke-width="0" stroke="rgb(2%, 29%, 48%)" stroke-opacity="1.0" fill="rgb(0%, 52%, 40%)" fill-opacity="1.0"><rect width="0.0231" height="0.0166" x="0.6886" y="0.1018"/></g><g stroke-width="0.0" stroke="none" fill="rgb(5%, 5%, 5%)" fill-opacity="1.0" font-size="0.0139" text-anchor="start"><text x="0.3365" y="0.0904">CDCL (α = 0.95, mVISDS, LubyRestart(100, 2)), Baseline</text></g><g stroke-width="0.0002" stroke="rgb(17%, 40%, 67%)" stroke-opacity="1.0" fill="rgb(17%, 40%, 67%)" fill-opacity="0.25"><rect width="0.0231" height="0.0166" x="0.6886" y="0.0796"/></g><g stroke-width="0.0" stroke="none" fill="rgb(5%, 5%, 5%)" fill-opacity="1.0" font-size="0.0139" text-anchor="start"><text x="0.3365" y="0.0682">CDCL (α = 0.95, mVISDS, LubyRestart(100, 2))</text></g><g stroke-width="0" stroke="rgb(2%, 29%, 48%)" stroke-opacity="1.0" fill="rgb(17%, 40%, 67%)" fill-opacity="1.0"><rect width="0.0231" height="0.0166" x="0.6886" y="0.0574"/></g><g stroke-width="0.0" stroke="none" fill="rgb(5%, 5%, 5%)" fill-opacity="1.0" font-size="0.0139" text-anchor="start"><text x="0.3365" y="0.0461">CDCL (α = 0.95, mVISDS, ExpRestart(100, 2)), Baseline</text></g><g stroke-width="0.0002" stroke="rgb(62%, 0%, 31%)" stroke-opacity="1.0" fill="rgb(62%, 0%, 31%)" fill-opacity="0.25"><rect width="0.0231" height="0.0166" x="0.6886" y="0.0353"/></g><g stroke-width="0.0" stroke="none" fill="rgb(5%, 5%, 5%)" fill-opacity="1.0" font-size="0.0139" text-anchor="start"><text x="0.3365" y="0.0239">CDCL (α = 0.95, mVISDS, ExpRestart(100, 2))</text></g><g stroke-width="0" stroke="rgb(2%, 29%, 48%)" stroke-opacity="1.0" fill="rgb(62%, 0%, 31%)" fill-opacity="1.0"><rect width="0.0231" height="0.0166" x="0.6886" y="0.0131"/></g><g stroke-width="0.0" stroke="none" fill="rgb(5%, 5%, 5%)" fill-opacity="1.0" font-size="0.0139" text-anchor="start"><text x="0.3365" y="0.0017">CDCL (α = 0.95, mVISDS), Baseline</text></g><g stroke-width="0.0002" stroke="rgb(91%, 47%, 0%)" stroke-opacity="1.0" fill="rgb(91%, 47%, 0%)" fill-opacity="0.25"><rect width="0.0231" height="0.0166" x="0.6886" y="-0.0090"/></g><g stroke-width="0.0" stroke="none" fill="rgb(5%, 5%, 5%)" fill-opacity="1.0" font-size="0.0139" text-anchor="start"><text x="0.3365" y="-0.0204">CDCL (α = 0.95, mVISDS)</text></g><g stroke-width="0" stroke="rgb(2%, 29%, 48%)" stroke-opacity="1.0" fill="rgb(91%, 47%, 0%)" fill-opacity="1.0"><rect width="0.0231" height="0.0166" x="0.6886" y="-0.0312"/></g><g stroke-width="0.0" stroke="none" fill="rgb(5%, 5%, 5%)" fill-opacity="1.0" font-size="0.0139" text-anchor="start"><text x="0.3365" y="-0.0426">CDCL (α = 0.95), Baseline</text></g><g stroke-width="0.0002" stroke="rgb(0%, 64%, 70%)" stroke-opacity="1.0" fill="rgb(0%, 64%, 70%)" fill-opacity="0.25"><rect width="0.0231" height="0.0166" x="0.6886" y="-0.0534"/></g><g stroke-width="0.0" stroke="none" fill="rgb(5%, 5%, 5%)" fill-opacity="1.0" font-size="0.0139" text-anchor="start"><text x="0.3365" y="-0.0648">CDCL (α = 0.95)</text></g><g stroke-width="0" stroke="rgb(2%, 29%, 48%)" stroke-opacity="1.0" fill="rgb(0%, 64%, 70%)" fill-opacity="1.0"><rect width="0.0231" height="0.0166" x="0.6886" y="-0.0755"/></g><g stroke-width="0.0" stroke="none" fill="rgb(5%, 5%, 5%)" fill-opacity="1.0" font-size="0.0139" text-anchor="start"><text x="0.3365" y="-0.0869">CDCL (α = 0.75, mVISDS, LubyRestart(100, 2)), Baseline</text></g><g stroke-width="0.0002" stroke="rgb(91%, 19%, 0%)" stroke-opacity="1.0" fill="rgb(91%, 19%, 0%)" fill-opacity="0.25"><rect width="0.0231" height="0.0166" x="0.6886" y="-0.0977"/></g><g stroke-width="0.0" stroke="none" fill="rgb(5%, 5%, 5%)" fill-opacity="1.0" font-size="0.0139" text-anchor="start"><text x="0.3365" y="-0.1091">CDCL (α = 0.75, mVISDS, LubyRestart(100, 2))</text></g><g stroke-width="0" stroke="rgb(2%, 29%, 48%)" stroke-opacity="1.0" fill="rgb(91%, 19%, 0%)" fill-opacity="1.0"><rect width="0.0231" height="0.0166" x="0.6886" y="-0.1199"/></g><g stroke-width="0.0" stroke="none" fill="rgb(5%, 5%, 5%)" fill-opacity="1.0" font-size="0.0139" text-anchor="start"><text x="0.3365" y="-0.1312">CDCL (α = 0.75, mVISDS, ExpRestart(100, 2)), Baseline</text></g><g stroke-width="0.0002" stroke="rgb(38%, 23%, 0%)" stroke-opacity="1.0" fill="rgb(38%, 23%, 0%)" fill-opacity="0.25"><rect width="0.0231" height="0.0166" x="0.6886" y="-0.1420"/></g><g stroke-width="0.0" stroke="none" fill="rgb(5%, 5%, 5%)" fill-opacity="1.0" font-size="0.0139" text-anchor="start"><text x="0.3365" y="-0.1534">CDCL (α = 0.75, mVISDS, ExpRestart(100, 2))</text></g><g stroke-width="0" stroke="rgb(2%, 29%, 48%)" stroke-opacity="1.0" fill="rgb(38%, 23%, 0%)" fill-opacity="1.0"><rect width="0.0231" height="0.0166" x="0.6886" y="-0.1642"/></g><g stroke-width="0.0" stroke="none" fill="rgb(5%, 5%, 5%)" fill-opacity="1.0" font-size="0.0139" text-anchor="start"><text x="0.3365" y="-0.1756">CDCL (α = 0.75, mVISDS), Baseline</text></g><g stroke-width="0.0002" stroke="rgb(90%, 37%, 58%)" stroke-opacity="1.0" fill="rgb(90%, 37%, 58%)" fill-opacity="0.25"><rect width="0.0231" height="0.0166" x="0.6886" y="-0.1864"/></g><g stroke-width="0.0" stroke="none" fill="rgb(5%, 5%, 5%)" fill-opacity="1.0" font-size="0.0139" text-anchor="start"><text x="0.3365" y="-0.1977">CDCL (α = 0.75, mVISDS)</text></g><g stroke-width="0" stroke="rgb(2%, 29%, 48%)" stroke-opacity="1.0" fill="rgb(90%, 37%, 58%)" fill-opacity="1.0"><rect width="0.0231" height="0.0166" x="0.6886" y="-0.2085"/></g><g stroke-width="0.0" stroke="none" fill="rgb(5%, 5%, 5%)" fill-opacity="1.0" font-size="0.0139" text-anchor="start"><text x="0.3365" y="-0.2199">CDCL (α = 0.75), Baseline</text></g><g stroke-width="0.0002" stroke="rgb(0%, 72%, 98%)" stroke-opacity="1.0" fill="rgb(0%, 72%, 98%)" fill-opacity="0.25"><rect width="0.0231" height="0.0166" x="0.6886" y="-0.2307"/></g><g stroke-width="0.0" stroke="none" fill="rgb(5%, 5%, 5%)" fill-opacity="1.0" font-size="0.0139" text-anchor="start"><text x="0.3365" y="-0.2421">CDCL (α = 0.75)</text></g><g stroke-width="0" stroke="rgb(2%, 29%, 48%)" stroke-opacity="1.0" fill="rgb(0%, 72%, 98%)" fill-opacity="1.0"><rect width="0.0231" height="0.0166" x="0.6886" y="-0.2529"/></g><g stroke-width="0.0" stroke="none" fill="rgb(5%, 5%, 5%)" fill-opacity="1.0" font-size="0.0139" text-anchor="start"><text x="0.3365" y="-0.2642">CDCL (adaptive, mVSIDS), Baseline</text></g><g stroke-width="0.0002" stroke="rgb(1%, 28%, 43%)" stroke-opacity="1.0" fill="rgb(1%, 28%, 43%)" fill-opacity="0.25"><rect width="0.0231" height="0.0166" x="0.6886" y="-0.2750"/></g><g stroke-width="0.0" stroke="none" fill="rgb(5%, 5%, 5%)" fill-opacity="1.0" font-size="0.0139" text-anchor="start"><text x="0.3365" y="-0.2864">CDCL (adaptive, mVSIDS)</text></g><g stroke-width="0" stroke="rgb(2%, 29%, 48%)" stroke-opacity="1.0" fill="rgb(1%, 28%, 43%)" fill-opacity="1.0"><rect width="0.0231" height="0.0166" x="0.6886" y="-0.2972"/></g><g stroke-width="0.0" stroke="none" fill="rgb(5%, 5%, 5%)" fill-opacity="1.0" font-size="0.0139" text-anchor="start"><text x="0.3365" y="-0.3085">CDCL (adaptive, mVISDS, LubyRestart(100, 2)), Baseline</text></g><g stroke-width="0.0002" stroke="rgb(26%, 54%, 57%)" stroke-opacity="1.0" fill="rgb(26%, 54%, 57%)" fill-opacity="0.25"><rect width="0.0231" height="0.0166" x="0.6886" y="-0.3193"/></g><g stroke-width="0.0" stroke="none" fill="rgb(5%, 5%, 5%)" fill-opacity="1.0" font-size="0.0139" text-anchor="start"><text x="0.3365" y="-0.3307">CDCL (adaptive, mVISDS, LubyRestart(100, 2))</text></g><g stroke-width="0" stroke="rgb(2%, 29%, 48%)" stroke-opacity="1.0" fill="rgb(26%, 54%, 57%)" fill-opacity="1.0"><rect width="0.0231" height="0.0166" x="0.6886" y="-0.3415"/></g><g stroke-width="0.0" stroke="none" fill="rgb(5%, 5%, 5%)" fill-opacity="1.0" font-size="0.0139" text-anchor="start"><text x="0.3365" y="-0.3529">CDCL (adaptive, mVISDS, ExpRestart(100, 2)), Baseline</text></g><g stroke-width="0.0002" stroke="rgb(0%, 25%, 37%)" stroke-opacity="1.0" fill="rgb(0%, 25%, 37%)" fill-opacity="0.25"><rect width="0.0231" height="0.0166" x="0.6886" y="-0.3637"/></g><g stroke-width="0.0" stroke="none" fill="rgb(5%, 5%, 5%)" fill-opacity="1.0" font-size="0.0139" text-anchor="start"><text x="0.3365" y="-0.3750">CDCL (adaptive, mVISDS, ExpRestart(100, 2))</text></g><g stroke-width="0" stroke="rgb(2%, 29%, 48%)" stroke-opacity="1.0" fill="rgb(0%, 25%, 37%)" fill-opacity="1.0"><rect width="0.0231" height="0.0166" x="0.6886" y="-0.3858"/></g><g stroke-width="0.0" stroke="none" fill="rgb(5%, 5%, 5%)" fill-opacity="1.0" font-size="0.0139" text-anchor="start"><text x="0.3365" y="-0.3972">CDCL (adaptive), Baseline</text></g><g stroke-width="0.0002" stroke="rgb(0%, 30%, 12%)" stroke-opacity="1.0" fill="rgb(0%, 30%, 12%)" fill-opacity="0.25"><rect width="0.0231" height="0.0166" x="0.6886" y="-0.4080"/></g><g stroke-width="0.0" stroke="none" fill="rgb(5%, 5%, 5%)" fill-opacity="1.0" font-size="0.0139" text-anchor="start"><text x="0.3365" y="-0.4194">CDCL (adaptive)</text></g><g stroke-width="0" stroke="rgb(2%, 29%, 48%)" stroke-opacity="1.0" fill="rgb(0%, 30%, 12%)" fill-opacity="1.0"><rect width="0.0231" height="0.0166" x="0.6886" y="-0.4302"/></g></g></g><g class="frame"><g stroke-width="0" stroke="rgb(0%, 0%, 0%)" stroke-opacity="0" fill="rgb(100%, 100%, 100%)" fill-opacity="0.02"><rect width="1.6180" height="1.0000" x="-0.8090" y="-0.5000"/></g></g><g class="title"><g stroke-width="0.0" stroke="none" fill="rgb(5%, 5%, 5%)" fill-opacity="1.0" font-size="0.0264" text-anchor="middle"><text x="-0.7465" y="0" transform="rotate(-90.0, -0.7465, 0)">Copied [KiB]</text></g></g></g></svg>