<svg xmlns="http://www.w3.org/2000/svg" xmlns:xlink="http://www.w3.org/1999/xlink" width="459" height="300" viewBox="-0.8090 -0.5 1.6180 1.0575"><style>svg {
  color-scheme: light dark;
}
{
  .canvas g, .title g, .axisbar g, .ticktext g, .tickglyph g, .ticklines g, .legendContent g text {
    fill: rgb(5%, 5%, 5%);
  }
  .ticklines g, .tickglyph g, .legendBorder g {
    stroke: rgb(5%, 5%, 5%);
  }
  .legendBorder g {
    fill: rgb(94%, 94%, 94%);
  }
}
@media (prefers-color-scheme:dark) {
  .canvas g, .title g, .axisbar g, .ticktext g, .tickglyph g, .ticklines g, .legendContent g text {
    fill: rgb(94%, 94%, 94%);
  }
  .ticklines g, .tickglyph g, .legendBorder g {
    stroke: rgb(94%, 94%, 94%);
  }
  .legendBorder g {
    fill: rgb(5%, 5%, 5%);
  }
}</style><g class="chart"><g class="barchart"><g stroke-width="0" stroke="rgb(2%, 29%, 48%)" stroke-opacity="1.0" fill="rgb(0%, 30%, 12%)" fill-opacity="1.0"><rect width="0.0228" height="0.0500" x="-0.4192" y="0.0978"/></g><g stroke-width="0.0010" stroke="rgb(0%, 30%, 12%)" stroke-opacity="1.0" fill="rgb(0%, 30%, 12%)" fill-opacity="0.25"><rect width="0.0228" height="0.0456" x="-0.3964" y="0.1023"/></g><g stroke-width="0" stroke="rgb(2%, 29%, 48%)" stroke-opacity="1.0" fill="rgb(0%, 25%, 37%)" fill-opacity="1.0"><rect width="0.0228" height="0.0475" x="-0.3736" y="0.1003"/></g><g stroke-width="0.0010" stroke="rgb(0%, 25%, 37%)" stroke-opacity="1.0" fill="rgb(0%, 25%, 37%)" fill-opacity="0.25"><rect width="0.0228" height="0.0457" x="-0.3508" y="0.1022"/></g><g stroke-width="0" stroke="rgb(2%, 29%, 48%)" stroke-opacity="1.0" fill="rgb(26%, 54%, 57%)" fill-opacity="1.0"><rect width="0.0228" height="0.0479" x="-0.3280" y="0.1000"/></g><g stroke-width="0.0010" stroke="rgb(26%, 54%, 57%)" stroke-opacity="1.0" fill="rgb(26%, 54%, 57%)" fill-opacity="0.25"><rect width="0.0228" height="0.0451" x="-0.3052" y="0.1027"/></g><g stroke-width="0" stroke="rgb(2%, 29%, 48%)" stroke-opacity="1.0" fill="rgb(1%, 28%, 43%)" fill-opacity="1.0"><rect width="0.0228" height="0.0480" x="-0.2824" y="0.0998"/></g><g stroke-width="0.0010" stroke="rgb(1%, 28%, 43%)" stroke-opacity="1.0" fill="rgb(1%, 28%, 43%)" fill-opacity="0.25"><rect width="0.0228" height="0.0455" x="-0.2596" y="0.1023"/></g><g stroke-width="0" stroke="rgb(2%, 29%, 48%)" stroke-opacity="1.0" fill="rgb(0%, 72%, 98%)" fill-opacity="1.0"><rect width="0.0228" height="0.0475" x="-0.2368" y="0.1004"/></g><g stroke-width="0.0010" stroke="rgb(0%, 72%, 98%)" stroke-opacity="1.0" fill="rgb(0%, 72%, 98%)" fill-opacity="0.25"><rect width="0.0228" height="0.0459" x="-0.2140" y="0.1019"/></g><g stroke-width="0" stroke="rgb(2%, 29%, 48%)" stroke-opacity="1.0" fill="rgb(90%, 37%, 58%)" fill-opacity="1.0"><rect width="0.0228" height="0.0467" x="-0.1912" y="0.1011"/></g><g stroke-width="0.0010" stroke="rgb(90%, 37%, 58%)" stroke-opacity="1.0" fill="rgb(90%, 37%, 58%)" fill-opacity="0.25"><rect width="0.0228" height="0.0446" x="-0.1684" y="0.1032"/></g><g stroke-width="0" stroke="rgb(2%, 29%, 48%)" stroke-opacity="1.0" fill="rgb(38%, 23%, 0%)" fill-opacity="1.0"><rect width="0.0228" height="0.0476" x="-0.1456" y="0.1002"/></g><g stroke-width="0.0010" stroke="rgb(38%, 23%, 0%)" stroke-opacity="1.0" fill="rgb(38%, 23%, 0%)" fill-opacity="0.25"><rect width="0.0228" height="0.0441" x="-0.1228" y="0.1037"/></g><g stroke-width="0" stroke="rgb(2%, 29%, 48%)" stroke-opacity="1.0" fill="rgb(91%, 19%, 0%)" fill-opacity="1.0"><rect width="0.0228" height="0.0465" x="-0.1000" y="0.1013"/></g><g stroke-width="0.0010" stroke="rgb(91%, 19%, 0%)" stroke-opacity="1.0" fill="rgb(91%, 19%, 0%)" fill-opacity="0.25"><rect width="0.0228" height="0.0462" x="-0.0772" y="0.1017"/></g><g stroke-width="0" stroke="rgb(2%, 29%, 48%)" stroke-opacity="1.0" fill="rgb(0%, 64%, 70%)" fill-opacity="1.0"><rect width="0.0228" height="0.0466" x="-0.0544" y="0.1012"/></g><g stroke-width="0.0010" stroke="rgb(0%, 64%, 70%)" stroke-opacity="1.0" fill="rgb(0%, 64%, 70%)" fill-opacity="0.25"><rect width="0.0228" height="0.0471" x="-0.0316" y="0.1007"/></g><g stroke-width="0" stroke="rgb(2%, 29%, 48%)" stroke-opacity="1.0" fill="rgb(91%, 47%, 0%)" fill-opacity="1.0"><rect width="0.0228" height="0.0487" x="-0.0088" y="0.0991"/></g><g stroke-width="0.0010" stroke="rgb(91%, 47%, 0%)" stroke-opacity="1.0" fill="rgb(91%, 47%, 0%)" fill-opacity="0.25"><rect width="0.0228" height="0.0461" x="0.0139" y="0.1017"/></g><g stroke-width="0" stroke="rgb(2%, 29%, 48%)" stroke-opacity="1.0" fill="rgb(62%, 0%, 31%)" fill-opacity="1.0"><rect width="0.0228" height="0.0482" x="0.0367" y="0.0996"/></g><g stroke-width="0.0010" stroke="rgb(62%, 0%, 31%)" stroke-opacity="1.0" fill="rgb(62%, 0%, 31%)" fill-opacity="0.25"><rect width="0.0228" height="0.0454" x="0.0595" y="0.1024"/></g><g stroke-width="0" stroke="rgb(2%, 29%, 48%)" stroke-opacity="1.0" fill="rgb(17%, 40%, 67%)" fill-opacity="1.0"><rect width="0.0228" height="0.0484" x="0.0823" y="0.0995"/></g><g stroke-width="0.0010" stroke="rgb(17%, 40%, 67%)" stroke-opacity="1.0" fill="rgb(17%, 40%, 67%)" fill-opacity="0.25"><rect width="0.0228" height="0.0455" x="0.1051" y="0.1024"/></g><g stroke-width="0" stroke="rgb(2%, 29%, 48%)" stroke-opacity="1.0" fill="rgb(0%, 52%, 40%)" fill-opacity="1.0"><rect width="0.0228" height="0.0096" x="0.1279" y="0.1382"/></g><g stroke-width="0.0010" stroke="rgb(0%, 52%, 40%)" stroke-opacity="1.0" fill="rgb(0%, 52%, 40%)" fill-opacity="0.25"><rect width="0.0228" height="0.0094" x="0.1507" y="0.1384"/></g><g stroke-width="0" stroke="rgb(2%, 29%, 48%)" stroke-opacity="1.0" fill="rgb(46%, 22%, 3%)" fill-opacity="1.0"><rect width="0.0228" height="0.2691" x="0.1735" y="-0.1213"/></g><g stroke-width="0.0010" stroke="rgb(46%, 22%, 3%)" stroke-opacity="1.0" fill="rgb(46%, 22%, 3%)" fill-opacity="0.25"><rect width="0.0228" height="0.2826" x="0.1963" y="-0.1348"/></g></g><g class="errors"><g stroke-width="0.0015" stroke="rgb(5%, 5%, 5%)" stroke-opacity="1.0" fill="none"><polyline points="-0.4100,0.0993 -0.4055,0.0993"/><polyline points="-0.4078,0.0993 -0.4078,0.0964"/><polyline points="-0.4100,0.0964 -0.4055,0.0964"/></g><g stroke-width="0.0015" stroke="rgb(5%, 5%, 5%)" stroke-opacity="1.0" fill="none"><polyline points="-0.3872,0.1044 -0.3827,0.1044"/><polyline points="-0.3850,0.1044 -0.3850,0.1001"/><polyline points="-0.3872,0.1001 -0.3827,0.1001"/></g><g stroke-width="0.0015" stroke="rgb(5%, 5%, 5%)" stroke-opacity="1.0" fill="none"><polyline points="-0.3645,0.1017 -0.3599,0.1017"/><polyline points="-0.3622,0.1017 -0.3622,0.0989"/><polyline points="-0.3645,0.0989 -0.3599,0.0989"/></g><g stroke-width="0.0015" stroke="rgb(5%, 5%, 5%)" stroke-opacity="1.0" fill="none"><polyline points="-0.3417,0.1037 -0.3371,0.1037"/><polyline points="-0.3394,0.1037 -0.3394,0.1006"/><polyline points="-0.3417,0.1006 -0.3371,0.1006"/></g><g stroke-width="0.0015" stroke="rgb(5%, 5%, 5%)" stroke-opacity="1.0" fill="none"><polyline points="-0.3189,0.1014 -0.3143,0.1014"/><polyline points="-0.3166,0.1014 -0.3166,0.0986"/><polyline points="-0.3189,0.0986 -0.3143,0.0986"/></g><g stroke-width="0.0015" stroke="rgb(5%, 5%, 5%)" stroke-opacity="1.0" fill="none"><polyline points="-0.2961,0.1033 -0.2915,0.1033"/><polyline points="-0.2938,0.1033 -0.2938,0.1021"/><polyline points="-0.2961,0.1021 -0.2915,0.1021"/></g><g stroke-width="0.0015" stroke="rgb(5%, 5%, 5%)" stroke-opacity="1.0" fill="none"><polyline points="-0.2733,0.1005 -0.2687,0.1005"/><polyline points="-0.2710,0.1005 -0.2710,0.0992"/><polyline points="-0.2733,0.0992 -0.2687,0.0992"/></g><g stroke-width="0.0015" stroke="rgb(5%, 5%, 5%)" stroke-opacity="1.0" fill="none"><polyline points="-0.2505,0.1038 -0.2459,0.1038"/><polyline points="-0.2482,0.1038 -0.2482,0.1008"/><polyline points="-0.2505,0.1008 -0.2459,0.1008"/></g><g stroke-width="0.0015" stroke="rgb(5%, 5%, 5%)" stroke-opacity="1.0" fill="none"><polyline points="-0.2277,0.1019 -0.2231,0.1019"/><polyline points="-0.2254,0.1019 -0.2254,0.0988"/><polyline points="-0.2277,0.0988 -0.2231,0.0988"/></g><g stroke-width="0.0015" stroke="rgb(5%, 5%, 5%)" stroke-opacity="1.0" fill="none"><polyline points="-0.2049,0.1042 -0.2003,0.1042"/><polyline points="-0.2026,0.1042 -0.2026,0.0997"/><polyline points="-0.2049,0.0997 -0.2003,0.0997"/></g><g stroke-width="0.0015" stroke="rgb(5%, 5%, 5%)" stroke-opacity="1.0" fill="none"><polyline points="-0.1821,0.1034 -0.1775,0.1034"/><polyline points="-0.1798,0.1034 -0.1798,0.0988"/><polyline points="-0.1821,0.0988 -0.1775,0.0988"/></g><g stroke-width="0.0015" stroke="rgb(5%, 5%, 5%)" stroke-opacity="1.0" fill="none"><polyline points="-0.1593,0.1040 -0.1547,0.1040"/><polyline points="-0.1570,0.1040 -0.1570,0.1025"/><polyline points="-0.1593,0.1025 -0.1547,0.1025"/></g><g stroke-width="0.0015" stroke="rgb(5%, 5%, 5%)" stroke-opacity="1.0" fill="none"><polyline points="-0.1365,0.1016 -0.1319,0.1016"/><polyline points="-0.1342,0.1016 -0.1342,0.0988"/><polyline points="-0.1365,0.0988 -0.1319,0.0988"/></g><g stroke-width="0.0015" stroke="rgb(5%, 5%, 5%)" stroke-opacity="1.0" fill="none"><polyline points="-0.1137,0.1045 -0.1091,0.1045"/><polyline points="-0.1114,0.1045 -0.1114,0.1029"/><polyline points="-0.1137,0.1029 -0.1091,0.1029"/></g><g stroke-width="0.0015" stroke="rgb(5%, 5%, 5%)" stroke-opacity="1.0" fill="none"><polyline points="-0.0909,0.1028 -0.0864,0.1028"/><polyline points="-0.0886,0.1028 -0.0886,0.0999"/><polyline points="-0.0909,0.0999 -0.0864,0.0999"/></g><g stroke-width="0.0015" stroke="rgb(5%, 5%, 5%)" stroke-opacity="1.0" fill="none"><polyline points="-0.0681,0.1030 -0.0636,0.1030"/><polyline points="-0.0658,0.1030 -0.0658,0.1003"/><polyline points="-0.0681,0.1003 -0.0636,0.1003"/></g><g stroke-width="0.0015" stroke="rgb(5%, 5%, 5%)" stroke-opacity="1.0" fill="none"><polyline points="-0.0453,0.1026 -0.0408,0.1026"/><polyline points="-0.0430,0.1026 -0.0430,0.0998"/><polyline points="-0.0453,0.0998 -0.0408,0.0998"/></g><g stroke-width="0.0015" stroke="rgb(5%, 5%, 5%)" stroke-opacity="1.0" fill="none"><polyline points="-0.0225,0.1028 -0.0180,0.1028"/><polyline points="-0.0202,0.1028 -0.0202,0.0987"/><polyline points="-0.0225,0.0987 -0.0180,0.0987"/></g><g stroke-width="0.0015" stroke="rgb(5%, 5%, 5%)" stroke-opacity="1.0" fill="none"><polyline points="0.0003,0.1014 0.0048,0.1014"/><polyline points="0.0025,0.1014 0.0025,0.0968"/><polyline points="0.0003,0.0968 0.0048,0.0968"/></g><g stroke-width="0.0015" stroke="rgb(5%, 5%, 5%)" stroke-opacity="1.0" fill="none"><polyline points="0.0231,0.1037 0.0276,0.1037"/><polyline points="0.0253,0.1037 0.0253,0.0997"/><polyline points="0.0231,0.0997 0.0276,0.0997"/></g><g stroke-width="0.0015" stroke="rgb(5%, 5%, 5%)" stroke-opacity="1.0" fill="none"><polyline points="0.0459,0.1016 0.0504,0.1016"/><polyline points="0.0481,0.1016 0.0481,0.0976"/><polyline points="0.0459,0.0976 0.0504,0.0976"/></g><g stroke-width="0.0015" stroke="rgb(5%, 5%, 5%)" stroke-opacity="1.0" fill="none"><polyline points="0.0687,0.1042 0.0732,0.1042"/><polyline points="0.0709,0.1042 0.0709,0.1006"/><polyline points="0.0687,0.1006 0.0732,0.1006"/></g><g stroke-width="0.0015" stroke="rgb(5%, 5%, 5%)" stroke-opacity="1.0" fill="none"><polyline points="0.0915,0.1014 0.0960,0.1014"/><polyline points="0.0937,0.1014 0.0937,0.0976"/><polyline points="0.0915,0.0976 0.0960,0.0976"/></g><g stroke-width="0.0015" stroke="rgb(5%, 5%, 5%)" stroke-opacity="1.0" fill="none"><polyline points="0.1142,0.1042 0.1188,0.1042"/><polyline points="0.1165,0.1042 0.1165,0.1005"/><polyline points="0.1142,0.1005 0.1188,0.1005"/></g><g stroke-width="0.0015" stroke="rgb(5%, 5%, 5%)" stroke-opacity="1.0" fill="none"><polyline points="0.1370,0.1385 0.1416,0.1385"/><polyline points="0.1393,0.1385 0.1393,0.1379"/><polyline points="0.1370,0.1379 0.1416,0.1379"/></g><g stroke-width="0.0015" stroke="rgb(5%, 5%, 5%)" stroke-opacity="1.0" fill="none"><polyline points="0.1598,0.1388 0.1644,0.1388"/><polyline points="0.1621,0.1388 0.1621,0.1381"/><polyline points="0.1598,0.1381 0.1644,0.1381"/></g><g stroke-width="0.0015" stroke="rgb(5%, 5%, 5%)" stroke-opacity="1.0" fill="none"><polyline points="0.1826,-0.1118 0.1872,-0.1118"/><polyline points="0.1849,-0.1118 0.1849,-0.1309"/><polyline points="0.1826,-0.1309 0.1872,-0.1309"/></g><g stroke-width="0.0015" stroke="rgb(5%, 5%, 5%)" stroke-opacity="1.0" fill="none"><polyline points="0.2054,-0.1255 0.2100,-0.1255"/><polyline points="0.2077,-0.1255 0.2077,-0.1440"/><polyline points="0.2054,-0.1440 0.2100,-0.1440"/></g></g></g><g class="hud"><g class="axis"><g class="ticks"><g class="tickglyph"><g stroke-width="0.0040" stroke="rgb(5%, 5%, 5%)" stroke-opacity="0.4" fill="rgb(5%, 5%, 5%)" fill-opacity="0.4"><g transform="rotate(-90.0, -0.4678, 0.1478)"><polyline points="-0.4678,0.1628
-0.4678,0.1328"/></g><g transform="rotate(-90.0, -0.4678, 0.1203)"><polyline points="-0.4678,0.1353
-0.4678,0.1053"/></g><g transform="rotate(-90.0, -0.4678, 0.0928)"><polyline points="-0.4678,0.1078
-0.4678,0.0778"/></g><g transform="rotate(-90.0, -0.4678, 0.0653)"><polyline points="-0.4678,0.0803
-0.4678,0.0503"/></g><g transform="rotate(-90.0, -0.4678, 0.0378)"><polyline points="-0.4678,0.0528
-0.4678,0.0228"/></g><g transform="rotate(-90.0, -0.4678, 0.0103)"><polyline points="-0.4678,0.0253
-0.4678,-0.0047"/></g><g transform="rotate(-90.0, -0.4678, -0.0172)"><polyline points="-0.4678,-0.0022
-0.4678,-0.0322"/></g><g transform="rotate(-90.0, -0.4678, -0.0447)"><polyline points="-0.4678,-0.0297
-0.4678,-0.0597"/></g><g transform="rotate(-90.0, -0.4678, -0.0722)"><polyline points="-0.4678,-0.0572
-0.4678,-0.0872"/></g><g transform="rotate(-90.0, -0.4678, -0.0998)"><polyline points="-0.4678,-0.0848
-0.4678,-0.1148"/></g><g transform="rotate(-90.0, -0.4678, -0.1273)"><polyline points="-0.4678,-0.1123
-0.4678,-0.1423"/></g><g transform="rotate(-90.0, -0.4678, -0.1548)"><polyline points="-0.4678,-0.1398
-0.4678,-0.1698"/></g></g></g><g class="ticktext"><g stroke-width="0.0" stroke="none" fill="rgb(5%, 5%, 5%)" fill-opacity="1.0" font-size="0.0219" text-anchor="end"><text x="-0.4835" y="0.1520"> 0</text><text x="-0.4835" y="0.1245"> 2</text><text x="-0.4835" y="0.0970"> 4</text><text x="-0.4835" y="0.0695"> 6</text><text x="-0.4835" y="0.0420"> 8</text><text x="-0.4835" y="0.0145">10</text><text x="-0.4835" y="-0.0131">12</text><text x="-0.4835" y="-0.0406">14</text><text x="-0.4835" y="-0.0681">16</text><text x="-0.4835" y="-0.0956">18</text><text x="-0.4835" y="-0.1231">20</text><text x="-0.4835" y="-0.1506">22</text></g></g><g class="ticklines"><g stroke-width="0.0050" stroke="rgb(5%, 5%, 5%)" stroke-opacity="0.05" fill="none"><polyline points="-0.4546,0.1478 0.2546,0.1478"/><polyline points="-0.4546,0.1203 0.2546,0.1203"/><polyline points="-0.4546,0.0928 0.2546,0.0928"/><polyline points="-0.4546,0.0653 0.2546,0.0653"/><polyline points="-0.4546,0.0378 0.2546,0.0378"/><polyline points="-0.4546,0.0103 0.2546,0.0103"/><polyline points="-0.4546,-0.0172 0.2546,-0.0172"/><polyline points="-0.4546,-0.0447 0.2546,-0.0447"/><polyline points="-0.4546,-0.0722 0.2546,-0.0722"/><polyline points="-0.4546,-0.0998 0.2546,-0.0998"/><polyline points="-0.4546,-0.1273 0.2546,-0.1273"/><polyline points="-0.4546,-0.1548 0.2546,-0.1548"/></g></g></g><g class="axisbar"><g stroke-width="0" stroke="rgb(0%, 0%, 0%)" stroke-opacity="0" fill="rgb(5%, 5%, 5%)" fill-opacity="0.4"><rect width="0.0018" height="0.3038" x="-0.4608" y="-0.1554"/></g></g></g><g class="axis"><g class="ticks"><g class="tickglyph"><g stroke-width="0.0040" stroke="rgb(5%, 5%, 5%)" stroke-opacity="0.4" fill="rgb(5%, 5%, 5%)" fill-opacity="0.4"><polyline points="-0.4078,0.1721
-0.4078,0.1421"/><polyline points="-0.3850,0.1721
-0.3850,0.1421"/><polyline points="-0.3622,0.1721
-0.3622,0.1421"/><polyline points="-0.3394,0.1721
-0.3394,0.1421"/><polyline points="-0.3166,0.1721
-0.3166,0.1421"/><polyline points="-0.2938,0.1721
-0.2938,0.1421"/><polyline points="-0.2710,0.1721
-0.2710,0.1421"/><polyline points="-0.2482,0.1721
-0.2482,0.1421"/><polyline points="-0.2254,0.1721
-0.2254,0.1421"/><polyline points="-0.2026,0.1721
-0.2026,0.1421"/><polyline points="-0.1798,0.1721
-0.1798,0.1421"/><polyline points="-0.1570,0.1721
-0.1570,0.1421"/><polyline points="-0.1342,0.1721
-0.1342,0.1421"/><polyline points="-0.1114,0.1721
-0.1114,0.1421"/><polyline points="-0.0886,0.1721
-0.0886,0.1421"/><polyline points="-0.0658,0.1721
-0.0658,0.1421"/><polyline points="-0.0430,0.1721
-0.0430,0.1421"/><polyline points="-0.0202,0.1721
-0.0202,0.1421"/><polyline points="0.0025,0.1721
0.0025,0.1421"/><polyline points="0.0253,0.1721
0.0253,0.1421"/><polyline points="0.0481,0.1721
0.0481,0.1421"/><polyline points="0.0709,0.1721
0.0709,0.1421"/><polyline points="0.0937,0.1721
0.0937,0.1421"/><polyline points="0.1165,0.1721
0.1165,0.1421"/><polyline points="0.1393,0.1721
0.1393,0.1421"/><polyline points="0.1621,0.1721
0.1621,0.1421"/><polyline points="0.1849,0.1721
0.1849,0.1421"/><polyline points="0.2077,0.1721
0.2077,0.1421"/></g></g><g class="ticktext"><g stroke-width="0.0" stroke="none" fill="rgb(5%, 5%, 5%)" fill-opacity="1.0" font-size="0.0219" text-anchor="end"><text x="-0.4078" y="0.1763" transform="rotate(-45.0, -0.4078, 0.1763)">CDCL (adaptive)</text><text x="-0.3850" y="0.1763" transform="rotate(-45.0, -0.3850, 0.1763)">CDCL (adaptive), Baseline</text><text x="-0.3622" y="0.1763" transform="rotate(-45.0, -0.3622, 0.1763)">CDCL (adaptive, mVISDS, ExpRestart(100, 2))</text><text x="-0.3394" y="0.1763" transform="rotate(-45.0, -0.3394, 0.1763)">CDCL (adaptive, mVISDS, ExpRestart(100, 2)), Baseline</text><text x="-0.3166" y="0.1763" transform="rotate(-45.0, -0.3166, 0.1763)">CDCL (adaptive, mVISDS, LubyRestart(100, 2))</text><text x="-0.2938" y="0.1763" transform="rotate(-45.0, -0.2938, 0.1763)">CDCL (adaptive, mVISDS, LubyRestart(100, 2)), Baseline</text><text x="-0.2710" y="0.1763" transform="rotate(-45.0, -0.2710, 0.1763)">CDCL (adaptive, mVSIDS)</text><text x="-0.2482" y="0.1763" transform="rotate(-45.0, -0.2482, 0.1763)">CDCL (adaptive, mVSIDS), Baseline</text><text x="-0.2254" y="0.1763" transform="rotate(-45.0, -0.2254, 0.1763)">CDCL (α = 0.75)</text><text x="-0.2026" y="0.1763" transform="rotate(-45.0, -0.2026, 0.1763)">CDCL (α = 0.75), Baseline</text><text x="-0.1798" y="0.1763" transform="rotate(-45.0, -0.1798, 0.1763)">CDCL (α = 0.75, mVISDS)</text><text x="-0.1570" y="0.1763" transform="rotate(-45.0, -0.1570, 0.1763)">CDCL (α = 0.75, mVISDS), Baseline</text><text x="-0.1342" y="0.1763" transform="rotate(-45.0, -0.1342, 0.1763)">CDCL (α = 0.75, mVISDS, ExpRestart(100, 2))</text><text x="-0.1114" y="0.1763" transform="rotate(-45.0, -0.1114, 0.1763)">CDCL (α = 0.75, mVISDS, ExpRestart(100, 2)), Baseline</text><text x="-0.0886" y="0.1763" transform="rotate(-45.0, -0.0886, 0.1763)">CDCL (α = 0.75, mVISDS, LubyRestart(100, 2))</text><text x="-0.0658" y="0.1763" transform="rotate(-45.0, -0.0658, 0.1763)">CDCL (α = 0.75, mVISDS, LubyRestart(100, 2)), Baseline</text><text x="-0.0430" y="0.1763" transform="rotate(-45.0, -0.0430, 0.1763)">CDCL (α = 0.95)</text><text x="-0.0202" y="0.1763" transform="rotate(-45.0, -0.0202, 0.1763)">CDCL (α = 0.95), Baseline</text><text x="0.0025" y="0.1763" transform="rotate(-45.0, 0.0025, 0.1763)">CDCL (α = 0.95, mVISDS)</text><text x="0.0253" y="0.1763" transform="rotate(-45.0, 0.0253, 0.1763)">CDCL (α = 0.95, mVISDS), Baseline</text><text x="0.0481" y="0.1763" transform="rotate(-45.0, 0.0481, 0.1763)">CDCL (α = 0.95, mVISDS, ExpRestart(100, 2))</text><text x="0.0709" y="0.1763" transform="rotate(-45.0, 0.0709, 0.1763)">CDCL (α = 0.95, mVISDS, ExpRestart(100, 2)), Baseline</text><text x="0.0937" y="0.1763" transform="rotate(-45.0, 0.0937, 0.1763)">CDCL (α = 0.95, mVISDS, LubyRestart(100, 2))</text><text x="0.1165" y="0.1763" transform="rotate(-45.0, 0.1165, 0.1763)">CDCL (α = 0.95, mVISDS, LubyRestart(100, 2)), Baseline</text><text x="0.1393" y="0.1763" transform="rotate(-45.0, 0.1393, 0.1763)">DPLL</text><text x="0.1621" y="0.1763" transform="rotate(-45.0, 0.1621, 0.1763)">DPLL, Baseline</text><text x="0.1849" y="0.1763" transform="rotate(-45.0, 0.1849, 0.1763)">tableaux</text><text x="0.2077" y="0.1763" transform="rotate(-45.0, 0.2077, 0.1763)">tableaux, Baseline</text></g></g></g><g class="axisbar"><g stroke-width="0" stroke="rgb(0%, 0%, 0%)" stroke-opacity="0" fill="rgb(5%, 5%, 5%)" fill-opacity="0.4"><rect width="0.7109" height="0.0012" x="-0.4555" y="0.1510"/></g></g></g><g class="title"><g stroke-width="0.0" stroke="none" fill="rgb(5%, 5%, 5%)" fill-opacity="1.0" font-size="0.0526" text-anchor="middle"><text x="-0.2329" y="-0.1857">Time: huge/6/cnf</text></g></g><g class="legend"><g class="legendBorder"><g stroke-width="0.0017" stroke="rgb(5%, 5%, 5%)" stroke-opacity="1.0" fill="rgb(5%, 5%, 5%)" fill-opacity="0"><rect width="0.3892" height="0.5995" x="0.3306" y="-0.4384"/></g></g><g class="legendContent"><g stroke-width="0.0" stroke="none" fill="rgb(5%, 5%, 5%)" fill-opacity="1.0" font-size="0.0138" text-anchor="start"><text x="0.3383" y="0.1502">tableaux, Baseline</text></g><g stroke-width="0.0002" stroke="rgb(46%, 22%, 3%)" stroke-opacity="1.0" fill="rgb(46%, 22%, 3%)" fill-opacity="0.25"><rect width="0.0230" height="0.0159" x="0.6891" y="0.1399"/></g><g stroke-width="0.0" stroke="none" fill="rgb(5%, 5%, 5%)" fill-opacity="1.0" font-size="0.0138" text-anchor="start"><text x="0.3383" y="0.1290">tableaux</text></g><g stroke-width="0" stroke="rgb(2%, 29%, 48%)" stroke-opacity="1.0" fill="rgb(46%, 22%, 3%)" fill-opacity="1.0"><rect width="0.0230" height="0.0159" x="0.6891" y="0.1187"/></g><g stroke-width="0.0" stroke="none" fill="rgb(5%, 5%, 5%)" fill-opacity="1.0" font-size="0.0138" text-anchor="start"><text x="0.3383" y="0.1078">DPLL, Baseline</text></g><g stroke-width="0.0002" stroke="rgb(0%, 52%, 40%)" stroke-opacity="1.0" fill="rgb(0%, 52%, 40%)" fill-opacity="0.25"><rect width="0.0230" height="0.0159" x="0.6891" y="0.0975"/></g><g stroke-width="0.0" stroke="none" fill="rgb(5%, 5%, 5%)" fill-opacity="1.0" font-size="0.0138" text-anchor="start"><text x="0.3383" y="0.0865">DPLL</text></g><g stroke-width="0" stroke="rgb(2%, 29%, 48%)" stroke-opacity="1.0" fill="rgb(0%, 52%, 40%)" fill-opacity="1.0"><rect width="0.0230" height="0.0159" x="0.6891" y="0.0762"/></g><g stroke-width="0.0" stroke="none" fill="rgb(5%, 5%, 5%)" fill-opacity="1.0" font-size="0.0138" text-anchor="start"><text x="0.3383" y="0.0653">CDCL (α = 0.95, mVISDS, LubyRestart(100, 2)), Baseline</text></g><g stroke-width="0.0002" stroke="rgb(17%, 40%, 67%)" stroke-opacity="1.0" fill="rgb(17%, 40%, 67%)" fill-opacity="0.25"><rect width="0.0230" height="0.0159" x="0.6891" y="0.0550"/></g><g stroke-width="0.0" stroke="none" fill="rgb(5%, 5%, 5%)" fill-opacity="1.0" font-size="0.0138" text-anchor="start"><text x="0.3383" y="0.0441">CDCL (α = 0.95, mVISDS, LubyRestart(100, 2))</text></g><g stroke-width="0" stroke="rgb(2%, 29%, 48%)" stroke-opacity="1.0" fill="rgb(17%, 40%, 67%)" fill-opacity="1.0"><rect width="0.0230" height="0.0159" x="0.6891" y="0.0338"/></g><g stroke-width="0.0" stroke="none" fill="rgb(5%, 5%, 5%)" fill-opacity="1.0" font-size="0.0138" text-anchor="start"><text x="0.3383" y="0.0229">CDCL (α = 0.95, mVISDS, ExpRestart(100, 2)), Baseline</text></g><g stroke-width="0.0002" stroke="rgb(62%, 0%, 31%)" stroke-opacity="1.0" fill="rgb(62%, 0%, 31%)" fill-opacity="0.25"><rect width="0.0230" height="0.0159" x="0.6891" y="0.0126"/></g><g stroke-width="0.0" stroke="none" fill="rgb(5%, 5%, 5%)" fill-opacity="1.0" font-size="0.0138" text-anchor="start"><text x="0.3383" y="0.0017">CDCL (α = 0.95, mVISDS, ExpRestart(100, 2))</text></g><g stroke-width="0" stroke="rgb(2%, 29%, 48%)" stroke-opacity="1.0" fill="rgb(62%, 0%, 31%)" fill-opacity="1.0"><rect width="0.0230" height="0.0159" x="0.6891" y="-0.0087"/></g><g stroke-width="0.0" stroke="none" fill="rgb(5%, 5%, 5%)" fill-opacity="1.0" font-size="0.0138" text-anchor="start"><text x="0.3383" y="-0.0196">CDCL (α = 0.95, mVISDS), Baseline</text></g><g stroke-width="0.0002" stroke="rgb(91%, 47%, 0%)" stroke-opacity="1.0" fill="rgb(91%, 47%, 0%)" fill-opacity="0.25"><rect width="0.0230" height="0.0159" x="0.6891" y="-0.0299"/></g><g stroke-width="0.0" stroke="none" fill="rgb(5%, 5%, 5%)" fill-opacity="1.0" font-size="0.0138" text-anchor="start"><text x="0.3383" y="-0.0408">CDCL (α = 0.95, mVISDS)</text></g><g stroke-width="0" stroke="rgb(2%, 29%, 48%)" stroke-opacity="1.0" fill="rgb(91%, 47%, 0%)" fill-opacity="1.0"><rect width="0.0230" height="0.0159" x="0.6891" y="-0.0511"/></g><g stroke-width="0.0" stroke="none" fill="rgb(5%, 5%, 5%)" fill-opacity="1.0" font-size="0.0138" text-anchor="start"><text x="0.3383" y="-0.0620">CDCL (α = 0.95), Baseline</text></g><g stroke-width="0.0002" stroke="rgb(0%, 64%, 70%)" stroke-opacity="1.0" fill="rgb(0%, 64%, 70%)" fill-opacity="0.25"><rect width="0.0230" height="0.0159" x="0.6891" y="-0.0723"/></g><g stroke-width="0.0" stroke="none" fill="rgb(5%, 5%, 5%)" fill-opacity="1.0" font-size="0.0138" text-anchor="start"><text x="0.3383" y="-0.0832">CDCL (α = 0.95)</text></g><g stroke-width="0" stroke="rgb(2%, 29%, 48%)" stroke-opacity="1.0" fill="rgb(0%, 64%, 70%)" fill-opacity="1.0"><rect width="0.0230" height="0.0159" x="0.6891" y="-0.0936"/></g><g stroke-width="0.0" stroke="none" fill="rgb(5%, 5%, 5%)" fill-opacity="1.0" font-size="0.0138" text-anchor="start"><text x="0.3383" y="-0.1044">CDCL (α = 0.75, mVISDS, LubyRestart(100, 2)), Baseline</text></g><g stroke-width="0.0002" stroke="rgb(91%, 19%, 0%)" stroke-opacity="1.0" fill="rgb(91%, 19%, 0%)" fill-opacity="0.25"><rect width="0.0230" height="0.0159" x="0.6891" y="-0.1148"/></g><g stroke-width="0.0" stroke="none" fill="rgb(5%, 5%, 5%)" fill-opacity="1.0" font-size="0.0138" text-anchor="start"><text x="0.3383" y="-0.1257">CDCL (α = 0.75, mVISDS, LubyRestart(100, 2))</text></g><g stroke-width="0" stroke="rgb(2%, 29%, 48%)" stroke-opacity="1.0" fill="rgb(91%, 19%, 0%)" fill-opacity="1.0"><rect width="0.0230" height="0.0159" x="0.6891" y="-0.1360"/></g><g stroke-width="0.0" stroke="none" fill="rgb(5%, 5%, 5%)" fill-opacity="1.0" font-size="0.0138" text-anchor="start"><text x="0.3383" y="-0.1469">CDCL (α = 0.75, mVISDS, ExpRestart(100, 2)), Baseline</text></g><g stroke-width="0.0002" stroke="rgb(38%, 23%, 0%)" stroke-opacity="1.0" fill="rgb(38%, 23%, 0%)" fill-opacity="0.25"><rect width="0.0230" height="0.0159" x="0.6891" y="-0.1572"/></g><g stroke-width="0.0" stroke="none" fill="rgb(5%, 5%, 5%)" fill-opacity="1.0" font-size="0.0138" text-anchor="start"><text x="0.3383" y="-0.1681">CDCL (α = 0.75, mVISDS, ExpRestart(100, 2))</text></g><g stroke-width="0" stroke="rgb(2%, 29%, 48%)" stroke-opacity="1.0" fill="rgb(38%, 23%, 0%)" fill-opacity="1.0"><rect width="0.0230" height="0.0159" x="0.6891" y="-0.1785"/></g><g stroke-width="0.0" stroke="none" fill="rgb(5%, 5%, 5%)" fill-opacity="1.0" font-size="0.0138" text-anchor="start"><text x="0.3383" y="-0.1893">CDCL (α = 0.75, mVISDS), Baseline</text></g><g stroke-width="0.0002" stroke="rgb(90%, 37%, 58%)" stroke-opacity="1.0" fill="rgb(90%, 37%, 58%)" fill-opacity="0.25"><rect width="0.0230" height="0.0159" x="0.6891" y="-0.1997"/></g><g stroke-width="0.0" stroke="none" fill="rgb(5%, 5%, 5%)" fill-opacity="1.0" font-size="0.0138" text-anchor="start"><text x="0.3383" y="-0.2106">CDCL (α = 0.75, mVISDS)</text></g><g stroke-width="0" stroke="rgb(2%, 29%, 48%)" stroke-opacity="1.0" fill="rgb(90%, 37%, 58%)" fill-opacity="1.0"><rect width="0.0230" height="0.0159" x="0.6891" y="-0.2209"/></g><g stroke-width="0.0" stroke="none" fill="rgb(5%, 5%, 5%)" fill-opacity="1.0" font-size="0.0138" text-anchor="start"><text x="0.3383" y="-0.2318">CDCL (α = 0.75), Baseline</text></g><g stroke-width="0.0002" stroke="rgb(0%, 72%, 98%)" stroke-opacity="1.0" fill="rgb(0%, 72%, 98%)" fill-opacity="0.25"><rect width="0.0230" height="0.0159" x="0.6891" y="-0.2421"/></g><g stroke-width="0.0" stroke="none" fill="rgb(5%, 5%, 5%)" fill-opacity="1.0" font-size="0.0138" text-anchor="start"><text x="0.3383" y="-0.2530">CDCL (α = 0.75)</text></g><g stroke-width="0" stroke="rgb(2%, 29%, 48%)" stroke-opacity="1.0" fill="rgb(0%, 72%, 98%)" fill-opacity="1.0"><rect width="0.0230" height="0.0159" x="0.6891" y="-0.2633"/></g><g stroke-width="0.0" stroke="none" fill="rgb(5%, 5%, 5%)" fill-opacity="1.0" font-size="0.0138" text-anchor="start"><text x="0.3383" y="-0.2742">CDCL (adaptive, mVSIDS), Baseline</text></g><g stroke-width="0.0002" stroke="rgb(1%, 28%, 43%)" stroke-opacity="1.0" fill="rgb(1%, 28%, 43%)" fill-opacity="0.25"><rect width="0.0230" height="0.0159" x="0.6891" y="-0.2846"/></g><g stroke-width="0.0" stroke="none" fill="rgb(5%, 5%, 5%)" fill-opacity="1.0" font-size="0.0138" text-anchor="start"><text x="0.3383" y="-0.2955">CDCL (adaptive, mVSIDS)</text></g><g stroke-width="0" stroke="rgb(2%, 29%, 48%)" stroke-opacity="1.0" fill="rgb(1%, 28%, 43%)" fill-opacity="1.0"><rect width="0.0230" height="0.0159" x="0.6891" y="-0.3058"/></g><g stroke-width="0.0" stroke="none" fill="rgb(5%, 5%, 5%)" fill-opacity="1.0" font-size="0.0138" text-anchor="start"><text x="0.3383" y="-0.3167">CDCL (adaptive, mVISDS, LubyRestart(100, 2)), Baseline</text></g><g stroke-width="0.0002" stroke="rgb(26%, 54%, 57%)" stroke-opacity="1.0" fill="rgb(26%, 54%, 57%)" fill-opacity="0.25"><rect width="0.0230" height="0.0159" x="0.6891" y="-0.3270"/></g><g stroke-width="0.0" stroke="none" fill="rgb(5%, 5%, 5%)" fill-opacity="1.0" font-size="0.0138" text-anchor="start"><text x="0.3383" y="-0.3379">CDCL (adaptive, mVISDS, LubyRestart(100, 2))</text></g><g stroke-width="0" stroke="rgb(2%, 29%, 48%)" stroke-opacity="1.0" fill="rgb(26%, 54%, 57%)" fill-opacity="1.0"><rect width="0.0230" height="0.0159" x="0.6891" y="-0.3482"/></g><g stroke-width="0.0" stroke="none" fill="rgb(5%, 5%, 5%)" fill-opacity="1.0" font-size="0.0138" text-anchor="start"><text x="0.3383" y="-0.3591">CDCL (adaptive, mVISDS, ExpRestart(100, 2)), Baseline</text></g><g stroke-width="0.0002" stroke="rgb(0%, 25%, 37%)" stroke-opacity="1.0" fill="rgb(0%, 25%, 37%)" fill-opacity="0.25"><rect width="0.0230" height="0.0159" x="0.6891" y="-0.3694"/></g><g stroke-width="0.0" stroke="none" fill="rgb(5%, 5%, 5%)" fill-opacity="1.0" font-size="0.0138" text-anchor="start"><text x="0.3383" y="-0.3804">CDCL (adaptive, mVISDS, ExpRestart(100, 2))</text></g><g stroke-width="0" stroke="rgb(2%, 29%, 48%)" stroke-opacity="1.0" fill="rgb(0%, 25%, 37%)" fill-opacity="1.0"><rect width="0.0230" height="0.0159" x="0.6891" y="-0.3907"/></g><g stroke-width="0.0" stroke="none" fill="rgb(5%, 5%, 5%)" fill-opacity="1.0" font-size="0.0138" text-anchor="start"><text x="0.3383" y="-0.4016">CDCL (adaptive), Baseline</text></g><g stroke-width="0.0002" stroke="rgb(0%, 30%, 12%)" stroke-opacity="1.0" fill="rgb(0%, 30%, 12%)" fill-opacity="0.25"><rect width="0.0230" height="0.0159" x="0.6891" y="-0.4119"/></g><g stroke-width="0.0" stroke="none" fill="rgb(5%, 5%, 5%)" fill-opacity="1.0" font-size="0.0138" text-anchor="start"><text x="0.3383" y="-0.4228">CDCL (adaptive)</text></g><g stroke-width="0" stroke="rgb(2%, 29%, 48%)" stroke-opacity="1.0" fill="rgb(0%, 30%, 12%)" fill-opacity="1.0"><rect width="0.0230" height="0.0159" x="0.6891" y="-0.4331"/></g></g></g><g class="frame"><g stroke-width="0" stroke="rgb(0%, 0%, 0%)" stroke-opacity="0" fill="rgb(100%, 100%, 100%)" fill-opacity="0.02"><rect width="1.6180" height="1.0" x="-0.8090" y="-0.5"/></g></g><g class="title"><g stroke-width="0.0" stroke="none" fill="rgb(5%, 5%, 5%)" fill-opacity="1.0" font-size="0.0263" text-anchor="middle"><text x="-0.7468" y="0" transform="rotate(-90.0, -0.7468, 0)">Time [ms]</text></g></g></g></svg>