<svg xmlns="http://www.w3.org/2000/svg" xmlns:xlink="http://www.w3.org/1999/xlink" width="563" height="300" viewBox="-1.5048 -0.5 2.808 1.4947"><style>svg {color-scheme: light dark;} {.canvas g, .title g, .axisbar g, .ticktext g, .tickglyph g, .ticklines g, .legendContent g text {fill: rgb(5%, 5%, 5%);} .ticklines g, .tickglyph g, .legendBorder g {stroke: rgb(5%, 5%, 5%);} .legendBorder g {fill: rgb(94%, 94%, 94%);}} @media (prefers-color-scheme:dark) {.canvas g, .title g, .axisbar g, .ticktext g, .tickglyph g, .ticklines g, .legendContent g text {fill: rgb(94%, 94%, 94%);} .ticklines g, .tickglyph g, .legendBorder g {stroke: rgb(94%, 94%, 94%);} .legendBorder g {fill: rgb(5%, 5%, 5%);}}
svg { font-family: system-ui,-apple-system,"Segoe UI",Roboto,"Helvetica Neue",Arial,"Noto Sans","Liberation Sans",sans-serif,"Apple Color Emoji","Segoe UI Emoji","Segoe UI Symbol","Noto Color Emoji";
}

ticktext { font-family: SFMono-Regular,Menlo,Monaco,Consolas,"Liberation Mono","Courier New",monospace;}</style><g class="chart"><g class="barchart"><g stroke-width="0" stroke="rgb(2%, 29%, 48%)" stroke-opacity="1.0" fill="rgb(0%, 68%, 84%)" fill-opacity="1.0"><rect width="0.0298" height="0.0027" x="-0.3069" y="-0.1516"/></g><g stroke-width="0.0010" stroke="rgb(0%, 68%, 84%)" stroke-opacity="1.0" fill="rgb(0%, 68%, 84%)" fill-opacity="0.25"><rect width="0.0298" height="0.0025" x="-0.2771" y="-0.1515"/></g><g stroke-width="0" stroke="rgb(2%, 29%, 48%)" stroke-opacity="1.0" fill="rgb(31%, 35%, 20%)" fill-opacity="1.0"><rect width="0.0298" height="0.0127" x="-0.2474" y="-0.1616"/></g><g stroke-width="0.0010" stroke="rgb(31%, 35%, 20%)" stroke-opacity="1.0" fill="rgb(31%, 35%, 20%)" fill-opacity="0.25"><rect width="0.0298" height="0.0117" x="-0.2176" y="-0.1607"/></g><g stroke-width="0" stroke="rgb(2%, 29%, 48%)" stroke-opacity="1.0" fill="rgb(82%, 47%, 0%)" fill-opacity="1.0"><rect width="0.0298" height="0.0039" x="-0.1879" y="-0.1529"/></g><g stroke-width="0.0010" stroke="rgb(82%, 47%, 0%)" stroke-opacity="1.0" fill="rgb(82%, 47%, 0%)" fill-opacity="0.25"><rect width="0.0298" height="0.0037" x="-0.1581" y="-0.1526"/></g><g stroke-width="0" stroke="rgb(2%, 29%, 48%)" stroke-opacity="1.0" fill="rgb(58%, 33%, 58%)" fill-opacity="1.0"><rect width="0.0298" height="0.0016" x="-0.1284" y="-0.1506"/></g><g stroke-width="0.0010" stroke="rgb(58%, 33%, 58%)" stroke-opacity="1.0" fill="rgb(58%, 33%, 58%)" fill-opacity="0.25"><rect width="0.0298" height="0.0016" x="-0.0986" y="-0.1505"/></g><g stroke-width="0" stroke="rgb(2%, 29%, 48%)" stroke-opacity="1.0" fill="rgb(69%, 48%, 50%)" fill-opacity="1.0"><rect width="0.0298" height="0.0021" x="-0.0689" y="-0.1510"/></g><g stroke-width="0.0010" stroke="rgb(69%, 48%, 50%)" stroke-opacity="1.0" fill="rgb(69%, 48%, 50%)" fill-opacity="0.25"><rect width="0.0298" height="0.0020" x="-0.0391" y="-0.1509"/></g><g stroke-width="0" stroke="rgb(2%, 29%, 48%)" stroke-opacity="1.0" fill="rgb(44%, 21%, 47%)" fill-opacity="1.0"><rect width="0.0298" height="0.0029" x="-0.0094" y="-0.1518"/></g><g stroke-width="0.0010" stroke="rgb(44%, 21%, 47%)" stroke-opacity="1.0" fill="rgb(44%, 21%, 47%)" fill-opacity="0.25"><rect width="0.0298" height="0.0027" x="0.0204" y="-0.1517"/></g><g stroke-width="0" stroke="rgb(2%, 29%, 48%)" stroke-opacity="1.0" fill="rgb(22%, 70%, 43%)" fill-opacity="1.0"><rect width="0.0298" height="0.0141" x="0.0502" y="-0.1630"/></g><g stroke-width="0.0010" stroke="rgb(22%, 70%, 43%)" stroke-opacity="1.0" fill="rgb(22%, 70%, 43%)" fill-opacity="0.25"><rect width="0.0298" height="0.0132" x="0.0799" y="-0.1621"/></g><g stroke-width="0" stroke="rgb(2%, 29%, 48%)" stroke-opacity="1.0" fill="rgb(13%, 40%, 0%)" fill-opacity="1.0"><rect width="0.0298" height="0.0035" x="0.1097" y="-0.1524"/></g><g stroke-width="0.0010" stroke="rgb(13%, 40%, 0%)" stroke-opacity="1.0" fill="rgb(13%, 40%, 0%)" fill-opacity="0.25"><rect width="0.0298" height="0.0033" x="0.1394" y="-0.1523"/></g><g stroke-width="0" stroke="rgb(2%, 29%, 48%)" stroke-opacity="1.0" fill="rgb(24%, 31%, 12%)" fill-opacity="1.0"><rect width="0.0298" height="0.0016" x="0.1692" y="-0.1505"/></g><g stroke-width="0.0010" stroke="rgb(24%, 31%, 12%)" stroke-opacity="1.0" fill="rgb(24%, 31%, 12%)" fill-opacity="0.25"><rect width="0.0298" height="0.0015" x="0.1989" y="-0.1504"/></g><g stroke-width="0" stroke="rgb(2%, 29%, 48%)" stroke-opacity="1.0" fill="rgb(73%, 50%, 48%)" fill-opacity="1.0"><rect width="0.0298" height="0.0021" x="0.2287" y="-0.1510"/></g><g stroke-width="0.0010" stroke="rgb(73%, 50%, 48%)" stroke-opacity="1.0" fill="rgb(73%, 50%, 48%)" fill-opacity="0.25"><rect width="0.0298" height="0.0020" x="0.2584" y="-0.1509"/></g><g stroke-width="0" stroke="rgb(2%, 29%, 48%)" stroke-opacity="1.0" fill="rgb(46%, 11%, 0%)" fill-opacity="1.0"><rect width="0.0298" height="0.0058" x="0.2882" y="-0.1548"/></g><g stroke-width="0.0010" stroke="rgb(46%, 11%, 0%)" stroke-opacity="1.0" fill="rgb(46%, 11%, 0%)" fill-opacity="0.25"><rect width="0.0298" height="0.0055" x="0.3179" y="-0.1544"/></g><g stroke-width="0" stroke="rgb(2%, 29%, 48%)" stroke-opacity="1.0" fill="rgb(39%, 42%, 73%)" fill-opacity="1.0"><rect width="0.0298" height="0.0191" x="0.3477" y="-0.1681"/></g><g stroke-width="0.0010" stroke="rgb(39%, 42%, 73%)" stroke-opacity="1.0" fill="rgb(39%, 42%, 73%)" fill-opacity="0.25"><rect width="0.0298" height="0.0178" x="0.3774" y="-0.1668"/></g></g><g class="errors"><g stroke-width="0.0015" stroke="rgb(5%, 5%, 5%)" stroke-opacity="1.0" fill="none"><polyline points="-0.2950,-0.0900 -0.2890,-0.0900"/><polyline points="-0.2920,-0.0900 -0.2920,-0.2132"/><polyline points="-0.2950,-0.2132 -0.2890,-0.2132"/></g><g stroke-width="0.0015" stroke="rgb(5%, 5%, 5%)" stroke-opacity="1.0" fill="none"><polyline points="-0.2652,-0.1030 -0.2593,-0.1030"/><polyline points="-0.2623,-0.1030 -0.2623,-0.1999"/><polyline points="-0.2652,-0.1999 -0.2593,-0.1999"/></g><g stroke-width="0.0015" stroke="rgb(5%, 5%, 5%)" stroke-opacity="1.0" fill="none"><polyline points="-0.2355,-0.0465 -0.2295,-0.0465"/><polyline points="-0.2325,-0.0465 -0.2325,-0.2767"/><polyline points="-0.2355,-0.2767 -0.2295,-0.2767"/></g><g stroke-width="0.0015" stroke="rgb(5%, 5%, 5%)" stroke-opacity="1.0" fill="none"><polyline points="-0.2057,0.0247 -0.1998,0.0247"/><polyline points="-0.2027,0.0247 -0.2027,-0.3461"/><polyline points="-0.2057,-0.3461 -0.1998,-0.3461"/></g><g stroke-width="0.0015" stroke="rgb(5%, 5%, 5%)" stroke-opacity="1.0" fill="none"><polyline points="-0.1760,-0.1026 -0.1700,-0.1026"/><polyline points="-0.1730,-0.1026 -0.1730,-0.2031"/><polyline points="-0.1760,-0.2031 -0.1700,-0.2031"/></g><g stroke-width="0.0015" stroke="rgb(5%, 5%, 5%)" stroke-opacity="1.0" fill="none"><polyline points="-0.1462,-0.0983 -0.1403,-0.0983"/><polyline points="-0.1432,-0.0983 -0.1432,-0.2069"/><polyline points="-0.1462,-0.2069 -0.1403,-0.2069"/></g><g stroke-width="0.0015" stroke="rgb(5%, 5%, 5%)" stroke-opacity="1.0" fill="none"><polyline points="-0.1165,-0.1162 -0.1105,-0.1162"/><polyline points="-0.1135,-0.1162 -0.1135,-0.1850"/><polyline points="-0.1165,-0.1850 -0.1105,-0.1850"/></g><g stroke-width="0.0015" stroke="rgb(5%, 5%, 5%)" stroke-opacity="1.0" fill="none"><polyline points="-0.0867,-0.0998 -0.0808,-0.0998"/><polyline points="-0.0837,-0.0998 -0.0837,-0.2012"/><polyline points="-0.0867,-0.2012 -0.0808,-0.2012"/></g><g stroke-width="0.0015" stroke="rgb(5%, 5%, 5%)" stroke-opacity="1.0" fill="none"><polyline points="-0.0570,-0.1042 -0.0510,-0.1042"/><polyline points="-0.0540,-0.1042 -0.0540,-0.1979"/><polyline points="-0.0570,-0.1979 -0.0510,-0.1979"/></g><g stroke-width="0.0015" stroke="rgb(5%, 5%, 5%)" stroke-opacity="1.0" fill="none"><polyline points="-0.0272,-0.1144 -0.0213,-0.1144"/><polyline points="-0.0242,-0.1144 -0.0242,-0.1874"/><polyline points="-0.0272,-0.1874 -0.0213,-0.1874"/></g><g stroke-width="0.0015" stroke="rgb(5%, 5%, 5%)" stroke-opacity="1.0" fill="none"><polyline points="0.0025,-0.1116 0.0085,-0.1116"/><polyline points="0.0055,-0.1116 0.0055,-0.1920"/><polyline points="0.0025,-0.1920 0.0085,-0.1920"/></g><g stroke-width="0.0015" stroke="rgb(5%, 5%, 5%)" stroke-opacity="1.0" fill="none"><polyline points="0.0323,-0.1173 0.0383,-0.1173"/><polyline points="0.0353,-0.1173 0.0353,-0.1860"/><polyline points="0.0323,-0.1860 0.0383,-0.1860"/></g><g stroke-width="0.0015" stroke="rgb(5%, 5%, 5%)" stroke-opacity="1.0" fill="none"><polyline points="0.0621,-0.0789 0.0680,-0.0789"/><polyline points="0.0650,-0.0789 0.0650,-0.2471"/><polyline points="0.0621,-0.2471 0.0680,-0.2471"/></g><g stroke-width="0.0015" stroke="rgb(5%, 5%, 5%)" stroke-opacity="1.0" fill="none"><polyline points="0.0918,-0.0398 0.0978,-0.0398"/><polyline points="0.0948,-0.0398 0.0948,-0.2844"/><polyline points="0.0918,-0.2844 0.0978,-0.2844"/></g><g stroke-width="0.0015" stroke="rgb(5%, 5%, 5%)" stroke-opacity="1.0" fill="none"><polyline points="0.1216,-0.1196 0.1275,-0.1196"/><polyline points="0.1245,-0.1196 0.1245,-0.1852"/><polyline points="0.1216,-0.1852 0.1275,-0.1852"/></g><g stroke-width="0.0015" stroke="rgb(5%, 5%, 5%)" stroke-opacity="1.0" fill="none"><polyline points="0.1513,-0.0318 0.1573,-0.0318"/><polyline points="0.1543,-0.0318 0.1543,-0.2728"/><polyline points="0.1513,-0.2728 0.1573,-0.2728"/></g><g stroke-width="0.0015" stroke="rgb(5%, 5%, 5%)" stroke-opacity="1.0" fill="none"><polyline points="0.1811,-0.1127 0.1870,-0.1127"/><polyline points="0.1840,-0.1127 0.1840,-0.1884"/><polyline points="0.1811,-0.1884 0.1870,-0.1884"/></g><g stroke-width="0.0015" stroke="rgb(5%, 5%, 5%)" stroke-opacity="1.0" fill="none"><polyline points="0.2108,-0.1052 0.2168,-0.1052"/><polyline points="0.2138,-0.1052 0.2138,-0.1957"/><polyline points="0.2108,-0.1957 0.2168,-0.1957"/></g><g stroke-width="0.0015" stroke="rgb(5%, 5%, 5%)" stroke-opacity="1.0" fill="none"><polyline points="0.2406,-0.1238 0.2465,-0.1238"/><polyline points="0.2435,-0.1238 0.2435,-0.1783"/><polyline points="0.2406,-0.1783 0.2465,-0.1783"/></g><g stroke-width="0.0015" stroke="rgb(5%, 5%, 5%)" stroke-opacity="1.0" fill="none"><polyline points="0.2703,-0.1010 0.2763,-0.1010"/><polyline points="0.2733,-0.1010 0.2733,-0.2009"/><polyline points="0.2703,-0.2009 0.2763,-0.2009"/></g><g stroke-width="0.0015" stroke="rgb(5%, 5%, 5%)" stroke-opacity="1.0" fill="none"><polyline points="0.3001,-0.1106 0.3060,-0.1106"/><polyline points="0.3031,-0.1106 0.3031,-0.1989"/><polyline points="0.3001,-0.1989 0.3060,-0.1989"/></g><g stroke-width="0.0015" stroke="rgb(5%, 5%, 5%)" stroke-opacity="1.0" fill="none"><polyline points="0.3298,-0.1235 0.3358,-0.1235"/><polyline points="0.3328,-0.1235 0.3328,-0.1854"/><polyline points="0.3298,-0.1854 0.3358,-0.1854"/></g><g stroke-width="0.0015" stroke="rgb(5%, 5%, 5%)" stroke-opacity="1.0" fill="none"><polyline points="0.3596,-0.0934 0.3655,-0.0934"/><polyline points="0.3626,-0.0934 0.3626,-0.2427"/><polyline points="0.3596,-0.2427 0.3655,-0.2427"/></g><g stroke-width="0.0015" stroke="rgb(5%, 5%, 5%)" stroke-opacity="1.0" fill="none"><polyline points="0.3893,-0.0419 0.3953,-0.0419"/><polyline points="0.3923,-0.0419 0.3923,-0.2917"/><polyline points="0.3893,-0.2917 0.3953,-0.2917"/></g></g><g class="datapadding"></g></g><g class="hud"><g class="axis"><g class="axisbar"><g stroke-width="0" stroke="rgb(0%, 0%, 0%)" stroke-opacity="0" fill="rgb(5%, 5%, 5%)" fill-opacity="0.4"><rect width="0.7158" height="0.0015" x="-0.3078" y="0.0365"/></g></g><g class="ticks"><g class="tickglyph"><g stroke-width="0.0015" stroke="rgb(5%, 5%, 5%)" stroke-opacity="0.4" fill="rgb(5%, 5%, 5%)" fill-opacity="0.4"><polyline points="-0.2920,0.0488
-0.2920,0.0373"/><polyline points="-0.2623,0.0488
-0.2623,0.0373"/><polyline points="-0.2325,0.0488
-0.2325,0.0373"/><polyline points="-0.2027,0.0488
-0.2027,0.0373"/><polyline points="-0.1730,0.0488
-0.1730,0.0373"/><polyline points="-0.1432,0.0488
-0.1432,0.0373"/><polyline points="-0.1135,0.0488
-0.1135,0.0373"/><polyline points="-0.0837,0.0488
-0.0837,0.0373"/><polyline points="-0.0540,0.0488
-0.0540,0.0373"/><polyline points="-0.0242,0.0488
-0.0242,0.0373"/><polyline points="0.0055,0.0488
0.0055,0.0373"/><polyline points="0.0353,0.0488
0.0353,0.0373"/><polyline points="0.0650,0.0488
0.0650,0.0373"/><polyline points="0.0948,0.0488
0.0948,0.0373"/><polyline points="0.1245,0.0488
0.1245,0.0373"/><polyline points="0.1543,0.0488
0.1543,0.0373"/><polyline points="0.1840,0.0488
0.1840,0.0373"/><polyline points="0.2138,0.0488
0.2138,0.0373"/><polyline points="0.2435,0.0488
0.2435,0.0373"/><polyline points="0.2733,0.0488
0.2733,0.0373"/><polyline points="0.3031,0.0488
0.3031,0.0373"/><polyline points="0.3328,0.0488
0.3328,0.0373"/><polyline points="0.3626,0.0488
0.3626,0.0373"/><polyline points="0.3923,0.0488
0.3923,0.0373"/></g></g><g class="ticktext"><g stroke-width="0.0" stroke="none" fill="rgb(5%, 5%, 5%)" fill-opacity="1.0" font-size="0.0400" text-anchor="end"><text x="-0.2920" y="0.0698" transform="rotate(-45.0, -0.2920, 0.0698)">CDCL (adaptive)</text><text x="-0.2623" y="0.0698" transform="rotate(-45.0, -0.2623, 0.0698)">CDCL (adaptive), Baseline</text><text x="-0.2325" y="0.0698" transform="rotate(-45.0, -0.2325, 0.0698)">CDCL (adaptive, mVISDS, ExpRestart(100, 2))</text><text x="-0.2027" y="0.0698" transform="rotate(-45.0, -0.2027, 0.0698)">CDCL (adaptive, mVISDS, ExpRestart(100, 2)), Baseline</text><text x="-0.1730" y="0.0698" transform="rotate(-45.0, -0.1730, 0.0698)">CDCL (adaptive, mVISDS, LubyRestart(100, 2))</text><text x="-0.1432" y="0.0698" transform="rotate(-45.0, -0.1432, 0.0698)">CDCL (adaptive, mVISDS, LubyRestart(100, 2)), Baseline</text><text x="-0.1135" y="0.0698" transform="rotate(-45.0, -0.1135, 0.0698)">CDCL (adaptive, mVSIDS)</text><text x="-0.0837" y="0.0698" transform="rotate(-45.0, -0.0837, 0.0698)">CDCL (adaptive, mVSIDS), Baseline</text><text x="-0.0540" y="0.0698" transform="rotate(-45.0, -0.0540, 0.0698)">CDCL (α = 0.75)</text><text x="-0.0242" y="0.0698" transform="rotate(-45.0, -0.0242, 0.0698)">CDCL (α = 0.75), Baseline</text><text x="0.0055" y="0.0698" transform="rotate(-45.0, 0.0055, 0.0698)">CDCL (α = 0.75, mVISDS)</text><text x="0.0353" y="0.0698" transform="rotate(-45.0, 0.0353, 0.0698)">CDCL (α = 0.75, mVISDS), Baseline</text><text x="0.0650" y="0.0698" transform="rotate(-45.0, 0.0650, 0.0698)">CDCL (α = 0.75, mVISDS, ExpRestart(100, 2))</text><text x="0.0948" y="0.0698" transform="rotate(-45.0, 0.0948, 0.0698)">CDCL (α = 0.75, mVISDS, ExpRestart(100, 2)), Baseline</text><text x="0.1245" y="0.0698" transform="rotate(-45.0, 0.1245, 0.0698)">CDCL (α = 0.75, mVISDS, LubyRestart(100, 2))</text><text x="0.1543" y="0.0698" transform="rotate(-45.0, 0.1543, 0.0698)">CDCL (α = 0.75, mVISDS, LubyRestart(100, 2)), Baseline</text><text x="0.1840" y="0.0698" transform="rotate(-45.0, 0.1840, 0.0698)">CDCL (α = 0.95)</text><text x="0.2138" y="0.0698" transform="rotate(-45.0, 0.2138, 0.0698)">CDCL (α = 0.95), Baseline</text><text x="0.2435" y="0.0698" transform="rotate(-45.0, 0.2435, 0.0698)">CDCL (α = 0.95, mVISDS)</text><text x="0.2733" y="0.0698" transform="rotate(-45.0, 0.2733, 0.0698)">CDCL (α = 0.95, mVISDS), Baseline</text><text x="0.3031" y="0.0698" transform="rotate(-45.0, 0.3031, 0.0698)">CDCL (α = 0.95, mVISDS, ExpRestart(100, 2))</text><text x="0.3328" y="0.0698" transform="rotate(-45.0, 0.3328, 0.0698)">CDCL (α = 0.95, mVISDS, ExpRestart(100, 2)), Baseline</text><text x="0.3626" y="0.0698" transform="rotate(-45.0, 0.3626, 0.0698)">CDCL (α = 0.95, mVISDS, LubyRestart(100, 2))</text><text x="0.3923" y="0.0698" transform="rotate(-45.0, 0.3923, 0.0698)">CDCL (α = 0.95, mVISDS, LubyRestart(100, 2)), Baseline</text></g></g></g></g><g class="axis"><g class="axisbar"><g stroke-width="0" stroke="rgb(0%, 0%, 0%)" stroke-opacity="0" fill="rgb(5%, 5%, 5%)" fill-opacity="0.4"><rect width="0.0018" height="0.3840" x="-0.3131" y="-0.3505"/></g></g><g class="ticks"><g class="ticklines"><g stroke-width="0.0050" stroke="rgb(5%, 5%, 5%)" stroke-opacity="0.05" fill="none"><polyline points="-0.3069,0.0327 0.4072,0.0327"/><polyline points="-0.3069,-0.0629 0.4072,-0.0629"/><polyline points="-0.3069,-0.1585 0.4072,-0.1585"/><polyline points="-0.3069,-0.2541 0.4072,-0.2541"/><polyline points="-0.3069,-0.3497 0.4072,-0.3497"/></g></g><g class="tickglyph"><g stroke-width="0.0018" stroke="rgb(5%, 5%, 5%)" stroke-opacity="0.4" fill="rgb(5%, 5%, 5%)" fill-opacity="0.4"><polyline points="-0.3254,0.0327
-0.3122,0.0327"/><polyline points="-0.3254,-0.0629
-0.3122,-0.0629"/><polyline points="-0.3254,-0.1585
-0.3122,-0.1585"/><polyline points="-0.3254,-0.2541
-0.3122,-0.2541"/><polyline points="-0.3254,-0.3497
-0.3122,-0.3497"/></g></g><g class="ticktext"><g stroke-width="0.0" stroke="none" fill="rgb(5%, 5%, 5%)" fill-opacity="1.0" font-size="0.0400" text-anchor="end"><text x="-0.3351" y="0.0369">-10</text><text x="-0.3351" y="-0.0587"> -5</text><text x="-0.3351" y="-0.1543">  0</text><text x="-0.3351" y="-0.2499">  5</text><text x="-0.3351" y="-0.3455"> 10</text></g></g></g></g><g class="title"><g stroke-width="0.0" stroke="none" fill="rgb(5%, 5%, 5%)" fill-opacity="1.0" font-size="0.12" text-anchor="middle"><text x="-0.1008" y="-0.3868">Time: SATLIB/flat200-479/flat200-10/cnf</text></g></g><g class="legend"><g class="padding"></g><g class="padding"></g><g class="frame"><g stroke-width="0.0004" stroke="rgb(5%, 5%, 5%)" stroke-opacity="1.0" fill="rgb(5%, 5%, 5%)" fill-opacity="0"><rect width="0.4547" height="0.6500" x="0.2644" y="-0.2923"/></g></g><g class="legendContent"><g stroke-width="0.0001" stroke="rgb(39%, 42%, 73%)" stroke-opacity="1.0" fill="rgb(39%, 42%, 73%)" fill-opacity="0.25"><rect width="0.0232" height="0.0201" x="0.6882" y="0.3309"/></g><g stroke-width="0.0" stroke="none" fill="rgb(5%, 5%, 5%)" fill-opacity="1.0" font-size="0.0124" text-anchor="start"><text x="0.2722" y="0.3436">CDCL (α = 0.95, mVISDS, LubyRestart(100, 2)), Baseline</text></g><g stroke-width="0" stroke="rgb(2%, 29%, 48%)" stroke-opacity="1.0" fill="rgb(39%, 42%, 73%)" fill-opacity="1.0"><rect width="0.0232" height="0.0201" x="0.6882" y="0.3041"/></g><g stroke-width="0.0" stroke="none" fill="rgb(5%, 5%, 5%)" fill-opacity="1.0" font-size="0.0124" text-anchor="start"><text x="0.2722" y="0.3168">CDCL (α = 0.95, mVISDS, LubyRestart(100, 2))</text></g><g stroke-width="0.0001" stroke="rgb(46%, 11%, 0%)" stroke-opacity="1.0" fill="rgb(46%, 11%, 0%)" fill-opacity="0.25"><rect width="0.0232" height="0.0201" x="0.6882" y="0.2773"/></g><g stroke-width="0.0" stroke="none" fill="rgb(5%, 5%, 5%)" fill-opacity="1.0" font-size="0.0124" text-anchor="start"><text x="0.2722" y="0.2900">CDCL (α = 0.95, mVISDS, ExpRestart(100, 2)), Baseline</text></g><g stroke-width="0" stroke="rgb(2%, 29%, 48%)" stroke-opacity="1.0" fill="rgb(46%, 11%, 0%)" fill-opacity="1.0"><rect width="0.0232" height="0.0201" x="0.6882" y="0.2505"/></g><g stroke-width="0.0" stroke="none" fill="rgb(5%, 5%, 5%)" fill-opacity="1.0" font-size="0.0124" text-anchor="start"><text x="0.2722" y="0.2632">CDCL (α = 0.95, mVISDS, ExpRestart(100, 2))</text></g><g stroke-width="0.0001" stroke="rgb(73%, 50%, 48%)" stroke-opacity="1.0" fill="rgb(73%, 50%, 48%)" fill-opacity="0.25"><rect width="0.0232" height="0.0201" x="0.6882" y="0.2237"/></g><g stroke-width="0.0" stroke="none" fill="rgb(5%, 5%, 5%)" fill-opacity="1.0" font-size="0.0124" text-anchor="start"><text x="0.2722" y="0.2364">CDCL (α = 0.95, mVISDS), Baseline</text></g><g stroke-width="0" stroke="rgb(2%, 29%, 48%)" stroke-opacity="1.0" fill="rgb(73%, 50%, 48%)" fill-opacity="1.0"><rect width="0.0232" height="0.0201" x="0.6882" y="0.1969"/></g><g stroke-width="0.0" stroke="none" fill="rgb(5%, 5%, 5%)" fill-opacity="1.0" font-size="0.0124" text-anchor="start"><text x="0.2722" y="0.2096">CDCL (α = 0.95, mVISDS)</text></g><g stroke-width="0.0001" stroke="rgb(24%, 31%, 12%)" stroke-opacity="1.0" fill="rgb(24%, 31%, 12%)" fill-opacity="0.25"><rect width="0.0232" height="0.0201" x="0.6882" y="0.1701"/></g><g stroke-width="0.0" stroke="none" fill="rgb(5%, 5%, 5%)" fill-opacity="1.0" font-size="0.0124" text-anchor="start"><text x="0.2722" y="0.1828">CDCL (α = 0.95), Baseline</text></g><g stroke-width="0" stroke="rgb(2%, 29%, 48%)" stroke-opacity="1.0" fill="rgb(24%, 31%, 12%)" fill-opacity="1.0"><rect width="0.0232" height="0.0201" x="0.6882" y="0.1433"/></g><g stroke-width="0.0" stroke="none" fill="rgb(5%, 5%, 5%)" fill-opacity="1.0" font-size="0.0124" text-anchor="start"><text x="0.2722" y="0.1560">CDCL (α = 0.95)</text></g><g stroke-width="0.0001" stroke="rgb(13%, 40%, 0%)" stroke-opacity="1.0" fill="rgb(13%, 40%, 0%)" fill-opacity="0.25"><rect width="0.0232" height="0.0201" x="0.6882" y="0.1165"/></g><g stroke-width="0.0" stroke="none" fill="rgb(5%, 5%, 5%)" fill-opacity="1.0" font-size="0.0124" text-anchor="start"><text x="0.2722" y="0.1292">CDCL (α = 0.75, mVISDS, LubyRestart(100, 2)), Baseline</text></g><g stroke-width="0" stroke="rgb(2%, 29%, 48%)" stroke-opacity="1.0" fill="rgb(13%, 40%, 0%)" fill-opacity="1.0"><rect width="0.0232" height="0.0201" x="0.6882" y="0.0897"/></g><g stroke-width="0.0" stroke="none" fill="rgb(5%, 5%, 5%)" fill-opacity="1.0" font-size="0.0124" text-anchor="start"><text x="0.2722" y="0.1024">CDCL (α = 0.75, mVISDS, LubyRestart(100, 2))</text></g><g stroke-width="0.0001" stroke="rgb(22%, 70%, 43%)" stroke-opacity="1.0" fill="rgb(22%, 70%, 43%)" fill-opacity="0.25"><rect width="0.0232" height="0.0201" x="0.6882" y="0.0629"/></g><g stroke-width="0.0" stroke="none" fill="rgb(5%, 5%, 5%)" fill-opacity="1.0" font-size="0.0124" text-anchor="start"><text x="0.2722" y="0.0756">CDCL (α = 0.75, mVISDS, ExpRestart(100, 2)), Baseline</text></g><g stroke-width="0" stroke="rgb(2%, 29%, 48%)" stroke-opacity="1.0" fill="rgb(22%, 70%, 43%)" fill-opacity="1.0"><rect width="0.0232" height="0.0201" x="0.6882" y="0.0361"/></g><g stroke-width="0.0" stroke="none" fill="rgb(5%, 5%, 5%)" fill-opacity="1.0" font-size="0.0124" text-anchor="start"><text x="0.2722" y="0.0488">CDCL (α = 0.75, mVISDS, ExpRestart(100, 2))</text></g><g stroke-width="0.0001" stroke="rgb(44%, 21%, 47%)" stroke-opacity="1.0" fill="rgb(44%, 21%, 47%)" fill-opacity="0.25"><rect width="0.0232" height="0.0201" x="0.6882" y="0.0093"/></g><g stroke-width="0.0" stroke="none" fill="rgb(5%, 5%, 5%)" fill-opacity="1.0" font-size="0.0124" text-anchor="start"><text x="0.2722" y="0.0220">CDCL (α = 0.75, mVISDS), Baseline</text></g><g stroke-width="0" stroke="rgb(2%, 29%, 48%)" stroke-opacity="1.0" fill="rgb(44%, 21%, 47%)" fill-opacity="1.0"><rect width="0.0232" height="0.0201" x="0.6882" y="-0.0175"/></g><g stroke-width="0.0" stroke="none" fill="rgb(5%, 5%, 5%)" fill-opacity="1.0" font-size="0.0124" text-anchor="start"><text x="0.2722" y="-0.0048">CDCL (α = 0.75, mVISDS)</text></g><g stroke-width="0.0001" stroke="rgb(69%, 48%, 50%)" stroke-opacity="1.0" fill="rgb(69%, 48%, 50%)" fill-opacity="0.25"><rect width="0.0232" height="0.0201" x="0.6882" y="-0.0443"/></g><g stroke-width="0.0" stroke="none" fill="rgb(5%, 5%, 5%)" fill-opacity="1.0" font-size="0.0124" text-anchor="start"><text x="0.2722" y="-0.0316">CDCL (α = 0.75), Baseline</text></g><g stroke-width="0" stroke="rgb(2%, 29%, 48%)" stroke-opacity="1.0" fill="rgb(69%, 48%, 50%)" fill-opacity="1.0"><rect width="0.0232" height="0.0201" x="0.6882" y="-0.0711"/></g><g stroke-width="0.0" stroke="none" fill="rgb(5%, 5%, 5%)" fill-opacity="1.0" font-size="0.0124" text-anchor="start"><text x="0.2722" y="-0.0584">CDCL (α = 0.75)</text></g><g stroke-width="0.0001" stroke="rgb(58%, 33%, 58%)" stroke-opacity="1.0" fill="rgb(58%, 33%, 58%)" fill-opacity="0.25"><rect width="0.0232" height="0.0201" x="0.6882" y="-0.0980"/></g><g stroke-width="0.0" stroke="none" fill="rgb(5%, 5%, 5%)" fill-opacity="1.0" font-size="0.0124" text-anchor="start"><text x="0.2722" y="-0.0852">CDCL (adaptive, mVSIDS), Baseline</text></g><g stroke-width="0" stroke="rgb(2%, 29%, 48%)" stroke-opacity="1.0" fill="rgb(58%, 33%, 58%)" fill-opacity="1.0"><rect width="0.0232" height="0.0201" x="0.6882" y="-0.1248"/></g><g stroke-width="0.0" stroke="none" fill="rgb(5%, 5%, 5%)" fill-opacity="1.0" font-size="0.0124" text-anchor="start"><text x="0.2722" y="-0.1120">CDCL (adaptive, mVSIDS)</text></g><g stroke-width="0.0001" stroke="rgb(82%, 47%, 0%)" stroke-opacity="1.0" fill="rgb(82%, 47%, 0%)" fill-opacity="0.25"><rect width="0.0232" height="0.0201" x="0.6882" y="-0.1516"/></g><g stroke-width="0.0" stroke="none" fill="rgb(5%, 5%, 5%)" fill-opacity="1.0" font-size="0.0124" text-anchor="start"><text x="0.2722" y="-0.1388">CDCL (adaptive, mVISDS, LubyRestart(100, 2)), Baseline</text></g><g stroke-width="0" stroke="rgb(2%, 29%, 48%)" stroke-opacity="1.0" fill="rgb(82%, 47%, 0%)" fill-opacity="1.0"><rect width="0.0232" height="0.0201" x="0.6882" y="-0.1784"/></g><g stroke-width="0.0" stroke="none" fill="rgb(5%, 5%, 5%)" fill-opacity="1.0" font-size="0.0124" text-anchor="start"><text x="0.2722" y="-0.1656">CDCL (adaptive, mVISDS, LubyRestart(100, 2))</text></g><g stroke-width="0.0001" stroke="rgb(31%, 35%, 20%)" stroke-opacity="1.0" fill="rgb(31%, 35%, 20%)" fill-opacity="0.25"><rect width="0.0232" height="0.0201" x="0.6882" y="-0.2052"/></g><g stroke-width="0.0" stroke="none" fill="rgb(5%, 5%, 5%)" fill-opacity="1.0" font-size="0.0124" text-anchor="start"><text x="0.2722" y="-0.1924">CDCL (adaptive, mVISDS, ExpRestart(100, 2)), Baseline</text></g><g stroke-width="0" stroke="rgb(2%, 29%, 48%)" stroke-opacity="1.0" fill="rgb(31%, 35%, 20%)" fill-opacity="1.0"><rect width="0.0232" height="0.0201" x="0.6882" y="-0.2320"/></g><g stroke-width="0.0" stroke="none" fill="rgb(5%, 5%, 5%)" fill-opacity="1.0" font-size="0.0124" text-anchor="start"><text x="0.2722" y="-0.2193">CDCL (adaptive, mVISDS, ExpRestart(100, 2))</text></g><g stroke-width="0.0001" stroke="rgb(0%, 68%, 84%)" stroke-opacity="1.0" fill="rgb(0%, 68%, 84%)" fill-opacity="0.25"><rect width="0.0232" height="0.0201" x="0.6882" y="-0.2588"/></g><g stroke-width="0.0" stroke="none" fill="rgb(5%, 5%, 5%)" fill-opacity="1.0" font-size="0.0124" text-anchor="start"><text x="0.2722" y="-0.2461">CDCL (adaptive), Baseline</text></g><g stroke-width="0" stroke="rgb(2%, 29%, 48%)" stroke-opacity="1.0" fill="rgb(0%, 68%, 84%)" fill-opacity="1.0"><rect width="0.0232" height="0.0201" x="0.6882" y="-0.2856"/></g><g stroke-width="0.0" stroke="none" fill="rgb(5%, 5%, 5%)" fill-opacity="1.0" font-size="0.0124" text-anchor="start"><text x="0.2722" y="-0.2729">CDCL (adaptive)</text></g></g></g><g class="frame"><g stroke-width="0" stroke="rgb(0%, 0%, 0%)" stroke-opacity="0" fill="rgb(100%, 100%, 100%)" fill-opacity="0.02"><rect width="1.6180" height="1.0" x="-0.8090" y="-0.5"/></g></g><g class="title"><g stroke-width="0.0" stroke="none" fill="rgb(5%, 5%, 5%)" fill-opacity="1.0" font-size="0.0600" text-anchor="middle"><text x="-0.7463" y="0" transform="rotate(-90.0, -0.7463, 0)">Time [ms]</text></g></g></g></svg>