<svg xmlns="http://www.w3.org/2000/svg" xmlns:xlink="http://www.w3.org/1999/xlink" width="485" height="300" viewBox="-0.8090 -0.5 1.6180 1.0"><style>svg {
  color-scheme: light dark;
}
{
  .canvas g, .title g, .axisbar g, .ticktext g, .tickglyph g, .ticklines g, .legendContent g text {
    fill: rgb(5%, 5%, 5%);
  }
  .ticklines g, .tickglyph g, .legendBorder g {
    stroke: rgb(5%, 5%, 5%);
  }
  .legendBorder g {
    fill: rgb(94%, 94%, 94%);
  }
}
@media (prefers-color-scheme:dark) {
  .canvas g, .title g, .axisbar g, .ticktext g, .tickglyph g, .ticklines g, .legendContent g text {
    fill: rgb(94%, 94%, 94%);
  }
  .ticklines g, .tickglyph g, .legendBorder g {
    stroke: rgb(94%, 94%, 94%);
  }
  .legendBorder g {
    fill: rgb(5%, 5%, 5%);
  }
}</style><g class="chart"><g class="barchart"><g stroke-width="0" stroke="rgb(2%, 29%, 48%)" stroke-opacity="1.0" fill="rgb(0%, 30%, 12%)" fill-opacity="1.0"><rect width="0.0572" height="0.3279" x="-0.4439" y="-0.2459"/></g><g stroke-width="0" stroke="rgb(2%, 29%, 48%)" stroke-opacity="1.0" fill="rgb(0%, 25%, 37%)" fill-opacity="1.0"><rect width="0.0572" height="0.1143" x="-0.3867" y="-0.0323"/></g><g stroke-width="0" stroke="rgb(2%, 29%, 48%)" stroke-opacity="1.0" fill="rgb(26%, 54%, 57%)" fill-opacity="1.0"><rect width="0.0572" height="0.1138" x="-0.3296" y="-0.0318"/></g><g stroke-width="0" stroke="rgb(2%, 29%, 48%)" stroke-opacity="1.0" fill="rgb(1%, 28%, 43%)" fill-opacity="1.0"><rect width="0.0572" height="0.1115" x="-0.2724" y="-0.0294"/></g><g stroke-width="0" stroke="rgb(2%, 29%, 48%)" stroke-opacity="1.0" fill="rgb(0%, 72%, 98%)" fill-opacity="1.0"><rect width="0.0572" height="0.3779" x="-0.2153" y="-0.2958"/></g><g stroke-width="0" stroke="rgb(2%, 29%, 48%)" stroke-opacity="1.0" fill="rgb(90%, 37%, 58%)" fill-opacity="1.0"><rect width="0.0572" height="0.1864" x="-0.1581" y="-0.1044"/></g><g stroke-width="0" stroke="rgb(2%, 29%, 48%)" stroke-opacity="1.0" fill="rgb(38%, 23%, 0%)" fill-opacity="1.0"><rect width="0.0572" height="0.1762" x="-0.1010" y="-0.0942"/></g><g stroke-width="0" stroke="rgb(2%, 29%, 48%)" stroke-opacity="1.0" fill="rgb(91%, 19%, 0%)" fill-opacity="1.0"><rect width="0.0572" height="0.1758" x="-0.0438" y="-0.0938"/></g><g stroke-width="0" stroke="rgb(2%, 29%, 48%)" stroke-opacity="1.0" fill="rgb(0%, 64%, 70%)" fill-opacity="1.0"><rect width="0.0572" height="0.3086" x="0.0134" y="-0.2266"/></g><g stroke-width="0" stroke="rgb(2%, 29%, 48%)" stroke-opacity="1.0" fill="rgb(91%, 47%, 0%)" fill-opacity="1.0"><rect width="0.0572" height="0.1502" x="0.0705" y="-0.0682"/></g><g stroke-width="0" stroke="rgb(2%, 29%, 48%)" stroke-opacity="1.0" fill="rgb(62%, 0%, 31%)" fill-opacity="1.0"><rect width="0.0572" height="0.1840" x="0.1277" y="-0.1019"/></g><g stroke-width="0" stroke="rgb(2%, 29%, 48%)" stroke-opacity="1.0" fill="rgb(17%, 40%, 67%)" fill-opacity="1.0"><rect width="0.0572" height="0.1835" x="0.1848" y="-0.1015"/></g></g><g class="errors"></g></g><g class="hud"><g class="axis"><g class="ticks"><g class="tickglyph"><g stroke-width="0.0040" stroke="rgb(5%, 5%, 5%)" stroke-opacity="0.4" fill="rgb(5%, 5%, 5%)" fill-opacity="0.4"><g transform="rotate(-90.0, -0.4961, 0.0820)"><polyline points="-0.4961,0.0970
-0.4961,0.0670"/></g><g transform="rotate(-90.0, -0.4961, 0.0404)"><polyline points="-0.4961,0.0554
-0.4961,0.0254"/></g><g transform="rotate(-90.0, -0.4961, -0.0012)"><polyline points="-0.4961,0.0138
-0.4961,-0.0162"/></g><g transform="rotate(-90.0, -0.4961, -0.0429)"><polyline points="-0.4961,-0.0279
-0.4961,-0.0579"/></g><g transform="rotate(-90.0, -0.4961, -0.0845)"><polyline points="-0.4961,-0.0695
-0.4961,-0.0995"/></g><g transform="rotate(-90.0, -0.4961, -0.1261)"><polyline points="-0.4961,-0.1111
-0.4961,-0.1411"/></g><g transform="rotate(-90.0, -0.4961, -0.1677)"><polyline points="-0.4961,-0.1527
-0.4961,-0.1827"/></g><g transform="rotate(-90.0, -0.4961, -0.2094)"><polyline points="-0.4961,-0.1944
-0.4961,-0.2244"/></g><g transform="rotate(-90.0, -0.4961, -0.2510)"><polyline points="-0.4961,-0.2360
-0.4961,-0.2660"/></g><g transform="rotate(-90.0, -0.4961, -0.2926)"><polyline points="-0.4961,-0.2776
-0.4961,-0.3076"/></g><g transform="rotate(-90.0, -0.4961, -0.3342)"><polyline points="-0.4961,-0.3192
-0.4961,-0.3492"/></g></g></g><g class="ticktext"><g stroke-width="0.0" stroke="none" fill="rgb(5%, 5%, 5%)" fill-opacity="1.0" font-size="0.0235" text-anchor="end"><text x="-0.5130" y="0.0877"> 0</text><text x="-0.5130" y="0.0461"> 2</text><text x="-0.5130" y="0.0045"> 4</text><text x="-0.5130" y="-0.0371"> 6</text><text x="-0.5130" y="-0.0788"> 8</text><text x="-0.5130" y="-0.1204">10</text><text x="-0.5130" y="-0.1620">12</text><text x="-0.5130" y="-0.2036">14</text><text x="-0.5130" y="-0.2453">16</text><text x="-0.5130" y="-0.2869">18</text><text x="-0.5130" y="-0.3285">20</text></g></g><g class="ticklines"><g stroke-width="0.0050" stroke="rgb(5%, 5%, 5%)" stroke-opacity="0.05" fill="none"><polyline points="-0.4820,0.0820 0.2801,0.0820"/><polyline points="-0.4820,0.0404 0.2801,0.0404"/><polyline points="-0.4820,-0.0012 0.2801,-0.0012"/><polyline points="-0.4820,-0.0429 0.2801,-0.0429"/><polyline points="-0.4820,-0.0845 0.2801,-0.0845"/><polyline points="-0.4820,-0.1261 0.2801,-0.1261"/><polyline points="-0.4820,-0.1677 0.2801,-0.1677"/><polyline points="-0.4820,-0.2094 0.2801,-0.2094"/><polyline points="-0.4820,-0.2510 0.2801,-0.2510"/><polyline points="-0.4820,-0.2926 0.2801,-0.2926"/><polyline points="-0.4820,-0.3342 0.2801,-0.3342"/></g></g></g><g class="axisbar"><g stroke-width="0" stroke="rgb(0%, 0%, 0%)" stroke-opacity="0" fill="rgb(5%, 5%, 5%)" fill-opacity="0.4"><rect width="0.0019" height="0.4179" x="-0.4885" y="-0.3351"/></g></g></g><g class="axis"><g class="ticks"><g class="tickglyph"><g stroke-width="0.0040" stroke="rgb(5%, 5%, 5%)" stroke-opacity="0.4" fill="rgb(5%, 5%, 5%)" fill-opacity="0.4"><polyline points="-0.4153,0.1095
-0.4153,0.0795"/><polyline points="-0.3581,0.1095
-0.3581,0.0795"/><polyline points="-0.3010,0.1095
-0.3010,0.0795"/><polyline points="-0.2438,0.1095
-0.2438,0.0795"/><polyline points="-0.1867,0.1095
-0.1867,0.0795"/><polyline points="-0.1295,0.1095
-0.1295,0.0795"/><polyline points="-0.0724,0.1095
-0.0724,0.0795"/><polyline points="-0.0152,0.1095
-0.0152,0.0795"/><polyline points="0.0419,0.1095
0.0419,0.0795"/><polyline points="0.0991,0.1095
0.0991,0.0795"/><polyline points="0.1562,0.1095
0.1562,0.0795"/><polyline points="0.2134,0.1095
0.2134,0.0795"/></g></g><g class="ticktext"><g stroke-width="0.0" stroke="none" fill="rgb(5%, 5%, 5%)" fill-opacity="1.0" font-size="0.0235" text-anchor="end"><text x="-0.4153" y="0.1209" transform="rotate(-45.0, -0.4153, 0.1209)">CDCL (adaptive)</text><text x="-0.3581" y="0.1209" transform="rotate(-45.0, -0.3581, 0.1209)">CDCL (adaptive, mVISDS, ExpRestart(100, 2))</text><text x="-0.3010" y="0.1209" transform="rotate(-45.0, -0.3010, 0.1209)">CDCL (adaptive, mVISDS, LubyRestart(100, 2))</text><text x="-0.2438" y="0.1209" transform="rotate(-45.0, -0.2438, 0.1209)">CDCL (adaptive, mVSIDS)</text><text x="-0.1867" y="0.1209" transform="rotate(-45.0, -0.1867, 0.1209)">CDCL (α = 0.75)</text><text x="-0.1295" y="0.1209" transform="rotate(-45.0, -0.1295, 0.1209)">CDCL (α = 0.75, mVISDS)</text><text x="-0.0724" y="0.1209" transform="rotate(-45.0, -0.0724, 0.1209)">CDCL (α = 0.75, mVISDS, ExpRestart(100, 2))</text><text x="-0.0152" y="0.1209" transform="rotate(-45.0, -0.0152, 0.1209)">CDCL (α = 0.75, mVISDS, LubyRestart(100, 2))</text><text x="0.0419" y="0.1209" transform="rotate(-45.0, 0.0419, 0.1209)">CDCL (α = 0.95)</text><text x="0.0991" y="0.1209" transform="rotate(-45.0, 0.0991, 0.1209)">CDCL (α = 0.95, mVISDS)</text><text x="0.1562" y="0.1209" transform="rotate(-45.0, 0.1562, 0.1209)">CDCL (α = 0.95, mVISDS, ExpRestart(100, 2))</text><text x="0.2134" y="0.1209" transform="rotate(-45.0, 0.2134, 0.1209)">CDCL (α = 0.95, mVISDS, LubyRestart(100, 2))</text></g></g></g><g class="axisbar"><g stroke-width="0" stroke="rgb(0%, 0%, 0%)" stroke-opacity="0" fill="rgb(5%, 5%, 5%)" fill-opacity="0.4"><rect width="0.7639" height="0.0017" x="-0.4829" y="0.0862"/></g></g></g><g class="title"><g stroke-width="0.0" stroke="none" fill="rgb(5%, 5%, 5%)" fill-opacity="1.0" font-size="0.0565" text-anchor="middle"><text x="-0.2062" y="-0.3768">Copied: SATLIB/flat200-479/flat200-1/cnf</text></g></g><g class="legend"><g class="legendBorder"><g stroke-width="0.0017" stroke="rgb(5%, 5%, 5%)" stroke-opacity="1.0" fill="rgb(5%, 5%, 5%)" fill-opacity="0"><rect width="0.3514" height="0.3569" x="0.3618" y="-0.2567"/></g></g><g class="legendContent"><g stroke-width="0.0" stroke="none" fill="rgb(5%, 5%, 5%)" fill-opacity="1.0" font-size="0.0148" text-anchor="start"><text x="0.3700" y="0.0853">CDCL (α = 0.95, mVISDS, LubyRestart(100, 2))</text></g><g stroke-width="0" stroke="rgb(2%, 29%, 48%)" stroke-opacity="1.0" fill="rgb(17%, 40%, 67%)" fill-opacity="1.0"><rect width="0.0247" height="0.0219" x="0.6802" y="0.0711"/></g><g stroke-width="0.0" stroke="none" fill="rgb(5%, 5%, 5%)" fill-opacity="1.0" font-size="0.0148" text-anchor="start"><text x="0.3700" y="0.0562">CDCL (α = 0.95, mVISDS, ExpRestart(100, 2))</text></g><g stroke-width="0" stroke="rgb(2%, 29%, 48%)" stroke-opacity="1.0" fill="rgb(62%, 0%, 31%)" fill-opacity="1.0"><rect width="0.0247" height="0.0219" x="0.6802" y="0.0420"/></g><g stroke-width="0.0" stroke="none" fill="rgb(5%, 5%, 5%)" fill-opacity="1.0" font-size="0.0148" text-anchor="start"><text x="0.3700" y="0.0270">CDCL (α = 0.95, mVISDS)</text></g><g stroke-width="0" stroke="rgb(2%, 29%, 48%)" stroke-opacity="1.0" fill="rgb(91%, 47%, 0%)" fill-opacity="1.0"><rect width="0.0247" height="0.0219" x="0.6802" y="0.0128"/></g><g stroke-width="0.0" stroke="none" fill="rgb(5%, 5%, 5%)" fill-opacity="1.0" font-size="0.0148" text-anchor="start"><text x="0.3700" y="-0.0021">CDCL (α = 0.95)</text></g><g stroke-width="0" stroke="rgb(2%, 29%, 48%)" stroke-opacity="1.0" fill="rgb(0%, 64%, 70%)" fill-opacity="1.0"><rect width="0.0247" height="0.0219" x="0.6802" y="-0.0163"/></g><g stroke-width="0.0" stroke="none" fill="rgb(5%, 5%, 5%)" fill-opacity="1.0" font-size="0.0148" text-anchor="start"><text x="0.3700" y="-0.0312">CDCL (α = 0.75, mVISDS, LubyRestart(100, 2))</text></g><g stroke-width="0" stroke="rgb(2%, 29%, 48%)" stroke-opacity="1.0" fill="rgb(91%, 19%, 0%)" fill-opacity="1.0"><rect width="0.0247" height="0.0219" x="0.6802" y="-0.0455"/></g><g stroke-width="0.0" stroke="none" fill="rgb(5%, 5%, 5%)" fill-opacity="1.0" font-size="0.0148" text-anchor="start"><text x="0.3700" y="-0.0604">CDCL (α = 0.75, mVISDS, ExpRestart(100, 2))</text></g><g stroke-width="0" stroke="rgb(2%, 29%, 48%)" stroke-opacity="1.0" fill="rgb(38%, 23%, 0%)" fill-opacity="1.0"><rect width="0.0247" height="0.0219" x="0.6802" y="-0.0746"/></g><g stroke-width="0.0" stroke="none" fill="rgb(5%, 5%, 5%)" fill-opacity="1.0" font-size="0.0148" text-anchor="start"><text x="0.3700" y="-0.0895">CDCL (α = 0.75, mVISDS)</text></g><g stroke-width="0" stroke="rgb(2%, 29%, 48%)" stroke-opacity="1.0" fill="rgb(90%, 37%, 58%)" fill-opacity="1.0"><rect width="0.0247" height="0.0219" x="0.6802" y="-0.1037"/></g><g stroke-width="0.0" stroke="none" fill="rgb(5%, 5%, 5%)" fill-opacity="1.0" font-size="0.0148" text-anchor="start"><text x="0.3700" y="-0.1187">CDCL (α = 0.75)</text></g><g stroke-width="0" stroke="rgb(2%, 29%, 48%)" stroke-opacity="1.0" fill="rgb(0%, 72%, 98%)" fill-opacity="1.0"><rect width="0.0247" height="0.0219" x="0.6802" y="-0.1329"/></g><g stroke-width="0.0" stroke="none" fill="rgb(5%, 5%, 5%)" fill-opacity="1.0" font-size="0.0148" text-anchor="start"><text x="0.3700" y="-0.1478">CDCL (adaptive, mVSIDS)</text></g><g stroke-width="0" stroke="rgb(2%, 29%, 48%)" stroke-opacity="1.0" fill="rgb(1%, 28%, 43%)" fill-opacity="1.0"><rect width="0.0247" height="0.0219" x="0.6802" y="-0.1620"/></g><g stroke-width="0.0" stroke="none" fill="rgb(5%, 5%, 5%)" fill-opacity="1.0" font-size="0.0148" text-anchor="start"><text x="0.3700" y="-0.1769">CDCL (adaptive, mVISDS, LubyRestart(100, 2))</text></g><g stroke-width="0" stroke="rgb(2%, 29%, 48%)" stroke-opacity="1.0" fill="rgb(26%, 54%, 57%)" fill-opacity="1.0"><rect width="0.0247" height="0.0219" x="0.6802" y="-0.1911"/></g><g stroke-width="0.0" stroke="none" fill="rgb(5%, 5%, 5%)" fill-opacity="1.0" font-size="0.0148" text-anchor="start"><text x="0.3700" y="-0.2061">CDCL (adaptive, mVISDS, ExpRestart(100, 2))</text></g><g stroke-width="0" stroke="rgb(2%, 29%, 48%)" stroke-opacity="1.0" fill="rgb(0%, 25%, 37%)" fill-opacity="1.0"><rect width="0.0247" height="0.0219" x="0.6802" y="-0.2203"/></g><g stroke-width="0.0" stroke="none" fill="rgb(5%, 5%, 5%)" fill-opacity="1.0" font-size="0.0148" text-anchor="start"><text x="0.3700" y="-0.2352">CDCL (adaptive)</text></g><g stroke-width="0" stroke="rgb(2%, 29%, 48%)" stroke-opacity="1.0" fill="rgb(0%, 30%, 12%)" fill-opacity="1.0"><rect width="0.0247" height="0.0219" x="0.6802" y="-0.2494"/></g></g></g><g class="frame"><g stroke-width="0" stroke="rgb(0%, 0%, 0%)" stroke-opacity="0" fill="rgb(100%, 100%, 100%)" fill-opacity="0.02"><rect width="1.6180" height="1.0" x="-0.8090" y="-0.5"/></g></g><g class="title"><g stroke-width="0.0" stroke="none" fill="rgb(5%, 5%, 5%)" fill-opacity="1.0" font-size="0.0283" text-anchor="middle"><text x="-0.7421" y="0" transform="rotate(-90.0, -0.7421, 0)">Copied [MiB]</text></g></g></g></svg>