<svg xmlns="http://www.w3.org/2000/svg" xmlns:xlink="http://www.w3.org/1999/xlink" width="485" height="300" viewBox="-0.8090 -0.5 1.6180 1.0"><style>svg {
  color-scheme: light dark;
}
{
  .canvas g, .title g, .axisbar g, .ticktext g, .tickglyph g, .ticklines g, .legendContent g text {
    fill: rgb(5%, 5%, 5%);
  }
  .ticklines g, .tickglyph g, .legendBorder g {
    stroke: rgb(5%, 5%, 5%);
  }
  .legendBorder g {
    fill: rgb(94%, 94%, 94%);
  }
}
@media (prefers-color-scheme:dark) {
  .canvas g, .title g, .axisbar g, .ticktext g, .tickglyph g, .ticklines g, .legendContent g text {
    fill: rgb(94%, 94%, 94%);
  }
  .ticklines g, .tickglyph g, .legendBorder g {
    stroke: rgb(94%, 94%, 94%);
  }
  .legendBorder g {
    fill: rgb(5%, 5%, 5%);
  }
}</style><g class="chart"><g class="barchart"><g stroke-width="0" stroke="rgb(2%, 29%, 48%)" stroke-opacity="1.0" fill="rgb(0%, 30%, 12%)" fill-opacity="1.0"><rect width="0.0532" height="0.2666" x="-0.4553" y="-0.1846"/></g><g stroke-width="0" stroke="rgb(2%, 29%, 48%)" stroke-opacity="1.0" fill="rgb(0%, 25%, 37%)" fill-opacity="1.0"><rect width="0.0532" height="0.3726" x="-0.4020" y="-0.2906"/></g><g stroke-width="0" stroke="rgb(2%, 29%, 48%)" stroke-opacity="1.0" fill="rgb(26%, 54%, 57%)" fill-opacity="1.0"><rect width="0.0532" height="0.3727" x="-0.3488" y="-0.2907"/></g><g stroke-width="0" stroke="rgb(2%, 29%, 48%)" stroke-opacity="1.0" fill="rgb(1%, 28%, 43%)" fill-opacity="1.0"><rect width="0.0532" height="0.3698" x="-0.2956" y="-0.2878"/></g><g stroke-width="0" stroke="rgb(2%, 29%, 48%)" stroke-opacity="1.0" fill="rgb(0%, 72%, 98%)" fill-opacity="1.0"><rect width="0.0532" height="0.2727" x="-0.2423" y="-0.1907"/></g><g stroke-width="0" stroke="rgb(2%, 29%, 48%)" stroke-opacity="1.0" fill="rgb(90%, 37%, 58%)" fill-opacity="1.0"><rect width="0.0532" height="0.3697" x="-0.1891" y="-0.2877"/></g><g stroke-width="0" stroke="rgb(2%, 29%, 48%)" stroke-opacity="1.0" fill="rgb(38%, 23%, 0%)" fill-opacity="1.0"><rect width="0.0532" height="0.3614" x="-0.1359" y="-0.2793"/></g><g stroke-width="0" stroke="rgb(2%, 29%, 48%)" stroke-opacity="1.0" fill="rgb(91%, 19%, 0%)" fill-opacity="1.0"><rect width="0.0532" height="0.3619" x="-0.0826" y="-0.2799"/></g><g stroke-width="0" stroke="rgb(2%, 29%, 48%)" stroke-opacity="1.0" fill="rgb(0%, 64%, 70%)" fill-opacity="1.0"><rect width="0.0532" height="0.2794" x="-0.0294" y="-0.1974"/></g><g stroke-width="0" stroke="rgb(2%, 29%, 48%)" stroke-opacity="1.0" fill="rgb(91%, 47%, 0%)" fill-opacity="1.0"><rect width="0.0532" height="0.3698" x="0.0239" y="-0.2878"/></g><g stroke-width="0" stroke="rgb(2%, 29%, 48%)" stroke-opacity="1.0" fill="rgb(62%, 0%, 31%)" fill-opacity="1.0"><rect width="0.0532" height="0.3674" x="0.0771" y="-0.2853"/></g><g stroke-width="0" stroke="rgb(2%, 29%, 48%)" stroke-opacity="1.0" fill="rgb(17%, 40%, 67%)" fill-opacity="1.0"><rect width="0.0532" height="0.3677" x="0.1303" y="-0.2856"/></g><g stroke-width="0" stroke="rgb(2%, 29%, 48%)" stroke-opacity="1.0" fill="rgb(0%, 52%, 40%)" fill-opacity="1.0"><rect width="0.0532" height="0.1353" x="0.1836" y="-0.0533"/></g></g><g class="errors"><g stroke-width="0.0015" stroke="rgb(5%, 5%, 5%)" stroke-opacity="1.0" fill="none"><polyline points="-0.4340,-0.1734 -0.4233,-0.1734"/><polyline points="-0.4286,-0.1734 -0.4286,-0.1958"/><polyline points="-0.4340,-0.1958 -0.4233,-0.1958"/></g><g stroke-width="0.0015" stroke="rgb(5%, 5%, 5%)" stroke-opacity="1.0" fill="none"><polyline points="-0.3807,-0.2762 -0.3701,-0.2762"/><polyline points="-0.3754,-0.2762 -0.3754,-0.3049"/><polyline points="-0.3807,-0.3049 -0.3701,-0.3049"/></g><g stroke-width="0.0015" stroke="rgb(5%, 5%, 5%)" stroke-opacity="1.0" fill="none"><polyline points="-0.3275,-0.2787 -0.3168,-0.2787"/><polyline points="-0.3222,-0.2787 -0.3222,-0.3026"/><polyline points="-0.3275,-0.3026 -0.3168,-0.3026"/></g><g stroke-width="0.0015" stroke="rgb(5%, 5%, 5%)" stroke-opacity="1.0" fill="none"><polyline points="-0.2743,-0.2759 -0.2636,-0.2759"/><polyline points="-0.2689,-0.2759 -0.2689,-0.2996"/><polyline points="-0.2743,-0.2996 -0.2636,-0.2996"/></g><g stroke-width="0.0015" stroke="rgb(5%, 5%, 5%)" stroke-opacity="1.0" fill="none"><polyline points="-0.2210,-0.1849 -0.2104,-0.1849"/><polyline points="-0.2157,-0.1849 -0.2157,-0.1965"/><polyline points="-0.2210,-0.1965 -0.2104,-0.1965"/></g><g stroke-width="0.0015" stroke="rgb(5%, 5%, 5%)" stroke-opacity="1.0" fill="none"><polyline points="-0.1678,-0.2741 -0.1571,-0.2741"/><polyline points="-0.1625,-0.2741 -0.1625,-0.3013"/><polyline points="-0.1678,-0.3013 -0.1571,-0.3013"/></g><g stroke-width="0.0015" stroke="rgb(5%, 5%, 5%)" stroke-opacity="1.0" fill="none"><polyline points="-0.1146,-0.2708 -0.1039,-0.2708"/><polyline points="-0.1092,-0.2708 -0.1092,-0.2878"/><polyline points="-0.1146,-0.2878 -0.1039,-0.2878"/></g><g stroke-width="0.0015" stroke="rgb(5%, 5%, 5%)" stroke-opacity="1.0" fill="none"><polyline points="-0.0613,-0.2641 -0.0507,-0.2641"/><polyline points="-0.0560,-0.2641 -0.0560,-0.2957"/><polyline points="-0.0613,-0.2957 -0.0507,-0.2957"/></g><g stroke-width="0.0015" stroke="rgb(5%, 5%, 5%)" stroke-opacity="1.0" fill="none"><polyline points="-0.0081,-0.1913 0.0026,-0.1913"/><polyline points="-0.0028,-0.1913 -0.0028,-0.2035"/><polyline points="-0.0081,-0.2035 0.0026,-0.2035"/></g><g stroke-width="0.0015" stroke="rgb(5%, 5%, 5%)" stroke-opacity="1.0" fill="none"><polyline points="0.0451,-0.2734 0.0558,-0.2734"/><polyline points="0.0505,-0.2734 0.0505,-0.3022"/><polyline points="0.0451,-0.3022 0.0558,-0.3022"/></g><g stroke-width="0.0015" stroke="rgb(5%, 5%, 5%)" stroke-opacity="1.0" fill="none"><polyline points="0.0984,-0.2794 0.1090,-0.2794"/><polyline points="0.1037,-0.2794 0.1037,-0.2912"/><polyline points="0.0984,-0.2912 0.1090,-0.2912"/></g><g stroke-width="0.0015" stroke="rgb(5%, 5%, 5%)" stroke-opacity="1.0" fill="none"><polyline points="0.1516,-0.2708 0.1623,-0.2708"/><polyline points="0.1569,-0.2708 0.1569,-0.3005"/><polyline points="0.1516,-0.3005 0.1623,-0.3005"/></g><g stroke-width="0.0015" stroke="rgb(5%, 5%, 5%)" stroke-opacity="1.0" fill="none"><polyline points="0.2049,-0.0468 0.2155,-0.0468"/><polyline points="0.2102,-0.0468 0.2102,-0.0597"/><polyline points="0.2049,-0.0597 0.2155,-0.0597"/></g></g></g><g class="hud"><g class="axis"><g class="ticks"><g class="tickglyph"><g stroke-width="0.0040" stroke="rgb(5%, 5%, 5%)" stroke-opacity="0.4" fill="rgb(5%, 5%, 5%)" fill-opacity="0.4"><g transform="rotate(-90.0, -0.5080, 0.0820)"><polyline points="-0.5080,0.0970
-0.5080,0.0670"/></g><g transform="rotate(-90.0, -0.5080, 0.0300)"><polyline points="-0.5080,0.0450
-0.5080,0.0150"/></g><g transform="rotate(-90.0, -0.5080, -0.0220)"><polyline points="-0.5080,-0.0070
-0.5080,-0.0370"/></g><g transform="rotate(-90.0, -0.5080, -0.0741)"><polyline points="-0.5080,-0.0591
-0.5080,-0.0891"/></g><g transform="rotate(-90.0, -0.5080, -0.1261)"><polyline points="-0.5080,-0.1111
-0.5080,-0.1411"/></g><g transform="rotate(-90.0, -0.5080, -0.1781)"><polyline points="-0.5080,-0.1631
-0.5080,-0.1931"/></g><g transform="rotate(-90.0, -0.5080, -0.2302)"><polyline points="-0.5080,-0.2152
-0.5080,-0.2452"/></g><g transform="rotate(-90.0, -0.5080, -0.2822)"><polyline points="-0.5080,-0.2672
-0.5080,-0.2972"/></g><g transform="rotate(-90.0, -0.5080, -0.3342)"><polyline points="-0.5080,-0.3192
-0.5080,-0.3492"/></g></g></g><g class="ticktext"><g stroke-width="0.0" stroke="none" fill="rgb(5%, 5%, 5%)" fill-opacity="1.0" font-size="0.0238" text-anchor="end"><text x="-0.5251" y="0.0877">0.0</text><text x="-0.5251" y="0.0357">0.2</text><text x="-0.5251" y="-0.0163">0.4</text><text x="-0.5251" y="-0.0683">0.6</text><text x="-0.5251" y="-0.1204">0.8</text><text x="-0.5251" y="-0.1724">1.0</text><text x="-0.5251" y="-0.2244">1.2</text><text x="-0.5251" y="-0.2765">1.4</text><text x="-0.5251" y="-0.3285">1.6</text></g></g><g class="ticklines"><g stroke-width="0.0050" stroke="rgb(5%, 5%, 5%)" stroke-opacity="0.05" fill="none"><polyline points="-0.4937,0.0820 0.2752,0.0820"/><polyline points="-0.4937,0.0300 0.2752,0.0300"/><polyline points="-0.4937,-0.0220 0.2752,-0.0220"/><polyline points="-0.4937,-0.0741 0.2752,-0.0741"/><polyline points="-0.4937,-0.1261 0.2752,-0.1261"/><polyline points="-0.4937,-0.1781 0.2752,-0.1781"/><polyline points="-0.4937,-0.2302 0.2752,-0.2302"/><polyline points="-0.4937,-0.2822 0.2752,-0.2822"/><polyline points="-0.4937,-0.3342 0.2752,-0.3342"/></g></g></g><g class="axisbar"><g stroke-width="0" stroke="rgb(0%, 0%, 0%)" stroke-opacity="0" fill="rgb(5%, 5%, 5%)" fill-opacity="0.4"><rect width="0.0019" height="0.4179" x="-0.5004" y="-0.3351"/></g></g></g><g class="axis"><g class="ticks"><g class="tickglyph"><g stroke-width="0.0040" stroke="rgb(5%, 5%, 5%)" stroke-opacity="0.4" fill="rgb(5%, 5%, 5%)" fill-opacity="0.4"><polyline points="-0.4286,0.1095
-0.4286,0.0795"/><polyline points="-0.3754,0.1095
-0.3754,0.0795"/><polyline points="-0.3222,0.1095
-0.3222,0.0795"/><polyline points="-0.2689,0.1095
-0.2689,0.0795"/><polyline points="-0.2157,0.1095
-0.2157,0.0795"/><polyline points="-0.1625,0.1095
-0.1625,0.0795"/><polyline points="-0.1092,0.1095
-0.1092,0.0795"/><polyline points="-0.0560,0.1095
-0.0560,0.0795"/><polyline points="-0.0028,0.1095
-0.0028,0.0795"/><polyline points="0.0505,0.1095
0.0505,0.0795"/><polyline points="0.1037,0.1095
0.1037,0.0795"/><polyline points="0.1569,0.1095
0.1569,0.0795"/><polyline points="0.2102,0.1095
0.2102,0.0795"/></g></g><g class="ticktext"><g stroke-width="0.0" stroke="none" fill="rgb(5%, 5%, 5%)" fill-opacity="1.0" font-size="0.0238" text-anchor="end"><text x="-0.4286" y="0.1209" transform="rotate(-45.0, -0.4286, 0.1209)">CDCL (adaptive)</text><text x="-0.3754" y="0.1209" transform="rotate(-45.0, -0.3754, 0.1209)">CDCL (adaptive, mVISDS, ExpRestart(100, 2))</text><text x="-0.3222" y="0.1209" transform="rotate(-45.0, -0.3222, 0.1209)">CDCL (adaptive, mVISDS, LubyRestart(100, 2))</text><text x="-0.2689" y="0.1209" transform="rotate(-45.0, -0.2689, 0.1209)">CDCL (adaptive, mVSIDS)</text><text x="-0.2157" y="0.1209" transform="rotate(-45.0, -0.2157, 0.1209)">CDCL (α = 0.75)</text><text x="-0.1625" y="0.1209" transform="rotate(-45.0, -0.1625, 0.1209)">CDCL (α = 0.75, mVISDS)</text><text x="-0.1092" y="0.1209" transform="rotate(-45.0, -0.1092, 0.1209)">CDCL (α = 0.75, mVISDS, ExpRestart(100, 2))</text><text x="-0.0560" y="0.1209" transform="rotate(-45.0, -0.0560, 0.1209)">CDCL (α = 0.75, mVISDS, LubyRestart(100, 2))</text><text x="-0.0028" y="0.1209" transform="rotate(-45.0, -0.0028, 0.1209)">CDCL (α = 0.95)</text><text x="0.0505" y="0.1209" transform="rotate(-45.0, 0.0505, 0.1209)">CDCL (α = 0.95, mVISDS)</text><text x="0.1037" y="0.1209" transform="rotate(-45.0, 0.1037, 0.1209)">CDCL (α = 0.95, mVISDS, ExpRestart(100, 2))</text><text x="0.1569" y="0.1209" transform="rotate(-45.0, 0.1569, 0.1209)">CDCL (α = 0.95, mVISDS, LubyRestart(100, 2))</text><text x="0.2102" y="0.1209" transform="rotate(-45.0, 0.2102, 0.1209)">DPLL</text></g></g></g><g class="axisbar"><g stroke-width="0" stroke="rgb(0%, 0%, 0%)" stroke-opacity="0" fill="rgb(5%, 5%, 5%)" fill-opacity="0.4"><rect width="0.7708" height="0.0017" x="-0.4947" y="0.0862"/></g></g></g><g class="title"><g stroke-width="0.0" stroke="none" fill="rgb(5%, 5%, 5%)" fill-opacity="1.0" font-size="0.0570" text-anchor="middle"><text x="-0.2188" y="-0.3768">Time: SATLIB/uf20-91/uf20-030/cnf</text></g></g><g class="legend"><g class="legendBorder"><g stroke-width="0.0017" stroke="rgb(5%, 5%, 5%)" stroke-opacity="1.0" fill="rgb(5%, 5%, 5%)" fill-opacity="0"><rect width="0.3546" height="0.3861" x="0.3577" y="-0.2858"/></g></g><g class="legendContent"><g stroke-width="0.0" stroke="none" fill="rgb(5%, 5%, 5%)" fill-opacity="1.0" font-size="0.0150" text-anchor="start"><text x="0.3660" y="0.0853">DPLL</text></g><g stroke-width="0" stroke="rgb(2%, 29%, 48%)" stroke-opacity="1.0" fill="rgb(0%, 52%, 40%)" fill-opacity="1.0"><rect width="0.0249" height="0.0219" x="0.6790" y="0.0711"/></g><g stroke-width="0.0" stroke="none" fill="rgb(5%, 5%, 5%)" fill-opacity="1.0" font-size="0.0150" text-anchor="start"><text x="0.3660" y="0.0562">CDCL (α = 0.95, mVISDS, LubyRestart(100, 2))</text></g><g stroke-width="0" stroke="rgb(2%, 29%, 48%)" stroke-opacity="1.0" fill="rgb(17%, 40%, 67%)" fill-opacity="1.0"><rect width="0.0249" height="0.0219" x="0.6790" y="0.0420"/></g><g stroke-width="0.0" stroke="none" fill="rgb(5%, 5%, 5%)" fill-opacity="1.0" font-size="0.0150" text-anchor="start"><text x="0.3660" y="0.0270">CDCL (α = 0.95, mVISDS, ExpRestart(100, 2))</text></g><g stroke-width="0" stroke="rgb(2%, 29%, 48%)" stroke-opacity="1.0" fill="rgb(62%, 0%, 31%)" fill-opacity="1.0"><rect width="0.0249" height="0.0219" x="0.6790" y="0.0128"/></g><g stroke-width="0.0" stroke="none" fill="rgb(5%, 5%, 5%)" fill-opacity="1.0" font-size="0.0150" text-anchor="start"><text x="0.3660" y="-0.0021">CDCL (α = 0.95, mVISDS)</text></g><g stroke-width="0" stroke="rgb(2%, 29%, 48%)" stroke-opacity="1.0" fill="rgb(91%, 47%, 0%)" fill-opacity="1.0"><rect width="0.0249" height="0.0219" x="0.6790" y="-0.0163"/></g><g stroke-width="0.0" stroke="none" fill="rgb(5%, 5%, 5%)" fill-opacity="1.0" font-size="0.0150" text-anchor="start"><text x="0.3660" y="-0.0312">CDCL (α = 0.95)</text></g><g stroke-width="0" stroke="rgb(2%, 29%, 48%)" stroke-opacity="1.0" fill="rgb(0%, 64%, 70%)" fill-opacity="1.0"><rect width="0.0249" height="0.0219" x="0.6790" y="-0.0455"/></g><g stroke-width="0.0" stroke="none" fill="rgb(5%, 5%, 5%)" fill-opacity="1.0" font-size="0.0150" text-anchor="start"><text x="0.3660" y="-0.0604">CDCL (α = 0.75, mVISDS, LubyRestart(100, 2))</text></g><g stroke-width="0" stroke="rgb(2%, 29%, 48%)" stroke-opacity="1.0" fill="rgb(91%, 19%, 0%)" fill-opacity="1.0"><rect width="0.0249" height="0.0219" x="0.6790" y="-0.0746"/></g><g stroke-width="0.0" stroke="none" fill="rgb(5%, 5%, 5%)" fill-opacity="1.0" font-size="0.0150" text-anchor="start"><text x="0.3660" y="-0.0895">CDCL (α = 0.75, mVISDS, ExpRestart(100, 2))</text></g><g stroke-width="0" stroke="rgb(2%, 29%, 48%)" stroke-opacity="1.0" fill="rgb(38%, 23%, 0%)" fill-opacity="1.0"><rect width="0.0249" height="0.0219" x="0.6790" y="-0.1037"/></g><g stroke-width="0.0" stroke="none" fill="rgb(5%, 5%, 5%)" fill-opacity="1.0" font-size="0.0150" text-anchor="start"><text x="0.3660" y="-0.1187">CDCL (α = 0.75, mVISDS)</text></g><g stroke-width="0" stroke="rgb(2%, 29%, 48%)" stroke-opacity="1.0" fill="rgb(90%, 37%, 58%)" fill-opacity="1.0"><rect width="0.0249" height="0.0219" x="0.6790" y="-0.1329"/></g><g stroke-width="0.0" stroke="none" fill="rgb(5%, 5%, 5%)" fill-opacity="1.0" font-size="0.0150" text-anchor="start"><text x="0.3660" y="-0.1478">CDCL (α = 0.75)</text></g><g stroke-width="0" stroke="rgb(2%, 29%, 48%)" stroke-opacity="1.0" fill="rgb(0%, 72%, 98%)" fill-opacity="1.0"><rect width="0.0249" height="0.0219" x="0.6790" y="-0.1620"/></g><g stroke-width="0.0" stroke="none" fill="rgb(5%, 5%, 5%)" fill-opacity="1.0" font-size="0.0150" text-anchor="start"><text x="0.3660" y="-0.1769">CDCL (adaptive, mVSIDS)</text></g><g stroke-width="0" stroke="rgb(2%, 29%, 48%)" stroke-opacity="1.0" fill="rgb(1%, 28%, 43%)" fill-opacity="1.0"><rect width="0.0249" height="0.0219" x="0.6790" y="-0.1911"/></g><g stroke-width="0.0" stroke="none" fill="rgb(5%, 5%, 5%)" fill-opacity="1.0" font-size="0.0150" text-anchor="start"><text x="0.3660" y="-0.2061">CDCL (adaptive, mVISDS, LubyRestart(100, 2))</text></g><g stroke-width="0" stroke="rgb(2%, 29%, 48%)" stroke-opacity="1.0" fill="rgb(26%, 54%, 57%)" fill-opacity="1.0"><rect width="0.0249" height="0.0219" x="0.6790" y="-0.2203"/></g><g stroke-width="0.0" stroke="none" fill="rgb(5%, 5%, 5%)" fill-opacity="1.0" font-size="0.0150" text-anchor="start"><text x="0.3660" y="-0.2352">CDCL (adaptive, mVISDS, ExpRestart(100, 2))</text></g><g stroke-width="0" stroke="rgb(2%, 29%, 48%)" stroke-opacity="1.0" fill="rgb(0%, 25%, 37%)" fill-opacity="1.0"><rect width="0.0249" height="0.0219" x="0.6790" y="-0.2494"/></g><g stroke-width="0.0" stroke="none" fill="rgb(5%, 5%, 5%)" fill-opacity="1.0" font-size="0.0150" text-anchor="start"><text x="0.3660" y="-0.2643">CDCL (adaptive)</text></g><g stroke-width="0" stroke="rgb(2%, 29%, 48%)" stroke-opacity="1.0" fill="rgb(0%, 30%, 12%)" fill-opacity="1.0"><rect width="0.0249" height="0.0219" x="0.6790" y="-0.2786"/></g></g></g><g class="frame"><g stroke-width="0" stroke="rgb(0%, 0%, 0%)" stroke-opacity="0" fill="rgb(100%, 100%, 100%)" fill-opacity="0.02"><rect width="1.6180" height="1.0" x="-0.8090" y="-0.5"/></g></g><g class="title"><g stroke-width="0.0" stroke="none" fill="rgb(5%, 5%, 5%)" fill-opacity="1.0" font-size="0.0285" text-anchor="middle"><text x="-0.7415" y="0" transform="rotate(-90.0, -0.7415, 0)">Time [ms]</text></g></g></g></svg>