<svg xmlns="http://www.w3.org/2000/svg" xmlns:xlink="http://www.w3.org/1999/xlink" width="490" height="300" viewBox="-1.2646 -0.5 2.2320 1.3645"><style>svg {color-scheme: light dark;} {.canvas g, .title g, .axisbar g, .ticktext g, .tickglyph g, .ticklines g, .legendContent g text {fill: rgb(5%, 5%, 5%);} .ticklines g, .tickglyph g, .legendBorder g {stroke: rgb(5%, 5%, 5%);} .legendBorder g {fill: rgb(94%, 94%, 94%);}} @media (prefers-color-scheme:dark) {.canvas g, .title g, .axisbar g, .ticktext g, .tickglyph g, .ticklines g, .legendContent g text {fill: rgb(94%, 94%, 94%);} .ticklines g, .tickglyph g, .legendBorder g {stroke: rgb(94%, 94%, 94%);} .legendBorder g {fill: rgb(5%, 5%, 5%);}}
svg { font-family: system-ui,-apple-system,"Segoe UI",Roboto,"Helvetica Neue",Arial,"Noto Sans","Liberation Sans",sans-serif,"Apple Color Emoji","Segoe UI Emoji","Segoe UI Symbol","Noto Color Emoji";
}

ticktext { font-family: SFMono-Regular,Menlo,Monaco,Consolas,"Liberation Mono","Courier New",monospace;}</style><g class="chart"><g class="barchart"><g stroke-width="0" stroke="rgb(2%, 29%, 48%)" stroke-opacity="1.0" fill="rgb(0%, 39%, 55%)" fill-opacity="1.0"><rect width="0.0677" height="0.0378" x="-0.4172" y="-0.1113"/></g><g stroke-width="0" stroke="rgb(2%, 29%, 48%)" stroke-opacity="1.0" fill="rgb(37%, 26%, 0%)" fill-opacity="1.0"><rect width="0.0677" height="0.0250" x="-0.3495" y="-0.0985"/></g><g stroke-width="0" stroke="rgb(2%, 29%, 48%)" stroke-opacity="1.0" fill="rgb(14%, 22%, 0%)" fill-opacity="1.0"><rect width="0.0677" height="0.0244" x="-0.2818" y="-0.0979"/></g><g stroke-width="0" stroke="rgb(2%, 29%, 48%)" stroke-opacity="1.0" fill="rgb(40%, 59%, 56%)" fill-opacity="1.0"><rect width="0.0677" height="0.0244" x="-0.2142" y="-0.0979"/></g><g stroke-width="0" stroke="rgb(2%, 29%, 48%)" stroke-opacity="1.0" fill="rgb(16%, 49%, 26%)" fill-opacity="1.0"><rect width="0.0677" height="0.0208" x="-0.1465" y="-0.0943"/></g><g stroke-width="0" stroke="rgb(2%, 29%, 48%)" stroke-opacity="1.0" fill="rgb(12%, 10%, 48%)" fill-opacity="1.0"><rect width="0.0677" height="0.0325" x="-0.0788" y="-0.1059"/></g><g stroke-width="0" stroke="rgb(2%, 29%, 48%)" stroke-opacity="1.0" fill="rgb(13%, 47%, 60%)" fill-opacity="1.0"><rect width="0.0677" height="0.0405" x="-0.0112" y="-0.1140"/></g><g stroke-width="0" stroke="rgb(2%, 29%, 48%)" stroke-opacity="1.0" fill="rgb(39%, 19%, 0%)" fill-opacity="1.0"><rect width="0.0677" height="0.0407" x="0.0565" y="-0.1141"/></g><g stroke-width="0" stroke="rgb(2%, 29%, 48%)" stroke-opacity="1.0" fill="rgb(33%, 71%, 69%)" fill-opacity="1.0"><rect width="0.0677" height="0.0409" x="0.1242" y="-0.1143"/></g><g stroke-width="0" stroke="rgb(2%, 29%, 48%)" stroke-opacity="1.0" fill="rgb(100%, 34%, 60%)" fill-opacity="1.0"><rect width="0.0677" height="0.0241" x="0.1918" y="-0.0975"/></g><g stroke-width="0" stroke="rgb(2%, 29%, 48%)" stroke-opacity="1.0" fill="rgb(0%, 46%, 80%)" fill-opacity="1.0"><rect width="0.0677" height="0.0239" x="0.2595" y="-0.0974"/></g><g stroke-width="0" stroke="rgb(2%, 29%, 48%)" stroke-opacity="1.0" fill="rgb(50%, 35%, 74%)" fill-opacity="1.0"><rect width="0.0677" height="0.0241" x="0.3272" y="-0.0975"/></g></g><g class="errors"><g stroke-width="0.0015" stroke="rgb(5%, 5%, 5%)" stroke-opacity="1.0" fill="none"><polyline points="-0.3901,-0.0103 -0.3766,-0.0103"/><polyline points="-0.3833,-0.0103 -0.3833,-0.2123"/><polyline points="-0.3901,-0.2123 -0.3766,-0.2123"/></g><g stroke-width="0.0015" stroke="rgb(5%, 5%, 5%)" stroke-opacity="1.0" fill="none"><polyline points="-0.3224,-0.0383 -0.3089,-0.0383"/><polyline points="-0.3157,-0.0383 -0.3157,-0.1586"/><polyline points="-0.3224,-0.1586 -0.3089,-0.1586"/></g><g stroke-width="0.0015" stroke="rgb(5%, 5%, 5%)" stroke-opacity="1.0" fill="none"><polyline points="-0.2548,-0.0213 -0.2412,-0.0213"/><polyline points="-0.2480,-0.0213 -0.2480,-0.1745"/><polyline points="-0.2548,-0.1745 -0.2412,-0.1745"/></g><g stroke-width="0.0015" stroke="rgb(5%, 5%, 5%)" stroke-opacity="1.0" fill="none"><polyline points="-0.1871,-0.0339 -0.1736,-0.0339"/><polyline points="-0.1803,-0.0339 -0.1803,-0.1619"/><polyline points="-0.1871,-0.1619 -0.1736,-0.1619"/></g><g stroke-width="0.0015" stroke="rgb(5%, 5%, 5%)" stroke-opacity="1.0" fill="none"><polyline points="-0.1194,-0.0364 -0.1059,-0.0364"/><polyline points="-0.1127,-0.0364 -0.1127,-0.1522"/><polyline points="-0.1194,-0.1522 -0.1059,-0.1522"/></g><g stroke-width="0.0015" stroke="rgb(5%, 5%, 5%)" stroke-opacity="1.0" fill="none"><polyline points="-0.0518,-0.0098 -0.0382,-0.0098"/><polyline points="-0.0450,-0.0098 -0.0450,-0.2020"/><polyline points="-0.0518,-0.2020 -0.0382,-0.2020"/></g><g stroke-width="0.0015" stroke="rgb(5%, 5%, 5%)" stroke-opacity="1.0" fill="none"><polyline points="0.0159,-0.0846 0.0294,-0.0846"/><polyline points="0.0227,-0.0846 0.0227,-0.1434"/><polyline points="0.0159,-0.1434 0.0294,-0.1434"/></g><g stroke-width="0.0015" stroke="rgb(5%, 5%, 5%)" stroke-opacity="1.0" fill="none"><polyline points="0.0836,-0.0895 0.0971,-0.0895"/><polyline points="0.0903,-0.0895 0.0903,-0.1387"/><polyline points="0.0836,-0.1387 0.0971,-0.1387"/></g><g stroke-width="0.0015" stroke="rgb(5%, 5%, 5%)" stroke-opacity="1.0" fill="none"><polyline points="0.1512,0.0333 0.1648,0.0333"/><polyline points="0.1580,0.0333 0.1580,-0.2620"/><polyline points="0.1512,-0.2620 0.1648,-0.2620"/></g><g stroke-width="0.0015" stroke="rgb(5%, 5%, 5%)" stroke-opacity="1.0" fill="none"><polyline points="0.2189,0.0056 0.2324,0.0056"/><polyline points="0.2257,0.0056 0.2257,-0.2006"/><polyline points="0.2189,-0.2006 0.2324,-0.2006"/></g><g stroke-width="0.0015" stroke="rgb(5%, 5%, 5%)" stroke-opacity="1.0" fill="none"><polyline points="0.2866,0.0080 0.3001,0.0080"/><polyline points="0.2933,0.0080 0.2933,-0.2027"/><polyline points="0.2866,-0.2027 0.3001,-0.2027"/></g><g stroke-width="0.0015" stroke="rgb(5%, 5%, 5%)" stroke-opacity="1.0" fill="none"><polyline points="0.3542,-0.0086 0.3678,-0.0086"/><polyline points="0.3610,-0.0086 0.3610,-0.1864"/><polyline points="0.3542,-0.1864 0.3678,-0.1864"/></g></g><g class="datapadding"></g></g><g class="hud"><g class="axis"><g class="axisbar"><g stroke-width="0" stroke="rgb(0%, 0%, 0%)" stroke-opacity="0" fill="rgb(5%, 5%, 5%)" fill-opacity="0.4"><rect width="0.8140" height="0.0016" x="-0.4182" y="0.0738"/></g></g><g class="ticks"><g class="tickglyph"><g stroke-width="0.0016" stroke="rgb(5%, 5%, 5%)" stroke-opacity="0.4" fill="rgb(5%, 5%, 5%)" fill-opacity="0.4"><polyline points="-0.3833,0.0869
-0.3833,0.0746"/><polyline points="-0.3157,0.0869
-0.3157,0.0746"/><polyline points="-0.2480,0.0869
-0.2480,0.0746"/><polyline points="-0.1803,0.0869
-0.1803,0.0746"/><polyline points="-0.1127,0.0869
-0.1127,0.0746"/><polyline points="-0.0450,0.0869
-0.0450,0.0746"/><polyline points="0.0227,0.0869
0.0227,0.0746"/><polyline points="0.0903,0.0869
0.0903,0.0746"/><polyline points="0.1580,0.0869
0.1580,0.0746"/><polyline points="0.2257,0.0869
0.2257,0.0746"/><polyline points="0.2933,0.0869
0.2933,0.0746"/><polyline points="0.3610,0.0869
0.3610,0.0746"/></g></g><g class="ticktext"><g stroke-width="0.0" stroke="none" fill="rgb(5%, 5%, 5%)" fill-opacity="1.0" font-size="0.0400" text-anchor="end"><text x="-0.3833" y="0.1094" transform="rotate(-45.0, -0.3833, 0.1094)">CDCL (adaptive)</text><text x="-0.3157" y="0.1094" transform="rotate(-45.0, -0.3157, 0.1094)">CDCL (adaptive, mVISDS, ExpRestart(100, 2))</text><text x="-0.2480" y="0.1094" transform="rotate(-45.0, -0.2480, 0.1094)">CDCL (adaptive, mVISDS, LubyRestart(100, 2))</text><text x="-0.1803" y="0.1094" transform="rotate(-45.0, -0.1803, 0.1094)">CDCL (adaptive, mVSIDS)</text><text x="-0.1127" y="0.1094" transform="rotate(-45.0, -0.1127, 0.1094)">CDCL (α = 0.75)</text><text x="-0.0450" y="0.1094" transform="rotate(-45.0, -0.0450, 0.1094)">CDCL (α = 0.75, mVISDS)</text><text x="0.0227" y="0.1094" transform="rotate(-45.0, 0.0227, 0.1094)">CDCL (α = 0.75, mVISDS, ExpRestart(100, 2))</text><text x="0.0903" y="0.1094" transform="rotate(-45.0, 0.0903, 0.1094)">CDCL (α = 0.75, mVISDS, LubyRestart(100, 2))</text><text x="0.1580" y="0.1094" transform="rotate(-45.0, 0.1580, 0.1094)">CDCL (α = 0.95)</text><text x="0.2257" y="0.1094" transform="rotate(-45.0, 0.2257, 0.1094)">CDCL (α = 0.95, mVISDS)</text><text x="0.2933" y="0.1094" transform="rotate(-45.0, 0.2933, 0.1094)">CDCL (α = 0.95, mVISDS, ExpRestart(100, 2))</text><text x="0.3610" y="0.1094" transform="rotate(-45.0, 0.3610, 0.1094)">CDCL (α = 0.95, mVISDS, LubyRestart(100, 2))</text></g></g></g></g><g class="axis"><g class="axisbar"><g stroke-width="0" stroke="rgb(0%, 0%, 0%)" stroke-opacity="0" fill="rgb(5%, 5%, 5%)" fill-opacity="0.4"><rect width="0.0020" height="0.4106" x="-0.4242" y="-0.3401"/></g></g><g class="ticks"><g class="ticklines"><g stroke-width="0.0050" stroke="rgb(5%, 5%, 5%)" stroke-opacity="0.05" fill="none"><polyline points="-0.4172,0.0697 0.3948,0.0697"/><polyline points="-0.4172,-0.0121 0.3948,-0.0121"/><polyline points="-0.4172,-0.0939 0.3948,-0.0939"/><polyline points="-0.4172,-0.1757 0.3948,-0.1757"/><polyline points="-0.4172,-0.2575 0.3948,-0.2575"/><polyline points="-0.4172,-0.3393 0.3948,-0.3393"/></g></g><g class="tickglyph"><g stroke-width="0.0020" stroke="rgb(5%, 5%, 5%)" stroke-opacity="0.4" fill="rgb(5%, 5%, 5%)" fill-opacity="0.4"><polyline points="-0.4383,0.0697
-0.4232,0.0697"/><polyline points="-0.4383,-0.0121
-0.4232,-0.0121"/><polyline points="-0.4383,-0.0939
-0.4232,-0.0939"/><polyline points="-0.4383,-0.1757
-0.4232,-0.1757"/><polyline points="-0.4383,-0.2575
-0.4232,-0.2575"/><polyline points="-0.4383,-0.3393
-0.4232,-0.3393"/></g></g><g class="ticktext"><g stroke-width="0.0" stroke="none" fill="rgb(5%, 5%, 5%)" fill-opacity="1.0" font-size="0.0400" text-anchor="end"><text x="-0.4493" y="0.0742">-4</text><text x="-0.4493" y="-0.0076">-2</text><text x="-0.4493" y="-0.0894"> 0</text><text x="-0.4493" y="-0.1712"> 2</text><text x="-0.4493" y="-0.2530"> 4</text><text x="-0.4493" y="-0.3348"> 6</text></g></g></g></g><g class="title"><g stroke-width="0.0" stroke="none" fill="rgb(5%, 5%, 5%)" fill-opacity="1.0" font-size="0.12" text-anchor="middle"><text x="-0.1486" y="-0.3789">Time: SATLIB/Bejing/3blocks/cnf</text></g></g><g class="legend"><g class="padding"></g><g class="padding"></g><g class="frame"><g stroke-width="0.0004" stroke="rgb(5%, 5%, 5%)" stroke-opacity="1.0" fill="rgb(5%, 5%, 5%)" fill-opacity="0"><rect width="0.4324" height="0.3507" x="0.2744" y="-0.1057"/></g></g><g class="legendContent"><g stroke-width="0" stroke="rgb(2%, 29%, 48%)" stroke-opacity="1.0" fill="rgb(50%, 35%, 74%)" fill-opacity="1.0"><rect width="0.0263" height="0.0215" x="0.6718" y="0.2164"/></g><g stroke-width="0.0" stroke="none" fill="rgb(5%, 5%, 5%)" fill-opacity="1.0" font-size="0.0141" text-anchor="start"><text x="0.2832" y="0.2300">CDCL (α = 0.95, mVISDS, LubyRestart(100, 2))</text></g><g stroke-width="0" stroke="rgb(2%, 29%, 48%)" stroke-opacity="1.0" fill="rgb(0%, 46%, 80%)" fill-opacity="1.0"><rect width="0.0263" height="0.0215" x="0.6718" y="0.1878"/></g><g stroke-width="0.0" stroke="none" fill="rgb(5%, 5%, 5%)" fill-opacity="1.0" font-size="0.0141" text-anchor="start"><text x="0.2832" y="0.2014">CDCL (α = 0.95, mVISDS, ExpRestart(100, 2))</text></g><g stroke-width="0" stroke="rgb(2%, 29%, 48%)" stroke-opacity="1.0" fill="rgb(100%, 34%, 60%)" fill-opacity="1.0"><rect width="0.0263" height="0.0215" x="0.6718" y="0.1592"/></g><g stroke-width="0.0" stroke="none" fill="rgb(5%, 5%, 5%)" fill-opacity="1.0" font-size="0.0141" text-anchor="start"><text x="0.2832" y="0.1727">CDCL (α = 0.95, mVISDS)</text></g><g stroke-width="0" stroke="rgb(2%, 29%, 48%)" stroke-opacity="1.0" fill="rgb(33%, 71%, 69%)" fill-opacity="1.0"><rect width="0.0263" height="0.0215" x="0.6718" y="0.1305"/></g><g stroke-width="0.0" stroke="none" fill="rgb(5%, 5%, 5%)" fill-opacity="1.0" font-size="0.0141" text-anchor="start"><text x="0.2832" y="0.1441">CDCL (α = 0.95)</text></g><g stroke-width="0" stroke="rgb(2%, 29%, 48%)" stroke-opacity="1.0" fill="rgb(39%, 19%, 0%)" fill-opacity="1.0"><rect width="0.0263" height="0.0215" x="0.6718" y="0.1019"/></g><g stroke-width="0.0" stroke="none" fill="rgb(5%, 5%, 5%)" fill-opacity="1.0" font-size="0.0141" text-anchor="start"><text x="0.2832" y="0.1155">CDCL (α = 0.75, mVISDS, LubyRestart(100, 2))</text></g><g stroke-width="0" stroke="rgb(2%, 29%, 48%)" stroke-opacity="1.0" fill="rgb(13%, 47%, 60%)" fill-opacity="1.0"><rect width="0.0263" height="0.0215" x="0.6718" y="0.0733"/></g><g stroke-width="0.0" stroke="none" fill="rgb(5%, 5%, 5%)" fill-opacity="1.0" font-size="0.0141" text-anchor="start"><text x="0.2832" y="0.0869">CDCL (α = 0.75, mVISDS, ExpRestart(100, 2))</text></g><g stroke-width="0" stroke="rgb(2%, 29%, 48%)" stroke-opacity="1.0" fill="rgb(12%, 10%, 48%)" fill-opacity="1.0"><rect width="0.0263" height="0.0215" x="0.6718" y="0.0446"/></g><g stroke-width="0.0" stroke="none" fill="rgb(5%, 5%, 5%)" fill-opacity="1.0" font-size="0.0141" text-anchor="start"><text x="0.2832" y="0.0582">CDCL (α = 0.75, mVISDS)</text></g><g stroke-width="0" stroke="rgb(2%, 29%, 48%)" stroke-opacity="1.0" fill="rgb(16%, 49%, 26%)" fill-opacity="1.0"><rect width="0.0263" height="0.0215" x="0.6718" y="0.0160"/></g><g stroke-width="0.0" stroke="none" fill="rgb(5%, 5%, 5%)" fill-opacity="1.0" font-size="0.0141" text-anchor="start"><text x="0.2832" y="0.0296">CDCL (α = 0.75)</text></g><g stroke-width="0" stroke="rgb(2%, 29%, 48%)" stroke-opacity="1.0" fill="rgb(40%, 59%, 56%)" fill-opacity="1.0"><rect width="0.0263" height="0.0215" x="0.6718" y="-0.0126"/></g><g stroke-width="0.0" stroke="none" fill="rgb(5%, 5%, 5%)" fill-opacity="1.0" font-size="0.0141" text-anchor="start"><text x="0.2832" y="0.0010">CDCL (adaptive, mVSIDS)</text></g><g stroke-width="0" stroke="rgb(2%, 29%, 48%)" stroke-opacity="1.0" fill="rgb(14%, 22%, 0%)" fill-opacity="1.0"><rect width="0.0263" height="0.0215" x="0.6718" y="-0.0412"/></g><g stroke-width="0.0" stroke="none" fill="rgb(5%, 5%, 5%)" fill-opacity="1.0" font-size="0.0141" text-anchor="start"><text x="0.2832" y="-0.0276">CDCL (adaptive, mVISDS, LubyRestart(100, 2))</text></g><g stroke-width="0" stroke="rgb(2%, 29%, 48%)" stroke-opacity="1.0" fill="rgb(37%, 26%, 0%)" fill-opacity="1.0"><rect width="0.0263" height="0.0215" x="0.6718" y="-0.0699"/></g><g stroke-width="0.0" stroke="none" fill="rgb(5%, 5%, 5%)" fill-opacity="1.0" font-size="0.0141" text-anchor="start"><text x="0.2832" y="-0.0563">CDCL (adaptive, mVISDS, ExpRestart(100, 2))</text></g><g stroke-width="0" stroke="rgb(2%, 29%, 48%)" stroke-opacity="1.0" fill="rgb(0%, 39%, 55%)" fill-opacity="1.0"><rect width="0.0263" height="0.0215" x="0.6718" y="-0.0985"/></g><g stroke-width="0.0" stroke="none" fill="rgb(5%, 5%, 5%)" fill-opacity="1.0" font-size="0.0141" text-anchor="start"><text x="0.2832" y="-0.0849">CDCL (adaptive)</text></g></g></g><g class="frame"><g stroke-width="0" stroke="rgb(0%, 0%, 0%)" stroke-opacity="0" fill="rgb(100%, 100%, 100%)" fill-opacity="0.02"><rect width="1.6180" height="1.0" x="-0.8090" y="-0.5"/></g></g><g class="title"><g stroke-width="0.0" stroke="none" fill="rgb(5%, 5%, 5%)" fill-opacity="1.0" font-size="0.0600" text-anchor="middle"><text x="-0.7378" y="0" transform="rotate(-90.0, -0.7378, 0)">Time [ms]</text></g></g></g></svg>