<svg xmlns="http://www.w3.org/2000/svg" xmlns:xlink="http://www.w3.org/1999/xlink" width="485" height="300" viewBox="-0.8090 -0.5 1.6180 1.0"><style>svg {
  color-scheme: light dark;
}
{
  .canvas g, .title g, .axisbar g, .ticktext g, .tickglyph g, .ticklines g, .legendContent g text {
    fill: rgb(5%, 5%, 5%);
  }
  .ticklines g, .tickglyph g, .legendBorder g {
    stroke: rgb(5%, 5%, 5%);
  }
  .legendBorder g {
    fill: rgb(94%, 94%, 94%);
  }
}
@media (prefers-color-scheme:dark) {
  .canvas g, .title g, .axisbar g, .ticktext g, .tickglyph g, .ticklines g, .legendContent g text {
    fill: rgb(94%, 94%, 94%);
  }
  .ticklines g, .tickglyph g, .legendBorder g {
    stroke: rgb(94%, 94%, 94%);
  }
  .legendBorder g {
    fill: rgb(5%, 5%, 5%);
  }
}</style><g class="chart"><g class="barchart"><g stroke-width="0" stroke="rgb(2%, 29%, 48%)" stroke-opacity="1.0" fill="rgb(0%, 30%, 12%)" fill-opacity="1.0"><rect width="0.0493" height="0.3166" x="-0.4508" y="-0.2345"/></g><g stroke-width="0" stroke="rgb(2%, 29%, 48%)" stroke-opacity="1.0" fill="rgb(0%, 25%, 37%)" fill-opacity="1.0"><rect width="0.0493" height="0.3200" x="-0.4016" y="-0.2380"/></g><g stroke-width="0" stroke="rgb(2%, 29%, 48%)" stroke-opacity="1.0" fill="rgb(26%, 54%, 57%)" fill-opacity="1.0"><rect width="0.0493" height="0.3159" x="-0.3523" y="-0.2339"/></g><g stroke-width="0" stroke="rgb(2%, 29%, 48%)" stroke-opacity="1.0" fill="rgb(1%, 28%, 43%)" fill-opacity="1.0"><rect width="0.0493" height="0.3129" x="-0.3030" y="-0.2308"/></g><g stroke-width="0" stroke="rgb(2%, 29%, 48%)" stroke-opacity="1.0" fill="rgb(0%, 72%, 98%)" fill-opacity="1.0"><rect width="0.0493" height="0.3230" x="-0.2538" y="-0.2410"/></g><g stroke-width="0" stroke="rgb(2%, 29%, 48%)" stroke-opacity="1.0" fill="rgb(90%, 37%, 58%)" fill-opacity="1.0"><rect width="0.0493" height="0.3077" x="-0.2045" y="-0.2257"/></g><g stroke-width="0" stroke="rgb(2%, 29%, 48%)" stroke-opacity="1.0" fill="rgb(38%, 23%, 0%)" fill-opacity="1.0"><rect width="0.0493" height="0.3235" x="-0.1553" y="-0.2415"/></g><g stroke-width="0" stroke="rgb(2%, 29%, 48%)" stroke-opacity="1.0" fill="rgb(91%, 19%, 0%)" fill-opacity="1.0"><rect width="0.0493" height="0.3205" x="-0.1060" y="-0.2385"/></g><g stroke-width="0" stroke="rgb(2%, 29%, 48%)" stroke-opacity="1.0" fill="rgb(0%, 64%, 70%)" fill-opacity="1.0"><rect width="0.0493" height="0.3035" x="-0.0567" y="-0.2215"/></g><g stroke-width="0" stroke="rgb(2%, 29%, 48%)" stroke-opacity="1.0" fill="rgb(91%, 47%, 0%)" fill-opacity="1.0"><rect width="0.0493" height="0.3159" x="-0.0075" y="-0.2339"/></g><g stroke-width="0" stroke="rgb(2%, 29%, 48%)" stroke-opacity="1.0" fill="rgb(62%, 0%, 31%)" fill-opacity="1.0"><rect width="0.0493" height="0.3205" x="0.0418" y="-0.2385"/></g><g stroke-width="0" stroke="rgb(2%, 29%, 48%)" stroke-opacity="1.0" fill="rgb(17%, 40%, 67%)" fill-opacity="1.0"><rect width="0.0493" height="0.3237" x="0.0910" y="-0.2417"/></g><g stroke-width="0" stroke="rgb(2%, 29%, 48%)" stroke-opacity="1.0" fill="rgb(0%, 52%, 40%)" fill-opacity="1.0"><rect width="0.0493" height="0.0496" x="0.1403" y="0.0324"/></g><g stroke-width="0" stroke="rgb(2%, 29%, 48%)" stroke-opacity="1.0" fill="rgb(46%, 22%, 3%)" fill-opacity="1.0"><rect width="0.0493" height="0.3785" x="0.1895" y="-0.2965"/></g></g><g class="errors"><g stroke-width="0.0015" stroke="rgb(5%, 5%, 5%)" stroke-opacity="1.0" fill="none"><polyline points="-0.4311,-0.2222 -0.4213,-0.2222"/><polyline points="-0.4262,-0.2222 -0.4262,-0.2469"/><polyline points="-0.4311,-0.2469 -0.4213,-0.2469"/></g><g stroke-width="0.0015" stroke="rgb(5%, 5%, 5%)" stroke-opacity="1.0" fill="none"><polyline points="-0.3819,-0.2244 -0.3720,-0.2244"/><polyline points="-0.3769,-0.2244 -0.3769,-0.2516"/><polyline points="-0.3819,-0.2516 -0.3720,-0.2516"/></g><g stroke-width="0.0015" stroke="rgb(5%, 5%, 5%)" stroke-opacity="1.0" fill="none"><polyline points="-0.3326,-0.2229 -0.3227,-0.2229"/><polyline points="-0.3277,-0.2229 -0.3277,-0.2450"/><polyline points="-0.3326,-0.2450 -0.3227,-0.2450"/></g><g stroke-width="0.0015" stroke="rgb(5%, 5%, 5%)" stroke-opacity="1.0" fill="none"><polyline points="-0.2833,-0.2191 -0.2735,-0.2191"/><polyline points="-0.2784,-0.2191 -0.2784,-0.2426"/><polyline points="-0.2833,-0.2426 -0.2735,-0.2426"/></g><g stroke-width="0.0015" stroke="rgb(5%, 5%, 5%)" stroke-opacity="1.0" fill="none"><polyline points="-0.2341,-0.2290 -0.2242,-0.2290"/><polyline points="-0.2292,-0.2290 -0.2292,-0.2529"/><polyline points="-0.2341,-0.2529 -0.2242,-0.2529"/></g><g stroke-width="0.0015" stroke="rgb(5%, 5%, 5%)" stroke-opacity="1.0" fill="none"><polyline points="-0.1848,-0.2176 -0.1750,-0.2176"/><polyline points="-0.1799,-0.2176 -0.1799,-0.2338"/><polyline points="-0.1848,-0.2338 -0.1750,-0.2338"/></g><g stroke-width="0.0015" stroke="rgb(5%, 5%, 5%)" stroke-opacity="1.0" fill="none"><polyline points="-0.1356,-0.2275 -0.1257,-0.2275"/><polyline points="-0.1306,-0.2275 -0.1306,-0.2554"/><polyline points="-0.1356,-0.2554 -0.1257,-0.2554"/></g><g stroke-width="0.0015" stroke="rgb(5%, 5%, 5%)" stroke-opacity="1.0" fill="none"><polyline points="-0.0863,-0.2282 -0.0765,-0.2282"/><polyline points="-0.0814,-0.2282 -0.0814,-0.2488"/><polyline points="-0.0863,-0.2488 -0.0765,-0.2488"/></g><g stroke-width="0.0015" stroke="rgb(5%, 5%, 5%)" stroke-opacity="1.0" fill="none"><polyline points="-0.0370,-0.2081 -0.0272,-0.2081"/><polyline points="-0.0321,-0.2081 -0.0321,-0.2349"/><polyline points="-0.0370,-0.2349 -0.0272,-0.2349"/></g><g stroke-width="0.0015" stroke="rgb(5%, 5%, 5%)" stroke-opacity="1.0" fill="none"><polyline points="0.0122,-0.2278 0.0221,-0.2278"/><polyline points="0.0171,-0.2278 0.0171,-0.2399"/><polyline points="0.0122,-0.2399 0.0221,-0.2399"/></g><g stroke-width="0.0015" stroke="rgb(5%, 5%, 5%)" stroke-opacity="1.0" fill="none"><polyline points="0.0615,-0.2315 0.0713,-0.2315"/><polyline points="0.0664,-0.2315 0.0664,-0.2455"/><polyline points="0.0615,-0.2455 0.0713,-0.2455"/></g><g stroke-width="0.0015" stroke="rgb(5%, 5%, 5%)" stroke-opacity="1.0" fill="none"><polyline points="0.1107,-0.2324 0.1206,-0.2324"/><polyline points="0.1157,-0.2324 0.1157,-0.2509"/><polyline points="0.1107,-0.2509 0.1206,-0.2509"/></g><g stroke-width="0.0015" stroke="rgb(5%, 5%, 5%)" stroke-opacity="1.0" fill="none"><polyline points="0.1600,0.0347 0.1698,0.0347"/><polyline points="0.1649,0.0347 0.1649,0.0301"/><polyline points="0.1600,0.0301 0.1698,0.0301"/></g><g stroke-width="0.0015" stroke="rgb(5%, 5%, 5%)" stroke-opacity="1.0" fill="none"><polyline points="0.2092,-0.2805 0.2191,-0.2805"/><polyline points="0.2142,-0.2805 0.2142,-0.3124"/><polyline points="0.2092,-0.3124 0.2191,-0.3124"/></g></g></g><g class="hud"><g class="axis"><g class="ticks"><g class="tickglyph"><g stroke-width="0.0040" stroke="rgb(5%, 5%, 5%)" stroke-opacity="0.4" fill="rgb(5%, 5%, 5%)" fill-opacity="0.4"><g transform="rotate(-90.0, -0.5033, 0.0820)"><polyline points="-0.5033,0.0970
-0.5033,0.0670"/></g><g transform="rotate(-90.0, -0.5033, 0.0442)"><polyline points="-0.5033,0.0592
-0.5033,0.0292"/></g><g transform="rotate(-90.0, -0.5033, 0.0063)"><polyline points="-0.5033,0.0213
-0.5033,-0.0087"/></g><g transform="rotate(-90.0, -0.5033, -0.0315)"><polyline points="-0.5033,-0.0165
-0.5033,-0.0465"/></g><g transform="rotate(-90.0, -0.5033, -0.0693)"><polyline points="-0.5033,-0.0543
-0.5033,-0.0843"/></g><g transform="rotate(-90.0, -0.5033, -0.1072)"><polyline points="-0.5033,-0.0922
-0.5033,-0.1222"/></g><g transform="rotate(-90.0, -0.5033, -0.1450)"><polyline points="-0.5033,-0.1300
-0.5033,-0.1600"/></g><g transform="rotate(-90.0, -0.5033, -0.1829)"><polyline points="-0.5033,-0.1679
-0.5033,-0.1979"/></g><g transform="rotate(-90.0, -0.5033, -0.2207)"><polyline points="-0.5033,-0.2057
-0.5033,-0.2357"/></g><g transform="rotate(-90.0, -0.5033, -0.2585)"><polyline points="-0.5033,-0.2435
-0.5033,-0.2735"/></g><g transform="rotate(-90.0, -0.5033, -0.2964)"><polyline points="-0.5033,-0.2814
-0.5033,-0.3114"/></g><g transform="rotate(-90.0, -0.5033, -0.3342)"><polyline points="-0.5033,-0.3192
-0.5033,-0.3492"/></g></g></g><g class="ticktext"><g stroke-width="0.0" stroke="none" fill="rgb(5%, 5%, 5%)" fill-opacity="1.0" font-size="0.0237" text-anchor="end"><text x="-0.5204" y="0.0877">0.0</text><text x="-0.5204" y="0.0499">0.2</text><text x="-0.5204" y="0.0121">0.4</text><text x="-0.5204" y="-0.0258">0.6</text><text x="-0.5204" y="-0.0636">0.8</text><text x="-0.5204" y="-0.1015">1.0</text><text x="-0.5204" y="-0.1393">1.2</text><text x="-0.5204" y="-0.1771">1.4</text><text x="-0.5204" y="-0.2150">1.6</text><text x="-0.5204" y="-0.2528">1.8</text><text x="-0.5204" y="-0.2907">2.0</text><text x="-0.5204" y="-0.3285">2.2</text></g></g><g class="ticklines"><g stroke-width="0.0050" stroke="rgb(5%, 5%, 5%)" stroke-opacity="0.05" fill="none"><polyline points="-0.4891,0.0820 0.2771,0.0820"/><polyline points="-0.4891,0.0442 0.2771,0.0442"/><polyline points="-0.4891,0.0063 0.2771,0.0063"/><polyline points="-0.4891,-0.0315 0.2771,-0.0315"/><polyline points="-0.4891,-0.0693 0.2771,-0.0693"/><polyline points="-0.4891,-0.1072 0.2771,-0.1072"/><polyline points="-0.4891,-0.1450 0.2771,-0.1450"/><polyline points="-0.4891,-0.1829 0.2771,-0.1829"/><polyline points="-0.4891,-0.2207 0.2771,-0.2207"/><polyline points="-0.4891,-0.2585 0.2771,-0.2585"/><polyline points="-0.4891,-0.2964 0.2771,-0.2964"/><polyline points="-0.4891,-0.3342 0.2771,-0.3342"/></g></g></g><g class="axisbar"><g stroke-width="0" stroke="rgb(0%, 0%, 0%)" stroke-opacity="0" fill="rgb(5%, 5%, 5%)" fill-opacity="0.4"><rect width="0.0019" height="0.4179" x="-0.4958" y="-0.3351"/></g></g></g><g class="axis"><g class="ticks"><g class="tickglyph"><g stroke-width="0.0040" stroke="rgb(5%, 5%, 5%)" stroke-opacity="0.4" fill="rgb(5%, 5%, 5%)" fill-opacity="0.4"><polyline points="-0.4262,0.1095
-0.4262,0.0795"/><polyline points="-0.3769,0.1095
-0.3769,0.0795"/><polyline points="-0.3277,0.1095
-0.3277,0.0795"/><polyline points="-0.2784,0.1095
-0.2784,0.0795"/><polyline points="-0.2292,0.1095
-0.2292,0.0795"/><polyline points="-0.1799,0.1095
-0.1799,0.0795"/><polyline points="-0.1306,0.1095
-0.1306,0.0795"/><polyline points="-0.0814,0.1095
-0.0814,0.0795"/><polyline points="-0.0321,0.1095
-0.0321,0.0795"/><polyline points="0.0171,0.1095
0.0171,0.0795"/><polyline points="0.0664,0.1095
0.0664,0.0795"/><polyline points="0.1157,0.1095
0.1157,0.0795"/><polyline points="0.1649,0.1095
0.1649,0.0795"/><polyline points="0.2142,0.1095
0.2142,0.0795"/></g></g><g class="ticktext"><g stroke-width="0.0" stroke="none" fill="rgb(5%, 5%, 5%)" fill-opacity="1.0" font-size="0.0237" text-anchor="end"><text x="-0.4262" y="0.1209" transform="rotate(-45.0, -0.4262, 0.1209)">CDCL (adaptive)</text><text x="-0.3769" y="0.1209" transform="rotate(-45.0, -0.3769, 0.1209)">CDCL (adaptive, mVISDS, ExpRestart(100, 2))</text><text x="-0.3277" y="0.1209" transform="rotate(-45.0, -0.3277, 0.1209)">CDCL (adaptive, mVISDS, LubyRestart(100, 2))</text><text x="-0.2784" y="0.1209" transform="rotate(-45.0, -0.2784, 0.1209)">CDCL (adaptive, mVSIDS)</text><text x="-0.2292" y="0.1209" transform="rotate(-45.0, -0.2292, 0.1209)">CDCL (α = 0.75)</text><text x="-0.1799" y="0.1209" transform="rotate(-45.0, -0.1799, 0.1209)">CDCL (α = 0.75, mVISDS)</text><text x="-0.1306" y="0.1209" transform="rotate(-45.0, -0.1306, 0.1209)">CDCL (α = 0.75, mVISDS, ExpRestart(100, 2))</text><text x="-0.0814" y="0.1209" transform="rotate(-45.0, -0.0814, 0.1209)">CDCL (α = 0.75, mVISDS, LubyRestart(100, 2))</text><text x="-0.0321" y="0.1209" transform="rotate(-45.0, -0.0321, 0.1209)">CDCL (α = 0.95)</text><text x="0.0171" y="0.1209" transform="rotate(-45.0, 0.0171, 0.1209)">CDCL (α = 0.95, mVISDS)</text><text x="0.0664" y="0.1209" transform="rotate(-45.0, 0.0664, 0.1209)">CDCL (α = 0.95, mVISDS, ExpRestart(100, 2))</text><text x="0.1157" y="0.1209" transform="rotate(-45.0, 0.1157, 0.1209)">CDCL (α = 0.95, mVISDS, LubyRestart(100, 2))</text><text x="0.1649" y="0.1209" transform="rotate(-45.0, 0.1649, 0.1209)">DPLL</text><text x="0.2142" y="0.1209" transform="rotate(-45.0, 0.2142, 0.1209)">tableaux</text></g></g></g><g class="axisbar"><g stroke-width="0" stroke="rgb(0%, 0%, 0%)" stroke-opacity="0" fill="rgb(5%, 5%, 5%)" fill-opacity="0.4"><rect width="0.7681" height="0.0017" x="-0.4901" y="0.0862"/></g></g></g><g class="title"><g stroke-width="0.0" stroke="none" fill="rgb(5%, 5%, 5%)" fill-opacity="1.0" font-size="0.0568" text-anchor="middle"><text x="-0.2180" y="-0.3768">Time: huge/1/cnf</text></g></g><g class="legend"><g class="legendBorder"><g stroke-width="0.0017" stroke="rgb(5%, 5%, 5%)" stroke-opacity="1.0" fill="rgb(5%, 5%, 5%)" fill-opacity="0"><rect width="0.3534" height="0.4152" x="0.3593" y="-0.3150"/></g></g><g class="legendContent"><g stroke-width="0.0" stroke="none" fill="rgb(5%, 5%, 5%)" fill-opacity="1.0" font-size="0.0149" text-anchor="start"><text x="0.3676" y="0.0853">tableaux</text></g><g stroke-width="0" stroke="rgb(2%, 29%, 48%)" stroke-opacity="1.0" fill="rgb(46%, 22%, 3%)" fill-opacity="1.0"><rect width="0.0249" height="0.0219" x="0.6795" y="0.0711"/></g><g stroke-width="0.0" stroke="none" fill="rgb(5%, 5%, 5%)" fill-opacity="1.0" font-size="0.0149" text-anchor="start"><text x="0.3676" y="0.0562">DPLL</text></g><g stroke-width="0" stroke="rgb(2%, 29%, 48%)" stroke-opacity="1.0" fill="rgb(0%, 52%, 40%)" fill-opacity="1.0"><rect width="0.0249" height="0.0219" x="0.6795" y="0.0420"/></g><g stroke-width="0.0" stroke="none" fill="rgb(5%, 5%, 5%)" fill-opacity="1.0" font-size="0.0149" text-anchor="start"><text x="0.3676" y="0.0270">CDCL (α = 0.95, mVISDS, LubyRestart(100, 2))</text></g><g stroke-width="0" stroke="rgb(2%, 29%, 48%)" stroke-opacity="1.0" fill="rgb(17%, 40%, 67%)" fill-opacity="1.0"><rect width="0.0249" height="0.0219" x="0.6795" y="0.0128"/></g><g stroke-width="0.0" stroke="none" fill="rgb(5%, 5%, 5%)" fill-opacity="1.0" font-size="0.0149" text-anchor="start"><text x="0.3676" y="-0.0021">CDCL (α = 0.95, mVISDS, ExpRestart(100, 2))</text></g><g stroke-width="0" stroke="rgb(2%, 29%, 48%)" stroke-opacity="1.0" fill="rgb(62%, 0%, 31%)" fill-opacity="1.0"><rect width="0.0249" height="0.0219" x="0.6795" y="-0.0163"/></g><g stroke-width="0.0" stroke="none" fill="rgb(5%, 5%, 5%)" fill-opacity="1.0" font-size="0.0149" text-anchor="start"><text x="0.3676" y="-0.0312">CDCL (α = 0.95, mVISDS)</text></g><g stroke-width="0" stroke="rgb(2%, 29%, 48%)" stroke-opacity="1.0" fill="rgb(91%, 47%, 0%)" fill-opacity="1.0"><rect width="0.0249" height="0.0219" x="0.6795" y="-0.0455"/></g><g stroke-width="0.0" stroke="none" fill="rgb(5%, 5%, 5%)" fill-opacity="1.0" font-size="0.0149" text-anchor="start"><text x="0.3676" y="-0.0604">CDCL (α = 0.95)</text></g><g stroke-width="0" stroke="rgb(2%, 29%, 48%)" stroke-opacity="1.0" fill="rgb(0%, 64%, 70%)" fill-opacity="1.0"><rect width="0.0249" height="0.0219" x="0.6795" y="-0.0746"/></g><g stroke-width="0.0" stroke="none" fill="rgb(5%, 5%, 5%)" fill-opacity="1.0" font-size="0.0149" text-anchor="start"><text x="0.3676" y="-0.0895">CDCL (α = 0.75, mVISDS, LubyRestart(100, 2))</text></g><g stroke-width="0" stroke="rgb(2%, 29%, 48%)" stroke-opacity="1.0" fill="rgb(91%, 19%, 0%)" fill-opacity="1.0"><rect width="0.0249" height="0.0219" x="0.6795" y="-0.1037"/></g><g stroke-width="0.0" stroke="none" fill="rgb(5%, 5%, 5%)" fill-opacity="1.0" font-size="0.0149" text-anchor="start"><text x="0.3676" y="-0.1187">CDCL (α = 0.75, mVISDS, ExpRestart(100, 2))</text></g><g stroke-width="0" stroke="rgb(2%, 29%, 48%)" stroke-opacity="1.0" fill="rgb(38%, 23%, 0%)" fill-opacity="1.0"><rect width="0.0249" height="0.0219" x="0.6795" y="-0.1329"/></g><g stroke-width="0.0" stroke="none" fill="rgb(5%, 5%, 5%)" fill-opacity="1.0" font-size="0.0149" text-anchor="start"><text x="0.3676" y="-0.1478">CDCL (α = 0.75, mVISDS)</text></g><g stroke-width="0" stroke="rgb(2%, 29%, 48%)" stroke-opacity="1.0" fill="rgb(90%, 37%, 58%)" fill-opacity="1.0"><rect width="0.0249" height="0.0219" x="0.6795" y="-0.1620"/></g><g stroke-width="0.0" stroke="none" fill="rgb(5%, 5%, 5%)" fill-opacity="1.0" font-size="0.0149" text-anchor="start"><text x="0.3676" y="-0.1769">CDCL (α = 0.75)</text></g><g stroke-width="0" stroke="rgb(2%, 29%, 48%)" stroke-opacity="1.0" fill="rgb(0%, 72%, 98%)" fill-opacity="1.0"><rect width="0.0249" height="0.0219" x="0.6795" y="-0.1911"/></g><g stroke-width="0.0" stroke="none" fill="rgb(5%, 5%, 5%)" fill-opacity="1.0" font-size="0.0149" text-anchor="start"><text x="0.3676" y="-0.2061">CDCL (adaptive, mVSIDS)</text></g><g stroke-width="0" stroke="rgb(2%, 29%, 48%)" stroke-opacity="1.0" fill="rgb(1%, 28%, 43%)" fill-opacity="1.0"><rect width="0.0249" height="0.0219" x="0.6795" y="-0.2203"/></g><g stroke-width="0.0" stroke="none" fill="rgb(5%, 5%, 5%)" fill-opacity="1.0" font-size="0.0149" text-anchor="start"><text x="0.3676" y="-0.2352">CDCL (adaptive, mVISDS, LubyRestart(100, 2))</text></g><g stroke-width="0" stroke="rgb(2%, 29%, 48%)" stroke-opacity="1.0" fill="rgb(26%, 54%, 57%)" fill-opacity="1.0"><rect width="0.0249" height="0.0219" x="0.6795" y="-0.2494"/></g><g stroke-width="0.0" stroke="none" fill="rgb(5%, 5%, 5%)" fill-opacity="1.0" font-size="0.0149" text-anchor="start"><text x="0.3676" y="-0.2643">CDCL (adaptive, mVISDS, ExpRestart(100, 2))</text></g><g stroke-width="0" stroke="rgb(2%, 29%, 48%)" stroke-opacity="1.0" fill="rgb(0%, 25%, 37%)" fill-opacity="1.0"><rect width="0.0249" height="0.0219" x="0.6795" y="-0.2786"/></g><g stroke-width="0.0" stroke="none" fill="rgb(5%, 5%, 5%)" fill-opacity="1.0" font-size="0.0149" text-anchor="start"><text x="0.3676" y="-0.2935">CDCL (adaptive)</text></g><g stroke-width="0" stroke="rgb(2%, 29%, 48%)" stroke-opacity="1.0" fill="rgb(0%, 30%, 12%)" fill-opacity="1.0"><rect width="0.0249" height="0.0219" x="0.6795" y="-0.3077"/></g></g></g><g class="frame"><g stroke-width="0" stroke="rgb(0%, 0%, 0%)" stroke-opacity="0" fill="rgb(100%, 100%, 100%)" fill-opacity="0.02"><rect width="1.6180" height="1.0" x="-0.8090" y="-0.5"/></g></g><g class="title"><g stroke-width="0.0" stroke="none" fill="rgb(5%, 5%, 5%)" fill-opacity="1.0" font-size="0.0284" text-anchor="middle"><text x="-0.7418" y="0" transform="rotate(-90.0, -0.7418, 0)">Time [ms]</text></g></g></g></svg>