<svg xmlns="http://www.w3.org/2000/svg" xmlns:xlink="http://www.w3.org/1999/xlink" width="485" height="300" viewBox="-0.8090 -0.5 1.6180 1.0"><style>svg {
  color-scheme: light dark;
}
{
  .canvas g, .title g, .axisbar g, .ticktext g, .tickglyph g, .ticklines g, .legendContent g text {
    fill: rgb(5%, 5%, 5%);
  }
  .ticklines g, .tickglyph g, .legendBorder g {
    stroke: rgb(5%, 5%, 5%);
  }
  .legendBorder g {
    fill: rgb(94%, 94%, 94%);
  }
}
@media (prefers-color-scheme:dark) {
  .canvas g, .title g, .axisbar g, .ticktext g, .tickglyph g, .ticklines g, .legendContent g text {
    fill: rgb(94%, 94%, 94%);
  }
  .ticklines g, .tickglyph g, .legendBorder g {
    stroke: rgb(94%, 94%, 94%);
  }
  .legendBorder g {
    fill: rgb(5%, 5%, 5%);
  }
}</style><g class="chart"><g class="barchart"><g stroke-width="0" stroke="rgb(2%, 29%, 48%)" stroke-opacity="1.0" fill="rgb(0%, 30%, 12%)" fill-opacity="1.0"><rect width="0.0576" height="0.0344" x="-0.4538" y="0.0476"/></g><g stroke-width="0" stroke="rgb(2%, 29%, 48%)" stroke-opacity="1.0" fill="rgb(0%, 25%, 37%)" fill-opacity="1.0"><rect width="0.0576" height="0.1597" x="-0.3962" y="-0.0776"/></g><g stroke-width="0" stroke="rgb(2%, 29%, 48%)" stroke-opacity="1.0" fill="rgb(26%, 54%, 57%)" fill-opacity="1.0"><rect width="0.0576" height="0.1605" x="-0.3386" y="-0.0785"/></g><g stroke-width="0" stroke="rgb(2%, 29%, 48%)" stroke-opacity="1.0" fill="rgb(1%, 28%, 43%)" fill-opacity="1.0"><rect width="0.0576" height="0.0499" x="-0.2810" y="0.0321"/></g><g stroke-width="0" stroke="rgb(2%, 29%, 48%)" stroke-opacity="1.0" fill="rgb(0%, 72%, 98%)" fill-opacity="1.0"><rect width="0.0576" height="0.0779" x="-0.2234" y="0.0041"/></g><g stroke-width="0" stroke="rgb(2%, 29%, 48%)" stroke-opacity="1.0" fill="rgb(90%, 37%, 58%)" fill-opacity="1.0"><rect width="0.0576" height="0.0683" x="-0.1658" y="0.0137"/></g><g stroke-width="0" stroke="rgb(2%, 29%, 48%)" stroke-opacity="1.0" fill="rgb(38%, 23%, 0%)" fill-opacity="1.0"><rect width="0.0576" height="0.3786" x="-0.1082" y="-0.2966"/></g><g stroke-width="0" stroke="rgb(2%, 29%, 48%)" stroke-opacity="1.0" fill="rgb(91%, 19%, 0%)" fill-opacity="1.0"><rect width="0.0576" height="0.3773" x="-0.0506" y="-0.2953"/></g><g stroke-width="0" stroke="rgb(2%, 29%, 48%)" stroke-opacity="1.0" fill="rgb(0%, 64%, 70%)" fill-opacity="1.0"><rect width="0.0576" height="0.0389" x="0.0070" y="0.0432"/></g><g stroke-width="0" stroke="rgb(2%, 29%, 48%)" stroke-opacity="1.0" fill="rgb(91%, 47%, 0%)" fill-opacity="1.0"><rect width="0.0576" height="0.0701" x="0.0647" y="0.0119"/></g><g stroke-width="0" stroke="rgb(2%, 29%, 48%)" stroke-opacity="1.0" fill="rgb(62%, 0%, 31%)" fill-opacity="1.0"><rect width="0.0576" height="0.0900" x="0.1223" y="-0.0080"/></g><g stroke-width="0" stroke="rgb(2%, 29%, 48%)" stroke-opacity="1.0" fill="rgb(17%, 40%, 67%)" fill-opacity="1.0"><rect width="0.0576" height="0.0877" x="0.1799" y="-0.0057"/></g></g><g class="errors"><g stroke-width="0.0015" stroke="rgb(5%, 5%, 5%)" stroke-opacity="1.0" fill="none"><polyline points="-0.4307,0.0480 -0.4192,0.0480"/><polyline points="-0.4250,0.0480 -0.4250,0.0472"/><polyline points="-0.4307,0.0472 -0.4192,0.0472"/></g><g stroke-width="0.0015" stroke="rgb(5%, 5%, 5%)" stroke-opacity="1.0" fill="none"><polyline points="-0.3731,-0.0771 -0.3616,-0.0771"/><polyline points="-0.3674,-0.0771 -0.3674,-0.0782"/><polyline points="-0.3731,-0.0782 -0.3616,-0.0782"/></g><g stroke-width="0.0015" stroke="rgb(5%, 5%, 5%)" stroke-opacity="1.0" fill="none"><polyline points="-0.3155,-0.0732 -0.3040,-0.0732"/><polyline points="-0.3098,-0.0732 -0.3098,-0.0837"/><polyline points="-0.3155,-0.0837 -0.3040,-0.0837"/></g><g stroke-width="0.0015" stroke="rgb(5%, 5%, 5%)" stroke-opacity="1.0" fill="none"><polyline points="-0.2579,0.0326 -0.2464,0.0326"/><polyline points="-0.2522,0.0326 -0.2522,0.0317"/><polyline points="-0.2579,0.0317 -0.2464,0.0317"/></g><g stroke-width="0.0015" stroke="rgb(5%, 5%, 5%)" stroke-opacity="1.0" fill="none"><polyline points="-0.2003,0.0052 -0.1888,0.0052"/><polyline points="-0.1946,0.0052 -0.1946,0.0030"/><polyline points="-0.2003,0.0030 -0.1888,0.0030"/></g><g stroke-width="0.0015" stroke="rgb(5%, 5%, 5%)" stroke-opacity="1.0" fill="none"><polyline points="-0.1427,0.0141 -0.1312,0.0141"/><polyline points="-0.1370,0.0141 -0.1370,0.0133"/><polyline points="-0.1427,0.0133 -0.1312,0.0133"/></g><g stroke-width="0.0015" stroke="rgb(5%, 5%, 5%)" stroke-opacity="1.0" fill="none"><polyline points="-0.0851,-0.2943 -0.0736,-0.2943"/><polyline points="-0.0794,-0.2943 -0.0794,-0.2989"/><polyline points="-0.0851,-0.2989 -0.0736,-0.2989"/></g><g stroke-width="0.0015" stroke="rgb(5%, 5%, 5%)" stroke-opacity="1.0" fill="none"><polyline points="-0.0275,-0.2922 -0.0160,-0.2922"/><polyline points="-0.0218,-0.2922 -0.0218,-0.2984"/><polyline points="-0.0275,-0.2984 -0.0160,-0.2984"/></g><g stroke-width="0.0015" stroke="rgb(5%, 5%, 5%)" stroke-opacity="1.0" fill="none"><polyline points="0.0301,0.0433 0.0416,0.0433"/><polyline points="0.0359,0.0433 0.0359,0.0430"/><polyline points="0.0301,0.0430 0.0416,0.0430"/></g><g stroke-width="0.0015" stroke="rgb(5%, 5%, 5%)" stroke-opacity="1.0" fill="none"><polyline points="0.0877,0.0125 0.0992,0.0125"/><polyline points="0.0935,0.0125 0.0935,0.0113"/><polyline points="0.0877,0.0113 0.0992,0.0113"/></g><g stroke-width="0.0015" stroke="rgb(5%, 5%, 5%)" stroke-opacity="1.0" fill="none"><polyline points="0.1453,-0.0059 0.1568,-0.0059"/><polyline points="0.1511,-0.0059 0.1511,-0.0100"/><polyline points="0.1453,-0.0100 0.1568,-0.0100"/></g><g stroke-width="0.0015" stroke="rgb(5%, 5%, 5%)" stroke-opacity="1.0" fill="none"><polyline points="0.2029,-0.0048 0.2144,-0.0048"/><polyline points="0.2087,-0.0048 0.2087,-0.0066"/><polyline points="0.2029,-0.0066 0.2144,-0.0066"/></g></g></g><g class="hud"><g class="axis"><g class="ticks"><g class="tickglyph"><g stroke-width="0.0040" stroke="rgb(5%, 5%, 5%)" stroke-opacity="0.4" fill="rgb(5%, 5%, 5%)" fill-opacity="0.4"><g transform="rotate(-90.0, -0.5064, 0.0820)"><polyline points="-0.5064,0.0970
-0.5064,0.0670"/></g><g transform="rotate(-90.0, -0.5064, 0.0358)"><polyline points="-0.5064,0.0508
-0.5064,0.0208"/></g><g transform="rotate(-90.0, -0.5064, -0.0105)"><polyline points="-0.5064,0.0045
-0.5064,-0.0255"/></g><g transform="rotate(-90.0, -0.5064, -0.0567)"><polyline points="-0.5064,-0.0417
-0.5064,-0.0717"/></g><g transform="rotate(-90.0, -0.5064, -0.1030)"><polyline points="-0.5064,-0.0880
-0.5064,-0.1180"/></g><g transform="rotate(-90.0, -0.5064, -0.1492)"><polyline points="-0.5064,-0.1342
-0.5064,-0.1642"/></g><g transform="rotate(-90.0, -0.5064, -0.1955)"><polyline points="-0.5064,-0.1805
-0.5064,-0.2105"/></g><g transform="rotate(-90.0, -0.5064, -0.2417)"><polyline points="-0.5064,-0.2267
-0.5064,-0.2567"/></g><g transform="rotate(-90.0, -0.5064, -0.2880)"><polyline points="-0.5064,-0.2730
-0.5064,-0.3030"/></g><g transform="rotate(-90.0, -0.5064, -0.3342)"><polyline points="-0.5064,-0.3192
-0.5064,-0.3492"/></g></g></g><g class="ticktext"><g stroke-width="0.0" stroke="none" fill="rgb(5%, 5%, 5%)" fill-opacity="1.0" font-size="0.0237" text-anchor="end"><text x="-0.5235" y="0.0877">0</text><text x="-0.5235" y="0.0415">1</text><text x="-0.5235" y="-0.0048">2</text><text x="-0.5235" y="-0.0510">3</text><text x="-0.5235" y="-0.0973">4</text><text x="-0.5235" y="-0.1435">5</text><text x="-0.5235" y="-0.1898">6</text><text x="-0.5235" y="-0.2360">7</text><text x="-0.5235" y="-0.2823">8</text><text x="-0.5235" y="-0.3285">9</text></g></g><g class="ticklines"><g stroke-width="0.0050" stroke="rgb(5%, 5%, 5%)" stroke-opacity="0.05" fill="none"><polyline points="-0.4922,0.0820 0.2759,0.0820"/><polyline points="-0.4922,0.0358 0.2759,0.0358"/><polyline points="-0.4922,-0.0105 0.2759,-0.0105"/><polyline points="-0.4922,-0.0567 0.2759,-0.0567"/><polyline points="-0.4922,-0.1030 0.2759,-0.1030"/><polyline points="-0.4922,-0.1492 0.2759,-0.1492"/><polyline points="-0.4922,-0.1955 0.2759,-0.1955"/><polyline points="-0.4922,-0.2417 0.2759,-0.2417"/><polyline points="-0.4922,-0.2880 0.2759,-0.2880"/><polyline points="-0.4922,-0.3342 0.2759,-0.3342"/></g></g></g><g class="axisbar"><g stroke-width="0" stroke="rgb(0%, 0%, 0%)" stroke-opacity="0" fill="rgb(5%, 5%, 5%)" fill-opacity="0.4"><rect width="0.0019" height="0.4179" x="-0.4988" y="-0.3351"/></g></g></g><g class="axis"><g class="ticks"><g class="tickglyph"><g stroke-width="0.0040" stroke="rgb(5%, 5%, 5%)" stroke-opacity="0.4" fill="rgb(5%, 5%, 5%)" fill-opacity="0.4"><polyline points="-0.4250,0.1095
-0.4250,0.0795"/><polyline points="-0.3674,0.1095
-0.3674,0.0795"/><polyline points="-0.3098,0.1095
-0.3098,0.0795"/><polyline points="-0.2522,0.1095
-0.2522,0.0795"/><polyline points="-0.1946,0.1095
-0.1946,0.0795"/><polyline points="-0.1370,0.1095
-0.1370,0.0795"/><polyline points="-0.0794,0.1095
-0.0794,0.0795"/><polyline points="-0.0218,0.1095
-0.0218,0.0795"/><polyline points="0.0359,0.1095
0.0359,0.0795"/><polyline points="0.0935,0.1095
0.0935,0.0795"/><polyline points="0.1511,0.1095
0.1511,0.0795"/><polyline points="0.2087,0.1095
0.2087,0.0795"/></g></g><g class="ticktext"><g stroke-width="0.0" stroke="none" fill="rgb(5%, 5%, 5%)" fill-opacity="1.0" font-size="0.0237" text-anchor="end"><text x="-0.4250" y="0.1209" transform="rotate(-45.0, -0.4250, 0.1209)">CDCL (adaptive)</text><text x="-0.3674" y="0.1209" transform="rotate(-45.0, -0.3674, 0.1209)">CDCL (adaptive, mVISDS, ExpRestart(100, 2))</text><text x="-0.3098" y="0.1209" transform="rotate(-45.0, -0.3098, 0.1209)">CDCL (adaptive, mVISDS, LubyRestart(100, 2))</text><text x="-0.2522" y="0.1209" transform="rotate(-45.0, -0.2522, 0.1209)">CDCL (adaptive, mVSIDS)</text><text x="-0.1946" y="0.1209" transform="rotate(-45.0, -0.1946, 0.1209)">CDCL (α = 0.75)</text><text x="-0.1370" y="0.1209" transform="rotate(-45.0, -0.1370, 0.1209)">CDCL (α = 0.75, mVISDS)</text><text x="-0.0794" y="0.1209" transform="rotate(-45.0, -0.0794, 0.1209)">CDCL (α = 0.75, mVISDS, ExpRestart(100, 2))</text><text x="-0.0218" y="0.1209" transform="rotate(-45.0, -0.0218, 0.1209)">CDCL (α = 0.75, mVISDS, LubyRestart(100, 2))</text><text x="0.0359" y="0.1209" transform="rotate(-45.0, 0.0359, 0.1209)">CDCL (α = 0.95)</text><text x="0.0935" y="0.1209" transform="rotate(-45.0, 0.0935, 0.1209)">CDCL (α = 0.95, mVISDS)</text><text x="0.1511" y="0.1209" transform="rotate(-45.0, 0.1511, 0.1209)">CDCL (α = 0.95, mVISDS, ExpRestart(100, 2))</text><text x="0.2087" y="0.1209" transform="rotate(-45.0, 0.2087, 0.1209)">CDCL (α = 0.95, mVISDS, LubyRestart(100, 2))</text></g></g></g><g class="axisbar"><g stroke-width="0" stroke="rgb(0%, 0%, 0%)" stroke-opacity="0" fill="rgb(5%, 5%, 5%)" fill-opacity="0.4"><rect width="0.7699" height="0.0017" x="-0.4931" y="0.0862"/></g></g></g><g class="title"><g stroke-width="0.0" stroke="none" fill="rgb(5%, 5%, 5%)" fill-opacity="1.0" font-size="0.0570" text-anchor="middle"><text x="-0.2142" y="-0.3768">Time: SATLIB/flat200-479/flat200-10/cnf</text></g></g><g class="legend"><g class="legendBorder"><g stroke-width="0.0017" stroke="rgb(5%, 5%, 5%)" stroke-opacity="1.0" fill="rgb(5%, 5%, 5%)" fill-opacity="0"><rect width="0.3542" height="0.3569" x="0.3582" y="-0.2567"/></g></g><g class="legendContent"><g stroke-width="0.0" stroke="none" fill="rgb(5%, 5%, 5%)" fill-opacity="1.0" font-size="0.0150" text-anchor="start"><text x="0.3665" y="0.0853">CDCL (α = 0.95, mVISDS, LubyRestart(100, 2))</text></g><g stroke-width="0" stroke="rgb(2%, 29%, 48%)" stroke-opacity="1.0" fill="rgb(17%, 40%, 67%)" fill-opacity="1.0"><rect width="0.0249" height="0.0219" x="0.6792" y="0.0711"/></g><g stroke-width="0.0" stroke="none" fill="rgb(5%, 5%, 5%)" fill-opacity="1.0" font-size="0.0150" text-anchor="start"><text x="0.3665" y="0.0562">CDCL (α = 0.95, mVISDS, ExpRestart(100, 2))</text></g><g stroke-width="0" stroke="rgb(2%, 29%, 48%)" stroke-opacity="1.0" fill="rgb(62%, 0%, 31%)" fill-opacity="1.0"><rect width="0.0249" height="0.0219" x="0.6792" y="0.0420"/></g><g stroke-width="0.0" stroke="none" fill="rgb(5%, 5%, 5%)" fill-opacity="1.0" font-size="0.0150" text-anchor="start"><text x="0.3665" y="0.0270">CDCL (α = 0.95, mVISDS)</text></g><g stroke-width="0" stroke="rgb(2%, 29%, 48%)" stroke-opacity="1.0" fill="rgb(91%, 47%, 0%)" fill-opacity="1.0"><rect width="0.0249" height="0.0219" x="0.6792" y="0.0128"/></g><g stroke-width="0.0" stroke="none" fill="rgb(5%, 5%, 5%)" fill-opacity="1.0" font-size="0.0150" text-anchor="start"><text x="0.3665" y="-0.0021">CDCL (α = 0.95)</text></g><g stroke-width="0" stroke="rgb(2%, 29%, 48%)" stroke-opacity="1.0" fill="rgb(0%, 64%, 70%)" fill-opacity="1.0"><rect width="0.0249" height="0.0219" x="0.6792" y="-0.0163"/></g><g stroke-width="0.0" stroke="none" fill="rgb(5%, 5%, 5%)" fill-opacity="1.0" font-size="0.0150" text-anchor="start"><text x="0.3665" y="-0.0312">CDCL (α = 0.75, mVISDS, LubyRestart(100, 2))</text></g><g stroke-width="0" stroke="rgb(2%, 29%, 48%)" stroke-opacity="1.0" fill="rgb(91%, 19%, 0%)" fill-opacity="1.0"><rect width="0.0249" height="0.0219" x="0.6792" y="-0.0455"/></g><g stroke-width="0.0" stroke="none" fill="rgb(5%, 5%, 5%)" fill-opacity="1.0" font-size="0.0150" text-anchor="start"><text x="0.3665" y="-0.0604">CDCL (α = 0.75, mVISDS, ExpRestart(100, 2))</text></g><g stroke-width="0" stroke="rgb(2%, 29%, 48%)" stroke-opacity="1.0" fill="rgb(38%, 23%, 0%)" fill-opacity="1.0"><rect width="0.0249" height="0.0219" x="0.6792" y="-0.0746"/></g><g stroke-width="0.0" stroke="none" fill="rgb(5%, 5%, 5%)" fill-opacity="1.0" font-size="0.0150" text-anchor="start"><text x="0.3665" y="-0.0895">CDCL (α = 0.75, mVISDS)</text></g><g stroke-width="0" stroke="rgb(2%, 29%, 48%)" stroke-opacity="1.0" fill="rgb(90%, 37%, 58%)" fill-opacity="1.0"><rect width="0.0249" height="0.0219" x="0.6792" y="-0.1037"/></g><g stroke-width="0.0" stroke="none" fill="rgb(5%, 5%, 5%)" fill-opacity="1.0" font-size="0.0150" text-anchor="start"><text x="0.3665" y="-0.1187">CDCL (α = 0.75)</text></g><g stroke-width="0" stroke="rgb(2%, 29%, 48%)" stroke-opacity="1.0" fill="rgb(0%, 72%, 98%)" fill-opacity="1.0"><rect width="0.0249" height="0.0219" x="0.6792" y="-0.1329"/></g><g stroke-width="0.0" stroke="none" fill="rgb(5%, 5%, 5%)" fill-opacity="1.0" font-size="0.0150" text-anchor="start"><text x="0.3665" y="-0.1478">CDCL (adaptive, mVSIDS)</text></g><g stroke-width="0" stroke="rgb(2%, 29%, 48%)" stroke-opacity="1.0" fill="rgb(1%, 28%, 43%)" fill-opacity="1.0"><rect width="0.0249" height="0.0219" x="0.6792" y="-0.1620"/></g><g stroke-width="0.0" stroke="none" fill="rgb(5%, 5%, 5%)" fill-opacity="1.0" font-size="0.0150" text-anchor="start"><text x="0.3665" y="-0.1769">CDCL (adaptive, mVISDS, LubyRestart(100, 2))</text></g><g stroke-width="0" stroke="rgb(2%, 29%, 48%)" stroke-opacity="1.0" fill="rgb(26%, 54%, 57%)" fill-opacity="1.0"><rect width="0.0249" height="0.0219" x="0.6792" y="-0.1911"/></g><g stroke-width="0.0" stroke="none" fill="rgb(5%, 5%, 5%)" fill-opacity="1.0" font-size="0.0150" text-anchor="start"><text x="0.3665" y="-0.2061">CDCL (adaptive, mVISDS, ExpRestart(100, 2))</text></g><g stroke-width="0" stroke="rgb(2%, 29%, 48%)" stroke-opacity="1.0" fill="rgb(0%, 25%, 37%)" fill-opacity="1.0"><rect width="0.0249" height="0.0219" x="0.6792" y="-0.2203"/></g><g stroke-width="0.0" stroke="none" fill="rgb(5%, 5%, 5%)" fill-opacity="1.0" font-size="0.0150" text-anchor="start"><text x="0.3665" y="-0.2352">CDCL (adaptive)</text></g><g stroke-width="0" stroke="rgb(2%, 29%, 48%)" stroke-opacity="1.0" fill="rgb(0%, 30%, 12%)" fill-opacity="1.0"><rect width="0.0249" height="0.0219" x="0.6792" y="-0.2494"/></g></g></g><g class="frame"><g stroke-width="0" stroke="rgb(0%, 0%, 0%)" stroke-opacity="0" fill="rgb(100%, 100%, 100%)" fill-opacity="0.02"><rect width="1.6180" height="1.0" x="-0.8090" y="-0.5"/></g></g><g class="title"><g stroke-width="0.0" stroke="none" fill="rgb(5%, 5%, 5%)" fill-opacity="1.0" font-size="0.0285" text-anchor="middle"><text x="-0.7416" y="0" transform="rotate(-90.0, -0.7416, 0)">Time [s]</text></g></g></g></svg>