<svg xmlns="http://www.w3.org/2000/svg" xmlns:xlink="http://www.w3.org/1999/xlink" width="436" height="300" viewBox="-0.8090 -0.5 1.6180 1.1108"><style>svg {
  color-scheme: light dark;
}
{
  .canvas g, .title g, .axisbar g, .ticktext g, .tickglyph g, .ticklines g, .legendContent g text {
    fill: rgb(5%, 5%, 5%);
  }
  .ticklines g, .tickglyph g, .legendBorder g {
    stroke: rgb(5%, 5%, 5%);
  }
  .legendBorder g {
    fill: rgb(94%, 94%, 94%);
  }
}
@media (prefers-color-scheme:dark) {
  .canvas g, .title g, .axisbar g, .ticktext g, .tickglyph g, .ticklines g, .legendContent g text {
    fill: rgb(94%, 94%, 94%);
  }
  .ticklines g, .tickglyph g, .legendBorder g {
    stroke: rgb(94%, 94%, 94%);
  }
  .legendBorder g {
    fill: rgb(5%, 5%, 5%);
  }
}</style><g class="chart"><g class="barchart"><g stroke-width="0" stroke="rgb(2%, 29%, 48%)" stroke-opacity="1.0" fill="rgb(57%, 0%, 21%)" fill-opacity="1.0"><rect width="0.0224" height="0.0069" x="-0.5031" y="0.1188"/></g><g stroke-width="0.0010" stroke="rgb(57%, 0%, 21%)" stroke-opacity="1.0" fill="rgb(57%, 0%, 21%)" fill-opacity="0.25"><rect width="0.0224" height="0.0065" x="-0.4807" y="0.1191"/></g><g stroke-width="0" stroke="rgb(2%, 29%, 48%)" stroke-opacity="1.0" fill="rgb(72%, 66%, 0%)" fill-opacity="1.0"><rect width="0.0224" height="0.0744" x="-0.4583" y="0.0512"/></g><g stroke-width="0.0010" stroke="rgb(72%, 66%, 0%)" stroke-opacity="1.0" fill="rgb(72%, 66%, 0%)" fill-opacity="0.25"><rect width="0.0224" height="0.0709" x="-0.4359" y="0.0547"/></g><g stroke-width="0" stroke="rgb(2%, 29%, 48%)" stroke-opacity="1.0" fill="rgb(37%, 17%, 0%)" fill-opacity="1.0"><rect width="0.0224" height="0.0744" x="-0.4135" y="0.0512"/></g><g stroke-width="0" stroke="rgb(2%, 29%, 48%)" stroke-opacity="1.0" fill="rgb(20%, 15%, 40%)" fill-opacity="1.0"><rect width="0.0224" height="0.0227" x="-0.3912" y="0.1029"/></g><g stroke-width="0.0010" stroke="rgb(20%, 15%, 40%)" stroke-opacity="1.0" fill="rgb(20%, 15%, 40%)" fill-opacity="0.25"><rect width="0.0224" height="0.0217" x="-0.3688" y="0.1039"/></g><g stroke-width="0" stroke="rgb(2%, 29%, 48%)" stroke-opacity="1.0" fill="rgb(48%, 65%, 0%)" fill-opacity="1.0"><rect width="0.0224" height="0.0181" x="-0.3464" y="0.1075"/></g><g stroke-width="0.0010" stroke="rgb(48%, 65%, 0%)" stroke-opacity="1.0" fill="rgb(48%, 65%, 0%)" fill-opacity="0.25"><rect width="0.0224" height="0.0172" x="-0.3240" y="0.1084"/></g><g stroke-width="0" stroke="rgb(2%, 29%, 48%)" stroke-opacity="1.0" fill="rgb(35%, 24%, 0%)" fill-opacity="1.0"><rect width="0.0224" height="0.0181" x="-0.3016" y="0.1075"/></g><g stroke-width="0" stroke="rgb(2%, 29%, 48%)" stroke-opacity="1.0" fill="rgb(0%, 72%, 67%)" fill-opacity="1.0"><rect width="0.0224" height="0.0443" x="-0.2793" y="0.0813"/></g><g stroke-width="0.0010" stroke="rgb(0%, 72%, 67%)" stroke-opacity="1.0" fill="rgb(0%, 72%, 67%)" fill-opacity="0.25"><rect width="0.0224" height="0.0421" x="-0.2569" y="0.0835"/></g><g stroke-width="0" stroke="rgb(2%, 29%, 48%)" stroke-opacity="1.0" fill="rgb(98%, 15%, 25%)" fill-opacity="1.0"><rect width="0.0224" height="0.0443" x="-0.2345" y="0.0813"/></g><g stroke-width="0" stroke="rgb(2%, 29%, 48%)" stroke-opacity="1.0" fill="rgb(57%, 62%, 78%)" fill-opacity="1.0"><rect width="0.0224" height="0.0443" x="-0.2121" y="0.0813"/></g><g stroke-width="0.0010" stroke="rgb(57%, 62%, 78%)" stroke-opacity="1.0" fill="rgb(57%, 62%, 78%)" fill-opacity="0.25"><rect width="0.0224" height="0.0421" x="-0.1897" y="0.0835"/></g><g stroke-width="0" stroke="rgb(2%, 29%, 48%)" stroke-opacity="1.0" fill="rgb(53%, 24%, 0%)" fill-opacity="1.0"><rect width="0.0224" height="0.0443" x="-0.1674" y="0.0813"/></g><g stroke-width="0" stroke="rgb(2%, 29%, 48%)" stroke-opacity="1.0" fill="rgb(69%, 17%, 0%)" fill-opacity="1.0"><rect width="0.0224" height="0.0069" x="-0.1450" y="0.1187"/></g><g stroke-width="0.0010" stroke="rgb(69%, 17%, 0%)" stroke-opacity="1.0" fill="rgb(69%, 17%, 0%)" fill-opacity="0.25"><rect width="0.0224" height="0.0066" x="-0.1226" y="0.1191"/></g><g stroke-width="0" stroke="rgb(2%, 29%, 48%)" stroke-opacity="1.0" fill="rgb(0%, 42%, 48%)" fill-opacity="1.0"><rect width="0.0224" height="0.0284" x="-0.1002" y="0.0972"/></g><g stroke-width="0.0010" stroke="rgb(0%, 42%, 48%)" stroke-opacity="1.0" fill="rgb(0%, 42%, 48%)" fill-opacity="0.25"><rect width="0.0224" height="0.0271" x="-0.0778" y="0.0986"/></g><g stroke-width="0" stroke="rgb(2%, 29%, 48%)" stroke-opacity="1.0" fill="rgb(18%, 22%, 10%)" fill-opacity="1.0"><rect width="0.0224" height="0.0284" x="-0.0555" y="0.0972"/></g><g stroke-width="0" stroke="rgb(2%, 29%, 48%)" stroke-opacity="1.0" fill="rgb(42%, 44%, 14%)" fill-opacity="1.0"><rect width="0.0224" height="0.0195" x="-0.0331" y="0.1061"/></g><g stroke-width="0.0010" stroke="rgb(42%, 44%, 14%)" stroke-opacity="1.0" fill="rgb(42%, 44%, 14%)" fill-opacity="0.25"><rect width="0.0224" height="0.0186" x="-0.0107" y="0.1071"/></g><g stroke-width="0" stroke="rgb(2%, 29%, 48%)" stroke-opacity="1.0" fill="rgb(54%, 0%, 0%)" fill-opacity="1.0"><rect width="0.0224" height="0.0195" x="0.0117" y="0.1061"/></g><g stroke-width="0" stroke="rgb(2%, 29%, 48%)" stroke-opacity="1.0" fill="rgb(100%, 37%, 0%)" fill-opacity="1.0"><rect width="0.0224" height="0.0195" x="0.0341" y="0.1061"/></g><g stroke-width="0.0010" stroke="rgb(100%, 37%, 0%)" stroke-opacity="1.0" fill="rgb(100%, 37%, 0%)" fill-opacity="0.25"><rect width="0.0224" height="0.0186" x="0.0564" y="0.1071"/></g><g stroke-width="0" stroke="rgb(2%, 29%, 48%)" stroke-opacity="1.0" fill="rgb(0%, 38%, 61%)" fill-opacity="1.0"><rect width="0.0224" height="0.0195" x="0.0788" y="0.1061"/></g><g stroke-width="0" stroke="rgb(2%, 29%, 48%)" stroke-opacity="1.0" fill="rgb(0%, 49%, 30%)" fill-opacity="1.0"><rect width="0.0224" height="0.2682" x="0.1012" y="-0.1426"/></g><g stroke-width="0.0010" stroke="rgb(0%, 49%, 30%)" stroke-opacity="1.0" fill="rgb(0%, 49%, 30%)" fill-opacity="0.25"><rect width="0.0224" height="0.2682" x="0.1236" y="-0.1426"/></g></g><g class="errors"></g></g><g class="hud"><g class="axis"><g class="ticks"><g class="tickglyph"><g stroke-width="0.0040" stroke="rgb(5%, 5%, 5%)" stroke-opacity="0.4" fill="rgb(5%, 5%, 5%)" fill-opacity="0.4"><g transform="rotate(-90.0, -0.5525, 0.1256)"><polyline points="-0.5525,0.1406
-0.5525,0.1106"/></g><g transform="rotate(-90.0, -0.5525, 0.0973)"><polyline points="-0.5525,0.1123
-0.5525,0.0823"/></g><g transform="rotate(-90.0, -0.5525, 0.0690)"><polyline points="-0.5525,0.0840
-0.5525,0.0540"/></g><g transform="rotate(-90.0, -0.5525, 0.0407)"><polyline points="-0.5525,0.0557
-0.5525,0.0257"/></g><g transform="rotate(-90.0, -0.5525, 0.0124)"><polyline points="-0.5525,0.0274
-0.5525,-0.0026"/></g><g transform="rotate(-90.0, -0.5525, -0.0159)"><polyline points="-0.5525,-0.0009
-0.5525,-0.0309"/></g><g transform="rotate(-90.0, -0.5525, -0.0442)"><polyline points="-0.5525,-0.0292
-0.5525,-0.0592"/></g><g transform="rotate(-90.0, -0.5525, -0.0725)"><polyline points="-0.5525,-0.0575
-0.5525,-0.0875"/></g><g transform="rotate(-90.0, -0.5525, -0.1008)"><polyline points="-0.5525,-0.0858
-0.5525,-0.1158"/></g><g transform="rotate(-90.0, -0.5525, -0.1291)"><polyline points="-0.5525,-0.1141
-0.5525,-0.1441"/></g><g transform="rotate(-90.0, -0.5525, -0.1574)"><polyline points="-0.5525,-0.1424
-0.5525,-0.1724"/></g></g></g><g class="ticktext"><g stroke-width="0.0" stroke="none" fill="rgb(5%, 5%, 5%)" fill-opacity="1.0" font-size="0.0223" text-anchor="end"><text x="-0.5685" y="0.1295">  0</text><text x="-0.5685" y="0.1012"> 10</text><text x="-0.5685" y="0.0729"> 20</text><text x="-0.5685" y="0.0446"> 30</text><text x="-0.5685" y="0.0163"> 40</text><text x="-0.5685" y="-0.0120"> 50</text><text x="-0.5685" y="-0.0403"> 60</text><text x="-0.5685" y="-0.0686"> 70</text><text x="-0.5685" y="-0.0969"> 80</text><text x="-0.5685" y="-0.1252"> 90</text><text x="-0.5685" y="-0.1535">100</text></g></g><g class="ticklines"><g stroke-width="0.0050" stroke="rgb(5%, 5%, 5%)" stroke-opacity="0.05" fill="none"><polyline points="-0.5391,0.1256 0.1820,0.1256"/><polyline points="-0.5391,0.0973 0.1820,0.0973"/><polyline points="-0.5391,0.0690 0.1820,0.0690"/><polyline points="-0.5391,0.0407 0.1820,0.0407"/><polyline points="-0.5391,0.0124 0.1820,0.0124"/><polyline points="-0.5391,-0.0159 0.1820,-0.0159"/><polyline points="-0.5391,-0.0442 0.1820,-0.0442"/><polyline points="-0.5391,-0.0725 0.1820,-0.0725"/><polyline points="-0.5391,-0.1008 0.1820,-0.1008"/><polyline points="-0.5391,-0.1291 0.1820,-0.1291"/><polyline points="-0.5391,-0.1574 0.1820,-0.1574"/></g></g></g><g class="axisbar"><g stroke-width="0" stroke="rgb(0%, 0%, 0%)" stroke-opacity="0" fill="rgb(5%, 5%, 5%)" fill-opacity="0.4"><rect width="0.0018" height="0.2841" x="-0.5454" y="-0.1579"/></g></g></g><g class="axis"><g class="ticks"><g class="tickglyph"><g stroke-width="0.0040" stroke="rgb(5%, 5%, 5%)" stroke-opacity="0.4" fill="rgb(5%, 5%, 5%)" fill-opacity="0.4"><polyline points="-0.4919,0.1493
-0.4919,0.1193"/><polyline points="-0.4695,0.1493
-0.4695,0.1193"/><polyline points="-0.4471,0.1493
-0.4471,0.1193"/><polyline points="-0.4247,0.1493
-0.4247,0.1193"/><polyline points="-0.4024,0.1493
-0.4024,0.1193"/><polyline points="-0.3800,0.1493
-0.3800,0.1193"/><polyline points="-0.3576,0.1493
-0.3576,0.1193"/><polyline points="-0.3352,0.1493
-0.3352,0.1193"/><polyline points="-0.3128,0.1493
-0.3128,0.1193"/><polyline points="-0.2905,0.1493
-0.2905,0.1193"/><polyline points="-0.2681,0.1493
-0.2681,0.1193"/><polyline points="-0.2457,0.1493
-0.2457,0.1193"/><polyline points="-0.2233,0.1493
-0.2233,0.1193"/><polyline points="-0.2009,0.1493
-0.2009,0.1193"/><polyline points="-0.1786,0.1493
-0.1786,0.1193"/><polyline points="-0.1562,0.1493
-0.1562,0.1193"/><polyline points="-0.1338,0.1493
-0.1338,0.1193"/><polyline points="-0.1114,0.1493
-0.1114,0.1193"/><polyline points="-0.0890,0.1493
-0.0890,0.1193"/><polyline points="-0.0666,0.1493
-0.0666,0.1193"/><polyline points="-0.0443,0.1493
-0.0443,0.1193"/><polyline points="-0.0219,0.1493
-0.0219,0.1193"/><polyline points="0.0005,0.1493
0.0005,0.1193"/><polyline points="0.0229,0.1493
0.0229,0.1193"/><polyline points="0.0453,0.1493
0.0453,0.1193"/><polyline points="0.0676,0.1493
0.0676,0.1193"/><polyline points="0.0900,0.1493
0.0900,0.1193"/><polyline points="0.1124,0.1493
0.1124,0.1193"/><polyline points="0.1348,0.1493
0.1348,0.1193"/></g></g><g class="ticktext"><g stroke-width="0.0" stroke="none" fill="rgb(5%, 5%, 5%)" fill-opacity="1.0" font-size="0.0223" text-anchor="end"><text x="-0.4919" y="0.1522" transform="rotate(-45.0, -0.4919, 0.1522)">CDCL (adaptive)</text><text x="-0.4695" y="0.1522" transform="rotate(-45.0, -0.4695, 0.1522)">CDCL (adaptive), Baseline</text><text x="-0.4471" y="0.1522" transform="rotate(-45.0, -0.4471, 0.1522)">CDCL (adaptive, mVSIDS)</text><text x="-0.4247" y="0.1522" transform="rotate(-45.0, -0.4247, 0.1522)">CDCL (adaptive, mVSIDS), Baseline</text><text x="-0.4024" y="0.1522" transform="rotate(-45.0, -0.4024, 0.1522)">CDCL (adaptive, mVSIDS, Clause Decay 0.999)</text><text x="-0.3800" y="0.1522" transform="rotate(-45.0, -0.3800, 0.1522)">CDCL (α = 0.75)</text><text x="-0.3576" y="0.1522" transform="rotate(-45.0, -0.3576, 0.1522)">CDCL (α = 0.75), Baseline</text><text x="-0.3352" y="0.1522" transform="rotate(-45.0, -0.3352, 0.1522)">CDCL (α = 0.75, mVISDS)</text><text x="-0.3128" y="0.1522" transform="rotate(-45.0, -0.3128, 0.1522)">CDCL (α = 0.75, mVISDS), Baseline</text><text x="-0.2905" y="0.1522" transform="rotate(-45.0, -0.2905, 0.1522)">CDCL (α = 0.75, mVISDS, Clause Decay 0.999)</text><text x="-0.2681" y="0.1522" transform="rotate(-45.0, -0.2681, 0.1522)">CDCL (α = 0.75, mVISDS, ExpRestart(100, 2))</text><text x="-0.2457" y="0.1522" transform="rotate(-45.0, -0.2457, 0.1522)">CDCL (α = 0.75, mVISDS, ExpRestart(100, 2)), Baseline</text><text x="-0.2233" y="0.1522" transform="rotate(-45.0, -0.2233, 0.1522)">CDCL (α = 0.75, mVISDS, ExpRestart(100, 2), Clause Decay 0.999)</text><text x="-0.2009" y="0.1522" transform="rotate(-45.0, -0.2009, 0.1522)">CDCL (α = 0.75, mVISDS, LubyRestart(100, 2))</text><text x="-0.1786" y="0.1522" transform="rotate(-45.0, -0.1786, 0.1522)">CDCL (α = 0.75, mVISDS, LubyRestart(100, 2)), Baseline</text><text x="-0.1562" y="0.1522" transform="rotate(-45.0, -0.1562, 0.1522)">CDCL (α = 0.75, mVISDS, LubyRestart(100, 2), Clause Decay 0.999)</text><text x="-0.1338" y="0.1522" transform="rotate(-45.0, -0.1338, 0.1522)">CDCL (α = 0.95)</text><text x="-0.1114" y="0.1522" transform="rotate(-45.0, -0.1114, 0.1522)">CDCL (α = 0.95), Baseline</text><text x="-0.0890" y="0.1522" transform="rotate(-45.0, -0.0890, 0.1522)">CDCL (α = 0.95, mVISDS)</text><text x="-0.0666" y="0.1522" transform="rotate(-45.0, -0.0666, 0.1522)">CDCL (α = 0.95, mVISDS), Baseline</text><text x="-0.0443" y="0.1522" transform="rotate(-45.0, -0.0443, 0.1522)">CDCL (α = 0.95, mVISDS, Clause Decay 0.999)</text><text x="-0.0219" y="0.1522" transform="rotate(-45.0, -0.0219, 0.1522)">CDCL (α = 0.95, mVISDS, ExpRestart(100, 2))</text><text x="0.0005" y="0.1522" transform="rotate(-45.0, 0.0005, 0.1522)">CDCL (α = 0.95, mVISDS, ExpRestart(100, 2)), Baseline</text><text x="0.0229" y="0.1522" transform="rotate(-45.0, 0.0229, 0.1522)">CDCL (α = 0.95, mVISDS, ExpRestart(100, 2), Clause Decay 0.999)</text><text x="0.0453" y="0.1522" transform="rotate(-45.0, 0.0453, 0.1522)">CDCL (α = 0.95, mVISDS, LubyRestart(100, 2))</text><text x="0.0676" y="0.1522" transform="rotate(-45.0, 0.0676, 0.1522)">CDCL (α = 0.95, mVISDS, LubyRestart(100, 2)), Baseline</text><text x="0.0900" y="0.1522" transform="rotate(-45.0, 0.0900, 0.1522)">CDCL (α = 0.95, mVISDS, LubyRestart(100, 2), Clause Decay 0.999)</text><text x="0.1124" y="0.1522" transform="rotate(-45.0, 0.1124, 0.1522)">DPLL</text><text x="0.1348" y="0.1522" transform="rotate(-45.0, 0.1348, 0.1522)">DPLL, Baseline</text></g></g></g><g class="axisbar"><g stroke-width="0" stroke="rgb(0%, 0%, 0%)" stroke-opacity="0" fill="rgb(5%, 5%, 5%)" fill-opacity="0.4"><rect width="0.7229" height="0.0011" x="-0.5400" y="0.1286"/></g></g></g><g class="title"><g stroke-width="0.0" stroke="none" fill="rgb(5%, 5%, 5%)" fill-opacity="1.0" font-size="0.0535" text-anchor="middle"><text x="-0.2684" y="-0.1863">Alloc: SATLIB/Bejing/3blocks/cnf</text></g></g><g class="legend"><g class="legendBorder"><g stroke-width="0.0017" stroke="rgb(5%, 5%, 5%)" stroke-opacity="1.0" fill="rgb(5%, 5%, 5%)" fill-opacity="0"><rect width="0.4590" height="0.5804" x="0.2593" y="-0.4424"/></g></g><g class="legendContent"><g stroke-width="0.0" stroke="none" fill="rgb(5%, 5%, 5%)" fill-opacity="1.0" font-size="0.0140" text-anchor="start"><text x="0.2671" y="0.1279">DPLL, Baseline</text></g><g stroke-width="0.0002" stroke="rgb(0%, 49%, 30%)" stroke-opacity="1.0" fill="rgb(0%, 49%, 30%)" fill-opacity="0.25"><rect width="0.0234" height="0.0149" x="0.6871" y="0.1182"/></g><g stroke-width="0.0" stroke="none" fill="rgb(5%, 5%, 5%)" fill-opacity="1.0" font-size="0.0140" text-anchor="start"><text x="0.2671" y="0.1080">DPLL</text></g><g stroke-width="0" stroke="rgb(2%, 29%, 48%)" stroke-opacity="1.0" fill="rgb(0%, 49%, 30%)" fill-opacity="1.0"><rect width="0.0234" height="0.0149" x="0.6871" y="0.0983"/></g><g stroke-width="0.0" stroke="none" fill="rgb(5%, 5%, 5%)" fill-opacity="1.0" font-size="0.0140" text-anchor="start"><text x="0.2671" y="0.0882">CDCL (α = 0.95, mVISDS, LubyRestart(100, 2), Clause Decay 0.999)</text></g><g stroke-width="0" stroke="rgb(2%, 29%, 48%)" stroke-opacity="1.0" fill="rgb(0%, 38%, 61%)" fill-opacity="1.0"><rect width="0.0234" height="0.0149" x="0.6871" y="0.0785"/></g><g stroke-width="0.0" stroke="none" fill="rgb(5%, 5%, 5%)" fill-opacity="1.0" font-size="0.0140" text-anchor="start"><text x="0.2671" y="0.0683">CDCL (α = 0.95, mVISDS, LubyRestart(100, 2)), Baseline</text></g><g stroke-width="0.0002" stroke="rgb(100%, 37%, 0%)" stroke-opacity="1.0" fill="rgb(100%, 37%, 0%)" fill-opacity="0.25"><rect width="0.0234" height="0.0149" x="0.6871" y="0.0587"/></g><g stroke-width="0.0" stroke="none" fill="rgb(5%, 5%, 5%)" fill-opacity="1.0" font-size="0.0140" text-anchor="start"><text x="0.2671" y="0.0485">CDCL (α = 0.95, mVISDS, LubyRestart(100, 2))</text></g><g stroke-width="0" stroke="rgb(2%, 29%, 48%)" stroke-opacity="1.0" fill="rgb(100%, 37%, 0%)" fill-opacity="1.0"><rect width="0.0234" height="0.0149" x="0.6871" y="0.0388"/></g><g stroke-width="0.0" stroke="none" fill="rgb(5%, 5%, 5%)" fill-opacity="1.0" font-size="0.0140" text-anchor="start"><text x="0.2671" y="0.0286">CDCL (α = 0.95, mVISDS, ExpRestart(100, 2), Clause Decay 0.999)</text></g><g stroke-width="0" stroke="rgb(2%, 29%, 48%)" stroke-opacity="1.0" fill="rgb(54%, 0%, 0%)" fill-opacity="1.0"><rect width="0.0234" height="0.0149" x="0.6871" y="0.0190"/></g><g stroke-width="0.0" stroke="none" fill="rgb(5%, 5%, 5%)" fill-opacity="1.0" font-size="0.0140" text-anchor="start"><text x="0.2671" y="0.0088">CDCL (α = 0.95, mVISDS, ExpRestart(100, 2)), Baseline</text></g><g stroke-width="0.0002" stroke="rgb(42%, 44%, 14%)" stroke-opacity="1.0" fill="rgb(42%, 44%, 14%)" fill-opacity="0.25"><rect width="0.0234" height="0.0149" x="0.6871" y="-0.0009"/></g><g stroke-width="0.0" stroke="none" fill="rgb(5%, 5%, 5%)" fill-opacity="1.0" font-size="0.0140" text-anchor="start"><text x="0.2671" y="-0.0111">CDCL (α = 0.95, mVISDS, ExpRestart(100, 2))</text></g><g stroke-width="0" stroke="rgb(2%, 29%, 48%)" stroke-opacity="1.0" fill="rgb(42%, 44%, 14%)" fill-opacity="1.0"><rect width="0.0234" height="0.0149" x="0.6871" y="-0.0207"/></g><g stroke-width="0.0" stroke="none" fill="rgb(5%, 5%, 5%)" fill-opacity="1.0" font-size="0.0140" text-anchor="start"><text x="0.2671" y="-0.0309">CDCL (α = 0.95, mVISDS, Clause Decay 0.999)</text></g><g stroke-width="0" stroke="rgb(2%, 29%, 48%)" stroke-opacity="1.0" fill="rgb(18%, 22%, 10%)" fill-opacity="1.0"><rect width="0.0234" height="0.0149" x="0.6871" y="-0.0406"/></g><g stroke-width="0.0" stroke="none" fill="rgb(5%, 5%, 5%)" fill-opacity="1.0" font-size="0.0140" text-anchor="start"><text x="0.2671" y="-0.0507">CDCL (α = 0.95, mVISDS), Baseline</text></g><g stroke-width="0.0002" stroke="rgb(0%, 42%, 48%)" stroke-opacity="1.0" fill="rgb(0%, 42%, 48%)" fill-opacity="0.25"><rect width="0.0234" height="0.0149" x="0.6871" y="-0.0604"/></g><g stroke-width="0.0" stroke="none" fill="rgb(5%, 5%, 5%)" fill-opacity="1.0" font-size="0.0140" text-anchor="start"><text x="0.2671" y="-0.0706">CDCL (α = 0.95, mVISDS)</text></g><g stroke-width="0" stroke="rgb(2%, 29%, 48%)" stroke-opacity="1.0" fill="rgb(0%, 42%, 48%)" fill-opacity="1.0"><rect width="0.0234" height="0.0149" x="0.6871" y="-0.0803"/></g><g stroke-width="0.0" stroke="none" fill="rgb(5%, 5%, 5%)" fill-opacity="1.0" font-size="0.0140" text-anchor="start"><text x="0.2671" y="-0.0904">CDCL (α = 0.95), Baseline</text></g><g stroke-width="0.0002" stroke="rgb(69%, 17%, 0%)" stroke-opacity="1.0" fill="rgb(69%, 17%, 0%)" fill-opacity="0.25"><rect width="0.0234" height="0.0149" x="0.6871" y="-0.1001"/></g><g stroke-width="0.0" stroke="none" fill="rgb(5%, 5%, 5%)" fill-opacity="1.0" font-size="0.0140" text-anchor="start"><text x="0.2671" y="-0.1103">CDCL (α = 0.95)</text></g><g stroke-width="0" stroke="rgb(2%, 29%, 48%)" stroke-opacity="1.0" fill="rgb(69%, 17%, 0%)" fill-opacity="1.0"><rect width="0.0234" height="0.0149" x="0.6871" y="-0.1199"/></g><g stroke-width="0.0" stroke="none" fill="rgb(5%, 5%, 5%)" fill-opacity="1.0" font-size="0.0140" text-anchor="start"><text x="0.2671" y="-0.1301">CDCL (α = 0.75, mVISDS, LubyRestart(100, 2), Clause Decay 0.999)</text></g><g stroke-width="0" stroke="rgb(2%, 29%, 48%)" stroke-opacity="1.0" fill="rgb(53%, 24%, 0%)" fill-opacity="1.0"><rect width="0.0234" height="0.0149" x="0.6871" y="-0.1398"/></g><g stroke-width="0.0" stroke="none" fill="rgb(5%, 5%, 5%)" fill-opacity="1.0" font-size="0.0140" text-anchor="start"><text x="0.2671" y="-0.1500">CDCL (α = 0.75, mVISDS, LubyRestart(100, 2)), Baseline</text></g><g stroke-width="0.0002" stroke="rgb(57%, 62%, 78%)" stroke-opacity="1.0" fill="rgb(57%, 62%, 78%)" fill-opacity="0.25"><rect width="0.0234" height="0.0149" x="0.6871" y="-0.1596"/></g><g stroke-width="0.0" stroke="none" fill="rgb(5%, 5%, 5%)" fill-opacity="1.0" font-size="0.0140" text-anchor="start"><text x="0.2671" y="-0.1698">CDCL (α = 0.75, mVISDS, LubyRestart(100, 2))</text></g><g stroke-width="0" stroke="rgb(2%, 29%, 48%)" stroke-opacity="1.0" fill="rgb(57%, 62%, 78%)" fill-opacity="1.0"><rect width="0.0234" height="0.0149" x="0.6871" y="-0.1795"/></g><g stroke-width="0.0" stroke="none" fill="rgb(5%, 5%, 5%)" fill-opacity="1.0" font-size="0.0140" text-anchor="start"><text x="0.2671" y="-0.1897">CDCL (α = 0.75, mVISDS, ExpRestart(100, 2), Clause Decay 0.999)</text></g><g stroke-width="0" stroke="rgb(2%, 29%, 48%)" stroke-opacity="1.0" fill="rgb(98%, 15%, 25%)" fill-opacity="1.0"><rect width="0.0234" height="0.0149" x="0.6871" y="-0.1993"/></g><g stroke-width="0.0" stroke="none" fill="rgb(5%, 5%, 5%)" fill-opacity="1.0" font-size="0.0140" text-anchor="start"><text x="0.2671" y="-0.2095">CDCL (α = 0.75, mVISDS, ExpRestart(100, 2)), Baseline</text></g><g stroke-width="0.0002" stroke="rgb(0%, 72%, 67%)" stroke-opacity="1.0" fill="rgb(0%, 72%, 67%)" fill-opacity="0.25"><rect width="0.0234" height="0.0149" x="0.6871" y="-0.2191"/></g><g stroke-width="0.0" stroke="none" fill="rgb(5%, 5%, 5%)" fill-opacity="1.0" font-size="0.0140" text-anchor="start"><text x="0.2671" y="-0.2293">CDCL (α = 0.75, mVISDS, ExpRestart(100, 2))</text></g><g stroke-width="0" stroke="rgb(2%, 29%, 48%)" stroke-opacity="1.0" fill="rgb(0%, 72%, 67%)" fill-opacity="1.0"><rect width="0.0234" height="0.0149" x="0.6871" y="-0.2390"/></g><g stroke-width="0.0" stroke="none" fill="rgb(5%, 5%, 5%)" fill-opacity="1.0" font-size="0.0140" text-anchor="start"><text x="0.2671" y="-0.2492">CDCL (α = 0.75, mVISDS, Clause Decay 0.999)</text></g><g stroke-width="0" stroke="rgb(2%, 29%, 48%)" stroke-opacity="1.0" fill="rgb(35%, 24%, 0%)" fill-opacity="1.0"><rect width="0.0234" height="0.0149" x="0.6871" y="-0.2588"/></g><g stroke-width="0.0" stroke="none" fill="rgb(5%, 5%, 5%)" fill-opacity="1.0" font-size="0.0140" text-anchor="start"><text x="0.2671" y="-0.2690">CDCL (α = 0.75, mVISDS), Baseline</text></g><g stroke-width="0.0002" stroke="rgb(48%, 65%, 0%)" stroke-opacity="1.0" fill="rgb(48%, 65%, 0%)" fill-opacity="0.25"><rect width="0.0234" height="0.0149" x="0.6871" y="-0.2787"/></g><g stroke-width="0.0" stroke="none" fill="rgb(5%, 5%, 5%)" fill-opacity="1.0" font-size="0.0140" text-anchor="start"><text x="0.2671" y="-0.2889">CDCL (α = 0.75, mVISDS)</text></g><g stroke-width="0" stroke="rgb(2%, 29%, 48%)" stroke-opacity="1.0" fill="rgb(48%, 65%, 0%)" fill-opacity="1.0"><rect width="0.0234" height="0.0149" x="0.6871" y="-0.2985"/></g><g stroke-width="0.0" stroke="none" fill="rgb(5%, 5%, 5%)" fill-opacity="1.0" font-size="0.0140" text-anchor="start"><text x="0.2671" y="-0.3087">CDCL (α = 0.75), Baseline</text></g><g stroke-width="0.0002" stroke="rgb(20%, 15%, 40%)" stroke-opacity="1.0" fill="rgb(20%, 15%, 40%)" fill-opacity="0.25"><rect width="0.0234" height="0.0149" x="0.6871" y="-0.3184"/></g><g stroke-width="0.0" stroke="none" fill="rgb(5%, 5%, 5%)" fill-opacity="1.0" font-size="0.0140" text-anchor="start"><text x="0.2671" y="-0.3286">CDCL (α = 0.75)</text></g><g stroke-width="0" stroke="rgb(2%, 29%, 48%)" stroke-opacity="1.0" fill="rgb(20%, 15%, 40%)" fill-opacity="1.0"><rect width="0.0234" height="0.0149" x="0.6871" y="-0.3382"/></g><g stroke-width="0.0" stroke="none" fill="rgb(5%, 5%, 5%)" fill-opacity="1.0" font-size="0.0140" text-anchor="start"><text x="0.2671" y="-0.3484">CDCL (adaptive, mVSIDS, Clause Decay 0.999)</text></g><g stroke-width="0" stroke="rgb(2%, 29%, 48%)" stroke-opacity="1.0" fill="rgb(37%, 17%, 0%)" fill-opacity="1.0"><rect width="0.0234" height="0.0149" x="0.6871" y="-0.3581"/></g><g stroke-width="0.0" stroke="none" fill="rgb(5%, 5%, 5%)" fill-opacity="1.0" font-size="0.0140" text-anchor="start"><text x="0.2671" y="-0.3682">CDCL (adaptive, mVSIDS), Baseline</text></g><g stroke-width="0.0002" stroke="rgb(72%, 66%, 0%)" stroke-opacity="1.0" fill="rgb(72%, 66%, 0%)" fill-opacity="0.25"><rect width="0.0234" height="0.0149" x="0.6871" y="-0.3779"/></g><g stroke-width="0.0" stroke="none" fill="rgb(5%, 5%, 5%)" fill-opacity="1.0" font-size="0.0140" text-anchor="start"><text x="0.2671" y="-0.3881">CDCL (adaptive, mVSIDS)</text></g><g stroke-width="0" stroke="rgb(2%, 29%, 48%)" stroke-opacity="1.0" fill="rgb(72%, 66%, 0%)" fill-opacity="1.0"><rect width="0.0234" height="0.0149" x="0.6871" y="-0.3978"/></g><g stroke-width="0.0" stroke="none" fill="rgb(5%, 5%, 5%)" fill-opacity="1.0" font-size="0.0140" text-anchor="start"><text x="0.2671" y="-0.4079">CDCL (adaptive), Baseline</text></g><g stroke-width="0.0002" stroke="rgb(57%, 0%, 21%)" stroke-opacity="1.0" fill="rgb(57%, 0%, 21%)" fill-opacity="0.25"><rect width="0.0234" height="0.0149" x="0.6871" y="-0.4176"/></g><g stroke-width="0.0" stroke="none" fill="rgb(5%, 5%, 5%)" fill-opacity="1.0" font-size="0.0140" text-anchor="start"><text x="0.2671" y="-0.4278">CDCL (adaptive)</text></g><g stroke-width="0" stroke="rgb(2%, 29%, 48%)" stroke-opacity="1.0" fill="rgb(57%, 0%, 21%)" fill-opacity="1.0"><rect width="0.0234" height="0.0149" x="0.6871" y="-0.4375"/></g></g></g><g class="frame"><g stroke-width="0" stroke="rgb(0%, 0%, 0%)" stroke-opacity="0" fill="rgb(100%, 100%, 100%)" fill-opacity="0.02"><rect width="1.6180" height="1.0" x="-0.8090" y="-0.5"/></g></g><g class="title"><g stroke-width="0.0" stroke="none" fill="rgb(5%, 5%, 5%)" fill-opacity="1.0" font-size="0.0267" text-anchor="middle"><text x="-0.7457" y="0" transform="rotate(-90.0, -0.7457, 0)">Alloc [GiB]</text></g></g></g></svg>