<svg xmlns="http://www.w3.org/2000/svg" xmlns:xlink="http://www.w3.org/1999/xlink" width="459" height="300" viewBox="-0.8090 -0.5 1.6180 1.0575"><style>svg {
  color-scheme: light dark;
}
{
  .canvas g, .title g, .axisbar g, .ticktext g, .tickglyph g, .ticklines g, .legendContent g text {
    fill: rgb(5%, 5%, 5%);
  }
  .ticklines g, .tickglyph g, .legendBorder g {
    stroke: rgb(5%, 5%, 5%);
  }
  .legendBorder g {
    fill: rgb(94%, 94%, 94%);
  }
}
@media (prefers-color-scheme:dark) {
  .canvas g, .title g, .axisbar g, .ticktext g, .tickglyph g, .ticklines g, .legendContent g text {
    fill: rgb(94%, 94%, 94%);
  }
  .ticklines g, .tickglyph g, .legendBorder g {
    stroke: rgb(94%, 94%, 94%);
  }
  .legendBorder g {
    fill: rgb(5%, 5%, 5%);
  }
}</style><g class="chart"><g class="barchart"><g stroke-width="0" stroke="rgb(2%, 29%, 48%)" stroke-opacity="1.0" fill="rgb(0%, 30%, 12%)" fill-opacity="1.0"><rect width="0.0228" height="0.1551" x="-0.4192" y="-0.0072"/></g><g stroke-width="0.0010" stroke="rgb(0%, 30%, 12%)" stroke-opacity="1.0" fill="rgb(0%, 30%, 12%)" fill-opacity="0.25"><rect width="0.0228" height="0.2530" x="-0.3964" y="-0.1051"/></g><g stroke-width="0" stroke="rgb(2%, 29%, 48%)" stroke-opacity="1.0" fill="rgb(0%, 25%, 37%)" fill-opacity="1.0"><rect width="0.0228" height="0.1663" x="-0.3736" y="-0.0184"/></g><g stroke-width="0.0010" stroke="rgb(0%, 25%, 37%)" stroke-opacity="1.0" fill="rgb(0%, 25%, 37%)" fill-opacity="0.25"><rect width="0.0228" height="0.2521" x="-0.3508" y="-0.1043"/></g><g stroke-width="0" stroke="rgb(2%, 29%, 48%)" stroke-opacity="1.0" fill="rgb(26%, 54%, 57%)" fill-opacity="1.0"><rect width="0.0228" height="0.1628" x="-0.3280" y="-0.0150"/></g><g stroke-width="0.0010" stroke="rgb(26%, 54%, 57%)" stroke-opacity="1.0" fill="rgb(26%, 54%, 57%)" fill-opacity="0.25"><rect width="0.0228" height="0.2512" x="-0.3052" y="-0.1034"/></g><g stroke-width="0" stroke="rgb(2%, 29%, 48%)" stroke-opacity="1.0" fill="rgb(1%, 28%, 43%)" fill-opacity="1.0"><rect width="0.0228" height="0.1545" x="-0.2824" y="-0.0066"/></g><g stroke-width="0.0010" stroke="rgb(1%, 28%, 43%)" stroke-opacity="1.0" fill="rgb(1%, 28%, 43%)" fill-opacity="0.25"><rect width="0.0228" height="0.2538" x="-0.2596" y="-0.1060"/></g><g stroke-width="0" stroke="rgb(2%, 29%, 48%)" stroke-opacity="1.0" fill="rgb(0%, 72%, 98%)" fill-opacity="1.0"><rect width="0.0228" height="0.1644" x="-0.2368" y="-0.0166"/></g><g stroke-width="0.0010" stroke="rgb(0%, 72%, 98%)" stroke-opacity="1.0" fill="rgb(0%, 72%, 98%)" fill-opacity="0.25"><rect width="0.0228" height="0.2420" x="-0.2140" y="-0.0941"/></g><g stroke-width="0" stroke="rgb(2%, 29%, 48%)" stroke-opacity="1.0" fill="rgb(90%, 37%, 58%)" fill-opacity="1.0"><rect width="0.0228" height="0.1640" x="-0.1912" y="-0.0162"/></g><g stroke-width="0.0010" stroke="rgb(90%, 37%, 58%)" stroke-opacity="1.0" fill="rgb(90%, 37%, 58%)" fill-opacity="0.25"><rect width="0.0228" height="0.2454" x="-0.1684" y="-0.0975"/></g><g stroke-width="0" stroke="rgb(2%, 29%, 48%)" stroke-opacity="1.0" fill="rgb(38%, 23%, 0%)" fill-opacity="1.0"><rect width="0.0228" height="0.1624" x="-0.1456" y="-0.0146"/></g><g stroke-width="0.0010" stroke="rgb(38%, 23%, 0%)" stroke-opacity="1.0" fill="rgb(38%, 23%, 0%)" fill-opacity="0.25"><rect width="0.0228" height="0.2492" x="-0.1228" y="-0.1014"/></g><g stroke-width="0" stroke="rgb(2%, 29%, 48%)" stroke-opacity="1.0" fill="rgb(91%, 19%, 0%)" fill-opacity="1.0"><rect width="0.0228" height="0.1621" x="-0.1000" y="-0.0143"/></g><g stroke-width="0.0010" stroke="rgb(91%, 19%, 0%)" stroke-opacity="1.0" fill="rgb(91%, 19%, 0%)" fill-opacity="0.25"><rect width="0.0228" height="0.2544" x="-0.0772" y="-0.1065"/></g><g stroke-width="0" stroke="rgb(2%, 29%, 48%)" stroke-opacity="1.0" fill="rgb(0%, 64%, 70%)" fill-opacity="1.0"><rect width="0.0228" height="0.1624" x="-0.0544" y="-0.0145"/></g><g stroke-width="0.0010" stroke="rgb(0%, 64%, 70%)" stroke-opacity="1.0" fill="rgb(0%, 64%, 70%)" fill-opacity="0.25"><rect width="0.0228" height="0.2525" x="-0.0316" y="-0.1047"/></g><g stroke-width="0" stroke="rgb(2%, 29%, 48%)" stroke-opacity="1.0" fill="rgb(91%, 47%, 0%)" fill-opacity="1.0"><rect width="0.0228" height="0.1622" x="-0.0088" y="-0.0144"/></g><g stroke-width="0.0010" stroke="rgb(91%, 47%, 0%)" stroke-opacity="1.0" fill="rgb(91%, 47%, 0%)" fill-opacity="0.25"><rect width="0.0228" height="0.2520" x="0.0139" y="-0.1042"/></g><g stroke-width="0" stroke="rgb(2%, 29%, 48%)" stroke-opacity="1.0" fill="rgb(62%, 0%, 31%)" fill-opacity="1.0"><rect width="0.0228" height="0.1632" x="0.0367" y="-0.0153"/></g><g stroke-width="0.0010" stroke="rgb(62%, 0%, 31%)" stroke-opacity="1.0" fill="rgb(62%, 0%, 31%)" fill-opacity="0.25"><rect width="0.0228" height="0.2504" x="0.0595" y="-0.1026"/></g><g stroke-width="0" stroke="rgb(2%, 29%, 48%)" stroke-opacity="1.0" fill="rgb(17%, 40%, 67%)" fill-opacity="1.0"><rect width="0.0228" height="0.1563" x="0.0823" y="-0.0084"/></g><g stroke-width="0.0010" stroke="rgb(17%, 40%, 67%)" stroke-opacity="1.0" fill="rgb(17%, 40%, 67%)" fill-opacity="0.25"><rect width="0.0228" height="0.2496" x="0.1051" y="-0.1017"/></g><g stroke-width="0" stroke="rgb(2%, 29%, 48%)" stroke-opacity="1.0" fill="rgb(0%, 52%, 40%)" fill-opacity="1.0"><rect width="0.0228" height="0.0413" x="0.1279" y="0.1065"/></g><g stroke-width="0.0010" stroke="rgb(0%, 52%, 40%)" stroke-opacity="1.0" fill="rgb(0%, 52%, 40%)" fill-opacity="0.25"><rect width="0.0228" height="0.0401" x="0.1507" y="0.1077"/></g><g stroke-width="0" stroke="rgb(2%, 29%, 48%)" stroke-opacity="1.0" fill="rgb(46%, 22%, 3%)" fill-opacity="1.0"><rect width="0.0228" height="0.2387" x="0.1735" y="-0.0908"/></g><g stroke-width="0.0010" stroke="rgb(46%, 22%, 3%)" stroke-opacity="1.0" fill="rgb(46%, 22%, 3%)" fill-opacity="0.25"><rect width="0.0228" height="0.2466" x="0.1963" y="-0.0988"/></g></g><g class="errors"><g stroke-width="0.0015" stroke="rgb(5%, 5%, 5%)" stroke-opacity="1.0" fill="none"><polyline points="-0.4100,-0.0023 -0.4055,-0.0023"/><polyline points="-0.4078,-0.0023 -0.4078,-0.0122"/><polyline points="-0.4100,-0.0122 -0.4055,-0.0122"/></g><g stroke-width="0.0015" stroke="rgb(5%, 5%, 5%)" stroke-opacity="1.0" fill="none"><polyline points="-0.3872,-0.0987 -0.3827,-0.0987"/><polyline points="-0.3850,-0.0987 -0.3850,-0.1115"/><polyline points="-0.3872,-0.1115 -0.3827,-0.1115"/></g><g stroke-width="0.0015" stroke="rgb(5%, 5%, 5%)" stroke-opacity="1.0" fill="none"><polyline points="-0.3645,-0.0126 -0.3599,-0.0126"/><polyline points="-0.3622,-0.0126 -0.3622,-0.0243"/><polyline points="-0.3645,-0.0243 -0.3599,-0.0243"/></g><g stroke-width="0.0015" stroke="rgb(5%, 5%, 5%)" stroke-opacity="1.0" fill="none"><polyline points="-0.3417,-0.0942 -0.3371,-0.0942"/><polyline points="-0.3394,-0.0942 -0.3394,-0.1144"/><polyline points="-0.3417,-0.1144 -0.3371,-0.1144"/></g><g stroke-width="0.0015" stroke="rgb(5%, 5%, 5%)" stroke-opacity="1.0" fill="none"><polyline points="-0.3189,-0.0120 -0.3143,-0.0120"/><polyline points="-0.3166,-0.0120 -0.3166,-0.0179"/><polyline points="-0.3189,-0.0179 -0.3143,-0.0179"/></g><g stroke-width="0.0015" stroke="rgb(5%, 5%, 5%)" stroke-opacity="1.0" fill="none"><polyline points="-0.2961,-0.0933 -0.2915,-0.0933"/><polyline points="-0.2938,-0.0933 -0.2938,-0.1135"/><polyline points="-0.2961,-0.1135 -0.2915,-0.1135"/></g><g stroke-width="0.0015" stroke="rgb(5%, 5%, 5%)" stroke-opacity="1.0" fill="none"><polyline points="-0.2733,-0.0021 -0.2687,-0.0021"/><polyline points="-0.2710,-0.0021 -0.2710,-0.0111"/><polyline points="-0.2733,-0.0111 -0.2687,-0.0111"/></g><g stroke-width="0.0015" stroke="rgb(5%, 5%, 5%)" stroke-opacity="1.0" fill="none"><polyline points="-0.2505,-0.0953 -0.2459,-0.0953"/><polyline points="-0.2482,-0.0953 -0.2482,-0.1167"/><polyline points="-0.2505,-0.1167 -0.2459,-0.1167"/></g><g stroke-width="0.0015" stroke="rgb(5%, 5%, 5%)" stroke-opacity="1.0" fill="none"><polyline points="-0.2277,-0.0114 -0.2231,-0.0114"/><polyline points="-0.2254,-0.0114 -0.2254,-0.0218"/><polyline points="-0.2277,-0.0218 -0.2231,-0.0218"/></g><g stroke-width="0.0015" stroke="rgb(5%, 5%, 5%)" stroke-opacity="1.0" fill="none"><polyline points="-0.2049,-0.0861 -0.2003,-0.0861"/><polyline points="-0.2026,-0.0861 -0.2026,-0.1021"/><polyline points="-0.2049,-0.1021 -0.2003,-0.1021"/></g><g stroke-width="0.0015" stroke="rgb(5%, 5%, 5%)" stroke-opacity="1.0" fill="none"><polyline points="-0.1821,-0.0084 -0.1775,-0.0084"/><polyline points="-0.1798,-0.0084 -0.1798,-0.0239"/><polyline points="-0.1821,-0.0239 -0.1775,-0.0239"/></g><g stroke-width="0.0015" stroke="rgb(5%, 5%, 5%)" stroke-opacity="1.0" fill="none"><polyline points="-0.1593,-0.0865 -0.1547,-0.0865"/><polyline points="-0.1570,-0.0865 -0.1570,-0.1086"/><polyline points="-0.1593,-0.1086 -0.1547,-0.1086"/></g><g stroke-width="0.0015" stroke="rgb(5%, 5%, 5%)" stroke-opacity="1.0" fill="none"><polyline points="-0.1365,-0.0065 -0.1319,-0.0065"/><polyline points="-0.1342,-0.0065 -0.1342,-0.0227"/><polyline points="-0.1365,-0.0227 -0.1319,-0.0227"/></g><g stroke-width="0.0015" stroke="rgb(5%, 5%, 5%)" stroke-opacity="1.0" fill="none"><polyline points="-0.1137,-0.0894 -0.1091,-0.0894"/><polyline points="-0.1114,-0.0894 -0.1114,-0.1133"/><polyline points="-0.1137,-0.1133 -0.1091,-0.1133"/></g><g stroke-width="0.0015" stroke="rgb(5%, 5%, 5%)" stroke-opacity="1.0" fill="none"><polyline points="-0.0909,-0.0070 -0.0864,-0.0070"/><polyline points="-0.0886,-0.0070 -0.0886,-0.0215"/><polyline points="-0.0909,-0.0215 -0.0864,-0.0215"/></g><g stroke-width="0.0015" stroke="rgb(5%, 5%, 5%)" stroke-opacity="1.0" fill="none"><polyline points="-0.0681,-0.0956 -0.0636,-0.0956"/><polyline points="-0.0658,-0.0956 -0.0658,-0.1175"/><polyline points="-0.0681,-0.1175 -0.0636,-0.1175"/></g><g stroke-width="0.0015" stroke="rgb(5%, 5%, 5%)" stroke-opacity="1.0" fill="none"><polyline points="-0.0453,-0.0106 -0.0408,-0.0106"/><polyline points="-0.0430,-0.0106 -0.0430,-0.0185"/><polyline points="-0.0453,-0.0185 -0.0408,-0.0185"/></g><g stroke-width="0.0015" stroke="rgb(5%, 5%, 5%)" stroke-opacity="1.0" fill="none"><polyline points="-0.0225,-0.0946 -0.0180,-0.0946"/><polyline points="-0.0202,-0.0946 -0.0202,-0.1147"/><polyline points="-0.0225,-0.1147 -0.0180,-0.1147"/></g><g stroke-width="0.0015" stroke="rgb(5%, 5%, 5%)" stroke-opacity="1.0" fill="none"><polyline points="0.0003,-0.0099 0.0048,-0.0099"/><polyline points="0.0025,-0.0099 0.0025,-0.0189"/><polyline points="0.0003,-0.0189 0.0048,-0.0189"/></g><g stroke-width="0.0015" stroke="rgb(5%, 5%, 5%)" stroke-opacity="1.0" fill="none"><polyline points="0.0231,-0.0951 0.0276,-0.0951"/><polyline points="0.0253,-0.0951 0.0253,-0.1133"/><polyline points="0.0231,-0.1133 0.0276,-0.1133"/></g><g stroke-width="0.0015" stroke="rgb(5%, 5%, 5%)" stroke-opacity="1.0" fill="none"><polyline points="0.0459,-0.0074 0.0504,-0.0074"/><polyline points="0.0481,-0.0074 0.0481,-0.0233"/><polyline points="0.0459,-0.0233 0.0504,-0.0233"/></g><g stroke-width="0.0015" stroke="rgb(5%, 5%, 5%)" stroke-opacity="1.0" fill="none"><polyline points="0.0687,-0.0939 0.0732,-0.0939"/><polyline points="0.0709,-0.0939 0.0709,-0.1112"/><polyline points="0.0687,-0.1112 0.0732,-0.1112"/></g><g stroke-width="0.0015" stroke="rgb(5%, 5%, 5%)" stroke-opacity="1.0" fill="none"><polyline points="0.0915,-0.0030 0.0960,-0.0030"/><polyline points="0.0937,-0.0030 0.0937,-0.0139"/><polyline points="0.0915,-0.0139 0.0960,-0.0139"/></g><g stroke-width="0.0015" stroke="rgb(5%, 5%, 5%)" stroke-opacity="1.0" fill="none"><polyline points="0.1142,-0.0932 0.1188,-0.0932"/><polyline points="0.1165,-0.0932 0.1165,-0.1102"/><polyline points="0.1142,-0.1102 0.1188,-0.1102"/></g><g stroke-width="0.0015" stroke="rgb(5%, 5%, 5%)" stroke-opacity="1.0" fill="none"><polyline points="0.1370,0.1085 0.1416,0.1085"/><polyline points="0.1393,0.1085 0.1393,0.1046"/><polyline points="0.1370,0.1046 0.1416,0.1046"/></g><g stroke-width="0.0015" stroke="rgb(5%, 5%, 5%)" stroke-opacity="1.0" fill="none"><polyline points="0.1598,0.1089 0.1644,0.1089"/><polyline points="0.1621,0.1089 0.1621,0.1065"/><polyline points="0.1598,0.1065 0.1644,0.1065"/></g><g stroke-width="0.0015" stroke="rgb(5%, 5%, 5%)" stroke-opacity="1.0" fill="none"><polyline points="0.1826,-0.0808 0.1872,-0.0808"/><polyline points="0.1849,-0.0808 0.1849,-0.1009"/><polyline points="0.1826,-0.1009 0.1872,-0.1009"/></g><g stroke-width="0.0015" stroke="rgb(5%, 5%, 5%)" stroke-opacity="1.0" fill="none"><polyline points="0.2054,-0.0905 0.2100,-0.0905"/><polyline points="0.2077,-0.0905 0.2077,-0.1070"/><polyline points="0.2054,-0.1070 0.2100,-0.1070"/></g></g></g><g class="hud"><g class="axis"><g class="ticks"><g class="tickglyph"><g stroke-width="0.0040" stroke="rgb(5%, 5%, 5%)" stroke-opacity="0.4" fill="rgb(5%, 5%, 5%)" fill-opacity="0.4"><g transform="rotate(-90.0, -0.4678, 0.1478)"><polyline points="-0.4678,0.1628
-0.4678,0.1328"/></g><g transform="rotate(-90.0, -0.4678, 0.1100)"><polyline points="-0.4678,0.1250
-0.4678,0.0950"/></g><g transform="rotate(-90.0, -0.4678, 0.0722)"><polyline points="-0.4678,0.0872
-0.4678,0.0572"/></g><g transform="rotate(-90.0, -0.4678, 0.0344)"><polyline points="-0.4678,0.0494
-0.4678,0.0194"/></g><g transform="rotate(-90.0, -0.4678, -0.0035)"><polyline points="-0.4678,0.0115
-0.4678,-0.0185"/></g><g transform="rotate(-90.0, -0.4678, -0.0413)"><polyline points="-0.4678,-0.0263
-0.4678,-0.0563"/></g><g transform="rotate(-90.0, -0.4678, -0.0791)"><polyline points="-0.4678,-0.0641
-0.4678,-0.0941"/></g><g transform="rotate(-90.0, -0.4678, -0.1169)"><polyline points="-0.4678,-0.1019
-0.4678,-0.1319"/></g><g transform="rotate(-90.0, -0.4678, -0.1548)"><polyline points="-0.4678,-0.1398
-0.4678,-0.1698"/></g></g></g><g class="ticktext"><g stroke-width="0.0" stroke="none" fill="rgb(5%, 5%, 5%)" fill-opacity="1.0" font-size="0.0219" text-anchor="end"><text x="-0.4835" y="0.1520">0.0</text><text x="-0.4835" y="0.1142">0.2</text><text x="-0.4835" y="0.0763">0.4</text><text x="-0.4835" y="0.0385">0.6</text><text x="-0.4835" y="0.0007">0.8</text><text x="-0.4835" y="-0.0371">1.0</text><text x="-0.4835" y="-0.0750">1.2</text><text x="-0.4835" y="-0.1128">1.4</text><text x="-0.4835" y="-0.1506">1.6</text></g></g><g class="ticklines"><g stroke-width="0.0050" stroke="rgb(5%, 5%, 5%)" stroke-opacity="0.05" fill="none"><polyline points="-0.4546,0.1478 0.2546,0.1478"/><polyline points="-0.4546,0.1100 0.2546,0.1100"/><polyline points="-0.4546,0.0722 0.2546,0.0722"/><polyline points="-0.4546,0.0344 0.2546,0.0344"/><polyline points="-0.4546,-0.0035 0.2546,-0.0035"/><polyline points="-0.4546,-0.0413 0.2546,-0.0413"/><polyline points="-0.4546,-0.0791 0.2546,-0.0791"/><polyline points="-0.4546,-0.1169 0.2546,-0.1169"/><polyline points="-0.4546,-0.1548 0.2546,-0.1548"/></g></g></g><g class="axisbar"><g stroke-width="0" stroke="rgb(0%, 0%, 0%)" stroke-opacity="0" fill="rgb(5%, 5%, 5%)" fill-opacity="0.4"><rect width="0.0018" height="0.3038" x="-0.4608" y="-0.1554"/></g></g></g><g class="axis"><g class="ticks"><g class="tickglyph"><g stroke-width="0.0040" stroke="rgb(5%, 5%, 5%)" stroke-opacity="0.4" fill="rgb(5%, 5%, 5%)" fill-opacity="0.4"><polyline points="-0.4078,0.1721
-0.4078,0.1421"/><polyline points="-0.3850,0.1721
-0.3850,0.1421"/><polyline points="-0.3622,0.1721
-0.3622,0.1421"/><polyline points="-0.3394,0.1721
-0.3394,0.1421"/><polyline points="-0.3166,0.1721
-0.3166,0.1421"/><polyline points="-0.2938,0.1721
-0.2938,0.1421"/><polyline points="-0.2710,0.1721
-0.2710,0.1421"/><polyline points="-0.2482,0.1721
-0.2482,0.1421"/><polyline points="-0.2254,0.1721
-0.2254,0.1421"/><polyline points="-0.2026,0.1721
-0.2026,0.1421"/><polyline points="-0.1798,0.1721
-0.1798,0.1421"/><polyline points="-0.1570,0.1721
-0.1570,0.1421"/><polyline points="-0.1342,0.1721
-0.1342,0.1421"/><polyline points="-0.1114,0.1721
-0.1114,0.1421"/><polyline points="-0.0886,0.1721
-0.0886,0.1421"/><polyline points="-0.0658,0.1721
-0.0658,0.1421"/><polyline points="-0.0430,0.1721
-0.0430,0.1421"/><polyline points="-0.0202,0.1721
-0.0202,0.1421"/><polyline points="0.0025,0.1721
0.0025,0.1421"/><polyline points="0.0253,0.1721
0.0253,0.1421"/><polyline points="0.0481,0.1721
0.0481,0.1421"/><polyline points="0.0709,0.1721
0.0709,0.1421"/><polyline points="0.0937,0.1721
0.0937,0.1421"/><polyline points="0.1165,0.1721
0.1165,0.1421"/><polyline points="0.1393,0.1721
0.1393,0.1421"/><polyline points="0.1621,0.1721
0.1621,0.1421"/><polyline points="0.1849,0.1721
0.1849,0.1421"/><polyline points="0.2077,0.1721
0.2077,0.1421"/></g></g><g class="ticktext"><g stroke-width="0.0" stroke="none" fill="rgb(5%, 5%, 5%)" fill-opacity="1.0" font-size="0.0219" text-anchor="end"><text x="-0.4078" y="0.1763" transform="rotate(-45.0, -0.4078, 0.1763)">CDCL (adaptive)</text><text x="-0.3850" y="0.1763" transform="rotate(-45.0, -0.3850, 0.1763)">CDCL (adaptive), Baseline</text><text x="-0.3622" y="0.1763" transform="rotate(-45.0, -0.3622, 0.1763)">CDCL (adaptive, mVISDS, ExpRestart(100, 2))</text><text x="-0.3394" y="0.1763" transform="rotate(-45.0, -0.3394, 0.1763)">CDCL (adaptive, mVISDS, ExpRestart(100, 2)), Baseline</text><text x="-0.3166" y="0.1763" transform="rotate(-45.0, -0.3166, 0.1763)">CDCL (adaptive, mVISDS, LubyRestart(100, 2))</text><text x="-0.2938" y="0.1763" transform="rotate(-45.0, -0.2938, 0.1763)">CDCL (adaptive, mVISDS, LubyRestart(100, 2)), Baseline</text><text x="-0.2710" y="0.1763" transform="rotate(-45.0, -0.2710, 0.1763)">CDCL (adaptive, mVSIDS)</text><text x="-0.2482" y="0.1763" transform="rotate(-45.0, -0.2482, 0.1763)">CDCL (adaptive, mVSIDS), Baseline</text><text x="-0.2254" y="0.1763" transform="rotate(-45.0, -0.2254, 0.1763)">CDCL (α = 0.75)</text><text x="-0.2026" y="0.1763" transform="rotate(-45.0, -0.2026, 0.1763)">CDCL (α = 0.75), Baseline</text><text x="-0.1798" y="0.1763" transform="rotate(-45.0, -0.1798, 0.1763)">CDCL (α = 0.75, mVISDS)</text><text x="-0.1570" y="0.1763" transform="rotate(-45.0, -0.1570, 0.1763)">CDCL (α = 0.75, mVISDS), Baseline</text><text x="-0.1342" y="0.1763" transform="rotate(-45.0, -0.1342, 0.1763)">CDCL (α = 0.75, mVISDS, ExpRestart(100, 2))</text><text x="-0.1114" y="0.1763" transform="rotate(-45.0, -0.1114, 0.1763)">CDCL (α = 0.75, mVISDS, ExpRestart(100, 2)), Baseline</text><text x="-0.0886" y="0.1763" transform="rotate(-45.0, -0.0886, 0.1763)">CDCL (α = 0.75, mVISDS, LubyRestart(100, 2))</text><text x="-0.0658" y="0.1763" transform="rotate(-45.0, -0.0658, 0.1763)">CDCL (α = 0.75, mVISDS, LubyRestart(100, 2)), Baseline</text><text x="-0.0430" y="0.1763" transform="rotate(-45.0, -0.0430, 0.1763)">CDCL (α = 0.95)</text><text x="-0.0202" y="0.1763" transform="rotate(-45.0, -0.0202, 0.1763)">CDCL (α = 0.95), Baseline</text><text x="0.0025" y="0.1763" transform="rotate(-45.0, 0.0025, 0.1763)">CDCL (α = 0.95, mVISDS)</text><text x="0.0253" y="0.1763" transform="rotate(-45.0, 0.0253, 0.1763)">CDCL (α = 0.95, mVISDS), Baseline</text><text x="0.0481" y="0.1763" transform="rotate(-45.0, 0.0481, 0.1763)">CDCL (α = 0.95, mVISDS, ExpRestart(100, 2))</text><text x="0.0709" y="0.1763" transform="rotate(-45.0, 0.0709, 0.1763)">CDCL (α = 0.95, mVISDS, ExpRestart(100, 2)), Baseline</text><text x="0.0937" y="0.1763" transform="rotate(-45.0, 0.0937, 0.1763)">CDCL (α = 0.95, mVISDS, LubyRestart(100, 2))</text><text x="0.1165" y="0.1763" transform="rotate(-45.0, 0.1165, 0.1763)">CDCL (α = 0.95, mVISDS, LubyRestart(100, 2)), Baseline</text><text x="0.1393" y="0.1763" transform="rotate(-45.0, 0.1393, 0.1763)">DPLL</text><text x="0.1621" y="0.1763" transform="rotate(-45.0, 0.1621, 0.1763)">DPLL, Baseline</text><text x="0.1849" y="0.1763" transform="rotate(-45.0, 0.1849, 0.1763)">tableaux</text><text x="0.2077" y="0.1763" transform="rotate(-45.0, 0.2077, 0.1763)">tableaux, Baseline</text></g></g></g><g class="axisbar"><g stroke-width="0" stroke="rgb(0%, 0%, 0%)" stroke-opacity="0" fill="rgb(5%, 5%, 5%)" fill-opacity="0.4"><rect width="0.7109" height="0.0012" x="-0.4555" y="0.1510"/></g></g></g><g class="title"><g stroke-width="0.0" stroke="none" fill="rgb(5%, 5%, 5%)" fill-opacity="1.0" font-size="0.0526" text-anchor="middle"><text x="-0.2329" y="-0.1857">Time: huge/8/cnf</text></g></g><g class="legend"><g class="legendBorder"><g stroke-width="0.0017" stroke="rgb(5%, 5%, 5%)" stroke-opacity="1.0" fill="rgb(5%, 5%, 5%)" fill-opacity="0"><rect width="0.3892" height="0.5995" x="0.3306" y="-0.4384"/></g></g><g class="legendContent"><g stroke-width="0.0" stroke="none" fill="rgb(5%, 5%, 5%)" fill-opacity="1.0" font-size="0.0138" text-anchor="start"><text x="0.3383" y="0.1502">tableaux, Baseline</text></g><g stroke-width="0.0002" stroke="rgb(46%, 22%, 3%)" stroke-opacity="1.0" fill="rgb(46%, 22%, 3%)" fill-opacity="0.25"><rect width="0.0230" height="0.0159" x="0.6891" y="0.1399"/></g><g stroke-width="0.0" stroke="none" fill="rgb(5%, 5%, 5%)" fill-opacity="1.0" font-size="0.0138" text-anchor="start"><text x="0.3383" y="0.1290">tableaux</text></g><g stroke-width="0" stroke="rgb(2%, 29%, 48%)" stroke-opacity="1.0" fill="rgb(46%, 22%, 3%)" fill-opacity="1.0"><rect width="0.0230" height="0.0159" x="0.6891" y="0.1187"/></g><g stroke-width="0.0" stroke="none" fill="rgb(5%, 5%, 5%)" fill-opacity="1.0" font-size="0.0138" text-anchor="start"><text x="0.3383" y="0.1078">DPLL, Baseline</text></g><g stroke-width="0.0002" stroke="rgb(0%, 52%, 40%)" stroke-opacity="1.0" fill="rgb(0%, 52%, 40%)" fill-opacity="0.25"><rect width="0.0230" height="0.0159" x="0.6891" y="0.0975"/></g><g stroke-width="0.0" stroke="none" fill="rgb(5%, 5%, 5%)" fill-opacity="1.0" font-size="0.0138" text-anchor="start"><text x="0.3383" y="0.0865">DPLL</text></g><g stroke-width="0" stroke="rgb(2%, 29%, 48%)" stroke-opacity="1.0" fill="rgb(0%, 52%, 40%)" fill-opacity="1.0"><rect width="0.0230" height="0.0159" x="0.6891" y="0.0762"/></g><g stroke-width="0.0" stroke="none" fill="rgb(5%, 5%, 5%)" fill-opacity="1.0" font-size="0.0138" text-anchor="start"><text x="0.3383" y="0.0653">CDCL (α = 0.95, mVISDS, LubyRestart(100, 2)), Baseline</text></g><g stroke-width="0.0002" stroke="rgb(17%, 40%, 67%)" stroke-opacity="1.0" fill="rgb(17%, 40%, 67%)" fill-opacity="0.25"><rect width="0.0230" height="0.0159" x="0.6891" y="0.0550"/></g><g stroke-width="0.0" stroke="none" fill="rgb(5%, 5%, 5%)" fill-opacity="1.0" font-size="0.0138" text-anchor="start"><text x="0.3383" y="0.0441">CDCL (α = 0.95, mVISDS, LubyRestart(100, 2))</text></g><g stroke-width="0" stroke="rgb(2%, 29%, 48%)" stroke-opacity="1.0" fill="rgb(17%, 40%, 67%)" fill-opacity="1.0"><rect width="0.0230" height="0.0159" x="0.6891" y="0.0338"/></g><g stroke-width="0.0" stroke="none" fill="rgb(5%, 5%, 5%)" fill-opacity="1.0" font-size="0.0138" text-anchor="start"><text x="0.3383" y="0.0229">CDCL (α = 0.95, mVISDS, ExpRestart(100, 2)), Baseline</text></g><g stroke-width="0.0002" stroke="rgb(62%, 0%, 31%)" stroke-opacity="1.0" fill="rgb(62%, 0%, 31%)" fill-opacity="0.25"><rect width="0.0230" height="0.0159" x="0.6891" y="0.0126"/></g><g stroke-width="0.0" stroke="none" fill="rgb(5%, 5%, 5%)" fill-opacity="1.0" font-size="0.0138" text-anchor="start"><text x="0.3383" y="0.0017">CDCL (α = 0.95, mVISDS, ExpRestart(100, 2))</text></g><g stroke-width="0" stroke="rgb(2%, 29%, 48%)" stroke-opacity="1.0" fill="rgb(62%, 0%, 31%)" fill-opacity="1.0"><rect width="0.0230" height="0.0159" x="0.6891" y="-0.0087"/></g><g stroke-width="0.0" stroke="none" fill="rgb(5%, 5%, 5%)" fill-opacity="1.0" font-size="0.0138" text-anchor="start"><text x="0.3383" y="-0.0196">CDCL (α = 0.95, mVISDS), Baseline</text></g><g stroke-width="0.0002" stroke="rgb(91%, 47%, 0%)" stroke-opacity="1.0" fill="rgb(91%, 47%, 0%)" fill-opacity="0.25"><rect width="0.0230" height="0.0159" x="0.6891" y="-0.0299"/></g><g stroke-width="0.0" stroke="none" fill="rgb(5%, 5%, 5%)" fill-opacity="1.0" font-size="0.0138" text-anchor="start"><text x="0.3383" y="-0.0408">CDCL (α = 0.95, mVISDS)</text></g><g stroke-width="0" stroke="rgb(2%, 29%, 48%)" stroke-opacity="1.0" fill="rgb(91%, 47%, 0%)" fill-opacity="1.0"><rect width="0.0230" height="0.0159" x="0.6891" y="-0.0511"/></g><g stroke-width="0.0" stroke="none" fill="rgb(5%, 5%, 5%)" fill-opacity="1.0" font-size="0.0138" text-anchor="start"><text x="0.3383" y="-0.0620">CDCL (α = 0.95), Baseline</text></g><g stroke-width="0.0002" stroke="rgb(0%, 64%, 70%)" stroke-opacity="1.0" fill="rgb(0%, 64%, 70%)" fill-opacity="0.25"><rect width="0.0230" height="0.0159" x="0.6891" y="-0.0723"/></g><g stroke-width="0.0" stroke="none" fill="rgb(5%, 5%, 5%)" fill-opacity="1.0" font-size="0.0138" text-anchor="start"><text x="0.3383" y="-0.0832">CDCL (α = 0.95)</text></g><g stroke-width="0" stroke="rgb(2%, 29%, 48%)" stroke-opacity="1.0" fill="rgb(0%, 64%, 70%)" fill-opacity="1.0"><rect width="0.0230" height="0.0159" x="0.6891" y="-0.0936"/></g><g stroke-width="0.0" stroke="none" fill="rgb(5%, 5%, 5%)" fill-opacity="1.0" font-size="0.0138" text-anchor="start"><text x="0.3383" y="-0.1044">CDCL (α = 0.75, mVISDS, LubyRestart(100, 2)), Baseline</text></g><g stroke-width="0.0002" stroke="rgb(91%, 19%, 0%)" stroke-opacity="1.0" fill="rgb(91%, 19%, 0%)" fill-opacity="0.25"><rect width="0.0230" height="0.0159" x="0.6891" y="-0.1148"/></g><g stroke-width="0.0" stroke="none" fill="rgb(5%, 5%, 5%)" fill-opacity="1.0" font-size="0.0138" text-anchor="start"><text x="0.3383" y="-0.1257">CDCL (α = 0.75, mVISDS, LubyRestart(100, 2))</text></g><g stroke-width="0" stroke="rgb(2%, 29%, 48%)" stroke-opacity="1.0" fill="rgb(91%, 19%, 0%)" fill-opacity="1.0"><rect width="0.0230" height="0.0159" x="0.6891" y="-0.1360"/></g><g stroke-width="0.0" stroke="none" fill="rgb(5%, 5%, 5%)" fill-opacity="1.0" font-size="0.0138" text-anchor="start"><text x="0.3383" y="-0.1469">CDCL (α = 0.75, mVISDS, ExpRestart(100, 2)), Baseline</text></g><g stroke-width="0.0002" stroke="rgb(38%, 23%, 0%)" stroke-opacity="1.0" fill="rgb(38%, 23%, 0%)" fill-opacity="0.25"><rect width="0.0230" height="0.0159" x="0.6891" y="-0.1572"/></g><g stroke-width="0.0" stroke="none" fill="rgb(5%, 5%, 5%)" fill-opacity="1.0" font-size="0.0138" text-anchor="start"><text x="0.3383" y="-0.1681">CDCL (α = 0.75, mVISDS, ExpRestart(100, 2))</text></g><g stroke-width="0" stroke="rgb(2%, 29%, 48%)" stroke-opacity="1.0" fill="rgb(38%, 23%, 0%)" fill-opacity="1.0"><rect width="0.0230" height="0.0159" x="0.6891" y="-0.1785"/></g><g stroke-width="0.0" stroke="none" fill="rgb(5%, 5%, 5%)" fill-opacity="1.0" font-size="0.0138" text-anchor="start"><text x="0.3383" y="-0.1893">CDCL (α = 0.75, mVISDS), Baseline</text></g><g stroke-width="0.0002" stroke="rgb(90%, 37%, 58%)" stroke-opacity="1.0" fill="rgb(90%, 37%, 58%)" fill-opacity="0.25"><rect width="0.0230" height="0.0159" x="0.6891" y="-0.1997"/></g><g stroke-width="0.0" stroke="none" fill="rgb(5%, 5%, 5%)" fill-opacity="1.0" font-size="0.0138" text-anchor="start"><text x="0.3383" y="-0.2106">CDCL (α = 0.75, mVISDS)</text></g><g stroke-width="0" stroke="rgb(2%, 29%, 48%)" stroke-opacity="1.0" fill="rgb(90%, 37%, 58%)" fill-opacity="1.0"><rect width="0.0230" height="0.0159" x="0.6891" y="-0.2209"/></g><g stroke-width="0.0" stroke="none" fill="rgb(5%, 5%, 5%)" fill-opacity="1.0" font-size="0.0138" text-anchor="start"><text x="0.3383" y="-0.2318">CDCL (α = 0.75), Baseline</text></g><g stroke-width="0.0002" stroke="rgb(0%, 72%, 98%)" stroke-opacity="1.0" fill="rgb(0%, 72%, 98%)" fill-opacity="0.25"><rect width="0.0230" height="0.0159" x="0.6891" y="-0.2421"/></g><g stroke-width="0.0" stroke="none" fill="rgb(5%, 5%, 5%)" fill-opacity="1.0" font-size="0.0138" text-anchor="start"><text x="0.3383" y="-0.2530">CDCL (α = 0.75)</text></g><g stroke-width="0" stroke="rgb(2%, 29%, 48%)" stroke-opacity="1.0" fill="rgb(0%, 72%, 98%)" fill-opacity="1.0"><rect width="0.0230" height="0.0159" x="0.6891" y="-0.2633"/></g><g stroke-width="0.0" stroke="none" fill="rgb(5%, 5%, 5%)" fill-opacity="1.0" font-size="0.0138" text-anchor="start"><text x="0.3383" y="-0.2742">CDCL (adaptive, mVSIDS), Baseline</text></g><g stroke-width="0.0002" stroke="rgb(1%, 28%, 43%)" stroke-opacity="1.0" fill="rgb(1%, 28%, 43%)" fill-opacity="0.25"><rect width="0.0230" height="0.0159" x="0.6891" y="-0.2846"/></g><g stroke-width="0.0" stroke="none" fill="rgb(5%, 5%, 5%)" fill-opacity="1.0" font-size="0.0138" text-anchor="start"><text x="0.3383" y="-0.2955">CDCL (adaptive, mVSIDS)</text></g><g stroke-width="0" stroke="rgb(2%, 29%, 48%)" stroke-opacity="1.0" fill="rgb(1%, 28%, 43%)" fill-opacity="1.0"><rect width="0.0230" height="0.0159" x="0.6891" y="-0.3058"/></g><g stroke-width="0.0" stroke="none" fill="rgb(5%, 5%, 5%)" fill-opacity="1.0" font-size="0.0138" text-anchor="start"><text x="0.3383" y="-0.3167">CDCL (adaptive, mVISDS, LubyRestart(100, 2)), Baseline</text></g><g stroke-width="0.0002" stroke="rgb(26%, 54%, 57%)" stroke-opacity="1.0" fill="rgb(26%, 54%, 57%)" fill-opacity="0.25"><rect width="0.0230" height="0.0159" x="0.6891" y="-0.3270"/></g><g stroke-width="0.0" stroke="none" fill="rgb(5%, 5%, 5%)" fill-opacity="1.0" font-size="0.0138" text-anchor="start"><text x="0.3383" y="-0.3379">CDCL (adaptive, mVISDS, LubyRestart(100, 2))</text></g><g stroke-width="0" stroke="rgb(2%, 29%, 48%)" stroke-opacity="1.0" fill="rgb(26%, 54%, 57%)" fill-opacity="1.0"><rect width="0.0230" height="0.0159" x="0.6891" y="-0.3482"/></g><g stroke-width="0.0" stroke="none" fill="rgb(5%, 5%, 5%)" fill-opacity="1.0" font-size="0.0138" text-anchor="start"><text x="0.3383" y="-0.3591">CDCL (adaptive, mVISDS, ExpRestart(100, 2)), Baseline</text></g><g stroke-width="0.0002" stroke="rgb(0%, 25%, 37%)" stroke-opacity="1.0" fill="rgb(0%, 25%, 37%)" fill-opacity="0.25"><rect width="0.0230" height="0.0159" x="0.6891" y="-0.3694"/></g><g stroke-width="0.0" stroke="none" fill="rgb(5%, 5%, 5%)" fill-opacity="1.0" font-size="0.0138" text-anchor="start"><text x="0.3383" y="-0.3804">CDCL (adaptive, mVISDS, ExpRestart(100, 2))</text></g><g stroke-width="0" stroke="rgb(2%, 29%, 48%)" stroke-opacity="1.0" fill="rgb(0%, 25%, 37%)" fill-opacity="1.0"><rect width="0.0230" height="0.0159" x="0.6891" y="-0.3907"/></g><g stroke-width="0.0" stroke="none" fill="rgb(5%, 5%, 5%)" fill-opacity="1.0" font-size="0.0138" text-anchor="start"><text x="0.3383" y="-0.4016">CDCL (adaptive), Baseline</text></g><g stroke-width="0.0002" stroke="rgb(0%, 30%, 12%)" stroke-opacity="1.0" fill="rgb(0%, 30%, 12%)" fill-opacity="0.25"><rect width="0.0230" height="0.0159" x="0.6891" y="-0.4119"/></g><g stroke-width="0.0" stroke="none" fill="rgb(5%, 5%, 5%)" fill-opacity="1.0" font-size="0.0138" text-anchor="start"><text x="0.3383" y="-0.4228">CDCL (adaptive)</text></g><g stroke-width="0" stroke="rgb(2%, 29%, 48%)" stroke-opacity="1.0" fill="rgb(0%, 30%, 12%)" fill-opacity="1.0"><rect width="0.0230" height="0.0159" x="0.6891" y="-0.4331"/></g></g></g><g class="frame"><g stroke-width="0" stroke="rgb(0%, 0%, 0%)" stroke-opacity="0" fill="rgb(100%, 100%, 100%)" fill-opacity="0.02"><rect width="1.6180" height="1.0" x="-0.8090" y="-0.5"/></g></g><g class="title"><g stroke-width="0.0" stroke="none" fill="rgb(5%, 5%, 5%)" fill-opacity="1.0" font-size="0.0263" text-anchor="middle"><text x="-0.7468" y="0" transform="rotate(-90.0, -0.7468, 0)">Time [ms]</text></g></g></g></svg>