<svg xmlns="http://www.w3.org/2000/svg" xmlns:xlink="http://www.w3.org/1999/xlink" width="617" height="300" viewBox="-1.4741 -0.5 2.808 1.3645"><style>svg {color-scheme: light dark;} {.canvas g, .title g, .axisbar g, .ticktext g, .tickglyph g, .ticklines g, .legendContent g text {fill: rgb(5%, 5%, 5%);} .ticklines g, .tickglyph g, .legendBorder g {stroke: rgb(5%, 5%, 5%);} .legendBorder g {fill: rgb(94%, 94%, 94%);}} @media (prefers-color-scheme:dark) {.canvas g, .title g, .axisbar g, .ticktext g, .tickglyph g, .ticklines g, .legendContent g text {fill: rgb(94%, 94%, 94%);} .ticklines g, .tickglyph g, .legendBorder g {stroke: rgb(94%, 94%, 94%);} .legendBorder g {fill: rgb(5%, 5%, 5%);}}
svg { font-family: system-ui,-apple-system,"Segoe UI",Roboto,"Helvetica Neue",Arial,"Noto Sans","Liberation Sans",sans-serif,"Apple Color Emoji","Segoe UI Emoji","Segoe UI Symbol","Noto Color Emoji";
}

ticktext { font-family: SFMono-Regular,Menlo,Monaco,Consolas,"Liberation Mono","Courier New",monospace;}</style><g class="chart"><g class="barchart"><g stroke-width="0" stroke="rgb(2%, 29%, 48%)" stroke-opacity="1.0" fill="rgb(0%, 39%, 55%)" fill-opacity="1.0"><rect width="0.0621" height="0.2283" x="-0.3166" y="-0.1927"/></g><g stroke-width="0" stroke="rgb(2%, 29%, 48%)" stroke-opacity="1.0" fill="rgb(37%, 26%, 0%)" fill-opacity="1.0"><rect width="0.0621" height="0.2476" x="-0.2545" y="-0.2120"/></g><g stroke-width="0" stroke="rgb(2%, 29%, 48%)" stroke-opacity="1.0" fill="rgb(14%, 22%, 0%)" fill-opacity="1.0"><rect width="0.0621" height="0.3408" x="-0.1924" y="-0.3052"/></g><g stroke-width="0" stroke="rgb(2%, 29%, 48%)" stroke-opacity="1.0" fill="rgb(40%, 59%, 56%)" fill-opacity="1.0"><rect width="0.0621" height="0.1322" x="-0.1303" y="-0.0966"/></g><g stroke-width="0" stroke="rgb(2%, 29%, 48%)" stroke-opacity="1.0" fill="rgb(16%, 49%, 26%)" fill-opacity="1.0"><rect width="0.0621" height="0.2880" x="-0.0682" y="-0.2523"/></g><g stroke-width="0" stroke="rgb(2%, 29%, 48%)" stroke-opacity="1.0" fill="rgb(12%, 10%, 48%)" fill-opacity="1.0"><rect width="0.0621" height="0.1970" x="-0.0060" y="-0.1614"/></g><g stroke-width="0" stroke="rgb(2%, 29%, 48%)" stroke-opacity="1.0" fill="rgb(13%, 47%, 60%)" fill-opacity="1.0"><rect width="0.0621" height="0.1184" x="0.0561" y="-0.0828"/></g><g stroke-width="0" stroke="rgb(2%, 29%, 48%)" stroke-opacity="1.0" fill="rgb(39%, 19%, 0%)" fill-opacity="1.0"><rect width="0.0621" height="0.1187" x="0.1182" y="-0.0831"/></g><g stroke-width="0" stroke="rgb(2%, 29%, 48%)" stroke-opacity="1.0" fill="rgb(33%, 71%, 69%)" fill-opacity="1.0"><rect width="0.0621" height="0.2444" x="0.1803" y="-0.2088"/></g><g stroke-width="0" stroke="rgb(2%, 29%, 48%)" stroke-opacity="1.0" fill="rgb(100%, 34%, 60%)" fill-opacity="1.0"><rect width="0.0621" height="0.1049" x="0.2424" y="-0.0693"/></g><g stroke-width="0" stroke="rgb(2%, 29%, 48%)" stroke-opacity="1.0" fill="rgb(0%, 46%, 80%)" fill-opacity="1.0"><rect width="0.0621" height="0.1763" x="0.3046" y="-0.1407"/></g><g stroke-width="0" stroke="rgb(2%, 29%, 48%)" stroke-opacity="1.0" fill="rgb(50%, 35%, 74%)" fill-opacity="1.0"><rect width="0.0621" height="0.2571" x="0.3667" y="-0.2215"/></g></g><g class="errors"></g><g class="datapadding"></g></g><g class="hud"><g class="axis"><g class="axisbar"><g stroke-width="0" stroke="rgb(0%, 0%, 0%)" stroke-opacity="0" fill="rgb(5%, 5%, 5%)" fill-opacity="0.4"><rect width="0.7473" height="0.0016" x="-0.3176" y="0.0738"/></g></g><g class="ticks"><g class="tickglyph"><g stroke-width="0.0016" stroke="rgb(5%, 5%, 5%)" stroke-opacity="0.4" fill="rgb(5%, 5%, 5%)" fill-opacity="0.4"><polyline points="-0.2856,0.0869
-0.2856,0.0746"/><polyline points="-0.2235,0.0869
-0.2235,0.0746"/><polyline points="-0.1613,0.0869
-0.1613,0.0746"/><polyline points="-0.0992,0.0869
-0.0992,0.0746"/><polyline points="-0.0371,0.0869
-0.0371,0.0746"/><polyline points="0.0250,0.0869
0.0250,0.0746"/><polyline points="0.0871,0.0869
0.0871,0.0746"/><polyline points="0.1493,0.0869
0.1493,0.0746"/><polyline points="0.2114,0.0869
0.2114,0.0746"/><polyline points="0.2735,0.0869
0.2735,0.0746"/><polyline points="0.3356,0.0869
0.3356,0.0746"/><polyline points="0.3977,0.0869
0.3977,0.0746"/></g></g><g class="ticktext"><g stroke-width="0.0" stroke="none" fill="rgb(5%, 5%, 5%)" fill-opacity="1.0" font-size="0.0400" text-anchor="end"><text x="-0.2856" y="0.1094" transform="rotate(-45.0, -0.2856, 0.1094)">CDCL (adaptive)</text><text x="-0.2235" y="0.1094" transform="rotate(-45.0, -0.2235, 0.1094)">CDCL (adaptive, mVISDS, ExpRestart(100, 2))</text><text x="-0.1613" y="0.1094" transform="rotate(-45.0, -0.1613, 0.1094)">CDCL (adaptive, mVISDS, LubyRestart(100, 2))</text><text x="-0.0992" y="0.1094" transform="rotate(-45.0, -0.0992, 0.1094)">CDCL (adaptive, mVSIDS)</text><text x="-0.0371" y="0.1094" transform="rotate(-45.0, -0.0371, 0.1094)">CDCL (α = 0.75)</text><text x="0.0250" y="0.1094" transform="rotate(-45.0, 0.0250, 0.1094)">CDCL (α = 0.75, mVISDS)</text><text x="0.0871" y="0.1094" transform="rotate(-45.0, 0.0871, 0.1094)">CDCL (α = 0.75, mVISDS, ExpRestart(100, 2))</text><text x="0.1493" y="0.1094" transform="rotate(-45.0, 0.1493, 0.1094)">CDCL (α = 0.75, mVISDS, LubyRestart(100, 2))</text><text x="0.2114" y="0.1094" transform="rotate(-45.0, 0.2114, 0.1094)">CDCL (α = 0.95)</text><text x="0.2735" y="0.1094" transform="rotate(-45.0, 0.2735, 0.1094)">CDCL (α = 0.95, mVISDS)</text><text x="0.3356" y="0.1094" transform="rotate(-45.0, 0.3356, 0.1094)">CDCL (α = 0.95, mVISDS, ExpRestart(100, 2))</text><text x="0.3977" y="0.1094" transform="rotate(-45.0, 0.3977, 0.1094)">CDCL (α = 0.95, mVISDS, LubyRestart(100, 2))</text></g></g></g></g><g class="axis"><g class="axisbar"><g stroke-width="0" stroke="rgb(0%, 0%, 0%)" stroke-opacity="0" fill="rgb(5%, 5%, 5%)" fill-opacity="0.4"><rect width="0.0018" height="0.4106" x="-0.3231" y="-0.3401"/></g></g><g class="ticks"><g class="ticklines"><g stroke-width="0.0050" stroke="rgb(5%, 5%, 5%)" stroke-opacity="0.05" fill="none"><polyline points="-0.3166,0.0697 0.4288,0.0697"/><polyline points="-0.3166,0.0015 0.4288,0.0015"/><polyline points="-0.3166,-0.0666 0.4288,-0.0666"/><polyline points="-0.3166,-0.1348 0.4288,-0.1348"/><polyline points="-0.3166,-0.2030 0.4288,-0.2030"/><polyline points="-0.3166,-0.2711 0.4288,-0.2711"/><polyline points="-0.3166,-0.3393 0.4288,-0.3393"/></g></g><g class="tickglyph"><g stroke-width="0.0018" stroke="rgb(5%, 5%, 5%)" stroke-opacity="0.4" fill="rgb(5%, 5%, 5%)" fill-opacity="0.4"><polyline points="-0.3360,0.0697
-0.3222,0.0697"/><polyline points="-0.3360,0.0015
-0.3222,0.0015"/><polyline points="-0.3360,-0.0666
-0.3222,-0.0666"/><polyline points="-0.3360,-0.1348
-0.3222,-0.1348"/><polyline points="-0.3360,-0.2030
-0.3222,-0.2030"/><polyline points="-0.3360,-0.2711
-0.3222,-0.2711"/><polyline points="-0.3360,-0.3393
-0.3222,-0.3393"/></g></g><g class="ticktext"><g stroke-width="0.0" stroke="none" fill="rgb(5%, 5%, 5%)" fill-opacity="1.0" font-size="0.0400" text-anchor="end"><text x="-0.3461" y="0.0742">-0.6</text><text x="-0.3461" y="0.0060">-0.4</text><text x="-0.3461" y="-0.0621">-0.2</text><text x="-0.3461" y="-0.1303"> 0.0</text><text x="-0.3461" y="-0.1985"> 0.2</text><text x="-0.3461" y="-0.2666"> 0.4</text><text x="-0.3461" y="-0.3348"> 0.6</text></g></g></g></g><g class="title"><g stroke-width="0.0" stroke="none" fill="rgb(5%, 5%, 5%)" fill-opacity="1.0" font-size="0.12" text-anchor="middle"><text x="-0.0701" y="-0.3789">Copied: SATLIB/uf100-430/uf100-0250/cnf</text></g></g><g class="legend"><g class="padding"></g><g class="padding"></g><g class="frame"><g stroke-width="0.0004" stroke="rgb(5%, 5%, 5%)" stroke-opacity="1.0" fill="rgb(5%, 5%, 5%)" fill-opacity="0"><rect width="0.3970" height="0.3507" x="0.3183" y="-0.1057"/></g></g><g class="legendContent"><g stroke-width="0" stroke="rgb(2%, 29%, 48%)" stroke-opacity="1.0" fill="rgb(50%, 35%, 74%)" fill-opacity="1.0"><rect width="0.0242" height="0.0215" x="0.6830" y="0.2164"/></g><g stroke-width="0.0" stroke="none" fill="rgb(5%, 5%, 5%)" fill-opacity="1.0" font-size="0.0129" text-anchor="start"><text x="0.3263" y="0.2300">CDCL (α = 0.95, mVISDS, LubyRestart(100, 2))</text></g><g stroke-width="0" stroke="rgb(2%, 29%, 48%)" stroke-opacity="1.0" fill="rgb(0%, 46%, 80%)" fill-opacity="1.0"><rect width="0.0242" height="0.0215" x="0.6830" y="0.1878"/></g><g stroke-width="0.0" stroke="none" fill="rgb(5%, 5%, 5%)" fill-opacity="1.0" font-size="0.0129" text-anchor="start"><text x="0.3263" y="0.2014">CDCL (α = 0.95, mVISDS, ExpRestart(100, 2))</text></g><g stroke-width="0" stroke="rgb(2%, 29%, 48%)" stroke-opacity="1.0" fill="rgb(100%, 34%, 60%)" fill-opacity="1.0"><rect width="0.0242" height="0.0215" x="0.6830" y="0.1592"/></g><g stroke-width="0.0" stroke="none" fill="rgb(5%, 5%, 5%)" fill-opacity="1.0" font-size="0.0129" text-anchor="start"><text x="0.3263" y="0.1727">CDCL (α = 0.95, mVISDS)</text></g><g stroke-width="0" stroke="rgb(2%, 29%, 48%)" stroke-opacity="1.0" fill="rgb(33%, 71%, 69%)" fill-opacity="1.0"><rect width="0.0242" height="0.0215" x="0.6830" y="0.1305"/></g><g stroke-width="0.0" stroke="none" fill="rgb(5%, 5%, 5%)" fill-opacity="1.0" font-size="0.0129" text-anchor="start"><text x="0.3263" y="0.1441">CDCL (α = 0.95)</text></g><g stroke-width="0" stroke="rgb(2%, 29%, 48%)" stroke-opacity="1.0" fill="rgb(39%, 19%, 0%)" fill-opacity="1.0"><rect width="0.0242" height="0.0215" x="0.6830" y="0.1019"/></g><g stroke-width="0.0" stroke="none" fill="rgb(5%, 5%, 5%)" fill-opacity="1.0" font-size="0.0129" text-anchor="start"><text x="0.3263" y="0.1155">CDCL (α = 0.75, mVISDS, LubyRestart(100, 2))</text></g><g stroke-width="0" stroke="rgb(2%, 29%, 48%)" stroke-opacity="1.0" fill="rgb(13%, 47%, 60%)" fill-opacity="1.0"><rect width="0.0242" height="0.0215" x="0.6830" y="0.0733"/></g><g stroke-width="0.0" stroke="none" fill="rgb(5%, 5%, 5%)" fill-opacity="1.0" font-size="0.0129" text-anchor="start"><text x="0.3263" y="0.0869">CDCL (α = 0.75, mVISDS, ExpRestart(100, 2))</text></g><g stroke-width="0" stroke="rgb(2%, 29%, 48%)" stroke-opacity="1.0" fill="rgb(12%, 10%, 48%)" fill-opacity="1.0"><rect width="0.0242" height="0.0215" x="0.6830" y="0.0446"/></g><g stroke-width="0.0" stroke="none" fill="rgb(5%, 5%, 5%)" fill-opacity="1.0" font-size="0.0129" text-anchor="start"><text x="0.3263" y="0.0582">CDCL (α = 0.75, mVISDS)</text></g><g stroke-width="0" stroke="rgb(2%, 29%, 48%)" stroke-opacity="1.0" fill="rgb(16%, 49%, 26%)" fill-opacity="1.0"><rect width="0.0242" height="0.0215" x="0.6830" y="0.0160"/></g><g stroke-width="0.0" stroke="none" fill="rgb(5%, 5%, 5%)" fill-opacity="1.0" font-size="0.0129" text-anchor="start"><text x="0.3263" y="0.0296">CDCL (α = 0.75)</text></g><g stroke-width="0" stroke="rgb(2%, 29%, 48%)" stroke-opacity="1.0" fill="rgb(40%, 59%, 56%)" fill-opacity="1.0"><rect width="0.0242" height="0.0215" x="0.6830" y="-0.0126"/></g><g stroke-width="0.0" stroke="none" fill="rgb(5%, 5%, 5%)" fill-opacity="1.0" font-size="0.0129" text-anchor="start"><text x="0.3263" y="0.0010">CDCL (adaptive, mVSIDS)</text></g><g stroke-width="0" stroke="rgb(2%, 29%, 48%)" stroke-opacity="1.0" fill="rgb(14%, 22%, 0%)" fill-opacity="1.0"><rect width="0.0242" height="0.0215" x="0.6830" y="-0.0412"/></g><g stroke-width="0.0" stroke="none" fill="rgb(5%, 5%, 5%)" fill-opacity="1.0" font-size="0.0129" text-anchor="start"><text x="0.3263" y="-0.0276">CDCL (adaptive, mVISDS, LubyRestart(100, 2))</text></g><g stroke-width="0" stroke="rgb(2%, 29%, 48%)" stroke-opacity="1.0" fill="rgb(37%, 26%, 0%)" fill-opacity="1.0"><rect width="0.0242" height="0.0215" x="0.6830" y="-0.0699"/></g><g stroke-width="0.0" stroke="none" fill="rgb(5%, 5%, 5%)" fill-opacity="1.0" font-size="0.0129" text-anchor="start"><text x="0.3263" y="-0.0563">CDCL (adaptive, mVISDS, ExpRestart(100, 2))</text></g><g stroke-width="0" stroke="rgb(2%, 29%, 48%)" stroke-opacity="1.0" fill="rgb(0%, 39%, 55%)" fill-opacity="1.0"><rect width="0.0242" height="0.0215" x="0.6830" y="-0.0985"/></g><g stroke-width="0.0" stroke="none" fill="rgb(5%, 5%, 5%)" fill-opacity="1.0" font-size="0.0129" text-anchor="start"><text x="0.3263" y="-0.0849">CDCL (adaptive)</text></g></g></g><g class="frame"><g stroke-width="0" stroke="rgb(0%, 0%, 0%)" stroke-opacity="0" fill="rgb(100%, 100%, 100%)" fill-opacity="0.02"><rect width="1.6180" height="1.0" x="-0.8090" y="-0.5"/></g></g><g class="title"><g stroke-width="0.0" stroke="none" fill="rgb(5%, 5%, 5%)" fill-opacity="1.0" font-size="0.0600" text-anchor="middle"><text x="-0.7436" y="0" transform="rotate(-90.0, -0.7436, 0)">Copied [MiB]</text></g></g></g></svg>