<svg xmlns="http://www.w3.org/2000/svg" xmlns:xlink="http://www.w3.org/1999/xlink" width="470" height="300" viewBox="-0.8090 -0.5 1.6180 1.0306"><style>svg {
  color-scheme: light dark;
}
{
  .canvas g, .title g, .axisbar g, .ticktext g, .tickglyph g, .ticklines g, .legendContent g text {
    fill: rgb(5%, 5%, 5%);
  }
  .ticklines g, .tickglyph g, .legendBorder g {
    stroke: rgb(5%, 5%, 5%);
  }
  .legendBorder g {
    fill: rgb(94%, 94%, 94%);
  }
}
@media (prefers-color-scheme:dark) {
  .canvas g, .title g, .axisbar g, .ticktext g, .tickglyph g, .ticklines g, .legendContent g text {
    fill: rgb(94%, 94%, 94%);
  }
  .ticklines g, .tickglyph g, .legendBorder g {
    stroke: rgb(94%, 94%, 94%);
  }
  .legendBorder g {
    fill: rgb(5%, 5%, 5%);
  }
}</style><g class="chart"><g class="barchart"><g stroke-width="0" stroke="rgb(2%, 29%, 48%)" stroke-opacity="1.0" fill="rgb(0%, 30%, 12%)" fill-opacity="1.0"><rect width="0.0268" height="0.2221" x="-0.4293" y="-0.1069"/></g><g stroke-width="0.0010" stroke="rgb(0%, 30%, 12%)" stroke-opacity="1.0" fill="rgb(0%, 30%, 12%)" fill-opacity="0.25"><rect width="0.0268" height="0.2664" x="-0.4025" y="-0.1512"/></g><g stroke-width="0" stroke="rgb(2%, 29%, 48%)" stroke-opacity="1.0" fill="rgb(0%, 25%, 37%)" fill-opacity="1.0"><rect width="0.0268" height="0.0699" x="-0.3757" y="0.0452"/></g><g stroke-width="0.0010" stroke="rgb(0%, 25%, 37%)" stroke-opacity="1.0" fill="rgb(0%, 25%, 37%)" fill-opacity="0.25"><rect width="0.0268" height="0.0822" x="-0.3489" y="0.0330"/></g><g stroke-width="0" stroke="rgb(2%, 29%, 48%)" stroke-opacity="1.0" fill="rgb(26%, 54%, 57%)" fill-opacity="1.0"><rect width="0.0268" height="0.0709" x="-0.3221" y="0.0443"/></g><g stroke-width="0.0010" stroke="rgb(26%, 54%, 57%)" stroke-opacity="1.0" fill="rgb(26%, 54%, 57%)" fill-opacity="0.25"><rect width="0.0268" height="0.0813" x="-0.2953" y="0.0339"/></g><g stroke-width="0" stroke="rgb(2%, 29%, 48%)" stroke-opacity="1.0" fill="rgb(1%, 28%, 43%)" fill-opacity="1.0"><rect width="0.0268" height="0.0694" x="-0.2684" y="0.0457"/></g><g stroke-width="0.0010" stroke="rgb(1%, 28%, 43%)" stroke-opacity="1.0" fill="rgb(1%, 28%, 43%)" fill-opacity="0.25"><rect width="0.0268" height="0.0839" x="-0.2416" y="0.0313"/></g><g stroke-width="0" stroke="rgb(2%, 29%, 48%)" stroke-opacity="1.0" fill="rgb(0%, 72%, 98%)" fill-opacity="1.0"><rect width="0.0268" height="0.2446" x="-0.2148" y="-0.1294"/></g><g stroke-width="0.0010" stroke="rgb(0%, 72%, 98%)" stroke-opacity="1.0" fill="rgb(0%, 72%, 98%)" fill-opacity="0.25"><rect width="0.0268" height="0.3136" x="-0.1880" y="-0.1985"/></g><g stroke-width="0" stroke="rgb(2%, 29%, 48%)" stroke-opacity="1.0" fill="rgb(90%, 37%, 58%)" fill-opacity="1.0"><rect width="0.0268" height="0.1180" x="-0.1612" y="-0.0028"/></g><g stroke-width="0.0010" stroke="rgb(90%, 37%, 58%)" stroke-opacity="1.0" fill="rgb(90%, 37%, 58%)" fill-opacity="0.25"><rect width="0.0268" height="0.1455" x="-0.1344" y="-0.0304"/></g><g stroke-width="0" stroke="rgb(2%, 29%, 48%)" stroke-opacity="1.0" fill="rgb(38%, 23%, 0%)" fill-opacity="1.0"><rect width="0.0268" height="0.1065" x="-0.1076" y="0.0087"/></g><g stroke-width="0.0010" stroke="rgb(38%, 23%, 0%)" stroke-opacity="1.0" fill="rgb(38%, 23%, 0%)" fill-opacity="0.25"><rect width="0.0268" height="0.1433" x="-0.0807" y="-0.0281"/></g><g stroke-width="0" stroke="rgb(2%, 29%, 48%)" stroke-opacity="1.0" fill="rgb(91%, 19%, 0%)" fill-opacity="1.0"><rect width="0.0268" height="0.1103" x="-0.0539" y="0.0048"/></g><g stroke-width="0.0010" stroke="rgb(91%, 19%, 0%)" stroke-opacity="1.0" fill="rgb(91%, 19%, 0%)" fill-opacity="0.25"><rect width="0.0268" height="0.1374" x="-0.0271" y="-0.0222"/></g><g stroke-width="0" stroke="rgb(2%, 29%, 48%)" stroke-opacity="1.0" fill="rgb(0%, 64%, 70%)" fill-opacity="1.0"><rect width="0.0268" height="0.2019" x="-0.0003" y="-0.0868"/></g><g stroke-width="0.0010" stroke="rgb(0%, 64%, 70%)" stroke-opacity="1.0" fill="rgb(0%, 64%, 70%)" fill-opacity="0.25"><rect width="0.0268" height="0.2619" x="0.0265" y="-0.1467"/></g><g stroke-width="0" stroke="rgb(2%, 29%, 48%)" stroke-opacity="1.0" fill="rgb(91%, 47%, 0%)" fill-opacity="1.0"><rect width="0.0268" height="0.0956" x="0.0533" y="0.0195"/></g><g stroke-width="0.0010" stroke="rgb(91%, 47%, 0%)" stroke-opacity="1.0" fill="rgb(91%, 47%, 0%)" fill-opacity="0.25"><rect width="0.0268" height="0.1176" x="0.0801" y="-0.0025"/></g><g stroke-width="0" stroke="rgb(2%, 29%, 48%)" stroke-opacity="1.0" fill="rgb(62%, 0%, 31%)" fill-opacity="1.0"><rect width="0.0268" height="0.1136" x="0.1070" y="0.0016"/></g><g stroke-width="0.0010" stroke="rgb(62%, 0%, 31%)" stroke-opacity="1.0" fill="rgb(62%, 0%, 31%)" fill-opacity="0.25"><rect width="0.0268" height="0.1380" x="0.1338" y="-0.0228"/></g><g stroke-width="0" stroke="rgb(2%, 29%, 48%)" stroke-opacity="1.0" fill="rgb(17%, 40%, 67%)" fill-opacity="1.0"><rect width="0.0268" height="0.1158" x="0.1606" y="-0.0006"/></g><g stroke-width="0.0010" stroke="rgb(17%, 40%, 67%)" stroke-opacity="1.0" fill="rgb(17%, 40%, 67%)" fill-opacity="0.25"><rect width="0.0268" height="0.1437" x="0.1874" y="-0.0285"/></g></g><g class="errors"><g stroke-width="0.0015" stroke="rgb(5%, 5%, 5%)" stroke-opacity="1.0" fill="none"><polyline points="-0.4186,-0.0992 -0.4132,-0.0992"/><polyline points="-0.4159,-0.0992 -0.4159,-0.1147"/><polyline points="-0.4186,-0.1147 -0.4132,-0.1147"/></g><g stroke-width="0.0015" stroke="rgb(5%, 5%, 5%)" stroke-opacity="1.0" fill="none"><polyline points="-0.3918,-0.1407 -0.3864,-0.1407"/><polyline points="-0.3891,-0.1407 -0.3891,-0.1618"/><polyline points="-0.3918,-0.1618 -0.3864,-0.1618"/></g><g stroke-width="0.0015" stroke="rgb(5%, 5%, 5%)" stroke-opacity="1.0" fill="none"><polyline points="-0.3650,0.0466 -0.3596,0.0466"/><polyline points="-0.3623,0.0466 -0.3623,0.0439"/><polyline points="-0.3650,0.0439 -0.3596,0.0439"/></g><g stroke-width="0.0015" stroke="rgb(5%, 5%, 5%)" stroke-opacity="1.0" fill="none"><polyline points="-0.3382,0.0368 -0.3328,0.0368"/><polyline points="-0.3355,0.0368 -0.3355,0.0292"/><polyline points="-0.3382,0.0292 -0.3328,0.0292"/></g><g stroke-width="0.0015" stroke="rgb(5%, 5%, 5%)" stroke-opacity="1.0" fill="none"><polyline points="-0.3114,0.0451 -0.3060,0.0451"/><polyline points="-0.3087,0.0451 -0.3087,0.0434"/><polyline points="-0.3114,0.0434 -0.3060,0.0434"/></g><g stroke-width="0.0015" stroke="rgb(5%, 5%, 5%)" stroke-opacity="1.0" fill="none"><polyline points="-0.2845,0.0348 -0.2792,0.0348"/><polyline points="-0.2819,0.0348 -0.2819,0.0330"/><polyline points="-0.2845,0.0330 -0.2792,0.0330"/></g><g stroke-width="0.0015" stroke="rgb(5%, 5%, 5%)" stroke-opacity="1.0" fill="none"><polyline points="-0.2577,0.0479 -0.2524,0.0479"/><polyline points="-0.2550,0.0479 -0.2550,0.0436"/><polyline points="-0.2577,0.0436 -0.2524,0.0436"/></g><g stroke-width="0.0015" stroke="rgb(5%, 5%, 5%)" stroke-opacity="1.0" fill="none"><polyline points="-0.2309,0.0330 -0.2255,0.0330"/><polyline points="-0.2282,0.0330 -0.2282,0.0295"/><polyline points="-0.2309,0.0295 -0.2255,0.0295"/></g><g stroke-width="0.0015" stroke="rgb(5%, 5%, 5%)" stroke-opacity="1.0" fill="none"><polyline points="-0.2041,-0.1285 -0.1987,-0.1285"/><polyline points="-0.2014,-0.1285 -0.2014,-0.1304"/><polyline points="-0.2041,-0.1304 -0.1987,-0.1304"/></g><g stroke-width="0.0015" stroke="rgb(5%, 5%, 5%)" stroke-opacity="1.0" fill="none"><polyline points="-0.1773,-0.1896 -0.1719,-0.1896"/><polyline points="-0.1746,-0.1896 -0.1746,-0.2073"/><polyline points="-0.1773,-0.2073 -0.1719,-0.2073"/></g><g stroke-width="0.0015" stroke="rgb(5%, 5%, 5%)" stroke-opacity="1.0" fill="none"><polyline points="-0.1505,0.0028 -0.1451,0.0028"/><polyline points="-0.1478,0.0028 -0.1478,-0.0084"/><polyline points="-0.1505,-0.0084 -0.1451,-0.0084"/></g><g stroke-width="0.0015" stroke="rgb(5%, 5%, 5%)" stroke-opacity="1.0" fill="none"><polyline points="-0.1236,-0.0285 -0.1183,-0.0285"/><polyline points="-0.1210,-0.0285 -0.1210,-0.0322"/><polyline points="-0.1236,-0.0322 -0.1183,-0.0322"/></g><g stroke-width="0.0015" stroke="rgb(5%, 5%, 5%)" stroke-opacity="1.0" fill="none"><polyline points="-0.0968,0.0112 -0.0915,0.0112"/><polyline points="-0.0942,0.0112 -0.0942,0.0062"/><polyline points="-0.0968,0.0062 -0.0915,0.0062"/></g><g stroke-width="0.0015" stroke="rgb(5%, 5%, 5%)" stroke-opacity="1.0" fill="none"><polyline points="-0.0700,-0.0257 -0.0647,-0.0257"/><polyline points="-0.0673,-0.0257 -0.0673,-0.0304"/><polyline points="-0.0700,-0.0304 -0.0647,-0.0304"/></g><g stroke-width="0.0015" stroke="rgb(5%, 5%, 5%)" stroke-opacity="1.0" fill="none"><polyline points="-0.0432,0.0086 -0.0378,0.0086"/><polyline points="-0.0405,0.0086 -0.0405,0.0011"/><polyline points="-0.0432,0.0011 -0.0378,0.0011"/></g><g stroke-width="0.0015" stroke="rgb(5%, 5%, 5%)" stroke-opacity="1.0" fill="none"><polyline points="-0.0164,-0.0197 -0.0110,-0.0197"/><polyline points="-0.0137,-0.0197 -0.0137,-0.0247"/><polyline points="-0.0164,-0.0247 -0.0110,-0.0247"/></g><g stroke-width="0.0015" stroke="rgb(5%, 5%, 5%)" stroke-opacity="1.0" fill="none"><polyline points="0.0104,-0.0839 0.0158,-0.0839"/><polyline points="0.0131,-0.0839 0.0131,-0.0896"/><polyline points="0.0104,-0.0896 0.0158,-0.0896"/></g><g stroke-width="0.0015" stroke="rgb(5%, 5%, 5%)" stroke-opacity="1.0" fill="none"><polyline points="0.0372,-0.1434 0.0426,-0.1434"/><polyline points="0.0399,-0.1434 0.0399,-0.1500"/><polyline points="0.0372,-0.1500 0.0426,-0.1500"/></g><g stroke-width="0.0015" stroke="rgb(5%, 5%, 5%)" stroke-opacity="1.0" fill="none"><polyline points="0.0641,0.0215 0.0694,0.0215"/><polyline points="0.0667,0.0215 0.0667,0.0175"/><polyline points="0.0641,0.0175 0.0694,0.0175"/></g><g stroke-width="0.0015" stroke="rgb(5%, 5%, 5%)" stroke-opacity="1.0" fill="none"><polyline points="0.0909,0.0001 0.0962,0.0001"/><polyline points="0.0935,0.0001 0.0935,-0.0050"/><polyline points="0.0909,-0.0050 0.0962,-0.0050"/></g><g stroke-width="0.0015" stroke="rgb(5%, 5%, 5%)" stroke-opacity="1.0" fill="none"><polyline points="0.1177,0.0032 0.1230,0.0032"/><polyline points="0.1204,0.0032 0.1204,-0.0001"/><polyline points="0.1177,-0.0001 0.1230,-0.0001"/></g><g stroke-width="0.0015" stroke="rgb(5%, 5%, 5%)" stroke-opacity="1.0" fill="none"><polyline points="0.1445,-0.0219 0.1499,-0.0219"/><polyline points="0.1472,-0.0219 0.1472,-0.0238"/><polyline points="0.1445,-0.0238 0.1499,-0.0238"/></g><g stroke-width="0.0015" stroke="rgb(5%, 5%, 5%)" stroke-opacity="1.0" fill="none"><polyline points="0.1713,0.0035 0.1767,0.0035"/><polyline points="0.1740,0.0035 0.1740,-0.0048"/><polyline points="0.1713,-0.0048 0.1767,-0.0048"/></g><g stroke-width="0.0015" stroke="rgb(5%, 5%, 5%)" stroke-opacity="1.0" fill="none"><polyline points="0.1981,-0.0259 0.2035,-0.0259"/><polyline points="0.2008,-0.0259 0.2008,-0.0312"/><polyline points="0.1981,-0.0312 0.2035,-0.0312"/></g></g></g><g class="hud"><g class="axis"><g class="ticks"><g class="tickglyph"><g stroke-width="0.0040" stroke="rgb(5%, 5%, 5%)" stroke-opacity="0.4" fill="rgb(5%, 5%, 5%)" fill-opacity="0.4"><g transform="rotate(-90.0, -0.4783, 0.1152)"><polyline points="-0.4783,0.1302
-0.4783,0.1002"/></g><g transform="rotate(-90.0, -0.4783, 0.0601)"><polyline points="-0.4783,0.0751
-0.4783,0.0451"/></g><g transform="rotate(-90.0, -0.4783, 0.0049)"><polyline points="-0.4783,0.0199
-0.4783,-0.0101"/></g><g transform="rotate(-90.0, -0.4783, -0.0502)"><polyline points="-0.4783,-0.0352
-0.4783,-0.0652"/></g><g transform="rotate(-90.0, -0.4783, -0.1053)"><polyline points="-0.4783,-0.0903
-0.4783,-0.1203"/></g><g transform="rotate(-90.0, -0.4783, -0.1604)"><polyline points="-0.4783,-0.1454
-0.4783,-0.1754"/></g><g transform="rotate(-90.0, -0.4783, -0.2155)"><polyline points="-0.4783,-0.2005
-0.4783,-0.2305"/></g></g></g><g class="ticktext"><g stroke-width="0.0" stroke="none" fill="rgb(5%, 5%, 5%)" fill-opacity="1.0" font-size="0.0221" text-anchor="end"><text x="-0.4943" y="0.1197">    0</text><text x="-0.4943" y="0.0646">  200</text><text x="-0.4943" y="0.0095">  400</text><text x="-0.4943" y="-0.0456">  600</text><text x="-0.4943" y="-0.1007">  800</text><text x="-0.4943" y="-0.1558">1,000</text><text x="-0.4943" y="-0.2110">1,200</text></g></g><g class="ticklines"><g stroke-width="0.0050" stroke="rgb(5%, 5%, 5%)" stroke-opacity="0.05" fill="none"><polyline points="-0.4651,0.1152 0.2500,0.1152"/><polyline points="-0.4651,0.0601 0.2500,0.0601"/><polyline points="-0.4651,0.0049 0.2500,0.0049"/><polyline points="-0.4651,-0.0502 0.2500,-0.0502"/><polyline points="-0.4651,-0.1053 0.2500,-0.1053"/><polyline points="-0.4651,-0.1604 0.2500,-0.1604"/><polyline points="-0.4651,-0.2155 0.2500,-0.2155"/></g></g></g><g class="axisbar"><g stroke-width="0" stroke="rgb(0%, 0%, 0%)" stroke-opacity="0" fill="rgb(5%, 5%, 5%)" fill-opacity="0.4"><rect width="0.0018" height="0.3320" x="-0.4713" y="-0.2162"/></g></g></g><g class="axis"><g class="ticks"><g class="tickglyph"><g stroke-width="0.0040" stroke="rgb(5%, 5%, 5%)" stroke-opacity="0.4" fill="rgb(5%, 5%, 5%)" fill-opacity="0.4"><polyline points="-0.4159,0.1403
-0.4159,0.1103"/><polyline points="-0.3891,0.1403
-0.3891,0.1103"/><polyline points="-0.3623,0.1403
-0.3623,0.1103"/><polyline points="-0.3355,0.1403
-0.3355,0.1103"/><polyline points="-0.3087,0.1403
-0.3087,0.1103"/><polyline points="-0.2819,0.1403
-0.2819,0.1103"/><polyline points="-0.2550,0.1403
-0.2550,0.1103"/><polyline points="-0.2282,0.1403
-0.2282,0.1103"/><polyline points="-0.2014,0.1403
-0.2014,0.1103"/><polyline points="-0.1746,0.1403
-0.1746,0.1103"/><polyline points="-0.1478,0.1403
-0.1478,0.1103"/><polyline points="-0.1210,0.1403
-0.1210,0.1103"/><polyline points="-0.0942,0.1403
-0.0942,0.1103"/><polyline points="-0.0673,0.1403
-0.0673,0.1103"/><polyline points="-0.0405,0.1403
-0.0405,0.1103"/><polyline points="-0.0137,0.1403
-0.0137,0.1103"/><polyline points="0.0131,0.1403
0.0131,0.1103"/><polyline points="0.0399,0.1403
0.0399,0.1103"/><polyline points="0.0667,0.1403
0.0667,0.1103"/><polyline points="0.0935,0.1403
0.0935,0.1103"/><polyline points="0.1204,0.1403
0.1204,0.1103"/><polyline points="0.1472,0.1403
0.1472,0.1103"/><polyline points="0.1740,0.1403
0.1740,0.1103"/><polyline points="0.2008,0.1403
0.2008,0.1103"/></g></g><g class="ticktext"><g stroke-width="0.0" stroke="none" fill="rgb(5%, 5%, 5%)" fill-opacity="1.0" font-size="0.0221" text-anchor="end"><text x="-0.4159" y="0.1463" transform="rotate(-45.0, -0.4159, 0.1463)">CDCL (adaptive)</text><text x="-0.3891" y="0.1463" transform="rotate(-45.0, -0.3891, 0.1463)">CDCL (adaptive), Baseline</text><text x="-0.3623" y="0.1463" transform="rotate(-45.0, -0.3623, 0.1463)">CDCL (adaptive, mVISDS, ExpRestart(100, 2))</text><text x="-0.3355" y="0.1463" transform="rotate(-45.0, -0.3355, 0.1463)">CDCL (adaptive, mVISDS, ExpRestart(100, 2)), Baseline</text><text x="-0.3087" y="0.1463" transform="rotate(-45.0, -0.3087, 0.1463)">CDCL (adaptive, mVISDS, LubyRestart(100, 2))</text><text x="-0.2819" y="0.1463" transform="rotate(-45.0, -0.2819, 0.1463)">CDCL (adaptive, mVISDS, LubyRestart(100, 2)), Baseline</text><text x="-0.2550" y="0.1463" transform="rotate(-45.0, -0.2550, 0.1463)">CDCL (adaptive, mVSIDS)</text><text x="-0.2282" y="0.1463" transform="rotate(-45.0, -0.2282, 0.1463)">CDCL (adaptive, mVSIDS), Baseline</text><text x="-0.2014" y="0.1463" transform="rotate(-45.0, -0.2014, 0.1463)">CDCL (α = 0.75)</text><text x="-0.1746" y="0.1463" transform="rotate(-45.0, -0.1746, 0.1463)">CDCL (α = 0.75), Baseline</text><text x="-0.1478" y="0.1463" transform="rotate(-45.0, -0.1478, 0.1463)">CDCL (α = 0.75, mVISDS)</text><text x="-0.1210" y="0.1463" transform="rotate(-45.0, -0.1210, 0.1463)">CDCL (α = 0.75, mVISDS), Baseline</text><text x="-0.0942" y="0.1463" transform="rotate(-45.0, -0.0942, 0.1463)">CDCL (α = 0.75, mVISDS, ExpRestart(100, 2))</text><text x="-0.0673" y="0.1463" transform="rotate(-45.0, -0.0673, 0.1463)">CDCL (α = 0.75, mVISDS, ExpRestart(100, 2)), Baseline</text><text x="-0.0405" y="0.1463" transform="rotate(-45.0, -0.0405, 0.1463)">CDCL (α = 0.75, mVISDS, LubyRestart(100, 2))</text><text x="-0.0137" y="0.1463" transform="rotate(-45.0, -0.0137, 0.1463)">CDCL (α = 0.75, mVISDS, LubyRestart(100, 2)), Baseline</text><text x="0.0131" y="0.1463" transform="rotate(-45.0, 0.0131, 0.1463)">CDCL (α = 0.95)</text><text x="0.0399" y="0.1463" transform="rotate(-45.0, 0.0399, 0.1463)">CDCL (α = 0.95), Baseline</text><text x="0.0667" y="0.1463" transform="rotate(-45.0, 0.0667, 0.1463)">CDCL (α = 0.95, mVISDS)</text><text x="0.0935" y="0.1463" transform="rotate(-45.0, 0.0935, 0.1463)">CDCL (α = 0.95, mVISDS), Baseline</text><text x="0.1204" y="0.1463" transform="rotate(-45.0, 0.1204, 0.1463)">CDCL (α = 0.95, mVISDS, ExpRestart(100, 2))</text><text x="0.1472" y="0.1463" transform="rotate(-45.0, 0.1472, 0.1463)">CDCL (α = 0.95, mVISDS, ExpRestart(100, 2)), Baseline</text><text x="0.1740" y="0.1463" transform="rotate(-45.0, 0.1740, 0.1463)">CDCL (α = 0.95, mVISDS, LubyRestart(100, 2))</text><text x="0.2008" y="0.1463" transform="rotate(-45.0, 0.2008, 0.1463)">CDCL (α = 0.95, mVISDS, LubyRestart(100, 2)), Baseline</text></g></g></g><g class="axisbar"><g stroke-width="0" stroke="rgb(0%, 0%, 0%)" stroke-opacity="0" fill="rgb(5%, 5%, 5%)" fill-opacity="0.4"><rect width="0.7168" height="0.0013" x="-0.4660" y="0.1186"/></g></g></g><g class="title"><g stroke-width="0.0" stroke="none" fill="rgb(5%, 5%, 5%)" fill-opacity="1.0" font-size="0.0530" text-anchor="middle"><text x="-0.2348" y="-0.2493">Time: SATLIB/flat200-479/flat200-1/cnf</text></g></g><g class="legend"><g class="legendBorder"><g stroke-width="0.0017" stroke="rgb(5%, 5%, 5%)" stroke-opacity="1.0" fill="rgb(5%, 5%, 5%)" fill-opacity="0"><rect width="0.3924" height="0.5624" x="0.3266" y="-0.4327"/></g></g><g class="legendContent"><g stroke-width="0.0" stroke="none" fill="rgb(5%, 5%, 5%)" fill-opacity="1.0" font-size="0.0139" text-anchor="start"><text x="0.3344" y="0.1178">CDCL (α = 0.95, mVISDS, LubyRestart(100, 2)), Baseline</text></g><g stroke-width="0.0002" stroke="rgb(17%, 40%, 67%)" stroke-opacity="1.0" fill="rgb(17%, 40%, 67%)" fill-opacity="0.25"><rect width="0.0232" height="0.0174" x="0.6881" y="0.1065"/></g><g stroke-width="0.0" stroke="none" fill="rgb(5%, 5%, 5%)" fill-opacity="1.0" font-size="0.0139" text-anchor="start"><text x="0.3344" y="0.0946">CDCL (α = 0.95, mVISDS, LubyRestart(100, 2))</text></g><g stroke-width="0" stroke="rgb(2%, 29%, 48%)" stroke-opacity="1.0" fill="rgb(17%, 40%, 67%)" fill-opacity="1.0"><rect width="0.0232" height="0.0174" x="0.6881" y="0.0833"/></g><g stroke-width="0.0" stroke="none" fill="rgb(5%, 5%, 5%)" fill-opacity="1.0" font-size="0.0139" text-anchor="start"><text x="0.3344" y="0.0714">CDCL (α = 0.95, mVISDS, ExpRestart(100, 2)), Baseline</text></g><g stroke-width="0.0002" stroke="rgb(62%, 0%, 31%)" stroke-opacity="1.0" fill="rgb(62%, 0%, 31%)" fill-opacity="0.25"><rect width="0.0232" height="0.0174" x="0.6881" y="0.0601"/></g><g stroke-width="0.0" stroke="none" fill="rgb(5%, 5%, 5%)" fill-opacity="1.0" font-size="0.0139" text-anchor="start"><text x="0.3344" y="0.0482">CDCL (α = 0.95, mVISDS, ExpRestart(100, 2))</text></g><g stroke-width="0" stroke="rgb(2%, 29%, 48%)" stroke-opacity="1.0" fill="rgb(62%, 0%, 31%)" fill-opacity="1.0"><rect width="0.0232" height="0.0174" x="0.6881" y="0.0369"/></g><g stroke-width="0.0" stroke="none" fill="rgb(5%, 5%, 5%)" fill-opacity="1.0" font-size="0.0139" text-anchor="start"><text x="0.3344" y="0.0250">CDCL (α = 0.95, mVISDS), Baseline</text></g><g stroke-width="0.0002" stroke="rgb(91%, 47%, 0%)" stroke-opacity="1.0" fill="rgb(91%, 47%, 0%)" fill-opacity="0.25"><rect width="0.0232" height="0.0174" x="0.6881" y="0.0137"/></g><g stroke-width="0.0" stroke="none" fill="rgb(5%, 5%, 5%)" fill-opacity="1.0" font-size="0.0139" text-anchor="start"><text x="0.3344" y="0.0018">CDCL (α = 0.95, mVISDS)</text></g><g stroke-width="0" stroke="rgb(2%, 29%, 48%)" stroke-opacity="1.0" fill="rgb(91%, 47%, 0%)" fill-opacity="1.0"><rect width="0.0232" height="0.0174" x="0.6881" y="-0.0095"/></g><g stroke-width="0.0" stroke="none" fill="rgb(5%, 5%, 5%)" fill-opacity="1.0" font-size="0.0139" text-anchor="start"><text x="0.3344" y="-0.0214">CDCL (α = 0.95), Baseline</text></g><g stroke-width="0.0002" stroke="rgb(0%, 64%, 70%)" stroke-opacity="1.0" fill="rgb(0%, 64%, 70%)" fill-opacity="0.25"><rect width="0.0232" height="0.0174" x="0.6881" y="-0.0327"/></g><g stroke-width="0.0" stroke="none" fill="rgb(5%, 5%, 5%)" fill-opacity="1.0" font-size="0.0139" text-anchor="start"><text x="0.3344" y="-0.0446">CDCL (α = 0.95)</text></g><g stroke-width="0" stroke="rgb(2%, 29%, 48%)" stroke-opacity="1.0" fill="rgb(0%, 64%, 70%)" fill-opacity="1.0"><rect width="0.0232" height="0.0174" x="0.6881" y="-0.0559"/></g><g stroke-width="0.0" stroke="none" fill="rgb(5%, 5%, 5%)" fill-opacity="1.0" font-size="0.0139" text-anchor="start"><text x="0.3344" y="-0.0678">CDCL (α = 0.75, mVISDS, LubyRestart(100, 2)), Baseline</text></g><g stroke-width="0.0002" stroke="rgb(91%, 19%, 0%)" stroke-opacity="1.0" fill="rgb(91%, 19%, 0%)" fill-opacity="0.25"><rect width="0.0232" height="0.0174" x="0.6881" y="-0.0790"/></g><g stroke-width="0.0" stroke="none" fill="rgb(5%, 5%, 5%)" fill-opacity="1.0" font-size="0.0139" text-anchor="start"><text x="0.3344" y="-0.0910">CDCL (α = 0.75, mVISDS, LubyRestart(100, 2))</text></g><g stroke-width="0" stroke="rgb(2%, 29%, 48%)" stroke-opacity="1.0" fill="rgb(91%, 19%, 0%)" fill-opacity="1.0"><rect width="0.0232" height="0.0174" x="0.6881" y="-0.1022"/></g><g stroke-width="0.0" stroke="none" fill="rgb(5%, 5%, 5%)" fill-opacity="1.0" font-size="0.0139" text-anchor="start"><text x="0.3344" y="-0.1141">CDCL (α = 0.75, mVISDS, ExpRestart(100, 2)), Baseline</text></g><g stroke-width="0.0002" stroke="rgb(38%, 23%, 0%)" stroke-opacity="1.0" fill="rgb(38%, 23%, 0%)" fill-opacity="0.25"><rect width="0.0232" height="0.0174" x="0.6881" y="-0.1254"/></g><g stroke-width="0.0" stroke="none" fill="rgb(5%, 5%, 5%)" fill-opacity="1.0" font-size="0.0139" text-anchor="start"><text x="0.3344" y="-0.1373">CDCL (α = 0.75, mVISDS, ExpRestart(100, 2))</text></g><g stroke-width="0" stroke="rgb(2%, 29%, 48%)" stroke-opacity="1.0" fill="rgb(38%, 23%, 0%)" fill-opacity="1.0"><rect width="0.0232" height="0.0174" x="0.6881" y="-0.1486"/></g><g stroke-width="0.0" stroke="none" fill="rgb(5%, 5%, 5%)" fill-opacity="1.0" font-size="0.0139" text-anchor="start"><text x="0.3344" y="-0.1605">CDCL (α = 0.75, mVISDS), Baseline</text></g><g stroke-width="0.0002" stroke="rgb(90%, 37%, 58%)" stroke-opacity="1.0" fill="rgb(90%, 37%, 58%)" fill-opacity="0.25"><rect width="0.0232" height="0.0174" x="0.6881" y="-0.1718"/></g><g stroke-width="0.0" stroke="none" fill="rgb(5%, 5%, 5%)" fill-opacity="1.0" font-size="0.0139" text-anchor="start"><text x="0.3344" y="-0.1837">CDCL (α = 0.75, mVISDS)</text></g><g stroke-width="0" stroke="rgb(2%, 29%, 48%)" stroke-opacity="1.0" fill="rgb(90%, 37%, 58%)" fill-opacity="1.0"><rect width="0.0232" height="0.0174" x="0.6881" y="-0.1950"/></g><g stroke-width="0.0" stroke="none" fill="rgb(5%, 5%, 5%)" fill-opacity="1.0" font-size="0.0139" text-anchor="start"><text x="0.3344" y="-0.2069">CDCL (α = 0.75), Baseline</text></g><g stroke-width="0.0002" stroke="rgb(0%, 72%, 98%)" stroke-opacity="1.0" fill="rgb(0%, 72%, 98%)" fill-opacity="0.25"><rect width="0.0232" height="0.0174" x="0.6881" y="-0.2182"/></g><g stroke-width="0.0" stroke="none" fill="rgb(5%, 5%, 5%)" fill-opacity="1.0" font-size="0.0139" text-anchor="start"><text x="0.3344" y="-0.2301">CDCL (α = 0.75)</text></g><g stroke-width="0" stroke="rgb(2%, 29%, 48%)" stroke-opacity="1.0" fill="rgb(0%, 72%, 98%)" fill-opacity="1.0"><rect width="0.0232" height="0.0174" x="0.6881" y="-0.2414"/></g><g stroke-width="0.0" stroke="none" fill="rgb(5%, 5%, 5%)" fill-opacity="1.0" font-size="0.0139" text-anchor="start"><text x="0.3344" y="-0.2533">CDCL (adaptive, mVSIDS), Baseline</text></g><g stroke-width="0.0002" stroke="rgb(1%, 28%, 43%)" stroke-opacity="1.0" fill="rgb(1%, 28%, 43%)" fill-opacity="0.25"><rect width="0.0232" height="0.0174" x="0.6881" y="-0.2646"/></g><g stroke-width="0.0" stroke="none" fill="rgb(5%, 5%, 5%)" fill-opacity="1.0" font-size="0.0139" text-anchor="start"><text x="0.3344" y="-0.2765">CDCL (adaptive, mVSIDS)</text></g><g stroke-width="0" stroke="rgb(2%, 29%, 48%)" stroke-opacity="1.0" fill="rgb(1%, 28%, 43%)" fill-opacity="1.0"><rect width="0.0232" height="0.0174" x="0.6881" y="-0.2878"/></g><g stroke-width="0.0" stroke="none" fill="rgb(5%, 5%, 5%)" fill-opacity="1.0" font-size="0.0139" text-anchor="start"><text x="0.3344" y="-0.2997">CDCL (adaptive, mVISDS, LubyRestart(100, 2)), Baseline</text></g><g stroke-width="0.0002" stroke="rgb(26%, 54%, 57%)" stroke-opacity="1.0" fill="rgb(26%, 54%, 57%)" fill-opacity="0.25"><rect width="0.0232" height="0.0174" x="0.6881" y="-0.3109"/></g><g stroke-width="0.0" stroke="none" fill="rgb(5%, 5%, 5%)" fill-opacity="1.0" font-size="0.0139" text-anchor="start"><text x="0.3344" y="-0.3229">CDCL (adaptive, mVISDS, LubyRestart(100, 2))</text></g><g stroke-width="0" stroke="rgb(2%, 29%, 48%)" stroke-opacity="1.0" fill="rgb(26%, 54%, 57%)" fill-opacity="1.0"><rect width="0.0232" height="0.0174" x="0.6881" y="-0.3342"/></g><g stroke-width="0.0" stroke="none" fill="rgb(5%, 5%, 5%)" fill-opacity="1.0" font-size="0.0139" text-anchor="start"><text x="0.3344" y="-0.3460">CDCL (adaptive, mVISDS, ExpRestart(100, 2)), Baseline</text></g><g stroke-width="0.0002" stroke="rgb(0%, 25%, 37%)" stroke-opacity="1.0" fill="rgb(0%, 25%, 37%)" fill-opacity="0.25"><rect width="0.0232" height="0.0174" x="0.6881" y="-0.3573"/></g><g stroke-width="0.0" stroke="none" fill="rgb(5%, 5%, 5%)" fill-opacity="1.0" font-size="0.0139" text-anchor="start"><text x="0.3344" y="-0.3693">CDCL (adaptive, mVISDS, ExpRestart(100, 2))</text></g><g stroke-width="0" stroke="rgb(2%, 29%, 48%)" stroke-opacity="1.0" fill="rgb(0%, 25%, 37%)" fill-opacity="1.0"><rect width="0.0232" height="0.0174" x="0.6881" y="-0.3805"/></g><g stroke-width="0.0" stroke="none" fill="rgb(5%, 5%, 5%)" fill-opacity="1.0" font-size="0.0139" text-anchor="start"><text x="0.3344" y="-0.3924">CDCL (adaptive), Baseline</text></g><g stroke-width="0.0002" stroke="rgb(0%, 30%, 12%)" stroke-opacity="1.0" fill="rgb(0%, 30%, 12%)" fill-opacity="0.25"><rect width="0.0232" height="0.0174" x="0.6881" y="-0.4037"/></g><g stroke-width="0.0" stroke="none" fill="rgb(5%, 5%, 5%)" fill-opacity="1.0" font-size="0.0139" text-anchor="start"><text x="0.3344" y="-0.4156">CDCL (adaptive)</text></g><g stroke-width="0" stroke="rgb(2%, 29%, 48%)" stroke-opacity="1.0" fill="rgb(0%, 30%, 12%)" fill-opacity="1.0"><rect width="0.0232" height="0.0174" x="0.6881" y="-0.4269"/></g></g></g><g class="frame"><g stroke-width="0" stroke="rgb(0%, 0%, 0%)" stroke-opacity="0" fill="rgb(100%, 100%, 100%)" fill-opacity="0.02"><rect width="1.6180" height="1.0" x="-0.8090" y="-0.5"/></g></g><g class="title"><g stroke-width="0.0" stroke="none" fill="rgb(5%, 5%, 5%)" fill-opacity="1.0" font-size="0.0265" text-anchor="middle"><text x="-0.7463" y="0" transform="rotate(-90.0, -0.7463, 0)">Time [ms]</text></g></g></g></svg>