<svg xmlns="http://www.w3.org/2000/svg" xmlns:xlink="http://www.w3.org/1999/xlink" width="465" height="300" viewBox="-0.8090 -0.5 1.6180 1.0431"><style>svg {
  color-scheme: light dark;
}
{
  .canvas g, .title g, .axisbar g, .ticktext g, .tickglyph g, .ticklines g, .legendContent g text {
    fill: rgb(5%, 5%, 5%);
  }
  .ticklines g, .tickglyph g, .legendBorder g {
    stroke: rgb(5%, 5%, 5%);
  }
  .legendBorder g {
    fill: rgb(94%, 94%, 94%);
  }
}
@media (prefers-color-scheme:dark) {
  .canvas g, .title g, .axisbar g, .ticktext g, .tickglyph g, .ticklines g, .legendContent g text {
    fill: rgb(94%, 94%, 94%);
  }
  .ticklines g, .tickglyph g, .legendBorder g {
    stroke: rgb(94%, 94%, 94%);
  }
  .legendBorder g {
    fill: rgb(5%, 5%, 5%);
  }
}</style><g class="chart"><g class="barchart"><g stroke-width="0" stroke="rgb(2%, 29%, 48%)" stroke-opacity="1.0" fill="rgb(0%, 30%, 12%)" fill-opacity="1.0"><rect width="0.0338" height="0.0041" x="-0.5549" y="0.0823"/></g><g stroke-width="0.0010" stroke="rgb(0%, 30%, 12%)" stroke-opacity="1.0" fill="rgb(0%, 30%, 12%)" fill-opacity="0.25"><rect width="0.0338" height="0.0050" x="-0.5212" y="0.0814"/></g><g stroke-width="0" stroke="rgb(2%, 29%, 48%)" stroke-opacity="1.0" fill="rgb(1%, 28%, 43%)" fill-opacity="1.0"><rect width="0.0338" height="0.0449" x="-0.4874" y="0.0415"/></g><g stroke-width="0" stroke="rgb(2%, 29%, 48%)" stroke-opacity="1.0" fill="rgb(0%, 72%, 98%)" fill-opacity="1.0"><rect width="0.0338" height="0.0126" x="-0.4537" y="0.0738"/></g><g stroke-width="0.0010" stroke="rgb(0%, 72%, 98%)" stroke-opacity="1.0" fill="rgb(0%, 72%, 98%)" fill-opacity="0.25"><rect width="0.0338" height="0.0147" x="-0.4199" y="0.0717"/></g><g stroke-width="0" stroke="rgb(2%, 29%, 48%)" stroke-opacity="1.0" fill="rgb(90%, 37%, 58%)" fill-opacity="1.0"><rect width="0.0338" height="0.0111" x="-0.3862" y="0.0753"/></g><g stroke-width="0.0010" stroke="rgb(90%, 37%, 58%)" stroke-opacity="1.0" fill="rgb(90%, 37%, 58%)" fill-opacity="0.25"><rect width="0.0338" height="0.0131" x="-0.3524" y="0.0733"/></g><g stroke-width="0" stroke="rgb(2%, 29%, 48%)" stroke-opacity="1.0" fill="rgb(38%, 23%, 0%)" fill-opacity="1.0"><rect width="0.0338" height="0.0275" x="-0.3187" y="0.0588"/></g><g stroke-width="0.0010" stroke="rgb(38%, 23%, 0%)" stroke-opacity="1.0" fill="rgb(38%, 23%, 0%)" fill-opacity="0.25"><rect width="0.0338" height="0.0323" x="-0.2849" y="0.0541"/></g><g stroke-width="0" stroke="rgb(2%, 29%, 48%)" stroke-opacity="1.0" fill="rgb(91%, 19%, 0%)" fill-opacity="1.0"><rect width="0.0338" height="0.0273" x="-0.2511" y="0.0591"/></g><g stroke-width="0.0010" stroke="rgb(91%, 19%, 0%)" stroke-opacity="1.0" fill="rgb(91%, 19%, 0%)" fill-opacity="0.25"><rect width="0.0338" height="0.0316" x="-0.2174" y="0.0548"/></g><g stroke-width="0" stroke="rgb(2%, 29%, 48%)" stroke-opacity="1.0" fill="rgb(0%, 64%, 70%)" fill-opacity="1.0"><rect width="0.0338" height="0.0042" x="-0.1836" y="0.0822"/></g><g stroke-width="0.0010" stroke="rgb(0%, 64%, 70%)" stroke-opacity="1.0" fill="rgb(0%, 64%, 70%)" fill-opacity="0.25"><rect width="0.0338" height="0.0051" x="-0.1499" y="0.0813"/></g><g stroke-width="0" stroke="rgb(2%, 29%, 48%)" stroke-opacity="1.0" fill="rgb(91%, 47%, 0%)" fill-opacity="1.0"><rect width="0.0338" height="0.0169" x="-0.1161" y="0.0695"/></g><g stroke-width="0.0010" stroke="rgb(91%, 47%, 0%)" stroke-opacity="1.0" fill="rgb(91%, 47%, 0%)" fill-opacity="0.25"><rect width="0.0338" height="0.0191" x="-0.0824" y="0.0673"/></g><g stroke-width="0" stroke="rgb(2%, 29%, 48%)" stroke-opacity="1.0" fill="rgb(62%, 0%, 31%)" fill-opacity="1.0"><rect width="0.0338" height="0.0110" x="-0.0486" y="0.0754"/></g><g stroke-width="0.0010" stroke="rgb(62%, 0%, 31%)" stroke-opacity="1.0" fill="rgb(62%, 0%, 31%)" fill-opacity="0.25"><rect width="0.0338" height="0.0130" x="-0.0149" y="0.0734"/></g><g stroke-width="0" stroke="rgb(2%, 29%, 48%)" stroke-opacity="1.0" fill="rgb(17%, 40%, 67%)" fill-opacity="1.0"><rect width="0.0338" height="0.0109" x="0.0189" y="0.0755"/></g><g stroke-width="0.0010" stroke="rgb(17%, 40%, 67%)" stroke-opacity="1.0" fill="rgb(17%, 40%, 67%)" fill-opacity="0.25"><rect width="0.0338" height="0.0127" x="0.0526" y="0.0737"/></g><g stroke-width="0" stroke="rgb(2%, 29%, 48%)" stroke-opacity="1.0" fill="rgb(0%, 52%, 40%)" fill-opacity="1.0"><rect width="0.0338" height="0.3074" x="0.0864" y="-0.2210"/></g><g stroke-width="0.0010" stroke="rgb(0%, 52%, 40%)" stroke-opacity="1.0" fill="rgb(0%, 52%, 40%)" fill-opacity="0.25"><rect width="0.0338" height="0.3050" x="0.1201" y="-0.2186"/></g></g><g class="errors"></g></g><g class="hud"><g class="axis"><g class="ticks"><g class="tickglyph"><g stroke-width="0.0040" stroke="rgb(5%, 5%, 5%)" stroke-opacity="0.4" fill="rgb(5%, 5%, 5%)" fill-opacity="0.4"><g transform="rotate(-90.0, -0.6089, 0.0864)"><polyline points="-0.6089,0.1014
-0.6089,0.0714"/></g><g transform="rotate(-90.0, -0.6089, 0.0356)"><polyline points="-0.6089,0.0506
-0.6089,0.0206"/></g><g transform="rotate(-90.0, -0.6089, -0.0152)"><polyline points="-0.6089,-0.0002
-0.6089,-0.0302"/></g><g transform="rotate(-90.0, -0.6089, -0.0659)"><polyline points="-0.6089,-0.0509
-0.6089,-0.0809"/></g><g transform="rotate(-90.0, -0.6089, -0.1167)"><polyline points="-0.6089,-0.1017
-0.6089,-0.1317"/></g><g transform="rotate(-90.0, -0.6089, -0.1675)"><polyline points="-0.6089,-0.1525
-0.6089,-0.1825"/></g><g transform="rotate(-90.0, -0.6089, -0.2183)"><polyline points="-0.6089,-0.2033
-0.6089,-0.2333"/></g><g transform="rotate(-90.0, -0.6089, -0.2690)"><polyline points="-0.6089,-0.2540
-0.6089,-0.2840"/></g></g></g><g class="ticktext"><g stroke-width="0.0" stroke="none" fill="rgb(5%, 5%, 5%)" fill-opacity="1.0" font-size="0.0243" text-anchor="end"><text x="-0.6264" y="0.0913">0.0</text><text x="-0.6264" y="0.0405">0.2</text><text x="-0.6264" y="-0.0103">0.4</text><text x="-0.6264" y="-0.0610">0.6</text><text x="-0.6264" y="-0.1118">0.8</text><text x="-0.6264" y="-0.1626">1.0</text><text x="-0.6264" y="-0.2134">1.2</text><text x="-0.6264" y="-0.2641">1.4</text></g></g><g class="ticklines"><g stroke-width="0.0050" stroke="rgb(5%, 5%, 5%)" stroke-opacity="0.05" fill="none"><polyline points="-0.5943,0.0864 0.1933,0.0864"/><polyline points="-0.5943,0.0356 0.1933,0.0356"/><polyline points="-0.5943,-0.0152 0.1933,-0.0152"/><polyline points="-0.5943,-0.0659 0.1933,-0.0659"/><polyline points="-0.5943,-0.1167 0.1933,-0.1167"/><polyline points="-0.5943,-0.1675 0.1933,-0.1675"/><polyline points="-0.5943,-0.2183 0.1933,-0.2183"/><polyline points="-0.5943,-0.2690 0.1933,-0.2690"/></g></g></g><g class="axisbar"><g stroke-width="0" stroke="rgb(0%, 0%, 0%)" stroke-opacity="0" fill="rgb(5%, 5%, 5%)" fill-opacity="0.4"><rect width="0.0019" height="0.3568" x="-0.6011" y="-0.2697"/></g></g></g><g class="axis"><g class="ticks"><g class="tickglyph"><g stroke-width="0.0040" stroke="rgb(5%, 5%, 5%)" stroke-opacity="0.4" fill="rgb(5%, 5%, 5%)" fill-opacity="0.4"><polyline points="-0.5381,0.1122
-0.5381,0.0822"/><polyline points="-0.5043,0.1122
-0.5043,0.0822"/><polyline points="-0.4705,0.1122
-0.4705,0.0822"/><polyline points="-0.4368,0.1122
-0.4368,0.0822"/><polyline points="-0.4030,0.1122
-0.4030,0.0822"/><polyline points="-0.3693,0.1122
-0.3693,0.0822"/><polyline points="-0.3355,0.1122
-0.3355,0.0822"/><polyline points="-0.3018,0.1122
-0.3018,0.0822"/><polyline points="-0.2680,0.1122
-0.2680,0.0822"/><polyline points="-0.2343,0.1122
-0.2343,0.0822"/><polyline points="-0.2005,0.1122
-0.2005,0.0822"/><polyline points="-0.1668,0.1122
-0.1668,0.0822"/><polyline points="-0.1330,0.1122
-0.1330,0.0822"/><polyline points="-0.0993,0.1122
-0.0993,0.0822"/><polyline points="-0.0655,0.1122
-0.0655,0.0822"/><polyline points="-0.0318,0.1122
-0.0318,0.0822"/><polyline points="0.0020,0.1122
0.0020,0.0822"/><polyline points="0.0358,0.1122
0.0358,0.0822"/><polyline points="0.0695,0.1122
0.0695,0.0822"/><polyline points="0.1033,0.1122
0.1033,0.0822"/><polyline points="0.1370,0.1122
0.1370,0.0822"/></g></g><g class="ticktext"><g stroke-width="0.0" stroke="none" fill="rgb(5%, 5%, 5%)" fill-opacity="1.0" font-size="0.0243" text-anchor="end"><text x="-0.5381" y="0.1198" transform="rotate(-45.0, -0.5381, 0.1198)">CDCL (adaptive)</text><text x="-0.5043" y="0.1198" transform="rotate(-45.0, -0.5043, 0.1198)">CDCL (adaptive), Baseline</text><text x="-0.4705" y="0.1198" transform="rotate(-45.0, -0.4705, 0.1198)">CDCL (adaptive, mVSIDS)</text><text x="-0.4368" y="0.1198" transform="rotate(-45.0, -0.4368, 0.1198)">CDCL (α = 0.75)</text><text x="-0.4030" y="0.1198" transform="rotate(-45.0, -0.4030, 0.1198)">CDCL (α = 0.75), Baseline</text><text x="-0.3693" y="0.1198" transform="rotate(-45.0, -0.3693, 0.1198)">CDCL (α = 0.75, mVISDS)</text><text x="-0.3355" y="0.1198" transform="rotate(-45.0, -0.3355, 0.1198)">CDCL (α = 0.75, mVISDS), Baseline</text><text x="-0.3018" y="0.1198" transform="rotate(-45.0, -0.3018, 0.1198)">CDCL (α = 0.75, mVISDS, ExpRestart(100, 2))</text><text x="-0.2680" y="0.1198" transform="rotate(-45.0, -0.2680, 0.1198)">CDCL (α = 0.75, mVISDS, ExpRestart(100, 2)), Baseline</text><text x="-0.2343" y="0.1198" transform="rotate(-45.0, -0.2343, 0.1198)">CDCL (α = 0.75, mVISDS, LubyRestart(100, 2))</text><text x="-0.2005" y="0.1198" transform="rotate(-45.0, -0.2005, 0.1198)">CDCL (α = 0.75, mVISDS, LubyRestart(100, 2)), Baseline</text><text x="-0.1668" y="0.1198" transform="rotate(-45.0, -0.1668, 0.1198)">CDCL (α = 0.95)</text><text x="-0.1330" y="0.1198" transform="rotate(-45.0, -0.1330, 0.1198)">CDCL (α = 0.95), Baseline</text><text x="-0.0993" y="0.1198" transform="rotate(-45.0, -0.0993, 0.1198)">CDCL (α = 0.95, mVISDS)</text><text x="-0.0655" y="0.1198" transform="rotate(-45.0, -0.0655, 0.1198)">CDCL (α = 0.95, mVISDS), Baseline</text><text x="-0.0318" y="0.1198" transform="rotate(-45.0, -0.0318, 0.1198)">CDCL (α = 0.95, mVISDS, ExpRestart(100, 2))</text><text x="0.0020" y="0.1198" transform="rotate(-45.0, 0.0020, 0.1198)">CDCL (α = 0.95, mVISDS, ExpRestart(100, 2)), Baseline</text><text x="0.0358" y="0.1198" transform="rotate(-45.0, 0.0358, 0.1198)">CDCL (α = 0.95, mVISDS, LubyRestart(100, 2))</text><text x="0.0695" y="0.1198" transform="rotate(-45.0, 0.0695, 0.1198)">CDCL (α = 0.95, mVISDS, LubyRestart(100, 2)), Baseline</text><text x="0.1033" y="0.1198" transform="rotate(-45.0, 0.1033, 0.1198)">DPLL</text><text x="0.1370" y="0.1198" transform="rotate(-45.0, 0.1370, 0.1198)">DPLL, Baseline</text></g></g></g><g class="axisbar"><g stroke-width="0" stroke="rgb(0%, 0%, 0%)" stroke-opacity="0" fill="rgb(5%, 5%, 5%)" fill-opacity="0.4"><rect width="0.7895" height="0.0014" x="-0.5953" y="0.0901"/></g></g></g><g class="title"><g stroke-width="0.0" stroke="none" fill="rgb(5%, 5%, 5%)" fill-opacity="1.0" font-size="0.0584" text-anchor="middle"><text x="-0.2586" y="-0.3054">Copied: SATLIB/Bejing/3blocks/cnf</text></g></g><g class="legend"><g class="legendBorder"><g stroke-width="0.0017" stroke="rgb(5%, 5%, 5%)" stroke-opacity="1.0" fill="rgb(5%, 5%, 5%)" fill-opacity="0"><rect width="0.4323" height="0.5296" x="0.2777" y="-0.4277"/></g></g><g class="legendContent"><g stroke-width="0.0" stroke="none" fill="rgb(5%, 5%, 5%)" fill-opacity="1.0" font-size="0.0153" text-anchor="start"><text x="0.2862" y="0.0892">DPLL, Baseline</text></g><g stroke-width="0.0002" stroke="rgb(0%, 52%, 40%)" stroke-opacity="1.0" fill="rgb(0%, 52%, 40%)" fill-opacity="0.25"><rect width="0.0256" height="0.0187" x="0.6758" y="0.0771"/></g><g stroke-width="0.0" stroke="none" fill="rgb(5%, 5%, 5%)" fill-opacity="1.0" font-size="0.0153" text-anchor="start"><text x="0.2862" y="0.0642">DPLL</text></g><g stroke-width="0" stroke="rgb(2%, 29%, 48%)" stroke-opacity="1.0" fill="rgb(0%, 52%, 40%)" fill-opacity="1.0"><rect width="0.0256" height="0.0187" x="0.6758" y="0.0521"/></g><g stroke-width="0.0" stroke="none" fill="rgb(5%, 5%, 5%)" fill-opacity="1.0" font-size="0.0153" text-anchor="start"><text x="0.2862" y="0.0393">CDCL (α = 0.95, mVISDS, LubyRestart(100, 2)), Baseline</text></g><g stroke-width="0.0002" stroke="rgb(17%, 40%, 67%)" stroke-opacity="1.0" fill="rgb(17%, 40%, 67%)" fill-opacity="0.25"><rect width="0.0256" height="0.0187" x="0.6758" y="0.0272"/></g><g stroke-width="0.0" stroke="none" fill="rgb(5%, 5%, 5%)" fill-opacity="1.0" font-size="0.0153" text-anchor="start"><text x="0.2862" y="0.0144">CDCL (α = 0.95, mVISDS, LubyRestart(100, 2))</text></g><g stroke-width="0" stroke="rgb(2%, 29%, 48%)" stroke-opacity="1.0" fill="rgb(17%, 40%, 67%)" fill-opacity="1.0"><rect width="0.0256" height="0.0187" x="0.6758" y="0.0023"/></g><g stroke-width="0.0" stroke="none" fill="rgb(5%, 5%, 5%)" fill-opacity="1.0" font-size="0.0153" text-anchor="start"><text x="0.2862" y="-0.0105">CDCL (α = 0.95, mVISDS, ExpRestart(100, 2)), Baseline</text></g><g stroke-width="0.0002" stroke="rgb(62%, 0%, 31%)" stroke-opacity="1.0" fill="rgb(62%, 0%, 31%)" fill-opacity="0.25"><rect width="0.0256" height="0.0187" x="0.6758" y="-0.0226"/></g><g stroke-width="0.0" stroke="none" fill="rgb(5%, 5%, 5%)" fill-opacity="1.0" font-size="0.0153" text-anchor="start"><text x="0.2862" y="-0.0355">CDCL (α = 0.95, mVISDS, ExpRestart(100, 2))</text></g><g stroke-width="0" stroke="rgb(2%, 29%, 48%)" stroke-opacity="1.0" fill="rgb(62%, 0%, 31%)" fill-opacity="1.0"><rect width="0.0256" height="0.0187" x="0.6758" y="-0.0476"/></g><g stroke-width="0.0" stroke="none" fill="rgb(5%, 5%, 5%)" fill-opacity="1.0" font-size="0.0153" text-anchor="start"><text x="0.2862" y="-0.0604">CDCL (α = 0.95, mVISDS), Baseline</text></g><g stroke-width="0.0002" stroke="rgb(91%, 47%, 0%)" stroke-opacity="1.0" fill="rgb(91%, 47%, 0%)" fill-opacity="0.25"><rect width="0.0256" height="0.0187" x="0.6758" y="-0.0725"/></g><g stroke-width="0.0" stroke="none" fill="rgb(5%, 5%, 5%)" fill-opacity="1.0" font-size="0.0153" text-anchor="start"><text x="0.2862" y="-0.0853">CDCL (α = 0.95, mVISDS)</text></g><g stroke-width="0" stroke="rgb(2%, 29%, 48%)" stroke-opacity="1.0" fill="rgb(91%, 47%, 0%)" fill-opacity="1.0"><rect width="0.0256" height="0.0187" x="0.6758" y="-0.0974"/></g><g stroke-width="0.0" stroke="none" fill="rgb(5%, 5%, 5%)" fill-opacity="1.0" font-size="0.0153" text-anchor="start"><text x="0.2862" y="-0.1102">CDCL (α = 0.95), Baseline</text></g><g stroke-width="0.0002" stroke="rgb(0%, 64%, 70%)" stroke-opacity="1.0" fill="rgb(0%, 64%, 70%)" fill-opacity="0.25"><rect width="0.0256" height="0.0187" x="0.6758" y="-0.1223"/></g><g stroke-width="0.0" stroke="none" fill="rgb(5%, 5%, 5%)" fill-opacity="1.0" font-size="0.0153" text-anchor="start"><text x="0.2862" y="-0.1352">CDCL (α = 0.95)</text></g><g stroke-width="0" stroke="rgb(2%, 29%, 48%)" stroke-opacity="1.0" fill="rgb(0%, 64%, 70%)" fill-opacity="1.0"><rect width="0.0256" height="0.0187" x="0.6758" y="-0.1473"/></g><g stroke-width="0.0" stroke="none" fill="rgb(5%, 5%, 5%)" fill-opacity="1.0" font-size="0.0153" text-anchor="start"><text x="0.2862" y="-0.1601">CDCL (α = 0.75, mVISDS, LubyRestart(100, 2)), Baseline</text></g><g stroke-width="0.0002" stroke="rgb(91%, 19%, 0%)" stroke-opacity="1.0" fill="rgb(91%, 19%, 0%)" fill-opacity="0.25"><rect width="0.0256" height="0.0187" x="0.6758" y="-0.1722"/></g><g stroke-width="0.0" stroke="none" fill="rgb(5%, 5%, 5%)" fill-opacity="1.0" font-size="0.0153" text-anchor="start"><text x="0.2862" y="-0.1850">CDCL (α = 0.75, mVISDS, LubyRestart(100, 2))</text></g><g stroke-width="0" stroke="rgb(2%, 29%, 48%)" stroke-opacity="1.0" fill="rgb(91%, 19%, 0%)" fill-opacity="1.0"><rect width="0.0256" height="0.0187" x="0.6758" y="-0.1971"/></g><g stroke-width="0.0" stroke="none" fill="rgb(5%, 5%, 5%)" fill-opacity="1.0" font-size="0.0153" text-anchor="start"><text x="0.2862" y="-0.2099">CDCL (α = 0.75, mVISDS, ExpRestart(100, 2)), Baseline</text></g><g stroke-width="0.0002" stroke="rgb(38%, 23%, 0%)" stroke-opacity="1.0" fill="rgb(38%, 23%, 0%)" fill-opacity="0.25"><rect width="0.0256" height="0.0187" x="0.6758" y="-0.2220"/></g><g stroke-width="0.0" stroke="none" fill="rgb(5%, 5%, 5%)" fill-opacity="1.0" font-size="0.0153" text-anchor="start"><text x="0.2862" y="-0.2349">CDCL (α = 0.75, mVISDS, ExpRestart(100, 2))</text></g><g stroke-width="0" stroke="rgb(2%, 29%, 48%)" stroke-opacity="1.0" fill="rgb(38%, 23%, 0%)" fill-opacity="1.0"><rect width="0.0256" height="0.0187" x="0.6758" y="-0.2470"/></g><g stroke-width="0.0" stroke="none" fill="rgb(5%, 5%, 5%)" fill-opacity="1.0" font-size="0.0153" text-anchor="start"><text x="0.2862" y="-0.2598">CDCL (α = 0.75, mVISDS), Baseline</text></g><g stroke-width="0.0002" stroke="rgb(90%, 37%, 58%)" stroke-opacity="1.0" fill="rgb(90%, 37%, 58%)" fill-opacity="0.25"><rect width="0.0256" height="0.0187" x="0.6758" y="-0.2719"/></g><g stroke-width="0.0" stroke="none" fill="rgb(5%, 5%, 5%)" fill-opacity="1.0" font-size="0.0153" text-anchor="start"><text x="0.2862" y="-0.2847">CDCL (α = 0.75, mVISDS)</text></g><g stroke-width="0" stroke="rgb(2%, 29%, 48%)" stroke-opacity="1.0" fill="rgb(90%, 37%, 58%)" fill-opacity="1.0"><rect width="0.0256" height="0.0187" x="0.6758" y="-0.2968"/></g><g stroke-width="0.0" stroke="none" fill="rgb(5%, 5%, 5%)" fill-opacity="1.0" font-size="0.0153" text-anchor="start"><text x="0.2862" y="-0.3096">CDCL (α = 0.75), Baseline</text></g><g stroke-width="0.0002" stroke="rgb(0%, 72%, 98%)" stroke-opacity="1.0" fill="rgb(0%, 72%, 98%)" fill-opacity="0.25"><rect width="0.0256" height="0.0187" x="0.6758" y="-0.3218"/></g><g stroke-width="0.0" stroke="none" fill="rgb(5%, 5%, 5%)" fill-opacity="1.0" font-size="0.0153" text-anchor="start"><text x="0.2862" y="-0.3346">CDCL (α = 0.75)</text></g><g stroke-width="0" stroke="rgb(2%, 29%, 48%)" stroke-opacity="1.0" fill="rgb(0%, 72%, 98%)" fill-opacity="1.0"><rect width="0.0256" height="0.0187" x="0.6758" y="-0.3467"/></g><g stroke-width="0.0" stroke="none" fill="rgb(5%, 5%, 5%)" fill-opacity="1.0" font-size="0.0153" text-anchor="start"><text x="0.2862" y="-0.3595">CDCL (adaptive, mVSIDS)</text></g><g stroke-width="0" stroke="rgb(2%, 29%, 48%)" stroke-opacity="1.0" fill="rgb(1%, 28%, 43%)" fill-opacity="1.0"><rect width="0.0256" height="0.0187" x="0.6758" y="-0.3716"/></g><g stroke-width="0.0" stroke="none" fill="rgb(5%, 5%, 5%)" fill-opacity="1.0" font-size="0.0153" text-anchor="start"><text x="0.2862" y="-0.3844">CDCL (adaptive), Baseline</text></g><g stroke-width="0.0002" stroke="rgb(0%, 30%, 12%)" stroke-opacity="1.0" fill="rgb(0%, 30%, 12%)" fill-opacity="0.25"><rect width="0.0256" height="0.0187" x="0.6758" y="-0.3965"/></g><g stroke-width="0.0" stroke="none" fill="rgb(5%, 5%, 5%)" fill-opacity="1.0" font-size="0.0153" text-anchor="start"><text x="0.2862" y="-0.4093">CDCL (adaptive)</text></g><g stroke-width="0" stroke="rgb(2%, 29%, 48%)" stroke-opacity="1.0" fill="rgb(0%, 30%, 12%)" fill-opacity="1.0"><rect width="0.0256" height="0.0187" x="0.6758" y="-0.4215"/></g></g></g><g class="frame"><g stroke-width="0" stroke="rgb(0%, 0%, 0%)" stroke-opacity="0" fill="rgb(100%, 100%, 100%)" fill-opacity="0.02"><rect width="1.6180" height="1.0" x="-0.8090" y="-0.5"/></g></g><g class="title"><g stroke-width="0.0" stroke="none" fill="rgb(5%, 5%, 5%)" fill-opacity="1.0" font-size="0.0292" text-anchor="middle"><text x="-0.7399" y="0" transform="rotate(-90.0, -0.7399, 0)">Copied [GiB]</text></g></g></g></svg>