<svg xmlns="http://www.w3.org/2000/svg" xmlns:xlink="http://www.w3.org/1999/xlink" width="465" height="300" viewBox="-0.8090 -0.5 1.6180 1.0431"><style>svg {
  color-scheme: light dark;
}
{
  .canvas g, .title g, .axisbar g, .ticktext g, .tickglyph g, .ticklines g, .legendContent g text {
    fill: rgb(5%, 5%, 5%);
  }
  .ticklines g, .tickglyph g, .legendBorder g {
    stroke: rgb(5%, 5%, 5%);
  }
  .legendBorder g {
    fill: rgb(94%, 94%, 94%);
  }
}
@media (prefers-color-scheme:dark) {
  .canvas g, .title g, .axisbar g, .ticktext g, .tickglyph g, .ticklines g, .legendContent g text {
    fill: rgb(94%, 94%, 94%);
  }
  .ticklines g, .tickglyph g, .legendBorder g {
    stroke: rgb(94%, 94%, 94%);
  }
  .legendBorder g {
    fill: rgb(5%, 5%, 5%);
  }
}</style><g class="chart"><g class="barchart"><g stroke-width="0" stroke="rgb(2%, 29%, 48%)" stroke-opacity="1.0" fill="rgb(0%, 30%, 12%)" fill-opacity="1.0"><rect width="0.0338" height="0.0049" x="-0.5549" y="0.0814"/></g><g stroke-width="0.0010" stroke="rgb(0%, 30%, 12%)" stroke-opacity="1.0" fill="rgb(0%, 30%, 12%)" fill-opacity="0.25"><rect width="0.0338" height="0.0054" x="-0.5212" y="0.0810"/></g><g stroke-width="0" stroke="rgb(2%, 29%, 48%)" stroke-opacity="1.0" fill="rgb(1%, 28%, 43%)" fill-opacity="1.0"><rect width="0.0338" height="0.0565" x="-0.4874" y="0.0298"/></g><g stroke-width="0" stroke="rgb(2%, 29%, 48%)" stroke-opacity="1.0" fill="rgb(0%, 72%, 98%)" fill-opacity="1.0"><rect width="0.0338" height="0.0164" x="-0.4537" y="0.0700"/></g><g stroke-width="0.0010" stroke="rgb(0%, 72%, 98%)" stroke-opacity="1.0" fill="rgb(0%, 72%, 98%)" fill-opacity="0.25"><rect width="0.0338" height="0.0221" x="-0.4199" y="0.0643"/></g><g stroke-width="0" stroke="rgb(2%, 29%, 48%)" stroke-opacity="1.0" fill="rgb(90%, 37%, 58%)" fill-opacity="1.0"><rect width="0.0338" height="0.0132" x="-0.3862" y="0.0732"/></g><g stroke-width="0.0010" stroke="rgb(90%, 37%, 58%)" stroke-opacity="1.0" fill="rgb(90%, 37%, 58%)" fill-opacity="0.25"><rect width="0.0338" height="0.0180" x="-0.3524" y="0.0684"/></g><g stroke-width="0" stroke="rgb(2%, 29%, 48%)" stroke-opacity="1.0" fill="rgb(38%, 23%, 0%)" fill-opacity="1.0"><rect width="0.0338" height="0.0323" x="-0.3187" y="0.0541"/></g><g stroke-width="0.0010" stroke="rgb(38%, 23%, 0%)" stroke-opacity="1.0" fill="rgb(38%, 23%, 0%)" fill-opacity="0.25"><rect width="0.0338" height="0.0429" x="-0.2849" y="0.0435"/></g><g stroke-width="0" stroke="rgb(2%, 29%, 48%)" stroke-opacity="1.0" fill="rgb(91%, 19%, 0%)" fill-opacity="1.0"><rect width="0.0338" height="0.0319" x="-0.2511" y="0.0544"/></g><g stroke-width="0.0010" stroke="rgb(91%, 19%, 0%)" stroke-opacity="1.0" fill="rgb(91%, 19%, 0%)" fill-opacity="0.25"><rect width="0.0338" height="0.0427" x="-0.2174" y="0.0437"/></g><g stroke-width="0" stroke="rgb(2%, 29%, 48%)" stroke-opacity="1.0" fill="rgb(0%, 64%, 70%)" fill-opacity="1.0"><rect width="0.0338" height="0.0047" x="-0.1836" y="0.0817"/></g><g stroke-width="0.0010" stroke="rgb(0%, 64%, 70%)" stroke-opacity="1.0" fill="rgb(0%, 64%, 70%)" fill-opacity="0.25"><rect width="0.0338" height="0.0060" x="-0.1499" y="0.0804"/></g><g stroke-width="0" stroke="rgb(2%, 29%, 48%)" stroke-opacity="1.0" fill="rgb(91%, 47%, 0%)" fill-opacity="1.0"><rect width="0.0338" height="0.0212" x="-0.1161" y="0.0652"/></g><g stroke-width="0.0010" stroke="rgb(91%, 47%, 0%)" stroke-opacity="1.0" fill="rgb(91%, 47%, 0%)" fill-opacity="0.25"><rect width="0.0338" height="0.0252" x="-0.0824" y="0.0612"/></g><g stroke-width="0" stroke="rgb(2%, 29%, 48%)" stroke-opacity="1.0" fill="rgb(62%, 0%, 31%)" fill-opacity="1.0"><rect width="0.0338" height="0.0138" x="-0.0486" y="0.0726"/></g><g stroke-width="0.0010" stroke="rgb(62%, 0%, 31%)" stroke-opacity="1.0" fill="rgb(62%, 0%, 31%)" fill-opacity="0.25"><rect width="0.0338" height="0.0169" x="-0.0149" y="0.0694"/></g><g stroke-width="0" stroke="rgb(2%, 29%, 48%)" stroke-opacity="1.0" fill="rgb(17%, 40%, 67%)" fill-opacity="1.0"><rect width="0.0338" height="0.0142" x="0.0189" y="0.0722"/></g><g stroke-width="0.0010" stroke="rgb(17%, 40%, 67%)" stroke-opacity="1.0" fill="rgb(17%, 40%, 67%)" fill-opacity="0.25"><rect width="0.0338" height="0.0160" x="0.0526" y="0.0704"/></g><g stroke-width="0" stroke="rgb(2%, 29%, 48%)" stroke-opacity="1.0" fill="rgb(0%, 52%, 40%)" fill-opacity="1.0"><rect width="0.0338" height="0.3080" x="0.0864" y="-0.2216"/></g><g stroke-width="0.0010" stroke="rgb(0%, 52%, 40%)" stroke-opacity="1.0" fill="rgb(0%, 52%, 40%)" fill-opacity="0.25"><rect width="0.0338" height="0.3174" x="0.1201" y="-0.2310"/></g></g><g class="errors"><g stroke-width="0.0015" stroke="rgb(5%, 5%, 5%)" stroke-opacity="1.0" fill="none"><polyline points="-0.5414,0.0815 -0.5347,0.0815"/><polyline points="-0.5381,0.0815 -0.5381,0.0814"/><polyline points="-0.5414,0.0814 -0.5347,0.0814"/></g><g stroke-width="0.0015" stroke="rgb(5%, 5%, 5%)" stroke-opacity="1.0" fill="none"><polyline points="-0.5077,0.0810 -0.5009,0.0810"/><polyline points="-0.5043,0.0810 -0.5043,0.0810"/><polyline points="-0.5077,0.0810 -0.5009,0.0810"/></g><g stroke-width="0.0015" stroke="rgb(5%, 5%, 5%)" stroke-opacity="1.0" fill="none"><polyline points="-0.4739,0.0308 -0.4672,0.0308"/><polyline points="-0.4705,0.0308 -0.4705,0.0289"/><polyline points="-0.4739,0.0289 -0.4672,0.0289"/></g><g stroke-width="0.0015" stroke="rgb(5%, 5%, 5%)" stroke-opacity="1.0" fill="none"><polyline points="-0.4402,0.0701 -0.4334,0.0701"/><polyline points="-0.4368,0.0701 -0.4368,0.0698"/><polyline points="-0.4402,0.0698 -0.4334,0.0698"/></g><g stroke-width="0.0015" stroke="rgb(5%, 5%, 5%)" stroke-opacity="1.0" fill="none"><polyline points="-0.4064,0.0644 -0.3997,0.0644"/><polyline points="-0.4030,0.0644 -0.4030,0.0642"/><polyline points="-0.4064,0.0642 -0.3997,0.0642"/></g><g stroke-width="0.0015" stroke="rgb(5%, 5%, 5%)" stroke-opacity="1.0" fill="none"><polyline points="-0.3727,0.0734 -0.3659,0.0734"/><polyline points="-0.3693,0.0734 -0.3693,0.0729"/><polyline points="-0.3727,0.0729 -0.3659,0.0729"/></g><g stroke-width="0.0015" stroke="rgb(5%, 5%, 5%)" stroke-opacity="1.0" fill="none"><polyline points="-0.3389,0.0686 -0.3322,0.0686"/><polyline points="-0.3355,0.0686 -0.3355,0.0683"/><polyline points="-0.3389,0.0683 -0.3322,0.0683"/></g><g stroke-width="0.0015" stroke="rgb(5%, 5%, 5%)" stroke-opacity="1.0" fill="none"><polyline points="-0.3052,0.0547 -0.2984,0.0547"/><polyline points="-0.3018,0.0547 -0.3018,0.0535"/><polyline points="-0.3052,0.0535 -0.2984,0.0535"/></g><g stroke-width="0.0015" stroke="rgb(5%, 5%, 5%)" stroke-opacity="1.0" fill="none"><polyline points="-0.2714,0.0437 -0.2646,0.0437"/><polyline points="-0.2680,0.0437 -0.2680,0.0434"/><polyline points="-0.2714,0.0434 -0.2646,0.0434"/></g><g stroke-width="0.0015" stroke="rgb(5%, 5%, 5%)" stroke-opacity="1.0" fill="none"><polyline points="-0.2376,0.0552 -0.2309,0.0552"/><polyline points="-0.2343,0.0552 -0.2343,0.0537"/><polyline points="-0.2376,0.0537 -0.2309,0.0537"/></g><g stroke-width="0.0015" stroke="rgb(5%, 5%, 5%)" stroke-opacity="1.0" fill="none"><polyline points="-0.2039,0.0454 -0.1971,0.0454"/><polyline points="-0.2005,0.0454 -0.2005,0.0421"/><polyline points="-0.2039,0.0421 -0.1971,0.0421"/></g><g stroke-width="0.0015" stroke="rgb(5%, 5%, 5%)" stroke-opacity="1.0" fill="none"><polyline points="-0.1701,0.0819 -0.1634,0.0819"/><polyline points="-0.1668,0.0819 -0.1668,0.0815"/><polyline points="-0.1701,0.0815 -0.1634,0.0815"/></g><g stroke-width="0.0015" stroke="rgb(5%, 5%, 5%)" stroke-opacity="1.0" fill="none"><polyline points="-0.1364,0.0805 -0.1296,0.0805"/><polyline points="-0.1330,0.0805 -0.1330,0.0803"/><polyline points="-0.1364,0.0803 -0.1296,0.0803"/></g><g stroke-width="0.0015" stroke="rgb(5%, 5%, 5%)" stroke-opacity="1.0" fill="none"><polyline points="-0.1026,0.0658 -0.0959,0.0658"/><polyline points="-0.0993,0.0658 -0.0993,0.0645"/><polyline points="-0.1026,0.0645 -0.0959,0.0645"/></g><g stroke-width="0.0015" stroke="rgb(5%, 5%, 5%)" stroke-opacity="1.0" fill="none"><polyline points="-0.0689,0.0614 -0.0621,0.0614"/><polyline points="-0.0655,0.0614 -0.0655,0.0610"/><polyline points="-0.0689,0.0610 -0.0621,0.0610"/></g><g stroke-width="0.0015" stroke="rgb(5%, 5%, 5%)" stroke-opacity="1.0" fill="none"><polyline points="-0.0351,0.0731 -0.0284,0.0731"/><polyline points="-0.0318,0.0731 -0.0318,0.0721"/><polyline points="-0.0351,0.0721 -0.0284,0.0721"/></g><g stroke-width="0.0015" stroke="rgb(5%, 5%, 5%)" stroke-opacity="1.0" fill="none"><polyline points="-0.0014,0.0697 0.0054,0.0697"/><polyline points="0.0020,0.0697 0.0020,0.0692"/><polyline points="-0.0014,0.0692 0.0054,0.0692"/></g><g stroke-width="0.0015" stroke="rgb(5%, 5%, 5%)" stroke-opacity="1.0" fill="none"><polyline points="0.0324,0.0723 0.0391,0.0723"/><polyline points="0.0358,0.0723 0.0358,0.0721"/><polyline points="0.0324,0.0721 0.0391,0.0721"/></g><g stroke-width="0.0015" stroke="rgb(5%, 5%, 5%)" stroke-opacity="1.0" fill="none"><polyline points="0.0661,0.0709 0.0729,0.0709"/><polyline points="0.0695,0.0709 0.0695,0.0698"/><polyline points="0.0661,0.0698 0.0729,0.0698"/></g><g stroke-width="0.0015" stroke="rgb(5%, 5%, 5%)" stroke-opacity="1.0" fill="none"><polyline points="0.0999,-0.2162 0.1066,-0.2162"/><polyline points="0.1033,-0.2162 0.1033,-0.2270"/><polyline points="0.0999,-0.2270 0.1066,-0.2270"/></g><g stroke-width="0.0015" stroke="rgb(5%, 5%, 5%)" stroke-opacity="1.0" fill="none"><polyline points="0.1336,-0.2307 0.1404,-0.2307"/><polyline points="0.1370,-0.2307 0.1370,-0.2313"/><polyline points="0.1336,-0.2313 0.1404,-0.2313"/></g></g></g><g class="hud"><g class="axis"><g class="ticks"><g class="tickglyph"><g stroke-width="0.0040" stroke="rgb(5%, 5%, 5%)" stroke-opacity="0.4" fill="rgb(5%, 5%, 5%)" fill-opacity="0.4"><g transform="rotate(-90.0, -0.6089, 0.0864)"><polyline points="-0.6089,0.1014
-0.6089,0.0714"/></g><g transform="rotate(-90.0, -0.6089, 0.0420)"><polyline points="-0.6089,0.0570
-0.6089,0.0270"/></g><g transform="rotate(-90.0, -0.6089, -0.0025)"><polyline points="-0.6089,0.0125
-0.6089,-0.0175"/></g><g transform="rotate(-90.0, -0.6089, -0.0469)"><polyline points="-0.6089,-0.0319
-0.6089,-0.0619"/></g><g transform="rotate(-90.0, -0.6089, -0.0913)"><polyline points="-0.6089,-0.0763
-0.6089,-0.1063"/></g><g transform="rotate(-90.0, -0.6089, -0.1357)"><polyline points="-0.6089,-0.1207
-0.6089,-0.1507"/></g><g transform="rotate(-90.0, -0.6089, -0.1802)"><polyline points="-0.6089,-0.1652
-0.6089,-0.1952"/></g><g transform="rotate(-90.0, -0.6089, -0.2246)"><polyline points="-0.6089,-0.2096
-0.6089,-0.2396"/></g><g transform="rotate(-90.0, -0.6089, -0.2690)"><polyline points="-0.6089,-0.2540
-0.6089,-0.2840"/></g></g></g><g class="ticktext"><g stroke-width="0.0" stroke="none" fill="rgb(5%, 5%, 5%)" fill-opacity="1.0" font-size="0.0243" text-anchor="end"><text x="-0.6264" y="0.0913"> 0</text><text x="-0.6264" y="0.0468"> 5</text><text x="-0.6264" y="0.0024">10</text><text x="-0.6264" y="-0.0420">15</text><text x="-0.6264" y="-0.0864">20</text><text x="-0.6264" y="-0.1309">25</text><text x="-0.6264" y="-0.1753">30</text><text x="-0.6264" y="-0.2197">35</text><text x="-0.6264" y="-0.2641">40</text></g></g><g class="ticklines"><g stroke-width="0.0050" stroke="rgb(5%, 5%, 5%)" stroke-opacity="0.05" fill="none"><polyline points="-0.5943,0.0864 0.1933,0.0864"/><polyline points="-0.5943,0.0420 0.1933,0.0420"/><polyline points="-0.5943,-0.0025 0.1933,-0.0025"/><polyline points="-0.5943,-0.0469 0.1933,-0.0469"/><polyline points="-0.5943,-0.0913 0.1933,-0.0913"/><polyline points="-0.5943,-0.1357 0.1933,-0.1357"/><polyline points="-0.5943,-0.1802 0.1933,-0.1802"/><polyline points="-0.5943,-0.2246 0.1933,-0.2246"/><polyline points="-0.5943,-0.2690 0.1933,-0.2690"/></g></g></g><g class="axisbar"><g stroke-width="0" stroke="rgb(0%, 0%, 0%)" stroke-opacity="0" fill="rgb(5%, 5%, 5%)" fill-opacity="0.4"><rect width="0.0019" height="0.3568" x="-0.6011" y="-0.2697"/></g></g></g><g class="axis"><g class="ticks"><g class="tickglyph"><g stroke-width="0.0040" stroke="rgb(5%, 5%, 5%)" stroke-opacity="0.4" fill="rgb(5%, 5%, 5%)" fill-opacity="0.4"><polyline points="-0.5381,0.1122
-0.5381,0.0822"/><polyline points="-0.5043,0.1122
-0.5043,0.0822"/><polyline points="-0.4705,0.1122
-0.4705,0.0822"/><polyline points="-0.4368,0.1122
-0.4368,0.0822"/><polyline points="-0.4030,0.1122
-0.4030,0.0822"/><polyline points="-0.3693,0.1122
-0.3693,0.0822"/><polyline points="-0.3355,0.1122
-0.3355,0.0822"/><polyline points="-0.3018,0.1122
-0.3018,0.0822"/><polyline points="-0.2680,0.1122
-0.2680,0.0822"/><polyline points="-0.2343,0.1122
-0.2343,0.0822"/><polyline points="-0.2005,0.1122
-0.2005,0.0822"/><polyline points="-0.1668,0.1122
-0.1668,0.0822"/><polyline points="-0.1330,0.1122
-0.1330,0.0822"/><polyline points="-0.0993,0.1122
-0.0993,0.0822"/><polyline points="-0.0655,0.1122
-0.0655,0.0822"/><polyline points="-0.0318,0.1122
-0.0318,0.0822"/><polyline points="0.0020,0.1122
0.0020,0.0822"/><polyline points="0.0358,0.1122
0.0358,0.0822"/><polyline points="0.0695,0.1122
0.0695,0.0822"/><polyline points="0.1033,0.1122
0.1033,0.0822"/><polyline points="0.1370,0.1122
0.1370,0.0822"/></g></g><g class="ticktext"><g stroke-width="0.0" stroke="none" fill="rgb(5%, 5%, 5%)" fill-opacity="1.0" font-size="0.0243" text-anchor="end"><text x="-0.5381" y="0.1198" transform="rotate(-45.0, -0.5381, 0.1198)">CDCL (adaptive)</text><text x="-0.5043" y="0.1198" transform="rotate(-45.0, -0.5043, 0.1198)">CDCL (adaptive), Baseline</text><text x="-0.4705" y="0.1198" transform="rotate(-45.0, -0.4705, 0.1198)">CDCL (adaptive, mVSIDS)</text><text x="-0.4368" y="0.1198" transform="rotate(-45.0, -0.4368, 0.1198)">CDCL (α = 0.75)</text><text x="-0.4030" y="0.1198" transform="rotate(-45.0, -0.4030, 0.1198)">CDCL (α = 0.75), Baseline</text><text x="-0.3693" y="0.1198" transform="rotate(-45.0, -0.3693, 0.1198)">CDCL (α = 0.75, mVISDS)</text><text x="-0.3355" y="0.1198" transform="rotate(-45.0, -0.3355, 0.1198)">CDCL (α = 0.75, mVISDS), Baseline</text><text x="-0.3018" y="0.1198" transform="rotate(-45.0, -0.3018, 0.1198)">CDCL (α = 0.75, mVISDS, ExpRestart(100, 2))</text><text x="-0.2680" y="0.1198" transform="rotate(-45.0, -0.2680, 0.1198)">CDCL (α = 0.75, mVISDS, ExpRestart(100, 2)), Baseline</text><text x="-0.2343" y="0.1198" transform="rotate(-45.0, -0.2343, 0.1198)">CDCL (α = 0.75, mVISDS, LubyRestart(100, 2))</text><text x="-0.2005" y="0.1198" transform="rotate(-45.0, -0.2005, 0.1198)">CDCL (α = 0.75, mVISDS, LubyRestart(100, 2)), Baseline</text><text x="-0.1668" y="0.1198" transform="rotate(-45.0, -0.1668, 0.1198)">CDCL (α = 0.95)</text><text x="-0.1330" y="0.1198" transform="rotate(-45.0, -0.1330, 0.1198)">CDCL (α = 0.95), Baseline</text><text x="-0.0993" y="0.1198" transform="rotate(-45.0, -0.0993, 0.1198)">CDCL (α = 0.95, mVISDS)</text><text x="-0.0655" y="0.1198" transform="rotate(-45.0, -0.0655, 0.1198)">CDCL (α = 0.95, mVISDS), Baseline</text><text x="-0.0318" y="0.1198" transform="rotate(-45.0, -0.0318, 0.1198)">CDCL (α = 0.95, mVISDS, ExpRestart(100, 2))</text><text x="0.0020" y="0.1198" transform="rotate(-45.0, 0.0020, 0.1198)">CDCL (α = 0.95, mVISDS, ExpRestart(100, 2)), Baseline</text><text x="0.0358" y="0.1198" transform="rotate(-45.0, 0.0358, 0.1198)">CDCL (α = 0.95, mVISDS, LubyRestart(100, 2))</text><text x="0.0695" y="0.1198" transform="rotate(-45.0, 0.0695, 0.1198)">CDCL (α = 0.95, mVISDS, LubyRestart(100, 2)), Baseline</text><text x="0.1033" y="0.1198" transform="rotate(-45.0, 0.1033, 0.1198)">DPLL</text><text x="0.1370" y="0.1198" transform="rotate(-45.0, 0.1370, 0.1198)">DPLL, Baseline</text></g></g></g><g class="axisbar"><g stroke-width="0" stroke="rgb(0%, 0%, 0%)" stroke-opacity="0" fill="rgb(5%, 5%, 5%)" fill-opacity="0.4"><rect width="0.7895" height="0.0014" x="-0.5953" y="0.0901"/></g></g></g><g class="title"><g stroke-width="0.0" stroke="none" fill="rgb(5%, 5%, 5%)" fill-opacity="1.0" font-size="0.0584" text-anchor="middle"><text x="-0.2586" y="-0.3054">Time: SATLIB/Bejing/3blocks/cnf</text></g></g><g class="legend"><g class="legendBorder"><g stroke-width="0.0017" stroke="rgb(5%, 5%, 5%)" stroke-opacity="1.0" fill="rgb(5%, 5%, 5%)" fill-opacity="0"><rect width="0.4323" height="0.5296" x="0.2777" y="-0.4277"/></g></g><g class="legendContent"><g stroke-width="0.0" stroke="none" fill="rgb(5%, 5%, 5%)" fill-opacity="1.0" font-size="0.0153" text-anchor="start"><text x="0.2862" y="0.0892">DPLL, Baseline</text></g><g stroke-width="0.0002" stroke="rgb(0%, 52%, 40%)" stroke-opacity="1.0" fill="rgb(0%, 52%, 40%)" fill-opacity="0.25"><rect width="0.0256" height="0.0187" x="0.6758" y="0.0771"/></g><g stroke-width="0.0" stroke="none" fill="rgb(5%, 5%, 5%)" fill-opacity="1.0" font-size="0.0153" text-anchor="start"><text x="0.2862" y="0.0642">DPLL</text></g><g stroke-width="0" stroke="rgb(2%, 29%, 48%)" stroke-opacity="1.0" fill="rgb(0%, 52%, 40%)" fill-opacity="1.0"><rect width="0.0256" height="0.0187" x="0.6758" y="0.0521"/></g><g stroke-width="0.0" stroke="none" fill="rgb(5%, 5%, 5%)" fill-opacity="1.0" font-size="0.0153" text-anchor="start"><text x="0.2862" y="0.0393">CDCL (α = 0.95, mVISDS, LubyRestart(100, 2)), Baseline</text></g><g stroke-width="0.0002" stroke="rgb(17%, 40%, 67%)" stroke-opacity="1.0" fill="rgb(17%, 40%, 67%)" fill-opacity="0.25"><rect width="0.0256" height="0.0187" x="0.6758" y="0.0272"/></g><g stroke-width="0.0" stroke="none" fill="rgb(5%, 5%, 5%)" fill-opacity="1.0" font-size="0.0153" text-anchor="start"><text x="0.2862" y="0.0144">CDCL (α = 0.95, mVISDS, LubyRestart(100, 2))</text></g><g stroke-width="0" stroke="rgb(2%, 29%, 48%)" stroke-opacity="1.0" fill="rgb(17%, 40%, 67%)" fill-opacity="1.0"><rect width="0.0256" height="0.0187" x="0.6758" y="0.0023"/></g><g stroke-width="0.0" stroke="none" fill="rgb(5%, 5%, 5%)" fill-opacity="1.0" font-size="0.0153" text-anchor="start"><text x="0.2862" y="-0.0105">CDCL (α = 0.95, mVISDS, ExpRestart(100, 2)), Baseline</text></g><g stroke-width="0.0002" stroke="rgb(62%, 0%, 31%)" stroke-opacity="1.0" fill="rgb(62%, 0%, 31%)" fill-opacity="0.25"><rect width="0.0256" height="0.0187" x="0.6758" y="-0.0226"/></g><g stroke-width="0.0" stroke="none" fill="rgb(5%, 5%, 5%)" fill-opacity="1.0" font-size="0.0153" text-anchor="start"><text x="0.2862" y="-0.0355">CDCL (α = 0.95, mVISDS, ExpRestart(100, 2))</text></g><g stroke-width="0" stroke="rgb(2%, 29%, 48%)" stroke-opacity="1.0" fill="rgb(62%, 0%, 31%)" fill-opacity="1.0"><rect width="0.0256" height="0.0187" x="0.6758" y="-0.0476"/></g><g stroke-width="0.0" stroke="none" fill="rgb(5%, 5%, 5%)" fill-opacity="1.0" font-size="0.0153" text-anchor="start"><text x="0.2862" y="-0.0604">CDCL (α = 0.95, mVISDS), Baseline</text></g><g stroke-width="0.0002" stroke="rgb(91%, 47%, 0%)" stroke-opacity="1.0" fill="rgb(91%, 47%, 0%)" fill-opacity="0.25"><rect width="0.0256" height="0.0187" x="0.6758" y="-0.0725"/></g><g stroke-width="0.0" stroke="none" fill="rgb(5%, 5%, 5%)" fill-opacity="1.0" font-size="0.0153" text-anchor="start"><text x="0.2862" y="-0.0853">CDCL (α = 0.95, mVISDS)</text></g><g stroke-width="0" stroke="rgb(2%, 29%, 48%)" stroke-opacity="1.0" fill="rgb(91%, 47%, 0%)" fill-opacity="1.0"><rect width="0.0256" height="0.0187" x="0.6758" y="-0.0974"/></g><g stroke-width="0.0" stroke="none" fill="rgb(5%, 5%, 5%)" fill-opacity="1.0" font-size="0.0153" text-anchor="start"><text x="0.2862" y="-0.1102">CDCL (α = 0.95), Baseline</text></g><g stroke-width="0.0002" stroke="rgb(0%, 64%, 70%)" stroke-opacity="1.0" fill="rgb(0%, 64%, 70%)" fill-opacity="0.25"><rect width="0.0256" height="0.0187" x="0.6758" y="-0.1223"/></g><g stroke-width="0.0" stroke="none" fill="rgb(5%, 5%, 5%)" fill-opacity="1.0" font-size="0.0153" text-anchor="start"><text x="0.2862" y="-0.1352">CDCL (α = 0.95)</text></g><g stroke-width="0" stroke="rgb(2%, 29%, 48%)" stroke-opacity="1.0" fill="rgb(0%, 64%, 70%)" fill-opacity="1.0"><rect width="0.0256" height="0.0187" x="0.6758" y="-0.1473"/></g><g stroke-width="0.0" stroke="none" fill="rgb(5%, 5%, 5%)" fill-opacity="1.0" font-size="0.0153" text-anchor="start"><text x="0.2862" y="-0.1601">CDCL (α = 0.75, mVISDS, LubyRestart(100, 2)), Baseline</text></g><g stroke-width="0.0002" stroke="rgb(91%, 19%, 0%)" stroke-opacity="1.0" fill="rgb(91%, 19%, 0%)" fill-opacity="0.25"><rect width="0.0256" height="0.0187" x="0.6758" y="-0.1722"/></g><g stroke-width="0.0" stroke="none" fill="rgb(5%, 5%, 5%)" fill-opacity="1.0" font-size="0.0153" text-anchor="start"><text x="0.2862" y="-0.1850">CDCL (α = 0.75, mVISDS, LubyRestart(100, 2))</text></g><g stroke-width="0" stroke="rgb(2%, 29%, 48%)" stroke-opacity="1.0" fill="rgb(91%, 19%, 0%)" fill-opacity="1.0"><rect width="0.0256" height="0.0187" x="0.6758" y="-0.1971"/></g><g stroke-width="0.0" stroke="none" fill="rgb(5%, 5%, 5%)" fill-opacity="1.0" font-size="0.0153" text-anchor="start"><text x="0.2862" y="-0.2099">CDCL (α = 0.75, mVISDS, ExpRestart(100, 2)), Baseline</text></g><g stroke-width="0.0002" stroke="rgb(38%, 23%, 0%)" stroke-opacity="1.0" fill="rgb(38%, 23%, 0%)" fill-opacity="0.25"><rect width="0.0256" height="0.0187" x="0.6758" y="-0.2220"/></g><g stroke-width="0.0" stroke="none" fill="rgb(5%, 5%, 5%)" fill-opacity="1.0" font-size="0.0153" text-anchor="start"><text x="0.2862" y="-0.2349">CDCL (α = 0.75, mVISDS, ExpRestart(100, 2))</text></g><g stroke-width="0" stroke="rgb(2%, 29%, 48%)" stroke-opacity="1.0" fill="rgb(38%, 23%, 0%)" fill-opacity="1.0"><rect width="0.0256" height="0.0187" x="0.6758" y="-0.2470"/></g><g stroke-width="0.0" stroke="none" fill="rgb(5%, 5%, 5%)" fill-opacity="1.0" font-size="0.0153" text-anchor="start"><text x="0.2862" y="-0.2598">CDCL (α = 0.75, mVISDS), Baseline</text></g><g stroke-width="0.0002" stroke="rgb(90%, 37%, 58%)" stroke-opacity="1.0" fill="rgb(90%, 37%, 58%)" fill-opacity="0.25"><rect width="0.0256" height="0.0187" x="0.6758" y="-0.2719"/></g><g stroke-width="0.0" stroke="none" fill="rgb(5%, 5%, 5%)" fill-opacity="1.0" font-size="0.0153" text-anchor="start"><text x="0.2862" y="-0.2847">CDCL (α = 0.75, mVISDS)</text></g><g stroke-width="0" stroke="rgb(2%, 29%, 48%)" stroke-opacity="1.0" fill="rgb(90%, 37%, 58%)" fill-opacity="1.0"><rect width="0.0256" height="0.0187" x="0.6758" y="-0.2968"/></g><g stroke-width="0.0" stroke="none" fill="rgb(5%, 5%, 5%)" fill-opacity="1.0" font-size="0.0153" text-anchor="start"><text x="0.2862" y="-0.3096">CDCL (α = 0.75), Baseline</text></g><g stroke-width="0.0002" stroke="rgb(0%, 72%, 98%)" stroke-opacity="1.0" fill="rgb(0%, 72%, 98%)" fill-opacity="0.25"><rect width="0.0256" height="0.0187" x="0.6758" y="-0.3218"/></g><g stroke-width="0.0" stroke="none" fill="rgb(5%, 5%, 5%)" fill-opacity="1.0" font-size="0.0153" text-anchor="start"><text x="0.2862" y="-0.3346">CDCL (α = 0.75)</text></g><g stroke-width="0" stroke="rgb(2%, 29%, 48%)" stroke-opacity="1.0" fill="rgb(0%, 72%, 98%)" fill-opacity="1.0"><rect width="0.0256" height="0.0187" x="0.6758" y="-0.3467"/></g><g stroke-width="0.0" stroke="none" fill="rgb(5%, 5%, 5%)" fill-opacity="1.0" font-size="0.0153" text-anchor="start"><text x="0.2862" y="-0.3595">CDCL (adaptive, mVSIDS)</text></g><g stroke-width="0" stroke="rgb(2%, 29%, 48%)" stroke-opacity="1.0" fill="rgb(1%, 28%, 43%)" fill-opacity="1.0"><rect width="0.0256" height="0.0187" x="0.6758" y="-0.3716"/></g><g stroke-width="0.0" stroke="none" fill="rgb(5%, 5%, 5%)" fill-opacity="1.0" font-size="0.0153" text-anchor="start"><text x="0.2862" y="-0.3844">CDCL (adaptive), Baseline</text></g><g stroke-width="0.0002" stroke="rgb(0%, 30%, 12%)" stroke-opacity="1.0" fill="rgb(0%, 30%, 12%)" fill-opacity="0.25"><rect width="0.0256" height="0.0187" x="0.6758" y="-0.3965"/></g><g stroke-width="0.0" stroke="none" fill="rgb(5%, 5%, 5%)" fill-opacity="1.0" font-size="0.0153" text-anchor="start"><text x="0.2862" y="-0.4093">CDCL (adaptive)</text></g><g stroke-width="0" stroke="rgb(2%, 29%, 48%)" stroke-opacity="1.0" fill="rgb(0%, 30%, 12%)" fill-opacity="1.0"><rect width="0.0256" height="0.0187" x="0.6758" y="-0.4215"/></g></g></g><g class="frame"><g stroke-width="0" stroke="rgb(0%, 0%, 0%)" stroke-opacity="0" fill="rgb(100%, 100%, 100%)" fill-opacity="0.02"><rect width="1.6180" height="1.0" x="-0.8090" y="-0.5"/></g></g><g class="title"><g stroke-width="0.0" stroke="none" fill="rgb(5%, 5%, 5%)" fill-opacity="1.0" font-size="0.0292" text-anchor="middle"><text x="-0.7399" y="0" transform="rotate(-90.0, -0.7399, 0)">Time [s]</text></g></g></g></svg>