<svg xmlns="http://www.w3.org/2000/svg" xmlns:xlink="http://www.w3.org/1999/xlink" width="404" height="300" viewBox="-1.2044 -0.5 2.0134 1.4947"><style>svg {color-scheme: light dark;} {.canvas g, .title g, .axisbar g, .ticktext g, .tickglyph g, .ticklines g, .legendContent g text {fill: rgb(5%, 5%, 5%);} .ticklines g, .tickglyph g, .legendBorder g {stroke: rgb(5%, 5%, 5%);} .legendBorder g {fill: rgb(94%, 94%, 94%);}} @media (prefers-color-scheme:dark) {.canvas g, .title g, .axisbar g, .ticktext g, .tickglyph g, .ticklines g, .legendContent g text {fill: rgb(94%, 94%, 94%);} .ticklines g, .tickglyph g, .legendBorder g {stroke: rgb(94%, 94%, 94%);} .legendBorder g {fill: rgb(5%, 5%, 5%);}}
svg { font-family: system-ui,-apple-system,"Segoe UI",Roboto,"Helvetica Neue",Arial,"Noto Sans","Liberation Sans",sans-serif,"Apple Color Emoji","Segoe UI Emoji","Segoe UI Symbol","Noto Color Emoji";
}

ticktext { font-family: SFMono-Regular,Menlo,Monaco,Consolas,"Liberation Mono","Courier New",monospace;}</style><g class="chart"><g class="barchart"><g stroke-width="0" stroke="rgb(2%, 29%, 48%)" stroke-opacity="1.0" fill="rgb(0%, 57%, 62%)" fill-opacity="1.0"><rect width="0.0271" height="0.0030" x="-0.3772" y="0.0024"/></g><g stroke-width="0.0010" stroke="rgb(0%, 57%, 62%)" stroke-opacity="1.0" fill="rgb(0%, 57%, 62%)" fill-opacity="0.25"><rect width="0.0271" height="0.0636" x="-0.3501" y="-0.0582"/></g><g stroke-width="0" stroke="rgb(2%, 29%, 48%)" stroke-opacity="1.0" fill="rgb(0%, 35%, 53%)" fill-opacity="1.0"><rect width="0.0271" height="0.0030" x="-0.3230" y="0.0024"/></g><g stroke-width="0.0010" stroke="rgb(0%, 35%, 53%)" stroke-opacity="1.0" fill="rgb(0%, 35%, 53%)" fill-opacity="0.25"><rect width="0.0271" height="0.0612" x="-0.2959" y="-0.0558"/></g><g stroke-width="0" stroke="rgb(2%, 29%, 48%)" stroke-opacity="1.0" fill="rgb(0%, 72%, 98%)" fill-opacity="1.0"><rect width="0.0271" height="0.0028" x="-0.2688" y="0.0026"/></g><g stroke-width="0.0010" stroke="rgb(0%, 72%, 98%)" stroke-opacity="1.0" fill="rgb(0%, 72%, 98%)" fill-opacity="0.25"><rect width="0.0271" height="0.0612" x="-0.2417" y="-0.0558"/></g><g stroke-width="0" stroke="rgb(2%, 29%, 48%)" stroke-opacity="1.0" fill="rgb(90%, 37%, 58%)" fill-opacity="1.0"><rect width="0.0271" height="0.0029" x="-0.2146" y="0.0025"/></g><g stroke-width="0.0010" stroke="rgb(90%, 37%, 58%)" stroke-opacity="1.0" fill="rgb(90%, 37%, 58%)" fill-opacity="0.25"><rect width="0.0271" height="0.0613" x="-0.1875" y="-0.0559"/></g><g stroke-width="0" stroke="rgb(2%, 29%, 48%)" stroke-opacity="1.0" fill="rgb(34%, 34%, 0%)" fill-opacity="1.0"><rect width="0.0271" height="0.0030" x="-0.1604" y="0.0024"/></g><g stroke-width="0.0010" stroke="rgb(34%, 34%, 0%)" stroke-opacity="1.0" fill="rgb(34%, 34%, 0%)" fill-opacity="0.25"><rect width="0.0271" height="0.0645" x="-0.1332" y="-0.0591"/></g><g stroke-width="0" stroke="rgb(2%, 29%, 48%)" stroke-opacity="1.0" fill="rgb(16%, 61%, 0%)" fill-opacity="1.0"><rect width="0.0271" height="0.0029" x="-0.1061" y="0.0025"/></g><g stroke-width="0.0010" stroke="rgb(16%, 61%, 0%)" stroke-opacity="1.0" fill="rgb(16%, 61%, 0%)" fill-opacity="0.25"><rect width="0.0271" height="0.0654" x="-0.0790" y="-0.0600"/></g><g stroke-width="0" stroke="rgb(2%, 29%, 48%)" stroke-opacity="1.0" fill="rgb(0%, 64%, 70%)" fill-opacity="1.0"><rect width="0.0271" height="0.0030" x="-0.0519" y="0.0024"/></g><g stroke-width="0.0010" stroke="rgb(0%, 64%, 70%)" stroke-opacity="1.0" fill="rgb(0%, 64%, 70%)" fill-opacity="0.25"><rect width="0.0271" height="0.0622" x="-0.0248" y="-0.0568"/></g><g stroke-width="0" stroke="rgb(2%, 29%, 48%)" stroke-opacity="1.0" fill="rgb(67%, 62%, 0%)" fill-opacity="1.0"><rect width="0.0271" height="0.0030" x="0.0023" y="0.0024"/></g><g stroke-width="0.0010" stroke="rgb(67%, 62%, 0%)" stroke-opacity="1.0" fill="rgb(67%, 62%, 0%)" fill-opacity="0.25"><rect width="0.0271" height="0.0645" x="0.0294" y="-0.0591"/></g><g stroke-width="0" stroke="rgb(2%, 29%, 48%)" stroke-opacity="1.0" fill="rgb(0%, 37%, 27%)" fill-opacity="1.0"><rect width="0.0271" height="0.0030" x="0.0565" y="0.0024"/></g><g stroke-width="0.0010" stroke="rgb(0%, 37%, 27%)" stroke-opacity="1.0" fill="rgb(0%, 37%, 27%)" fill-opacity="0.25"><rect width="0.0271" height="0.0618" x="0.0836" y="-0.0564"/></g><g stroke-width="0" stroke="rgb(2%, 29%, 48%)" stroke-opacity="1.0" fill="rgb(9%, 20%, 33%)" fill-opacity="1.0"><rect width="0.0271" height="0.0030" x="0.1107" y="0.0024"/></g><g stroke-width="0.0010" stroke="rgb(9%, 20%, 33%)" stroke-opacity="1.0" fill="rgb(9%, 20%, 33%)" fill-opacity="0.25"><rect width="0.0271" height="0.0622" x="0.1379" y="-0.0568"/></g><g stroke-width="0" stroke="rgb(2%, 29%, 48%)" stroke-opacity="1.0" fill="rgb(50%, 0%, 19%)" fill-opacity="1.0"><rect width="0.0271" height="0.0029" x="0.1650" y="0.0025"/></g><g stroke-width="0.0010" stroke="rgb(50%, 0%, 19%)" stroke-opacity="1.0" fill="rgb(50%, 0%, 19%)" fill-opacity="0.25"><rect width="0.0271" height="0.0641" x="0.1921" y="-0.0587"/></g><g stroke-width="0" stroke="rgb(2%, 29%, 48%)" stroke-opacity="1.0" fill="rgb(24%, 33%, 6%)" fill-opacity="1.0"><rect width="0.0271" height="0.0029" x="0.2192" y="0.0025"/></g><g stroke-width="0.0010" stroke="rgb(24%, 33%, 6%)" stroke-opacity="1.0" fill="rgb(24%, 33%, 6%)" fill-opacity="0.25"><rect width="0.0271" height="0.0604" x="0.2463" y="-0.0550"/></g><g stroke-width="0" stroke="rgb(2%, 29%, 48%)" stroke-opacity="1.0" fill="rgb(46%, 28%, 12%)" fill-opacity="1.0"><rect width="0.0271" height="0.0122" x="0.2734" y="-0.0068"/></g><g stroke-width="0.0010" stroke="rgb(46%, 28%, 12%)" stroke-opacity="1.0" fill="rgb(46%, 28%, 12%)" fill-opacity="0.25"><rect width="0.0271" height="0.0122" x="0.3005" y="-0.0068"/></g><g stroke-width="0" stroke="rgb(2%, 29%, 48%)" stroke-opacity="1.0" fill="rgb(92%, 32%, 32%)" fill-opacity="1.0"><rect width="0.0271" height="0.2732" x="0.3276" y="-0.2678"/></g><g stroke-width="0.0010" stroke="rgb(92%, 32%, 32%)" stroke-opacity="1.0" fill="rgb(92%, 32%, 32%)" fill-opacity="0.25"><rect width="0.0271" height="0.2662" x="0.3547" y="-0.2608"/></g></g><g class="errors"><g stroke-width="0.0015" stroke="rgb(5%, 5%, 5%)" stroke-opacity="1.0" fill="none"><polyline points="-0.3664,0.0031 -0.3610,0.0031"/><polyline points="-0.3637,0.0031 -0.3637,0.0017"/><polyline points="-0.3664,0.0017 -0.3610,0.0017"/></g><g stroke-width="0.0015" stroke="rgb(5%, 5%, 5%)" stroke-opacity="1.0" fill="none"><polyline points="-0.3393,-0.0505 -0.3339,-0.0505"/><polyline points="-0.3366,-0.0505 -0.3366,-0.0660"/><polyline points="-0.3393,-0.0660 -0.3339,-0.0660"/></g><g stroke-width="0.0015" stroke="rgb(5%, 5%, 5%)" stroke-opacity="1.0" fill="none"><polyline points="-0.3122,0.0030 -0.3067,0.0030"/><polyline points="-0.3095,0.0030 -0.3095,0.0018"/><polyline points="-0.3122,0.0018 -0.3067,0.0018"/></g><g stroke-width="0.0015" stroke="rgb(5%, 5%, 5%)" stroke-opacity="1.0" fill="none"><polyline points="-0.2851,-0.0439 -0.2796,-0.0439"/><polyline points="-0.2823,-0.0439 -0.2823,-0.0676"/><polyline points="-0.2851,-0.0676 -0.2796,-0.0676"/></g><g stroke-width="0.0015" stroke="rgb(5%, 5%, 5%)" stroke-opacity="1.0" fill="none"><polyline points="-0.2579,0.0036 -0.2525,0.0036"/><polyline points="-0.2552,0.0036 -0.2552,0.0016"/><polyline points="-0.2579,0.0016 -0.2525,0.0016"/></g><g stroke-width="0.0015" stroke="rgb(5%, 5%, 5%)" stroke-opacity="1.0" fill="none"><polyline points="-0.2308,-0.0441 -0.2254,-0.0441"/><polyline points="-0.2281,-0.0441 -0.2281,-0.0675"/><polyline points="-0.2308,-0.0675 -0.2254,-0.0675"/></g><g stroke-width="0.0015" stroke="rgb(5%, 5%, 5%)" stroke-opacity="1.0" fill="none"><polyline points="-0.2037,0.0033 -0.1983,0.0033"/><polyline points="-0.2010,0.0033 -0.2010,0.0016"/><polyline points="-0.2037,0.0016 -0.1983,0.0016"/></g><g stroke-width="0.0015" stroke="rgb(5%, 5%, 5%)" stroke-opacity="1.0" fill="none"><polyline points="-0.1766,-0.0363 -0.1712,-0.0363"/><polyline points="-0.1739,-0.0363 -0.1739,-0.0755"/><polyline points="-0.1766,-0.0755 -0.1712,-0.0755"/></g><g stroke-width="0.0015" stroke="rgb(5%, 5%, 5%)" stroke-opacity="1.0" fill="none"><polyline points="-0.1495,0.0033 -0.1441,0.0033"/><polyline points="-0.1468,0.0033 -0.1468,0.0015"/><polyline points="-0.1495,0.0015 -0.1441,0.0015"/></g><g stroke-width="0.0015" stroke="rgb(5%, 5%, 5%)" stroke-opacity="1.0" fill="none"><polyline points="-0.1224,-0.0369 -0.1170,-0.0369"/><polyline points="-0.1197,-0.0369 -0.1197,-0.0812"/><polyline points="-0.1224,-0.0812 -0.1170,-0.0812"/></g><g stroke-width="0.0015" stroke="rgb(5%, 5%, 5%)" stroke-opacity="1.0" fill="none"><polyline points="-0.0953,0.0035 -0.0899,0.0035"/><polyline points="-0.0926,0.0035 -0.0926,0.0015"/><polyline points="-0.0953,0.0015 -0.0899,0.0015"/></g><g stroke-width="0.0015" stroke="rgb(5%, 5%, 5%)" stroke-opacity="1.0" fill="none"><polyline points="-0.0682,-0.0535 -0.0628,-0.0535"/><polyline points="-0.0655,-0.0535 -0.0655,-0.0665"/><polyline points="-0.0682,-0.0665 -0.0628,-0.0665"/></g><g stroke-width="0.0015" stroke="rgb(5%, 5%, 5%)" stroke-opacity="1.0" fill="none"><polyline points="-0.0411,0.0032 -0.0356,0.0032"/><polyline points="-0.0384,0.0032 -0.0384,0.0017"/><polyline points="-0.0411,0.0017 -0.0356,0.0017"/></g><g stroke-width="0.0015" stroke="rgb(5%, 5%, 5%)" stroke-opacity="1.0" fill="none"><polyline points="-0.0140,-0.0381 -0.0085,-0.0381"/><polyline points="-0.0112,-0.0381 -0.0112,-0.0754"/><polyline points="-0.0140,-0.0754 -0.0085,-0.0754"/></g><g stroke-width="0.0015" stroke="rgb(5%, 5%, 5%)" stroke-opacity="1.0" fill="none"><polyline points="0.0132,0.0032 0.0186,0.0032"/><polyline points="0.0159,0.0032 0.0159,0.0017"/><polyline points="0.0132,0.0017 0.0186,0.0017"/></g><g stroke-width="0.0015" stroke="rgb(5%, 5%, 5%)" stroke-opacity="1.0" fill="none"><polyline points="0.0403,-0.0426 0.0457,-0.0426"/><polyline points="0.0430,-0.0426 0.0430,-0.0755"/><polyline points="0.0403,-0.0755 0.0457,-0.0755"/></g><g stroke-width="0.0015" stroke="rgb(5%, 5%, 5%)" stroke-opacity="1.0" fill="none"><polyline points="0.0674,0.0032 0.0728,0.0032"/><polyline points="0.0701,0.0032 0.0701,0.0017"/><polyline points="0.0674,0.0017 0.0728,0.0017"/></g><g stroke-width="0.0015" stroke="rgb(5%, 5%, 5%)" stroke-opacity="1.0" fill="none"><polyline points="0.0945,-0.0384 0.0999,-0.0384"/><polyline points="0.0972,-0.0384 0.0972,-0.0743"/><polyline points="0.0945,-0.0743 0.0999,-0.0743"/></g><g stroke-width="0.0015" stroke="rgb(5%, 5%, 5%)" stroke-opacity="1.0" fill="none"><polyline points="0.1216,0.0033 0.1270,0.0033"/><polyline points="0.1243,0.0033 0.1243,0.0016"/><polyline points="0.1216,0.0016 0.1270,0.0016"/></g><g stroke-width="0.0015" stroke="rgb(5%, 5%, 5%)" stroke-opacity="1.0" fill="none"><polyline points="0.1487,-0.0444 0.1541,-0.0444"/><polyline points="0.1514,-0.0444 0.1514,-0.0692"/><polyline points="0.1487,-0.0692 0.1541,-0.0692"/></g><g stroke-width="0.0015" stroke="rgb(5%, 5%, 5%)" stroke-opacity="1.0" fill="none"><polyline points="0.1758,0.0032 0.1812,0.0032"/><polyline points="0.1785,0.0032 0.1785,0.0017"/><polyline points="0.1758,0.0017 0.1812,0.0017"/></g><g stroke-width="0.0015" stroke="rgb(5%, 5%, 5%)" stroke-opacity="1.0" fill="none"><polyline points="0.2029,-0.0437 0.2083,-0.0437"/><polyline points="0.2056,-0.0437 0.2056,-0.0737"/><polyline points="0.2029,-0.0737 0.2083,-0.0737"/></g><g stroke-width="0.0015" stroke="rgb(5%, 5%, 5%)" stroke-opacity="1.0" fill="none"><polyline points="0.2300,0.0029 0.2355,0.0029"/><polyline points="0.2327,0.0029 0.2327,0.0020"/><polyline points="0.2300,0.0020 0.2355,0.0020"/></g><g stroke-width="0.0015" stroke="rgb(5%, 5%, 5%)" stroke-opacity="1.0" fill="none"><polyline points="0.2571,-0.0397 0.2626,-0.0397"/><polyline points="0.2599,-0.0397 0.2599,-0.0704"/><polyline points="0.2571,-0.0704 0.2626,-0.0704"/></g><g stroke-width="0.0015" stroke="rgb(5%, 5%, 5%)" stroke-opacity="1.0" fill="none"><polyline points="0.2843,-0.0035 0.2897,-0.0035"/><polyline points="0.2870,-0.0035 0.2870,-0.0100"/><polyline points="0.2843,-0.0100 0.2897,-0.0100"/></g><g stroke-width="0.0015" stroke="rgb(5%, 5%, 5%)" stroke-opacity="1.0" fill="none"><polyline points="0.3114,-0.0050 0.3168,-0.0050"/><polyline points="0.3141,-0.0050 0.3141,-0.0087"/><polyline points="0.3114,-0.0087 0.3168,-0.0087"/></g><g stroke-width="0.0015" stroke="rgb(5%, 5%, 5%)" stroke-opacity="1.0" fill="none"><polyline points="0.3385,-0.2399 0.3439,-0.2399"/><polyline points="0.3412,-0.2399 0.3412,-0.2956"/><polyline points="0.3385,-0.2956 0.3439,-0.2956"/></g><g stroke-width="0.0015" stroke="rgb(5%, 5%, 5%)" stroke-opacity="1.0" fill="none"><polyline points="0.3656,-0.2063 0.3710,-0.2063"/><polyline points="0.3683,-0.2063 0.3683,-0.3152"/><polyline points="0.3656,-0.3152 0.3710,-0.3152"/></g></g><g class="datapadding"></g></g><g class="hud"><g class="axis"><g class="axisbar"><g stroke-width="0" stroke="rgb(0%, 0%, 0%)" stroke-opacity="0" fill="rgb(5%, 5%, 5%)" fill-opacity="0.4"><rect width="0.7610" height="0.0015" x="-0.3782" y="0.0365"/></g></g><g class="ticks"><g class="tickglyph"><g stroke-width="0.0015" stroke="rgb(5%, 5%, 5%)" stroke-opacity="0.4" fill="rgb(5%, 5%, 5%)" fill-opacity="0.4"><polyline points="-0.3637,0.0488
-0.3637,0.0373"/><polyline points="-0.3366,0.0488
-0.3366,0.0373"/><polyline points="-0.3095,0.0488
-0.3095,0.0373"/><polyline points="-0.2823,0.0488
-0.2823,0.0373"/><polyline points="-0.2552,0.0488
-0.2552,0.0373"/><polyline points="-0.2281,0.0488
-0.2281,0.0373"/><polyline points="-0.2010,0.0488
-0.2010,0.0373"/><polyline points="-0.1739,0.0488
-0.1739,0.0373"/><polyline points="-0.1468,0.0488
-0.1468,0.0373"/><polyline points="-0.1197,0.0488
-0.1197,0.0373"/><polyline points="-0.0926,0.0488
-0.0926,0.0373"/><polyline points="-0.0655,0.0488
-0.0655,0.0373"/><polyline points="-0.0384,0.0488
-0.0384,0.0373"/><polyline points="-0.0112,0.0488
-0.0112,0.0373"/><polyline points="0.0159,0.0488
0.0159,0.0373"/><polyline points="0.0430,0.0488
0.0430,0.0373"/><polyline points="0.0701,0.0488
0.0701,0.0373"/><polyline points="0.0972,0.0488
0.0972,0.0373"/><polyline points="0.1243,0.0488
0.1243,0.0373"/><polyline points="0.1514,0.0488
0.1514,0.0373"/><polyline points="0.1785,0.0488
0.1785,0.0373"/><polyline points="0.2056,0.0488
0.2056,0.0373"/><polyline points="0.2327,0.0488
0.2327,0.0373"/><polyline points="0.2599,0.0488
0.2599,0.0373"/><polyline points="0.2870,0.0488
0.2870,0.0373"/><polyline points="0.3141,0.0488
0.3141,0.0373"/><polyline points="0.3412,0.0488
0.3412,0.0373"/><polyline points="0.3683,0.0488
0.3683,0.0373"/></g></g><g class="ticktext"><g stroke-width="0.0" stroke="none" fill="rgb(5%, 5%, 5%)" fill-opacity="1.0" font-size="0.0400" text-anchor="end"><text x="-0.3637" y="0.0698" transform="rotate(-45.0, -0.3637, 0.0698)">CDCL (adaptive)</text><text x="-0.3366" y="0.0698" transform="rotate(-45.0, -0.3366, 0.0698)">CDCL (adaptive), Baseline</text><text x="-0.3095" y="0.0698" transform="rotate(-45.0, -0.3095, 0.0698)">CDCL (adaptive, mVISDS, ExpRestart(100, 2))</text><text x="-0.2823" y="0.0698" transform="rotate(-45.0, -0.2823, 0.0698)">CDCL (adaptive, mVISDS, ExpRestart(100, 2)), Baseline</text><text x="-0.2552" y="0.0698" transform="rotate(-45.0, -0.2552, 0.0698)">CDCL (adaptive, mVISDS, LubyRestart(100, 2))</text><text x="-0.2281" y="0.0698" transform="rotate(-45.0, -0.2281, 0.0698)">CDCL (adaptive, mVISDS, LubyRestart(100, 2)), Baseline</text><text x="-0.2010" y="0.0698" transform="rotate(-45.0, -0.2010, 0.0698)">CDCL (adaptive, mVSIDS)</text><text x="-0.1739" y="0.0698" transform="rotate(-45.0, -0.1739, 0.0698)">CDCL (adaptive, mVSIDS), Baseline</text><text x="-0.1468" y="0.0698" transform="rotate(-45.0, -0.1468, 0.0698)">CDCL (α = 0.75)</text><text x="-0.1197" y="0.0698" transform="rotate(-45.0, -0.1197, 0.0698)">CDCL (α = 0.75), Baseline</text><text x="-0.0926" y="0.0698" transform="rotate(-45.0, -0.0926, 0.0698)">CDCL (α = 0.75, mVISDS)</text><text x="-0.0655" y="0.0698" transform="rotate(-45.0, -0.0655, 0.0698)">CDCL (α = 0.75, mVISDS), Baseline</text><text x="-0.0384" y="0.0698" transform="rotate(-45.0, -0.0384, 0.0698)">CDCL (α = 0.75, mVISDS, ExpRestart(100, 2))</text><text x="-0.0112" y="0.0698" transform="rotate(-45.0, -0.0112, 0.0698)">CDCL (α = 0.75, mVISDS, ExpRestart(100, 2)), Baseline</text><text x="0.0159" y="0.0698" transform="rotate(-45.0, 0.0159, 0.0698)">CDCL (α = 0.75, mVISDS, LubyRestart(100, 2))</text><text x="0.0430" y="0.0698" transform="rotate(-45.0, 0.0430, 0.0698)">CDCL (α = 0.75, mVISDS, LubyRestart(100, 2)), Baseline</text><text x="0.0701" y="0.0698" transform="rotate(-45.0, 0.0701, 0.0698)">CDCL (α = 0.95)</text><text x="0.0972" y="0.0698" transform="rotate(-45.0, 0.0972, 0.0698)">CDCL (α = 0.95), Baseline</text><text x="0.1243" y="0.0698" transform="rotate(-45.0, 0.1243, 0.0698)">CDCL (α = 0.95, mVISDS)</text><text x="0.1514" y="0.0698" transform="rotate(-45.0, 0.1514, 0.0698)">CDCL (α = 0.95, mVISDS), Baseline</text><text x="0.1785" y="0.0698" transform="rotate(-45.0, 0.1785, 0.0698)">CDCL (α = 0.95, mVISDS, ExpRestart(100, 2))</text><text x="0.2056" y="0.0698" transform="rotate(-45.0, 0.2056, 0.0698)">CDCL (α = 0.95, mVISDS, ExpRestart(100, 2)), Baseline</text><text x="0.2327" y="0.0698" transform="rotate(-45.0, 0.2327, 0.0698)">CDCL (α = 0.95, mVISDS, LubyRestart(100, 2))</text><text x="0.2599" y="0.0698" transform="rotate(-45.0, 0.2599, 0.0698)">CDCL (α = 0.95, mVISDS, LubyRestart(100, 2)), Baseline</text><text x="0.2870" y="0.0698" transform="rotate(-45.0, 0.2870, 0.0698)">DPLL</text><text x="0.3141" y="0.0698" transform="rotate(-45.0, 0.3141, 0.0698)">DPLL, Baseline</text><text x="0.3412" y="0.0698" transform="rotate(-45.0, 0.3412, 0.0698)">tableaux</text><text x="0.3683" y="0.0698" transform="rotate(-45.0, 0.3683, 0.0698)">tableaux, Baseline</text></g></g></g></g><g class="axis"><g class="axisbar"><g stroke-width="0" stroke="rgb(0%, 0%, 0%)" stroke-opacity="0" fill="rgb(5%, 5%, 5%)" fill-opacity="0.4"><rect width="0.0019" height="0.3840" x="-0.3838" y="-0.3505"/></g></g><g class="ticks"><g class="ticklines"><g stroke-width="0.0050" stroke="rgb(5%, 5%, 5%)" stroke-opacity="0.05" fill="none"><polyline points="-0.3772,0.0327 0.3819,0.0327"/><polyline points="-0.3772,-0.0219 0.3819,-0.0219"/><polyline points="-0.3772,-0.0765 0.3819,-0.0765"/><polyline points="-0.3772,-0.1312 0.3819,-0.1312"/><polyline points="-0.3772,-0.1858 0.3819,-0.1858"/><polyline points="-0.3772,-0.2404 0.3819,-0.2404"/><polyline points="-0.3772,-0.2951 0.3819,-0.2951"/><polyline points="-0.3772,-0.3497 0.3819,-0.3497"/></g></g><g class="tickglyph"><g stroke-width="0.0019" stroke="rgb(5%, 5%, 5%)" stroke-opacity="0.4" fill="rgb(5%, 5%, 5%)" fill-opacity="0.4"><polyline points="-0.3969,0.0327
-0.3829,0.0327"/><polyline points="-0.3969,-0.0219
-0.3829,-0.0219"/><polyline points="-0.3969,-0.0765
-0.3829,-0.0765"/><polyline points="-0.3969,-0.1312
-0.3829,-0.1312"/><polyline points="-0.3969,-0.1858
-0.3829,-0.1858"/><polyline points="-0.3969,-0.2404
-0.3829,-0.2404"/><polyline points="-0.3969,-0.2951
-0.3829,-0.2951"/><polyline points="-0.3969,-0.3497
-0.3829,-0.3497"/></g></g><g class="ticktext"><g stroke-width="0.0" stroke="none" fill="rgb(5%, 5%, 5%)" fill-opacity="1.0" font-size="0.0400" text-anchor="end"><text x="-0.4073" y="0.0369">-0.6</text><text x="-0.4073" y="-0.0177">-0.4</text><text x="-0.4073" y="-0.0723">-0.2</text><text x="-0.4073" y="-0.1270"> 0.0</text><text x="-0.4073" y="-0.1816"> 0.2</text><text x="-0.4073" y="-0.2362"> 0.4</text><text x="-0.4073" y="-0.2909"> 0.6</text><text x="-0.4073" y="-0.3455"> 0.8</text></g></g></g></g><g class="title"><g stroke-width="0.0" stroke="none" fill="rgb(5%, 5%, 5%)" fill-opacity="1.0" font-size="0.12" text-anchor="middle"><text x="-0.1661" y="-0.3868">Time: huge/5/cnf</text></g></g><g class="legend"><g class="padding"></g><g class="padding"></g><g class="frame"><g stroke-width="0.0004" stroke="rgb(5%, 5%, 5%)" stroke-opacity="1.0" fill="rgb(5%, 5%, 5%)" fill-opacity="0"><rect width="0.4834" height="0.7572" x="0.2301" y="-0.3459"/></g></g><g class="legendContent"><g stroke-width="0.0001" stroke="rgb(92%, 32%, 32%)" stroke-opacity="1.0" fill="rgb(92%, 32%, 32%)" fill-opacity="0.25"><rect width="0.0246" height="0.0201" x="0.6806" y="0.3845"/></g><g stroke-width="0.0" stroke="none" fill="rgb(5%, 5%, 5%)" fill-opacity="1.0" font-size="0.0131" text-anchor="start"><text x="0.2383" y="0.3972">tableaux, Baseline</text></g><g stroke-width="0" stroke="rgb(2%, 29%, 48%)" stroke-opacity="1.0" fill="rgb(92%, 32%, 32%)" fill-opacity="1.0"><rect width="0.0246" height="0.0201" x="0.6806" y="0.3577"/></g><g stroke-width="0.0" stroke="none" fill="rgb(5%, 5%, 5%)" fill-opacity="1.0" font-size="0.0131" text-anchor="start"><text x="0.2383" y="0.3704">tableaux</text></g><g stroke-width="0.0001" stroke="rgb(46%, 28%, 12%)" stroke-opacity="1.0" fill="rgb(46%, 28%, 12%)" fill-opacity="0.25"><rect width="0.0246" height="0.0201" x="0.6806" y="0.3309"/></g><g stroke-width="0.0" stroke="none" fill="rgb(5%, 5%, 5%)" fill-opacity="1.0" font-size="0.0131" text-anchor="start"><text x="0.2383" y="0.3436">DPLL, Baseline</text></g><g stroke-width="0" stroke="rgb(2%, 29%, 48%)" stroke-opacity="1.0" fill="rgb(46%, 28%, 12%)" fill-opacity="1.0"><rect width="0.0246" height="0.0201" x="0.6806" y="0.3041"/></g><g stroke-width="0.0" stroke="none" fill="rgb(5%, 5%, 5%)" fill-opacity="1.0" font-size="0.0131" text-anchor="start"><text x="0.2383" y="0.3168">DPLL</text></g><g stroke-width="0.0001" stroke="rgb(24%, 33%, 6%)" stroke-opacity="1.0" fill="rgb(24%, 33%, 6%)" fill-opacity="0.25"><rect width="0.0246" height="0.0201" x="0.6806" y="0.2773"/></g><g stroke-width="0.0" stroke="none" fill="rgb(5%, 5%, 5%)" fill-opacity="1.0" font-size="0.0131" text-anchor="start"><text x="0.2383" y="0.2900">CDCL (α = 0.95, mVISDS, LubyRestart(100, 2)), Baseline</text></g><g stroke-width="0" stroke="rgb(2%, 29%, 48%)" stroke-opacity="1.0" fill="rgb(24%, 33%, 6%)" fill-opacity="1.0"><rect width="0.0246" height="0.0201" x="0.6806" y="0.2505"/></g><g stroke-width="0.0" stroke="none" fill="rgb(5%, 5%, 5%)" fill-opacity="1.0" font-size="0.0131" text-anchor="start"><text x="0.2383" y="0.2632">CDCL (α = 0.95, mVISDS, LubyRestart(100, 2))</text></g><g stroke-width="0.0001" stroke="rgb(50%, 0%, 19%)" stroke-opacity="1.0" fill="rgb(50%, 0%, 19%)" fill-opacity="0.25"><rect width="0.0246" height="0.0201" x="0.6806" y="0.2237"/></g><g stroke-width="0.0" stroke="none" fill="rgb(5%, 5%, 5%)" fill-opacity="1.0" font-size="0.0131" text-anchor="start"><text x="0.2383" y="0.2364">CDCL (α = 0.95, mVISDS, ExpRestart(100, 2)), Baseline</text></g><g stroke-width="0" stroke="rgb(2%, 29%, 48%)" stroke-opacity="1.0" fill="rgb(50%, 0%, 19%)" fill-opacity="1.0"><rect width="0.0246" height="0.0201" x="0.6806" y="0.1969"/></g><g stroke-width="0.0" stroke="none" fill="rgb(5%, 5%, 5%)" fill-opacity="1.0" font-size="0.0131" text-anchor="start"><text x="0.2383" y="0.2096">CDCL (α = 0.95, mVISDS, ExpRestart(100, 2))</text></g><g stroke-width="0.0001" stroke="rgb(9%, 20%, 33%)" stroke-opacity="1.0" fill="rgb(9%, 20%, 33%)" fill-opacity="0.25"><rect width="0.0246" height="0.0201" x="0.6806" y="0.1701"/></g><g stroke-width="0.0" stroke="none" fill="rgb(5%, 5%, 5%)" fill-opacity="1.0" font-size="0.0131" text-anchor="start"><text x="0.2383" y="0.1828">CDCL (α = 0.95, mVISDS), Baseline</text></g><g stroke-width="0" stroke="rgb(2%, 29%, 48%)" stroke-opacity="1.0" fill="rgb(9%, 20%, 33%)" fill-opacity="1.0"><rect width="0.0246" height="0.0201" x="0.6806" y="0.1433"/></g><g stroke-width="0.0" stroke="none" fill="rgb(5%, 5%, 5%)" fill-opacity="1.0" font-size="0.0131" text-anchor="start"><text x="0.2383" y="0.1560">CDCL (α = 0.95, mVISDS)</text></g><g stroke-width="0.0001" stroke="rgb(0%, 37%, 27%)" stroke-opacity="1.0" fill="rgb(0%, 37%, 27%)" fill-opacity="0.25"><rect width="0.0246" height="0.0201" x="0.6806" y="0.1165"/></g><g stroke-width="0.0" stroke="none" fill="rgb(5%, 5%, 5%)" fill-opacity="1.0" font-size="0.0131" text-anchor="start"><text x="0.2383" y="0.1292">CDCL (α = 0.95), Baseline</text></g><g stroke-width="0" stroke="rgb(2%, 29%, 48%)" stroke-opacity="1.0" fill="rgb(0%, 37%, 27%)" fill-opacity="1.0"><rect width="0.0246" height="0.0201" x="0.6806" y="0.0897"/></g><g stroke-width="0.0" stroke="none" fill="rgb(5%, 5%, 5%)" fill-opacity="1.0" font-size="0.0131" text-anchor="start"><text x="0.2383" y="0.1024">CDCL (α = 0.95)</text></g><g stroke-width="0.0001" stroke="rgb(67%, 62%, 0%)" stroke-opacity="1.0" fill="rgb(67%, 62%, 0%)" fill-opacity="0.25"><rect width="0.0246" height="0.0201" x="0.6806" y="0.0629"/></g><g stroke-width="0.0" stroke="none" fill="rgb(5%, 5%, 5%)" fill-opacity="1.0" font-size="0.0131" text-anchor="start"><text x="0.2383" y="0.0756">CDCL (α = 0.75, mVISDS, LubyRestart(100, 2)), Baseline</text></g><g stroke-width="0" stroke="rgb(2%, 29%, 48%)" stroke-opacity="1.0" fill="rgb(67%, 62%, 0%)" fill-opacity="1.0"><rect width="0.0246" height="0.0201" x="0.6806" y="0.0361"/></g><g stroke-width="0.0" stroke="none" fill="rgb(5%, 5%, 5%)" fill-opacity="1.0" font-size="0.0131" text-anchor="start"><text x="0.2383" y="0.0488">CDCL (α = 0.75, mVISDS, LubyRestart(100, 2))</text></g><g stroke-width="0.0001" stroke="rgb(0%, 64%, 70%)" stroke-opacity="1.0" fill="rgb(0%, 64%, 70%)" fill-opacity="0.25"><rect width="0.0246" height="0.0201" x="0.6806" y="0.0093"/></g><g stroke-width="0.0" stroke="none" fill="rgb(5%, 5%, 5%)" fill-opacity="1.0" font-size="0.0131" text-anchor="start"><text x="0.2383" y="0.0220">CDCL (α = 0.75, mVISDS, ExpRestart(100, 2)), Baseline</text></g><g stroke-width="0" stroke="rgb(2%, 29%, 48%)" stroke-opacity="1.0" fill="rgb(0%, 64%, 70%)" fill-opacity="1.0"><rect width="0.0246" height="0.0201" x="0.6806" y="-0.0175"/></g><g stroke-width="0.0" stroke="none" fill="rgb(5%, 5%, 5%)" fill-opacity="1.0" font-size="0.0131" text-anchor="start"><text x="0.2383" y="-0.0048">CDCL (α = 0.75, mVISDS, ExpRestart(100, 2))</text></g><g stroke-width="0.0001" stroke="rgb(16%, 61%, 0%)" stroke-opacity="1.0" fill="rgb(16%, 61%, 0%)" fill-opacity="0.25"><rect width="0.0246" height="0.0201" x="0.6806" y="-0.0443"/></g><g stroke-width="0.0" stroke="none" fill="rgb(5%, 5%, 5%)" fill-opacity="1.0" font-size="0.0131" text-anchor="start"><text x="0.2383" y="-0.0316">CDCL (α = 0.75, mVISDS), Baseline</text></g><g stroke-width="0" stroke="rgb(2%, 29%, 48%)" stroke-opacity="1.0" fill="rgb(16%, 61%, 0%)" fill-opacity="1.0"><rect width="0.0246" height="0.0201" x="0.6806" y="-0.0711"/></g><g stroke-width="0.0" stroke="none" fill="rgb(5%, 5%, 5%)" fill-opacity="1.0" font-size="0.0131" text-anchor="start"><text x="0.2383" y="-0.0584">CDCL (α = 0.75, mVISDS)</text></g><g stroke-width="0.0001" stroke="rgb(34%, 34%, 0%)" stroke-opacity="1.0" fill="rgb(34%, 34%, 0%)" fill-opacity="0.25"><rect width="0.0246" height="0.0201" x="0.6806" y="-0.0980"/></g><g stroke-width="0.0" stroke="none" fill="rgb(5%, 5%, 5%)" fill-opacity="1.0" font-size="0.0131" text-anchor="start"><text x="0.2383" y="-0.0852">CDCL (α = 0.75), Baseline</text></g><g stroke-width="0" stroke="rgb(2%, 29%, 48%)" stroke-opacity="1.0" fill="rgb(34%, 34%, 0%)" fill-opacity="1.0"><rect width="0.0246" height="0.0201" x="0.6806" y="-0.1248"/></g><g stroke-width="0.0" stroke="none" fill="rgb(5%, 5%, 5%)" fill-opacity="1.0" font-size="0.0131" text-anchor="start"><text x="0.2383" y="-0.1120">CDCL (α = 0.75)</text></g><g stroke-width="0.0001" stroke="rgb(90%, 37%, 58%)" stroke-opacity="1.0" fill="rgb(90%, 37%, 58%)" fill-opacity="0.25"><rect width="0.0246" height="0.0201" x="0.6806" y="-0.1516"/></g><g stroke-width="0.0" stroke="none" fill="rgb(5%, 5%, 5%)" fill-opacity="1.0" font-size="0.0131" text-anchor="start"><text x="0.2383" y="-0.1388">CDCL (adaptive, mVSIDS), Baseline</text></g><g stroke-width="0" stroke="rgb(2%, 29%, 48%)" stroke-opacity="1.0" fill="rgb(90%, 37%, 58%)" fill-opacity="1.0"><rect width="0.0246" height="0.0201" x="0.6806" y="-0.1784"/></g><g stroke-width="0.0" stroke="none" fill="rgb(5%, 5%, 5%)" fill-opacity="1.0" font-size="0.0131" text-anchor="start"><text x="0.2383" y="-0.1656">CDCL (adaptive, mVSIDS)</text></g><g stroke-width="0.0001" stroke="rgb(0%, 72%, 98%)" stroke-opacity="1.0" fill="rgb(0%, 72%, 98%)" fill-opacity="0.25"><rect width="0.0246" height="0.0201" x="0.6806" y="-0.2052"/></g><g stroke-width="0.0" stroke="none" fill="rgb(5%, 5%, 5%)" fill-opacity="1.0" font-size="0.0131" text-anchor="start"><text x="0.2383" y="-0.1924">CDCL (adaptive, mVISDS, LubyRestart(100, 2)), Baseline</text></g><g stroke-width="0" stroke="rgb(2%, 29%, 48%)" stroke-opacity="1.0" fill="rgb(0%, 72%, 98%)" fill-opacity="1.0"><rect width="0.0246" height="0.0201" x="0.6806" y="-0.2320"/></g><g stroke-width="0.0" stroke="none" fill="rgb(5%, 5%, 5%)" fill-opacity="1.0" font-size="0.0131" text-anchor="start"><text x="0.2383" y="-0.2193">CDCL (adaptive, mVISDS, LubyRestart(100, 2))</text></g><g stroke-width="0.0001" stroke="rgb(0%, 35%, 53%)" stroke-opacity="1.0" fill="rgb(0%, 35%, 53%)" fill-opacity="0.25"><rect width="0.0246" height="0.0201" x="0.6806" y="-0.2588"/></g><g stroke-width="0.0" stroke="none" fill="rgb(5%, 5%, 5%)" fill-opacity="1.0" font-size="0.0131" text-anchor="start"><text x="0.2383" y="-0.2461">CDCL (adaptive, mVISDS, ExpRestart(100, 2)), Baseline</text></g><g stroke-width="0" stroke="rgb(2%, 29%, 48%)" stroke-opacity="1.0" fill="rgb(0%, 35%, 53%)" fill-opacity="1.0"><rect width="0.0246" height="0.0201" x="0.6806" y="-0.2856"/></g><g stroke-width="0.0" stroke="none" fill="rgb(5%, 5%, 5%)" fill-opacity="1.0" font-size="0.0131" text-anchor="start"><text x="0.2383" y="-0.2729">CDCL (adaptive, mVISDS, ExpRestart(100, 2))</text></g><g stroke-width="0.0001" stroke="rgb(0%, 57%, 62%)" stroke-opacity="1.0" fill="rgb(0%, 57%, 62%)" fill-opacity="0.25"><rect width="0.0246" height="0.0201" x="0.6806" y="-0.3124"/></g><g stroke-width="0.0" stroke="none" fill="rgb(5%, 5%, 5%)" fill-opacity="1.0" font-size="0.0131" text-anchor="start"><text x="0.2383" y="-0.2997">CDCL (adaptive), Baseline</text></g><g stroke-width="0" stroke="rgb(2%, 29%, 48%)" stroke-opacity="1.0" fill="rgb(0%, 57%, 62%)" fill-opacity="1.0"><rect width="0.0246" height="0.0201" x="0.6806" y="-0.3392"/></g><g stroke-width="0.0" stroke="none" fill="rgb(5%, 5%, 5%)" fill-opacity="1.0" font-size="0.0131" text-anchor="start"><text x="0.2383" y="-0.3265">CDCL (adaptive)</text></g></g></g><g class="frame"><g stroke-width="0" stroke="rgb(0%, 0%, 0%)" stroke-opacity="0" fill="rgb(100%, 100%, 100%)" fill-opacity="0.02"><rect width="1.6180" height="1.0" x="-0.8090" y="-0.5"/></g></g><g class="title"><g stroke-width="0.0" stroke="none" fill="rgb(5%, 5%, 5%)" fill-opacity="1.0" font-size="0.0600" text-anchor="middle"><text x="-0.7424" y="0" transform="rotate(-90.0, -0.7424, 0)">Time [ms]</text></g></g></g></svg>