<svg xmlns="http://www.w3.org/2000/svg" xmlns:xlink="http://www.w3.org/1999/xlink" width="442" height="300" viewBox="-0.8090 -0.5 1.6180 1.0965"><style>svg {
  color-scheme: light dark;
}
{
  .canvas g, .title g, .axisbar g, .ticktext g, .tickglyph g, .ticklines g, .legendContent g text {
    fill: rgb(5%, 5%, 5%);
  }
  .ticklines g, .tickglyph g, .legendBorder g {
    stroke: rgb(5%, 5%, 5%);
  }
  .legendBorder g {
    fill: rgb(94%, 94%, 94%);
  }
}
@media (prefers-color-scheme:dark) {
  .canvas g, .title g, .axisbar g, .ticktext g, .tickglyph g, .ticklines g, .legendContent g text {
    fill: rgb(94%, 94%, 94%);
  }
  .ticklines g, .tickglyph g, .legendBorder g {
    stroke: rgb(94%, 94%, 94%);
  }
  .legendBorder g {
    fill: rgb(5%, 5%, 5%);
  }
}</style><g class="chart"><g class="barchart"><g stroke-width="0" stroke="rgb(2%, 29%, 48%)" stroke-opacity="1.0" fill="rgb(57%, 0%, 21%)" fill-opacity="1.0"><rect width="0.0180" height="0.0076" x="-0.3890" y="0.1456"/></g><g stroke-width="0.0010" stroke="rgb(57%, 0%, 21%)" stroke-opacity="1.0" fill="rgb(57%, 0%, 21%)" fill-opacity="0.25"><rect width="0.0180" height="0.0024" x="-0.3711" y="0.1507"/></g><g stroke-width="0" stroke="rgb(2%, 29%, 48%)" stroke-opacity="1.0" fill="rgb(47%, 34%, 0%)" fill-opacity="1.0"><rect width="0.0180" height="0.0037" x="-0.3531" y="0.1494"/></g><g stroke-width="0.0010" stroke="rgb(47%, 34%, 0%)" stroke-opacity="1.0" fill="rgb(47%, 34%, 0%)" fill-opacity="0.25"><rect width="0.0180" height="0.0012" x="-0.3351" y="0.1520"/></g><g stroke-width="0" stroke="rgb(2%, 29%, 48%)" stroke-opacity="1.0" fill="rgb(70%, 21%, 0%)" fill-opacity="1.0"><rect width="0.0180" height="0.0036" x="-0.3172" y="0.1496"/></g><g stroke-width="0" stroke="rgb(2%, 29%, 48%)" stroke-opacity="1.0" fill="rgb(0%, 36%, 0%)" fill-opacity="1.0"><rect width="0.0180" height="0.0036" x="-0.2992" y="0.1496"/></g><g stroke-width="0.0010" stroke="rgb(0%, 36%, 0%)" stroke-opacity="1.0" fill="rgb(0%, 36%, 0%)" fill-opacity="0.25"><rect width="0.0180" height="0.0012" x="-0.2813" y="0.1520"/></g><g stroke-width="0" stroke="rgb(2%, 29%, 48%)" stroke-opacity="1.0" fill="rgb(0%, 21%, 55%)" fill-opacity="1.0"><rect width="0.0180" height="0.0037" x="-0.2633" y="0.1495"/></g><g stroke-width="0" stroke="rgb(2%, 29%, 48%)" stroke-opacity="1.0" fill="rgb(72%, 66%, 0%)" fill-opacity="1.0"><rect width="0.0180" height="0.0061" x="-0.2454" y="0.1471"/></g><g stroke-width="0.0010" stroke="rgb(72%, 66%, 0%)" stroke-opacity="1.0" fill="rgb(72%, 66%, 0%)" fill-opacity="0.25"><rect width="0.0180" height="0.0019" x="-0.2274" y="0.1512"/></g><g stroke-width="0" stroke="rgb(2%, 29%, 48%)" stroke-opacity="1.0" fill="rgb(37%, 17%, 0%)" fill-opacity="1.0"><rect width="0.0180" height="0.0031" x="-0.2094" y="0.1501"/></g><g stroke-width="0" stroke="rgb(2%, 29%, 48%)" stroke-opacity="1.0" fill="rgb(20%, 15%, 40%)" fill-opacity="1.0"><rect width="0.0180" height="0.0134" x="-0.1915" y="0.1398"/></g><g stroke-width="0.0010" stroke="rgb(20%, 15%, 40%)" stroke-opacity="1.0" fill="rgb(20%, 15%, 40%)" fill-opacity="0.25"><rect width="0.0180" height="0.0041" x="-0.1735" y="0.1490"/></g><g stroke-width="0" stroke="rgb(2%, 29%, 48%)" stroke-opacity="1.0" fill="rgb(48%, 65%, 0%)" fill-opacity="1.0"><rect width="0.0180" height="0.0091" x="-0.1556" y="0.1440"/></g><g stroke-width="0.0010" stroke="rgb(48%, 65%, 0%)" stroke-opacity="1.0" fill="rgb(48%, 65%, 0%)" fill-opacity="0.25"><rect width="0.0180" height="0.0028" x="-0.1376" y="0.1504"/></g><g stroke-width="0" stroke="rgb(2%, 29%, 48%)" stroke-opacity="1.0" fill="rgb(0%, 72%, 67%)" fill-opacity="1.0"><rect width="0.0180" height="0.0040" x="-0.1197" y="0.1492"/></g><g stroke-width="0.0010" stroke="rgb(0%, 72%, 67%)" stroke-opacity="1.0" fill="rgb(0%, 72%, 67%)" fill-opacity="0.25"><rect width="0.0180" height="0.0012" x="-0.1017" y="0.1519"/></g><g stroke-width="0" stroke="rgb(2%, 29%, 48%)" stroke-opacity="1.0" fill="rgb(98%, 15%, 25%)" fill-opacity="1.0"><rect width="0.0180" height="0.0041" x="-0.0837" y="0.1491"/></g><g stroke-width="0" stroke="rgb(2%, 29%, 48%)" stroke-opacity="1.0" fill="rgb(57%, 62%, 78%)" fill-opacity="1.0"><rect width="0.0180" height="0.0040" x="-0.0658" y="0.1491"/></g><g stroke-width="0.0010" stroke="rgb(57%, 62%, 78%)" stroke-opacity="1.0" fill="rgb(57%, 62%, 78%)" fill-opacity="0.25"><rect width="0.0180" height="0.0013" x="-0.0478" y="0.1519"/></g><g stroke-width="0" stroke="rgb(2%, 29%, 48%)" stroke-opacity="1.0" fill="rgb(53%, 24%, 0%)" fill-opacity="1.0"><rect width="0.0180" height="0.0041" x="-0.0299" y="0.1491"/></g><g stroke-width="0" stroke="rgb(2%, 29%, 48%)" stroke-opacity="1.0" fill="rgb(69%, 17%, 0%)" fill-opacity="1.0"><rect width="0.0180" height="0.0110" x="-0.0119" y="0.1421"/></g><g stroke-width="0.0010" stroke="rgb(69%, 17%, 0%)" stroke-opacity="1.0" fill="rgb(69%, 17%, 0%)" fill-opacity="0.25"><rect width="0.0180" height="0.0034" x="0.0061" y="0.1498"/></g><g stroke-width="0" stroke="rgb(2%, 29%, 48%)" stroke-opacity="1.0" fill="rgb(0%, 42%, 48%)" fill-opacity="1.0"><rect width="0.0180" height="0.0066" x="0.0240" y="0.1466"/></g><g stroke-width="0.0010" stroke="rgb(0%, 42%, 48%)" stroke-opacity="1.0" fill="rgb(0%, 42%, 48%)" fill-opacity="0.25"><rect width="0.0180" height="0.0020" x="0.0420" y="0.1512"/></g><g stroke-width="0" stroke="rgb(2%, 29%, 48%)" stroke-opacity="1.0" fill="rgb(42%, 44%, 14%)" fill-opacity="1.0"><rect width="0.0180" height="0.0027" x="0.0599" y="0.1504"/></g><g stroke-width="0.0010" stroke="rgb(42%, 44%, 14%)" stroke-opacity="1.0" fill="rgb(42%, 44%, 14%)" fill-opacity="0.25"><rect width="0.0180" height="0.0009" x="0.0779" y="0.1523"/></g><g stroke-width="0" stroke="rgb(2%, 29%, 48%)" stroke-opacity="1.0" fill="rgb(54%, 0%, 0%)" fill-opacity="1.0"><rect width="0.0180" height="0.0027" x="0.0958" y="0.1505"/></g><g stroke-width="0" stroke="rgb(2%, 29%, 48%)" stroke-opacity="1.0" fill="rgb(100%, 37%, 0%)" fill-opacity="1.0"><rect width="0.0180" height="0.0027" x="0.1138" y="0.1505"/></g><g stroke-width="0.0010" stroke="rgb(100%, 37%, 0%)" stroke-opacity="1.0" fill="rgb(100%, 37%, 0%)" fill-opacity="0.25"><rect width="0.0180" height="0.0009" x="0.1318" y="0.1523"/></g><g stroke-width="0" stroke="rgb(2%, 29%, 48%)" stroke-opacity="1.0" fill="rgb(0%, 38%, 61%)" fill-opacity="1.0"><rect width="0.0180" height="0.0028" x="0.1497" y="0.1504"/></g><g stroke-width="0" stroke="rgb(2%, 29%, 48%)" stroke-opacity="1.0" fill="rgb(0%, 49%, 30%)" fill-opacity="1.0"><rect width="0.0180" height="0.2606" x="0.1677" y="-0.1074"/></g><g stroke-width="0.0010" stroke="rgb(0%, 49%, 30%)" stroke-opacity="1.0" fill="rgb(0%, 49%, 30%)" fill-opacity="0.25"><rect width="0.0180" height="0.0965" x="0.1856" y="0.0567"/></g></g><g class="errors"></g></g><g class="hud"><g class="axis"><g class="ticks"><g class="tickglyph"><g stroke-width="0.0040" stroke="rgb(5%, 5%, 5%)" stroke-opacity="0.4" fill="rgb(5%, 5%, 5%)" fill-opacity="0.4"><g transform="rotate(-90.0, -0.4342, 0.1532)"><polyline points="-0.4342,0.1682
-0.4342,0.1382"/></g><g transform="rotate(-90.0, -0.4342, 0.1157)"><polyline points="-0.4342,0.1307
-0.4342,0.1007"/></g><g transform="rotate(-90.0, -0.4342, 0.0783)"><polyline points="-0.4342,0.0933
-0.4342,0.0633"/></g><g transform="rotate(-90.0, -0.4342, 0.0408)"><polyline points="-0.4342,0.0558
-0.4342,0.0258"/></g><g transform="rotate(-90.0, -0.4342, 0.0033)"><polyline points="-0.4342,0.0183
-0.4342,-0.0117"/></g><g transform="rotate(-90.0, -0.4342, -0.0341)"><polyline points="-0.4342,-0.0191
-0.4342,-0.0491"/></g><g transform="rotate(-90.0, -0.4342, -0.0716)"><polyline points="-0.4342,-0.0566
-0.4342,-0.0866"/></g><g transform="rotate(-90.0, -0.4342, -0.1090)"><polyline points="-0.4342,-0.0940
-0.4342,-0.1240"/></g></g></g><g class="ticktext"><g stroke-width="0.0" stroke="none" fill="rgb(5%, 5%, 5%)" fill-opacity="1.0" font-size="0.0203" text-anchor="end"><text x="-0.4488" y="0.1568">  0</text><text x="-0.4488" y="0.1193"> 50</text><text x="-0.4488" y="0.0819">100</text><text x="-0.4488" y="0.0444">150</text><text x="-0.4488" y="0.0069">200</text><text x="-0.4488" y="-0.0305">250</text><text x="-0.4488" y="-0.0680">300</text><text x="-0.4488" y="-0.1054">350</text></g></g><g class="ticklines"><g stroke-width="0.0050" stroke="rgb(5%, 5%, 5%)" stroke-opacity="0.05" fill="none"><polyline points="-0.4219,0.1532 0.2365,0.1532"/><polyline points="-0.4219,0.1157 0.2365,0.1157"/><polyline points="-0.4219,0.0783 0.2365,0.0783"/><polyline points="-0.4219,0.0408 0.2365,0.0408"/><polyline points="-0.4219,0.0033 0.2365,0.0033"/><polyline points="-0.4219,-0.0341 0.2365,-0.0341"/><polyline points="-0.4219,-0.0716 0.2365,-0.0716"/><polyline points="-0.4219,-0.1090 0.2365,-0.1090"/></g></g></g><g class="axisbar"><g stroke-width="0" stroke="rgb(0%, 0%, 0%)" stroke-opacity="0" fill="rgb(5%, 5%, 5%)" fill-opacity="0.4"><rect width="0.0016" height="0.2632" x="-0.4276" y="-0.1095"/></g></g></g><g class="axis"><g class="ticks"><g class="tickglyph"><g stroke-width="0.0040" stroke="rgb(5%, 5%, 5%)" stroke-opacity="0.4" fill="rgb(5%, 5%, 5%)" fill-opacity="0.4"><polyline points="-0.3800,0.1762
-0.3800,0.1462"/><polyline points="-0.3621,0.1762
-0.3621,0.1462"/><polyline points="-0.3441,0.1762
-0.3441,0.1462"/><polyline points="-0.3262,0.1762
-0.3262,0.1462"/><polyline points="-0.3082,0.1762
-0.3082,0.1462"/><polyline points="-0.2903,0.1762
-0.2903,0.1462"/><polyline points="-0.2723,0.1762
-0.2723,0.1462"/><polyline points="-0.2543,0.1762
-0.2543,0.1462"/><polyline points="-0.2364,0.1762
-0.2364,0.1462"/><polyline points="-0.2184,0.1762
-0.2184,0.1462"/><polyline points="-0.2005,0.1762
-0.2005,0.1462"/><polyline points="-0.1825,0.1762
-0.1825,0.1462"/><polyline points="-0.1645,0.1762
-0.1645,0.1462"/><polyline points="-0.1466,0.1762
-0.1466,0.1462"/><polyline points="-0.1286,0.1762
-0.1286,0.1462"/><polyline points="-0.1107,0.1762
-0.1107,0.1462"/><polyline points="-0.0927,0.1762
-0.0927,0.1462"/><polyline points="-0.0748,0.1762
-0.0748,0.1462"/><polyline points="-0.0568,0.1762
-0.0568,0.1462"/><polyline points="-0.0388,0.1762
-0.0388,0.1462"/><polyline points="-0.0209,0.1762
-0.0209,0.1462"/><polyline points="-0.0029,0.1762
-0.0029,0.1462"/><polyline points="0.0150,0.1762
0.0150,0.1462"/><polyline points="0.0330,0.1762
0.0330,0.1462"/><polyline points="0.0510,0.1762
0.0510,0.1462"/><polyline points="0.0689,0.1762
0.0689,0.1462"/><polyline points="0.0869,0.1762
0.0869,0.1462"/><polyline points="0.1048,0.1762
0.1048,0.1462"/><polyline points="0.1228,0.1762
0.1228,0.1462"/><polyline points="0.1407,0.1762
0.1407,0.1462"/><polyline points="0.1587,0.1762
0.1587,0.1462"/><polyline points="0.1767,0.1762
0.1767,0.1462"/><polyline points="0.1946,0.1762
0.1946,0.1462"/></g></g><g class="ticktext"><g stroke-width="0.0" stroke="none" fill="rgb(5%, 5%, 5%)" fill-opacity="1.0" font-size="0.0203" text-anchor="end"><text x="-0.3800" y="0.1778" transform="rotate(-45.0, -0.3800, 0.1778)">CDCL (adaptive)</text><text x="-0.3621" y="0.1778" transform="rotate(-45.0, -0.3621, 0.1778)">CDCL (adaptive), Baseline</text><text x="-0.3441" y="0.1778" transform="rotate(-45.0, -0.3441, 0.1778)">CDCL (adaptive, mVISDS, ExpRestart(100, 2))</text><text x="-0.3262" y="0.1778" transform="rotate(-45.0, -0.3262, 0.1778)">CDCL (adaptive, mVISDS, ExpRestart(100, 2)), Baseline</text><text x="-0.3082" y="0.1778" transform="rotate(-45.0, -0.3082, 0.1778)">CDCL (adaptive, mVISDS, ExpRestart(100, 2), Clause Decay 0.999)</text><text x="-0.2903" y="0.1778" transform="rotate(-45.0, -0.2903, 0.1778)">CDCL (adaptive, mVISDS, LubyRestart(100, 2))</text><text x="-0.2723" y="0.1778" transform="rotate(-45.0, -0.2723, 0.1778)">CDCL (adaptive, mVISDS, LubyRestart(100, 2)), Baseline</text><text x="-0.2543" y="0.1778" transform="rotate(-45.0, -0.2543, 0.1778)">CDCL (adaptive, mVISDS, LubyRestart(100, 2), Clause Decay)</text><text x="-0.2364" y="0.1778" transform="rotate(-45.0, -0.2364, 0.1778)">CDCL (adaptive, mVSIDS)</text><text x="-0.2184" y="0.1778" transform="rotate(-45.0, -0.2184, 0.1778)">CDCL (adaptive, mVSIDS), Baseline</text><text x="-0.2005" y="0.1778" transform="rotate(-45.0, -0.2005, 0.1778)">CDCL (adaptive, mVSIDS, Clause Decay 0.999)</text><text x="-0.1825" y="0.1778" transform="rotate(-45.0, -0.1825, 0.1778)">CDCL (α = 0.75)</text><text x="-0.1645" y="0.1778" transform="rotate(-45.0, -0.1645, 0.1778)">CDCL (α = 0.75), Baseline</text><text x="-0.1466" y="0.1778" transform="rotate(-45.0, -0.1466, 0.1778)">CDCL (α = 0.75, mVISDS)</text><text x="-0.1286" y="0.1778" transform="rotate(-45.0, -0.1286, 0.1778)">CDCL (α = 0.75, mVISDS), Baseline</text><text x="-0.1107" y="0.1778" transform="rotate(-45.0, -0.1107, 0.1778)">CDCL (α = 0.75, mVISDS, ExpRestart(100, 2))</text><text x="-0.0927" y="0.1778" transform="rotate(-45.0, -0.0927, 0.1778)">CDCL (α = 0.75, mVISDS, ExpRestart(100, 2)), Baseline</text><text x="-0.0748" y="0.1778" transform="rotate(-45.0, -0.0748, 0.1778)">CDCL (α = 0.75, mVISDS, ExpRestart(100, 2), Clause Decay 0.999)</text><text x="-0.0568" y="0.1778" transform="rotate(-45.0, -0.0568, 0.1778)">CDCL (α = 0.75, mVISDS, LubyRestart(100, 2))</text><text x="-0.0388" y="0.1778" transform="rotate(-45.0, -0.0388, 0.1778)">CDCL (α = 0.75, mVISDS, LubyRestart(100, 2)), Baseline</text><text x="-0.0209" y="0.1778" transform="rotate(-45.0, -0.0209, 0.1778)">CDCL (α = 0.75, mVISDS, LubyRestart(100, 2), Clause Decay 0.999)</text><text x="-0.0029" y="0.1778" transform="rotate(-45.0, -0.0029, 0.1778)">CDCL (α = 0.95)</text><text x="0.0150" y="0.1778" transform="rotate(-45.0, 0.0150, 0.1778)">CDCL (α = 0.95), Baseline</text><text x="0.0330" y="0.1778" transform="rotate(-45.0, 0.0330, 0.1778)">CDCL (α = 0.95, mVISDS)</text><text x="0.0510" y="0.1778" transform="rotate(-45.0, 0.0510, 0.1778)">CDCL (α = 0.95, mVISDS), Baseline</text><text x="0.0689" y="0.1778" transform="rotate(-45.0, 0.0689, 0.1778)">CDCL (α = 0.95, mVISDS, ExpRestart(100, 2))</text><text x="0.0869" y="0.1778" transform="rotate(-45.0, 0.0869, 0.1778)">CDCL (α = 0.95, mVISDS, ExpRestart(100, 2)), Baseline</text><text x="0.1048" y="0.1778" transform="rotate(-45.0, 0.1048, 0.1778)">CDCL (α = 0.95, mVISDS, ExpRestart(100, 2), Clause Decay 0.999)</text><text x="0.1228" y="0.1778" transform="rotate(-45.0, 0.1228, 0.1778)">CDCL (α = 0.95, mVISDS, LubyRestart(100, 2))</text><text x="0.1407" y="0.1778" transform="rotate(-45.0, 0.1407, 0.1778)">CDCL (α = 0.95, mVISDS, LubyRestart(100, 2)), Baseline</text><text x="0.1587" y="0.1778" transform="rotate(-45.0, 0.1587, 0.1778)">CDCL (α = 0.95, mVISDS, LubyRestart(100, 2), Clause Decay 0.999)</text><text x="0.1767" y="0.1778" transform="rotate(-45.0, 0.1767, 0.1778)">DPLL</text><text x="0.1946" y="0.1778" transform="rotate(-45.0, 0.1946, 0.1778)">DPLL, Baseline</text></g></g></g><g class="axisbar"><g stroke-width="0" stroke="rgb(0%, 0%, 0%)" stroke-opacity="0" fill="rgb(5%, 5%, 5%)" fill-opacity="0.4"><rect width="0.6601" height="0.0010" x="-0.4228" y="0.1559"/></g></g></g><g class="title"><g stroke-width="0.0" stroke="none" fill="rgb(5%, 5%, 5%)" fill-opacity="1.0" font-size="0.0488" text-anchor="middle"><text x="-0.2450" y="-0.1358">Copied: SATLIB/uf100-430/uf100-010/cnf</text></g></g><g class="legend"><g class="legendBorder"><g stroke-width="0.0017" stroke="rgb(5%, 5%, 5%)" stroke-opacity="1.0" fill="rgb(5%, 5%, 5%)" fill-opacity="0"><rect width="0.4191" height="0.6113" x="0.3071" y="-0.4466"/></g></g><g class="legendContent"><g stroke-width="0.0" stroke="none" fill="rgb(5%, 5%, 5%)" fill-opacity="1.0" font-size="0.0128" text-anchor="start"><text x="0.3142" y="0.1552">DPLL, Baseline</text></g><g stroke-width="0.0002" stroke="rgb(0%, 49%, 30%)" stroke-opacity="1.0" fill="rgb(0%, 49%, 30%)" fill-opacity="0.25"><rect width="0.0214" height="0.0138" x="0.6977" y="0.1463"/></g><g stroke-width="0.0" stroke="none" fill="rgb(5%, 5%, 5%)" fill-opacity="1.0" font-size="0.0128" text-anchor="start"><text x="0.3142" y="0.1368">DPLL</text></g><g stroke-width="0" stroke="rgb(2%, 29%, 48%)" stroke-opacity="1.0" fill="rgb(0%, 49%, 30%)" fill-opacity="1.0"><rect width="0.0214" height="0.0138" x="0.6977" y="0.1279"/></g><g stroke-width="0.0" stroke="none" fill="rgb(5%, 5%, 5%)" fill-opacity="1.0" font-size="0.0128" text-anchor="start"><text x="0.3142" y="0.1185">CDCL (α = 0.95, mVISDS, LubyRestart(100, 2), Clause Decay 0.999)</text></g><g stroke-width="0" stroke="rgb(2%, 29%, 48%)" stroke-opacity="1.0" fill="rgb(0%, 38%, 61%)" fill-opacity="1.0"><rect width="0.0214" height="0.0138" x="0.6977" y="0.1095"/></g><g stroke-width="0.0" stroke="none" fill="rgb(5%, 5%, 5%)" fill-opacity="1.0" font-size="0.0128" text-anchor="start"><text x="0.3142" y="0.1001">CDCL (α = 0.95, mVISDS, LubyRestart(100, 2)), Baseline</text></g><g stroke-width="0.0002" stroke="rgb(100%, 37%, 0%)" stroke-opacity="1.0" fill="rgb(100%, 37%, 0%)" fill-opacity="0.25"><rect width="0.0214" height="0.0138" x="0.6977" y="0.0911"/></g><g stroke-width="0.0" stroke="none" fill="rgb(5%, 5%, 5%)" fill-opacity="1.0" font-size="0.0128" text-anchor="start"><text x="0.3142" y="0.0817">CDCL (α = 0.95, mVISDS, LubyRestart(100, 2))</text></g><g stroke-width="0" stroke="rgb(2%, 29%, 48%)" stroke-opacity="1.0" fill="rgb(100%, 37%, 0%)" fill-opacity="1.0"><rect width="0.0214" height="0.0138" x="0.6977" y="0.0727"/></g><g stroke-width="0.0" stroke="none" fill="rgb(5%, 5%, 5%)" fill-opacity="1.0" font-size="0.0128" text-anchor="start"><text x="0.3142" y="0.0633">CDCL (α = 0.95, mVISDS, ExpRestart(100, 2), Clause Decay 0.999)</text></g><g stroke-width="0" stroke="rgb(2%, 29%, 48%)" stroke-opacity="1.0" fill="rgb(54%, 0%, 0%)" fill-opacity="1.0"><rect width="0.0214" height="0.0138" x="0.6977" y="0.0544"/></g><g stroke-width="0.0" stroke="none" fill="rgb(5%, 5%, 5%)" fill-opacity="1.0" font-size="0.0128" text-anchor="start"><text x="0.3142" y="0.0449">CDCL (α = 0.95, mVISDS, ExpRestart(100, 2)), Baseline</text></g><g stroke-width="0.0002" stroke="rgb(42%, 44%, 14%)" stroke-opacity="1.0" fill="rgb(42%, 44%, 14%)" fill-opacity="0.25"><rect width="0.0214" height="0.0138" x="0.6977" y="0.0360"/></g><g stroke-width="0.0" stroke="none" fill="rgb(5%, 5%, 5%)" fill-opacity="1.0" font-size="0.0128" text-anchor="start"><text x="0.3142" y="0.0265">CDCL (α = 0.95, mVISDS, ExpRestart(100, 2))</text></g><g stroke-width="0" stroke="rgb(2%, 29%, 48%)" stroke-opacity="1.0" fill="rgb(42%, 44%, 14%)" fill-opacity="1.0"><rect width="0.0214" height="0.0138" x="0.6977" y="0.0176"/></g><g stroke-width="0.0" stroke="none" fill="rgb(5%, 5%, 5%)" fill-opacity="1.0" font-size="0.0128" text-anchor="start"><text x="0.3142" y="0.0082">CDCL (α = 0.95, mVISDS), Baseline</text></g><g stroke-width="0.0002" stroke="rgb(0%, 42%, 48%)" stroke-opacity="1.0" fill="rgb(0%, 42%, 48%)" fill-opacity="0.25"><rect width="0.0214" height="0.0138" x="0.6977" y="-0.0008"/></g><g stroke-width="0.0" stroke="none" fill="rgb(5%, 5%, 5%)" fill-opacity="1.0" font-size="0.0128" text-anchor="start"><text x="0.3142" y="-0.0102">CDCL (α = 0.95, mVISDS)</text></g><g stroke-width="0" stroke="rgb(2%, 29%, 48%)" stroke-opacity="1.0" fill="rgb(0%, 42%, 48%)" fill-opacity="1.0"><rect width="0.0214" height="0.0138" x="0.6977" y="-0.0192"/></g><g stroke-width="0.0" stroke="none" fill="rgb(5%, 5%, 5%)" fill-opacity="1.0" font-size="0.0128" text-anchor="start"><text x="0.3142" y="-0.0286">CDCL (α = 0.95), Baseline</text></g><g stroke-width="0.0002" stroke="rgb(69%, 17%, 0%)" stroke-opacity="1.0" fill="rgb(69%, 17%, 0%)" fill-opacity="0.25"><rect width="0.0214" height="0.0138" x="0.6977" y="-0.0376"/></g><g stroke-width="0.0" stroke="none" fill="rgb(5%, 5%, 5%)" fill-opacity="1.0" font-size="0.0128" text-anchor="start"><text x="0.3142" y="-0.0470">CDCL (α = 0.95)</text></g><g stroke-width="0" stroke="rgb(2%, 29%, 48%)" stroke-opacity="1.0" fill="rgb(69%, 17%, 0%)" fill-opacity="1.0"><rect width="0.0214" height="0.0138" x="0.6977" y="-0.0560"/></g><g stroke-width="0.0" stroke="none" fill="rgb(5%, 5%, 5%)" fill-opacity="1.0" font-size="0.0128" text-anchor="start"><text x="0.3142" y="-0.0654">CDCL (α = 0.75, mVISDS, LubyRestart(100, 2), Clause Decay 0.999)</text></g><g stroke-width="0" stroke="rgb(2%, 29%, 48%)" stroke-opacity="1.0" fill="rgb(53%, 24%, 0%)" fill-opacity="1.0"><rect width="0.0214" height="0.0138" x="0.6977" y="-0.0743"/></g><g stroke-width="0.0" stroke="none" fill="rgb(5%, 5%, 5%)" fill-opacity="1.0" font-size="0.0128" text-anchor="start"><text x="0.3142" y="-0.0838">CDCL (α = 0.75, mVISDS, LubyRestart(100, 2)), Baseline</text></g><g stroke-width="0.0002" stroke="rgb(57%, 62%, 78%)" stroke-opacity="1.0" fill="rgb(57%, 62%, 78%)" fill-opacity="0.25"><rect width="0.0214" height="0.0138" x="0.6977" y="-0.0927"/></g><g stroke-width="0.0" stroke="none" fill="rgb(5%, 5%, 5%)" fill-opacity="1.0" font-size="0.0128" text-anchor="start"><text x="0.3142" y="-0.1022">CDCL (α = 0.75, mVISDS, LubyRestart(100, 2))</text></g><g stroke-width="0" stroke="rgb(2%, 29%, 48%)" stroke-opacity="1.0" fill="rgb(57%, 62%, 78%)" fill-opacity="1.0"><rect width="0.0214" height="0.0138" x="0.6977" y="-0.1111"/></g><g stroke-width="0.0" stroke="none" fill="rgb(5%, 5%, 5%)" fill-opacity="1.0" font-size="0.0128" text-anchor="start"><text x="0.3142" y="-0.1206">CDCL (α = 0.75, mVISDS, ExpRestart(100, 2), Clause Decay 0.999)</text></g><g stroke-width="0" stroke="rgb(2%, 29%, 48%)" stroke-opacity="1.0" fill="rgb(98%, 15%, 25%)" fill-opacity="1.0"><rect width="0.0214" height="0.0138" x="0.6977" y="-0.1295"/></g><g stroke-width="0.0" stroke="none" fill="rgb(5%, 5%, 5%)" fill-opacity="1.0" font-size="0.0128" text-anchor="start"><text x="0.3142" y="-0.1389">CDCL (α = 0.75, mVISDS, ExpRestart(100, 2)), Baseline</text></g><g stroke-width="0.0002" stroke="rgb(0%, 72%, 67%)" stroke-opacity="1.0" fill="rgb(0%, 72%, 67%)" fill-opacity="0.25"><rect width="0.0214" height="0.0138" x="0.6977" y="-0.1479"/></g><g stroke-width="0.0" stroke="none" fill="rgb(5%, 5%, 5%)" fill-opacity="1.0" font-size="0.0128" text-anchor="start"><text x="0.3142" y="-0.1573">CDCL (α = 0.75, mVISDS, ExpRestart(100, 2))</text></g><g stroke-width="0" stroke="rgb(2%, 29%, 48%)" stroke-opacity="1.0" fill="rgb(0%, 72%, 67%)" fill-opacity="1.0"><rect width="0.0214" height="0.0138" x="0.6977" y="-0.1663"/></g><g stroke-width="0.0" stroke="none" fill="rgb(5%, 5%, 5%)" fill-opacity="1.0" font-size="0.0128" text-anchor="start"><text x="0.3142" y="-0.1757">CDCL (α = 0.75, mVISDS), Baseline</text></g><g stroke-width="0.0002" stroke="rgb(48%, 65%, 0%)" stroke-opacity="1.0" fill="rgb(48%, 65%, 0%)" fill-opacity="0.25"><rect width="0.0214" height="0.0138" x="0.6977" y="-0.1847"/></g><g stroke-width="0.0" stroke="none" fill="rgb(5%, 5%, 5%)" fill-opacity="1.0" font-size="0.0128" text-anchor="start"><text x="0.3142" y="-0.1941">CDCL (α = 0.75, mVISDS)</text></g><g stroke-width="0" stroke="rgb(2%, 29%, 48%)" stroke-opacity="1.0" fill="rgb(48%, 65%, 0%)" fill-opacity="1.0"><rect width="0.0214" height="0.0138" x="0.6977" y="-0.2031"/></g><g stroke-width="0.0" stroke="none" fill="rgb(5%, 5%, 5%)" fill-opacity="1.0" font-size="0.0128" text-anchor="start"><text x="0.3142" y="-0.2125">CDCL (α = 0.75), Baseline</text></g><g stroke-width="0.0002" stroke="rgb(20%, 15%, 40%)" stroke-opacity="1.0" fill="rgb(20%, 15%, 40%)" fill-opacity="0.25"><rect width="0.0214" height="0.0138" x="0.6977" y="-0.2214"/></g><g stroke-width="0.0" stroke="none" fill="rgb(5%, 5%, 5%)" fill-opacity="1.0" font-size="0.0128" text-anchor="start"><text x="0.3142" y="-0.2309">CDCL (α = 0.75)</text></g><g stroke-width="0" stroke="rgb(2%, 29%, 48%)" stroke-opacity="1.0" fill="rgb(20%, 15%, 40%)" fill-opacity="1.0"><rect width="0.0214" height="0.0138" x="0.6977" y="-0.2398"/></g><g stroke-width="0.0" stroke="none" fill="rgb(5%, 5%, 5%)" fill-opacity="1.0" font-size="0.0128" text-anchor="start"><text x="0.3142" y="-0.2493">CDCL (adaptive, mVSIDS, Clause Decay 0.999)</text></g><g stroke-width="0" stroke="rgb(2%, 29%, 48%)" stroke-opacity="1.0" fill="rgb(37%, 17%, 0%)" fill-opacity="1.0"><rect width="0.0214" height="0.0138" x="0.6977" y="-0.2582"/></g><g stroke-width="0.0" stroke="none" fill="rgb(5%, 5%, 5%)" fill-opacity="1.0" font-size="0.0128" text-anchor="start"><text x="0.3142" y="-0.2676">CDCL (adaptive, mVSIDS), Baseline</text></g><g stroke-width="0.0002" stroke="rgb(72%, 66%, 0%)" stroke-opacity="1.0" fill="rgb(72%, 66%, 0%)" fill-opacity="0.25"><rect width="0.0214" height="0.0138" x="0.6977" y="-0.2766"/></g><g stroke-width="0.0" stroke="none" fill="rgb(5%, 5%, 5%)" fill-opacity="1.0" font-size="0.0128" text-anchor="start"><text x="0.3142" y="-0.2860">CDCL (adaptive, mVSIDS)</text></g><g stroke-width="0" stroke="rgb(2%, 29%, 48%)" stroke-opacity="1.0" fill="rgb(72%, 66%, 0%)" fill-opacity="1.0"><rect width="0.0214" height="0.0138" x="0.6977" y="-0.2950"/></g><g stroke-width="0.0" stroke="none" fill="rgb(5%, 5%, 5%)" fill-opacity="1.0" font-size="0.0128" text-anchor="start"><text x="0.3142" y="-0.3044">CDCL (adaptive, mVISDS, LubyRestart(100, 2), Clause Decay)</text></g><g stroke-width="0" stroke="rgb(2%, 29%, 48%)" stroke-opacity="1.0" fill="rgb(0%, 21%, 55%)" fill-opacity="1.0"><rect width="0.0214" height="0.0138" x="0.6977" y="-0.3134"/></g><g stroke-width="0.0" stroke="none" fill="rgb(5%, 5%, 5%)" fill-opacity="1.0" font-size="0.0128" text-anchor="start"><text x="0.3142" y="-0.3228">CDCL (adaptive, mVISDS, LubyRestart(100, 2)), Baseline</text></g><g stroke-width="0.0002" stroke="rgb(0%, 36%, 0%)" stroke-opacity="1.0" fill="rgb(0%, 36%, 0%)" fill-opacity="0.25"><rect width="0.0214" height="0.0138" x="0.6977" y="-0.3317"/></g><g stroke-width="0.0" stroke="none" fill="rgb(5%, 5%, 5%)" fill-opacity="1.0" font-size="0.0128" text-anchor="start"><text x="0.3142" y="-0.3412">CDCL (adaptive, mVISDS, LubyRestart(100, 2))</text></g><g stroke-width="0" stroke="rgb(2%, 29%, 48%)" stroke-opacity="1.0" fill="rgb(0%, 36%, 0%)" fill-opacity="1.0"><rect width="0.0214" height="0.0138" x="0.6977" y="-0.3501"/></g><g stroke-width="0.0" stroke="none" fill="rgb(5%, 5%, 5%)" fill-opacity="1.0" font-size="0.0128" text-anchor="start"><text x="0.3142" y="-0.3596">CDCL (adaptive, mVISDS, ExpRestart(100, 2), Clause Decay 0.999)</text></g><g stroke-width="0" stroke="rgb(2%, 29%, 48%)" stroke-opacity="1.0" fill="rgb(70%, 21%, 0%)" fill-opacity="1.0"><rect width="0.0214" height="0.0138" x="0.6977" y="-0.3685"/></g><g stroke-width="0.0" stroke="none" fill="rgb(5%, 5%, 5%)" fill-opacity="1.0" font-size="0.0128" text-anchor="start"><text x="0.3142" y="-0.3779">CDCL (adaptive, mVISDS, ExpRestart(100, 2)), Baseline</text></g><g stroke-width="0.0002" stroke="rgb(47%, 34%, 0%)" stroke-opacity="1.0" fill="rgb(47%, 34%, 0%)" fill-opacity="0.25"><rect width="0.0214" height="0.0138" x="0.6977" y="-0.3869"/></g><g stroke-width="0.0" stroke="none" fill="rgb(5%, 5%, 5%)" fill-opacity="1.0" font-size="0.0128" text-anchor="start"><text x="0.3142" y="-0.3963">CDCL (adaptive, mVISDS, ExpRestart(100, 2))</text></g><g stroke-width="0" stroke="rgb(2%, 29%, 48%)" stroke-opacity="1.0" fill="rgb(47%, 34%, 0%)" fill-opacity="1.0"><rect width="0.0214" height="0.0138" x="0.6977" y="-0.4053"/></g><g stroke-width="0.0" stroke="none" fill="rgb(5%, 5%, 5%)" fill-opacity="1.0" font-size="0.0128" text-anchor="start"><text x="0.3142" y="-0.4147">CDCL (adaptive), Baseline</text></g><g stroke-width="0.0002" stroke="rgb(57%, 0%, 21%)" stroke-opacity="1.0" fill="rgb(57%, 0%, 21%)" fill-opacity="0.25"><rect width="0.0214" height="0.0138" x="0.6977" y="-0.4237"/></g><g stroke-width="0.0" stroke="none" fill="rgb(5%, 5%, 5%)" fill-opacity="1.0" font-size="0.0128" text-anchor="start"><text x="0.3142" y="-0.4331">CDCL (adaptive)</text></g><g stroke-width="0" stroke="rgb(2%, 29%, 48%)" stroke-opacity="1.0" fill="rgb(57%, 0%, 21%)" fill-opacity="1.0"><rect width="0.0214" height="0.0138" x="0.6977" y="-0.4421"/></g></g></g><g class="frame"><g stroke-width="0" stroke="rgb(0%, 0%, 0%)" stroke-opacity="0" fill="rgb(100%, 100%, 100%)" fill-opacity="0.02"><rect width="1.6180" height="1.0" x="-0.8090" y="-0.5"/></g></g><g class="title"><g stroke-width="0.0" stroke="none" fill="rgb(5%, 5%, 5%)" fill-opacity="1.0" font-size="0.0244" text-anchor="middle"><text x="-0.7512" y="0" transform="rotate(-90.0, -0.7512, 0)">Copied [MiB]</text></g></g></g></svg>