<svg xmlns="http://www.w3.org/2000/svg" xmlns:xlink="http://www.w3.org/1999/xlink" width="455" height="300" viewBox="-0.8090 -0.5 1.6180 1.0656"><style>svg {
  color-scheme: light dark;
}
{
  .canvas g, .title g, .axisbar g, .ticktext g, .tickglyph g, .ticklines g, .legendContent g text {
    fill: rgb(5%, 5%, 5%);
  }
  .ticklines g, .tickglyph g, .legendBorder g {
    stroke: rgb(5%, 5%, 5%);
  }
  .legendBorder g {
    fill: rgb(94%, 94%, 94%);
  }
}
@media (prefers-color-scheme:dark) {
  .canvas g, .title g, .axisbar g, .ticktext g, .tickglyph g, .ticklines g, .legendContent g text {
    fill: rgb(94%, 94%, 94%);
  }
  .ticklines g, .tickglyph g, .legendBorder g {
    stroke: rgb(94%, 94%, 94%);
  }
  .legendBorder g {
    fill: rgb(5%, 5%, 5%);
  }
}</style><g class="chart"><g class="barchart"><g stroke-width="0" stroke="rgb(2%, 29%, 48%)" stroke-opacity="1.0" fill="rgb(57%, 0%, 21%)" fill-opacity="1.0"><rect width="0.0214" height="0.0090" x="-0.3983" y="0.1120"/></g><g stroke-width="0.0010" stroke="rgb(57%, 0%, 21%)" stroke-opacity="1.0" fill="rgb(57%, 0%, 21%)" fill-opacity="0.25"><rect width="0.0214" height="0.0085" x="-0.3769" y="0.1124"/></g><g stroke-width="0" stroke="rgb(2%, 29%, 48%)" stroke-opacity="1.0" fill="rgb(47%, 34%, 0%)" fill-opacity="1.0"><rect width="0.0214" height="0.0037" x="-0.3555" y="0.1172"/></g><g stroke-width="0.0010" stroke="rgb(47%, 34%, 0%)" stroke-opacity="1.0" fill="rgb(47%, 34%, 0%)" fill-opacity="0.25"><rect width="0.0214" height="0.0036" x="-0.3340" y="0.1173"/></g><g stroke-width="0" stroke="rgb(2%, 29%, 48%)" stroke-opacity="1.0" fill="rgb(70%, 21%, 0%)" fill-opacity="1.0"><rect width="0.0214" height="0.0045" x="-0.3126" y="0.1164"/></g><g stroke-width="0" stroke="rgb(2%, 29%, 48%)" stroke-opacity="1.0" fill="rgb(0%, 36%, 0%)" fill-opacity="1.0"><rect width="0.0214" height="0.0037" x="-0.2912" y="0.1172"/></g><g stroke-width="0.0010" stroke="rgb(0%, 36%, 0%)" stroke-opacity="1.0" fill="rgb(0%, 36%, 0%)" fill-opacity="0.25"><rect width="0.0214" height="0.0036" x="-0.2697" y="0.1173"/></g><g stroke-width="0" stroke="rgb(2%, 29%, 48%)" stroke-opacity="1.0" fill="rgb(0%, 21%, 55%)" fill-opacity="1.0"><rect width="0.0214" height="0.0045" x="-0.2483" y="0.1164"/></g><g stroke-width="0" stroke="rgb(2%, 29%, 48%)" stroke-opacity="1.0" fill="rgb(72%, 66%, 0%)" fill-opacity="1.0"><rect width="0.0214" height="0.0064" x="-0.2269" y="0.1145"/></g><g stroke-width="0.0010" stroke="rgb(72%, 66%, 0%)" stroke-opacity="1.0" fill="rgb(72%, 66%, 0%)" fill-opacity="0.25"><rect width="0.0214" height="0.0061" x="-0.2054" y="0.1148"/></g><g stroke-width="0" stroke="rgb(2%, 29%, 48%)" stroke-opacity="1.0" fill="rgb(20%, 15%, 40%)" fill-opacity="1.0"><rect width="0.0214" height="0.0075" x="-0.1840" y="0.1134"/></g><g stroke-width="0.0010" stroke="rgb(20%, 15%, 40%)" stroke-opacity="1.0" fill="rgb(20%, 15%, 40%)" fill-opacity="0.25"><rect width="0.0214" height="0.0070" x="-0.1626" y="0.1139"/></g><g stroke-width="0" stroke="rgb(2%, 29%, 48%)" stroke-opacity="1.0" fill="rgb(48%, 65%, 0%)" fill-opacity="1.0"><rect width="0.0214" height="0.0064" x="-0.1411" y="0.1145"/></g><g stroke-width="0.0010" stroke="rgb(48%, 65%, 0%)" stroke-opacity="1.0" fill="rgb(48%, 65%, 0%)" fill-opacity="0.25"><rect width="0.0214" height="0.0061" x="-0.1197" y="0.1148"/></g><g stroke-width="0" stroke="rgb(2%, 29%, 48%)" stroke-opacity="1.0" fill="rgb(0%, 72%, 67%)" fill-opacity="1.0"><rect width="0.0214" height="0.0081" x="-0.0983" y="0.1128"/></g><g stroke-width="0.0010" stroke="rgb(0%, 72%, 67%)" stroke-opacity="1.0" fill="rgb(0%, 72%, 67%)" fill-opacity="0.25"><rect width="0.0214" height="0.0076" x="-0.0768" y="0.1133"/></g><g stroke-width="0" stroke="rgb(2%, 29%, 48%)" stroke-opacity="1.0" fill="rgb(57%, 62%, 78%)" fill-opacity="1.0"><rect width="0.0214" height="0.0081" x="-0.0554" y="0.1128"/></g><g stroke-width="0.0010" stroke="rgb(57%, 62%, 78%)" stroke-opacity="1.0" fill="rgb(57%, 62%, 78%)" fill-opacity="0.25"><rect width="0.0214" height="0.0076" x="-0.0340" y="0.1133"/></g><g stroke-width="0" stroke="rgb(2%, 29%, 48%)" stroke-opacity="1.0" fill="rgb(69%, 17%, 0%)" fill-opacity="1.0"><rect width="0.0214" height="0.0060" x="-0.0125" y="0.1149"/></g><g stroke-width="0.0010" stroke="rgb(69%, 17%, 0%)" stroke-opacity="1.0" fill="rgb(69%, 17%, 0%)" fill-opacity="0.25"><rect width="0.0214" height="0.0057" x="0.0089" y="0.1152"/></g><g stroke-width="0" stroke="rgb(2%, 29%, 48%)" stroke-opacity="1.0" fill="rgb(0%, 42%, 48%)" fill-opacity="1.0"><rect width="0.0214" height="0.0052" x="0.0303" y="0.1157"/></g><g stroke-width="0.0010" stroke="rgb(0%, 42%, 48%)" stroke-opacity="1.0" fill="rgb(0%, 42%, 48%)" fill-opacity="0.25"><rect width="0.0214" height="0.0049" x="0.0518" y="0.1160"/></g><g stroke-width="0" stroke="rgb(2%, 29%, 48%)" stroke-opacity="1.0" fill="rgb(42%, 44%, 14%)" fill-opacity="1.0"><rect width="0.0214" height="0.0046" x="0.0732" y="0.1163"/></g><g stroke-width="0.0010" stroke="rgb(42%, 44%, 14%)" stroke-opacity="1.0" fill="rgb(42%, 44%, 14%)" fill-opacity="0.25"><rect width="0.0214" height="0.0043" x="0.0946" y="0.1166"/></g><g stroke-width="0" stroke="rgb(2%, 29%, 48%)" stroke-opacity="1.0" fill="rgb(100%, 37%, 0%)" fill-opacity="1.0"><rect width="0.0214" height="0.0046" x="0.1161" y="0.1163"/></g><g stroke-width="0.0010" stroke="rgb(100%, 37%, 0%)" stroke-opacity="1.0" fill="rgb(100%, 37%, 0%)" fill-opacity="0.25"><rect width="0.0214" height="0.0043" x="0.1375" y="0.1166"/></g><g stroke-width="0" stroke="rgb(2%, 29%, 48%)" stroke-opacity="1.0" fill="rgb(0%, 49%, 30%)" fill-opacity="1.0"><rect width="0.0214" height="0.2446" x="0.1589" y="-0.1237"/></g><g stroke-width="0.0010" stroke="rgb(0%, 49%, 30%)" stroke-opacity="1.0" fill="rgb(0%, 49%, 30%)" fill-opacity="0.25"><rect width="0.0214" height="0.2446" x="0.1804" y="-0.1237"/></g></g><g class="errors"></g></g><g class="hud"><g class="axis"><g class="ticks"><g class="tickglyph"><g stroke-width="0.0040" stroke="rgb(5%, 5%, 5%)" stroke-opacity="0.4" fill="rgb(5%, 5%, 5%)" fill-opacity="0.4"><g transform="rotate(-90.0, -0.4440, 0.1209)"><polyline points="-0.4440,0.1359
-0.4440,0.1059"/></g><g transform="rotate(-90.0, -0.4440, 0.0726)"><polyline points="-0.4440,0.0876
-0.4440,0.0576"/></g><g transform="rotate(-90.0, -0.4440, 0.0242)"><polyline points="-0.4440,0.0392
-0.4440,0.0092"/></g><g transform="rotate(-90.0, -0.4440, -0.0241)"><polyline points="-0.4440,-0.0091
-0.4440,-0.0391"/></g><g transform="rotate(-90.0, -0.4440, -0.0724)"><polyline points="-0.4440,-0.0574
-0.4440,-0.0874"/></g><g transform="rotate(-90.0, -0.4440, -0.1208)"><polyline points="-0.4440,-0.1058
-0.4440,-0.1358"/></g><g transform="rotate(-90.0, -0.4440, -0.1691)"><polyline points="-0.4440,-0.1541
-0.4440,-0.1841"/></g></g></g><g class="ticktext"><g stroke-width="0.0" stroke="none" fill="rgb(5%, 5%, 5%)" fill-opacity="1.0" font-size="0.0206" text-anchor="end"><text x="-0.4589" y="0.1249"> 0</text><text x="-0.4589" y="0.0766"> 5</text><text x="-0.4589" y="0.0282">10</text><text x="-0.4589" y="-0.0201">15</text><text x="-0.4589" y="-0.0685">20</text><text x="-0.4589" y="-0.1168">25</text><text x="-0.4589" y="-0.1651">30</text></g></g><g class="ticklines"><g stroke-width="0.0050" stroke="rgb(5%, 5%, 5%)" stroke-opacity="0.05" fill="none"><polyline points="-0.4317,0.1209 0.2351,0.1209"/><polyline points="-0.4317,0.0726 0.2351,0.0726"/><polyline points="-0.4317,0.0242 0.2351,0.0242"/><polyline points="-0.4317,-0.0241 0.2351,-0.0241"/><polyline points="-0.4317,-0.0724 0.2351,-0.0724"/><polyline points="-0.4317,-0.1208 0.2351,-0.1208"/><polyline points="-0.4317,-0.1691 0.2351,-0.1691"/></g></g></g><g class="axisbar"><g stroke-width="0" stroke="rgb(0%, 0%, 0%)" stroke-opacity="0" fill="rgb(5%, 5%, 5%)" fill-opacity="0.4"><rect width="0.0016" height="0.2912" x="-0.4374" y="-0.1697"/></g></g></g><g class="axis"><g class="ticks"><g class="tickglyph"><g stroke-width="0.0040" stroke="rgb(5%, 5%, 5%)" stroke-opacity="0.4" fill="rgb(5%, 5%, 5%)" fill-opacity="0.4"><polyline points="-0.3876,0.1448
-0.3876,0.1148"/><polyline points="-0.3662,0.1448
-0.3662,0.1148"/><polyline points="-0.3447,0.1448
-0.3447,0.1148"/><polyline points="-0.3233,0.1448
-0.3233,0.1148"/><polyline points="-0.3019,0.1448
-0.3019,0.1148"/><polyline points="-0.2804,0.1448
-0.2804,0.1148"/><polyline points="-0.2590,0.1448
-0.2590,0.1148"/><polyline points="-0.2376,0.1448
-0.2376,0.1148"/><polyline points="-0.2162,0.1448
-0.2162,0.1148"/><polyline points="-0.1947,0.1448
-0.1947,0.1148"/><polyline points="-0.1733,0.1448
-0.1733,0.1148"/><polyline points="-0.1519,0.1448
-0.1519,0.1148"/><polyline points="-0.1304,0.1448
-0.1304,0.1148"/><polyline points="-0.1090,0.1448
-0.1090,0.1148"/><polyline points="-0.0876,0.1448
-0.0876,0.1148"/><polyline points="-0.0661,0.1448
-0.0661,0.1148"/><polyline points="-0.0447,0.1448
-0.0447,0.1148"/><polyline points="-0.0233,0.1448
-0.0233,0.1148"/><polyline points="-0.0018,0.1448
-0.0018,0.1148"/><polyline points="0.0196,0.1448
0.0196,0.1148"/><polyline points="0.0410,0.1448
0.0410,0.1148"/><polyline points="0.0625,0.1448
0.0625,0.1148"/><polyline points="0.0839,0.1448
0.0839,0.1148"/><polyline points="0.1053,0.1448
0.1053,0.1148"/><polyline points="0.1268,0.1448
0.1268,0.1148"/><polyline points="0.1482,0.1448
0.1482,0.1148"/><polyline points="0.1696,0.1448
0.1696,0.1148"/><polyline points="0.1911,0.1448
0.1911,0.1148"/></g></g><g class="ticktext"><g stroke-width="0.0" stroke="none" fill="rgb(5%, 5%, 5%)" fill-opacity="1.0" font-size="0.0206" text-anchor="end"><text x="-0.3876" y="0.1482" transform="rotate(-45.0, -0.3876, 0.1482)">CDCL (adaptive)</text><text x="-0.3662" y="0.1482" transform="rotate(-45.0, -0.3662, 0.1482)">CDCL (adaptive), Baseline</text><text x="-0.3447" y="0.1482" transform="rotate(-45.0, -0.3447, 0.1482)">CDCL (adaptive, mVISDS, ExpRestart(100, 2))</text><text x="-0.3233" y="0.1482" transform="rotate(-45.0, -0.3233, 0.1482)">CDCL (adaptive, mVISDS, ExpRestart(100, 2)), Baseline</text><text x="-0.3019" y="0.1482" transform="rotate(-45.0, -0.3019, 0.1482)">CDCL (adaptive, mVISDS, ExpRestart(100, 2), Clause Decay 0.999)</text><text x="-0.2804" y="0.1482" transform="rotate(-45.0, -0.2804, 0.1482)">CDCL (adaptive, mVISDS, LubyRestart(100, 2))</text><text x="-0.2590" y="0.1482" transform="rotate(-45.0, -0.2590, 0.1482)">CDCL (adaptive, mVISDS, LubyRestart(100, 2)), Baseline</text><text x="-0.2376" y="0.1482" transform="rotate(-45.0, -0.2376, 0.1482)">CDCL (adaptive, mVISDS, LubyRestart(100, 2), Clause Decay)</text><text x="-0.2162" y="0.1482" transform="rotate(-45.0, -0.2162, 0.1482)">CDCL (adaptive, mVSIDS)</text><text x="-0.1947" y="0.1482" transform="rotate(-45.0, -0.1947, 0.1482)">CDCL (adaptive, mVSIDS), Baseline</text><text x="-0.1733" y="0.1482" transform="rotate(-45.0, -0.1733, 0.1482)">CDCL (α = 0.75)</text><text x="-0.1519" y="0.1482" transform="rotate(-45.0, -0.1519, 0.1482)">CDCL (α = 0.75), Baseline</text><text x="-0.1304" y="0.1482" transform="rotate(-45.0, -0.1304, 0.1482)">CDCL (α = 0.75, mVISDS)</text><text x="-0.1090" y="0.1482" transform="rotate(-45.0, -0.1090, 0.1482)">CDCL (α = 0.75, mVISDS), Baseline</text><text x="-0.0876" y="0.1482" transform="rotate(-45.0, -0.0876, 0.1482)">CDCL (α = 0.75, mVISDS, ExpRestart(100, 2))</text><text x="-0.0661" y="0.1482" transform="rotate(-45.0, -0.0661, 0.1482)">CDCL (α = 0.75, mVISDS, ExpRestart(100, 2)), Baseline</text><text x="-0.0447" y="0.1482" transform="rotate(-45.0, -0.0447, 0.1482)">CDCL (α = 0.75, mVISDS, LubyRestart(100, 2))</text><text x="-0.0233" y="0.1482" transform="rotate(-45.0, -0.0233, 0.1482)">CDCL (α = 0.75, mVISDS, LubyRestart(100, 2)), Baseline</text><text x="-0.0018" y="0.1482" transform="rotate(-45.0, -0.0018, 0.1482)">CDCL (α = 0.95)</text><text x="0.0196" y="0.1482" transform="rotate(-45.0, 0.0196, 0.1482)">CDCL (α = 0.95), Baseline</text><text x="0.0410" y="0.1482" transform="rotate(-45.0, 0.0410, 0.1482)">CDCL (α = 0.95, mVISDS)</text><text x="0.0625" y="0.1482" transform="rotate(-45.0, 0.0625, 0.1482)">CDCL (α = 0.95, mVISDS), Baseline</text><text x="0.0839" y="0.1482" transform="rotate(-45.0, 0.0839, 0.1482)">CDCL (α = 0.95, mVISDS, ExpRestart(100, 2))</text><text x="0.1053" y="0.1482" transform="rotate(-45.0, 0.1053, 0.1482)">CDCL (α = 0.95, mVISDS, ExpRestart(100, 2)), Baseline</text><text x="0.1268" y="0.1482" transform="rotate(-45.0, 0.1268, 0.1482)">CDCL (α = 0.95, mVISDS, LubyRestart(100, 2))</text><text x="0.1482" y="0.1482" transform="rotate(-45.0, 0.1482, 0.1482)">CDCL (α = 0.95, mVISDS, LubyRestart(100, 2)), Baseline</text><text x="0.1696" y="0.1482" transform="rotate(-45.0, 0.1696, 0.1482)">DPLL</text><text x="0.1911" y="0.1482" transform="rotate(-45.0, 0.1911, 0.1482)">DPLL, Baseline</text></g></g></g><g class="axisbar"><g stroke-width="0" stroke="rgb(0%, 0%, 0%)" stroke-opacity="0" fill="rgb(5%, 5%, 5%)" fill-opacity="0.4"><rect width="0.6684" height="0.0012" x="-0.4325" y="0.1240"/></g></g></g><g class="title"><g stroke-width="0.0" stroke="none" fill="rgb(5%, 5%, 5%)" fill-opacity="1.0" font-size="0.0495" text-anchor="middle"><text x="-0.2452" y="-0.1988">Alloc: SATLIB/uf100-430/uf100-01/cnf</text></g></g><g class="legend"><g class="legendBorder"><g stroke-width="0.0017" stroke="rgb(5%, 5%, 5%)" stroke-opacity="1.0" fill="rgb(5%, 5%, 5%)" fill-opacity="0"><rect width="0.4185" height="0.5746" x="0.3066" y="-0.4410"/></g></g><g class="legendContent"><g stroke-width="0.0" stroke="none" fill="rgb(5%, 5%, 5%)" fill-opacity="1.0" font-size="0.0130" text-anchor="start"><text x="0.3138" y="0.1232">DPLL, Baseline</text></g><g stroke-width="0.0002" stroke="rgb(0%, 49%, 30%)" stroke-opacity="1.0" fill="rgb(0%, 49%, 30%)" fill-opacity="0.25"><rect width="0.0216" height="0.0152" x="0.6963" y="0.1133"/></g><g stroke-width="0.0" stroke="none" fill="rgb(5%, 5%, 5%)" fill-opacity="1.0" font-size="0.0130" text-anchor="start"><text x="0.3138" y="0.1029">DPLL</text></g><g stroke-width="0" stroke="rgb(2%, 29%, 48%)" stroke-opacity="1.0" fill="rgb(0%, 49%, 30%)" fill-opacity="1.0"><rect width="0.0216" height="0.0152" x="0.6963" y="0.0930"/></g><g stroke-width="0.0" stroke="none" fill="rgb(5%, 5%, 5%)" fill-opacity="1.0" font-size="0.0130" text-anchor="start"><text x="0.3138" y="0.0825">CDCL (α = 0.95, mVISDS, LubyRestart(100, 2)), Baseline</text></g><g stroke-width="0.0002" stroke="rgb(100%, 37%, 0%)" stroke-opacity="1.0" fill="rgb(100%, 37%, 0%)" fill-opacity="0.25"><rect width="0.0216" height="0.0152" x="0.6963" y="0.0726"/></g><g stroke-width="0.0" stroke="none" fill="rgb(5%, 5%, 5%)" fill-opacity="1.0" font-size="0.0130" text-anchor="start"><text x="0.3138" y="0.0622">CDCL (α = 0.95, mVISDS, LubyRestart(100, 2))</text></g><g stroke-width="0" stroke="rgb(2%, 29%, 48%)" stroke-opacity="1.0" fill="rgb(100%, 37%, 0%)" fill-opacity="1.0"><rect width="0.0216" height="0.0152" x="0.6963" y="0.0523"/></g><g stroke-width="0.0" stroke="none" fill="rgb(5%, 5%, 5%)" fill-opacity="1.0" font-size="0.0130" text-anchor="start"><text x="0.3138" y="0.0418">CDCL (α = 0.95, mVISDS, ExpRestart(100, 2)), Baseline</text></g><g stroke-width="0.0002" stroke="rgb(42%, 44%, 14%)" stroke-opacity="1.0" fill="rgb(42%, 44%, 14%)" fill-opacity="0.25"><rect width="0.0216" height="0.0152" x="0.6963" y="0.0319"/></g><g stroke-width="0.0" stroke="none" fill="rgb(5%, 5%, 5%)" fill-opacity="1.0" font-size="0.0130" text-anchor="start"><text x="0.3138" y="0.0215">CDCL (α = 0.95, mVISDS, ExpRestart(100, 2))</text></g><g stroke-width="0" stroke="rgb(2%, 29%, 48%)" stroke-opacity="1.0" fill="rgb(42%, 44%, 14%)" fill-opacity="1.0"><rect width="0.0216" height="0.0152" x="0.6963" y="0.0116"/></g><g stroke-width="0.0" stroke="none" fill="rgb(5%, 5%, 5%)" fill-opacity="1.0" font-size="0.0130" text-anchor="start"><text x="0.3138" y="0.0012">CDCL (α = 0.95, mVISDS), Baseline</text></g><g stroke-width="0.0002" stroke="rgb(0%, 42%, 48%)" stroke-opacity="1.0" fill="rgb(0%, 42%, 48%)" fill-opacity="0.25"><rect width="0.0216" height="0.0152" x="0.6963" y="-0.0087"/></g><g stroke-width="0.0" stroke="none" fill="rgb(5%, 5%, 5%)" fill-opacity="1.0" font-size="0.0130" text-anchor="start"><text x="0.3138" y="-0.0192">CDCL (α = 0.95, mVISDS)</text></g><g stroke-width="0" stroke="rgb(2%, 29%, 48%)" stroke-opacity="1.0" fill="rgb(0%, 42%, 48%)" fill-opacity="1.0"><rect width="0.0216" height="0.0152" x="0.6963" y="-0.0291"/></g><g stroke-width="0.0" stroke="none" fill="rgb(5%, 5%, 5%)" fill-opacity="1.0" font-size="0.0130" text-anchor="start"><text x="0.3138" y="-0.0395">CDCL (α = 0.95), Baseline</text></g><g stroke-width="0.0002" stroke="rgb(69%, 17%, 0%)" stroke-opacity="1.0" fill="rgb(69%, 17%, 0%)" fill-opacity="0.25"><rect width="0.0216" height="0.0152" x="0.6963" y="-0.0494"/></g><g stroke-width="0.0" stroke="none" fill="rgb(5%, 5%, 5%)" fill-opacity="1.0" font-size="0.0130" text-anchor="start"><text x="0.3138" y="-0.0599">CDCL (α = 0.95)</text></g><g stroke-width="0" stroke="rgb(2%, 29%, 48%)" stroke-opacity="1.0" fill="rgb(69%, 17%, 0%)" fill-opacity="1.0"><rect width="0.0216" height="0.0152" x="0.6963" y="-0.0698"/></g><g stroke-width="0.0" stroke="none" fill="rgb(5%, 5%, 5%)" fill-opacity="1.0" font-size="0.0130" text-anchor="start"><text x="0.3138" y="-0.0802">CDCL (α = 0.75, mVISDS, LubyRestart(100, 2)), Baseline</text></g><g stroke-width="0.0002" stroke="rgb(57%, 62%, 78%)" stroke-opacity="1.0" fill="rgb(57%, 62%, 78%)" fill-opacity="0.25"><rect width="0.0216" height="0.0152" x="0.6963" y="-0.0901"/></g><g stroke-width="0.0" stroke="none" fill="rgb(5%, 5%, 5%)" fill-opacity="1.0" font-size="0.0130" text-anchor="start"><text x="0.3138" y="-0.1006">CDCL (α = 0.75, mVISDS, LubyRestart(100, 2))</text></g><g stroke-width="0" stroke="rgb(2%, 29%, 48%)" stroke-opacity="1.0" fill="rgb(57%, 62%, 78%)" fill-opacity="1.0"><rect width="0.0216" height="0.0152" x="0.6963" y="-0.1105"/></g><g stroke-width="0.0" stroke="none" fill="rgb(5%, 5%, 5%)" fill-opacity="1.0" font-size="0.0130" text-anchor="start"><text x="0.3138" y="-0.1209">CDCL (α = 0.75, mVISDS, ExpRestart(100, 2)), Baseline</text></g><g stroke-width="0.0002" stroke="rgb(0%, 72%, 67%)" stroke-opacity="1.0" fill="rgb(0%, 72%, 67%)" fill-opacity="0.25"><rect width="0.0216" height="0.0152" x="0.6963" y="-0.1308"/></g><g stroke-width="0.0" stroke="none" fill="rgb(5%, 5%, 5%)" fill-opacity="1.0" font-size="0.0130" text-anchor="start"><text x="0.3138" y="-0.1412">CDCL (α = 0.75, mVISDS, ExpRestart(100, 2))</text></g><g stroke-width="0" stroke="rgb(2%, 29%, 48%)" stroke-opacity="1.0" fill="rgb(0%, 72%, 67%)" fill-opacity="1.0"><rect width="0.0216" height="0.0152" x="0.6963" y="-0.1511"/></g><g stroke-width="0.0" stroke="none" fill="rgb(5%, 5%, 5%)" fill-opacity="1.0" font-size="0.0130" text-anchor="start"><text x="0.3138" y="-0.1616">CDCL (α = 0.75, mVISDS), Baseline</text></g><g stroke-width="0.0002" stroke="rgb(48%, 65%, 0%)" stroke-opacity="1.0" fill="rgb(48%, 65%, 0%)" fill-opacity="0.25"><rect width="0.0216" height="0.0152" x="0.6963" y="-0.1715"/></g><g stroke-width="0.0" stroke="none" fill="rgb(5%, 5%, 5%)" fill-opacity="1.0" font-size="0.0130" text-anchor="start"><text x="0.3138" y="-0.1819">CDCL (α = 0.75, mVISDS)</text></g><g stroke-width="0" stroke="rgb(2%, 29%, 48%)" stroke-opacity="1.0" fill="rgb(48%, 65%, 0%)" fill-opacity="1.0"><rect width="0.0216" height="0.0152" x="0.6963" y="-0.1918"/></g><g stroke-width="0.0" stroke="none" fill="rgb(5%, 5%, 5%)" fill-opacity="1.0" font-size="0.0130" text-anchor="start"><text x="0.3138" y="-0.2023">CDCL (α = 0.75), Baseline</text></g><g stroke-width="0.0002" stroke="rgb(20%, 15%, 40%)" stroke-opacity="1.0" fill="rgb(20%, 15%, 40%)" fill-opacity="0.25"><rect width="0.0216" height="0.0152" x="0.6963" y="-0.2122"/></g><g stroke-width="0.0" stroke="none" fill="rgb(5%, 5%, 5%)" fill-opacity="1.0" font-size="0.0130" text-anchor="start"><text x="0.3138" y="-0.2226">CDCL (α = 0.75)</text></g><g stroke-width="0" stroke="rgb(2%, 29%, 48%)" stroke-opacity="1.0" fill="rgb(20%, 15%, 40%)" fill-opacity="1.0"><rect width="0.0216" height="0.0152" x="0.6963" y="-0.2325"/></g><g stroke-width="0.0" stroke="none" fill="rgb(5%, 5%, 5%)" fill-opacity="1.0" font-size="0.0130" text-anchor="start"><text x="0.3138" y="-0.2429">CDCL (adaptive, mVSIDS), Baseline</text></g><g stroke-width="0.0002" stroke="rgb(72%, 66%, 0%)" stroke-opacity="1.0" fill="rgb(72%, 66%, 0%)" fill-opacity="0.25"><rect width="0.0216" height="0.0152" x="0.6963" y="-0.2528"/></g><g stroke-width="0.0" stroke="none" fill="rgb(5%, 5%, 5%)" fill-opacity="1.0" font-size="0.0130" text-anchor="start"><text x="0.3138" y="-0.2633">CDCL (adaptive, mVSIDS)</text></g><g stroke-width="0" stroke="rgb(2%, 29%, 48%)" stroke-opacity="1.0" fill="rgb(72%, 66%, 0%)" fill-opacity="1.0"><rect width="0.0216" height="0.0152" x="0.6963" y="-0.2732"/></g><g stroke-width="0.0" stroke="none" fill="rgb(5%, 5%, 5%)" fill-opacity="1.0" font-size="0.0130" text-anchor="start"><text x="0.3138" y="-0.2836">CDCL (adaptive, mVISDS, LubyRestart(100, 2), Clause Decay)</text></g><g stroke-width="0" stroke="rgb(2%, 29%, 48%)" stroke-opacity="1.0" fill="rgb(0%, 21%, 55%)" fill-opacity="1.0"><rect width="0.0216" height="0.0152" x="0.6963" y="-0.2935"/></g><g stroke-width="0.0" stroke="none" fill="rgb(5%, 5%, 5%)" fill-opacity="1.0" font-size="0.0130" text-anchor="start"><text x="0.3138" y="-0.3040">CDCL (adaptive, mVISDS, LubyRestart(100, 2)), Baseline</text></g><g stroke-width="0.0002" stroke="rgb(0%, 36%, 0%)" stroke-opacity="1.0" fill="rgb(0%, 36%, 0%)" fill-opacity="0.25"><rect width="0.0216" height="0.0152" x="0.6963" y="-0.3138"/></g><g stroke-width="0.0" stroke="none" fill="rgb(5%, 5%, 5%)" fill-opacity="1.0" font-size="0.0130" text-anchor="start"><text x="0.3138" y="-0.3243">CDCL (adaptive, mVISDS, LubyRestart(100, 2))</text></g><g stroke-width="0" stroke="rgb(2%, 29%, 48%)" stroke-opacity="1.0" fill="rgb(0%, 36%, 0%)" fill-opacity="1.0"><rect width="0.0216" height="0.0152" x="0.6963" y="-0.3342"/></g><g stroke-width="0.0" stroke="none" fill="rgb(5%, 5%, 5%)" fill-opacity="1.0" font-size="0.0130" text-anchor="start"><text x="0.3138" y="-0.3446">CDCL (adaptive, mVISDS, ExpRestart(100, 2), Clause Decay 0.999)</text></g><g stroke-width="0" stroke="rgb(2%, 29%, 48%)" stroke-opacity="1.0" fill="rgb(70%, 21%, 0%)" fill-opacity="1.0"><rect width="0.0216" height="0.0152" x="0.6963" y="-0.3545"/></g><g stroke-width="0.0" stroke="none" fill="rgb(5%, 5%, 5%)" fill-opacity="1.0" font-size="0.0130" text-anchor="start"><text x="0.3138" y="-0.3650">CDCL (adaptive, mVISDS, ExpRestart(100, 2)), Baseline</text></g><g stroke-width="0.0002" stroke="rgb(47%, 34%, 0%)" stroke-opacity="1.0" fill="rgb(47%, 34%, 0%)" fill-opacity="0.25"><rect width="0.0216" height="0.0152" x="0.6963" y="-0.3749"/></g><g stroke-width="0.0" stroke="none" fill="rgb(5%, 5%, 5%)" fill-opacity="1.0" font-size="0.0130" text-anchor="start"><text x="0.3138" y="-0.3853">CDCL (adaptive, mVISDS, ExpRestart(100, 2))</text></g><g stroke-width="0" stroke="rgb(2%, 29%, 48%)" stroke-opacity="1.0" fill="rgb(47%, 34%, 0%)" fill-opacity="1.0"><rect width="0.0216" height="0.0152" x="0.6963" y="-0.3952"/></g><g stroke-width="0.0" stroke="none" fill="rgb(5%, 5%, 5%)" fill-opacity="1.0" font-size="0.0130" text-anchor="start"><text x="0.3138" y="-0.4056">CDCL (adaptive), Baseline</text></g><g stroke-width="0.0002" stroke="rgb(57%, 0%, 21%)" stroke-opacity="1.0" fill="rgb(57%, 0%, 21%)" fill-opacity="0.25"><rect width="0.0216" height="0.0152" x="0.6963" y="-0.4155"/></g><g stroke-width="0.0" stroke="none" fill="rgb(5%, 5%, 5%)" fill-opacity="1.0" font-size="0.0130" text-anchor="start"><text x="0.3138" y="-0.4260">CDCL (adaptive)</text></g><g stroke-width="0" stroke="rgb(2%, 29%, 48%)" stroke-opacity="1.0" fill="rgb(57%, 0%, 21%)" fill-opacity="1.0"><rect width="0.0216" height="0.0152" x="0.6963" y="-0.4359"/></g></g></g><g class="frame"><g stroke-width="0" stroke="rgb(0%, 0%, 0%)" stroke-opacity="0" fill="rgb(100%, 100%, 100%)" fill-opacity="0.02"><rect width="1.6180" height="1.0" x="-0.8090" y="-0.5"/></g></g><g class="title"><g stroke-width="0.0" stroke="none" fill="rgb(5%, 5%, 5%)" fill-opacity="1.0" font-size="0.0247" text-anchor="middle"><text x="-0.7505" y="0" transform="rotate(-90.0, -0.7505, 0)">Alloc [GiB]</text></g></g></g></svg>