<svg xmlns="http://www.w3.org/2000/svg" xmlns:xlink="http://www.w3.org/1999/xlink" width="455" height="300" viewBox="-0.8090 -0.5 1.6180 1.0656"><style>svg {
  color-scheme: light dark;
}
{
  .canvas g, .title g, .axisbar g, .ticktext g, .tickglyph g, .ticklines g, .legendContent g text {
    fill: rgb(5%, 5%, 5%);
  }
  .ticklines g, .tickglyph g, .legendBorder g {
    stroke: rgb(5%, 5%, 5%);
  }
  .legendBorder g {
    fill: rgb(94%, 94%, 94%);
  }
}
@media (prefers-color-scheme:dark) {
  .canvas g, .title g, .axisbar g, .ticktext g, .tickglyph g, .ticklines g, .legendContent g text {
    fill: rgb(94%, 94%, 94%);
  }
  .ticklines g, .tickglyph g, .legendBorder g {
    stroke: rgb(94%, 94%, 94%);
  }
  .legendBorder g {
    fill: rgb(5%, 5%, 5%);
  }
}</style><g class="chart"><g class="barchart"><g stroke-width="0" stroke="rgb(2%, 29%, 48%)" stroke-opacity="1.0" fill="rgb(57%, 0%, 21%)" fill-opacity="1.0"><rect width="0.0214" height="0.0072" x="-0.3983" y="0.1137"/></g><g stroke-width="0.0010" stroke="rgb(57%, 0%, 21%)" stroke-opacity="1.0" fill="rgb(57%, 0%, 21%)" fill-opacity="0.25"><rect width="0.0214" height="0.0060" x="-0.3769" y="0.1149"/></g><g stroke-width="0" stroke="rgb(2%, 29%, 48%)" stroke-opacity="1.0" fill="rgb(47%, 34%, 0%)" fill-opacity="1.0"><rect width="0.0214" height="0.0031" x="-0.3555" y="0.1179"/></g><g stroke-width="0.0010" stroke="rgb(47%, 34%, 0%)" stroke-opacity="1.0" fill="rgb(47%, 34%, 0%)" fill-opacity="0.25"><rect width="0.0214" height="0.0025" x="-0.3340" y="0.1184"/></g><g stroke-width="0" stroke="rgb(2%, 29%, 48%)" stroke-opacity="1.0" fill="rgb(70%, 21%, 0%)" fill-opacity="1.0"><rect width="0.0214" height="0.0037" x="-0.3126" y="0.1172"/></g><g stroke-width="0" stroke="rgb(2%, 29%, 48%)" stroke-opacity="1.0" fill="rgb(0%, 36%, 0%)" fill-opacity="1.0"><rect width="0.0214" height="0.0030" x="-0.2912" y="0.1179"/></g><g stroke-width="0.0010" stroke="rgb(0%, 36%, 0%)" stroke-opacity="1.0" fill="rgb(0%, 36%, 0%)" fill-opacity="0.25"><rect width="0.0214" height="0.0025" x="-0.2697" y="0.1184"/></g><g stroke-width="0" stroke="rgb(2%, 29%, 48%)" stroke-opacity="1.0" fill="rgb(0%, 21%, 55%)" fill-opacity="1.0"><rect width="0.0214" height="0.0037" x="-0.2483" y="0.1172"/></g><g stroke-width="0" stroke="rgb(2%, 29%, 48%)" stroke-opacity="1.0" fill="rgb(72%, 66%, 0%)" fill-opacity="1.0"><rect width="0.0214" height="0.0053" x="-0.2269" y="0.1156"/></g><g stroke-width="0.0010" stroke="rgb(72%, 66%, 0%)" stroke-opacity="1.0" fill="rgb(72%, 66%, 0%)" fill-opacity="0.25"><rect width="0.0214" height="0.0044" x="-0.2054" y="0.1165"/></g><g stroke-width="0" stroke="rgb(2%, 29%, 48%)" stroke-opacity="1.0" fill="rgb(20%, 15%, 40%)" fill-opacity="1.0"><rect width="0.0214" height="0.0060" x="-0.1840" y="0.1150"/></g><g stroke-width="0.0010" stroke="rgb(20%, 15%, 40%)" stroke-opacity="1.0" fill="rgb(20%, 15%, 40%)" fill-opacity="0.25"><rect width="0.0214" height="0.0049" x="-0.1626" y="0.1161"/></g><g stroke-width="0" stroke="rgb(2%, 29%, 48%)" stroke-opacity="1.0" fill="rgb(48%, 65%, 0%)" fill-opacity="1.0"><rect width="0.0214" height="0.0052" x="-0.1411" y="0.1157"/></g><g stroke-width="0.0010" stroke="rgb(48%, 65%, 0%)" stroke-opacity="1.0" fill="rgb(48%, 65%, 0%)" fill-opacity="0.25"><rect width="0.0214" height="0.0043" x="-0.1197" y="0.1166"/></g><g stroke-width="0" stroke="rgb(2%, 29%, 48%)" stroke-opacity="1.0" fill="rgb(0%, 72%, 67%)" fill-opacity="1.0"><rect width="0.0214" height="0.0065" x="-0.0983" y="0.1144"/></g><g stroke-width="0.0010" stroke="rgb(0%, 72%, 67%)" stroke-opacity="1.0" fill="rgb(0%, 72%, 67%)" fill-opacity="0.25"><rect width="0.0214" height="0.0054" x="-0.0768" y="0.1155"/></g><g stroke-width="0" stroke="rgb(2%, 29%, 48%)" stroke-opacity="1.0" fill="rgb(57%, 62%, 78%)" fill-opacity="1.0"><rect width="0.0214" height="0.0066" x="-0.0554" y="0.1143"/></g><g stroke-width="0.0010" stroke="rgb(57%, 62%, 78%)" stroke-opacity="1.0" fill="rgb(57%, 62%, 78%)" fill-opacity="0.25"><rect width="0.0214" height="0.0053" x="-0.0340" y="0.1156"/></g><g stroke-width="0" stroke="rgb(2%, 29%, 48%)" stroke-opacity="1.0" fill="rgb(69%, 17%, 0%)" fill-opacity="1.0"><rect width="0.0214" height="0.0048" x="-0.0125" y="0.1161"/></g><g stroke-width="0.0010" stroke="rgb(69%, 17%, 0%)" stroke-opacity="1.0" fill="rgb(69%, 17%, 0%)" fill-opacity="0.25"><rect width="0.0214" height="0.0039" x="0.0089" y="0.1170"/></g><g stroke-width="0" stroke="rgb(2%, 29%, 48%)" stroke-opacity="1.0" fill="rgb(0%, 42%, 48%)" fill-opacity="1.0"><rect width="0.0214" height="0.0042" x="0.0303" y="0.1167"/></g><g stroke-width="0.0010" stroke="rgb(0%, 42%, 48%)" stroke-opacity="1.0" fill="rgb(0%, 42%, 48%)" fill-opacity="0.25"><rect width="0.0214" height="0.0036" x="0.0518" y="0.1173"/></g><g stroke-width="0" stroke="rgb(2%, 29%, 48%)" stroke-opacity="1.0" fill="rgb(42%, 44%, 14%)" fill-opacity="1.0"><rect width="0.0214" height="0.0037" x="0.0732" y="0.1172"/></g><g stroke-width="0.0010" stroke="rgb(42%, 44%, 14%)" stroke-opacity="1.0" fill="rgb(42%, 44%, 14%)" fill-opacity="0.25"><rect width="0.0214" height="0.0030" x="0.0946" y="0.1179"/></g><g stroke-width="0" stroke="rgb(2%, 29%, 48%)" stroke-opacity="1.0" fill="rgb(100%, 37%, 0%)" fill-opacity="1.0"><rect width="0.0214" height="0.0038" x="0.1161" y="0.1172"/></g><g stroke-width="0.0010" stroke="rgb(100%, 37%, 0%)" stroke-opacity="1.0" fill="rgb(100%, 37%, 0%)" fill-opacity="0.25"><rect width="0.0214" height="0.0032" x="0.1375" y="0.1178"/></g><g stroke-width="0" stroke="rgb(2%, 29%, 48%)" stroke-opacity="1.0" fill="rgb(0%, 49%, 30%)" fill-opacity="1.0"><rect width="0.0214" height="0.2510" x="0.1589" y="-0.1300"/></g><g stroke-width="0.0010" stroke="rgb(0%, 49%, 30%)" stroke-opacity="1.0" fill="rgb(0%, 49%, 30%)" fill-opacity="0.25"><rect width="0.0214" height="0.2242" x="0.1804" y="-0.1033"/></g></g><g class="errors"><g stroke-width="0.0015" stroke="rgb(5%, 5%, 5%)" stroke-opacity="1.0" fill="none"><polyline points="-0.3898,0.1140 -0.3855,0.1140"/><polyline points="-0.3876,0.1140 -0.3876,0.1135"/><polyline points="-0.3898,0.1135 -0.3855,0.1135"/></g><g stroke-width="0.0015" stroke="rgb(5%, 5%, 5%)" stroke-opacity="1.0" fill="none"><polyline points="-0.3683,0.1150 -0.3640,0.1150"/><polyline points="-0.3662,0.1150 -0.3662,0.1148"/><polyline points="-0.3683,0.1148 -0.3640,0.1148"/></g><g stroke-width="0.0015" stroke="rgb(5%, 5%, 5%)" stroke-opacity="1.0" fill="none"><polyline points="-0.3469,0.1179 -0.3426,0.1179"/><polyline points="-0.3447,0.1179 -0.3447,0.1178"/><polyline points="-0.3469,0.1178 -0.3426,0.1178"/></g><g stroke-width="0.0015" stroke="rgb(5%, 5%, 5%)" stroke-opacity="1.0" fill="none"><polyline points="-0.3255,0.1185 -0.3212,0.1185"/><polyline points="-0.3233,0.1185 -0.3233,0.1183"/><polyline points="-0.3255,0.1183 -0.3212,0.1183"/></g><g stroke-width="0.0015" stroke="rgb(5%, 5%, 5%)" stroke-opacity="1.0" fill="none"><polyline points="-0.3040,0.1173 -0.2997,0.1173"/><polyline points="-0.3019,0.1173 -0.3019,0.1171"/><polyline points="-0.3040,0.1171 -0.2997,0.1171"/></g><g stroke-width="0.0015" stroke="rgb(5%, 5%, 5%)" stroke-opacity="1.0" fill="none"><polyline points="-0.2826,0.1179 -0.2783,0.1179"/><polyline points="-0.2804,0.1179 -0.2804,0.1179"/><polyline points="-0.2826,0.1179 -0.2783,0.1179"/></g><g stroke-width="0.0015" stroke="rgb(5%, 5%, 5%)" stroke-opacity="1.0" fill="none"><polyline points="-0.2612,0.1184 -0.2569,0.1184"/><polyline points="-0.2590,0.1184 -0.2590,0.1184"/><polyline points="-0.2612,0.1184 -0.2569,0.1184"/></g><g stroke-width="0.0015" stroke="rgb(5%, 5%, 5%)" stroke-opacity="1.0" fill="none"><polyline points="-0.2397,0.1173 -0.2354,0.1173"/><polyline points="-0.2376,0.1173 -0.2376,0.1172"/><polyline points="-0.2397,0.1172 -0.2354,0.1172"/></g><g stroke-width="0.0015" stroke="rgb(5%, 5%, 5%)" stroke-opacity="1.0" fill="none"><polyline points="-0.2183,0.1158 -0.2140,0.1158"/><polyline points="-0.2162,0.1158 -0.2162,0.1155"/><polyline points="-0.2183,0.1155 -0.2140,0.1155"/></g><g stroke-width="0.0015" stroke="rgb(5%, 5%, 5%)" stroke-opacity="1.0" fill="none"><polyline points="-0.1969,0.1167 -0.1926,0.1167"/><polyline points="-0.1947,0.1167 -0.1947,0.1164"/><polyline points="-0.1969,0.1164 -0.1926,0.1164"/></g><g stroke-width="0.0015" stroke="rgb(5%, 5%, 5%)" stroke-opacity="1.0" fill="none"><polyline points="-0.1754,0.1152 -0.1711,0.1152"/><polyline points="-0.1733,0.1152 -0.1733,0.1147"/><polyline points="-0.1754,0.1147 -0.1711,0.1147"/></g><g stroke-width="0.0015" stroke="rgb(5%, 5%, 5%)" stroke-opacity="1.0" fill="none"><polyline points="-0.1540,0.1163 -0.1497,0.1163"/><polyline points="-0.1519,0.1163 -0.1519,0.1159"/><polyline points="-0.1540,0.1159 -0.1497,0.1159"/></g><g stroke-width="0.0015" stroke="rgb(5%, 5%, 5%)" stroke-opacity="1.0" fill="none"><polyline points="-0.1326,0.1158 -0.1283,0.1158"/><polyline points="-0.1304,0.1158 -0.1304,0.1156"/><polyline points="-0.1326,0.1156 -0.1283,0.1156"/></g><g stroke-width="0.0015" stroke="rgb(5%, 5%, 5%)" stroke-opacity="1.0" fill="none"><polyline points="-0.1111,0.1167 -0.1068,0.1167"/><polyline points="-0.1090,0.1167 -0.1090,0.1165"/><polyline points="-0.1111,0.1165 -0.1068,0.1165"/></g><g stroke-width="0.0015" stroke="rgb(5%, 5%, 5%)" stroke-opacity="1.0" fill="none"><polyline points="-0.0897,0.1145 -0.0854,0.1145"/><polyline points="-0.0876,0.1145 -0.0876,0.1143"/><polyline points="-0.0897,0.1143 -0.0854,0.1143"/></g><g stroke-width="0.0015" stroke="rgb(5%, 5%, 5%)" stroke-opacity="1.0" fill="none"><polyline points="-0.0683,0.1156 -0.0640,0.1156"/><polyline points="-0.0661,0.1156 -0.0661,0.1155"/><polyline points="-0.0683,0.1155 -0.0640,0.1155"/></g><g stroke-width="0.0015" stroke="rgb(5%, 5%, 5%)" stroke-opacity="1.0" fill="none"><polyline points="-0.0468,0.1145 -0.0425,0.1145"/><polyline points="-0.0447,0.1145 -0.0447,0.1142"/><polyline points="-0.0468,0.1142 -0.0425,0.1142"/></g><g stroke-width="0.0015" stroke="rgb(5%, 5%, 5%)" stroke-opacity="1.0" fill="none"><polyline points="-0.0254,0.1158 -0.0211,0.1158"/><polyline points="-0.0233,0.1158 -0.0233,0.1155"/><polyline points="-0.0254,0.1155 -0.0211,0.1155"/></g><g stroke-width="0.0015" stroke="rgb(5%, 5%, 5%)" stroke-opacity="1.0" fill="none"><polyline points="-0.0040,0.1162 0.0003,0.1162"/><polyline points="-0.0018,0.1162 -0.0018,0.1161"/><polyline points="-0.0040,0.1161 0.0003,0.1161"/></g><g stroke-width="0.0015" stroke="rgb(5%, 5%, 5%)" stroke-opacity="1.0" fill="none"><polyline points="0.0175,0.1171 0.0218,0.1171"/><polyline points="0.0196,0.1171 0.0196,0.1169"/><polyline points="0.0175,0.1169 0.0218,0.1169"/></g><g stroke-width="0.0015" stroke="rgb(5%, 5%, 5%)" stroke-opacity="1.0" fill="none"><polyline points="0.0389,0.1169 0.0432,0.1169"/><polyline points="0.0410,0.1169 0.0410,0.1166"/><polyline points="0.0389,0.1166 0.0432,0.1166"/></g><g stroke-width="0.0015" stroke="rgb(5%, 5%, 5%)" stroke-opacity="1.0" fill="none"><polyline points="0.0603,0.1174 0.0646,0.1174"/><polyline points="0.0625,0.1174 0.0625,0.1173"/><polyline points="0.0603,0.1173 0.0646,0.1173"/></g><g stroke-width="0.0015" stroke="rgb(5%, 5%, 5%)" stroke-opacity="1.0" fill="none"><polyline points="0.0818,0.1174 0.0861,0.1174"/><polyline points="0.0839,0.1174 0.0839,0.1171"/><polyline points="0.0818,0.1171 0.0861,0.1171"/></g><g stroke-width="0.0015" stroke="rgb(5%, 5%, 5%)" stroke-opacity="1.0" fill="none"><polyline points="0.1032,0.1180 0.1075,0.1180"/><polyline points="0.1053,0.1180 0.1053,0.1178"/><polyline points="0.1032,0.1178 0.1075,0.1178"/></g><g stroke-width="0.0015" stroke="rgb(5%, 5%, 5%)" stroke-opacity="1.0" fill="none"><polyline points="0.1246,0.1172 0.1289,0.1172"/><polyline points="0.1268,0.1172 0.1268,0.1171"/><polyline points="0.1246,0.1171 0.1289,0.1171"/></g><g stroke-width="0.0015" stroke="rgb(5%, 5%, 5%)" stroke-opacity="1.0" fill="none"><polyline points="0.1461,0.1178 0.1503,0.1178"/><polyline points="0.1482,0.1178 0.1482,0.1177"/><polyline points="0.1461,0.1177 0.1503,0.1177"/></g><g stroke-width="0.0015" stroke="rgb(5%, 5%, 5%)" stroke-opacity="1.0" fill="none"><polyline points="0.1675,-0.1274 0.1718,-0.1274"/><polyline points="0.1696,-0.1274 0.1696,-0.1326"/><polyline points="0.1675,-0.1326 0.1718,-0.1326"/></g><g stroke-width="0.0015" stroke="rgb(5%, 5%, 5%)" stroke-opacity="1.0" fill="none"><polyline points="0.1889,-0.0992 0.1932,-0.0992"/><polyline points="0.1911,-0.0992 0.1911,-0.1073"/><polyline points="0.1889,-0.1073 0.1932,-0.1073"/></g></g></g><g class="hud"><g class="axis"><g class="ticks"><g class="tickglyph"><g stroke-width="0.0040" stroke="rgb(5%, 5%, 5%)" stroke-opacity="0.4" fill="rgb(5%, 5%, 5%)" fill-opacity="0.4"><g transform="rotate(-90.0, -0.4440, 0.1209)"><polyline points="-0.4440,0.1359
-0.4440,0.1059"/></g><g transform="rotate(-90.0, -0.4440, 0.0795)"><polyline points="-0.4440,0.0945
-0.4440,0.0645"/></g><g transform="rotate(-90.0, -0.4440, 0.0381)"><polyline points="-0.4440,0.0531
-0.4440,0.0231"/></g><g transform="rotate(-90.0, -0.4440, -0.0034)"><polyline points="-0.4440,0.0116
-0.4440,-0.0184"/></g><g transform="rotate(-90.0, -0.4440, -0.0448)"><polyline points="-0.4440,-0.0298
-0.4440,-0.0598"/></g><g transform="rotate(-90.0, -0.4440, -0.0863)"><polyline points="-0.4440,-0.0713
-0.4440,-0.1013"/></g><g transform="rotate(-90.0, -0.4440, -0.1277)"><polyline points="-0.4440,-0.1127
-0.4440,-0.1427"/></g><g transform="rotate(-90.0, -0.4440, -0.1691)"><polyline points="-0.4440,-0.1541
-0.4440,-0.1841"/></g></g></g><g class="ticktext"><g stroke-width="0.0" stroke="none" fill="rgb(5%, 5%, 5%)" fill-opacity="1.0" font-size="0.0206" text-anchor="end"><text x="-0.4589" y="0.1249"> 0</text><text x="-0.4589" y="0.0835"> 2</text><text x="-0.4589" y="0.0420"> 4</text><text x="-0.4589" y="0.0006"> 6</text><text x="-0.4589" y="-0.0408"> 8</text><text x="-0.4589" y="-0.0823">10</text><text x="-0.4589" y="-0.1237">12</text><text x="-0.4589" y="-0.1651">14</text></g></g><g class="ticklines"><g stroke-width="0.0050" stroke="rgb(5%, 5%, 5%)" stroke-opacity="0.05" fill="none"><polyline points="-0.4317,0.1209 0.2351,0.1209"/><polyline points="-0.4317,0.0795 0.2351,0.0795"/><polyline points="-0.4317,0.0381 0.2351,0.0381"/><polyline points="-0.4317,-0.0034 0.2351,-0.0034"/><polyline points="-0.4317,-0.0448 0.2351,-0.0448"/><polyline points="-0.4317,-0.0863 0.2351,-0.0863"/><polyline points="-0.4317,-0.1277 0.2351,-0.1277"/><polyline points="-0.4317,-0.1691 0.2351,-0.1691"/></g></g></g><g class="axisbar"><g stroke-width="0" stroke="rgb(0%, 0%, 0%)" stroke-opacity="0" fill="rgb(5%, 5%, 5%)" fill-opacity="0.4"><rect width="0.0016" height="0.2912" x="-0.4374" y="-0.1697"/></g></g></g><g class="axis"><g class="ticks"><g class="tickglyph"><g stroke-width="0.0040" stroke="rgb(5%, 5%, 5%)" stroke-opacity="0.4" fill="rgb(5%, 5%, 5%)" fill-opacity="0.4"><polyline points="-0.3876,0.1448
-0.3876,0.1148"/><polyline points="-0.3662,0.1448
-0.3662,0.1148"/><polyline points="-0.3447,0.1448
-0.3447,0.1148"/><polyline points="-0.3233,0.1448
-0.3233,0.1148"/><polyline points="-0.3019,0.1448
-0.3019,0.1148"/><polyline points="-0.2804,0.1448
-0.2804,0.1148"/><polyline points="-0.2590,0.1448
-0.2590,0.1148"/><polyline points="-0.2376,0.1448
-0.2376,0.1148"/><polyline points="-0.2162,0.1448
-0.2162,0.1148"/><polyline points="-0.1947,0.1448
-0.1947,0.1148"/><polyline points="-0.1733,0.1448
-0.1733,0.1148"/><polyline points="-0.1519,0.1448
-0.1519,0.1148"/><polyline points="-0.1304,0.1448
-0.1304,0.1148"/><polyline points="-0.1090,0.1448
-0.1090,0.1148"/><polyline points="-0.0876,0.1448
-0.0876,0.1148"/><polyline points="-0.0661,0.1448
-0.0661,0.1148"/><polyline points="-0.0447,0.1448
-0.0447,0.1148"/><polyline points="-0.0233,0.1448
-0.0233,0.1148"/><polyline points="-0.0018,0.1448
-0.0018,0.1148"/><polyline points="0.0196,0.1448
0.0196,0.1148"/><polyline points="0.0410,0.1448
0.0410,0.1148"/><polyline points="0.0625,0.1448
0.0625,0.1148"/><polyline points="0.0839,0.1448
0.0839,0.1148"/><polyline points="0.1053,0.1448
0.1053,0.1148"/><polyline points="0.1268,0.1448
0.1268,0.1148"/><polyline points="0.1482,0.1448
0.1482,0.1148"/><polyline points="0.1696,0.1448
0.1696,0.1148"/><polyline points="0.1911,0.1448
0.1911,0.1148"/></g></g><g class="ticktext"><g stroke-width="0.0" stroke="none" fill="rgb(5%, 5%, 5%)" fill-opacity="1.0" font-size="0.0206" text-anchor="end"><text x="-0.3876" y="0.1482" transform="rotate(-45.0, -0.3876, 0.1482)">CDCL (adaptive)</text><text x="-0.3662" y="0.1482" transform="rotate(-45.0, -0.3662, 0.1482)">CDCL (adaptive), Baseline</text><text x="-0.3447" y="0.1482" transform="rotate(-45.0, -0.3447, 0.1482)">CDCL (adaptive, mVISDS, ExpRestart(100, 2))</text><text x="-0.3233" y="0.1482" transform="rotate(-45.0, -0.3233, 0.1482)">CDCL (adaptive, mVISDS, ExpRestart(100, 2)), Baseline</text><text x="-0.3019" y="0.1482" transform="rotate(-45.0, -0.3019, 0.1482)">CDCL (adaptive, mVISDS, ExpRestart(100, 2), Clause Decay 0.999)</text><text x="-0.2804" y="0.1482" transform="rotate(-45.0, -0.2804, 0.1482)">CDCL (adaptive, mVISDS, LubyRestart(100, 2))</text><text x="-0.2590" y="0.1482" transform="rotate(-45.0, -0.2590, 0.1482)">CDCL (adaptive, mVISDS, LubyRestart(100, 2)), Baseline</text><text x="-0.2376" y="0.1482" transform="rotate(-45.0, -0.2376, 0.1482)">CDCL (adaptive, mVISDS, LubyRestart(100, 2), Clause Decay)</text><text x="-0.2162" y="0.1482" transform="rotate(-45.0, -0.2162, 0.1482)">CDCL (adaptive, mVSIDS)</text><text x="-0.1947" y="0.1482" transform="rotate(-45.0, -0.1947, 0.1482)">CDCL (adaptive, mVSIDS), Baseline</text><text x="-0.1733" y="0.1482" transform="rotate(-45.0, -0.1733, 0.1482)">CDCL (α = 0.75)</text><text x="-0.1519" y="0.1482" transform="rotate(-45.0, -0.1519, 0.1482)">CDCL (α = 0.75), Baseline</text><text x="-0.1304" y="0.1482" transform="rotate(-45.0, -0.1304, 0.1482)">CDCL (α = 0.75, mVISDS)</text><text x="-0.1090" y="0.1482" transform="rotate(-45.0, -0.1090, 0.1482)">CDCL (α = 0.75, mVISDS), Baseline</text><text x="-0.0876" y="0.1482" transform="rotate(-45.0, -0.0876, 0.1482)">CDCL (α = 0.75, mVISDS, ExpRestart(100, 2))</text><text x="-0.0661" y="0.1482" transform="rotate(-45.0, -0.0661, 0.1482)">CDCL (α = 0.75, mVISDS, ExpRestart(100, 2)), Baseline</text><text x="-0.0447" y="0.1482" transform="rotate(-45.0, -0.0447, 0.1482)">CDCL (α = 0.75, mVISDS, LubyRestart(100, 2))</text><text x="-0.0233" y="0.1482" transform="rotate(-45.0, -0.0233, 0.1482)">CDCL (α = 0.75, mVISDS, LubyRestart(100, 2)), Baseline</text><text x="-0.0018" y="0.1482" transform="rotate(-45.0, -0.0018, 0.1482)">CDCL (α = 0.95)</text><text x="0.0196" y="0.1482" transform="rotate(-45.0, 0.0196, 0.1482)">CDCL (α = 0.95), Baseline</text><text x="0.0410" y="0.1482" transform="rotate(-45.0, 0.0410, 0.1482)">CDCL (α = 0.95, mVISDS)</text><text x="0.0625" y="0.1482" transform="rotate(-45.0, 0.0625, 0.1482)">CDCL (α = 0.95, mVISDS), Baseline</text><text x="0.0839" y="0.1482" transform="rotate(-45.0, 0.0839, 0.1482)">CDCL (α = 0.95, mVISDS, ExpRestart(100, 2))</text><text x="0.1053" y="0.1482" transform="rotate(-45.0, 0.1053, 0.1482)">CDCL (α = 0.95, mVISDS, ExpRestart(100, 2)), Baseline</text><text x="0.1268" y="0.1482" transform="rotate(-45.0, 0.1268, 0.1482)">CDCL (α = 0.95, mVISDS, LubyRestart(100, 2))</text><text x="0.1482" y="0.1482" transform="rotate(-45.0, 0.1482, 0.1482)">CDCL (α = 0.95, mVISDS, LubyRestart(100, 2)), Baseline</text><text x="0.1696" y="0.1482" transform="rotate(-45.0, 0.1696, 0.1482)">DPLL</text><text x="0.1911" y="0.1482" transform="rotate(-45.0, 0.1911, 0.1482)">DPLL, Baseline</text></g></g></g><g class="axisbar"><g stroke-width="0" stroke="rgb(0%, 0%, 0%)" stroke-opacity="0" fill="rgb(5%, 5%, 5%)" fill-opacity="0.4"><rect width="0.6684" height="0.0012" x="-0.4325" y="0.1240"/></g></g></g><g class="title"><g stroke-width="0.0" stroke="none" fill="rgb(5%, 5%, 5%)" fill-opacity="1.0" font-size="0.0495" text-anchor="middle"><text x="-0.2452" y="-0.1988">Time: SATLIB/uf100-430/uf100-01/cnf</text></g></g><g class="legend"><g class="legendBorder"><g stroke-width="0.0017" stroke="rgb(5%, 5%, 5%)" stroke-opacity="1.0" fill="rgb(5%, 5%, 5%)" fill-opacity="0"><rect width="0.4185" height="0.5746" x="0.3066" y="-0.4410"/></g></g><g class="legendContent"><g stroke-width="0.0" stroke="none" fill="rgb(5%, 5%, 5%)" fill-opacity="1.0" font-size="0.0130" text-anchor="start"><text x="0.3138" y="0.1232">DPLL, Baseline</text></g><g stroke-width="0.0002" stroke="rgb(0%, 49%, 30%)" stroke-opacity="1.0" fill="rgb(0%, 49%, 30%)" fill-opacity="0.25"><rect width="0.0216" height="0.0152" x="0.6963" y="0.1133"/></g><g stroke-width="0.0" stroke="none" fill="rgb(5%, 5%, 5%)" fill-opacity="1.0" font-size="0.0130" text-anchor="start"><text x="0.3138" y="0.1029">DPLL</text></g><g stroke-width="0" stroke="rgb(2%, 29%, 48%)" stroke-opacity="1.0" fill="rgb(0%, 49%, 30%)" fill-opacity="1.0"><rect width="0.0216" height="0.0152" x="0.6963" y="0.0930"/></g><g stroke-width="0.0" stroke="none" fill="rgb(5%, 5%, 5%)" fill-opacity="1.0" font-size="0.0130" text-anchor="start"><text x="0.3138" y="0.0825">CDCL (α = 0.95, mVISDS, LubyRestart(100, 2)), Baseline</text></g><g stroke-width="0.0002" stroke="rgb(100%, 37%, 0%)" stroke-opacity="1.0" fill="rgb(100%, 37%, 0%)" fill-opacity="0.25"><rect width="0.0216" height="0.0152" x="0.6963" y="0.0726"/></g><g stroke-width="0.0" stroke="none" fill="rgb(5%, 5%, 5%)" fill-opacity="1.0" font-size="0.0130" text-anchor="start"><text x="0.3138" y="0.0622">CDCL (α = 0.95, mVISDS, LubyRestart(100, 2))</text></g><g stroke-width="0" stroke="rgb(2%, 29%, 48%)" stroke-opacity="1.0" fill="rgb(100%, 37%, 0%)" fill-opacity="1.0"><rect width="0.0216" height="0.0152" x="0.6963" y="0.0523"/></g><g stroke-width="0.0" stroke="none" fill="rgb(5%, 5%, 5%)" fill-opacity="1.0" font-size="0.0130" text-anchor="start"><text x="0.3138" y="0.0418">CDCL (α = 0.95, mVISDS, ExpRestart(100, 2)), Baseline</text></g><g stroke-width="0.0002" stroke="rgb(42%, 44%, 14%)" stroke-opacity="1.0" fill="rgb(42%, 44%, 14%)" fill-opacity="0.25"><rect width="0.0216" height="0.0152" x="0.6963" y="0.0319"/></g><g stroke-width="0.0" stroke="none" fill="rgb(5%, 5%, 5%)" fill-opacity="1.0" font-size="0.0130" text-anchor="start"><text x="0.3138" y="0.0215">CDCL (α = 0.95, mVISDS, ExpRestart(100, 2))</text></g><g stroke-width="0" stroke="rgb(2%, 29%, 48%)" stroke-opacity="1.0" fill="rgb(42%, 44%, 14%)" fill-opacity="1.0"><rect width="0.0216" height="0.0152" x="0.6963" y="0.0116"/></g><g stroke-width="0.0" stroke="none" fill="rgb(5%, 5%, 5%)" fill-opacity="1.0" font-size="0.0130" text-anchor="start"><text x="0.3138" y="0.0012">CDCL (α = 0.95, mVISDS), Baseline</text></g><g stroke-width="0.0002" stroke="rgb(0%, 42%, 48%)" stroke-opacity="1.0" fill="rgb(0%, 42%, 48%)" fill-opacity="0.25"><rect width="0.0216" height="0.0152" x="0.6963" y="-0.0087"/></g><g stroke-width="0.0" stroke="none" fill="rgb(5%, 5%, 5%)" fill-opacity="1.0" font-size="0.0130" text-anchor="start"><text x="0.3138" y="-0.0192">CDCL (α = 0.95, mVISDS)</text></g><g stroke-width="0" stroke="rgb(2%, 29%, 48%)" stroke-opacity="1.0" fill="rgb(0%, 42%, 48%)" fill-opacity="1.0"><rect width="0.0216" height="0.0152" x="0.6963" y="-0.0291"/></g><g stroke-width="0.0" stroke="none" fill="rgb(5%, 5%, 5%)" fill-opacity="1.0" font-size="0.0130" text-anchor="start"><text x="0.3138" y="-0.0395">CDCL (α = 0.95), Baseline</text></g><g stroke-width="0.0002" stroke="rgb(69%, 17%, 0%)" stroke-opacity="1.0" fill="rgb(69%, 17%, 0%)" fill-opacity="0.25"><rect width="0.0216" height="0.0152" x="0.6963" y="-0.0494"/></g><g stroke-width="0.0" stroke="none" fill="rgb(5%, 5%, 5%)" fill-opacity="1.0" font-size="0.0130" text-anchor="start"><text x="0.3138" y="-0.0599">CDCL (α = 0.95)</text></g><g stroke-width="0" stroke="rgb(2%, 29%, 48%)" stroke-opacity="1.0" fill="rgb(69%, 17%, 0%)" fill-opacity="1.0"><rect width="0.0216" height="0.0152" x="0.6963" y="-0.0698"/></g><g stroke-width="0.0" stroke="none" fill="rgb(5%, 5%, 5%)" fill-opacity="1.0" font-size="0.0130" text-anchor="start"><text x="0.3138" y="-0.0802">CDCL (α = 0.75, mVISDS, LubyRestart(100, 2)), Baseline</text></g><g stroke-width="0.0002" stroke="rgb(57%, 62%, 78%)" stroke-opacity="1.0" fill="rgb(57%, 62%, 78%)" fill-opacity="0.25"><rect width="0.0216" height="0.0152" x="0.6963" y="-0.0901"/></g><g stroke-width="0.0" stroke="none" fill="rgb(5%, 5%, 5%)" fill-opacity="1.0" font-size="0.0130" text-anchor="start"><text x="0.3138" y="-0.1006">CDCL (α = 0.75, mVISDS, LubyRestart(100, 2))</text></g><g stroke-width="0" stroke="rgb(2%, 29%, 48%)" stroke-opacity="1.0" fill="rgb(57%, 62%, 78%)" fill-opacity="1.0"><rect width="0.0216" height="0.0152" x="0.6963" y="-0.1105"/></g><g stroke-width="0.0" stroke="none" fill="rgb(5%, 5%, 5%)" fill-opacity="1.0" font-size="0.0130" text-anchor="start"><text x="0.3138" y="-0.1209">CDCL (α = 0.75, mVISDS, ExpRestart(100, 2)), Baseline</text></g><g stroke-width="0.0002" stroke="rgb(0%, 72%, 67%)" stroke-opacity="1.0" fill="rgb(0%, 72%, 67%)" fill-opacity="0.25"><rect width="0.0216" height="0.0152" x="0.6963" y="-0.1308"/></g><g stroke-width="0.0" stroke="none" fill="rgb(5%, 5%, 5%)" fill-opacity="1.0" font-size="0.0130" text-anchor="start"><text x="0.3138" y="-0.1412">CDCL (α = 0.75, mVISDS, ExpRestart(100, 2))</text></g><g stroke-width="0" stroke="rgb(2%, 29%, 48%)" stroke-opacity="1.0" fill="rgb(0%, 72%, 67%)" fill-opacity="1.0"><rect width="0.0216" height="0.0152" x="0.6963" y="-0.1511"/></g><g stroke-width="0.0" stroke="none" fill="rgb(5%, 5%, 5%)" fill-opacity="1.0" font-size="0.0130" text-anchor="start"><text x="0.3138" y="-0.1616">CDCL (α = 0.75, mVISDS), Baseline</text></g><g stroke-width="0.0002" stroke="rgb(48%, 65%, 0%)" stroke-opacity="1.0" fill="rgb(48%, 65%, 0%)" fill-opacity="0.25"><rect width="0.0216" height="0.0152" x="0.6963" y="-0.1715"/></g><g stroke-width="0.0" stroke="none" fill="rgb(5%, 5%, 5%)" fill-opacity="1.0" font-size="0.0130" text-anchor="start"><text x="0.3138" y="-0.1819">CDCL (α = 0.75, mVISDS)</text></g><g stroke-width="0" stroke="rgb(2%, 29%, 48%)" stroke-opacity="1.0" fill="rgb(48%, 65%, 0%)" fill-opacity="1.0"><rect width="0.0216" height="0.0152" x="0.6963" y="-0.1918"/></g><g stroke-width="0.0" stroke="none" fill="rgb(5%, 5%, 5%)" fill-opacity="1.0" font-size="0.0130" text-anchor="start"><text x="0.3138" y="-0.2023">CDCL (α = 0.75), Baseline</text></g><g stroke-width="0.0002" stroke="rgb(20%, 15%, 40%)" stroke-opacity="1.0" fill="rgb(20%, 15%, 40%)" fill-opacity="0.25"><rect width="0.0216" height="0.0152" x="0.6963" y="-0.2122"/></g><g stroke-width="0.0" stroke="none" fill="rgb(5%, 5%, 5%)" fill-opacity="1.0" font-size="0.0130" text-anchor="start"><text x="0.3138" y="-0.2226">CDCL (α = 0.75)</text></g><g stroke-width="0" stroke="rgb(2%, 29%, 48%)" stroke-opacity="1.0" fill="rgb(20%, 15%, 40%)" fill-opacity="1.0"><rect width="0.0216" height="0.0152" x="0.6963" y="-0.2325"/></g><g stroke-width="0.0" stroke="none" fill="rgb(5%, 5%, 5%)" fill-opacity="1.0" font-size="0.0130" text-anchor="start"><text x="0.3138" y="-0.2429">CDCL (adaptive, mVSIDS), Baseline</text></g><g stroke-width="0.0002" stroke="rgb(72%, 66%, 0%)" stroke-opacity="1.0" fill="rgb(72%, 66%, 0%)" fill-opacity="0.25"><rect width="0.0216" height="0.0152" x="0.6963" y="-0.2528"/></g><g stroke-width="0.0" stroke="none" fill="rgb(5%, 5%, 5%)" fill-opacity="1.0" font-size="0.0130" text-anchor="start"><text x="0.3138" y="-0.2633">CDCL (adaptive, mVSIDS)</text></g><g stroke-width="0" stroke="rgb(2%, 29%, 48%)" stroke-opacity="1.0" fill="rgb(72%, 66%, 0%)" fill-opacity="1.0"><rect width="0.0216" height="0.0152" x="0.6963" y="-0.2732"/></g><g stroke-width="0.0" stroke="none" fill="rgb(5%, 5%, 5%)" fill-opacity="1.0" font-size="0.0130" text-anchor="start"><text x="0.3138" y="-0.2836">CDCL (adaptive, mVISDS, LubyRestart(100, 2), Clause Decay)</text></g><g stroke-width="0" stroke="rgb(2%, 29%, 48%)" stroke-opacity="1.0" fill="rgb(0%, 21%, 55%)" fill-opacity="1.0"><rect width="0.0216" height="0.0152" x="0.6963" y="-0.2935"/></g><g stroke-width="0.0" stroke="none" fill="rgb(5%, 5%, 5%)" fill-opacity="1.0" font-size="0.0130" text-anchor="start"><text x="0.3138" y="-0.3040">CDCL (adaptive, mVISDS, LubyRestart(100, 2)), Baseline</text></g><g stroke-width="0.0002" stroke="rgb(0%, 36%, 0%)" stroke-opacity="1.0" fill="rgb(0%, 36%, 0%)" fill-opacity="0.25"><rect width="0.0216" height="0.0152" x="0.6963" y="-0.3138"/></g><g stroke-width="0.0" stroke="none" fill="rgb(5%, 5%, 5%)" fill-opacity="1.0" font-size="0.0130" text-anchor="start"><text x="0.3138" y="-0.3243">CDCL (adaptive, mVISDS, LubyRestart(100, 2))</text></g><g stroke-width="0" stroke="rgb(2%, 29%, 48%)" stroke-opacity="1.0" fill="rgb(0%, 36%, 0%)" fill-opacity="1.0"><rect width="0.0216" height="0.0152" x="0.6963" y="-0.3342"/></g><g stroke-width="0.0" stroke="none" fill="rgb(5%, 5%, 5%)" fill-opacity="1.0" font-size="0.0130" text-anchor="start"><text x="0.3138" y="-0.3446">CDCL (adaptive, mVISDS, ExpRestart(100, 2), Clause Decay 0.999)</text></g><g stroke-width="0" stroke="rgb(2%, 29%, 48%)" stroke-opacity="1.0" fill="rgb(70%, 21%, 0%)" fill-opacity="1.0"><rect width="0.0216" height="0.0152" x="0.6963" y="-0.3545"/></g><g stroke-width="0.0" stroke="none" fill="rgb(5%, 5%, 5%)" fill-opacity="1.0" font-size="0.0130" text-anchor="start"><text x="0.3138" y="-0.3650">CDCL (adaptive, mVISDS, ExpRestart(100, 2)), Baseline</text></g><g stroke-width="0.0002" stroke="rgb(47%, 34%, 0%)" stroke-opacity="1.0" fill="rgb(47%, 34%, 0%)" fill-opacity="0.25"><rect width="0.0216" height="0.0152" x="0.6963" y="-0.3749"/></g><g stroke-width="0.0" stroke="none" fill="rgb(5%, 5%, 5%)" fill-opacity="1.0" font-size="0.0130" text-anchor="start"><text x="0.3138" y="-0.3853">CDCL (adaptive, mVISDS, ExpRestart(100, 2))</text></g><g stroke-width="0" stroke="rgb(2%, 29%, 48%)" stroke-opacity="1.0" fill="rgb(47%, 34%, 0%)" fill-opacity="1.0"><rect width="0.0216" height="0.0152" x="0.6963" y="-0.3952"/></g><g stroke-width="0.0" stroke="none" fill="rgb(5%, 5%, 5%)" fill-opacity="1.0" font-size="0.0130" text-anchor="start"><text x="0.3138" y="-0.4056">CDCL (adaptive), Baseline</text></g><g stroke-width="0.0002" stroke="rgb(57%, 0%, 21%)" stroke-opacity="1.0" fill="rgb(57%, 0%, 21%)" fill-opacity="0.25"><rect width="0.0216" height="0.0152" x="0.6963" y="-0.4155"/></g><g stroke-width="0.0" stroke="none" fill="rgb(5%, 5%, 5%)" fill-opacity="1.0" font-size="0.0130" text-anchor="start"><text x="0.3138" y="-0.4260">CDCL (adaptive)</text></g><g stroke-width="0" stroke="rgb(2%, 29%, 48%)" stroke-opacity="1.0" fill="rgb(57%, 0%, 21%)" fill-opacity="1.0"><rect width="0.0216" height="0.0152" x="0.6963" y="-0.4359"/></g></g></g><g class="frame"><g stroke-width="0" stroke="rgb(0%, 0%, 0%)" stroke-opacity="0" fill="rgb(100%, 100%, 100%)" fill-opacity="0.02"><rect width="1.6180" height="1.0" x="-0.8090" y="-0.5"/></g></g><g class="title"><g stroke-width="0.0" stroke="none" fill="rgb(5%, 5%, 5%)" fill-opacity="1.0" font-size="0.0247" text-anchor="middle"><text x="-0.7505" y="0" transform="rotate(-90.0, -0.7505, 0)">Time [s]</text></g></g></g></svg>